<?xml version="1.0" encoding="UTF-8"?>
<svg xmlns="http://www.w3.org/2000/svg" version="1.1" xmlns:xlink="http://www.w3.org/1999/xlink" viewBox="0 0 325.55 256.19">
  <defs>
    <style>
      .cls-1 {
        fill: #f8e5cf;
      }

      .cls-2 {
        fill: #fff;
      }

      .cls-3 {
        fill: #040304;
      }

      .cls-4 {
        fill: none;
      }

      .cls-5 {
        fill: #030303;
      }

      .cls-6 {
        fill: #fbfdfb;
      }

      .cls-7 {
        fill: #e2cfb5;
      }

      .cls-8 {
        fill: #f0d1d0;
      }

      .cls-9 {
        fill: #fafafd;
      }

      .cls-10 {
        fill: #e3e1dd;
      }

      .cls-11 {
        fill: #e0dee0;
      }

      .cls-12 {
        clip-path: url(#clippath);
      }

      .cls-13 {
        fill: #e0e0df;
      }
    </style>
    <clipPath id="clippath">
      <rect class="cls-4" x="22.66" y="28.35" width="272.13" height="201.56"/>
    </clipPath>
  </defs>
  <!-- Generator: Adobe Illustrator 28.7.0, SVG Export Plug-In . SVG Version: 1.2.0 Build 136)  -->
  <g>
    <g id="Layer_1">
      <g class="cls-12">
        <path class="cls-2" d="M165.39,29.23c2.25-.99,4.79-1,7.18-.72,3.8,1.23,7.95,2.37,10.71,5.46,3.58,4,5.53,9.49,5.08,14.87-.19,5.41-3.13,10.07-5.71,14.63,1.08.09,2.41.45,3.19-.6,2.95-3.06,4.27-7.25,5.18-11.31.46-1.55.54-3.61,2.3-4.28,5.64-2.85,12.32-4,18.5-2.39,5.19,1.56,9.28,5.89,11.18,10.9,2.37,6.42.41,13.94-4.12,18.93-1.7,1.77-3.78,3.92-6.44,3.69-3.83-.6-5.58-4.65-8.82-6.37-.05.97-.38,2.08.37,2.91,2.42,3.73,7.18,6.19,11.6,4.85,4.66-1.28,6.9-5.95,9.98-9.22,8.28.7,17.48,3.01,22.63,10.07,4.01,5.52,2.04,12.71.59,18.76-.75,1.75-.81,4.88-3.25,5.01-3.56.32-7.38.42-10.23,2.91,2.55-.17,5.02-.8,7.52-1.28,4.05-.83,8.2.97,11.14,3.72,5,4.73,9.2,11.08,9.1,18.21.39,8.04-4.32,15.56-10.71,20.11-4.07,3.02-9.14,4.26-14.12,4.62-1.66-.3-3.32-.52-4.98-.69-3.23-1.56-6.29-3.47-8.91-5.92,1.91-4.24,5.35-7.7,6.45-12.31,1.07-4.17,1.99-9.2-.87-12.89-3.8-4.8-10.7-7.43-16.62-5.29,2.73,1.26,5.87-.4,8.54,1.04,3.55,1.84,6.85,5.23,6.88,9.48.05,5.37-1.83,10.65-4.71,15.15-3.55,5.28-9.44,8.5-15.59,9.74-1.53-.08-3.04-.11-4.56-.12-6.76-1.63-14.73-4.02-17.73-10.99.47-2.46,2.13-4.47,3.17-6.69,1.37-2.49,2-5.28,2.38-8.07-.48-.09-1.43-.27-1.92-.37-2.45,4.52-3.5,9.86-7.17,13.67-3.93,4.53-10.47,5.51-16.12,4.71-5.23-.94-10.82-2.66-14.27-6.97-2.05-2.56-3.79-5.74-3.61-9.11.7-1.86,2.32-3.17,3.52-4.72,2.51-2.86,4.28-6.27,5.6-9.81-.85-.27-1.69-.53-2.53-.78-2.49,4.12-4.34,8.82-8.13,11.98-3.37,3.03-8.06,4.49-12.54,3.92-7.94-1.17-15.04-6.64-18.32-13.95-1.59-3.42-2.26-7.47-.83-11.06,2.09-5.5,6.99-9.37,12.04-12.04,3.46-1.96,9.08-.71,9.96,3.56.26,3.52-4.28,3.75-6,6.09,1.9.15,3.93.35,5.7-.5,2.58-1.09,4.36-4.38,3.01-7.03-1.83-4.13-6.91-6.12-11.16-4.97-4.82,1.3-9.06,4.31-12.42,7.95-2.66,2.75-4.05,6.38-5.64,9.81-1.89.53-3.78,1.04-5.73,1.29-4.19.31-8.32-.54-12.35-1.6-4.02-2.59-8.45-4.91-11.37-8.81-3.69-5.05-5.52-11.72-3.67-17.84,1.48-7.28,6.85-13.02,12.97-16.84,3.02-1.89,6.71-1.82,10.12-2.34-.95-8.84,2.49-18.73,10.33-23.49,5.91-3.44,13.15-3.47,19.73-2.41,5.79,1.04,12.19,3.3,15.1,8.84,2.8,4.86.47,11.67-4.53,14.06-2.71,1.32-6.31,2.04-8.89.05-2.2-1.59-2.15-4.57-2.71-6.96-.7-.27-1.39-.53-2.08-.79-1.53,3.72.25,8.54,4.2,9.86,6.78,3.18,15.65-.95,17.79-8.06,1.01-2.84-.14-5.76-.48-8.61-.48-1.97,1.41-3.3,2.6-4.53,3.82-3.72,8.72-5.94,13.52-8.09"/>
        <path class="cls-1" d="M219.6,183.23c-4.69-.57-9.91,2.03-11.31,6.76-1.74,3.75.03,8.07,2.53,11.01,4.71,4.55,14.03,2.52,16.16-3.81,3.06-5.52-1.46-12.99-7.38-13.96M78.22,133.82c-3.09-.83-6.29.23-8.94,1.83-2.44,1.32-2.93,4.37-3.71,6.78-1.23,3.76,1.41,7.55,4.48,9.5,4.49,3.34,11.72,1.47,14.19-3.52,3.72-5.23.09-13.27-6.02-14.6M143.01,146.29c-.24,2.86,1.95,5.05,3.73,7-.91,2.27-1.3,4.84-2.84,6.81-2.49,3.07-8.14.5-7.94-3.26-.12-1.06.38-2.45-.87-2.97-.44,2.14-.76,4.68.98,6.37,2.08,2.63,5.85,2.78,8.6,1.17.84,2.13,2.4,4.3,4.91,4.47,3.24.79,6.38-1.65,7.1-4.78-1.85.89-2.63,3.28-4.76,3.64-2.28.56-5.19-.53-5.84-2.96-.68-2.86,1.05-5.53,1.92-8.16,2.5-.42,5.78-.57,7.01-3.22-2.55.48-4.9,2.56-7.6,1.62-2.23-1.27-2.61-4.06-4.4-5.73M197.64,158.76c-5.18-.46-10.66,2.65-12.3,7.7-3.13,7.21,1.93,16.13,9.41,17.86,6.29,1.98,13.65-2.18,15.03-8.67,2.1-7.79-4.12-16.3-12.14-16.9M100.05,125.28c-6.6.29-12.09,6.8-11.19,13.36.42,7.81,8.62,14.33,16.32,12.35,6.12-1.2,10.33-7.77,9.23-13.84-.82-6.84-7.45-12.49-14.36-11.87M251.87,154.26c.43,2.99,1.53,5.81,2.71,8.57,2.65,6.81,5.53,13.68,10.14,19.42,2.18,2.65,5.39,4.95,8.96,4.78,4.86-.63,8.07-5.12,9.72-9.36,1.46-4.19-.78-8.58-3.91-11.32-5.4-4.79-12.17-7.73-18.94-10.06-2.82-.93-5.64-2.34-8.68-2.03M45.39,85.58c-4.32.23-9.05,2.13-10.66,6.49-1.38,4.38-1.28,9.78,1.82,13.43,2.33,1.93,5.62,2.4,8.56,1.95,6.74-1.23,12.93-4.35,18.87-7.64,3.5-2.3,7.37-4.19,10.27-7.29-9.12-3.84-18.81-7.47-28.86-6.94M260.73,144.05c5.24,2.77,10.95,4.68,15.85,8.1,4.53,3.13,9.08,6.39,12.78,10.51,3.77,4.65,6.5,10.88,5.01,16.94-1,5.25-4.55,9.44-7.99,13.32-3.52,4.22-9.73,5.37-14.86,4.13-7.84-3.12-12.6-10.53-17.05-17.28-2.85-4.2-4.33-9.19-7.55-13.14-1.61,5.08-.99,10.47-2.04,15.65-.9,6.09-3.01,11.96-6.2,17.22-3.48,6.34-9.05,11.1-14.53,15.66-4.34,3.25-9.45,5.25-14.3,7.61-14.32,5.04-29.62,8.1-44.85,6.89-22.14-1.21-43.86-8.08-63.13-18.96-5.72-2.77-10.83-6.59-15.88-10.4-8.52-6.96-16.61-14.68-22.49-24.04-1.34-3.71-3.82-6.84-5.34-10.47-5.88-12.64-7.8-27.7-2.64-40.92,2.17-6.24,6.24-11.49,10.05-16.78-2.87.69-5.29,2.47-8.04,3.47-6.93,2.62-14.28,5.04-21.79,4.19-4.38-.46-8.68-2.9-10.68-6.93-2.58-5.22-2.79-11.3-1.99-16.97.8-6.03,4.87-11.53,10.55-13.82,7.98-3.39,16.96-2.73,25.34-1.51,5.04.97,10.22,1.66,14.94,3.79,0,3.68.43,7.4,1.42,10.95,1.39,4.89,5.6,8.22,9.61,10.99,2.29,1.7,5.07,2.42,7.83,2.94,4.03,1.06,8.17,1.91,12.35,1.6,2.03.58,4.17,1.13,5.89,2.43,1.26,2.3,1.6,5.01,3.05,7.23,1.43,2.23,3.06,4.35,4.81,6.35,2.64,3.05,6.52,4.57,10.24,5.83,3.19.94,6.58,2.2,9.93,1.24,1.74-.23,3.92-1.39,5.37.19,2.95,2.92,4.31,7.28,8,9.49,5.81,3.53,12.67,5.14,19.43,5.2,3.98.07,7.73-1.41,11.57-2.2,5.78,4.64,12.72,9.1,20.47,8.32,1.52,0,3.03.04,4.55.12,4.95,1.84,9.1-2.3,13.86-2.62,3.76.91,6.91,3.89,10.99,3.64,1.66.17,3.32.39,4.98.69,1.83.41,3.74,1.18,5.64.64,3.71-.9,7.56-2,10.54-4.5,2.04-1.67,4.19-3.22,6.32-4.79"/>
        <path class="cls-13" d="M165.39,29.23c6.26-.49,18.12.33,23.11,6.93,1.27,2.92,2,6.03,3.04,9.04,3.04-.51,5.95-1.57,8.95-2.19,5-.9,10.32-.6,15.03,1.41,6.11,2.64,10.52,8.66,11.41,15.23.3,3.01-.39,6-.76,8.98,6.69,1.38,13.78,2.31,19.57,6.25,4.82,3.21,8.04,8.78,8.09,14.6,0,5.41-2.29,10.42-3.51,15.61,7.63,3.99,14.02,11.08,15.58,19.73,1.32,6.83-1.77,13.5-5.17,19.23-2.12,1.57-4.27,3.12-6.32,4.79-2.98,2.5-6.82,3.6-10.54,4.5-1.9.54-3.81-.23-5.64-.64,4.98-.36,10.05-1.6,14.12-4.62,6.39-4.55,11.09-12.07,10.71-20.11.1-7.13-4.1-13.48-9.1-18.21-2.94-2.75-7.09-4.55-11.14-3.72-2.5.48-4.97,1.1-7.52,1.28,2.85-2.48,6.67-2.59,10.23-2.91,2.45-.12,2.5-3.26,3.25-5.01,1.45-6.05,3.42-13.23-.59-18.76-5.15-7.05-14.35-9.37-22.63-10.07-3.08,3.27-5.32,7.94-9.98,9.22-4.43,1.34-9.19-1.12-11.6-4.85-.75-.83-.42-1.94-.37-2.91,3.24,1.71,4.98,5.77,8.82,6.37,2.66.23,4.74-1.92,6.44-3.69,4.53-4.99,6.49-12.51,4.12-18.93-1.89-5.01-5.99-9.34-11.18-10.9-6.18-1.61-12.86-.45-18.5,2.39-1.77.67-1.84,2.73-2.3,4.28-.91,4.06-2.23,8.25-5.18,11.31-.77,1.05-2.1.69-3.19.6,2.58-4.56,5.53-9.21,5.71-14.63.45-5.38-1.5-10.87-5.08-14.87-10.71-5.46-14.1-3.51-17.9-4.74"/>
        <path class="cls-13" d="M213.3,115.59c5.92-2.14,12.82.49,16.62,5.29,2.86,3.69,1.94,8.72.87,12.89-1.1,4.61-4.53,8.07-6.45,12.31,2.62,2.45,5.68,4.37,8.91,5.93-4.08.25-7.23-2.73-10.99-3.64-4.76.32-8.91,4.46-13.86,2.63,6.14-1.24,12.03-4.45,15.59-9.74,2.88-4.49,4.76-9.77,4.71-15.14-.03-4.25-3.32-7.64-6.88-9.48-2.66-1.45-5.81.22-8.54-1.04"/>
        <path class="cls-7" d="M45.39,85.58c10.05-.53,19.74,3.1,28.86,6.94-2.89,3.1-6.77,4.99-10.27,7.29-5.95,3.29-12.14,6.41-18.87,7.64-2.93.45-6.23-.02-8.56-1.95-3.1-3.65-3.19-9.05-1.82-13.43,1.61-4.36,6.34-6.27,10.66-6.49"/>
        <path class="cls-7" d="M251.87,154.26c3.05-.31,5.86,1.1,8.69,2.03,6.77,2.33,13.53,5.27,18.93,10.06,3.14,2.74,5.37,7.13,3.91,11.32-1.65,4.25-4.86,8.73-9.72,9.36-3.57.17-6.78-2.12-8.96-4.78-4.61-5.75-7.49-12.61-10.14-19.42-1.18-2.76-2.28-5.58-2.71-8.57"/>
        <path class="cls-11" d="M147.1,38.5c5.12-4.59,13.49-10.05,21.1-9.38-4.8,2.15-12.51,4.49-16.33,8.21-1.2,1.23-3.08,2.56-2.6,4.53.33,2.84,1.49,5.76.48,8.61-2.14,7.11-11.01,11.24-17.79,8.06-3.94-1.33-5.72-6.14-4.2-9.86.69.26,1.38.52,2.08.79.56,2.39.51,5.37,2.71,6.97,2.58,1.98,6.18,1.27,8.89-.05,5-2.39,7.33-9.2,4.53-14.06-2.91-5.54-9.3-7.81-15.1-8.84-6.58-1.06-13.81-1.03-19.72,2.41-7.84,4.77-11.29,14.65-10.34,23.49-3.41.52-7.1.45-10.12,2.34-6.12,3.82-11.49,9.56-12.97,16.84-1.85,6.11-.02,12.79,3.67,17.84,2.92,3.91,7.35,6.22,11.37,8.82-2.76-.51-5.54-1.24-7.83-2.94-4.01-2.78-8.22-6.1-9.61-10.99-.99-3.56-1.42-7.27-1.43-10.95,1.94-6.57,5.14-13.26,11.12-17.05,3.5-2.56,7.75-3.62,11.9-4.6.99-5.05,1.12-10.39,3.61-15.02,2.86-6.21,8.95-10.46,15.52-11.92,10.66-2.42,22.44-.01,31.05,6.78"/>
        <path class="cls-8" d="M78.22,133.82c6.11,1.32,9.74,9.37,6.02,14.59-2.47,4.99-9.7,6.86-14.19,3.52-3.06-1.95-5.71-5.74-4.48-9.5.78-2.42,1.26-5.46,3.71-6.78,2.65-1.6,5.85-2.66,8.94-1.83"/>
        <path class="cls-8" d="M219.6,183.23c5.91.97,10.43,8.44,7.38,13.96-2.12,6.32-11.44,8.36-16.16,3.81-2.5-2.94-4.27-7.26-2.53-11.01,1.4-4.73,6.62-7.33,11.31-6.76"/>
        <path class="cls-10" d="M128.91,87.75c4.26-1.15,9.33.84,11.16,4.97,1.35,2.65-.43,5.94-3.01,7.03-1.78.86-3.8.65-5.7.5,1.72-2.34,6.26-2.57,6-6.09-.88-4.27-6.51-5.53-9.96-3.56-5.06,2.68-9.95,6.54-12.04,12.04-1.42,3.59-.76,7.64.83,11.06,3.29,7.31,10.38,12.77,18.32,13.95,4.48.57,9.18-.89,12.54-3.92,3.79-3.16,5.64-7.86,8.13-11.98.84.25,1.68.51,2.53.78-1.32,3.55-3.09,6.95-5.6,9.81-1.2,1.55-2.82,2.85-3.52,4.72-.18,3.37,1.56,6.55,3.61,9.11,3.46,4.31,9.04,6.03,14.27,6.97,5.65.8,12.19-.18,16.12-4.71,3.66-3.81,4.71-9.15,7.17-13.68.48.1,1.43.27,1.92.37-.38,2.79-1.01,5.57-2.38,8.07-1.05,2.22-2.71,4.23-3.17,6.69,3,6.97,10.97,9.36,17.74,10.99-7.75.78-14.69-3.68-20.47-8.32-3.84.78-7.59,2.27-11.57,2.2-6.76-.06-13.62-1.67-19.43-5.2-3.7-2.21-5.05-6.57-8-9.49-1.44-1.58-3.63-.41-5.37-.19-3.35.96-6.74-.3-9.93-1.24-3.72-1.26-7.6-2.78-10.24-5.83-1.74-2-3.37-4.12-4.81-6.35-1.45-2.22-1.79-4.92-3.05-7.23-1.71-1.3-3.85-1.86-5.89-2.43,1.95-.25,3.84-.76,5.73-1.29,1.59-3.43,2.98-7.06,5.64-9.81,3.36-3.64,7.6-6.65,12.42-7.95"/>
        <path class="cls-5" d="M108.14,133.22c-1.77-.36-2.6,1.66-2.73,3.09-.24,2.65,4.5,4.06,5.4,1.32,1.17-1.95-.5-4.4-2.68-4.42M100.05,125.28c6.91-.62,13.54,5.04,14.36,11.87,1.1,6.07-3.11,12.64-9.23,13.84-7.7,1.98-15.9-4.54-16.32-12.35-.91-6.56,4.59-13.07,11.19-13.36"/>
        <path class="cls-5" d="M143.01,146.29c1.8,1.67,2.17,4.46,4.4,5.73,2.7.94,5.05-1.14,7.6-1.62-1.23,2.64-4.51,2.79-7.02,3.22-.87,2.62-2.6,5.29-1.92,8.16.65,2.42,3.55,3.52,5.84,2.96,2.13-.36,2.9-2.75,4.76-3.64-.72,3.13-3.86,5.57-7.1,4.78-2.5-.17-4.07-2.33-4.91-4.47-2.75,1.61-6.52,1.47-8.6-1.17-1.75-1.69-1.42-4.23-.98-6.37,1.26.52.76,1.91.87,2.97-.2,3.77,5.45,6.33,7.94,3.26,1.54-1.97,1.94-4.54,2.85-6.81-1.78-1.95-3.97-4.14-3.73-7"/>
        <path class="cls-3" d="M203.43,166.69c-2.39.08-3.15,3.46-1.6,5.02,1.31.96,3.72,1.42,4.55-.39,1.44-2.12-.55-4.77-2.94-4.63M197.64,158.75c8.02.59,14.24,9.1,12.14,16.9-1.38,6.48-8.75,10.64-15.03,8.67-7.48-1.74-12.54-10.65-9.41-17.86,1.65-5.05,7.12-8.16,12.3-7.7"/>
        <path class="cls-9" d="M108.14,133.22c2.17.01,3.85,2.47,2.68,4.42-.9,2.73-5.64,1.33-5.4-1.32.13-1.44.96-3.46,2.73-3.09"/>
        <path class="cls-6" d="M203.43,166.69c2.4-.14,4.38,2.52,2.94,4.63-.83,1.81-3.24,1.35-4.55.39-1.54-1.56-.79-4.94,1.6-5.02"/>
      </g>
    </g>
  </g>
</svg>