<?xml version="1.0" encoding="UTF-8"?>
<svg xmlns="http://www.w3.org/2000/svg" version="1.1" xmlns:xlink="http://www.w3.org/1999/xlink" viewBox="0 0 227.51 252.58">
  <defs>
    <style>
      .cls-1 {
        fill: #f79220;
      }

      .cls-2 {
        fill: #fff;
      }

      .cls-3 {
        fill: none;
      }

      .cls-4 {
        fill: #a9742a;
      }

      .cls-5 {
        fill: #c08731;
      }

      .cls-6 {
        clip-path: url(#clippath);
      }
    </style>
    <clipPath id="clippath">
      <rect class="cls-3" x="39.94" y="30.66" width="158.74" height="197.07"/>
    </clipPath>
  </defs>
  <!-- Generator: Adobe Illustrator 28.7.0, SVG Export Plug-In . SVG Version: 1.2.0 Build 136)  -->
  <g>
    <g id="Layer_1">
      <g class="cls-6">
        <path d="M161.05,213.58c-2.29-5.94-.52-1.4-10.01.67-3.14.69-5.9,1.46-8.2,2.18-6.35.79-9.05,1.25-9.05,1.25,0,0,1.8,8,9.67,9.5,1.95.62,4.32.79,7.17.17,11.66-2.54,12.11-9.34,10.41-13.76M85.54,214.24c-9.48-2.07-7.71-6.61-10.01-.67-1.71,4.42-1.25,11.22,10.4,13.76,2.86.63,5.22.45,7.17-.17,7.87-1.5,9.68-9.5,9.68-9.5,0,0-2.69-.45-9.05-1.25-2.3-.73-5.06-1.49-8.2-2.18"/>
        <path class="cls-4" d="M119.23,43.71c-54.74,0-92.64,87.49-74.86,140.36,17.78,52.87,131.47,48.66,149.71-1.87,18.25-50.53-20.12-138.49-74.86-138.49"/>
        <path class="cls-5" d="M192.26,114.34c-.51-.56-1-1.12-1.55-1.68,0,0-23.99,26.27-17.2,58.54,3.65,17.37,14.73,17.22,17.89,16.81,1.02-1.87,1.96-3.8,2.69-5.82,7.02-19.46,5.63-44.46-1.83-67.85M46.58,114.02c-7.6,23.81-9.11,49.53-2.21,70.04.46,1.39,1.03,2.71,1.63,4.01,4.28.3,15.52-.53,18.96-16.88,6.79-32.27-17.2-58.54-17.2-58.54-.41.45-.78.91-1.17,1.37"/>
        <path class="cls-4" d="M180.99,30.84c-5.54-2.96-28.39,30.87-47.31,16.52-18.92-14.35,9.04,48.98,20.5,38.27,19.43-18.15,32.35-51.83,26.81-54.79"/>
        <path class="cls-4" d="M102.91,47.36c-18.92,14.35-41.77-19.47-47.31-16.52-5.54,2.95,7.38,36.64,26.81,54.79,11.47,10.71,39.42-52.62,20.5-38.27"/>
        <path class="cls-2" d="M97.07,81.37c-13.6,0-24.63,10.89-24.63,24.33s11.03,24.33,24.63,24.33,24.63-10.89,24.63-24.33-11.03-24.33-24.63-24.33"/>
        <path class="cls-2" d="M143.26,81.37c-13.6,0-24.63,10.89-24.63,24.33s11.03,24.33,24.63,24.33,24.63-10.89,24.63-24.33-11.03-24.33-24.63-24.33"/>
        <path class="cls-1" d="M119.23,113.18c-5.17,0-9.36,8.16-9.36,15.91s9.36,14.04,9.36,14.04c0,0,9.36-6.28,9.36-14.04s-4.19-15.91-9.36-15.91"/>
        <path d="M138.88,100.08c-3.62,0-6.55,3.35-6.55,7.49s2.93,7.49,6.55,7.49,6.55-3.35,6.55-7.49-2.93-7.49-6.55-7.49"/>
        <path d="M101.45,100.08c-3.62,0-6.55,3.35-6.55,7.49s2.93,7.49,6.55,7.49,6.55-3.35,6.55-7.49-2.93-7.49-6.55-7.49"/>
      </g>
    </g>
  </g>
</svg>