<?xml version="1.0" encoding="UTF-8"?>
<svg xmlns="http://www.w3.org/2000/svg" version="1.1" viewBox="0 0 260.07 275.84">
  <defs>
    <style>
      .cls-1 {
        fill: #fcfbe5;
      }

      .cls-2 {
        fill: #f9f9ef;
      }

      .cls-3 {
        fill: #745e55;
      }

      .cls-4 {
        fill: #453027;
      }

      .cls-5 {
        fill: #5f433f;
      }

      .cls-6 {
        fill: #b4a086;
      }

      .cls-7 {
        fill: #fffef3;
      }

      .cls-8 {
        fill: #e7e0cc;
      }

      .cls-9 {
        fill: #b6997d;
      }

      .cls-10 {
        fill: #937c74;
      }

      .cls-11 {
        fill: #907360;
      }

      .cls-12 {
        fill: #d8d1b4;
      }

      .cls-13 {
        fill: #b7a38a;
      }

      .cls-14 {
        fill: #251a11;
      }

      .cls-15 {
        fill: #775f56;
      }

      .cls-16 {
        fill: #785d58;
      }

      .cls-17 {
        fill: #765d55;
      }

      .cls-18 {
        fill: #b29f83;
      }

      .cls-19 {
        fill: #e1d3c1;
      }

      .cls-20 {
        fill: #d2ccb2;
      }

      .cls-21 {
        fill: #9b8579;
      }

      .cls-22 {
        fill: #ece8d4;
      }

      .cls-23 {
        fill: #68534b;
      }

      .cls-24 {
        fill: #b49f8a;
      }

      .cls-25 {
        fill: #dfd5c1;
      }

      .cls-26 {
        fill: #fffef1;
      }

      .cls-27 {
        fill: #b8a084;
      }

      .cls-28 {
        fill: #2a1a11;
      }

      .cls-29 {
        fill: #b69f86;
      }

      .cls-30 {
        fill: #b69f87;
      }

      .cls-31 {
        fill: #785d57;
      }

      .cls-32 {
        fill: #795f59;
      }

      .cls-33 {
        fill: #b4a085;
      }

      .cls-34 {
        fill: #785c58;
      }

      .cls-35 {
        fill: #8e7971;
      }

      .cls-36 {
        fill: #2b1a11;
      }

      .cls-37 {
        fill: #352517;
      }

      .cls-38 {
        fill: #d8ccb7;
      }

      .cls-39 {
        fill: #a0887e;
      }

      .cls-40 {
        fill: #e4dac6;
      }

      .cls-41 {
        fill: #9e917d;
      }

      .cls-42 {
        fill: #fdfce7;
      }

      .cls-43 {
        fill: #b5a08b;
      }

      .cls-44 {
        fill: #8f7870;
      }

      .cls-45 {
        fill: #988179;
      }

      .cls-46 {
        fill: #e8e1ce;
      }

      .cls-47 {
        fill: #b59f86;
      }
    </style>
  </defs>
  <!-- Generator: Adobe Illustrator 28.7.0, SVG Export Plug-In . SVG Version: 1.2.0 Build 136)  -->
  <g>
    <g id="Layer_1">
      <g>
        <path class="cls-36" d="M212.82,134.5c3.37-1.72,5.74-4.79,8.81-6.95-3.58,6.36-10.6,9.53-17.3,11.51-.39-.2-1.18-.59-1.57-.79,3.44-.98,6.91-2.02,10.06-3.77Z"/>
        <path class="cls-10" d="M174.8,51.18c3.91-5.46,7.35-11.52,12.64-15.77.26,10.38,1.03,21.37,6.87,30.32.59,1.2,1.73,1.83,3.04,2.05-1.18-2.32-2.58-4.54-3.25-7.07,4.94,5.14,10.96,9.42,14.62,15.66,4.05,8.45,4.12,18.11,3.53,27.28-2.98,3.74-6.9,7.03-11.85,7.45-6.5,1.29-15.52-1.56-15.75-9.35,2.85-4.81,5.86-9.65,9.92-13.56,1.09-1.06,2.1-2.21,2.85-3.55-2.01.87-3.86,2.03-5.67,3.24-.02-7.25-5.15-12.88-6.92-19.65-1.65-5.08-1.74-10.44-2.2-15.7-.51-1.07-1.11-2.1-1.64-3.13-7.14,7.17-11.34,16.77-13.29,26.6-.9-.74-1.79-1.47-2.66-2.2,2.43-7.86,4.95-15.84,9.76-22.62Z"/>
        <path class="cls-45" d="M154.1,106.9c1.07-6.06-3.79-11.29-2.49-17.24.26,1.45.5,2.92.76,4.4,1.66-.62,3.33-1.21,5.03-1.77-.51,6.74-.26,13.75,2.33,20.1,2.16,4.76,6.01,8.42,9.49,12.21-.78-5.4-5.01-9.39-6.32-14.61-1.68-6.44-1.76-13.22-.74-19.77.93,1.35,1.87,2.71,2.85,4.04-1.58-.12-3.03.78-2.57,2.55-.37,9.19,5.63,18.38,14.36,21.36.18,3.3,1.24,6.46,2.69,9.41.95,2.59,3.7,3.5,5.95,4.62.15.35.44,1.06.58,1.42.16-.04.46-.13.62-.17,2.79-.14,5.59-.23,8.39-.4-.08.61-.25,1.84-.33,2.45,2.15.85,4.32,1.74,6.28,3-8.84,1.7-17.89.94-26.74,2.41-3.27.4-6.69.58-9.64,2.18-4.29,2.1-7.54,5.7-10.53,9.32-.57-8.39-2.84-17.37-9.31-23.2-3.35-2.78-7-5.89-11.56-6.11-2.05.13-3.91,1.07-5.8,1.76.15.38.44,1.13.58,1.5-3.45,2.25-6.14,5.43-8.39,8.85-1.73-6.4-4.72-14.66-12.3-15.62,5.41.04,10.51-2.63,15.94-2.22,3.62-4.35,8.89-9.14,15.05-7.47,7.99,1.9,12.14,9.85,14.73,16.94-.35-4.01-2.02-7.67-3.69-11.26.74-1.62,1.49-3.22,2.25-4.82-1.41-1.24-2.81-2.48-4.2-3.71,1.25.13,2.5.28,3.77.43.51-1.16,1.02-2.32,1.56-3.47.45.96.92,1.92,1.4,2.89Z"/>
        <path class="cls-16" d="M87.86,94.45c1.15-.08,2.46-.8,3.61-.29,7.04,3.38,15.32,1.61,22.71.38,4.57-.73,9.78-1.79,13.85,1.13-2.18.72-4.38,1.35-6.55,2.04.05-.44.17-1.33.23-1.78-5.02,1.04-8.42,5.1-12.66,7.58-4.77-.03-9.43-1.79-13.75-3.69-2.67-1.48-5.74-2.7-7.44-5.37Z"/>
        <path class="cls-16" d="M167.7,76c1.95-9.83,6.15-19.43,13.29-26.6.53,1.03,1.13,2.06,1.64,3.13-2.54,8.14-.59,17.06,2.92,24.64-3.74-2.75-8.08-4.94-12.82-4.95.1,3.21.65,6.38,1.08,9.56-2.05-1.92-4.03-3.91-6.11-5.78Z"/>
        <path class="cls-34" d="M180.41,113.71c.71-4.21,2.6-8.06,4.24-11.96.23,7.79,9.25,10.64,15.75,9.35,4.95-.42,8.87-3.71,11.85-7.45-1.38,9.38-4.18,19.92-12.63,25.37-4.19,1.88-8.97,2.07-12.98,4.43-.16.04-.46.13-.62.17-.14-.36-.43-1.07-.58-1.42-2.25-1.12-5-2.03-5.95-4.62.22-4.63-.14-9.32.92-13.87Z"/>
        <path class="cls-34" d="M100.94,117.98c1.26.26,2.52.58,3.78.96-3.14,3.12-5.28,7-7.45,10.81.73-4.06,2.18-7.94,3.67-11.77Z"/>
        <path class="cls-6" d="M165.23,100.83c2.09,1.91,4.08,3.97,6.51,5.48,2.15,1.48,4.89.89,7.34.97-.69,2.59-1.28,5.22-1.75,7.86-6.3-1.94-10.55-8.14-12.1-14.31Z"/>
        <path class="cls-29" d="M199.78,194.31c8.16-8.56,14.3-18.76,21.72-27.91-3.75,13.08-13.68,23.15-23.22,32.37-9.62,8.67-20.06,16.83-32.17,21.7-6.03,2.47-12.64,2.35-18.89,3.84,6.86,1.88,14.16.4,20.93-1.32,3.01-.23,6.02.19,9.04.35-4.02,3.5-7.79,7.43-12.64,9.78-5.48,2.76-11.15,5.64-17.36,6.1-4.96.41-9.83-.91-14.78-.9,5.42,3.29,12.09,2.43,17.67,5.07-8.36,4.38-18.25,3.03-26.93.4-8.45-2.46-16.65-7.92-19.93-16.4,3.28-.34,6.56-.74,9.81-1.32,1.43,4.42,3.32,8.97,7.27,11.74,2.34,1.86,5.34,2.52,8.14,3.43-1.22-2.02-2.38-4.06-3.48-6.13,7.81,1.46,15.8.48,23.54-.97,3.11-.56,6.1-1.69,8.74-3.46-6.47-1.36-13.1-2.5-18.92-5.79.2-.64.61-1.9.82-2.54,6.06.98,11.91-1.52,17.65-3.09,16.04-4.78,30.8-13.52,42.99-24.95Z"/>
        <path class="cls-28" d="M184.62,32.22c1.39-1.74,4.53-1.35,5.13.87.96,5.83-.4,11.97,1.49,17.68,4.75,10.14,16.7,14.28,21.5,24.42,4.16,9.21,4.49,19.75,3.08,29.62-1.49,8.93-4.68,18.51-12.44,23.91,7.51-1.01,15.75-3.54,19.73-10.57.41-.01,1.24-.03,1.65-.04,1.22,4.91,1.38,10.05.03,14.95.68-.42,2.03-1.26,2.71-1.68.44.26,1.31.77,1.74,1.03v9.85c-.67,4.54-2.17,8.92-4.36,12.95.51.26,1.53.77,2.04,1.03-.32,3.98-1.05,7.96-2.47,11.71-4,9.93-9.05,19.66-16.69,27.32-10.47,10.82-22.6,20.57-36.65,26.25,2.71-.08,5.42-.38,8.14-.19,2.16.12.67,2.52-.13,3.34-7.06,8.76-17.23,14.47-28.11,17.02.54.24,1.63.74,2.18.98-1.52,4.16-6.37,5.35-10.09,6.77-9.54,2.01-19.75.31-28.42-4.02-7.07-3.54-12.78-9.97-14.38-17.84-1.77-.03-3.53-.06-5.28-.08-.3,6.64.79,13.21.99,19.83-2.49-.16-4.93-1.03-6.51-3.04-4.92-5.54-7.91-12.52-10.19-19.49-1.76-.64-3.5-1.28-5.24-1.9-3.3,2.07-7.21,2.52-11.02,2.62,1.71,5.31,4.34,10.27,5.86,15.65-9.92-1.15-17.19-9.34-21.32-17.87-10.01-2.37-19.14-8.71-24.06-17.85-5.04-9.26-7.7-20.62-3.61-30.75-3.47-4.85-6.9-11.51-3.99-17.39,7.74-10.61,23.31-15.73,35.41-9.8,10.31.25,20.77,2.87,29.16,9.1,3.77-3.07,8.57-4.19,13.37-3.63-.42-6.14,1.06-12.15,1.36-18.23-.74-6.02.46-12.17,3.5-17.42-2.98-1.4-5.78-3.13-8.41-5.09,3.33-.22,6.65-.74,9.83-1.78-2.21-2.02-4.46-4.03-6.18-6.49-3.02-4.52-7.85-7.35-10.97-11.8,1.47,0,2.95,0,4.44,0-4.32-11.59-4.65-24.42-1.59-36.36.82.19,1.64.42,2.46.69,3.87,3.88,6.24,9.39,11.4,11.86,6.93,3.71,14.54,6.36,20.27,11.97-1.35-2.57-3.62-4.48-5.3-6.81,8.36,1.76,16.36-3.44,24.67-1.41,8.03,1.66,14.88,7.33,18.61,14.56.87-4.7.77-9.48.95-14.23l1.96-.6c2.1-7.98,5.15-15.8,9.95-22.56,4.22-5.95,8.06-12.42,13.8-17.07ZM174.8,51.18c-4.81,6.78-7.33,14.76-9.76,22.62.87.73,1.76,1.46,2.66,2.2,2.08,1.87,4.06,3.86,6.11,5.78-.43-3.18-.98-6.35-1.08-9.56,4.74.01,9.08,2.2,12.82,4.95-3.51-7.58-5.46-16.5-2.92-24.64.46,5.26.55,10.62,2.2,15.7,1.77,6.77,6.9,12.4,6.92,19.65,1.81-1.21,3.66-2.37,5.67-3.24-.75,1.34-1.76,2.49-2.85,3.55-4.06,3.91-7.07,8.75-9.92,13.56-1.64,3.9-3.53,7.75-4.24,11.96-1.06,4.55-.7,9.24-.92,13.87-1.45-2.95-2.51-6.11-2.69-9.41-8.73-2.98-14.73-12.17-14.36-21.36-.46-1.77.99-2.67,2.57-2.55-.98-1.33-1.92-2.69-2.85-4.04-1.02,6.55-.94,13.33.74,19.77,1.31,5.22,5.54,9.21,6.32,14.61-3.48-3.79-7.33-7.45-9.49-12.21-2.59-6.35-2.84-13.36-2.33-20.1-.28-4.26-3.6-7.43-6.41-10.3-5.58-5.45-13.52-8.21-21.28-7.18-3.32.76-6.73.92-10.11,1.14,1.6,1.42,3.29,3.31,5.69,2.51,6.08-1.04,12.09,1.18,16.93,4.77.77,1.27,1.79,2.36,2.76,3.49-3.21-1.06-5.5-3.85-8.78-4.75-5.18-1.76-10.82-.76-15.84,1.02-9.72,3.5-18.74,8.89-28.89,11.17-1.15-.51-2.46.21-3.61.29,1.7,2.67,4.77,3.89,7.44,5.37,4.32,1.9,8.98,3.66,13.75,3.69,4.24-2.48,7.64-6.54,12.66-7.58-.06.45-.18,1.34-.23,1.78-2.72.7-4.67,2.84-6.67,4.66-4.42,4.46-9.28,8.61-15.11,11.11-.47.04-1.4.11-1.87.14,2.6,2.08,6.23,1.82,9.38,2.11,9.38-.2,19.61-2.49,26.19-9.69.84,2.18,3.25,1.4,5.08,1.52,4.62.92,8.23,4.25,10.84,8.02,1.67,3.59,3.34,7.25,3.69,11.26-2.59-7.09-6.74-15.04-14.73-16.94-6.16-1.67-11.43,3.12-15.05,7.47-5.43-.41-10.53,2.26-15.94,2.22,7.58.96,10.57,9.22,12.3,15.62,2.25-3.42,4.94-6.6,8.39-8.85-.14-.37-.43-1.12-.58-1.5,1.89-.69,3.75-1.63,5.8-1.76,4.56.22,8.21,3.33,11.56,6.11,6.47,5.83,8.74,14.81,9.31,23.2,2.99-3.62,6.24-7.22,10.53-9.32,2.95-1.6,6.37-1.78,9.64-2.18,8.85-1.47,17.9-.71,26.74-2.41.42.26,1.26.77,1.67,1.03-6.78.94-13.64,1.14-20.48,1.31-5.13.4-10.65.63-14.95,3.8-10.75,7.21-16.76,19.61-19.53,31.92-1.25,9.23-8.71,15.82-15.99,20.77-11.55,7.07-27.29,9.88-39.25,2.21-6.29-5.35-9.45-13.14-14.08-19.78-3.01-4.35-7.47-7.44-12.19-9.67-5.64,4.86-11.53,9.42-17.15,14.3-2.25,1.41-4.24,3.37-6.8,4.18-4.17.22-7.6-2.67-11.36-4-1.75-1.88-4.06-3.17-5.91-4.96-3.21,1.9-2.41,6.1-2.15,9.21,1.01,6.05,3.05,12.08,6.76,17.04l.06.03c4.32,7.42,12.68,11.29,20.73,13.27,6.29,1.21,12.67,2.58,19.11,2.17-3.28-3.22-7.56-5.39-10.33-9.21l-.14.1c-1-1.47-1.97-2.94-2.91-4.43,1.95,1.77,3.71,3.83,5.99,5.2,1.84,1.88,3.98,3.46,6.37,4.6,26.31,12.7,59.45,5.22,80.28-14.48,10.34-9.67,17.28-23.16,18.18-37.37-2.25,2.99-4.29,6.16-6.28,9.33-1.41,1-2.67,2.21-4.02,3.28.42-2.05,1.83-3.65,2.9-5.38,3.8-5.8,6.57-12.43,11.77-17.2,2.62-2.46,6.15-3.5,9.09-5.49-3.52,4.24-9.32,6.57-11.18,12.15l-.52.08c-.02,7.9-1.19,15.75-3.96,23.17l-.07-.09c-6.69,16.59-21.01,29.2-37.28,36.07-4.67,1.81-9.42,3.39-14.33,4.41-3.25.58-6.53.98-9.81,1.32,3.28,8.48,11.48,13.94,19.93,16.4,8.68,2.63,18.57,3.98,26.93-.4-5.58-2.64-12.25-1.78-17.67-5.07,4.95-.01,9.82,1.31,14.78.9,6.21-.46,11.88-3.34,17.36-6.1,4.85-2.35,8.62-6.28,12.64-9.78-3.02-.16-6.03-.58-9.04-.35-6.77,1.72-14.07,3.2-20.93,1.32,6.25-1.49,12.86-1.37,18.89-3.84,12.11-4.87,22.55-13.03,32.17-21.7,9.54-9.22,19.47-19.29,23.22-32.37.93-1.88,1.23-3.99,1.74-6-4.32,1.59-8.76,3.01-13.39,3.21,3.75-1.14,7.28-2.84,10.84-4.45,2.59-5.26,4.24-10.99,4.86-16.81l.1.37c.12-1.99.23-3.97.35-5.94-6,7.37-15.92,9.46-24.6,12.03-.63.04-1.89.13-2.52.17.84-1.47,2.59-1.87,4.02-2.56,6.03-2.47,11.99-5.21,17.39-8.88,3.02-1.8,2.86-5.91,2.86-8.98.87-1.88.54-3.94-.29-5.76-6.85,8.03-17.85,9.86-27.83,10.25-2.8.17-5.6.26-8.39.4,4.01-2.36,8.79-2.55,12.98-4.43,8.45-5.45,11.25-15.99,12.63-25.37.59-9.17.52-18.83-3.53-27.28-3.66-6.24-9.68-10.52-14.62-15.66.67,2.53,2.07,4.75,3.25,7.07-1.31-.22-2.45-.85-3.04-2.05-5.84-8.95-6.61-19.94-6.87-30.32-5.29,4.25-8.73,10.31-12.64,15.77ZM87.64,60.67c-1.06,8.81-1.03,17.86,1.53,26.43.48,1.49.96,2.99,1.45,4.5,3.71-1.12,7.3-2.55,10.84-4.13-2.07-2.56-5.04-4.22-6.96-6.95-.86-2.52-2.16-4.88-2.83-7.47,2.63,3.13,4.16,7.27,7.72,9.57,1.37,1.4,3.02,2.51,4.75,3.46,4.08-2,8.31-3.67,12.46-5.53-3.66-2.94-8.04-4.79-12.24-6.8.13.66.4,1.98.53,2.64-4.28-2.27-7.95-5.48-11.01-9.21-2.13-2.13-3.52-5.06-6.24-6.51ZM161.14,74.3c-.06,9.67,4.62,18.63,10.94,25.68.3,1.29.78,2.55,1.2,3.83-2.63-2.58-5.24-5.22-8.48-7.03.11,1.01.32,3.04.43,4.05,1.55,6.17,5.8,12.37,12.1,14.31.47-2.64,1.06-5.27,1.75-7.86,2.09-6.28,5.71-11.9,10.08-16.82-.78-7.51-6.74-13.23-13.62-15.59-.36,3.33.33,6.65.92,9.91.34,2.37,2.92,4.09,2.34,6.61-3.88-6.47-9.4-12.02-15.7-16.14-.49-.24-1.47-.71-1.96-.95ZM97.21,103.65c1.2,2.23,2.85,4.18,4.92,5.67,1.54-1.06,3.01-2.22,4.37-3.51-3.12-.64-6.21-1.38-9.29-2.16ZM100.94,117.98c-1.49,3.83-2.94,7.71-3.67,11.77,2.17-3.81,4.31-7.69,7.45-10.81-1.26-.38-2.52-.7-3.78-.96ZM101.11,128.65c-5.12,10.51-5.59,22.82-3.87,34.21.24,2.77,1.12,5.43,1.89,8.1,5.41-.08,10.4,2.15,14.91,4.94,1.29-2.96,2.76-5.93,3.24-9.16-.41-2.41-1.14-4.75-1.66-7.12-.5,1.33-.73,2.89-2.04,3.7-.41-1.01-.8-2.02-1.18-3.03-.52-5.53-1.03-11.4,1.22-16.64,1.64,1.15,1.71,3.27,2.13,5.07.13-3.2.91-6.32,2.02-9.31-1.28-5.64-2.81-11.94-7.57-15.7-3.81-2.63-7.55,1.74-9.09,4.94ZM128.72,129.43c-5.83,3.8-8.78,10.58-10.24,17.15-1.7,10.05-.36,21.42,6.56,29.34,3.32,4.01,9.27,6.13,14.15,3.76,3.54-1.77,7.16-4.83,7.45-9.06.44-2.29,1.05-4.54,1.75-6.75,1.23-3.33,3.42-6.49,3.06-10.19-.18-8.14-2.54-16.82-8.64-22.55-3.7-3.55-9.68-4.5-14.09-1.7ZM21.93,156.55c-1.02,1-2.01,2.03-2.96,3.08,4.03,3.01,8.05,6.84,13.09,7.81,4.23-3.82,8.18-8.35,13.8-10.15,4.84-1.87,9.79.39,14.52,1.46-2.83-2.56-5.95-4.77-9.15-6.83l-.4.05c-9.23-5.56-21.34-2.33-28.9,4.58ZM59.33,152.92c4.28,3.6,7.96,7.8,11.84,11.8-.68,1.68-1.93,2.97-3.28,4.12,3.48,2.13,7.03,4.3,9.78,7.37,5.27,6.01,7.93,13.84,13.39,19.7,4.05,4.55,10.31,6.25,16.19,6.73,12.14.58,23.98-5.06,32.49-13.5,3.34-3.34,6.57-7.46,6.6-12.42-3.68,3.63-8.71,6.41-14.03,5.29-6.54-.98-10.66-6.68-13.75-11.98-.88,2.4-1.94,4.73-3.23,6.95,1.54,1.88,3.38,3.64,4.07,6.06-6.37-5.35-14.44-10.49-23.14-8.67,2.34,6.02,6.68,12.07,5.71,18.74-2.94-10.42-9.09-19.74-16.59-27.44-7.19-6.66-16.42-11.05-26.05-12.75ZM82.32,157.9c5.19,3.93,8.92,9.25,12.71,14.44.55-.15,1.64-.45,2.19-.6-1.73-5.23-2.67-10.66-3.31-16.12-3.67-1.34-8.19.36-11.59,2.28ZM48.49,158.08c-6.4,1.16-11.03,5.99-15.3,10.47-5.96.88-9.37-5.4-14.65-6.65.41,6.74,4.99,12.31,9.98,16.45,3.94,3.03,7.86,6.51,12.81,7.7,1.45-.35,2.86-1.19,3.72-2.44-.15-2.64-1.06-5.34-.19-7.94,1.2-5.76,6.47-10.75,12.48-10.75,2.42-.03,3.97,1.96,5.25,3.75,1.52-.95,2.85-2.17,3.72-3.76-4.89-4.23-11.25-7.25-17.82-6.83ZM52.99,168.36c3,.26,5.39,2.57,8.41,2.51-.95-3.79-5.62-5.65-8.41-2.51ZM50.34,223.93c.69,1.03,1.39,2.06,2.1,3.1.93,1.12,1.92,2.26,2.88,3.38h.12c3.16,3.82,7.22,6.74,11.58,9.06-1.16-2.95-2.32-5.9-3.48-8.84-.53-1.42-1.05-2.83-1.57-4.23.01-.3.03-.91.04-1.21-3.91-.22-7.82-.55-11.67-1.26ZM81.69,225.6c.9,2.02,1.79,4.06,2.77,6.07,2.66,4.77,5.49,9.53,9.41,13.4-.15-4.96-.57-9.9-.5-14.86-.1-.99-.21-1.96-.33-2.92-3.85,0-7.64-.75-11.35-1.69Z"/>
        <path class="cls-39" d="M129.71,74.81c7.76-1.03,15.7,1.73,21.28,7.18,2.81,2.87,6.13,6.04,6.41,10.3-1.7.56-3.37,1.15-5.03,1.77-.26-1.48-.5-2.95-.76-4.4-1.3,5.95,3.56,11.18,2.49,17.24-.48-.97-.95-1.93-1.4-2.89-.54,1.15-1.05,2.31-1.56,3.47-1.27-.15-2.52-.3-3.77-.43,1.39,1.23,2.79,2.47,4.2,3.71-.76,1.6-1.51,3.2-2.25,4.82-2.61-3.77-6.22-7.1-10.84-8.02-1.17-.34-2.33-.68-3.47-1,2.69-4.33,4.69-9.14,4.84-14.3-3.03,2.71-4.88,6.45-7.96,9.1-6.79,6.02-15.4,9.62-24.12,11.8-2.64.74-5.39.6-8.07.32,5.83-2.5,10.69-6.65,15.11-11.11,2-1.82,3.95-3.96,6.67-4.66,2.17-.69,4.37-1.32,6.55-2.04-4.07-2.92-9.28-1.86-13.85-1.13-7.39,1.23-15.67,3-22.71-.38,10.15-2.28,19.17-7.67,28.89-11.17,5.02-1.78,10.66-2.78,15.84-1.02,3.28.9,5.57,3.69,8.78,4.75-.97-1.13-1.99-2.22-2.76-3.49-2.08-5.2-7.74-6.71-12.51-8.42Z"/>
        <path class="cls-47" d="M209.55,156.09c6.09-4.19,11.69-9.29,15.47-15.73.13.5.4,1.49.53,1.99-.62,5.82-2.27,11.55-4.86,16.81-3.56,1.61-7.09,3.31-10.84,4.45-2.12.57-4.15,1.42-6.01,2.56-1.63.99-3.25,1.95-4.91,2.85,1.76-5.5,5.98-9.71,10.62-12.93Z"/>
        <path class="cls-31" d="M82.32,157.9c3.4-1.92,7.92-3.62,11.59-2.28.64,5.46,1.58,10.89,3.31,16.12-.55.15-1.64.45-2.19.6-3.79-5.19-7.52-10.51-12.71-14.44Z"/>
        <path class="cls-21" d="M87.64,60.67c2.72,1.45,4.11,4.38,6.24,6.51,3.06,3.73,6.73,6.94,11.01,9.21.82.52,1.61,1.06,2.45,1.6-1.99,2.52-4.87,3.94-7.95,4.63-3.56-2.3-5.09-6.44-7.72-9.57.67,2.59,1.97,4.95,2.83,7.47-.15,2.08-.4,4.15-.64,6.22-1.57.12-3.14.23-4.69.36-2.56-8.57-2.59-17.62-1.53-26.43Z"/>
        <path class="cls-15" d="M104.36,73.75c4.2,2.01,8.58,3.86,12.24,6.8-4.15,1.86-8.38,3.53-12.46,5.53-1.73-.95-3.38-2.06-4.75-3.46,3.08-.69,5.96-2.11,7.95-4.63-.84-.54-1.63-1.08-2.45-1.6-.13-.66-.4-1.98-.53-2.64Z"/>
        <path class="cls-32" d="M119.6,75.95c3.38-.22,6.79-.38,10.11-1.14,4.77,1.71,10.43,3.22,12.51,8.42-4.84-3.59-10.85-5.81-16.93-4.77-2.4.8-4.09-1.09-5.69-2.51Z"/>
        <path class="cls-18" d="M161.14,74.3c.49.24,1.47.71,1.96.95l-1.23.27c5.14,7.26,9.41,15.45,10.21,24.46-6.32-7.05-11-16.01-10.94-25.68Z"/>
        <path class="cls-40" d="M161.87,75.52l1.23-.27c6.3,4.12,11.82,9.67,15.7,16.14.24.47.73,1.41.97,1.89.78-1.05,1.32-2.22,1.11-3.56-.03-5.4-2.06-10.61-5.34-14.85,6.88,2.36,12.84,8.08,13.62,15.59-4.37,4.92-7.99,10.54-10.08,16.82-2.45-.08-5.19.51-7.34-.97-2.43-1.51-4.42-3.57-6.51-5.48-.11-1.01-.32-3.04-.43-4.05,3.24,1.81,5.85,4.45,8.48,7.03-.42-1.28-.9-2.54-1.2-3.83-.8-9.01-5.07-17.2-10.21-24.46Z"/>
        <path class="cls-13" d="M176.46,84.78c-.59-3.26-1.28-6.58-.92-9.91,3.28,4.24,5.31,9.45,5.34,14.85.21,1.34-.33,2.51-1.11,3.56-.24-.48-.73-1.42-.97-1.89.58-2.52-2-4.24-2.34-6.61Z"/>
        <path class="cls-3" d="M94.5,80.52c1.92,2.73,4.89,4.39,6.96,6.95-3.54,1.58-7.13,3.01-10.84,4.13-.49-1.51-.97-3.01-1.45-4.5,1.55-.13,3.12-.24,4.69-.36.24-2.07.49-4.14.64-6.22Z"/>
        <path class="cls-17" d="M131.89,101.36c3.08-2.65,4.93-6.39,7.96-9.1-.15,5.16-2.15,9.97-4.84,14.3,1.14.32,2.3.66,3.47,1-1.83-.12-4.24.66-5.08-1.52-6.58,7.2-16.81,9.49-26.19,9.69-3.15-.29-6.78-.03-9.38-2.11.47-.03,1.4-.1,1.87-.14,2.68.28,5.43.42,8.07-.32,8.72-2.18,17.33-5.78,24.12-11.8Z"/>
        <path class="cls-23" d="M97.21,103.65c3.08.78,6.17,1.52,9.29,2.16-1.36,1.29-2.83,2.45-4.37,3.51-2.07-1.49-3.72-3.44-4.92-5.67Z"/>
        <path class="cls-35" d="M222.86,122.8c.83,1.82,1.16,3.88.29,5.76l.24-2.48-1.29-.05h-.23c.02.1.08.31.11.41-.09.28-.27.83-.35,1.11-3.07,2.16-5.44,5.23-8.81,6.95-3.15,1.75-6.62,2.79-10.06,3.77.39.2,1.18.59,1.57.79-.42.12-1.26.35-1.68.47-.41-.26-1.25-.77-1.67-1.03-1.96-1.26-4.13-2.15-6.28-3,.08-.61.25-1.84.33-2.45,9.98-.39,20.98-2.22,27.83-10.25Z"/>
        <path class="cls-37" d="M221.87,126.02h.23s-.12.42-.12.42c-.03-.1-.09-.31-.11-.42Z"/>
        <path class="cls-22" d="M222.1,126.03l1.29.05-.24,2.48c-7.66,10.54-22.93,11.46-29.96,22.74,2.74-.8,5.46-1.71,8.21-2.49,8.68-2.57,18.6-4.66,24.6-12.03-.12,1.97-.23,3.95-.35,5.94l-.1-.37c-.13-.5-.4-1.49-.53-1.99-3.78,6.44-9.38,11.54-15.47,15.73-4.64,3.22-8.86,7.43-10.62,12.93,1.66-.9,3.28-1.86,4.91-2.85.61,1.28,1.6,2.68.97,4.16-1.32,3.62-5.55,4.37-8.15,6.72-.93,1.48-1.22,3.33-2.39,4.64-2.78,2.29-6.59,2-9.95,2.25-.76.92-1.49,1.85-2.21,2.79-4.41.07-8.82.02-13.22.05,0,1.19.02,2.38.04,3.59-.45.11-1.36.32-1.81.43-.21-1.95-1.05-3.71-2.41-5.12,2.77-7.42,3.94-15.27,3.96-23.17l.52-.08c.22-.04.66-.11.88-.15,4.64-4.62,9.87-8.65,15.96-11.18-.03-.51-.11-1.53-.15-2.04-5.97-1.02-12.03.85-16.62,4.73-8.16,5.82-11.12,15.79-15.95,24.1-.96-.67-1.9-1.33-2.84-1.99.11,1.25.25,2.51.38,3.77-1.07-1.04-2.12-2.08-3.16-3.11,2.77-12.31,8.78-24.71,19.53-31.92,4.3-3.17,9.82-3.4,14.95-3.8,6.84-.17,13.7-.37,20.48-1.31.42-.12,1.26-.35,1.68-.47,6.7-1.98,13.72-5.15,17.3-11.51.08-.28.26-.83.35-1.11l.12-.41Z"/>
        <path class="cls-7" d="M128.72,129.43c4.41-2.8,10.39-1.85,14.09,1.7,6.1,5.73,8.46,14.41,8.64,22.55.36,3.7-1.83,6.86-3.06,10.19-.62-.63-1.24-1.26-1.85-1.87-.17.61-.53,1.85-.71,2.47-.39-.83-.77-1.66-1.14-2.48-.78,1.46-.35,4.35-2.54,4.47-5.22.55-10.47.12-15.69.06.33-2.56.38-5.18-.77-7.56.11-4.28.59-8.77-1.14-12.81-.19-1.36-1.79-1.73-2.78-1.03-.73,1.18-1.12,2.52-1.51,3.84-.6-.8-1.2-1.59-1.78-2.38,1.46-6.57,4.41-13.35,10.24-17.15Z"/>
        <path class="cls-43" d="M193.19,151.3c7.03-11.28,22.3-12.2,29.96-22.74,0,3.07.16,7.18-2.86,8.98-5.4,3.67-11.36,6.41-17.39,8.88-1.43.69-3.18,1.09-4.02,2.56.63-.04,1.89-.13,2.52-.17-2.75.78-5.47,1.69-8.21,2.49Z"/>
        <path class="cls-14" d="M121.77,145.12c.99-.7,2.59-.33,2.78,1.03,1.73,4.04,1.25,8.53,1.14,12.81-.72,1.93-1.41,4.19-3.7,4.66-2.34-4.52-2.36-9.73-1.73-14.66.39-1.32.78-2.66,1.51-3.84Z"/>
        <path class="cls-1" d="M118.48,146.58c.58.79,1.18,1.58,1.78,2.38-.63,4.93-.61,10.14,1.73,14.66,2.29-.47,2.98-2.73,3.7-4.66,1.15,2.38,1.1,5,.77,7.56,5.22.06,10.47.49,15.69-.06,2.19-.12,1.76-3.01,2.54-4.47.37.82.75,1.65,1.14,2.48.18-.62.54-1.86.71-2.47.61.61,1.23,1.24,1.85,1.87-.7,2.21-1.31,4.46-1.75,6.75-.29,4.23-3.91,7.29-7.45,9.06-4.88,2.37-10.83.25-14.15-3.76-6.92-7.92-8.26-19.29-6.56-29.34Z"/>
        <path class="cls-9" d="M21.93,156.55c7.56-6.91,19.67-10.14,28.9-4.58-4.25.62-8.82.44-12.6,2.75-5.04,2.53-9.75,6.87-15.77,6.25-.18-1.48-.36-2.95-.53-4.42Z"/>
        <path class="cls-24" d="M169.26,153.79c4.59-3.88,10.65-5.75,16.62-4.73.04.51.12,1.53.15,2.04-6.09,2.53-11.32,6.56-15.96,11.18-.22.04-.66.11-.88.15,1.86-5.58,7.66-7.91,11.18-12.15-2.94,1.99-6.47,3.03-9.09,5.49-5.2,4.77-7.97,11.4-11.77,17.2-1.07,1.73-2.48,3.33-2.9,5.38-1.41.91-2.99,1.51-4.53,2.12.3-.65.92-1.94,1.23-2.58,4.83-8.31,7.79-18.28,15.95-24.1Z"/>
        <path class="cls-11" d="M50.83,151.97l.4-.05c3.2,2.06,6.32,4.27,9.15,6.83-4.73-1.07-9.68-3.33-14.52-1.46-5.62,1.8-9.57,6.33-13.8,10.15-5.04-.97-9.06-4.8-13.09-7.81.95-1.05,1.94-2.08,2.96-3.08.17,1.47.35,2.94.53,4.42,6.02.62,10.73-3.72,15.77-6.25,3.78-2.31,8.35-2.13,12.6-2.75Z"/>
        <path class="cls-44" d="M59.33,152.92c9.63,1.7,18.86,6.09,26.05,12.75,7.5,7.7,13.65,17.02,16.59,27.44.97-6.67-3.37-12.72-5.71-18.74,8.7-1.82,16.77,3.32,23.14,8.67-.69-2.42-2.53-4.18-4.07-6.06,1.29-2.22,2.35-4.55,3.23-6.95,3.09,5.3,7.21,11,13.75,11.98,5.32,1.12,10.35-1.66,14.03-5.29-.03,4.96-3.26,9.08-6.6,12.42-8.51,8.44-20.35,14.08-32.49,13.5-5.88-.48-12.14-2.18-16.19-6.73-5.46-5.86-8.12-13.69-13.39-19.7-2.75-3.07-6.3-5.24-9.78-7.37,1.35-1.15,2.6-2.44,3.28-4.12-3.88-4-7.56-8.2-11.84-11.8Z"/>
        <path class="cls-42" d="M97.39,155.38c2.5.83,5.09,1.08,7.47-.28,2.87,1.1,5.06,3.41,7.54,5.19.38,1.01.77,2.02,1.18,3.03,1.31-.81,1.54-2.37,2.04-3.7.52,2.37,1.25,4.71,1.66,7.12-.48,3.23-1.95,6.2-3.24,9.16-4.51-2.79-9.5-5.02-14.91-4.94-.77-2.67-1.65-5.33-1.89-8.1.03-2.5.12-4.99.15-7.48Z"/>
        <path class="cls-5" d="M48.49,158.08c6.57-.42,12.93,2.6,17.82,6.83-.87,1.59-2.2,2.81-3.72,3.76-1.28-1.79-2.83-3.78-5.25-3.75-6.01,0-11.28,4.99-12.48,10.75-.87,2.6.04,5.3.19,7.94-.86,1.25-2.27,2.09-3.72,2.44-4.95-1.19-8.87-4.67-12.81-7.7-4.99-4.14-9.57-9.71-9.98-16.45,5.28,1.25,8.69,7.53,14.65,6.65,4.27-4.48,8.9-9.31,15.3-10.47Z"/>
        <path class="cls-46" d="M209.85,163.61c4.63-.2,9.07-1.62,13.39-3.21-.51,2.01-.81,4.12-1.74,6-7.42,9.15-13.56,19.35-21.72,27.91-12.19,11.43-26.95,20.17-42.99,24.95-5.74,1.57-11.59,4.07-17.65,3.09-.44-.07-1.3-.21-1.74-.27-.16,1.1-.31,2.2-.45,3.32-.6-.64-1.19-1.28-1.77-1.91-.22.56-.42,1.12-.62,1.7-2.58-.24-5.18-.11-7.72.33.17-1.29.33-2.59.52-3.86,16.27-6.87,30.59-19.48,37.28-36.07l.07.09c1.36,1.41,2.2,3.17,2.41,5.12.45-.11,1.36-.32,1.81-.43-.02-1.21-.03-2.4-.04-3.59,4.4-.03,8.81.02,13.22-.05.72-.94,1.45-1.87,2.21-2.79,3.36-.25,7.17.04,9.95-2.25,1.17-1.31,1.46-3.16,2.39-4.64,2.6-2.35,6.83-3.1,8.15-6.72.63-1.48-.36-2.88-.97-4.16,1.86-1.14,3.89-1.99,6.01-2.56Z"/>
        <path class="cls-33" d="M160.63,175.07c1.99-3.17,4.03-6.34,6.28-9.33-.9,14.21-7.84,27.7-18.18,37.37-20.83,19.7-53.97,27.18-80.28,14.48-2.39-1.14-4.53-2.72-6.37-4.6,10.17,1.84,19.96,6.15,30.47,5.65,9.13.37,18.25-1,27-3.57,7.08-2.12,14.64-3.94,20.25-9.06,4.95-4.27,10.78-7.67,14.65-13.07,4.44-6,9.07-12.38,10.01-20-1.29.69-2.58,1.38-3.83,2.13Z"/>
        <path class="cls-4" d="M52.99,168.36c2.79-3.14,7.46-1.28,8.41,2.51-3.02.06-5.41-2.25-8.41-2.51Z"/>
        <path class="cls-38" d="M49.03,184.39c5.62-4.88,11.51-9.44,17.15-14.3,4.72,2.23,9.18,5.32,12.19,9.67,4.63,6.64,7.79,14.43,14.08,19.78-1.7.67-3.39,1.37-5.08,2.05-.21,2.85-.19,5.72.06,8.57,2.65.84,5.26,1.82,7.83,2.91-2.84.6-5.64,1.36-8.33,2.44,1.83,1.1,3.68,2.19,5.62,3.13-10.51.5-20.3-3.81-30.47-5.65-2.28-1.37-4.04-3.43-5.99-5.2.94,1.49,1.91,2.96,2.91,4.43-3.2,3.17-8.04,2.67-12.07,1.82-6.31-1.5-11.34-5.84-17.3-8.15l-.06-.03c-3.71-4.96-5.75-10.99-6.76-17.04-.26-3.11-1.06-7.31,2.15-9.21,1.85,1.79,4.16,3.08,5.91,4.96,2.82,6.98,9.13,12.27,16.38,14.18-.16-4.86.43-9.69,1.78-14.36Z"/>
        <path class="cls-8" d="M160.63,175.07c1.25-.75,2.54-1.44,3.83-2.13-.94,7.62-5.57,14-10.01,20-3.87,5.4-9.7,8.8-14.65,13.07-2.78-1.94-5.46-4.45-9.03-4.63.34-1.35.65-2.7.93-4.05,7.28-4.95,14.74-11.54,15.99-20.77,1.04,1.03,2.09,2.07,3.16,3.11-.13-1.26-.27-2.52-.38-3.77.94.66,1.88,1.32,2.84,1.99-.31.64-.93,1.93-1.23,2.58,1.54-.61,3.12-1.21,4.53-2.12,1.35-1.07,2.61-2.28,4.02-3.28Z"/>
        <path class="cls-27" d="M30.87,184.57c3.76,1.33,7.19,4.22,11.36,4,2.56-.81,4.55-2.77,6.8-4.18-1.35,4.67-1.94,9.5-1.78,14.36-7.25-1.91-13.56-7.2-16.38-14.18Z"/>
        <path class="cls-19" d="M92.45,199.54c11.96,7.67,27.7,4.86,39.25-2.21-.28,1.35-.59,2.7-.93,4.05,3.57.18,6.25,2.69,9.03,4.63-5.61,5.12-13.17,6.94-20.25,9.06-8.75,2.57-17.87,3.94-27,3.57-1.94-.94-3.79-2.03-5.62-3.13,2.69-1.08,5.49-1.84,8.33-2.44-2.57-1.09-5.18-2.07-7.83-2.91-.25-2.85-.27-5.72-.06-8.57,1.69-.68,3.38-1.38,5.08-2.05Z"/>
        <path class="cls-30" d="M29.63,205.89c5.96,2.31,10.99,6.65,17.3,8.15,4.03.85,8.87,1.35,12.07-1.82l.14-.1c2.77,3.82,7.05,5.99,10.33,9.21-6.44.41-12.82-.96-19.11-2.17-8.05-1.98-16.41-5.85-20.73-13.27Z"/>
        <path class="cls-25" d="M113.03,226.07c4.91-1.02,9.66-2.6,14.33-4.41-.19,1.27-.35,2.57-.52,3.86,2.54-.44,5.14-.57,7.72-.33.2-.58.4-1.14.62-1.7.58.63,1.17,1.27,1.77,1.91.14-1.12.29-2.22.45-3.32.44.06,1.3.2,1.74.27-.21.64-.62,1.9-.82,2.54,5.82,3.29,12.45,4.43,18.92,5.79-2.64,1.77-5.63,2.9-8.74,3.46-7.74,1.45-15.73,2.43-23.54.97,1.1,2.07,2.26,4.11,3.48,6.13-2.8-.91-5.8-1.57-8.14-3.43-3.95-2.77-5.84-7.32-7.27-11.74Z"/>
        <path class="cls-41" d="M50.34,223.93c3.85.71,7.76,1.04,11.67,1.26,0,.3-.03.91-.04,1.21-3.19-.22-6.51-.71-9.53.63-.71-1.04-1.41-2.07-2.1-3.1Z"/>
        <path class="cls-20" d="M81.69,225.6c3.71.94,7.5,1.69,11.35,1.69.12.96.23,1.93.33,2.92-3,.32-5.97.78-8.91,1.46-.98-2.01-1.87-4.05-2.77-6.07Z"/>
        <path class="cls-12" d="M52.44,227.03c3.02-1.34,6.34-.85,9.53-.63.52,1.4,1.04,2.81,1.57,4.23-2.7-.2-5.4-.32-8.1-.22h-.12c-.96-1.12-1.95-2.26-2.88-3.38Z"/>
        <path class="cls-2" d="M55.44,230.41c2.7-.1,5.4.02,8.1.22,1.16,2.94,2.32,5.89,3.48,8.84-4.36-2.32-8.42-5.24-11.58-9.06Z"/>
        <path class="cls-26" d="M84.46,231.67c2.94-.68,5.91-1.14,8.91-1.46-.07,4.96.35,9.9.5,14.86-3.92-3.87-6.75-8.63-9.41-13.4Z"/>
      </g>
    </g>
  </g>
</svg>