<?xml version="1.0" encoding="UTF-8"?>
<svg xmlns="http://www.w3.org/2000/svg" version="1.1" viewBox="0 0 271.7 278.16">
  <defs>
    <style>
      .cls-1 {
        fill: #bf8236;
      }

      .cls-1, .cls-2, .cls-3, .cls-4, .cls-5 {
        fill-rule: evenodd;
      }

      .cls-2 {
        fill: #9a6b34;
      }

      .cls-6 {
        opacity: .2;
      }

      .cls-3 {
        fill: #1d2e2f;
      }

      .cls-7 {
        fill: #010101;
      }

      .cls-4 {
        fill: #6c481d;
      }

      .cls-5 {
        fill: #fef6aa;
      }
    </style>
  </defs>
  <!-- Generator: Adobe Illustrator 28.7.0, SVG Export Plug-In . SVG Version: 1.2.0 Build 136)  -->
  <g>
    <g id="Layer_1">
      <g>
        <g id="Elipsa_4" class="cls-6">
          <ellipse class="cls-7" cx="113.89" cy="233.82" rx="22" ry="71" transform="translate(-140.88 286.12) rotate(-75.63)"/>
        </g>
        <g id="shape">
          <path class="cls-4" d="M254.04,79.72c-.91-2.58-55.9-22.07-55.56,16.76.21,24.08,18.66,23.71,18.66,23.71,0,0,16.3-1.66,21.02-13.67,4.72-12.01,16.8-24.21,15.88-26.79ZM65.09,31.32c-2.04,1.83,2.68,18.33,1.04,31.13-1.63,12.8,11.86,22.09,11.86,22.09,0,0,16,9.2,27.76-11.81,18.96-33.88-38.62-43.24-40.66-41.41Z"/>
        </g>
        <g id="shape-2" data-name="shape">
          <path class="cls-3" d="M99.27,227.64c-.13-.06-.4-.17-.8-.34-.03-.01-.06-.02-.09-.04-.42-.18-.98-.41-1.68-.7-.05-.02-.1-.04-.15-.06-.72-.3-1.59-.66-2.62-1.07-.08-.03-.16-.06-.24-.1-.53-.21-1.1-.44-1.71-.68-2.3-1.45-5.16-3.12-8.52-4.81-9.27-4.66-6.23-8.89-10.19-3.34-.32.45-.61.94-.88,1.45-1.99,1.07-2.31,4.18-.6,7.52,1.03,2.7,3.57,5.51,8.6,8.03,5.06,2.54,9.15,1.95,12.14.51,4.06-1.74,6.25-5.25,6.74-6.11,0-.01,0-.02.02-.03.03-.05.05-.09.06-.11,0,0,0-.01,0-.02.01-.03.02-.04.02-.04,0,0-.03-.01-.08-.03-.02,0-.02,0-.04-.02ZM156.02,239.36c.01-.58,0-1.15-.07-1.7-.8-6.76-.17-1.59-10.54-1.97-3.76-.14-7.07-.04-9.78.12-.66-.08-1.26-.15-1.83-.22-.09-.01-.17-.02-.25-.03-1.1-.13-2.04-.24-2.82-.32-.05,0-.1-.01-.16-.02-.76-.08-1.36-.15-1.81-.19-.03,0-.06,0-.1,0-.43-.04-.72-.07-.86-.08-.02,0-.03,0-.05,0-.05,0-.08,0-.08,0,0,0,0,.02,0,.05,0,0,0,.01,0,.02,0,.03,0,.08,0,.13,0,.01,0,.02,0,.03.02.99.25,5.12,2.97,8.6,1.93,2.7,5.23,5.19,10.89,5.39,5.62.2,9.2-1.03,11.4-2.91,3.11-2.1,4.32-4.99,3.09-6.88Z"/>
        </g>
        <g id="shape-3" data-name="shape">
          <path class="cls-4" d="M240.73,149.58c-2.15-5.2-4.45-4.17-11.7-4.08-7.25.09-12.5-3.17-13.55-13.84-.1-.98-.19-1.34-.29-1.18-2.49-17.08-7.86-33.55-15.98-47.13-7.83-13.17-18.26-23.58-31.16-29.22,3.84-3.55,8.14-5.9,7.48-7.44-1.11-2.61-9.87-1.09-9.87-1.09,0,0,7.3-7.04,5.13-8.72-1.83-1.42-14.98,3.73-21.87,12.72-13.37-.71-26.81,3.36-39.39,10.78-13.65,8-26.28,19.87-36.67,33.65,0-.18-.26.08-.82.89-6.05,8.85-12.22,9.18-18.54,5.62-6.32-3.56-7.84-5.57-12.23-2.05-4.38,3.53-5.07,8.37-.81,12.33,3.83,3.56,12.36,12.84,11.77,20.55-2.68,7.2-4.69,14.47-5.87,21.61-1.49,8.08-2.03,16.06-1.47,23.69,2.2,29.78,33.12,51.12,67.49,59.02,33.94,9.59,71.31,5.75,87.56-19.31,4.16-6.42,7.52-13.68,10.1-21.48,2.4-6.83,4.13-14.17,5.25-21.77,3.19-7.04,15.13-11.07,20.2-12.35,5.64-1.42,7.37-6,5.22-11.2Z"/>
        </g>
        <g id="shape-4" data-name="shape">
          <path class="cls-2" d="M199.36,196.45c-2.8-2.31-4.23-5.08-3.11-8.79,16.13-27.82,11.09-69.58-.56-85.92-8.6-12.06-17.03-24.75-38.32-30.2-25.11-6.43-37.98-2.61-53.7,6.63-20.9,12.29-42.86,44.62-41.67,74.99-.78,3.87-3.38,5.64-6.98,6.32-4.79.91-6.45.53-7.18,4.24-.73,3.71,1.01,6.48,4.91,6.67,3.9.19,13.86,1.49,15.75,6.97.25.73.31.62.22-.1,8.11,14.26,24.13,26.4,51.43,33.39,27.87,7.14,47.61,3.35,61.13-6.3,4.73-1.51,11.86,1.3,14.83,2.75,3.51,1.71,6.38.11,7.51-3.49,1.14-3.6-.49-4.07-4.26-7.17Z"/>
        </g>
        <g id="shape-5" data-name="shape">
          <path class="cls-5" d="M75.32,182.95c-6.34-17.06,21.12-21.87,19.19-26.43-1.94-4.56-36.69,4.13-32.23,28.89,4.11,22.82,27.59,24.97,38.13,16.73,1.86-1.45,2.8-19.01,2.8-19.01,0,0-23.44,11.79-27.89-.18ZM163.25,174.14c-3.89,3.07,17.88,20.49,4.12,32.39-9.66,8.36-24.54-13.25-24.54-13.25,0,0-7.62,15.85-6.69,18.02,5.29,12.29,26.91,21.69,41.48,3.66,15.81-19.57-10.48-43.89-14.37-40.83Z"/>
        </g>
        <g id="shape-6" data-name="shape">
          <path class="cls-1" d="M127.6,175.4c-3.59-.92-12.07-2.74-20.67-1.77-3.68-.04-7.36,1.1-10.66,3.03-4.43,2.26-8.26,5.89-10.62,11.58-.46,1.03-.85,2.08-1.12,3.13-.09.34-.17.68-.26,1.02-.01.05-.02.1-.03.15-.06.24-.13.49-.19.73-.23.9-.38,1.84-.48,2.8-.84,6.5.78,11.75,3.68,15.96,2.05,3.44,4.87,6.34,8.31,8.05.16.07.32.13.48.2,6.34,4.11,13.36,6.2,16.66,7.05,3.17.81,10.15,2.32,17.65,2.02.79.08,1.58.18,2.37.25,5.1.2,10.25-1.96,14.42-5.33,2.98-2.15,5.52-5.1,7.29-9.15,0,0,0-.01.01-.02.05-.11.09-.22.13-.32.46-1.04.85-2.09,1.12-3.14.06-.25.13-.49.19-.74.01-.05.03-.09.04-.14.09-.34.17-.68.26-1.02.23-.91.38-1.86.48-2.83,2.87-21.91-21.87-29.65-29.06-31.49Z"/>
        </g>
        <g id="shape-7" data-name="shape">
          <path class="cls-3" d="M183.96,113.44c-3.75-.96-7.67,1.73-8.77,6.01-1.1,4.28,1.05,8.53,4.8,9.49,3.74.96,7.67-1.73,8.77-6.01,1.1-4.28-1.05-8.53-4.8-9.49ZM106.46,93.59c-3.75-.96-7.67,1.73-8.77,6.01-1.1,4.28,1.05,8.53,4.8,9.49,3.74.96,7.67-1.73,8.77-6.01,1.1-4.28-1.05-8.53-4.8-9.49Z"/>
        </g>
        <g id="shape-8" data-name="shape">
          <path class="cls-3" d="M136.07,196.04c-3.11-.8-6.42,1.64-7.39,5.44-.97,3.8.76,7.53,3.87,8.33,3.11.8,6.42-1.64,7.39-5.44.97-3.8-.76-7.53-3.87-8.32ZM108.73,189.04c-3.11-.8-6.42,1.64-7.39,5.44-.97,3.8.76,7.53,3.87,8.33,3.11.8,6.42-1.64,7.39-5.44.97-3.8-.76-7.53-3.87-8.32Z"/>
        </g>
      </g>
    </g>
  </g>
</svg>