<?xml version="1.0" encoding="UTF-8"?>
<svg xmlns="http://www.w3.org/2000/svg" version="1.1" xmlns:xlink="http://www.w3.org/1999/xlink" viewBox="0 0 348.44 306.07">
  <defs>
    <style>
      .cls-1 {
        fill: none;
      }

      .cls-2 {
        fill: #f26124;
      }

      .cls-3 {
        fill: #fdcc9b;
      }

      .cls-4 {
        clip-path: url(#clippath);
      }
    </style>
    <clipPath id="clippath">
      <rect class="cls-1" x="33.07" y="20.09" width="296.98" height="269.28"/>
    </clipPath>
  </defs>
  <!-- Generator: Adobe Illustrator 28.7.0, SVG Export Plug-In . SVG Version: 1.2.0 Build 136)  -->
  <g>
    <g id="Layer_1">
      <g class="cls-4">
        <path class="cls-2" d="M178.67,26.17c-.14,14.67-21.26,27.86-21.46,48.42-.2,20.56,20.7,30.55,20.7,30.55,0,0,21.09-9.81,21.28-30.37.2-20.56-19.55-32.8-20.53-48.6"/>
        <path class="cls-2" d="M76.82,28.35c-.06,14.67-21.11,27.75-21.2,48.31-.09,20.56,20.87,30.66,20.87,30.66,0,0,21.04-9.7,21.12-30.27.09-20.56-19.72-32.9-20.79-48.7"/>
        <path class="cls-2" d="M187.26,24.65c-1.6-1.26-6.54,2.74-6.54,2.74,0,0,2.11-6.99.17-7.3-1.93-.31-10.55,10.68-9.28,20.04,1.26,9.36,15.98,5.76,13.37-.37-2.61-6.13,3.88-13.84,2.28-15.1"/>
        <path class="cls-2" d="M85.92,27.66c-1.6-1.27-6.54,2.72-6.54,2.72,0,0,2.1-6.99.17-7.3-1.93-.31-10.54,10.65-9.28,20.01,1.26,9.36,15.98,5.81,13.37-.33-2.61-6.14,3.88-13.83,2.28-15.1"/>
        <path class="cls-2" d="M198.05,265.08c-16.97-5.74-33.64-16.76-46.36-31.84-6.14-7.29-5.15-17.89,2.23-23.68,7.37-5.79,18.34-4.57,24.48,2.72,17.5,20.75,42.74,26.83,53.14,22.05,1.62-.74,6.57-3.02,3.56-15.63-10.51-44.01-18.77-87.76,8.25-102.38,27.02-14.63,64.88-1.87,77.31,19.4,12.43,21.27,12.74,48.02-.37,60.94-13.1,12.92-32.71,3.21-38.78-4.14-3.88-4.69-8.78-5.9-10.83-4.97-2.63,1.19-5.42,8.84-1.73,24.29,5.78,24.23-2.42,44.05-21.94,53.02-14.02,6.44-31.65,6.08-48.98.22"/>
        <path class="cls-2" d="M164.8,89.55c-11.32-7.59-23.88-12.07-37.32-12.07s-25.99,4.48-37.32,12.07c-37.54,25.09-61.41,84.49-56.45,130.99.72,8.35,2.27,16.38,4.77,23.81,10.59,31.48,49.78,45.93,89,44.97,39.21.96,78.41-13.49,89-44.97,2.5-7.44,4.05-15.46,4.77-23.81,4.96-46.5-18.91-105.9-56.45-130.99"/>
        <path class="cls-3" d="M127.6,124.48c-18.91,0-64.63,4.31-64.63,25.43s10.53,52.44,63.41,52.44,63.41-34.24,63.41-53.11c0-20.48-43.27-24.76-62.19-24.76"/>
        <path class="cls-3" d="M109.02,108.9c-9.46,0-17.13,8.97-17.13,20.02s7.67,20.02,17.13,20.02,17.13-8.96,17.13-20.02-7.67-20.02-17.13-20.02"/>
        <path class="cls-3" d="M150.4,108.9c-9.46,0-17.13,8.97-17.13,20.02s7.67,20.02,17.13,20.02,17.13-8.96,17.13-20.02-7.67-20.02-17.13-20.02"/>
        <path d="M149.73,120.03c-3.69,0-6.68,3.49-6.68,7.79s2.99,7.79,6.68,7.79,6.68-3.49,6.68-7.79-2.99-7.79-6.68-7.79"/>
        <path d="M109.69,120.03c-3.69,0-6.68,3.49-6.68,7.79s2.99,7.79,6.68,7.79,6.68-3.49,6.68-7.79-2.99-7.79-6.68-7.79"/>
        <path d="M129.71,145.05c-6.14,0-11.13.62-11.13,5.42,0,8.3,4.98,14.05,11.13,14.05s11.13-5.76,11.13-14.05c0-5.97-4.98-5.42-11.13-5.42"/>
      </g>
    </g>
  </g>
</svg>