<?xml version="1.0" encoding="UTF-8"?>
<svg xmlns="http://www.w3.org/2000/svg" version="1.1" xmlns:xlink="http://www.w3.org/1999/xlink" viewBox="0 0 108.65 104.08">
  <defs>
    <style>
      .cls-1 {
        fill: none;
      }

      .cls-2 {
        fill: #be7329;
      }

      .cls-3 {
        fill: #fdbb20;
      }

      .cls-4 {
        fill: #1e2e2f;
      }

      .cls-5 {
        fill: #f5d689;
      }

      .cls-6 {
        clip-path: url(#clippath);
      }
    </style>
    <clipPath id="clippath">
      <rect class="cls-1" width="108.65" height="104.08"/>
    </clipPath>
  </defs>
  <!-- Generator: Adobe Illustrator 28.7.0, SVG Export Plug-In . SVG Version: 1.2.0 Build 136)  -->
  <g>
    <g id="Layer_1">
      <g class="cls-6">
        <path class="cls-3" d="M93.43,62.6c-3.65-2.29-8.14-2.05-10.92.59-1.18,1.12-4.66,5.38.12,13.11,1.37,2.22.58,2.97.32,3.22-1.65,1.58-6.78,2.05-11.39-.78-1.62-1-3.76-.52-4.78,1.06s-.53,3.67,1.09,4.67c3.35,2.06,7.18,3.09,10.74,3.09s6.96-1.07,9.19-3.21c3.1-2.98,3.38-7.3.75-11.55-1.68-2.71-1.64-4.36-1.22-4.75.33-.31,1.32-.4,2.35.25,1.61,1.01,3.75.56,4.78-1.02,1.04-1.57.57-3.67-1.04-4.68"/>
        <path class="cls-2" d="M97.69,59.12c-4.75-.59-5.74,2.64-6.25,6.71-.51,4.07-.35,7.45,4.4,8.04,4.75.6,12.81-5.89,12.81-5.89,0,0-6.21-8.27-10.96-8.86"/>
        <path class="cls-3" d="M57.16,21.62c-4.16-2.75-8.77-4.38-13.7-4.38s-9.54,1.63-13.7,4.38c-14.03,9.26-22.96,31.4-21.11,48.73.27,3.1.84,6.08,1.77,8.84,3.93,11.69,18.48,17.05,33.04,16.7,14.56.36,29.11-5.01,33.04-16.7.93-2.76,1.5-5.74,1.77-8.84,1.85-17.33-7.09-39.48-21.11-48.73"/>
        <path class="cls-2" d="M71.03,45.85c-2.17,15-14.14,21.89-27.63,21.89s-23.15-7.23-26.83-21.89c-3.68-14.66,13.34-20.24,26.83-20.24s29.8,5.24,27.63,20.24M44.29,0C10.42,0-2.86,24.66.51,49.56c3.37,24.91,34.69,42.96,43.78,42.96s42.08-20.54,44.61-44.61C91.42,23.84,78.16,0,44.29,0"/>
        <path class="cls-3" d="M65.84,21.48c-3.61,0-6.53,2.96-6.53,6.61s2.93,6.61,6.53,6.61,6.53-2.96,6.53-6.61-2.93-6.61-6.53-6.61M21.08,21.48c-3.61,0-6.53,2.96-6.53,6.61s2.93,6.61,6.53,6.61,6.53-2.96,6.53-6.61-2.92-6.61-6.53-6.61"/>
        <path class="cls-5" d="M49.35,45.43c-1.94,0-3.57.81-4.65,2.05-1.07-1.24-2.7-2.05-4.65-2.05-3.87,0-6.51,3.24-5.97,6.64.45,2.89,3.1,4.93,5.97,4.93,1.8,0,3.51-.8,4.65-2.1,1.14,1.31,2.85,2.1,4.65,2.1,2.87,0,5.52-2.04,5.97-4.93.53-3.4-2.1-6.64-5.97-6.64"/>
        <path class="cls-4" d="M44.29,44.82c-3.19,0-5.78-.21-5.78,2.01s2.59,6.04,5.78,6.04,5.78-3.82,5.78-6.04-2.59-2.01-5.78-2.01"/>
        <path class="cls-2" d="M66.47,54.44c-.98-4.48-7.15-9-12.97-7.9-.54.1-.9.61-.83,1.16-.05.49.27.97.77,1.1,4.78,1.27,7.52,7.1,6.77,10.23-.13.56.21,1.12.77,1.25.08.02.16.03.24.03.47,0,.9-.32,1.01-.8.79-3.32-1.01-7.91-4.34-10.66,3.31,1.01,6.05,3.76,6.54,6.03.11.49.54.82,1.02.82.07,0,.15,0,.22-.02.56-.12.92-.67.8-1.24"/>
        <path class="cls-2" d="M35.9,46.54c-5.82-1.1-11.99,3.42-12.97,7.9-.12.56.23,1.11.8,1.24.07.02.15.02.22.02.48,0,.91-.33,1.02-.82.49-2.27,3.23-5.02,6.54-6.03-3.33,2.75-5.13,7.34-4.34,10.66.11.48.54.8,1.01.8.08,0,.16,0,.24-.03.56-.13.9-.69.77-1.25-.75-3.13,1.99-8.97,6.77-10.23.5-.13.81-.6.77-1.1.07-.54-.29-1.05-.83-1.16"/>
        <path class="cls-4" d="M35.62,33.04c-1.6,0-2.89,1.48-2.89,3.3s1.3,3.31,2.89,3.31,2.89-1.48,2.89-3.31-1.3-3.3-2.89-3.3M51.31,33.04c-1.6,0-2.89,1.48-2.89,3.3s1.29,3.31,2.89,3.31,2.89-1.48,2.89-3.31-1.29-3.3-2.89-3.3"/>
      </g>
    </g>
  </g>
</svg>