<?xml version="1.0" encoding="UTF-8"?>
<svg xmlns="http://www.w3.org/2000/svg" version="1.1" xmlns:xlink="http://www.w3.org/1999/xlink" viewBox="0 0 141.73 141.73">
  <defs>
    <style>
      .cls-1 {
        fill: #996c33;
      }

      .cls-2 {
        fill: none;
      }

      .cls-3 {
        clip-path: url(#clippath-1);
      }

      .cls-4 {
        fill: #be7329;
      }

      .cls-5 {
        fill: #fdbb20;
      }

      .cls-6 {
        display: none;
      }

      .cls-7 {
        fill: #1c2e2e;
      }

      .cls-8 {
        fill: #1e2e2f;
      }

      .cls-9 {
        fill: #bf8234;
      }

      .cls-10 {
        fill: #f5d689;
      }

      .cls-11 {
        clip-path: url(#clippath);
      }
    </style>
    <clipPath id="clippath">
      <rect class="cls-2" x="17.66" y="19.08" width="108.65" height="104.08"/>
    </clipPath>
    <clipPath id="clippath-1">
      <rect class="cls-2" x="26.97" y="22.28" width="87.17" height="97.69"/>
    </clipPath>
  </defs>
  <!-- Generator: Adobe Illustrator 28.7.0, SVG Export Plug-In . SVG Version: 1.2.0 Build 136)  -->
  <g>
    <g id="Layer_1">
      <g class="cls-6">
        <g class="cls-11">
          <path class="cls-5" d="M111.09,81.68c-3.65-2.29-8.14-2.05-10.92.59-1.18,1.12-4.66,5.38.12,13.11,1.37,2.22.58,2.97.32,3.22-1.65,1.58-6.78,2.05-11.39-.78-1.62-1-3.76-.52-4.78,1.06s-.53,3.67,1.09,4.67c3.35,2.06,7.18,3.09,10.74,3.09s6.96-1.07,9.19-3.21c3.1-2.98,3.38-7.3.75-11.55-1.68-2.71-1.64-4.36-1.22-4.75.33-.31,1.32-.4,2.35.25,1.61,1.01,3.75.56,4.78-1.02,1.04-1.57.57-3.67-1.04-4.68"/>
          <path class="cls-4" d="M115.35,78.2c-4.75-.59-5.74,2.64-6.25,6.71-.51,4.07-.35,7.45,4.4,8.04,4.75.6,12.81-5.89,12.81-5.89,0,0-6.21-8.27-10.96-8.86"/>
          <path class="cls-5" d="M74.82,40.7c-4.16-2.75-8.77-4.38-13.7-4.38s-9.54,1.63-13.7,4.38c-14.03,9.26-22.96,31.4-21.11,48.73.27,3.1.84,6.08,1.77,8.84,3.93,11.69,18.48,17.05,33.04,16.7,14.56.36,29.11-5.01,33.04-16.7.93-2.76,1.5-5.74,1.77-8.84,1.85-17.33-7.09-39.48-21.11-48.73"/>
          <path class="cls-4" d="M88.69,64.93c-2.17,15-14.14,21.89-27.63,21.89s-23.15-7.23-26.83-21.89c-3.68-14.66,13.34-20.24,26.83-20.24s29.8,5.24,27.63,20.24M61.95,19.08c-33.87,0-47.15,24.66-43.78,49.56,3.37,24.91,34.69,42.96,43.78,42.96s42.08-20.54,44.61-44.61c2.52-24.07-10.74-47.91-44.61-47.91"/>
          <path class="cls-5" d="M83.5,40.56c-3.61,0-6.53,2.96-6.53,6.61s2.93,6.61,6.53,6.61,6.53-2.96,6.53-6.61-2.93-6.61-6.53-6.61M38.74,40.56c-3.61,0-6.53,2.96-6.53,6.61s2.93,6.61,6.53,6.61,6.53-2.96,6.53-6.61-2.92-6.61-6.53-6.61"/>
          <path class="cls-10" d="M67.01,64.51c-1.94,0-3.57.81-4.65,2.05-1.07-1.24-2.7-2.05-4.65-2.05-3.87,0-6.51,3.24-5.97,6.64.45,2.89,3.1,4.93,5.97,4.93,1.8,0,3.51-.8,4.65-2.1,1.14,1.31,2.85,2.1,4.65,2.1,2.87,0,5.52-2.04,5.97-4.93.53-3.4-2.1-6.64-5.97-6.64"/>
          <path class="cls-8" d="M61.95,63.9c-3.19,0-5.78-.21-5.78,2.01s2.59,6.04,5.78,6.04,5.78-3.82,5.78-6.04-2.59-2.01-5.78-2.01"/>
          <path class="cls-4" d="M84.13,73.52c-.98-4.48-7.15-9-12.97-7.9-.54.1-.9.61-.83,1.16-.05.49.27.97.77,1.1,4.78,1.27,7.52,7.1,6.77,10.23-.13.56.21,1.12.77,1.25.08.02.16.03.24.03.47,0,.9-.32,1.01-.8.79-3.32-1.01-7.91-4.34-10.66,3.31,1.01,6.05,3.76,6.54,6.03.11.49.54.82,1.02.82.07,0,.15,0,.22-.02.56-.12.92-.67.8-1.24"/>
          <path class="cls-4" d="M53.56,65.62c-5.82-1.1-11.99,3.42-12.97,7.9-.12.56.23,1.11.8,1.24.07.02.15.02.22.02.48,0,.91-.33,1.02-.82.49-2.27,3.23-5.02,6.54-6.03-3.33,2.75-5.13,7.34-4.34,10.66.11.48.54.8,1.01.8.08,0,.16,0,.24-.03.56-.13.9-.69.77-1.25-.75-3.13,1.99-8.97,6.77-10.23.5-.13.81-.6.77-1.1.07-.54-.29-1.05-.83-1.16"/>
          <path class="cls-8" d="M53.27,52.12c-1.6,0-2.89,1.48-2.89,3.3s1.3,3.31,2.89,3.31,2.89-1.48,2.89-3.31-1.3-3.3-2.89-3.3M68.97,52.12c-1.6,0-2.89,1.48-2.89,3.3s1.29,3.31,2.89,3.31,2.89-1.48,2.89-3.31-1.29-3.3-2.89-3.3"/>
        </g>
      </g>
      <g class="cls-3">
        <path class="cls-1" d="M47.87,22.28c-7.88,0-14.28,6.5-14.28,14.52s6.39,14.52,14.28,14.52,14.28-6.5,14.28-14.52-6.39-14.52-14.28-14.52M92.36,22.28c-7.89,0-14.28,6.5-14.28,14.52s6.39,14.52,14.28,14.52,14.28-6.5,14.28-14.52-6.39-14.52-14.28-14.52"/>
        <path class="cls-9" d="M49.15,28.56c-4.73,0-8.56,3.87-8.56,8.63s3.83,8.63,8.56,8.63,8.56-3.87,8.56-8.63-3.83-8.63-8.56-8.63M91.08,28.56c-4.73,0-8.56,3.87-8.56,8.63s3.83,8.63,8.56,8.63,8.56-3.87,8.56-8.63-3.83-8.63-8.56-8.63"/>
        <path class="cls-1" d="M106.52,66.68c-3.05-13.96-10.89-27.69-21.4-34.61-4.43-2.92-9.33-4.62-14.57-4.62s-10.14,1.7-14.57,4.62c-10.51,6.92-18.35,20.65-21.4,34.61-4.05,3.85-8.16,15.15-7.56,19.59.59,4.36,4.88,6.19,7.16,2.83.31,1.49.69,2.95,1.16,4.34,4.19,12.45,19.69,18.17,35.2,17.79,15.51.38,31.01-5.34,35.2-17.79.47-1.4.85-2.85,1.16-4.34,2.28,3.35,6.57,1.53,7.16-2.83.6-4.44-3.51-15.74-7.56-19.59"/>
        <path class="cls-9" d="M70.31,48.68c-11.46,0-17.35,11.01-15.67,17.55,1.68,6.55,8.56,9.73,15.4,9.68,7.03-.05,14.64-2.9,15.94-9.92,1.3-7.01-4.21-17.32-15.67-17.32"/>
        <path class="cls-7" d="M71,49.56c-5.1,0-9.24,3.55-9.24,7.92s4.14,7.92,9.24,7.92,9.24-3.55,9.24-7.92-4.14-7.92-9.24-7.92"/>
        <path class="cls-7" d="M64.86,43.4c-1.23,0-2.22,1.18-2.22,2.64s1,2.64,2.22,2.64,2.23-1.18,2.23-2.64-1-2.64-2.23-2.64M77.13,43.4c-1.23,0-2.22,1.18-2.22,2.64s1,2.64,2.22,2.64,2.22-1.18,2.22-2.64-1-2.64-2.22-2.64"/>
      </g>
    </g>
  </g>
</svg>