<?xml version="1.0" encoding="UTF-8"?>
<svg xmlns="http://www.w3.org/2000/svg" version="1.1" xmlns:xlink="http://www.w3.org/1999/xlink" viewBox="0 0 141.73 141.73">
  <defs>
    <style>
      .cls-1 {
        fill: #844c9e;
      }

      .cls-2 {
        fill: #fdba13;
      }

      .cls-3 {
        fill: #8e68ad;
      }

      .cls-4 {
        fill: none;
      }

      .cls-5 {
        fill: #fed303;
      }

      .cls-6 {
        clip-path: url(#clippath);
      }

      .cls-7 {
        fill: #773293;
      }
    </style>
    <clipPath id="clippath">
      <rect class="cls-4" x="39.08" y="39.43" width="63.11" height="63.12"/>
    </clipPath>
  </defs>
  <!-- Generator: Adobe Illustrator 28.7.0, SVG Export Plug-In . SVG Version: 1.2.0 Build 136)  -->
  <g>
    <g id="Layer_1">
      <g class="cls-6">
        <path class="cls-7" d="M81.3,81.77s.09,0,.12,0c0-.03,0-.09,0-.12-.1-.01-.14.03-.12.12M59.86,81.65s0,.09,0,.12c.03,0,.09,0,.12,0,.01-.1-.03-.14-.12-.12M81.3,60.21c-.02.1.03.13.12.12v-.12s-.09,0-.12,0M59.86,60.21s0,.09,0,.12c.09.01.14-.03.12-.12-.03,0-.09,0-.12,0M68.13,40.93c-.9.7-1.45,1.75-1.78,2.82-.48,1.56-.59,3.21-.57,4.83.11,2.95.96,5.8,1.94,8.56-.22.04-.44.09-.65.15-.13-.32-.21-.67-.37-.98.05.34.14.68.18,1.03-.21.06-.42.12-.63.19-.23-1.29-.5-2.58-.86-3.85-.51-1.84-1.17-3.66-2.19-5.29-.74-1.22-1.59-2.39-2.67-3.33-.67-.58-1.44-1.05-2.3-1.28-2.05-.56-4.39.81-4.94,2.85-.36,1.25-.13,2.57.25,3.79.84,2.51,2.3,4.79,4.12,6.7,1.08,1.2,2.31,2.26,3.52,3.33-.17.15-.33.3-.49.46-.2-.17-.4-.33-.57-.52-.02.02-.05.05-.07.07.19.17.35.38.52.57-.16.16-.31.32-.46.49-1.07-1.24-2.15-2.47-3.37-3.56-1.89-1.79-4.13-3.23-6.61-4.07-1.09-.35-2.27-.58-3.41-.37-.99.17-1.92.72-2.51,1.54-.7.9-1.05,2.09-.83,3.23.23,1.17.93,2.19,1.76,3.03.99.99,2.15,1.78,3.36,2.48,1.04.61,2.16,1.06,3.3,1.45,1.76.59,3.57,1,5.4,1.33-.07.21-.13.42-.19.63-.35-.04-.68-.13-1.03-.18.31.16.65.24.98.37-.06.22-.11.43-.15.65-2.66-.94-5.41-1.76-8.25-1.93-1.77-.05-3.58.05-5.27.6-1.14.38-2.26,1.02-2.91,2.06-.72,1.15-.8,2.65-.27,3.88.44,1.03,1.35,1.78,2.36,2.25,1.47.67,3.1.87,4.7.93,3.32.12,6.55-.84,9.65-1.94.04.22.09.44.15.65-.32.13-.66.21-.98.36.34-.04.68-.13,1.03-.17.06.21.12.42.19.63-2.76.5-5.52,1.17-8.04,2.42-1.39.73-2.72,1.6-3.85,2.68-.84.82-1.57,1.81-1.86,2.96-.52,2.04.84,4.35,2.87,4.89,1.27.37,2.61.12,3.85-.27,1.26-.42,2.45-1.01,3.58-1.71,2.47-1.56,4.5-3.71,6.39-5.92.15.17.3.33.46.49-.17.2-.33.4-.52.57.02.02.05.05.07.07.17-.19.38-.35.57-.52.16.16.32.31.49.46-1.22,1.06-2.45,2.12-3.53,3.33-1.82,1.92-3.28,4.19-4.12,6.7-.38,1.21-.61,2.54-.25,3.78.54,2.03,2.85,3.4,4.89,2.87,1.16-.29,2.14-1.02,2.96-1.86,1.09-1.14,1.95-2.47,2.68-3.85,1.26-2.52,1.93-5.29,2.43-8.04.21.07.42.13.63.19-.04.34-.13.68-.18,1.02.16-.31.24-.65.37-.97.22.06.43.11.65.15-1.1,3.1-2.05,6.33-1.94,9.65.06,1.56.25,3.15.88,4.59.41.94,1.06,1.81,1.98,2.31,1.22.67,2.78.67,4,0,.91-.49,1.56-1.37,1.97-2.3.63-1.44.82-3.03.88-4.6.11-3.32-.85-6.55-1.94-9.65.22-.04.44-.1.65-.15.13.32.21.66.36.98-.04-.35-.13-.68-.18-1.03.21-.06.43-.12.64-.19.14.76.29,1.52.46,2.27.57,2.42,1.32,4.85,2.65,6.97.6.98,1.28,1.92,2.08,2.74.81.8,1.77,1.5,2.88,1.78,2.04.52,4.35-.84,4.89-2.87.37-1.31.11-2.69-.31-3.95-.53-1.5-1.26-2.92-2.18-4.23-1.51-2.14-3.44-3.94-5.42-5.64.17-.15.34-.3.49-.46.2.17.4.33.57.52.02-.03.05-.05.07-.07-.2-.17-.35-.38-.52-.57.16-.16.31-.32.46-.49,2.14,2.5,4.48,4.95,7.42,6.51,1.12.59,2.29,1.1,3.53,1.38,1.05.24,2.19.28,3.21-.11,1.94-.73,3.13-3.1,2.44-5.08-.35-1.06-1.06-1.97-1.86-2.73-1.06-1-2.29-1.8-3.57-2.5-2.57-1.33-5.42-2.02-8.25-2.53.07-.21.13-.42.19-.64.34.05.68.13,1.03.18-.32-.14-.66-.23-.98-.36.06-.22.11-.43.15-.65,3.1,1.09,6.33,2.05,9.65,1.94,1.58-.06,3.19-.26,4.65-.91.88-.4,1.7-1.01,2.19-1.86.7-1.2.74-2.75.11-3.99-.48-.97-1.39-1.66-2.37-2.09-1.44-.63-3.03-.82-4.59-.88-3.32-.11-6.55.84-9.65,1.94-.04-.22-.1-.44-.15-.65.32-.13.66-.21.98-.36-.35.04-.68.13-1.03.18-.06-.21-.12-.43-.19-.64,2.8-.51,5.6-1.19,8.15-2.48,1.36-.74,2.67-1.59,3.79-2.67.82-.81,1.54-1.79,1.83-2.93.52-2.04-.84-4.34-2.87-4.88-1.31-.38-2.69-.11-3.96.31-1.5.52-2.92,1.26-4.22,2.17-2.14,1.51-3.95,3.44-5.64,5.42-.15-.17-.3-.33-.46-.49.17-.2.33-.4.52-.57-.03-.03-.05-.05-.07-.07-.17.19-.38.35-.57.52-.16-.16-.32-.31-.49-.46,1.94-1.66,3.82-3.42,5.32-5.5.94-1.32,1.71-2.77,2.25-4.3.43-1.28.71-2.69.33-4.02-.54-2.03-2.85-3.39-4.89-2.87-1.1.28-2.05.96-2.85,1.75-.96.97-1.73,2.09-2.41,3.26-.63,1.07-1.1,2.23-1.5,3.4-.58,1.75-.99,3.54-1.31,5.35-.21-.07-.43-.13-.64-.19.05-.34.13-.68.19-1.02-.16.31-.24.65-.37.97-.22-.06-.43-.11-.65-.15,1.12-3.17,2.09-6.48,1.93-9.88-.09-1.67-.32-3.4-1.14-4.89-.51-.93-1.31-1.72-2.32-2.05-1.29-.44-2.82-.25-3.9.6M67.91,40.24c1.19-.83,2.76-.99,4.15-.62,1.08.29,2.01,1.03,2.62,1.96.84,1.27,1.2,2.79,1.37,4.28.1.83.13,1.66.12,2.49.01,1.08-.16,2.14-.32,3.2.43-1.14.89-2.27,1.53-3.31.65-1.11,1.4-2.15,2.28-3.09.96-.98,2.14-1.83,3.52-2.08,2.26-.44,4.73,1,5.42,3.2.4,1.23.27,2.57-.05,3.81-.43,1.56-1.14,3.02-1.98,4.39-.53.84-1.14,1.62-1.78,2.38,1.07-.92,2.22-1.76,3.47-2.41,1.4-.75,2.9-1.38,4.49-1.59,1.3-.18,2.71,0,3.81.78,1.25.89,2.05,2.38,2.1,3.91.01,1.05-.35,2.09-.94,2.95-.74,1.13-1.78,2.03-2.87,2.81-1.07.75-2.2,1.43-3.41,1.93-.44.2-.9.35-1.34.54.82-.12,1.65-.25,2.48-.3,1.8-.07,3.63.03,5.38.53,1.2.36,2.38.94,3.19,1.93.73.86,1.08,2.01,1.04,3.13,0,1.24-.48,2.48-1.37,3.34-1.03,1-2.43,1.52-3.81,1.8-2.27.45-4.62.4-6.9,0,1.07.42,2.15.85,3.14,1.44,1.68.99,3.33,2.17,4.44,3.8.59.86.96,1.88.96,2.93-.03,1.41-.69,2.78-1.75,3.7-.82.72-1.9,1.06-2.98,1.11-1.23.05-2.45-.26-3.6-.69-2.02-.78-3.9-1.93-5.53-3.35.74.86,1.43,1.77,2,2.75.75,1.28,1.38,2.63,1.77,4.07.31,1.2.42,2.49.05,3.69-.66,2.18-3.06,3.64-5.3,3.28-1.13-.17-2.16-.75-3.01-1.5-1.41-1.23-2.46-2.82-3.35-4.45-.44-.82-.77-1.69-1.11-2.56.12.83.25,1.66.3,2.49.07,1.7-.02,3.43-.44,5.08-.31,1.19-.83,2.37-1.73,3.24-1.75,1.74-4.92,1.74-6.67,0-.91-.89-1.43-2.09-1.74-3.3-.42-1.69-.51-3.44-.42-5.17.04-.79.17-1.57.29-2.35-.37.94-.72,1.88-1.22,2.76-.71,1.29-1.55,2.52-2.55,3.59-.98,1.01-2.2,1.89-3.62,2.13-2.28.41-4.75-1.08-5.39-3.32-.43-1.44-.17-2.98.29-4.38.77-2.24,2-4.31,3.56-6.09-1.06.92-2.21,1.75-3.46,2.4-1.44.77-2.98,1.41-4.61,1.6-.88.12-1.78.04-2.62-.24-2.27-.78-3.68-3.47-3-5.78.3-1.12,1.01-2.08,1.8-2.91,1-.98,2.14-1.8,3.34-2.51,1.02-.62,2.14-1.07,3.25-1.5-1.08.16-2.17.33-3.27.31-1.59.02-3.19-.12-4.71-.58-1.23-.38-2.44-1.02-3.22-2.07-.92-1.21-1.11-2.86-.72-4.3.31-1.12,1.08-2.07,2.06-2.68,1.44-.9,3.15-1.23,4.81-1.37,1.19-.08,2.39-.09,3.58.05.49.05.97.15,1.46.2-.79-.31-1.59-.62-2.35-1-1.45-.77-2.83-1.68-4.03-2.8-.9-.89-1.71-1.95-2.02-3.2-.65-2.4.93-5.17,3.35-5.79,1.55-.42,3.18-.1,4.65.43,2.09.78,4.03,1.95,5.71,3.42-1.55-1.78-2.78-3.85-3.55-6.09-.46-1.4-.71-2.93-.28-4.37.64-2.23,3.12-3.73,5.39-3.32,1.29.21,2.41.97,3.34,1.85,1.12,1.12,2.03,2.44,2.8,3.82.51.89.87,1.86,1.25,2.81-.13-.88-.26-1.76-.31-2.65-.05-1.87.06-3.78.65-5.57.4-1.2,1.07-2.36,2.14-3.09"/>
        <path class="cls-3" d="M68.13,40.93c1.08-.85,2.61-1.05,3.9-.6,1.02.34,1.82,1.13,2.33,2.05.81,1.49,1.05,3.22,1.13,4.89.16,3.4-.81,6.71-1.93,9.88-.47-.09-.94-.17-1.42-.22.32-1.39.47-2.82.58-4.24.08-.95.06-1.9.05-2.85-.02-.32,0-.66-.15-.95-.12-.05-.24-.08-.36-.12.04,1.26.1,2.53,0,3.79-.1,1.45-.28,2.9-.58,4.33-.75-.06-1.5-.05-2.25.01-.53-2.5-.96-5.04-.9-7.6-.03-1.59.06-3.2.39-4.76.08-.39.23-.75.36-1.12.05-.15.14-.37-.05-.47-.11,0-.25-.01-.3.11-.24.39-.33.85-.45,1.29-.35,1.56-.44,3.18-.42,4.78-.05,2.63.32,5.25.92,7.81-.43.05-.85.12-1.27.21-.98-2.76-1.83-5.62-1.94-8.56-.03-1.62.08-3.27.57-4.83.34-1.07.89-2.12,1.79-2.82"/>
        <path class="cls-3" d="M53.29,46.64c.55-2.05,2.89-3.41,4.94-2.85.86.23,1.64.7,2.3,1.28,1.08.94,1.93,2.11,2.67,3.33,1.01,1.63,1.67,3.45,2.19,5.29.35,1.27.62,2.55.86,3.85-.45.15-.89.31-1.33.51-.47-1.46-1.09-2.86-1.76-4.24-.47-.91-.96-1.81-1.55-2.64-.12-.15-.28-.4-.51-.29-.21.11-.04.36.05.5.57.78,1.06,1.63,1.48,2.5.72,1.41,1.36,2.86,1.83,4.38-.66.32-1.3.7-1.9,1.12-1.4-1.49-2.69-3.09-3.81-4.81-1.16-1.86-2.27-3.79-2.89-5.9-.14-.4-.1-.87-.32-1.24-.19-.04-.39.1-.34.31.1,1.12.56,2.17,1,3.19,1.02,2.18,2.28,4.26,3.77,6.16.7.89,1.44,1.75,2.2,2.58-.34.25-.67.52-.98.81-1.22-1.06-2.44-2.12-3.52-3.32-1.82-1.92-3.29-4.19-4.12-6.7-.38-1.22-.61-2.54-.25-3.79"/>
        <path class="cls-3" d="M83.11,43.77c2.04-.52,4.34.84,4.89,2.87.38,1.33.1,2.74-.33,4.02-.55,1.53-1.31,2.98-2.25,4.3-1.5,2.08-3.38,3.84-5.32,5.5-.34-.31-.69-.6-1.06-.87.79-.9,1.48-1.88,2.17-2.87.55-.83,1.08-1.69,1.53-2.59.13-.27.31-.56.26-.87-.07-.03-.14-.05-.21-.06-.18-.03-.22.19-.3.3-.48,1.08-1.11,2.08-1.76,3.05-.65.95-1.34,1.87-2.07,2.75-.7-.47-1.43-.89-2.19-1.23.44-1.3.91-2.59,1.48-3.84.58-1.32,1.3-2.57,2.06-3.79.66-1.03,1.35-2.04,2.21-2.92.23-.24.52-.43.76-.66.15-.11.08-.31.09-.46-.25.08-.51.16-.71.33-.88.76-1.58,1.7-2.24,2.65-1.47,2.18-2.68,4.54-3.58,7.01-.18.49-.34.99-.52,1.48-.32-.13-.64-.25-.97-.36.32-1.81.73-3.61,1.31-5.35.41-1.17.87-2.33,1.5-3.4.68-1.17,1.46-2.3,2.41-3.26.8-.79,1.75-1.47,2.85-1.75"/>
        <path class="cls-3" d="M46.72,53.54c1.14-.21,2.32.02,3.41.37,2.47.84,4.72,2.28,6.61,4.07,1.22,1.09,2.3,2.33,3.37,3.56-.32.35-.61.72-.89,1.1-1.6-1.41-3.35-2.66-5.2-3.73-.5-.28-1.02-.53-1.54-.76-.07.13-.22.25-.15.42.32.25.73.35,1.08.56,1.98,1.09,3.82,2.43,5.54,3.9-.41.62-.79,1.26-1.11,1.94-1.92-.56-3.78-1.3-5.58-2.18-1.24-.65-2.46-1.35-3.62-2.15-.89-.64-1.81-1.29-2.48-2.17-.13-.18-.34-.28-.53-.38-.02.22-.05.47.11.65.53.71,1.24,1.26,1.93,1.8,2.99,2.22,6.41,3.83,9.97,4.89-.17.39-.32.79-.45,1.2-1.83-.33-3.64-.74-5.4-1.33-1.14-.39-2.26-.84-3.3-1.45-1.21-.7-2.37-1.49-3.36-2.48-.82-.84-1.53-1.86-1.76-3.03-.22-1.13.13-2.32.83-3.23.59-.82,1.52-1.37,2.51-1.54"/>
        <path class="cls-3" d="M91.04,53.95c1.26-.42,2.65-.68,3.96-.3,2.03.54,3.39,2.85,2.87,4.88-.28,1.14-1,2.11-1.83,2.93-1.12,1.08-2.43,1.93-3.79,2.67-2.55,1.29-5.35,1.97-8.15,2.48-.14-.43-.31-.86-.48-1.27,1.9-.69,3.74-1.54,5.47-2.59.38-.26.83-.46,1.1-.85-.06-.12-.13-.23-.2-.34-.94.67-1.93,1.28-2.97,1.78-1.17.58-2.37,1.12-3.6,1.55-.36-.76-.79-1.48-1.28-2.16,1.81-1.6,3.74-3.09,5.86-4.27,1.36-.78,2.77-1.48,4.27-1.95.4-.13.83-.14,1.23-.27.17-.05.1-.24.06-.37-.31-.08-.64-.02-.95.05-1.08.26-2.1.69-3.1,1.18-2.24,1.11-4.36,2.46-6.28,4.06-.47.38-.92.79-1.38,1.17-.21-.27-.43-.54-.66-.79,1.7-1.98,3.5-3.91,5.64-5.42,1.3-.91,2.72-1.65,4.22-2.17"/>
        <path class="cls-3" d="M59.86,60.21s.09,0,.12,0c.01.09-.03.13-.12.12,0-.03,0-.09,0-.12"/>
        <path class="cls-3" d="M81.3,60.21s.09,0,.12,0v.12c-.1.01-.14-.03-.12-.12"/>
        <path class="cls-3" d="M43.28,66.74c1.69-.55,3.5-.65,5.27-.6,2.84.17,5.59.99,8.25,1.93-.1.47-.17.94-.22,1.42-1.35-.32-2.74-.46-4.12-.57-.94-.08-1.88-.06-2.82-.06-.34.02-.68,0-1,.11-.17.05-.15.27-.22.4,1.39-.04,2.79-.1,4.18.02,1.32.1,2.64.28,3.94.55-.06.75-.05,1.5.01,2.25-2.48.53-5,.95-7.54.9-1.7.02-3.42-.05-5.08-.45-.42-.09-.8-.35-1.24-.36-.18.15-.08.42.13.48.85.39,1.78.52,2.7.65,1.08.13,2.17.18,3.26.16,2.63.05,5.26-.32,7.81-.92.05.43.12.85.21,1.27-3.1,1.09-6.33,2.05-9.65,1.94-1.6-.06-3.23-.26-4.7-.93-1-.46-1.92-1.21-2.35-2.25-.53-1.24-.45-2.73.27-3.88.65-1.04,1.77-1.69,2.91-2.06"/>
        <path class="cls-3" d="M84.49,68.07c3.1-1.09,6.33-2.05,9.65-1.94,1.56.06,3.15.25,4.59.88.97.43,1.88,1.12,2.37,2.09.62,1.24.59,2.79-.11,3.99-.49.85-1.31,1.45-2.19,1.86-1.46.65-3.07.84-4.65.91-3.32.11-6.55-.84-9.65-1.94.09-.45.16-.9.22-1.35,2.24.39,4.52.58,6.79.46.25-.03.6-.02.69-.32-.11-.24-.39-.18-.6-.17-2.28.18-4.57-.07-6.83-.41.07-.85.05-1.7-.03-2.54,1.62-.35,3.26-.6,4.91-.72,1.42-.08,2.84-.08,4.26,0,.95.07,1.91.17,2.83.42.46.11.91.42,1.4.26-.14-.21-.31-.43-.57-.5-1.32-.47-2.75-.59-4.14-.68-2.02-.08-4.04-.03-6.04.26-.91.14-1.82.26-2.71.5-.05-.36-.11-.71-.18-1.06"/>
        <path class="cls-3" d="M49.14,77.81c2.52-1.26,5.28-1.92,8.04-2.42.15.45.31.9.51,1.33-1.39.44-2.72,1.04-4.04,1.66-.77.38-1.52.8-2.25,1.25-.31.2-.65.38-.88.67-.12.15,0,.35.18.34.32-.12.57-.36.86-.55,1.08-.7,2.25-1.26,3.41-1.81.95-.43,1.91-.82,2.91-1.12.32.66.7,1.3,1.11,1.91-1.92,1.8-4.01,3.43-6.31,4.72-1.78,1-3.64,1.97-5.69,2.24.06.13.08.28.18.39.37.05.73-.06,1.09-.14,1.45-.39,2.81-1.06,4.12-1.77,2.52-1.35,4.81-3.09,6.9-5.04.25.34.52.67.81.98-1.89,2.21-3.91,4.36-6.39,5.92-1.13.7-2.33,1.29-3.59,1.71-1.23.39-2.58.64-3.84.27-2.03-.54-3.39-2.85-2.87-4.89.29-1.16,1.02-2.14,1.86-2.96,1.14-1.09,2.47-1.95,3.85-2.68"/>
        <path class="cls-3" d="M83.74,76.36c.13-.32.25-.64.36-.97,2.83.52,5.68,1.2,8.25,2.53,1.28.7,2.51,1.5,3.57,2.5.8.76,1.51,1.67,1.86,2.73.69,1.98-.49,4.35-2.44,5.08-1.02.39-2.16.35-3.21.11-1.24-.28-2.41-.79-3.53-1.38-2.94-1.56-5.28-4.01-7.42-6.51.31-.34.59-.69.87-1.06.89.77,1.85,1.46,2.81,2.13.93.63,1.89,1.21,2.9,1.69.22.11.47.13.72.15-.06-.14-.04-.34-.18-.43-.32-.19-.68-.31-1-.5-1.77-.97-3.42-2.15-4.97-3.44.47-.7.89-1.43,1.23-2.2,1.32.45,2.63.93,3.89,1.51,1.24.56,2.43,1.23,3.59,1.94,1.1.69,2.17,1.43,3.1,2.34.27.25.44.59.72.83.22.12.37-.16.27-.34-.13-.29-.36-.52-.58-.75-1.03-1.05-2.26-1.88-3.51-2.64-2.02-1.25-4.19-2.26-6.45-3.03-.28-.1-.57-.2-.85-.3"/>
        <path class="cls-3" d="M61.19,81.52c.35.32.72.61,1.1.89-.96,1.08-1.83,2.22-2.63,3.42-.63.95-1.24,1.92-1.71,2.96-.11.2-.05.42,0,.63.17-.11.36-.22.44-.42.61-1.37,1.45-2.62,2.31-3.84.61-.86,1.28-1.68,1.96-2.49.62.42,1.26.79,1.94,1.11-.76,2.56-1.79,5.04-3.15,7.33-.77,1.3-1.6,2.57-2.62,3.69-.28.32-.64.56-.94.85-.12.09-.12.3.01.38.25.05.45-.14.63-.28.76-.65,1.37-1.44,1.95-2.25,1.42-2.03,2.61-4.21,3.51-6.51.38-.99.75-1.99,1.05-3.01.39.17.79.32,1.2.45-.5,2.76-1.17,5.52-2.43,8.04-.73,1.39-1.6,2.72-2.68,3.85-.82.84-1.81,1.57-2.96,1.86-2.04.52-4.34-.84-4.89-2.87-.36-1.25-.13-2.57.25-3.78.84-2.51,2.3-4.79,4.12-6.7,1.08-1.2,2.31-2.27,3.53-3.33"/>
        <path class="cls-3" d="M79.3,82.19c.27-.21.54-.43.79-.66,1.98,1.7,3.91,3.5,5.42,5.64.91,1.3,1.65,2.73,2.17,4.23.42,1.26.68,2.64.31,3.95-.54,2.03-2.85,3.4-4.89,2.87-1.12-.28-2.08-.98-2.88-1.78-.8-.82-1.48-1.76-2.08-2.74-1.33-2.12-2.08-4.55-2.65-6.97-.17-.75-.32-1.51-.46-2.27.43-.14.85-.3,1.27-.48.69,1.86,1.51,3.67,2.53,5.37.24.37.46.78.77,1.1.11.16.42.07.41-.13-.05-.16-.15-.29-.24-.43-.79-1.11-1.4-2.33-1.98-3.56-.38-.84-.76-1.68-1.04-2.56.75-.36,1.47-.79,2.15-1.28,1.6,1.79,3.06,3.71,4.24,5.81.77,1.34,1.47,2.73,1.94,4.21.15.48.22.97.3,1.47.12-.03.25-.05.37-.09.08-.31.01-.63-.05-.93-.27-1.13-.74-2.21-1.26-3.25-1.04-2.07-2.28-4.03-3.74-5.82-.45-.58-.95-1.12-1.42-1.68"/>
        <path class="cls-3" d="M59.86,81.65c.1-.02.13.03.12.12-.03,0-.09,0-.12,0,0-.03,0-.09,0-.12"/>
        <path class="cls-3" d="M81.3,81.77c-.02-.1.02-.14.12-.12,0,.03,0,.09,0,.12-.03,0-.09,0-.12,0"/>
        <path class="cls-3" d="M67.72,84.84c.45.09.9.16,1.35.22-.26,1.5-.43,3.01-.48,4.54,0,.96-.05,1.93.11,2.88.13,0,.27,0,.4,0-.05-1.2-.1-2.4-.02-3.6.07-1.27.24-2.53.43-3.79.85.07,1.69.05,2.54-.03.47,2.18.77,4.39.78,6.62,0,1.76-.04,3.54-.44,5.26-.09.43-.32.83-.38,1.27.06.22.32.18.42,0,.23-.38.33-.84.44-1.27.32-1.45.41-2.93.43-4.41.04-2.53-.22-5.06-.8-7.53.36-.05.71-.11,1.06-.18,1.09,3.1,2.05,6.33,1.94,9.65-.06,1.56-.25,3.15-.88,4.59-.41.93-1.06,1.81-1.97,2.3-1.22.67-2.78.67-4,0-.92-.5-1.56-1.37-1.98-2.31-.63-1.44-.82-3.03-.88-4.59-.11-3.32.84-6.56,1.94-9.65"/>
        <path class="cls-1" d="M68.94,43.06c.05-.13.19-.11.3-.11.18.1.1.32.05.47-.14.37-.29.73-.36,1.11-.33,1.56-.42,3.17-.39,4.76-.06,2.56.36,5.11.9,7.61-.15.01-.3.03-.45.04-.6-2.56-.97-5.18-.92-7.81-.01-1.6.07-3.21.42-4.78.11-.44.21-.9.45-1.29"/>
        <path class="cls-1" d="M82.35,46.76c.2-.18.46-.25.71-.33-.02.15.05.35-.09.46-.24.23-.53.42-.76.66-.86.88-1.55,1.89-2.21,2.92-.76,1.22-1.48,2.47-2.06,3.79-.57,1.25-1.05,2.54-1.48,3.84-.15-.07-.3-.13-.45-.19.18-.49.35-.99.52-1.48.9-2.47,2.11-4.83,3.58-7.01.66-.95,1.36-1.89,2.24-2.65"/>
        <path class="cls-1" d="M55.2,47.72c-.05-.21.15-.35.34-.31.22.37.18.83.32,1.24.62,2.11,1.73,4.04,2.89,5.9,1.12,1.72,2.41,3.32,3.81,4.81-.14.09-.27.19-.4.29-.77-.83-1.5-1.69-2.2-2.58-1.49-1.9-2.75-3.98-3.77-6.16-.44-1.02-.9-2.07-1-3.19"/>
        <path class="cls-1" d="M72.26,48.77c.12.04.24.07.36.12.15.29.13.63.15.95.01.95.03,1.9-.05,2.85-.11,1.42-.25,2.85-.58,4.24-.15-.01-.31-.03-.46-.04.3-1.42.48-2.87.58-4.33.09-1.26.03-2.53,0-3.79"/>
        <path class="cls-1" d="M61.11,50.87c.23-.11.38.15.51.29.59.83,1.08,1.73,1.55,2.64.67,1.38,1.29,2.78,1.76,4.24-.15.07-.3.14-.45.21-.47-1.51-1.12-2.97-1.83-4.38-.43-.87-.91-1.72-1.48-2.5-.09-.14-.26-.39-.05-.5"/>
        <path class="cls-1" d="M82.49,53.51c.08-.11.12-.33.29-.3.07,0,.14.03.21.06.05.32-.13.6-.26.87-.44.9-.97,1.75-1.53,2.59-.69.98-1.38,1.97-2.17,2.87-.13-.09-.25-.19-.38-.28.73-.89,1.42-1.81,2.08-2.75.65-.98,1.28-1.98,1.76-3.05"/>
        <path class="cls-1" d="M92.6,55.92c.31-.07.64-.14.95-.05.04.12.11.31-.06.37-.4.12-.83.14-1.23.27-1.5.47-2.91,1.17-4.27,1.95-2.12,1.18-4.05,2.67-5.86,4.27-.1-.13-.19-.26-.29-.39.47-.38.91-.8,1.38-1.17,1.92-1.6,4.04-2.95,6.28-4.06.99-.48,2.02-.92,3.1-1.18"/>
        <path class="cls-1" d="M45.63,58.06c.2.1.4.2.53.38.67.88,1.59,1.53,2.48,2.17,1.16.8,2.38,1.5,3.62,2.15,1.79.88,3.66,1.62,5.58,2.19-.07.15-.14.3-.2.44-3.56-1.06-6.98-2.67-9.97-4.89-.7-.53-1.4-1.09-1.93-1.8-.16-.18-.13-.43-.11-.65"/>
        <path class="cls-1" d="M52.48,58.15c.52.23,1.04.47,1.54.76,1.85,1.07,3.6,2.32,5.2,3.73-.09.13-.19.25-.27.39-1.72-1.47-3.55-2.81-5.54-3.9-.35-.2-.75-.31-1.08-.56-.07-.16.09-.28.15-.42"/>
        <path class="cls-1" d="M87.01,63.33c1.04-.51,2.03-1.11,2.97-1.78.07.11.14.22.2.34-.27.39-.72.59-1.1.85-1.73,1.05-3.57,1.89-5.47,2.59-.07-.15-.14-.3-.2-.44,1.23-.44,2.43-.97,3.61-1.56"/>
        <path class="cls-1" d="M87.37,68.63c2-.3,4.03-.35,6.04-.26,1.39.09,2.81.2,4.14.68.26.07.42.28.57.5-.49.16-.94-.15-1.4-.26-.92-.25-1.88-.35-2.83-.42-1.42-.08-2.84-.08-4.26,0-1.65.12-3.29.37-4.91.72-.02-.15-.03-.3-.05-.44.89-.24,1.8-.36,2.71-.5"/>
        <path class="cls-1" d="M48.63,68.97c.32-.11.67-.1,1-.11.94,0,1.88-.02,2.82.06,1.38.11,2.77.25,4.12.57-.01.15-.03.3-.04.45-1.3-.27-2.62-.45-3.94-.55-1.39-.12-2.78-.06-4.18-.02.06-.13.04-.36.22-.4"/>
        <path class="cls-1" d="M84.75,72.12c2.26.34,4.55.59,6.83.41.21,0,.49-.07.6.17-.08.29-.44.28-.68.31-2.27.12-4.55-.07-6.79-.46.01-.15.03-.3.04-.44"/>
        <path class="cls-1" d="M42.69,72.28c.44,0,.81.27,1.24.36,1.66.4,3.38.48,5.09.45,2.54.05,5.06-.37,7.54-.9.01.15.03.3.04.45-2.56.6-5.18.97-7.81.92-1.09.02-2.18-.04-3.26-.16-.91-.13-1.85-.26-2.7-.65-.2-.06-.3-.33-.13-.48"/>
        <path class="cls-1" d="M83.55,76.81c.07-.15.13-.3.19-.45.28.1.57.2.85.3,2.25.77,4.42,1.78,6.45,3.03,1.25.77,2.47,1.6,3.51,2.64.22.23.45.45.58.75.1.18-.05.46-.27.34-.28-.23-.46-.57-.73-.83-.93-.91-2-1.65-3.1-2.34-1.16-.72-2.35-1.39-3.59-1.94-1.26-.58-2.57-1.06-3.89-1.51"/>
        <path class="cls-1" d="M53.66,78.37c1.31-.62,2.65-1.22,4.04-1.66.07.15.14.3.21.45-1,.3-1.96.69-2.91,1.12-1.17.54-2.33,1.1-3.41,1.81-.29.18-.54.42-.86.55-.18.01-.31-.2-.18-.34.23-.29.57-.46.88-.67.73-.46,1.48-.87,2.25-1.25"/>
        <path class="cls-1" d="M82.32,79c1.55,1.29,3.2,2.47,4.97,3.44.32.18.68.3,1,.5.14.09.13.29.18.43-.24-.02-.49-.04-.72-.15-1.01-.49-1.97-1.07-2.9-1.69-.97-.67-1.93-1.35-2.82-2.13.09-.13.19-.26.28-.39"/>
        <path class="cls-1" d="M59.02,79.07c.09.13.19.26.29.4-2.09,1.94-4.38,3.69-6.9,5.04-1.31.72-2.67,1.38-4.12,1.77-.36.08-.72.19-1.09.14-.09-.11-.12-.26-.18-.39,2.05-.27,3.91-1.24,5.69-2.24,2.3-1.29,4.39-2.92,6.31-4.72"/>
        <path class="cls-1" d="M78.91,82.48c.13-.1.26-.19.39-.29.47.56.96,1.11,1.42,1.68,1.46,1.79,2.7,3.76,3.74,5.82.52,1.04.98,2.12,1.26,3.25.07.3.14.62.05.93-.12.04-.25.06-.37.09-.08-.49-.15-.99-.3-1.47-.47-1.47-1.17-2.86-1.94-4.21-1.18-2.1-2.65-4.01-4.24-5.81"/>
        <path class="cls-1" d="M62.28,82.42c.13.09.25.18.38.27-.68.81-1.35,1.62-1.96,2.49-.86,1.22-1.7,2.47-2.31,3.84-.08.2-.27.3-.44.41-.05-.2-.12-.43,0-.63.47-1.04,1.08-2.01,1.71-2.96.8-1.2,1.67-2.35,2.63-3.42"/>
        <path class="cls-1" d="M76.31,83.96c.15-.07.3-.14.45-.2.28.88.67,1.72,1.04,2.56.57,1.23,1.18,2.45,1.98,3.55.09.13.19.27.24.43.02.2-.29.3-.4.13-.32-.32-.53-.72-.77-1.1-1.02-1.7-1.84-3.51-2.53-5.37"/>
        <path class="cls-1" d="M64.61,83.8c.15.07.3.14.45.2-.3,1.02-.66,2.02-1.05,3.01-.9,2.3-2.1,4.49-3.51,6.52-.58.8-1.19,1.6-1.95,2.25-.18.14-.39.33-.63.28-.14-.08-.13-.29-.01-.38.31-.29.66-.53.94-.85,1.02-1.11,1.85-2.39,2.62-3.69,1.37-2.29,2.39-4.78,3.15-7.33"/>
        <path class="cls-1" d="M69.08,85.06c.15.02.29.03.44.04-.18,1.26-.36,2.52-.43,3.79-.08,1.2-.03,2.4.02,3.59-.13,0-.27,0-.4,0-.16-.95-.12-1.92-.11-2.88.06-1.52.22-3.04.48-4.54"/>
        <path class="cls-1" d="M72.06,85.07c.15-.01.3-.03.45-.05.58,2.46.84,5,.79,7.53-.02,1.48-.11,2.96-.43,4.41-.11.43-.21.88-.44,1.27-.1.17-.35.22-.41,0,.05-.44.28-.84.38-1.27.41-1.72.46-3.5.44-5.26,0-2.23-.31-4.44-.78-6.62"/>
        <path class="cls-5" d="M70.43,59.89c-2.99.03-5.93,1.36-7.96,3.56-1.65,1.81-2.71,4.16-2.89,6.61-.23,2.57.47,5.21,1.96,7.31,1.57,2.27,4.03,3.9,6.73,4.47,2.68.58,5.57.15,7.94-1.24,2.6-1.48,4.54-4.08,5.22-6.99.33-1.26.35-2.58.24-3.87-.29-2.68-1.6-5.24-3.62-7.03-2.06-1.87-4.85-2.89-7.64-2.83M69.44,56.9c.75-.06,1.5-.07,2.25-.01.15.01.3.02.46.04.48.05.95.13,1.42.22.22.04.44.09.65.15.06.02.12.03.18.05.21.06.43.12.64.19.33.11.65.23.97.36.15.06.3.12.45.19.77.34,1.5.76,2.19,1.23.13.09.26.18.38.28.37.27.72.56,1.06.87.17.15.34.3.49.46l.12.12c.16.16.31.32.46.49.23.26.45.52.66.79.1.13.2.26.29.39.49.68.92,1.41,1.28,2.16.07.15.14.29.2.44.18.42.34.84.48,1.27.07.21.13.42.19.64.02.06.03.12.05.18.06.22.11.43.15.65.07.35.13.71.18,1.06.02.15.04.3.05.44.08.85.09,1.7.02,2.54-.01.15-.02.3-.04.44-.05.45-.13.91-.22,1.35-.04.22-.09.44-.15.65-.02.06-.03.12-.05.18-.06.21-.12.43-.19.64-.11.33-.23.65-.36.97-.06.15-.13.3-.19.45-.34.77-.76,1.5-1.23,2.19-.09.13-.18.26-.28.39-.27.37-.56.72-.87,1.06-.15.17-.3.34-.46.49-.04.04-.08.08-.12.13-.16.16-.32.31-.49.46-.26.23-.52.45-.79.67-.13.1-.26.2-.39.29-.68.49-1.4.92-2.15,1.28-.15.07-.3.14-.45.2-.42.18-.84.34-1.27.48-.21.07-.42.13-.64.19-.06.02-.12.03-.18.05-.22.06-.43.11-.65.15-.35.07-.71.13-1.06.18-.15.02-.3.04-.45.05-.84.08-1.69.1-2.54.03-.15-.01-.3-.03-.44-.04-.45-.05-.91-.12-1.36-.22-.22-.04-.44-.1-.65-.15-.06-.02-.12-.03-.19-.05-.21-.06-.42-.12-.63-.19-.41-.13-.81-.28-1.2-.45-.15-.07-.3-.13-.45-.2-.68-.31-1.32-.69-1.94-1.11-.13-.09-.26-.18-.38-.27-.38-.28-.75-.57-1.1-.89-.17-.15-.33-.3-.49-.46-.04-.04-.08-.08-.12-.13-.16-.16-.32-.32-.46-.49-.29-.31-.55-.64-.81-.98-.1-.13-.19-.26-.29-.4-.42-.61-.79-1.24-1.11-1.91-.07-.15-.14-.3-.21-.45-.19-.43-.36-.88-.51-1.33-.07-.21-.13-.42-.19-.63-.02-.06-.03-.12-.05-.19-.06-.22-.11-.43-.15-.65-.09-.42-.16-.85-.21-1.27-.02-.15-.03-.3-.04-.45-.06-.75-.08-1.5-.01-2.25.01-.15.02-.3.04-.45.05-.48.12-.95.22-1.42.04-.22.09-.44.15-.65.02-.06.03-.12.05-.19.06-.21.12-.42.19-.63.13-.41.28-.81.45-1.2.06-.15.13-.3.2-.44.32-.68.69-1.32,1.11-1.94.09-.13.18-.26.27-.38.28-.38.57-.75.89-1.1.15-.17.3-.33.46-.49.04-.04.08-.08.12-.12.16-.16.32-.31.49-.46.31-.28.64-.55.98-.81.13-.1.26-.2.4-.29.61-.42,1.24-.79,1.9-1.12.15-.07.3-.14.45-.21.43-.19.87-.36,1.32-.51.21-.07.42-.13.63-.19.06-.02.12-.03.19-.05.22-.06.43-.11.65-.15.42-.09.84-.16,1.27-.21.15-.02.3-.03.45-.04"/>
        <path class="cls-2" d="M70.43,59.89c2.78-.07,5.57.95,7.64,2.83,2.02,1.79,3.32,4.35,3.61,7.03.11,1.29.08,2.61-.24,3.87-.68,2.92-2.62,5.51-5.22,6.99-2.37,1.39-5.26,1.82-7.94,1.24-2.7-.57-5.17-2.2-6.73-4.47-1.49-2.11-2.19-4.75-1.96-7.31.18-2.45,1.24-4.8,2.89-6.61,2.02-2.2,4.96-3.52,7.96-3.56"/>
      </g>
    </g>
  </g>
</svg>