<?xml version="1.0" encoding="UTF-8"?>
<svg xmlns="http://www.w3.org/2000/svg" version="1.1" xmlns:xlink="http://www.w3.org/1999/xlink" viewBox="0 0 257.7 254.9">
  <defs>
    <style>
      .cls-1 {
        fill: #d63d39;
      }

      .cls-2 {
        fill: #ea4645;
      }

      .cls-3 {
        fill: #844c9e;
      }

      .cls-4 {
        fill: #803532;
      }

      .cls-5 {
        fill: #fde4b8;
      }

      .cls-6 {
        fill: #773293;
      }

      .cls-7 {
        fill: #8e68ad;
      }

      .cls-8 {
        fill: #c8473e;
      }

      .cls-9 {
        fill: #9a4722;
      }

      .cls-10 {
        fill: #789a3d;
      }

      .cls-11 {
        fill: #8e2c2b;
      }

      .cls-12 {
        fill: none;
      }

      .cls-13 {
        fill: #fdba13;
      }

      .cls-14 {
        fill: #b13a36;
      }

      .cls-15 {
        fill: #fff3e8;
      }

      .cls-16 {
        fill: #9a2625;
      }

      .cls-17 {
        fill: #b12b2b;
      }

      .cls-18 {
        fill: #703030;
      }

      .cls-19 {
        fill: #f1666d;
      }

      .cls-20 {
        display: none;
      }

      .cls-21 {
        fill: #fed303;
      }

      .cls-22 {
        fill: #adc13e;
      }

      .cls-23 {
        fill: #b12c2b;
      }

      .cls-24 {
        clip-path: url(#clippath);
      }

      .cls-25 {
        fill: #dd9669;
      }
    </style>
    <clipPath id="clippath">
      <rect class="cls-12" x="23.8" y="23.2" width="215.5" height="215.6"/>
    </clipPath>
  </defs>
  <!-- Generator: Adobe Illustrator 28.7.0, SVG Export Plug-In . SVG Version: 1.2.0 Build 136)  -->
  <g>
    <g id="Layer_1">
      <g class="cls-20">
        <g id="Layer_1-2" data-name="Layer_1">
          <g>
            <path class="cls-10" d="M62.9,19.7c.9,1.2,1.7,2.6,2.8,3.6,1.8,2.8,2.4,6.2,4.3,9,5.1,9.2,12.5,17.6,22.3,21.9,6.3,2.7,13.2,3.6,19.9,3.3,2.9-.1,5.9-.6,8.5-2.2-4.3-4-9.2-7.2-14.4-9.8-8.1-4-17.2-4.9-25.6-8-3.6-1.3-7.1-3.4-9.4-6.6,0-.2.2-.5.2-.6,1.8,1.5,3.7,2.9,5.9,3.8,6.6,3,13.8,4.4,20.9,5.4,9.4,1.3,18.1,6.6,24,14,.2-.7.3-1.5.5-2.2.5.8,1,1.7,1.6,2.5.9,1.3,1.5,2.7,2,4.2-.3.5-.7,1.1-1,1.6-.3-.2-.8-.4-1.1-.6-.8-.4-1.7-.9-2.6-1.1-.8,0-1.5.6-2.3,1-9.2,4.6-20.5,4.8-29.7.2-5.7-2.9-10.9-6.9-15.2-11.7-6.7-7.7-10.9-17.6-11.5-27.8h0Z"/>
            <path class="cls-22" d="M65.7,23.3c.2,0,.7-.1.9-.2l-.5.7c2.4,2,5,3.8,8,4.7,4.3,1.6,8.9.9,13.3,1.4,8.3.7,16.8,3,23.5,8.3,4.5,3.8,8.5,8.3,11.8,13.2-.2.7-.3,1.5-.5,2.2-5.9-7.4-14.6-12.7-24-14-7.2-1-14.3-2.4-20.9-5.4-2.2-.9-4.1-2.3-5.9-3.8,0,.2-.2.5-.2.6-.4.4-.9.9-1.4,1.3-1.8-2.8-2.4-6.2-4.3-9h0Z"/>
            <path class="cls-22" d="M70,32.4c.5-.4.9-.8,1.4-1.3,2.3,3.1,5.7,5.3,9.4,6.6,8.4,3.2,17.5,4,25.6,8,5.2,2.6,10.1,5.8,14.4,9.8-2.6,1.5-5.6,2-8.5,2.2-6.8.2-13.7-.7-19.9-3.3-9.8-4.3-17.2-12.7-22.3-21.9Z"/>
            <path class="cls-25" d="M129.6,37.5c.8-1.4,2.1-2.7,3.8-2.9,4.4-.6,8.7,1.5,11.9,4.4,1.8,1.8,3.6,4.2,3.1,6.9-.1,1.3-1.3,2.1-2.2,3-1.4-.2-2.9.4-4.3,0-4.2-.7-8.2-3.2-10.7-6.7-1-1.4-1.3-3.1-1.6-4.8Z"/>
            <path class="cls-9" d="M124.4,53.9c.5-5.8,2.4-11.3,5.1-16.4.3,1.6.6,3.4,1.6,4.8,2.5,3.5,6.5,6,10.7,6.7,1.4.3,2.9-.3,4.3,0-2.6,2.8-4.9,5.8-6.9,9-3.8,6.2-6.6,13.4-6.2,20.8-.2.5-.4,1-.6,1.6-1.7-.3-3.4-.3-5.1-.7-.4-1.4-.9-2.8-1.2-4.2.7-2.7-.7-5.2-.8-7.9-.2-2.6-.8-5.2,0-7.8.3-.5.7-1.1,1-1.6-.5-1.5-1.1-2.9-2-4.2h0Z"/>
            <path class="cls-18" d="M124.2,59.2c.3.2.8.4,1.1.6-.8,2.5-.2,5.2,0,7.8.1,2.7,1.5,5.2.8,7.9-1.3-5.3-1.8-10.8-1.9-16.3Z"/>
            <path class="cls-1" d="M166.3,63c6.3-1.5,13.1-2.3,19.4-.1-2.1.6-4.2.2-6.3.4-7.8,1.1-15.4,3.8-21.7,8.6-3.1,2.1-6,4.4-8.8,6.9-4,3.7-7.4,8.3-12.3,11-2.4,1.5-5.7,1.4-8-.3-5.8-4-9.7-10-15.2-14.3-1.4-1.1-3.1-1.9-4.3-3.3v-1c6.3,2.6,11.9,6.5,18.2,8.7,1.7.4,3.4.4,5.1.7,1,.1,2.1.3,3.2-.1,3.6-1.3,6.8-3.6,9.5-6.3h-.6c.5-.5,1.1-1,1.6-1.4,1.5-.4,3.4-.1,4.3-1.6,1.4-1.9,3.7-2.6,5.7-3.6,0-.2-.3-.5-.4-.7,3.4-1.5,7-2.6,10.6-3.5h0Z"/>
            <path class="cls-1" d="M36.7,109.6c3.5-12.2,10.9-23.3,20.9-31.2,0,.8,0,1.6-.5,2.2-6.3,7.7-8.1,18-7.8,27.7.1,5.9,1.4,11.7,2.9,17.4,3.8,12.1,10,23.3,18,33.1,8.5,11,19.6,19.8,31.6,26.6,4.7,2.2,9.3,4.8,14.2,6.4,4.3,1.6,8.7,2.9,13.2,3.8,5.4,1.2,11,2.2,16.6,2.4,2.5,0,5,.4,7.6.3,6.7-.4,13.5-.6,20-2.4,16.3-3.3,31.9-11.3,43-23.7,1.9-2.2,3.9-4.3,5.2-6.9.4-.9,1-1.5,1.8-2-.7,2.4-2.2,4.5-3.1,6.9-3.2,6.9-6.8,13.6-10.9,20-.8,1.2-1.7,2.4-1.8,3.9-.8,1.3-1.7,2.5-2.6,3.8.1-.5.3-.9.4-1.4-.7.6-1.3,1.4-1.9,2.2-2.1,3.2-5,5.8-7.5,8.6-1.2,1.3-2.6,2.4-4,3.5-2.5,1.4-4.6,3.3-7,4.7-5.8,3.9-12.7,6.7-19.8,6-3.8-.7-7.4-2.3-11.2-3-7.4-1.5-15.2-1.1-22.4,1.4-8.9,3.4-18.7,1.5-27.5-1.3-13.9-4.8-26.5-12.8-37-23-8.7-8.7-17.1-18-23.2-28.8-1.5-2.8-3-5.6-4-8.7-.7-1.6-1-3.4-2.1-4.8-.2.8-.3,1.6-.3,2.5-.8-3-1.6-5.9-2.1-8.9-.7-4.1-1.1-8.3-1.4-12.5v-7.2c.4-6,1.2-12,2.9-17.7h0Z"/>
            <path class="cls-2" d="M157.7,71.9c6.3-4.8,13.9-7.5,21.7-8.6,2.1-.2,4.2.2,6.3-.4.2,0,.7,0,.9.1-4.1,4.7-7,10.6-8,16.8,0-.4-.2-1.1-.3-1.5-1.1,2.4-.6,5.1-.8,7.7,0,1.4-.4,3.2,1,4.2.7,2.6,1.7,5.2,3.3,7.4,3.3,4.5,7.8,7.7,12,11.2,2.1,1.8,3.8,4.1,4.3,6.9.8,4.4-.3,8.9.8,13.2,1.5,6.5,5.9,11.8,10.5,16.4,2.1,2.1,4.5,3.9,7,5.6,0,.1.1.4.2.6,1.2.8,2.4,1.5,3.6,2.2,2,1.1,4.2,1.4,6.2,2.3-.7,2.7-2.1,5.1-3,7.6-.8.5-1.4,1.1-1.8,2-1.3,2.6-3.3,4.7-5.2,6.9-11.2,12.4-26.7,20.4-43,23.7-6.5,1.7-13.3,1.9-20,2.4-2.5.1-5.1-.2-7.6-.3-5.6-.1-11.1-1.2-16.6-2.4-4.5-.9-8.9-2.2-13.2-3.8-4.9-1.6-9.5-4.2-14.2-6.4-12.1-6.8-23.1-15.6-31.6-26.6-8-9.8-14.2-21-18-33.1-1.4-5.7-2.7-11.5-2.9-17.4-.3-9.7,1.5-20,7.8-27.7.6-.6.5-1.4.5-2.2,7.8-6.2,17.3-10.4,27.3-11.7,8.3-.8,16.9.8,24.5,4.2v1c1.1,1.4,2.8,2.2,4.2,3.3,5.5,4.3,9.5,10.3,15.2,14.3,2.3,1.8,5.6,1.8,8,.3,4.9-2.8,8.2-7.3,12.3-11,2.7-2.5,5.6-4.9,8.8-6.9h0ZM170.1,70.4c-5.8,3.2-10.7,8.1-13.7,14-.7,1.8-1.1,3.7-1.3,5.5,0,2,.2,4.4,2,5.7,2.9,2.2,6.8,2.1,10.2,2,2.6-.2,5.3-.4,7.8-1.3-3.8-7.4-3.4-16.5.3-23.8,1.2-2.4,3.2-4.2,4.9-6.2-3.6.9-6.9,2.6-10.1,4.2h0ZM90.4,75.9c-2.9.7-5.8,2-7.6,4.5-.7.9-1.5,2.2-.7,3.3,2.3,2.3,5.8,2,8.8,2.5,9.8,1,17.3,8.2,26.5,11.1,1.6.5,4.1.6,4.9-1.2.9-2.8-.9-5.4-2.5-7.5-3.3-4.2-7.6-7.5-12.2-10.1-5.2-2.8-11.4-3.9-17.2-2.6h0Z"/>
            <path class="cls-5" d="M186.6,63c1.4,4.8.7,10-.2,14.9-1.2,4.7.1,9.7,2.5,13.8,1,1.5,2.2,3,3.2,4.5,2.5,2.3,5.3,4.2,7.9,6.5,1.6,1.8,3.6,3.4,4.6,5.7,1.2,2.3,1.3,5.1.5,7.6-1,3-.8,6.3-.8,9.4,0,2.2,1,4.2,1.9,6.2,1.9,3.9,5.4,6.8,8.9,9.3,2.6,2.4,5.5,4.3,7.9,6.9,2.2,1.9,3.7,4.5,4.3,7.4-3.9-.7-7.5-2.4-10.8-4.4-2.4-1.7-4.9-3.4-7-5.6-4.6-4.6-9.1-9.9-10.5-16.4-1.1-4.3,0-8.8-.8-13.2-.5-2.8-2.2-5.1-4.3-6.9-4.2-3.5-8.8-6.8-12-11.2-1.6-2.2-2.6-4.8-3.3-7.4-.4-3.4-.4-6.9.2-10.3,1-6.2,3.9-12.1,8-16.8h0Z"/>
            <path class="cls-19" d="M170.1,70.4c3.3-1.6,6.6-3.2,10.1-4.2-1.7,2-3.7,3.8-4.9,6.2-3.6,7.3-4.1,16.5-.3,23.8-2.4.9-5.1,1.1-7.8,1.3-3.4.1-7.3.2-10.2-2-1.8-1.3-2.1-3.7-2-5.7.2-1.9.6-3.8,1.3-5.5,3-5.9,7.9-10.8,13.7-14h0Z"/>
            <path class="cls-19" d="M90.4,75.9c5.8-1.2,12-.1,17.2,2.6,4.6,2.6,8.9,5.9,12.2,10.1,1.6,2.1,3.4,4.8,2.5,7.5-.9,1.8-3.3,1.7-4.9,1.2-9.2-2.9-16.7-10.1-26.5-11.1-3-.5-6.5-.2-8.8-2.5-.8-1.1,0-2.4.7-3.3,1.8-2.5,4.7-3.8,7.6-4.5h0Z"/>
            <path class="cls-14" d="M146.1,72.5c2.9-2.4,6.2-4.3,9.6-6,0,.2.3.5.4.7-2,1.1-4.3,1.8-5.7,3.6-.9,1.5-2.8,1.3-4.3,1.6h0Z"/>
            <path class="cls-23" d="M133.1,80c4.5-.6,7.9-3.7,11.4-6.3h.6c-2.7,2.8-5.9,5.1-9.5,6.4-1,.4-2.1.3-3.2.1.2-.5.4-1,.6-1.6,0,.3,0,.9,0,1.3h0Z"/>
            <path class="cls-8" d="M177.4,85.9c.2-2.6-.3-5.3.8-7.7,0,.4.2,1.2.3,1.5-.6,3.4-.6,6.9-.2,10.3-1.4-1-.9-2.8-1-4.2h0Z"/>
            <path class="cls-4" d="M168.6,226.2c.7-.5,1.4,0,2.1.3-3,1.1-6,1.9-9.2,2.4-3.4.4-6.8-.7-9.8-2.3.3,0,.9-.2,1.2-.2,4.8,2.8,10.8,2.2,15.7-.1h0Z"/>
            <path class="cls-15" d="M33.8,134.5c.3,4.2.7,8.4,1.4,12.5-.5-1-1.1-1.9-1.4-2.9v-9.6Z"/>
            <path class="cls-17" d="M216.6,151.3c0-.1-.1-.4-.2-.6,3.3,2.1,6.9,3.8,10.8,4.4v.2c-4.9,13.6-11.5,26.7-19.6,38.8,0-1.5,1-2.7,1.8-3.9,4.1-6.4,7.8-13.1,10.9-20,.9-2.3,2.4-4.4,3.1-6.9,1-2.6,2.4-4.9,3-7.6-2-.9-4.3-1.2-6.2-2.3-1.2-.6-2.4-1.4-3.6-2.2h0Z"/>
            <path class="cls-17" d="M37.7,153.4c1.1,1.4,1.4,3.2,2.1,4.8,1,3,2.4,5.9,4,8.7,6.1,10.8,14.5,20,23.2,28.8,10.5,10.2,23.2,18.3,37,23,8.8,2.8,18.6,4.6,27.5,1.3,7.1-2.5,15-2.9,22.4-1.4,3.8.7,7.4,2.3,11.2,3,7.1.7,14-2.1,19.8-6,2.5-1.4,4.6-3.3,7-4.7-.4,1.3-1.5,2.1-2.5,2.9-1,1.2-2.2,2.2-3.5,3.2-.4,0-.8,0-1.2,0-1.2,1.4-2.7,2.6-4.3,3.5-.7.4-1.2.9-1.7,1.5l.6.2c-2.8,1.7-5.7,3-8.8,4.2-.6-.3-1.4-.8-2.1-.3-4.9,2.3-10.9,3-15.7.1-.3,0-.9.2-1.2.2-3.6-1.9-7-4.8-11.3-4.7-4.9,0-9,3-13.3,4.9-3.2,1.3-6.5,2.4-10,2.6-5.3.1-10.5-1.4-15.4-3.4-10.2-4.3-19.4-10.5-28.2-17-9.1-6.5-16.8-14.8-22.9-24.2.2-.7.8-1.4.3-2.1-.8-1.1-2-1.9-2.7-3.2-.6-1.1-1.2-2.3-2.5-2.7-3.6-6.6-6.4-13.6-8.5-20.8,0-.8.2-1.6.3-2.5h0Z"/>
            <path class="cls-11" d="M45.8,176.7c1.3.4,1.8,1.6,2.5,2.7.7,1.2,1.9,2.1,2.7,3.2.5.7-.1,1.4-.3,2.1-1.7-2.6-3.3-5.3-4.8-8h0Z"/>
            <path class="cls-16" d="M203.5,198.7c.5-.8,1.1-1.6,1.9-2.2-.1.5-.2.9-.4,1.4-6.9,9.6-15.3,18.4-25.5,24.4l-.6-.2c.4-.6,1-1.2,1.7-1.5,1.6-.9,3-2.1,4.3-3.5.4,0,.8,0,1.2,0,1.3-.9,2.5-2,3.5-3.2,1-.8,2.1-1.7,2.5-2.9,1.4-1.1,2.8-2.2,4-3.5,2.6-2.8,5.4-5.4,7.5-8.6h0Z"/>
          </g>
        </g>
      </g>
      <g id="Layer_1-3" data-name="Layer_1">
        <g class="cls-24">
          <g>
            <path class="cls-6" d="M167.9,167.8h.4v-.4c-.3,0-.5.1-.4.4M94.7,167.4v.4h.4c0-.3-.1-.5-.4-.4M167.9,94.1c0,.3.1.4.4.4v-.4h-.4M94.7,94.1v.4c.3,0,.5-.1.4-.4h-.4M123,28.3c-3.1,2.4-5,6-6.1,9.6-1.6,5.3-2,11-1.9,16.5.4,10.1,3.3,19.8,6.6,29.2-.8.1-1.5.3-2.2.5-.4-1.1-.7-2.3-1.3-3.3.2,1.2.5,2.3.6,3.5-.7.2-1.4.4-2.2.6-.8-4.4-1.7-8.8-2.9-13.1-1.7-6.3-4-12.5-7.5-18.1-2.5-4.2-5.4-8.2-9.1-11.4-2.3-2-4.9-3.6-7.9-4.4-7-1.9-15,2.8-16.9,9.7-1.2,4.3-.4,8.8.9,12.9,2.9,8.6,7.9,16.4,14.1,22.9,3.7,4.1,7.9,7.7,12,11.4-.6.5-1.1,1-1.7,1.6-.7-.6-1.4-1.1-1.9-1.8l-.2.2c.6.6,1.2,1.3,1.8,1.9-.5.5-1.1,1.1-1.6,1.7-3.7-4.2-7.3-8.4-11.5-12.2-6.5-6.1-14.1-11-22.6-13.9-3.7-1.2-7.8-2-11.6-1.3-3.4.6-6.6,2.5-8.6,5.3-2.4,3.1-3.6,7.1-2.8,11,.8,4,3.2,7.5,6,10.3,3.4,3.4,7.3,6.1,11.5,8.5,3.6,2.1,7.4,3.6,11.3,5,6,2,12.2,3.4,18.4,4.5-.2.7-.4,1.4-.6,2.2-1.2-.1-2.3-.4-3.5-.6,1.1.5,2.2.8,3.3,1.3-.2.8-.4,1.5-.5,2.2-9.1-3.2-18.5-6-28.2-6.6-6-.2-12.2.2-18,2-3.9,1.3-7.7,3.5-9.9,7-2.5,3.9-2.7,9.1-.9,13.3,1.5,3.5,4.6,6.1,8.1,7.7,5,2.3,10.6,3,16.1,3.2,11.3.4,22.4-2.9,33-6.6.1.8.3,1.5.5,2.2-1.1.4-2.3.7-3.3,1.2,1.2-.1,2.3-.4,3.5-.6.2.7.4,1.4.6,2.2-9.4,1.7-18.9,4-27.5,8.3-4.7,2.5-9.3,5.5-13.1,9.2-2.9,2.8-5.4,6.2-6.4,10.1-1.8,7,2.9,14.9,9.8,16.7,4.3,1.3,8.9.4,13.1-.9,4.3-1.4,8.4-3.4,12.2-5.8,8.4-5.3,15.4-12.7,21.8-20.2.5.6,1,1.1,1.6,1.7-.6.7-1.1,1.4-1.8,1.9,0,0,.2.2.2.2.6-.6,1.3-1.2,1.9-1.8.5.5,1.1,1.1,1.7,1.6-4.2,3.6-8.4,7.2-12.1,11.4-6.2,6.6-11.2,14.3-14.1,22.9-1.3,4.1-2.1,8.7-.9,12.9,1.8,6.9,9.7,11.6,16.7,9.8,4-1,7.3-3.5,10.1-6.4,3.7-3.9,6.7-8.4,9.2-13.1,4.3-8.6,6.6-18.1,8.3-27.5.7.2,1.4.4,2.2.6-.1,1.2-.4,2.3-.6,3.5.5-1.1.8-2.2,1.3-3.3.8.2,1.5.4,2.2.5-3.8,10.6-7,21.6-6.6,33,.2,5.3.9,10.8,3,15.7,1.4,3.2,3.6,6.2,6.8,7.9,4.2,2.3,9.5,2.3,13.7,0,3.1-1.7,5.3-4.7,6.7-7.9,2.2-4.9,2.8-10.3,3-15.7.4-11.3-2.9-22.4-6.6-33,.8-.1,1.5-.3,2.2-.5.4,1.1.7,2.3,1.2,3.3-.1-1.2-.4-2.3-.6-3.5.7-.2,1.5-.4,2.2-.6.5,2.6,1,5.2,1.6,7.8,1.9,8.3,4.5,16.6,9.1,23.8,2,3.3,4.4,6.6,7.1,9.4,2.8,2.7,6,5.1,9.8,6.1,7,1.8,14.9-2.9,16.7-9.8,1.3-4.5.4-9.2-1.1-13.5-1.8-5.1-4.3-10-7.4-14.4-5.2-7.3-11.7-13.5-18.5-19.3.6-.5,1.2-1,1.7-1.6.7.6,1.4,1.1,1.9,1.8,0-.1.2-.2.2-.2-.7-.6-1.2-1.3-1.8-1.9.5-.5,1.1-1.1,1.6-1.7,7.3,8.5,15.3,16.9,25.3,22.2,3.8,2,7.8,3.8,12.1,4.7,3.6.8,7.5,1,11-.4,6.6-2.5,10.7-10.6,8.3-17.3-1.2-3.6-3.6-6.7-6.4-9.3-3.6-3.4-7.8-6.1-12.2-8.5-8.8-4.5-18.5-6.9-28.2-8.6.2-.7.4-1.4.6-2.2,1.2.2,2.3.4,3.5.6-1.1-.5-2.3-.8-3.3-1.2.2-.8.4-1.5.5-2.2,10.6,3.7,21.6,7,33,6.6,5.4-.2,10.9-.9,15.9-3.1,3-1.4,5.8-3.4,7.5-6.4,2.4-4.1,2.5-9.4.4-13.6-1.6-3.3-4.7-5.7-8.1-7.1-4.9-2.2-10.3-2.8-15.7-3-11.3-.4-22.4,2.9-33,6.6-.1-.8-.3-1.5-.5-2.2,1.1-.4,2.3-.7,3.3-1.2-1.2.1-2.3.4-3.5.6-.2-.7-.4-1.5-.6-2.2,9.6-1.7,19.1-4.1,27.8-8.5,4.6-2.5,9.1-5.4,12.9-9.1,2.8-2.8,5.3-6.1,6.2-10,1.8-7-2.9-14.8-9.8-16.7-4.5-1.3-9.2-.4-13.5,1.1-5.1,1.8-10,4.3-14.4,7.4-7.3,5.2-13.5,11.7-19.3,18.5-.5-.6-1-1.1-1.6-1.7.6-.7,1.1-1.4,1.8-1.9-.1-.1-.2-.2-.2-.2-.6.6-1.3,1.2-1.9,1.8-.5-.5-1.1-1.1-1.7-1.6,6.6-5.7,13-11.7,18.2-18.8,3.2-4.5,5.8-9.5,7.7-14.7,1.5-4.4,2.4-9.2,1.1-13.7-1.8-6.9-9.7-11.6-16.7-9.8-3.8,1-7,3.3-9.7,6-3.3,3.3-5.9,7.1-8.2,11.1-2.2,3.7-3.8,7.6-5.1,11.6-2,6-3.4,12.1-4.5,18.3-.7-.2-1.5-.4-2.2-.6.2-1.2.4-2.3.6-3.5-.5,1.1-.8,2.2-1.3,3.3-.8-.2-1.5-.4-2.2-.5,3.8-10.8,7.1-22.1,6.6-33.7-.3-5.7-1.1-11.6-3.9-16.7-1.7-3.2-4.5-5.9-7.9-7-4.4-1.5-9.6-.9-13.3,2M122.2,25.9c4.1-2.8,9.4-3.4,14.2-2.1,3.7,1,6.9,3.5,8.9,6.7,2.9,4.3,4.1,9.5,4.7,14.6.3,2.8.4,5.7.4,8.5,0,3.7-.5,7.3-1.1,10.9,1.5-3.9,3-7.8,5.2-11.3,2.2-3.8,4.8-7.3,7.8-10.6,3.3-3.3,7.3-6.2,12-7.1,7.7-1.5,16.2,3.4,18.5,10.9,1.4,4.2.9,8.8-.2,13-1.5,5.3-3.9,10.3-6.8,15-1.8,2.9-3.9,5.5-6.1,8.1,3.7-3.1,7.6-6,11.9-8.2,4.8-2.6,9.9-4.7,15.3-5.4,4.4-.6,9.3,0,13,2.7,4.3,3,7,8.1,7.2,13.4,0,3.6-1.2,7.1-3.2,10.1-2.5,3.9-6.1,6.9-9.8,9.6-3.7,2.6-7.5,4.9-11.6,6.6-1.5.7-3.1,1.2-4.6,1.8,2.8-.4,5.6-.9,8.5-1,6.1-.2,12.4.1,18.4,1.8,4.1,1.2,8.1,3.2,10.9,6.6,2.5,2.9,3.7,6.9,3.6,10.7,0,4.2-1.6,8.5-4.7,11.4-3.5,3.4-8.3,5.2-13,6.1-7.8,1.5-15.8,1.4-23.6,0,3.7,1.4,7.3,2.9,10.7,4.9,5.7,3.4,11.4,7.4,15.2,13,2,2.9,3.3,6.4,3.3,10-.1,4.8-2.4,9.5-6,12.6-2.8,2.5-6.5,3.6-10.2,3.8-4.2.2-8.4-.9-12.3-2.4-6.9-2.7-13.3-6.6-18.9-11.4,2.5,2.9,4.9,6,6.8,9.4,2.6,4.4,4.7,9,6,13.9,1.1,4.1,1.4,8.5.2,12.6-2.3,7.4-10.5,12.4-18.1,11.2-3.9-.6-7.4-2.6-10.3-5.1-4.8-4.2-8.4-9.6-11.4-15.2-1.5-2.8-2.6-5.8-3.8-8.7.4,2.8.9,5.7,1,8.5.2,5.8,0,11.7-1.5,17.3-1.1,4.1-2.8,8.1-5.9,11.1-6,5.9-16.8,5.9-22.8,0-3.1-3-4.9-7.1-5.9-11.3-1.4-5.8-1.7-11.7-1.4-17.7.1-2.7.6-5.4,1-8-1.3,3.2-2.5,6.4-4.2,9.4-2.4,4.4-5.3,8.6-8.7,12.3-3.3,3.4-7.5,6.5-12.4,7.3-7.8,1.4-16.2-3.7-18.4-11.3-1.5-4.9-.6-10.2,1-15,2.6-7.6,6.8-14.7,12.2-20.8-3.6,3.1-7.5,6-11.8,8.2-4.9,2.6-10.2,4.8-15.7,5.5-3,.4-6.1.1-8.9-.8-7.8-2.7-12.6-11.9-10.2-19.7,1-3.8,3.4-7.1,6.1-9.9,3.4-3.3,7.3-6.1,11.4-8.6,3.5-2.1,7.3-3.7,11.1-5.1-3.7.5-7.4,1.1-11.2,1.1-5.4,0-10.9-.4-16.1-2-4.2-1.3-8.3-3.5-11-7.1-3.1-4.1-3.8-9.8-2.5-14.7,1.1-3.8,3.7-7.1,7-9.2,4.9-3.1,10.8-4.2,16.4-4.7,4.1-.3,8.2-.3,12.2.2,1.7.2,3.3.5,5,.7-2.7-1.1-5.4-2.1-8-3.4-5-2.6-9.7-5.7-13.8-9.6-3.1-3-5.8-6.7-6.9-10.9-2.2-8.2,3.2-17.7,11.4-19.8,5.3-1.4,10.9-.3,15.9,1.5,7.1,2.7,13.8,6.7,19.5,11.7-5.3-6.1-9.5-13.1-12.1-20.8-1.6-4.8-2.4-10-1-14.9,2.2-7.6,10.7-12.7,18.4-11.3,4.4.7,8.2,3.3,11.4,6.3,3.8,3.8,6.9,8.3,9.6,13,1.7,3,3,6.4,4.3,9.6-.4-3-.9-6-1.1-9.1-.2-6.4.2-12.9,2.2-19,1.4-4.1,3.7-8.1,7.3-10.6"/>
            <path class="cls-7" d="M123,28.3c3.7-2.9,8.9-3.6,13.3-2,3.5,1.2,6.2,3.9,8,7,2.8,5.1,3.6,11,3.9,16.7.5,11.6-2.8,22.9-6.6,33.7-1.6-.3-3.2-.6-4.8-.8,1.1-4.7,1.6-9.6,2-14.5.3-3.2.2-6.5.2-9.7,0-1.1,0-2.3-.5-3.2-.4-.2-.8-.3-1.2-.4.1,4.3.3,8.6,0,12.9-.3,5-1,9.9-2,14.8-2.6-.2-5.1-.2-7.7,0-1.8-8.5-3.3-17.2-3.1-26-.1-5.4.2-10.9,1.3-16.3.3-1.3.8-2.6,1.2-3.8.2-.5.5-1.3-.2-1.6-.4,0-.9,0-1,.4-.8,1.3-1.1,2.9-1.5,4.4-1.2,5.3-1.5,10.9-1.4,16.3-.2,9,1.1,17.9,3.1,26.7-1.5.2-2.9.4-4.3.7-3.3-9.4-6.2-19.2-6.6-29.2-.1-5.5.3-11.2,1.9-16.5,1.2-3.7,3-7.2,6.1-9.6"/>
            <path class="cls-7" d="M72.3,47.8c1.9-7,9.9-11.6,16.9-9.7,2.9.8,5.6,2.4,7.9,4.4,3.7,3.2,6.6,7.2,9.1,11.4,3.4,5.6,5.7,11.8,7.5,18.1,1.2,4.3,2.1,8.7,2.9,13.1-1.5.5-3,1.1-4.5,1.7-1.6-5-3.7-9.8-6-14.5-1.6-3.1-3.3-6.2-5.3-9-.4-.5-1-1.4-1.7-1-.7.4-.1,1.2.2,1.7,1.9,2.7,3.6,5.6,5.1,8.5,2.5,4.8,4.6,9.8,6.2,15-2.3,1.1-4.4,2.4-6.5,3.8-4.8-5.1-9.2-10.6-13-16.4-4-6.4-7.8-12.9-9.9-20.1-.5-1.4-.3-3-1.1-4.2-.6-.1-1.3.3-1.2,1.1.3,3.8,1.9,7.4,3.4,10.9,3.5,7.4,7.8,14.5,12.9,21,2.4,3,4.9,6,7.5,8.8-1.2.9-2.3,1.8-3.3,2.8-4.2-3.6-8.3-7.2-12-11.3-6.2-6.6-11.2-14.3-14.1-22.9-1.3-4.2-2.1-8.7-.9-12.9"/>
            <path class="cls-7" d="M174.1,38c7-1.8,14.8,2.9,16.7,9.8,1.3,4.5.3,9.4-1.1,13.7-1.9,5.2-4.5,10.2-7.7,14.7-5.1,7.1-11.5,13.1-18.2,18.8-1.2-1.1-2.4-2-3.6-3,2.7-3.1,5.1-6.4,7.4-9.8,1.9-2.8,3.7-5.8,5.2-8.8.4-.9,1.1-1.9.9-3-.2-.1-.5-.2-.7-.2-.6-.1-.8.6-1,1-1.6,3.7-3.8,7.1-6,10.4-2.2,3.2-4.6,6.4-7.1,9.4-2.4-1.6-4.9-3-7.5-4.2,1.5-4.4,3.1-8.8,5.1-13.1,2-4.5,4.4-8.8,7-12.9,2.3-3.5,4.6-7,7.5-10,.8-.8,1.8-1.5,2.6-2.3.5-.4.3-1.1.3-1.6-.9.3-1.7.5-2.4,1.1-3,2.6-5.4,5.8-7.6,9.1-5,7.4-9.2,15.5-12.2,23.9-.6,1.7-1.2,3.4-1.8,5.1-1.1-.4-2.2-.9-3.3-1.2,1.1-6.2,2.5-12.3,4.5-18.3,1.4-4,3-8,5.1-11.6,2.3-4,5-7.9,8.2-11.1,2.7-2.7,6-5,9.7-6"/>
            <path class="cls-7" d="M49.8,71.4c3.9-.7,7.9,0,11.6,1.3,8.4,2.9,16.1,7.8,22.6,13.9,4.2,3.7,7.9,8,11.5,12.2-1.1,1.2-2.1,2.5-3,3.8-5.5-4.8-11.4-9.1-17.8-12.7-1.7-1-3.5-1.8-5.3-2.6-.2.4-.8.9-.5,1.4,1.1.9,2.5,1.2,3.7,1.9,6.8,3.7,13,8.3,18.9,13.3-1.4,2.1-2.7,4.3-3.8,6.6-6.6-1.9-12.9-4.4-19.1-7.4-4.2-2.2-8.4-4.6-12.4-7.3-3-2.2-6.2-4.4-8.5-7.4-.4-.6-1.2-1-1.8-1.3,0,.8-.2,1.6.4,2.2,1.8,2.4,4.2,4.3,6.6,6.1,10.2,7.6,21.9,13.1,34,16.7-.6,1.3-1.1,2.7-1.5,4.1-6.2-1.1-12.4-2.5-18.4-4.5-3.9-1.3-7.7-2.9-11.3-5-4.1-2.4-8.1-5.1-11.5-8.5-2.8-2.9-5.2-6.4-6-10.3-.8-3.9.4-7.9,2.8-11,2-2.8,5.2-4.7,8.6-5.3"/>
            <path class="cls-7" d="M201.2,72.8c4.3-1.4,9.1-2.3,13.5-1,6.9,1.8,11.6,9.7,9.8,16.7-1,3.9-3.4,7.2-6.2,10-3.8,3.7-8.3,6.6-12.9,9.1-8.7,4.4-18.3,6.7-27.8,8.5-.5-1.5-1.1-2.9-1.6-4.3,6.5-2.4,12.8-5.3,18.7-8.8,1.3-.9,2.8-1.6,3.8-2.9-.2-.4-.4-.8-.7-1.2-3.2,2.3-6.6,4.4-10.1,6.1-4,2-8.1,3.8-12.3,5.3-1.2-2.6-2.7-5.1-4.4-7.4,6.2-5.5,12.8-10.6,20-14.6,4.6-2.7,9.5-5.1,14.6-6.7,1.4-.4,2.8-.5,4.2-.9.6-.2.3-.8.2-1.3-1.1-.3-2.2,0-3.2.2-3.7.9-7.2,2.4-10.6,4-7.6,3.8-14.9,8.4-21.4,13.9-1.6,1.3-3.1,2.7-4.7,4-.7-.9-1.5-1.8-2.3-2.7,5.8-6.8,12-13.4,19.3-18.5,4.4-3.1,9.3-5.6,14.4-7.4"/>
            <path class="cls-7" d="M94.7,94.1h.4c0,.3-.1.4-.4.4v-.4"/>
            <path class="cls-7" d="M167.9,94.1h.4v.4c-.3,0-.5-.1-.4-.4"/>
            <path class="cls-7" d="M38.1,116.4c5.8-1.9,12-2.2,18-2,9.7.6,19.1,3.4,28.2,6.6-.3,1.6-.6,3.2-.8,4.8-4.6-1.1-9.4-1.6-14.1-1.9-3.2-.3-6.4-.2-9.6-.2-1.2,0-2.3,0-3.4.4-.6.2-.5.9-.8,1.4,4.7-.1,9.5-.3,14.3,0,4.5.3,9,1,13.5,1.9-.2,2.6-.2,5.1,0,7.7-8.5,1.8-17.1,3.2-25.7,3.1-5.8,0-11.7-.2-17.3-1.5-1.4-.3-2.7-1.2-4.2-1.2-.6.5-.3,1.4.4,1.6,2.9,1.3,6.1,1.8,9.2,2.2,3.7.4,7.4.6,11.1.5,9,.2,18-1.1,26.7-3.1.2,1.5.4,2.9.7,4.3-10.6,3.7-21.6,7-33,6.6-5.5-.2-11-.9-16.1-3.2-3.4-1.6-6.6-4.1-8-7.7-1.8-4.2-1.5-9.3.9-13.3,2.2-3.6,6-5.8,9.9-7"/>
            <path class="cls-7" d="M178.8,121c10.6-3.7,21.6-7,33-6.6,5.3.2,10.8.9,15.7,3,3.3,1.5,6.4,3.8,8.1,7.1,2.1,4.2,2,9.5-.4,13.6-1.7,2.9-4.5,5-7.5,6.4-5,2.2-10.5,2.9-15.9,3.1-11.3.4-22.4-2.9-33-6.6.3-1.5.5-3.1.8-4.6,7.6,1.3,15.4,2,23.2,1.6.9-.1,2,0,2.4-1.1-.4-.8-1.3-.6-2-.6-7.8.6-15.6-.2-23.3-1.4.2-2.9.2-5.8-.1-8.7,5.5-1.2,11.1-2,16.8-2.5,4.8-.3,9.7-.3,14.5,0,3.2.2,6.5.6,9.7,1.4,1.6.4,3.1,1.4,4.8.9-.5-.7-1.1-1.5-1.9-1.7-4.5-1.6-9.4-2-14.1-2.3-6.9-.3-13.8-.1-20.6.9-3.1.5-6.2.9-9.3,1.7-.2-1.2-.4-2.4-.6-3.6"/>
            <path class="cls-7" d="M58.1,154.2c8.6-4.3,18-6.6,27.5-8.3.5,1.5,1.1,3.1,1.7,4.5-4.7,1.5-9.3,3.6-13.8,5.7-2.6,1.3-5.2,2.7-7.7,4.3-1.1.7-2.2,1.3-3,2.3-.4.5,0,1.2.6,1.2,1.1-.4,1.9-1.2,2.9-1.9,3.7-2.4,7.7-4.3,11.6-6.2,3.2-1.5,6.5-2.8,9.9-3.8,1.1,2.3,2.4,4.4,3.8,6.5-6.6,6.1-13.7,11.7-21.5,16.1-6.1,3.4-12.4,6.7-19.4,7.6.2.4.3,1,.6,1.3,1.3.2,2.5-.2,3.7-.5,5-1.3,9.6-3.6,14.1-6,8.6-4.6,16.4-10.6,23.6-17.2.9,1.2,1.8,2.3,2.8,3.3-6.5,7.5-13.4,14.9-21.8,20.2-3.9,2.4-8,4.4-12.3,5.8-4.2,1.3-8.8,2.2-13.1.9-6.9-1.8-11.6-9.7-9.8-16.7,1-4,3.5-7.3,6.4-10.1,3.9-3.7,8.4-6.7,13.1-9.2"/>
            <path class="cls-7" d="M176.3,149.3c.4-1.1.9-2.2,1.2-3.3,9.7,1.8,19.4,4.1,28.2,8.6,4.4,2.4,8.6,5.1,12.2,8.5,2.7,2.6,5.2,5.7,6.4,9.3,2.4,6.8-1.7,14.9-8.3,17.3-3.5,1.3-7.4,1.2-11,.4-4.2-1-8.2-2.7-12.1-4.7-10-5.3-18-13.7-25.3-22.2,1.1-1.2,2-2.4,3-3.6,3,2.6,6.3,5,9.6,7.3,3.2,2.2,6.5,4.1,9.9,5.8.8.4,1.6.4,2.5.5-.2-.5-.1-1.2-.6-1.5-1.1-.6-2.3-1.1-3.4-1.7-6-3.3-11.7-7.3-17-11.7,1.6-2.4,3-4.9,4.2-7.5,4.5,1.5,9,3.2,13.3,5.2,4.2,1.9,8.3,4.2,12.3,6.6,3.8,2.4,7.4,4.9,10.6,8,.9.9,1.5,2,2.5,2.8.8.4,1.3-.5.9-1.2-.4-1-1.2-1.8-2-2.6-3.5-3.6-7.7-6.4-12-9-6.9-4.3-14.3-7.7-22-10.3-1-.3-1.9-.7-2.9-1"/>
            <path class="cls-7" d="M99.3,166.9c1.2,1.1,2.5,2.1,3.8,3-3.3,3.7-6.2,7.6-9,11.7-2.2,3.2-4.2,6.6-5.8,10.1-.4.7-.2,1.4,0,2.2.6-.4,1.2-.8,1.5-1.4,2.1-4.7,5-8.9,7.9-13.1,2.1-2.9,4.4-5.7,6.7-8.5,2.1,1.4,4.3,2.7,6.6,3.8-2.6,8.7-6.1,17.2-10.8,25-2.6,4.4-5.5,8.8-8.9,12.6-1,1.1-2.2,1.9-3.2,2.9-.4.3-.4,1,0,1.3.9.2,1.5-.5,2.2-1,2.6-2.2,4.7-4.9,6.7-7.7,4.8-6.9,8.9-14.4,12-22.2,1.3-3.4,2.6-6.8,3.6-10.3,1.3.6,2.7,1.1,4.1,1.5-1.7,9.4-4,18.9-8.3,27.5-2.5,4.7-5.5,9.3-9.2,13.1-2.8,2.9-6.2,5.4-10.1,6.4-7,1.8-14.8-2.9-16.7-9.8-1.2-4.3-.4-8.8.9-12.9,2.9-8.6,7.9-16.4,14.1-22.9,3.7-4.1,7.9-7.8,12.1-11.4"/>
            <path class="cls-7" d="M161.1,169.2c.9-.7,1.8-1.5,2.7-2.3,6.8,5.8,13.4,12,18.5,19.3,3.1,4.4,5.6,9.3,7.4,14.4,1.4,4.3,2.3,9,1.1,13.5-1.8,6.9-9.7,11.6-16.7,9.8-3.8-1-7.1-3.3-9.8-6.1-2.7-2.8-5.1-6-7.1-9.4-4.5-7.2-7.1-15.5-9.1-23.8-.6-2.6-1.1-5.2-1.6-7.8,1.5-.5,2.9-1,4.3-1.6,2.4,6.4,5.2,12.5,8.6,18.3.8,1.3,1.6,2.7,2.6,3.8.4.5,1.4.2,1.4-.4-.2-.5-.5-1-.8-1.5-2.7-3.8-4.8-8-6.8-12.2-1.3-2.9-2.6-5.7-3.6-8.7,2.6-1.2,5-2.7,7.3-4.4,5.5,6.1,10.5,12.7,14.5,19.8,2.6,4.6,5,9.3,6.6,14.4.5,1.6.8,3.3,1,5,.4-.1.9-.2,1.3-.3.3-1.1,0-2.2-.2-3.2-.9-3.9-2.5-7.5-4.3-11.1-3.6-7.1-7.8-13.8-12.8-19.9-1.5-2-3.2-3.8-4.8-5.7"/>
            <path class="cls-7" d="M94.7,167.4c.3,0,.4.1.4.4h-.4v-.4"/>
            <path class="cls-7" d="M167.9,167.8c0-.3,0-.5.4-.4v.4h-.4"/>
            <path class="cls-7" d="M121.6,178.3c1.5.3,3.1.5,4.6.8-.9,5.1-1.5,10.3-1.6,15.5,0,3.3-.2,6.6.4,9.8h1.4c-.2-4.1-.3-8.2,0-12.3.2-4.3.8-8.6,1.5-12.9,2.9.2,5.8.2,8.7-.1,1.6,7.4,2.6,15,2.7,22.6,0,6-.1,12.1-1.5,18-.3,1.5-1.1,2.8-1.3,4.3.2.8,1.1.6,1.4,0,.8-1.3,1.1-2.9,1.5-4.3,1.1-5,1.4-10,1.5-15.1.1-8.6-.8-17.3-2.7-25.7,1.2-.2,2.4-.4,3.6-.6,3.7,10.6,7,21.6,6.6,33-.2,5.3-.9,10.8-3,15.7-1.4,3.2-3.6,6.2-6.7,7.9-4.2,2.3-9.5,2.3-13.7,0-3.1-1.7-5.3-4.7-6.8-7.9-2.2-4.9-2.8-10.3-3-15.7-.4-11.3,2.9-22.4,6.6-33"/>
            <path class="cls-3" d="M125.7,35.6c.2-.4.6-.4,1-.4.6.3.3,1.1.2,1.6-.5,1.3-1,2.5-1.2,3.8-1.1,5.3-1.4,10.8-1.3,16.3-.2,8.7,1.2,17.5,3.1,26-.5,0-1,.1-1.5.1-2-8.7-3.3-17.7-3.1-26.7,0-5.5.2-11,1.4-16.3.4-1.5.7-3.1,1.5-4.4"/>
            <path class="cls-3" d="M171.5,48.2c.7-.6,1.6-.9,2.4-1.1,0,.5.2,1.2-.3,1.6-.8.8-1.8,1.4-2.6,2.3-2.9,3-5.3,6.5-7.5,10-2.6,4.2-5.1,8.4-7,12.9-1.9,4.3-3.6,8.7-5.1,13.1-.5-.2-1-.4-1.5-.6.6-1.7,1.2-3.4,1.8-5.1,3.1-8.4,7.2-16.5,12.2-23.9,2.3-3.2,4.6-6.5,7.6-9.1"/>
            <path class="cls-3" d="M78.8,51.5c-.2-.7.5-1.2,1.2-1.1.8,1.3.6,2.8,1.1,4.2,2.1,7.2,5.9,13.8,9.9,20.1,3.8,5.9,8.2,11.3,13,16.4-.5.3-.9.6-1.4,1-2.6-2.8-5.1-5.8-7.5-8.8-5.1-6.5-9.4-13.6-12.9-21-1.5-3.5-3.1-7.1-3.4-10.9"/>
            <path class="cls-3" d="M137.1,55.1c.4.1.8.2,1.2.4.5,1,.4,2.2.5,3.2,0,3.2.1,6.5-.2,9.7-.4,4.8-.9,9.7-2,14.5-.5,0-1.1-.1-1.6-.1,1-4.8,1.6-9.8,2-14.8.3-4.3.1-8.6,0-12.9"/>
            <path class="cls-3" d="M99,62.2c.8-.4,1.3.5,1.7,1,2,2.8,3.7,5.9,5.3,9,2.3,4.7,4.4,9.5,6,14.5-.5.2-1,.5-1.5.7-1.6-5.2-3.8-10.1-6.2-15-1.5-3-3.1-5.9-5.1-8.5-.3-.5-.9-1.3-.2-1.7"/>
            <path class="cls-3" d="M172,71.3c.3-.4.4-1.1,1-1,.2,0,.5.1.7.2.2,1.1-.4,2-.9,3-1.5,3.1-3.3,6-5.2,8.8-2.4,3.3-4.7,6.7-7.4,9.8-.4-.3-.9-.6-1.3-1,2.5-3,4.8-6.2,7.1-9.4,2.2-3.3,4.4-6.8,6-10.4"/>
            <path class="cls-3" d="M206.5,79.5c1.1-.2,2.2-.5,3.2-.2.1.4.4,1.1-.2,1.3-1.4.4-2.8.5-4.2.9-5.1,1.6-9.9,4-14.6,6.7-7.2,4-13.8,9.1-20,14.6-.3-.4-.6-.9-1-1.3,1.6-1.3,3.1-2.7,4.7-4,6.6-5.5,13.8-10.1,21.4-13.9,3.4-1.6,6.9-3.1,10.6-4"/>
            <path class="cls-3" d="M46.1,86.8c.7.3,1.4.7,1.8,1.3,2.3,3,5.4,5.2,8.5,7.4,4,2.7,8.1,5.1,12.4,7.3,6.1,3,12.5,5.5,19.1,7.5-.2.5-.5,1-.7,1.5-12.2-3.6-23.8-9.1-34-16.7-2.4-1.8-4.8-3.7-6.6-6.1-.5-.6-.4-1.5-.4-2.2"/>
            <path class="cls-3" d="M69.5,87.1c1.8.8,3.6,1.6,5.3,2.6,6.3,3.7,12.3,7.9,17.8,12.7-.3.4-.6.9-.9,1.3-5.9-5-12.1-9.6-18.9-13.3-1.2-.7-2.6-1.1-3.7-1.9-.2-.5.3-1,.5-1.4"/>
            <path class="cls-3" d="M187.4,104.8c3.6-1.7,6.9-3.8,10.1-6.1.2.4.5.8.7,1.2-.9,1.3-2.5,2-3.8,2.9-5.9,3.6-12.2,6.5-18.7,8.8-.2-.5-.5-1-.7-1.5,4.2-1.5,8.3-3.3,12.3-5.3"/>
            <path class="cls-3" d="M188.7,122.9c6.8-1,13.8-1.2,20.6-.9,4.7.3,9.6.7,14.1,2.3.9.2,1.4,1,1.9,1.7-1.7.5-3.2-.5-4.8-.9-3.1-.9-6.4-1.2-9.7-1.4-4.8-.3-9.7-.3-14.5,0-5.6.4-11.2,1.3-16.8,2.5,0-.5-.1-1-.2-1.5,3-.8,6.1-1.2,9.3-1.7"/>
            <path class="cls-3" d="M56.4,124.1c1.1-.4,2.3-.3,3.4-.4,3.2,0,6.4,0,9.6.2,4.7.4,9.5.9,14.1,1.9,0,.5-.1,1-.1,1.5-4.4-.9-8.9-1.5-13.5-1.9-4.7-.4-9.5-.2-14.3,0,.2-.4.1-1.2.8-1.4"/>
            <path class="cls-3" d="M179.7,134.8c7.7,1.2,15.5,2,23.3,1.4.7,0,1.7-.2,2,.6-.3,1-1.5,1-2.3,1.1-7.8.4-15.5-.2-23.2-1.6,0-.5.1-1,.1-1.5"/>
            <path class="cls-3" d="M36.1,135.4c1.5,0,2.8.9,4.2,1.2,5.7,1.4,11.5,1.6,17.4,1.5,8.7.2,17.3-1.3,25.7-3.1,0,.5.1,1,.1,1.5-8.7,2-17.7,3.3-26.7,3.1-3.7,0-7.4-.1-11.1-.5-3.1-.4-6.3-.9-9.2-2.2-.7-.2-1-1.1-.4-1.6"/>
            <path class="cls-3" d="M175.6,150.8c.2-.5.4-1,.6-1.5,1,.3,1.9.7,2.9,1,7.7,2.6,15.1,6.1,22,10.3,4.3,2.6,8.4,5.5,12,9,.8.8,1.5,1.5,2,2.6.3.6-.2,1.6-.9,1.2-1-.8-1.6-1.9-2.5-2.8-3.2-3.1-6.8-5.6-10.6-8-4-2.5-8-4.7-12.3-6.6-4.3-2-8.8-3.6-13.3-5.2"/>
            <path class="cls-3" d="M73.5,156.2c4.5-2.1,9.1-4.2,13.8-5.7.2.5.5,1,.7,1.5-3.4,1-6.7,2.4-9.9,3.8-4,1.8-8,3.8-11.6,6.2-1,.6-1.8,1.4-2.9,1.9-.6,0-1.1-.7-.6-1.2.8-1,1.9-1.6,3-2.3,2.5-1.6,5.1-3,7.7-4.3"/>
            <path class="cls-3" d="M171.4,158.3c5.3,4.4,10.9,8.4,17,11.7,1.1.6,2.3,1,3.4,1.7.5.3.4,1,.6,1.5-.8,0-1.7-.1-2.5-.5-3.4-1.7-6.7-3.7-9.9-5.8-3.3-2.3-6.6-4.6-9.6-7.3.3-.4.6-.9,1-1.3"/>
            <path class="cls-3" d="M91.9,158.5c.3.4.6.9,1,1.4-7.1,6.6-15,12.6-23.6,17.2-4.5,2.5-9.1,4.7-14.1,6-1.2.3-2.5.6-3.7.5-.3-.4-.4-.9-.6-1.3,7-.9,13.4-4.2,19.4-7.6,7.9-4.4,15-10,21.5-16.1"/>
            <path class="cls-3" d="M159.8,170.2c.4-.3.9-.6,1.3-1,1.6,1.9,3.3,3.8,4.8,5.7,5,6.1,9.2,12.8,12.8,19.9,1.8,3.6,3.3,7.2,4.3,11.1.2,1,.5,2.1.2,3.2-.4.1-.9.2-1.3.3-.3-1.7-.5-3.4-1-5-1.6-5-4-9.8-6.6-14.4-4-7.2-9.1-13.7-14.5-19.8"/>
            <path class="cls-3" d="M103,170c.4.3.9.6,1.3.9-2.3,2.8-4.6,5.5-6.7,8.5-2.9,4.2-5.8,8.4-7.9,13.1-.3.7-.9,1-1.5,1.4-.2-.7-.4-1.5,0-2.2,1.6-3.6,3.7-6.9,5.8-10.1,2.7-4.1,5.7-8,9-11.7"/>
            <path class="cls-3" d="M150.9,175.2c.5-.2,1-.5,1.5-.7,1,3,2.3,5.9,3.6,8.7,1.9,4.2,4,8.4,6.8,12.1.3.4.6.9.8,1.5,0,.7-1,1-1.4.4-1.1-1.1-1.8-2.5-2.6-3.8-3.5-5.8-6.3-12-8.6-18.3"/>
            <path class="cls-3" d="M110.9,174.7c.5.2,1,.5,1.5.7-1,3.5-2.3,6.9-3.6,10.3-3.1,7.9-7.2,15.3-12,22.3-2,2.7-4.1,5.5-6.7,7.7-.6.5-1.3,1.1-2.2,1-.5-.3-.4-1,0-1.3,1.1-1,2.3-1.8,3.2-2.9,3.5-3.8,6.3-8.2,8.9-12.6,4.7-7.8,8.2-16.3,10.8-25"/>
            <path class="cls-3" d="M126.2,179c.5,0,1,.1,1.5.1-.6,4.3-1.2,8.6-1.5,12.9-.3,4.1-.1,8.2,0,12.3h-1.4c-.5-3.2-.4-6.6-.4-9.8.2-5.2.8-10.4,1.6-15.5"/>
            <path class="cls-3" d="M136.4,179c.5,0,1-.1,1.5-.2,2,8.4,2.9,17.1,2.7,25.7,0,5.1-.4,10.1-1.5,15.1-.4,1.5-.7,3-1.5,4.3-.3.6-1.2.8-1.4,0,.2-1.5,1-2.9,1.3-4.3,1.4-5.9,1.6-12,1.5-18,0-7.6-1.1-15.2-2.7-22.6"/>
            <path class="cls-21" d="M130.8,93c-10.2.1-20.3,4.6-27.2,12.2-5.6,6.2-9.3,14.2-9.9,22.6-.8,8.8,1.6,17.8,6.7,25,5.4,7.8,13.8,13.3,23,15.3,9.2,2,19,.5,27.1-4.2,8.9-5.1,15.5-13.9,17.8-23.9,1.1-4.3,1.2-8.8.8-13.2-1-9.2-5.5-17.9-12.4-24-7-6.4-16.6-9.9-26.1-9.7M127.4,82.8c2.6-.2,5.1-.2,7.7,0,.5,0,1,0,1.6.1,1.6.2,3.2.4,4.8.8.8.1,1.5.3,2.2.5.2,0,.4.1.6.2.7.2,1.5.4,2.2.6,1.1.4,2.2.8,3.3,1.2.5.2,1,.4,1.5.6,2.6,1.2,5.1,2.6,7.5,4.2.4.3.9.6,1.3,1,1.3.9,2.5,1.9,3.6,3,.6.5,1.2,1,1.7,1.6l.4.4c.5.5,1.1,1.1,1.6,1.7.8.9,1.5,1.8,2.3,2.7.3.4.7.9,1,1.3,1.7,2.3,3.1,4.8,4.4,7.4.2.5.5,1,.7,1.5.6,1.4,1.2,2.9,1.6,4.3.2.7.4,1.4.6,2.2,0,.2.1.4.2.6.2.8.4,1.5.5,2.2.2,1.2.4,2.4.6,3.6,0,.5.1,1,.2,1.5.3,2.9.3,5.8,0,8.7,0,.5,0,1-.1,1.5-.2,1.5-.4,3.1-.8,4.6-.1.8-.3,1.5-.5,2.2,0,.2-.1.4-.2.6-.2.7-.4,1.5-.6,2.2-.4,1.1-.8,2.2-1.2,3.3-.2.5-.4,1-.6,1.5-1.2,2.6-2.6,5.1-4.2,7.5-.3.4-.6.9-1,1.3-.9,1.3-1.9,2.5-3,3.6-.5.6-1,1.2-1.6,1.7-.1.1-.3.3-.4.4-.5.5-1.1,1.1-1.7,1.6-.9.8-1.8,1.5-2.7,2.3-.4.3-.9.7-1.3,1-2.3,1.7-4.8,3.1-7.3,4.4-.5.2-1,.5-1.5.7-1.4.6-2.9,1.2-4.3,1.6-.7.2-1.4.4-2.2.6-.2,0-.4.1-.6.2-.8.2-1.5.4-2.2.5-1.2.2-2.4.4-3.6.6-.5,0-1,.1-1.5.2-2.9.3-5.8.3-8.7.1-.5,0-1-.1-1.5-.1-1.5-.2-3.1-.4-4.6-.8-.8-.1-1.5-.3-2.2-.5-.2,0-.4-.1-.6-.2-.7-.2-1.4-.4-2.2-.6-1.4-.4-2.8-1-4.1-1.5-.5-.2-1-.4-1.5-.7-2.3-1.1-4.5-2.4-6.6-3.8-.4-.3-.9-.6-1.3-.9-1.3-1-2.6-1.9-3.8-3-.6-.5-1.1-1-1.7-1.6-.1-.1-.3-.3-.4-.4-.5-.5-1.1-1.1-1.6-1.7-1-1.1-1.9-2.2-2.8-3.3-.3-.4-.6-.9-1-1.4-1.4-2.1-2.7-4.2-3.8-6.5-.2-.5-.5-1-.7-1.5-.6-1.5-1.2-3-1.7-4.5-.2-.7-.4-1.4-.6-2.2,0-.2-.1-.4-.2-.6-.2-.8-.4-1.5-.5-2.2-.3-1.4-.5-2.9-.7-4.3,0-.5-.1-1-.1-1.5-.2-2.6-.3-5.1,0-7.7,0-.5,0-1,.1-1.5.2-1.6.4-3.2.8-4.8.1-.8.3-1.5.5-2.2,0-.2.1-.4.2-.6.2-.7.4-1.4.6-2.2.4-1.4,1-2.8,1.5-4.1.2-.5.4-1,.7-1.5,1.1-2.3,2.4-4.5,3.8-6.6.3-.4.6-.9.9-1.3,1-1.3,1.9-2.6,3-3.8.5-.6,1-1.1,1.6-1.7l.4-.4c.5-.5,1.1-1.1,1.7-1.6,1.1-1,2.2-1.9,3.3-2.8.4-.3.9-.7,1.4-1,2.1-1.4,4.2-2.7,6.5-3.8.5-.2,1-.5,1.5-.7,1.5-.6,3-1.2,4.5-1.7.7-.2,1.4-.4,2.2-.6.2,0,.4-.1.6-.2.8-.2,1.5-.4,2.2-.5,1.4-.3,2.9-.5,4.3-.7.5,0,1-.1,1.5-.1"/>
            <path class="cls-13" d="M130.8,93c9.5-.2,19,3.2,26.1,9.7,6.9,6.1,11.3,14.9,12.3,24,.4,4.4.3,8.9-.8,13.2-2.3,10-8.9,18.8-17.8,23.9-8.1,4.7-18,6.2-27.1,4.2-9.2-1.9-17.7-7.5-23-15.3-5.1-7.2-7.5-16.2-6.7-25,.6-8.4,4.2-16.4,9.9-22.6,6.9-7.5,16.9-12,27.2-12.2"/>
          </g>
        </g>
      </g>
    </g>
  </g>
</svg>