<?xml version="1.0" encoding="UTF-8"?>
<svg xmlns="http://www.w3.org/2000/svg" version="1.1" xmlns:xlink="http://www.w3.org/1999/xlink" viewBox="0 0 141.73 141.73">
  <defs>
    <style>
      .cls-1 {
        fill: #cb2b28;
      }

      .cls-2 {
        fill: #f78d31;
      }

      .cls-3 {
        fill: #bb6066;
      }

      .cls-4 {
        fill: #b22626;
      }

      .cls-5 {
        fill: #dd8483;
      }

      .cls-6 {
        fill: #d98684;
      }

      .cls-7 {
        fill: #db8789;
      }

      .cls-8 {
        fill: #d87a78;
      }

      .cls-9 {
        fill: none;
      }

      .cls-10 {
        fill: #d79493;
      }

      .cls-11 {
        fill: #eca1a5;
      }

      .cls-12 {
        fill: #dd9595;
      }

      .cls-13 {
        fill: #d38280;
      }

      .cls-14 {
        fill: #df8e88;
      }

      .cls-15 {
        fill: #d99194;
      }

      .cls-16 {
        fill: #ba2727;
      }

      .cls-17 {
        fill: #d18b89;
      }

      .cls-18 {
        fill: #e58b8b;
      }

      .cls-19 {
        fill: #da9896;
      }

      .cls-20 {
        fill: #e18d8e;
      }

      .cls-21 {
        fill: #faab4f;
      }

      .cls-22 {
        fill: #d53a39;
      }

      .cls-23 {
        fill: #e4999a;
      }

      .cls-24 {
        fill: #d38c89;
      }

      .cls-25 {
        fill: #d03130;
      }

      .cls-26 {
        fill: #e8bbb6;
      }

      .cls-27 {
        clip-path: url(#clippath);
      }

      .cls-28 {
        fill: #e69793;
      }
    </style>
    <clipPath id="clippath">
      <rect class="cls-9" x="36.34" y="49.89" width="68.97" height="42.52"/>
    </clipPath>
  </defs>
  <!-- Generator: Adobe Illustrator 28.7.0, SVG Export Plug-In . SVG Version: 1.2.0 Build 136)  -->
  <g>
    <g id="Layer_1">
      <g class="cls-27">
        <path class="cls-3" d="M78.76,50.38c.28-.44,3.27-.84,3.76.05-1.27-.02-2.51-.05-3.76-.05"/>
        <path class="cls-1" d="M77.08,51.47c.4-.54.93-1.14,1.68-1.09,1.26,0,2.5.02,3.76.05-.28.79-.96,1.24-1.76,1.41,5.79,2.97,8.92,9.67,9.65,15.93.75,4.25,1.03,8.56.88,12.88-.33.08-.65.17-.97.27-.47.1-.95.16-1.42.18-.6-.09-.98.42-1.18.91-1.47,1.78-3.44,3.19-5.44,4.33-.61.13-1.19.4-1.59.89-.4.09-.72.34-.96.66-2.41,1.69-5.18,2.81-7.97,3.71-.43-.03-.87,0-1.24.22l-.28.1c-1.57.02-3.12.04-4.68.03-1.98-.29-3.88-1.18-5.64-2.09-.3-.22-.61-.43-.92-.63-.51-.66-2.59-.89-2.08-1.65,7.66-1.43,14.73-5.2,21.07-9.64.6-.92-.65-1.23-1.33-1.36-7.08-1.4-14.41-2.51-21.6-1.42-.03-2.44-.04-4.88-.04-7.31.18-2.44,1.03-4.76,2.03-6.97,1.82.5-.03,2.52.12,3.73.33,1.53-1.28,2.82-.54,4.29.51,1.24-.43,2.9.83,3.79.91.89,2.24.87,3.44.75.88-1.53.26-3.51.66-5.22.46,0,.93,0,1.4,0-.03,1.6-.75,3.85.41,5.2,1.94-.02,3.87.08,5.79.39.22-4.61.87-9.28,2.6-13.59,1-3.27,3.92-5.4,5.69-8.22-3.18,1.36-6.37,2.71-9.57,4.02,1-1.22,2.12-2.33,3.31-3.35.73-.52,1.82-.55,2.71-.63.43.06.88.02,1.27-.19.18-.04.53-.11.71-.14.4,0,.97.17,1.24-.23"/>
        <path class="cls-16" d="M82.52,50.43c3.15,1.94,7.3,2.38,10.51,4.49,4.05,2.52,9.13,5.04,10.47,10.04.02.47.28.87.53,1.26.03.17.09.52.12.7-.06.43-.06.9.2,1.27.44.7.52,1.51.48,2.31-.03,1.87-.02,3.74-.01,5.62-1.02,2.43-4.98,3.01-7.32,3.61-.43-.06-.89-.06-1.26.2-.62.36-1.31.59-2.03.47-.44-.07-.88-.03-1.26.19-.27.05-.8.14-1.07.19-.15-.03-.44-.1-.58-.14.15-4.32-.13-8.63-.88-12.88-.74-6.26-3.87-12.96-9.65-15.93.79-.17,1.47-.62,1.76-1.41"/>
        <path class="cls-24" d="M75.85,51.71c-.01-.55.93-.53,1.24-.23-.27.41-.84.24-1.24.23"/>
        <path class="cls-18" d="M73.87,52.04c-.05-.61.98-.55,1.27-.19-.39.21-.84.25-1.27.19"/>
        <path class="cls-25" d="M67.85,56.02c3.2-1.31,6.39-2.65,9.57-4.02-1.77,2.82-4.69,4.95-5.69,8.22-1.72,4.3-2.38,8.98-2.6,13.59-1.91-.31-3.85-.4-5.78-.39-1.16-1.35-.44-3.59-.41-5.2,1.45-.17,4.68-.16,4.6-2.3-.1-.84-.84-1.26-1.61-1.37-2.86-.34-6.81-1.14-8.68,1.67.61,1.03,1.88,1.4,2.95,1.76.43.11.88.18,1.34.24-.4,1.71.21,3.69-.66,5.22-1.2.12-2.53.14-3.44-.75-1.26-.89-.32-2.55-.83-3.79-.74-1.47.87-2.76.54-4.29-.15-1.21,1.7-3.23-.12-3.73,2.53-5.26,9.06-6.73,14.12-8.23-1.19,1.03-2.32,2.13-3.31,3.35"/>
        <path class="cls-21" d="M57.25,66.23c1.87-2.81,5.82-2.01,8.68-1.67.78,2.92-3.8,2.85-5.73,3.43-1.08-.35-2.35-.72-2.95-1.76"/>
        <path class="cls-2" d="M65.93,64.55c.77.11,1.51.53,1.61,1.37.08,2.13-3.15,2.13-4.6,2.3-.47,0-.94,0-1.4,0-.45-.06-.9-.13-1.34-.24,1.93-.57,6.51-.5,5.73-3.43"/>
        <path class="cls-11" d="M103.51,64.96c.64-.21.96.87.53,1.26-.25-.39-.51-.79-.53-1.26"/>
        <path class="cls-17" d="M104.16,66.92c.59-.03.53.98.2,1.27-.26-.38-.26-.84-.2-1.27"/>
        <path class="cls-8" d="M54.02,75.45c1.75-2.01-.28-5.84.99-7.59,0,2.44,0,4.88.04,7.31-.35.09-.69.18-1.03.27"/>
        <path class="cls-10" d="M104.83,70.51c.33.94.89,4.67-.01,5.62,0-1.87-.02-3.75.01-5.62"/>
        <path class="cls-22" d="M55.05,75.17c7.2-1.09,14.52.02,21.6,1.42.68.13,1.93.43,1.33,1.36-6.34,4.44-13.41,8.21-21.07,9.64-.5.76,1.57.99,2.09,1.65-.14.02-.41.05-.55.07-1.92-.59-3.7-1.56-5.63-2.14-4.75-2.73-11.29-5.39-16-1.19.05-.54.43-.94.87-1.22.5-.16.93-.5,1.11-1.01,4.52-3.49,9.87-6.21,15.22-8.31.34-.09.68-.18,1.03-.27"/>
        <path class="cls-7" d="M96.25,79.94c.37-.26.83-.25,1.26-.2.04.59-.98.54-1.26.2"/>
        <path class="cls-12" d="M92.95,80.59c.38-.21.83-.26,1.26-.18.04.6-.99.54-1.26.18"/>
        <path class="cls-19" d="M90.33,80.92c.32-.1.64-.19.97-.27.15.03.44.1.58.13-.07.61-1.18.43-1.55.14"/>
        <path class="cls-5" d="M87.73,82c.2-.48.58-.99,1.18-.91.1.52-.68,1.15-1.18.91"/>
        <path class="cls-14" d="M37.69,84.76c-.25-.56.57-1.31,1.11-1.01-.19.51-.61.84-1.11,1.01"/>
        <path class="cls-4" d="M36.82,85.98c4.71-4.2,11.25-1.54,16,1.19-2.32.93-4.93,1.41-7.43,1.79-.47.05-1.41.16-1.89.22-1.44.08-2.88.13-4.32.15-1.73-.06-3.79-1.56-2.36-3.34"/>
        <path class="cls-6" d="M80.69,87.23c.4-.49.98-.76,1.59-.89.09.71-1.02,1.14-1.59.89"/>
        <path class="cls-15" d="M79.73,87.88c.25-.31.56-.56.96-.66.25.51-.57,1.06-.96.66"/>
        <path class="cls-20" d="M43.5,89.17c.47-.05,1.41-.16,1.89-.21-.08.77-1.43.63-1.89.21"/>
        <path class="cls-26" d="M39.18,89.32c1.44-.02,2.88-.07,4.32-.15-.48.65-3.69.93-4.32.15"/>
        <path class="cls-28" d="M58.45,89.3c.14-.02.41-.05.55-.07.31.2.62.41.92.63-.45.3-1.54.04-1.47-.56"/>
        <path class="cls-23" d="M70.52,91.81c.38-.22.81-.26,1.24-.22.08.61-.97.59-1.24.22"/>
        <path class="cls-13" d="M65.56,91.95c1.56,0,3.11,0,4.68-.03-.81.5-3.84.79-4.68.03"/>
      </g>
    </g>
  </g>
</svg>