<?xml version="1.0" encoding="UTF-8"?>
<svg xmlns="http://www.w3.org/2000/svg" version="1.1" viewBox="0 0 292.87 460.45">
  <defs>
    <style>
      .cls-1, .cls-2 {
        fill: #fff;
      }

      .cls-2, .cls-3, .cls-4, .cls-5 {
        fill-rule: evenodd;
      }

      .cls-3 {
        fill: #fffffd;
      }

      .cls-6 {
        opacity: .2;
      }

      .cls-7 {
        fill: none;
        stroke: #939598;
        stroke-miterlimit: 10;
        stroke-width: 2.83px;
      }

      .cls-4 {
        fill: #1d2e2f;
      }

      .cls-5 {
        fill: #ef4623;
      }

      .cls-8 {
        fill: #010101;
      }
    </style>
  </defs>
  <!-- Generator: Adobe Illustrator 28.7.0, SVG Export Plug-In . SVG Version: 1.2.0 Build 136)  -->
  <g>
    <g id="Layer_1">
      <g>
        <g id="shape" class="cls-6">
          <ellipse class="cls-8" cx="135.64" cy="386.22" rx="71" ry="22"/>
        </g>
        <g id="shape-2" data-name="shape">
          <path class="cls-4" d="M89.27,380.61c-4.54,2.23-.16,12.06,12.5,13.55,12.66,1.49,15.31-10.28,15.31-10.28,0,0-4.13-.7-14.43-1.91-10.3-1.21-8.84-3.59-13.38-1.36ZM179.34,379.51c-2.45-6.35-.56-1.5-10.7.71-10.14,2.21-16.66,5.26-16.66,5.26,0,0,3.78,11.46,16.24,8.74,12.46-2.72,12.94-9.99,11.12-14.71Z"/>
        </g>
        <g id="shape-3" data-name="shape">
          <path class="cls-4" d="M204.48,241.15c-8.94-20.8-24.45-51.78-37.06-45.02-12.61,6.76,13.19,49.24,10.94,67.14-2.26,17.9,27.84,58.9,34.87,34.47,3.18-11.05.19-35.8-8.74-56.6ZM101.87,196.13c-12.61-6.76-28.12,24.22-37.06,45.02-8.94,20.8-11.92,45.55-8.74,56.6,7.02,24.42,37.12-16.57,34.87-34.47-2.26-17.9,23.55-60.38,10.94-67.14Z"/>
        </g>
        <g id="shape-4" data-name="shape">
          <path class="cls-3" d="M154.94,223.42c-11.43-61.04-17.72-96.33-7.94-103.16,5.58-3.9-3.81-12.04-12.35-12.04s-15.34,9.11-10,13.06c10,7.41,4.05,41.57-9.92,102.14-2.08,9.04,8.08,16.8,20.1,16.8s21.81-7.68,20.1-16.8Z"/>
          <path class="cls-7" d="M154.94,223.42c-11.43-61.04-17.72-96.33-7.94-103.16,5.58-3.9-3.81-12.04-12.35-12.04s-15.34,9.11-10,13.06c10,7.41,4.05,41.57-9.92,102.14-2.08,9.04,8.08,16.8,20.1,16.8s21.81-7.68,20.1-16.8Z"/>
        </g>
        <g id="shape-5" data-name="shape">
          <path class="cls-3" d="M167.48,208.35c-9.99-6.53-21.03-10.38-32.83-10.39,0,0,0,0-.01,0h0s0,0-.01,0c-11.79,0-22.84,3.85-32.83,10.39-34.17,22.29-55.96,76.18-51.44,118.28.65,7.48,2.04,14.67,4.28,21.33,9.52,28.3,44.75,41.29,80,40.43,35.25.86,70.48-12.13,80-40.43,2.24-6.66,3.63-13.85,4.28-21.33,4.52-42.1-17.27-95.99-51.44-118.28Z"/>
          <path class="cls-7" d="M167.48,208.35c-9.99-6.53-21.03-10.38-32.83-10.39,0,0,0,0-.01,0h0s0,0-.01,0c-11.79,0-22.84,3.85-32.83,10.39-34.17,22.29-55.96,76.18-51.44,118.28.65,7.48,2.04,14.67,4.28,21.33,9.52,28.3,44.75,41.29,80,40.43,35.25.86,70.48-12.13,80-40.43,2.24-6.66,3.63-13.85,4.28-21.33,4.52-42.1-17.27-95.99-51.44-118.28Z"/>
        </g>
        <g id="shape-6" data-name="shape">
          <path class="cls-3" d="M150.92,46.67c-4.95-2.8-10.42-4.45-16.27-4.45,0,0,0,0,0,0,0,0,0,0,0,0-5.84,0-11.32,1.65-16.27,4.45-16.93,9.55-27.73,32.66-25.49,50.7.32,3.21,1.01,6.29,2.12,9.14,4.72,12.13,22.17,29.7,39.64,29.33,17.47.37,34.92-17.2,39.64-29.33,1.11-2.86,1.8-5.94,2.12-9.14,2.24-18.05-8.56-41.15-25.49-50.7Z"/>
          <path class="cls-7" d="M150.92,46.67c-4.95-2.8-10.42-4.45-16.27-4.45,0,0,0,0,0,0,0,0,0,0,0,0-5.84,0-11.32,1.65-16.27,4.45-16.93,9.55-27.73,32.66-25.49,50.7.32,3.21,1.01,6.29,2.12,9.14,4.72,12.13,22.17,29.7,39.64,29.33,17.47.37,34.92-17.2,39.64-29.33,1.11-2.86,1.8-5.94,2.12-9.14,2.24-18.05-8.56-41.15-25.49-50.7Z"/>
        </g>
        <g id="shape-7" data-name="shape">
          <path class="cls-2" d="M142.64,56.22c-3.43,0-6.57,1.24-9,3.28-2.43-2.05-5.57-3.28-9-3.28-7.73,0-14,6.27-14,14s6.27,14,14,14c3.43,0,6.57-1.24,9-3.28,2.43,2.05,5.57,3.28,9,3.28,7.73,0,14-6.27,14-14s-6.27-14-14-14Z"/>
        </g>
        <g id="shape-8" data-name="shape">
          <path class="cls-4" d="M114.64,68.22c-3.31,0-6,3.13-6,7s2.69,7,6,7,6-3.13,6-7-2.69-7-6-7ZM152.82,68.22c-3.22,0-5.82,3.13-5.82,7s2.61,7,5.82,7,5.82-3.13,5.82-7-2.61-7-5.82-7Z"/>
        </g>
        <g id="shape-9" data-name="shape">
          <path class="cls-5" d="M134.64,95.19c-12.8,0-18,9.72-18,18.81s15.43,81.19,18,81.19,18-72.11,18-81.19-5.2-18.81-18-18.81Z"/>
        </g>
        <path class="cls-1" d="M123.01,204.52c2.76,2.96,6.24,6.06,10.63,4.86,2.79-.77,4.57-4.21,7.66-3.51,7.52,1.69,10.73-9.87,3.19-11.57-2.93-.66-5.84-.72-8.73.17-2.66.82-4.46,2.86-6.75,3.95l3.03-.82c1.73.8,2,.75.82-.16-.47-.45-.93-.92-1.36-1.4-5.28-5.66-13.75,2.84-8.49,8.49h0Z"/>
      </g>
    </g>
  </g>
</svg>