<?xml version="1.0" encoding="UTF-8"?>
<svg xmlns="http://www.w3.org/2000/svg" version="1.1" viewBox="0 0 213.56 189.79">
  <defs>
    <style>
      .cls-1 {
        fill: #1a1f14;
      }

      .cls-2 {
        fill: #191919;
      }

      .cls-3 {
        fill: #a2cb42;
      }

      .cls-4 {
        fill: #a9c660;
      }
    </style>
  </defs>
  <!-- Generator: Adobe Illustrator 28.7.0, SVG Export Plug-In . SVG Version: 1.2.0 Build 136)  -->
  <g>
    <g id="Layer_1">
      <g>
        <path class="cls-2" d="M104.79,52.44c1.36.57,2.69,1.2,4.03,1.84-6.37,10.7-12.5,21.54-18.73,32.31,2.62.57,5.26,1.08,7.92,1.56-.98.76-1.96,1.51-2.92,2.27,14.87,11.46,24.6,29.1,26.71,47.73,1.02-.48,2.05-.95,3.09-1.41-.96,2.88-1.99,5.73-3.03,8.58,13.15.02,26.29.02,39.44-.02.02,1.35.05,2.69.1,4.05-30.76.13-61.52.01-92.28.05-6.51-.1-13.02.23-19.52-.19,2.15-.45,4.32-.82,6.53-.87,14,0,28.01.08,42.01.01,1.99.36,2.63-1.77,3.68-2.97,5.99-.18,11.98.07,17.96-.19-1.3-2.56-2.58-5.13-3.94-7.65.96.17,2.87.52,3.83.7-1.3-8.24-3.44-16.42-7.43-23.79-4.35-8.71-11.01-16.03-18.42-22.23-.27,1.16-.53,2.32-.78,3.49-1.53-2.17-3.02-4.35-4.54-6.52-3.2,5.78-6.6,11.45-9.85,17.21l-.34.58c-1.09-.92-2.18-1.83-3.25-2.75,9.83-17.31,20.03-34.41,29.73-51.79Z"/>
        <path class="cls-3" d="M78.65,106.4c12.76,8.17,21.43,22.54,22.25,37.73-11.79-.24-23.62.54-35.4-.11-2-.1-5.53-1.33-3.79-3.85,3.83-4.07,4.35-9.94,7.75-14.32,2.91-5.81,6.94-10.88,10.34-16.38,1.9,1.26,3.84,2.48,5.85,3.58-1.63-2.89-4.37-4.78-7-6.65Z"/>
        <path class="cls-1" d="M75.06,104.23c1.07.92,2.16,1.83,3.25,2.75-7.37,12.71-14.62,25.51-22.1,38.16,15.2.41,30.41-.06,45.61.24-1.05,1.2-1.69,3.33-3.68,2.97-14,.07-28.01-.02-42.01-.01-2.21.05-4.38.42-6.53.87l-.6.12c8.64-15.06,17.35-30.08,26.06-45.1Z"/>
        <path class="cls-4" d="M78.31,106.98l.34-.58c2.63,1.87,5.37,3.76,7,6.65-2.01-1.1-3.95-2.32-5.85-3.58-3.4,5.5-7.43,10.57-10.34,16.38-3.4,4.38-3.92,10.25-7.75,14.32-1.74,2.52,1.79,3.75,3.79,3.85,11.78.65,23.61-.13,35.4.11.23.31.69.94.92,1.25-15.2-.3-30.41.17-45.61-.24,7.48-12.65,14.73-25.45,22.1-38.16Z"/>
      </g>
    </g>
  </g>
</svg>