<?xml version="1.0" encoding="UTF-8"?>
<svg xmlns="http://www.w3.org/2000/svg" version="1.1" xmlns:xlink="http://www.w3.org/1999/xlink" viewBox="0 0 141.73 141.73">
  <defs>
    <style>
      .cls-1 {
        fill: #ccc186;
      }

      .cls-2 {
        fill: #f0e6b5;
      }

      .cls-3 {
        fill: #8c717d;
      }

      .cls-4 {
        fill: #bd8069;
      }

      .cls-5 {
        fill: #db6627;
      }

      .cls-6 {
        fill: #d67a2d;
      }

      .cls-7 {
        fill: #c48c5e;
      }

      .cls-8 {
        fill: #f3d482;
      }

      .cls-9 {
        fill: #eda650;
      }

      .cls-10 {
        fill: #e3ba8e;
      }

      .cls-11 {
        fill: #f2d893;
      }

      .cls-12 {
        fill: #c3e0cc;
      }

      .cls-13 {
        fill: #cc9455;
      }

      .cls-14 {
        fill: #dca671;
      }

      .cls-15 {
        fill: #b98e6b;
      }

      .cls-16 {
        fill: #d9a45a;
      }

      .cls-17 {
        fill: #d6a45f;
      }

      .cls-18 {
        fill: #aedfe1;
      }

      .cls-19 {
        fill: #addfe4;
      }

      .cls-20 {
        fill: #f7d17d;
      }

      .cls-21 {
        fill: none;
      }

      .cls-22 {
        fill: #b37a3c;
      }

      .cls-23 {
        fill: #ad8a54;
      }

      .cls-24 {
        fill: #de945b;
      }

      .cls-25 {
        fill: #f5d47f;
      }

      .cls-26 {
        fill: #d3cc99;
      }

      .cls-27 {
        fill: #dbd9b0;
      }

      .cls-28 {
        fill: #a97644;
      }

      .cls-29 {
        fill: #d99e52;
      }

      .cls-30 {
        fill: #d7d4a6;
      }

      .cls-31 {
        fill: #d1c799;
      }

      .cls-32 {
        fill: #b59e82;
      }

      .cls-33 {
        fill: #693433;
      }

      .cls-34 {
        fill: #d69e55;
      }

      .cls-35 {
        fill: #deab6e;
      }

      .cls-36 {
        fill: #cc843b;
      }

      .cls-37 {
        fill: #d1ebe0;
      }

      .cls-38 {
        fill: #acd3e5;
      }

      .cls-39 {
        fill: #a68754;
      }

      .cls-40 {
        fill: #dbd9b5;
      }

      .cls-41 {
        fill: #f5e0a3;
      }

      .cls-42 {
        fill: #a88c59;
      }

      .cls-43 {
        fill: #f5d98c;
      }

      .cls-44 {
        fill: #d87a2d;
      }

      .cls-45 {
        fill: #885f71;
      }

      .cls-46 {
        fill: #d3cc9b;
      }

      .cls-47 {
        fill: #d99e4f;
      }

      .cls-48 {
        fill: #d9944e;
      }

      .cls-49 {
        fill: #d6e5c2;
      }

      .cls-50 {
        fill: #b5947d;
      }

      .cls-51 {
        fill: #ce7d2b;
      }

      .cls-52 {
        fill: #cfc49b;
      }

      .cls-53 {
        fill: #bce3e3;
      }

      .cls-54 {
        fill: #caae85;
      }

      .cls-55 {
        fill: #c4e7e4;
      }

      .cls-56 {
        fill: #ba6b29;
      }

      .cls-57 {
        clip-path: url(#clippath);
      }

      .cls-58 {
        fill: #c8a688;
      }

      .cls-59 {
        fill: #f4db98;
      }

      .cls-60 {
        fill: #bac9a3;
      }

      .cls-61 {
        fill: #caab80;
      }

      .cls-62 {
        fill: #f7e5ba;
      }

      .cls-63 {
        fill: #ccc489;
      }

      .cls-64 {
        fill: #c26b29;
      }

      .cls-65 {
        fill: #a88951;
      }
    </style>
    <clipPath id="clippath">
      <rect class="cls-21" x="34.92" y="35.56" width="70.82" height="70.82"/>
    </clipPath>
  </defs>
  <!-- Generator: Adobe Illustrator 28.7.0, SVG Export Plug-In . SVG Version: 1.2.0 Build 136)  -->
  <g>
    <g id="Layer_1">
      <g class="cls-57">
        <path class="cls-3" d="M72.33,35.7c.59.04,1.76.13,2.35.17-.59-.04-1.76-.13-2.35-.17"/>
        <path class="cls-31" d="M74.68,35.87c6.84.88,13.45,3.77,18.69,8.26.57.54,1.15,1.08,1.7,1.64-3.81.46-7.67.65-11.5.18-2.25-.73-5.59-.3-6.65-2.97-5.59-4.96-14.28-5.42-20.96-2.48-.77.22-1.42-.45-2.08-.73,5.19-3.04,11.25-4.05,17.18-4.22.42.05.85.1,1.27.14.59.04,1.76.13,2.35.17"/>
        <path class="cls-27" d="M55.96,40.5c6.68-2.94,15.37-2.48,20.96,2.48,1.05,2.68,4.39,2.25,6.65,2.97-1.76-.03-3.51-.29-5.26-.29-7.1-.76-14.33-1.45-21.1-3.84-1.29-1.03-3.7.4-4.38-1.48.34-.2.69-.39,1.05-.57.66.27,1.31.95,2.08.73"/>
        <path class="cls-12" d="M83.57,45.95c3.82.48,7.69.29,11.5-.18.57.54,1.07,1.14,1.59,1.72-2.61.28-5.23-.35-7.85-.06-1.48.02-2.95.11-4.42-.04-1.49-.33-2.99-.23-4.49-.33-.36-.64-1.02-1-1.58-1.42,1.75,0,3.5.26,5.26.29"/>
        <path class="cls-17" d="M96.66,47.5c1.32,1.28,2.42,2.75,3.39,4.32-.18.18-.54.52-.73.69-2.66.23-5.32.42-7.99.4,1.11-1.05-.65-2.16-.95-3.21,1.05-.04,3.55-1.44-.02-1-.87.13-1.19-.66-1.55-1.27,2.62-.29,5.24.34,7.85.06"/>
        <path class="cls-37" d="M50.4,41.75c.78-.51,1.59-.98,2.43-1.41.69,1.88,3.09.45,4.38,1.48,6.78,2.38,14,3.08,21.1,3.84.56.42,1.22.78,1.58,1.42-2.64-.7-5.34-.14-8-.61-7.31-.75-14.77-1.49-21.5-4.71"/>
        <path class="cls-43" d="M84.39,47.4c1.47.15,2.94.06,4.42.04.36.61.69,1.4,1.55,1.27,3.57-.44,1.07.96.02,1,.3,1.05,2.06,2.16.95,3.2-.18,0-.52-.01-.7-.02-3.94-.83-7.95-1.24-11.9-1.98-.32-.11-.95-.32-1.26-.43,2.68-.24,4.08-3.07,6.92-3.09"/>
        <path class="cls-41" d="M79.9,47.07c1.5.09,3,0,4.49.32-2.83.01-4.24,2.85-6.92,3.09-3.64-.26-7.31-.51-10.95-.1-.52-.1-1.04-.2-1.55-.3,2.76-.56,4.09-3.46,6.92-3.63,2.66.47,5.36-.09,8,.61"/>
        <path class="cls-62" d="M44.85,46.49c1.7-1.74,3.52-3.4,5.56-4.74,6.72,3.22,14.19,3.96,21.5,4.71-2.84.16-4.17,3.06-6.92,3.63-6.66.52-13.67.03-19.7-3.11-.11-.12-.32-.37-.43-.49"/>
        <path class="cls-4" d="M100.05,51.82c.35.51.71,1.02,1.06,1.54.87,1.88,1.72,3.76,2.42,5.71-.39.07-.77.13-1.16.19-.42-1.1-.75-2.22-1.15-3.32-.45-1.24-1.23-2.3-1.9-3.42.18-.17.55-.52.73-.69"/>
        <path class="cls-51" d="M91.33,52.91c2.67.02,5.33-.17,7.99-.4.67,1.12,1.45,2.19,1.9,3.42-1.07,1.48-3.18,1.18-4.75,1.31-3.32,0-6.6.79-9.92.54.34-2.58.58-6.31,4.09-4.89.17,0,.52.02.7.02"/>
        <path class="cls-48" d="M78.73,50.91c3.95.74,7.97,1.15,11.9,1.98-3.5-1.42-3.75,2.31-4.09,4.89-.31.17-.6.35-.9.53-3.37-.38-7.43-1.3-9.03-4.69.37-.78-.45-1.62-.37-2.46.82-.16,1.67,0,2.49-.24"/>
        <path class="cls-14" d="M66.52,50.39c3.63-.41,7.31-.16,10.95.09.31.11.94.32,1.26.43-.82.24-1.66.08-2.49.24-.09.84.74,1.69.36,2.46-1.02-1.24-4.64-.48-3.08,1.29,1.08,1.62-1.81,1.75-2.88,1.73-2.36-.82-4.49-2.12-6.79-3.07.1-1.58,1.26-2.62,2.66-3.17"/>
        <path class="cls-28" d="M101.22,55.93c.4,1.1.73,2.23,1.15,3.32-.81.06-1.6.1-2.4.13-3.58.16-7.24.04-10.75.9-1.16,1.06-2.57,1.93-4.2,1.35-1.43-1.03.61-2.09.62-3.32.3-.18.6-.36.9-.53,3.33.25,6.6-.53,9.92-.54,1.57-.12,3.68.18,4.75-1.31"/>
        <path class="cls-10" d="M64.97,50.09c.51.1,1.03.2,1.55.3-1.4.54-2.56,1.58-2.66,3.17-3.39.3-6.6,1.66-9.79,2.77-4.13-.88-8.24-1.92-12.29-3.1.69-2.29,3.75-3.79,3.49-6.24,6.03,3.14,13.04,3.62,19.7,3.11"/>
        <path class="cls-7" d="M40.41,52.16c1.3-2.02,2.73-3.97,4.44-5.67.11.12.32.37.43.49.26,2.44-2.8,3.94-3.49,6.24l-.32-.08c-.35-.33-.7-.65-1.05-.98"/>
        <path class="cls-15" d="M73.53,54.9c-1.55-1.78,2.07-2.54,3.08-1.29,1.6,3.39,5.66,4.32,9.03,4.7-.01,1.24-2.06,2.29-.62,3.32-.49-.1-.99-.19-1.48-.28-5.14-.67-10.33-1.03-15.39-2.24.98-.67,1.84-1.49,2.5-2.48,1.07.02,3.96-.11,2.88-1.73"/>
        <path class="cls-54" d="M102.36,59.25c.39-.06.77-.12,1.16-.19.84,2.13,1.34,4.37,1.88,6.59l-.12.24c-1.05-.14-2.06.16-3.07.39-3.23-.5-.52-4.82-2.25-6.9.8-.03,1.6-.07,2.4-.13"/>
        <path class="cls-63" d="M89.22,60.28c3.5-.86,7.16-.74,10.75-.9,1.72,2.08-.98,6.4,2.25,6.9-4.46.97-9.11.86-13.49,2.29-3.27.55-6.37,1.91-9.72,2.03-.28-3.44,5.23-5.48,4.54-9.25.49.08.99.18,1.48.28,1.63.58,3.04-.29,4.2-1.35"/>
        <path class="cls-58" d="M54.07,56.32c3.19-1.1,6.4-2.47,9.79-2.77,2.3.95,4.43,2.25,6.79,3.07-.66.99-1.52,1.82-2.5,2.48-3.1-.58-6.18-1.25-9.29-1.71-1.6-.37-3.19-.72-4.79-1.08"/>
        <path class="cls-52" d="M40.41,52.16c.35.32.7.64,1.05.98-.04,2.23-.98,4.81-3.44,3.5.66-1.56,1.45-3.07,2.39-4.47"/>
        <path class="cls-40" d="M41.46,53.14l.32.09c4.06,1.18,8.16,2.23,12.29,3.1,1.6.36,3.19.7,4.79,1.08,1.73.55,3.5,1,5.28,1.35-.67,2.17-4.36.71-4.26,3.69,1.8,1.18,3.97,1.87,5.52,3.44-3.2-1.03-6.07-2.89-9.19-4.07-1.85-.29-.85,2.47-2.48,2.58-2.68,1.44-4.27-1.9-6.14-3.22-3.36-1.1-6.49-2.77-9.71-4.22l.13-.32c2.46,1.31,3.4-1.27,3.44-3.5"/>
        <path class="cls-26" d="M68.15,59.11c5.05,1.22,10.25,1.57,15.39,2.24.69,3.76-4.82,5.81-4.54,9.25-.76.09-1.52.14-2.28.21-1.08-.35-2.13-.69-3.2-1.07-1.81-2.31-5.26-2.34-6.95-4.64.9-.28,2.67.51,3.31-.64.56-.73-.03-2.01.91-2.45.76-.38,1.84-.03,2.44-.71-2.8-1.44-6.01-1.96-9.08-2.55-1.78-.35-3.55-.8-5.28-1.35,3.11.46,6.19,1.14,9.3,1.71"/>
        <path class="cls-18" d="M102.21,66.28c1.01-.23,2.02-.53,3.07-.39.08.52.17,1.04.23,1.57-.32,1.32-1.81,1.3-2.82,1.83-.97.29-1.95.54-2.91.85-1.6.38-3.24.53-4.82,1.02-4.76.57-9.42,1.71-14.16,2.36-1.89-.39-3.79-.7-5.66-1.17.14-.85.82-1.28,1.57-1.54.76-.07,1.52-.12,2.28-.21,3.35-.12,6.45-1.48,9.72-2.03,4.38-1.43,9.03-1.32,13.49-2.29"/>
        <path class="cls-30" d="M64.14,58.75c3.07.59,6.29,1.11,9.08,2.55-.6.68-1.67.33-2.44.71-.94.44-.35,1.72-.91,2.45-.63,1.15-2.41.36-3.3.64,1.69,2.29,5.14,2.33,6.95,4.64-2.87-.88-5.51-2.42-8.12-3.86-1.55-1.57-3.72-2.26-5.52-3.44-.1-2.98,3.58-1.51,4.26-3.69"/>
        <path class="cls-32" d="M105.51,67.47c.15,1.53.21,3.07.23,4.61-.16.59-.48,1.77-.64,2.36-2.53-.86,1.21-5.95-2.41-5.14,1-.53,2.5-.51,2.82-1.83"/>
        <path class="cls-23" d="M102.69,69.29c3.62-.81-.12,4.29,2.41,5.14.16-.59.48-1.77.64-2.36-.08,2.16-.58,4.28-.99,6.4-.37.11-.73.22-1.09.34-.25-.98,1.43-3.83-.46-4.03-1.48.33-2.89.96-4.41,1.12.24-1.91,1.59-3.8,1-5.76.96-.3,1.94-.55,2.91-.85"/>
        <path class="cls-55" d="M37.89,56.95c3.22,1.45,6.35,3.12,9.71,4.22,1.87,1.31,3.46,4.65,6.14,3.22,1.63-.11.63-2.87,2.48-2.58,3.12,1.19,5.99,3.04,9.19,4.07,2.61,1.44,5.25,2.98,8.12,3.86,1.06.38,2.11.72,3.19,1.07-.75.26-1.43.69-1.57,1.54-1.38-.2-2.55-.88-3.73-1.56-2.99-1.31-7.34-4.6-9.92-1.07-1.19-.19-2.34-.45-3.51-.72-4-1.63-8.11-3.1-11.72-5.57-2.74,1.15-4.97-.89-7.4-1.91-.62-.32-1.25-.63-1.88-.92-.03-.28-.09-.84-.12-1.12.32-.86.66-1.7,1.02-2.53"/>
        <path class="cls-16" d="M94.96,71.16c1.57-.48,3.22-.64,4.82-1.02.59,1.96-.76,3.85-1,5.76-.16.13-.48.38-.64.5-1.53.1-3.05.22-4.58.36.54-1.85,1.05-3.72,1.4-5.61"/>
        <path class="cls-24" d="M36.32,60.9c.16-.48.35-.95.55-1.42.03.28.09.84.12,1.12.2,1.3.3,2.61.42,3.92,4.7,1.15,8.68,4.06,13.28,5.5,7.08,2.38,14.39,3.99,21.74,5.29,1.6.32,3.19.68,4.8,1.01-2.07.81-8.12-3.23-7.18.84-.99-.21-1.98-.41-2.97-.6-9.81-1.88-19.64-4.17-28.85-8.11-1.42-.69-3.19-1.25-3.23.82-.03-.51-.05-1.02-.07-1.53.55-2.26.99-4.55,1.38-6.85"/>
        <path class="cls-25" d="M80.8,73.51c4.74-.65,9.4-1.79,14.16-2.36-.35,1.89-.86,3.76-1.4,5.61-5.43.76-10.92.03-16.34-.45-1.6-.33-3.2-.69-4.8-1.01.29-.68.31-1.43.42-2.15,2.66-.08,5.32.74,7.95.36"/>
        <path class="cls-59" d="M36.98,60.6c.63.29,1.26.59,1.88.92,1.6,1.85,4.42,5.05,6.91,2.89,1.56-.27.52.77.08,1.5,1.16,1.15,2.99,1.68,4.58,1.64,2.66-1.18,4.85,2.07,7.55,1.45,1.16.27,2.31.53,3.5.72,1.55.41,2.35-2.04,4.05-.75,1.99.49,3.79,1.58,5.87,1.81,1.18.68,2.34,1.37,3.73,1.57,1.87.47,3.77.78,5.66,1.17-2.63.38-5.3-.44-7.95-.36-.11.72-.13,1.47-.42,2.15-7.36-1.3-14.66-2.92-21.74-5.29-4.59-1.44-8.58-4.34-13.28-5.5-.12-1.31-.22-2.62-.42-3.92"/>
        <path class="cls-33" d="M34.93,67.74c-.13-2.35.65-4.65,1.38-6.84-.39,2.29-.83,4.58-1.38,6.84"/>
        <path class="cls-2" d="M38.87,61.52c2.42,1.01,4.65,3.06,7.4,1.91,3.61,2.47,7.73,3.94,11.72,5.57-2.7.62-4.88-2.63-7.55-1.45-1.59.04-3.42-.48-4.58-1.64.44-.73,1.48-1.77-.08-1.5-2.48,2.16-5.31-1.04-6.91-2.89"/>
        <path class="cls-64" d="M98.78,75.9c1.52-.16,2.93-.79,4.41-1.12,1.89.2.21,3.05.46,4.03-1.84,1.06-4.03.71-6.06.78,0-1.11.1-2.18.56-3.19.16-.13.48-.38.64-.51"/>
        <path class="cls-49" d="M61.49,69.72c2.58-3.54,6.93-.24,9.92,1.07-2.08-.23-3.88-1.32-5.87-1.81-1.7-1.29-2.5,1.15-4.05.75"/>
        <path class="cls-6" d="M93.57,76.77c1.52-.14,3.05-.27,4.58-.36-.45,1.01-.55,2.08-.56,3.19-.79,0-1.57,0-2.35.01-8.28-1.09-17.11.46-25.19-2.44-.94-4.07,5.11-.03,7.18-.84,5.42.48,10.9,1.21,16.34.45"/>
        <path class="cls-61" d="M103.65,78.82c.36-.11.73-.23,1.09-.34-.29,1.39-.65,2.77-1.08,4.13.03-.31.07-.91.1-1.21-2.53,1.03-5.27,1.31-7.96,1.7-.14-1,.89-3-.57-3.48.78,0,1.56-.01,2.35-.01,2.03-.07,4.22.28,6.07-.78"/>
        <path class="cls-46" d="M35,69.28c.03-2.07,1.8-1.51,3.22-.82,9.22,3.94,19.04,6.23,28.86,8.11.3.65.57,1.31.86,1.97-2.13-.45-4.06.84-6.09,1.2-2.02-.32-3.47-1.77-4.87-3.11-1.92-.79-4.01-.71-5.96-.15-2.48.62-5.49-.77-5.99-3.39-3.34-.58-6.85.38-10.03-1.21-.02-.87-.02-1.74,0-2.6"/>
        <path class="cls-1" d="M70.04,77.16c8.08,2.91,16.91,1.36,25.19,2.45,1.46.48.43,2.48.57,3.48-.43.07-.85.13-1.28.21-3.58.36-7.19,1.01-10.79.71-4.51-3.17-11.12-.81-15.1-4.96-.17-.13-.52-.38-.69-.51-.29-.66-.56-1.32-.86-1.97.99.18,1.97.38,2.97.6"/>
        <path class="cls-38" d="M95.8,83.09c2.68-.39,5.42-.66,7.96-1.69-.03.3-.07.91-.1,1.21-.3.89-.61,1.8-.9,2.71-.26.48-.53.95-.79,1.43-.95.11-1.9.27-2.84.46-2.68.38-5.41.84-8.11.48,2.02-.27,3.71-2.53,3.51-4.4.42-.07.85-.14,1.28-.21"/>
        <path class="cls-53" d="M35,71.88c3.18,1.59,6.69.62,10.03,1.21.51,2.62,3.51,4.01,5.99,3.39,1.95-.55,4.04-.64,5.96.15,1.4,1.33,2.85,2.79,4.87,3.11,2.03-.36,3.96-1.64,6.09-1.2.17.13.52.39.69.51-1.8-.12-5.84-.01-5.26,2.6-4.68-1.68-9.56-3.61-14.64-3.29-2.96.39-5.94.19-8.92.24-1.39-.31-2.77-.59-4.18-.75-.55-1.94-.6-3.97-.64-5.97"/>
        <path class="cls-19" d="M83.73,84.01c3.6.3,7.21-.35,10.79-.71.2,1.87-1.49,4.13-3.51,4.4-1.52-.19-3.08-.32-4.61-.15-4.73-.63-9.35-2.29-14.16-1.91-2.92-.11-5.01-2.39-7.72-3.15-.39-.28-.76-.56-1.15-.84-.58-2.61,3.46-2.72,5.26-2.6,3.97,4.15,10.59,1.79,15.1,4.96"/>
        <path class="cls-50" d="M99.12,87.21c.94-.2,1.89-.35,2.84-.46-2.05,4.31-5.17,8.03-8.65,11.25-3.91,3.19-8.45,5.6-13.29,7.02-4.28,1.12-8.72,1.61-13.13,1.14-2.28-.54-4.58-.95-6.89-1.35-.27-.08-.82-.26-1.09-.34,9.55,2.23,20.47,1.57,28.66-4.28,1.16-.67,2.33-1.33,3.46-2.06,2.47-1.84,4.37-4.34,6.33-6.69.21-.1.64-.3.85-.39.73-.75,1.91-3.22.91-3.83"/>
        <path class="cls-11" d="M48.74,78.36c5.08-.32,9.96,1.61,14.64,3.29.38.27.76.56,1.15.84-4.04-1.3-8.31-1.63-12.52-1.65-.94.11-1.85.32-2.77.52-.88.14-1.75.38-2.63.53-2.19-1.3-6.03-.35-6.79-3.29,2.97-.05,5.95.16,8.92-.24"/>
        <path class="cls-42" d="M91.02,87.7c2.7.35,5.43-.1,8.11-.48,1,.61-.18,3.08-.91,3.83-.1-.37-.21-.74-.35-1.09-2.68.03-5.36.39-8.02-.17.27-.55.53-1.09.79-1.64.09-.11.29-.33.38-.45"/>
        <path class="cls-8" d="M52.01,80.83c4.21.02,8.48.35,12.52,1.65,2.71.76,4.8,3.05,7.72,3.15,4.8-.39,9.43,1.28,14.16,1.91-.72.46-1.34,1.04-1.88,1.71-8.44-.83-17.89-.76-24.86-6.35-1.45-.85-3.14-1.09-4.76-1.4-.97-.24-1.94-.46-2.9-.67"/>
        <path class="cls-60" d="M86.41,87.54c1.53-.16,3.08-.04,4.61.16-.09.11-.29.34-.38.45-1.42-.14-2.84-.26-4.23-.6"/>
        <path class="cls-34" d="M86.41,87.54c1.38.34,2.81.47,4.23.6-.26.55-.52,1.09-.79,1.64-.18-.01-.53-.04-.71-.05-1.54-.14-3.17.23-4.6-.48.53-.67,1.16-1.25,1.88-1.71"/>
        <path class="cls-35" d="M35.64,77.84c1.41.16,2.79.44,4.18.75.76,2.93,4.59,1.99,6.79,3.29-3.62-.15-7.11-1.91-10.69-2.56-.12-.49-.19-.99-.27-1.48"/>
        <path class="cls-9" d="M53.23,83.6c-1.15.14-3.02.31-2.77,1.92,2.47,1.83,5.81,2.38,8.78,1.71.7-2.93-3.97-3.68-6.01-3.63M49.23,81.35c.92-.2,1.84-.4,2.77-.52.96.21,1.93.43,2.9.67,1.73,1.75,7.56,2.52,5.74,6.37-2.74,1.53-6.4,1.39-9.1-.16-1.26-1.1-4.43-3.12-2.33-4.81.52-.5,1.18-1.4.02-1.56"/>
        <path class="cls-44" d="M54.91,81.5c1.62.31,3.31.56,4.76,1.4,6.98,5.59,16.42,5.52,24.86,6.35,1.44.7,3.07.34,4.6.48-.66.53-1.18,1.2-1.62,1.91-.14,0-.43,0-.58,0-1.9-.06-3.81-.16-5.7-.36-5.17-.53-10.25-1.63-15.24-3.05-3.71.59-6.96,3.45-10.94,2.8-4.34-1.09-7.64-4.39-10.59-7.56-.5-.15-1.49-.44-1.99-.58-2.05-.38-3.95-1.5-6.04-1.58-.21-.66-.39-1.33-.54-2,3.59.65,7.07,2.41,10.69,2.56.88-.15,1.74-.39,2.63-.53,1.16.16.5,1.06-.02,1.56-2.1,1.68,1.08,3.7,2.33,4.81,2.7,1.54,6.36,1.69,9.1.16,1.81-3.85-4.01-4.62-5.74-6.37"/>
        <path class="cls-56" d="M89.85,89.78c2.65.56,5.34.2,8.02.17.13.36.25.72.35,1.09-.21.1-.64.29-.85.39-3.27.23-6.57.28-9.85.21.44-.72.96-1.38,1.62-1.91.18.01.53.04.71.05"/>
        <path class="cls-65" d="M87.52,91.64c3.28.07,6.58.02,9.85-.21-1.96,2.35-3.86,4.84-6.33,6.69-.17-3.07-5.61-1.28-7.02-4.13,1.01-.74,2.11-1.39,2.92-2.35.15,0,.44,0,.58,0"/>
        <path class="cls-5" d="M53.23,83.6c2.04-.05,6.72.7,6.01,3.63-2.97.67-6.32.12-8.78-1.71-.25-1.61,1.62-1.77,2.77-1.92"/>
        <path class="cls-29" d="M36.45,81.32c2.09.07,3.99,1.2,6.04,1.58-.57,3.07,2.95,2.17,3.94,4.75,3.44,3.53,8.11,5.37,12.65,7.05-7.66.45-14.28-4.51-19.74-9.33-.41.12-.78.32-1.12.61-.7-1.51-1.29-3.07-1.76-4.66"/>
        <path class="cls-20" d="M42.48,82.89c.5.15,1.49.44,1.99.58,2.95,3.17,6.25,6.47,10.59,7.56,3.97.65,7.23-2.21,10.94-2.8,4.99,1.41,10.07,2.52,15.24,3.05-1.42.97-3.04,1.57-4.6,2.27-1.82,1.14-3.42-1.42-5.29-1.2-3.72.37-7.23,1.88-10.93,2.42-.45-.03-.9-.06-1.35-.08-4.53-1.68-9.21-3.52-12.65-7.06-.99-2.58-4.51-1.68-3.94-4.75"/>
        <path class="cls-47" d="M81.24,91.28c1.89.2,3.79.3,5.7.36-.82.96-1.92,1.61-2.92,2.35-.39.22-.78.43-1.16.64-1.47-.77-2.48.19-3.48,1.16-1.91,0-3.41-1.83-5.36-1.39-4.43,1.08-9.13,1.46-13.59.37,3.7-.54,7.21-2.05,10.93-2.42,1.88-.22,3.47,2.35,5.29,1.2,1.56-.71,3.18-1.31,4.6-2.28"/>
        <path class="cls-36" d="M38.21,85.98c.34-.29.71-.49,1.12-.61,5.46,4.82,12.08,9.78,19.74,9.33.45.02.9.05,1.35.08,4.46,1.09,9.17.71,13.59-.37,1.95-.45,3.45,1.38,5.36,1.39,1-.97,2.01-1.93,3.48-1.16-10.44,6.61-23.95,6.08-34.96,1.31-.55-.36-1.09-.71-1.61-1.09-2.12-3.18-4.92-5.93-7.47-8.79-.05.18-.16.53-.22.71-.1-.19-.29-.59-.38-.79"/>
        <path class="cls-22" d="M82.85,94.64c.39-.21.77-.43,1.16-.64,1.41,2.86,6.85,1.06,7.02,4.13-1.13.73-2.29,1.39-3.46,2.06-4.42,1.28-9.06,1.5-13.58,2.28-8.86-.82-18.43-1.58-26.1-6.51,11.01,4.77,24.51,5.3,34.96-1.31"/>
        <path class="cls-13" d="M38.81,86.06c2.55,2.86,5.35,5.62,7.47,8.79-1.23-.52-2.4-1.15-3.52-1.87-1.97-1.62-2.83-4.13-4.17-6.22.06-.17.16-.53.22-.71"/>
        <path class="cls-39" d="M73.99,102.46c4.52-.78,9.16-1,13.58-2.28-8.19,5.85-19.11,6.51-28.66,4.28-6.35-2.11-12.18-6.04-16.15-11.47,1.12.71,2.29,1.35,3.52,1.87.53.37,1.07.73,1.61,1.09,7.66,4.94,17.24,5.69,26.09,6.51"/>
        <path class="cls-45" d="M60.01,104.81c2.3.4,4.61.81,6.89,1.35l-.26.21c-2.25-.34-4.49-.79-6.63-1.57"/>
      </g>
    </g>
  </g>
</svg>