<?xml version="1.0" encoding="UTF-8"?>
<svg xmlns="http://www.w3.org/2000/svg" version="1.1" viewBox="0 0 257.74 254.91">
  <defs>
    <style>
      .cls-1 {
        fill: #adc13e;
      }

      .cls-2 {
        fill: #703030;
      }

      .cls-3 {
        fill: #ea4645;
      }

      .cls-4 {
        fill: #9a2625;
      }

      .cls-5 {
        fill: #b12c2b;
      }

      .cls-6 {
        fill: #b13a36;
      }

      .cls-7 {
        fill: #c8473e;
      }

      .cls-8 {
        fill: #fff3e8;
      }

      .cls-9 {
        fill: #803532;
      }

      .cls-10 {
        fill: #d63d39;
      }

      .cls-11 {
        fill: #789a3d;
      }

      .cls-12 {
        fill: #f1666d;
      }

      .cls-13 {
        fill: #fde4b8;
      }

      .cls-14 {
        fill: #dd9669;
      }

      .cls-15 {
        fill: #9a4722;
      }

      .cls-16 {
        fill: #8e2c2b;
      }

      .cls-17 {
        fill: #b12b2b;
      }
    </style>
  </defs>
  <!-- Generator: Adobe Illustrator 28.7.0, SVG Export Plug-In . SVG Version: 1.2.0 Build 136)  -->
  <g>
    <g id="Layer_1">
      <g>
        <path class="cls-11" d="M62.92,19.74c.87,1.25,1.67,2.58,2.81,3.59,1.84,2.81,2.42,6.21,4.27,9.03,5.11,9.22,12.52,17.58,22.3,21.92,6.26,2.66,13.16,3.56,19.93,3.32,2.93-.14,5.95-.62,8.49-2.17-4.27-3.95-9.18-7.2-14.39-9.77-8.09-3.99-17.22-4.87-25.61-8.02-3.64-1.28-7.05-3.41-9.36-6.56.05-.16.15-.48.2-.64,1.77,1.53,3.7,2.89,5.86,3.82,6.6,3.04,13.78,4.42,20.93,5.41,9.42,1.34,18.06,6.64,23.99,14.01.17-.74.33-1.48.5-2.23.52.83,1.03,1.67,1.56,2.5.87,1.29,1.51,2.72,1.98,4.21-.35.53-.7,1.06-1.02,1.6-.28-.15-.83-.44-1.11-.59-.84-.43-1.69-.88-2.61-1.12-.85.04-1.53.61-2.27.96-9.17,4.64-20.51,4.85-29.73.23-5.74-2.89-10.95-6.86-15.21-11.68-6.68-7.7-10.93-17.61-11.5-27.81Z"/>
        <path class="cls-1" d="M65.73,23.34c.22-.04.66-.13.88-.17l-.49.73c2.39,2.02,5.02,3.79,8.04,4.7,4.27,1.57,8.88.86,13.31,1.39,8.33.7,16.84,3.02,23.52,8.26,4.51,3.84,8.52,8.28,11.84,13.19-.17.74-.33,1.48-.5,2.23-5.93-7.37-14.57-12.67-23.99-14.01-7.15-.99-14.33-2.37-20.93-5.41-2.16-.92-4.08-2.29-5.86-3.82-.05.16-.15.48-.2.64-.44.44-.91.86-1.36,1.28-1.85-2.81-2.43-6.22-4.27-9.03Z"/>
        <path class="cls-1" d="M70,32.37c.46-.42.92-.84,1.36-1.28,2.31,3.15,5.72,5.28,9.36,6.56,8.38,3.15,17.52,4.02,25.61,8.02,5.21,2.57,10.12,5.83,14.39,9.77-2.55,1.55-5.56,2.03-8.49,2.17-6.77.24-13.67-.66-19.93-3.32-9.77-4.34-17.19-12.7-22.3-21.92Z"/>
        <path class="cls-14" d="M129.55,37.54c.82-1.41,2.08-2.71,3.77-2.91,4.4-.6,8.73,1.49,11.88,4.44,1.84,1.78,3.55,4.23,3.15,6.93-.15,1.32-1.33,2.11-2.19,2.99-1.43-.23-2.88.36-4.31.03-4.24-.73-8.23-3.16-10.71-6.7-1.01-1.39-1.28-3.13-1.59-4.78Z"/>
        <path class="cls-15" d="M124.4,53.95c.51-5.77,2.38-11.34,5.14-16.4.31,1.64.58,3.38,1.59,4.78,2.48,3.54,6.47,5.97,10.71,6.7,1.43.33,2.88-.26,4.31-.03-2.57,2.76-4.88,5.76-6.87,8.95-3.79,6.23-6.56,13.42-6.24,20.81-.18.52-.39,1.03-.6,1.55-1.68-.3-3.41-.27-5.07-.68-.39-1.39-.88-2.76-1.19-4.17.7-2.69-.67-5.25-.81-7.9-.23-2.59-.78-5.24-.02-7.8.32-.54.67-1.07,1.02-1.6-.47-1.48-1.11-2.91-1.98-4.21Z"/>
        <path class="cls-2" d="M124.24,59.17c.28.15.83.44,1.11.59-.76,2.55-.21,5.21.02,7.8.14,2.66,1.51,5.21.81,7.9-1.3-5.33-1.82-10.82-1.94-16.29Z"/>
        <path class="cls-10" d="M166.31,62.98c6.31-1.51,13.13-2.28,19.38-.13-2.05.62-4.18.22-6.26.38-7.77,1.1-15.43,3.83-21.69,8.62-3.11,2.05-6,4.42-8.75,6.93-4.02,3.74-7.42,8.29-12.27,11.04-2.41,1.48-5.71,1.44-7.97-.33-5.76-3.99-9.73-9.98-15.25-14.26-1.42-1.14-3.12-1.95-4.35-3.33l.14-.99c6.18,2.59,11.73,6.5,18.07,8.7,1.66.41,3.39.38,5.07.68,1.04.12,2.15.27,3.16-.14,3.6-1.34,6.82-3.6,9.53-6.3l-.63-.13c.53-.42,1.05-.84,1.59-1.23,1.46-.36,3.42-.14,4.28-1.64,1.39-1.88,3.74-2.57,5.71-3.64-.09-.17-.28-.5-.38-.67,3.4-1.54,6.98-2.62,10.59-3.54Z"/>
        <path class="cls-10" d="M36.71,109.62c3.53-12.22,10.86-23.34,20.88-31.2.01.76.09,1.6-.47,2.2-6.27,7.68-8.07,18.04-7.77,27.71.13,5.92,1.43,11.73,2.88,17.44,3.75,12.06,9.97,23.33,17.98,33.09,8.53,10.96,19.56,19.82,31.64,26.59,4.73,2.18,9.3,4.75,14.24,6.4,4.31,1.57,8.7,2.93,13.2,3.81,5.44,1.2,10.96,2.22,16.55,2.36,2.52.09,5.04.44,7.57.3,6.69-.43,13.47-.63,19.99-2.37,16.27-3.31,31.85-11.27,43-23.72,1.85-2.21,3.9-4.32,5.19-6.93.36-.85,1-1.49,1.78-1.96-.72,2.43-2.17,4.53-3.13,6.86-3.17,6.9-6.83,13.59-10.93,19.98-.76,1.23-1.71,2.43-1.75,3.94-.77,1.32-1.7,2.54-2.61,3.76.14-.46.26-.91.39-1.37-.71.64-1.34,1.37-1.85,2.19-2.09,3.22-4.96,5.78-7.52,8.61-1.22,1.31-2.63,2.4-4.02,3.52-2.46,1.4-4.56,3.32-7.02,4.73-5.78,3.89-12.73,6.69-19.83,6-3.82-.66-7.41-2.27-11.22-2.97-7.4-1.48-15.21-1.09-22.36,1.38-8.9,3.35-18.72,1.54-27.51-1.27-13.87-4.75-26.55-12.77-37.02-23.02-8.7-8.73-17.12-17.96-23.22-28.75-1.51-2.8-2.97-5.65-3.95-8.68-.73-1.59-1-3.42-2.14-4.79-.16.81-.31,1.63-.35,2.46-.81-2.96-1.59-5.92-2.11-8.94-.73-4.14-1.14-8.3-1.43-12.48v-7.15c.38-5.98,1.18-11.96,2.92-17.71Z"/>
        <path class="cls-3" d="M157.74,71.86c6.26-4.79,13.92-7.52,21.69-8.62,2.09-.17,4.22.24,6.26-.38.22.03.66.1.88.13-4.15,4.7-6.96,10.57-8,16.76-.07-.38-.22-1.14-.29-1.53-1.09,2.42-.65,5.13-.83,7.69.09,1.41-.39,3.22.96,4.18.71,2.62,1.7,5.2,3.34,7.39,3.28,4.47,7.84,7.72,12.04,11.24,2.06,1.8,3.81,4.12,4.27,6.88.78,4.36-.26,8.86.83,13.18,1.46,6.5,5.88,11.79,10.51,16.35,2.11,2.11,4.53,3.85,6.98,5.55.04.15.14.45.18.6,1.17.78,2.37,1.52,3.61,2.17,1.97,1.05,4.21,1.36,6.23,2.28-.66,2.67-2.05,5.07-3.03,7.62-.78.47-1.42,1.11-1.78,1.96-1.29,2.62-3.34,4.72-5.19,6.93-11.16,12.44-26.73,20.41-43,23.72-6.52,1.73-13.3,1.94-19.99,2.37-2.53.14-5.05-.22-7.57-.3-5.59-.13-11.1-1.16-16.55-2.36-4.5-.88-8.89-2.24-13.2-3.81-4.95-1.65-9.52-4.22-14.24-6.4-12.08-6.77-23.11-15.63-31.64-26.59-8.02-9.75-14.23-21.02-17.98-33.09-1.44-5.72-2.74-11.52-2.88-17.44-.31-9.67,1.49-20.03,7.77-27.71.56-.6.48-1.44.47-2.2,7.83-6.22,17.33-10.4,27.26-11.74,8.34-.84,16.86.76,24.47,4.24l-.14.99c1.22,1.38,2.92,2.19,4.35,3.33,5.52,4.28,9.49,10.27,15.25,14.26,2.26,1.77,5.56,1.81,7.97.33,4.85-2.75,8.24-7.3,12.27-11.04,2.74-2.51,5.64-4.88,8.75-6.93ZM170.15,70.43c-5.8,3.22-10.74,8.07-13.73,14.02-.72,1.76-1.08,3.65-1.3,5.52-.08,2.02.22,4.43,2.01,5.69,2.89,2.2,6.78,2.13,10.23,1.99,2.6-.23,5.3-.37,7.75-1.32-3.84-7.36-3.36-16.5.29-23.84,1.17-2.42,3.2-4.21,4.9-6.22-3.55.91-6.86,2.55-10.14,4.17ZM90.4,75.86c-2.86.74-5.81,2-7.56,4.51-.7.92-1.47,2.18-.72,3.31,2.3,2.35,5.83,2.03,8.82,2.54,9.82.96,17.31,8.21,26.47,11.09,1.64.53,4.05.62,4.91-1.19.95-2.75-.93-5.39-2.5-7.51-3.33-4.16-7.59-7.52-12.23-10.1-5.23-2.75-11.38-3.88-17.2-2.64Z"/>
        <path class="cls-13" d="M186.58,62.98c1.36,4.83.7,9.98-.19,14.85-1.21,4.69.13,9.66,2.5,13.76,1.02,1.54,2.18,2.98,3.2,4.53,2.5,2.3,5.34,4.21,7.89,6.46,1.6,1.85,3.58,3.44,4.56,5.73,1.25,2.33,1.33,5.14.47,7.63-1.04,3.04-.82,6.29-.79,9.45-.05,2.22,1,4.23,1.88,6.21,1.91,3.94,5.41,6.75,8.87,9.28,2.57,2.37,5.52,4.32,7.88,6.92,2.17,1.91,3.67,4.53,4.3,7.36-3.86-.66-7.47-2.39-10.77-4.45-2.44-1.7-4.87-3.44-6.98-5.55-4.63-4.56-9.06-9.85-10.51-16.35-1.09-4.32-.06-8.83-.83-13.18-.46-2.76-2.21-5.09-4.27-6.88-4.2-3.53-8.76-6.78-12.04-11.24-1.64-2.19-2.63-4.77-3.34-7.39-.43-3.43-.43-6.93.16-10.34,1.04-6.19,3.85-12.06,8-16.76Z"/>
        <path class="cls-12" d="M170.15,70.43c3.28-1.61,6.59-3.25,10.14-4.17-1.7,2.02-3.73,3.8-4.9,6.22-3.65,7.34-4.13,16.48-.29,23.84-2.45.95-5.15,1.09-7.75,1.32-3.45.14-7.34.22-10.23-1.99-1.79-1.26-2.09-3.67-2.01-5.69.22-1.88.58-3.77,1.3-5.52,2.99-5.95,7.94-10.79,13.73-14.02Z"/>
        <path class="cls-12" d="M90.4,75.86c5.82-1.23,11.97-.11,17.2,2.64,4.64,2.59,8.89,5.95,12.23,10.1,1.57,2.11,3.45,4.76,2.5,7.51-.86,1.81-3.27,1.72-4.91,1.19-9.16-2.88-16.65-10.13-26.47-11.09-2.99-.52-6.52-.19-8.82-2.54-.76-1.13.02-2.39.72-3.31,1.75-2.5,4.7-3.77,7.56-4.51Z"/>
        <path class="cls-6" d="M146.1,72.49c2.91-2.42,6.21-4.32,9.62-5.96.09.17.28.51.38.67-1.98,1.07-4.32,1.77-5.71,3.64-.86,1.5-2.82,1.28-4.28,1.64Z"/>
        <path class="cls-5" d="M133.12,80.02c4.47-.55,7.95-3.68,11.39-6.3l.63.13c-2.71,2.71-5.93,4.96-9.53,6.3-1.01.41-2.11.26-3.16.14.2-.52.41-1.03.6-1.55.02.31.05.95.07,1.27Z"/>
        <path class="cls-7" d="M177.45,85.91c.18-2.56-.26-5.28.83-7.69.07.39.22,1.15.29,1.53-.58,3.41-.58,6.91-.16,10.34-1.35-.96-.87-2.77-.96-4.18Z"/>
        <path class="cls-9" d="M168.62,226.22c.69-.49,1.4.06,2.05.33-2.96,1.09-6.04,1.9-9.16,2.37-3.44.45-6.8-.72-9.79-2.32.3-.06.89-.18,1.19-.24,4.8,2.83,10.84,2.18,15.71-.14Z"/>
        <path class="cls-8" d="M33.79,134.48c.29,4.18.71,8.35,1.43,12.48-.52-.96-1.06-1.91-1.43-2.93v-9.55Z"/>
        <path class="cls-17" d="M216.57,151.28c-.04-.15-.14-.45-.18-.6,3.3,2.07,6.9,3.79,10.77,4.45l.04.24c-4.95,13.64-11.49,26.73-19.63,38.75.04-1.51.99-2.71,1.75-3.94,4.1-6.4,7.76-13.08,10.93-19.98.95-2.33,2.41-4.43,3.13-6.86.99-2.55,2.37-4.95,3.03-7.62-2.02-.92-4.26-1.23-6.23-2.28-1.24-.65-2.44-1.39-3.61-2.17Z"/>
        <path class="cls-17" d="M37.68,153.45c1.14,1.37,1.41,3.2,2.14,4.79.99,3.03,2.44,5.88,3.95,8.68,6.11,10.79,14.53,20.02,23.22,28.75,10.46,10.24,23.15,18.27,37.02,23.02,8.79,2.81,18.6,4.62,27.51,1.27,7.15-2.47,14.96-2.85,22.36-1.38,3.81.7,7.4,2.31,11.22,2.97,7.09.7,14.04-2.11,19.83-6,2.46-1.41,4.56-3.32,7.02-4.73-.45,1.29-1.48,2.14-2.52,2.95-1.02,1.21-2.23,2.24-3.5,3.18-.4.02-.79.05-1.19.08-1.25,1.36-2.66,2.6-4.28,3.5-.69.35-1.21.92-1.66,1.54l.64.25c-2.77,1.7-5.74,3.02-8.76,4.21-.65-.26-1.36-.82-2.05-.33-4.87,2.32-10.91,2.98-15.71.14-.3.06-.89.18-1.19.24-3.58-1.94-7-4.81-11.3-4.73-4.92-.09-8.98,2.98-13.29,4.9-3.19,1.31-6.53,2.43-10.01,2.55-5.32.13-10.53-1.4-15.41-3.41-10.16-4.29-19.37-10.51-28.23-17-9.09-6.49-16.8-14.84-22.89-24.17.21-.67.79-1.43.33-2.12-.8-1.13-1.99-1.94-2.65-3.18-.6-1.08-1.18-2.29-2.45-2.7-3.57-6.61-6.41-13.61-8.49-20.83.04-.83.18-1.65.35-2.46Z"/>
        <path class="cls-16" d="M45.82,176.74c1.27.41,1.85,1.62,2.45,2.7.66,1.24,1.86,2.05,2.65,3.18.46.69-.12,1.45-.33,2.12-1.72-2.59-3.3-5.27-4.78-8Z"/>
        <path class="cls-4" d="M203.49,198.71c.5-.82,1.13-1.55,1.85-2.19-.12.46-.25.91-.39,1.37-6.95,9.56-15.29,18.37-25.51,24.44l-.64-.25c.44-.62.96-1.2,1.66-1.54,1.63-.9,3.03-2.14,4.28-3.5.4-.03.79-.06,1.19-.08,1.27-.94,2.48-1.96,3.5-3.18,1.04-.81,2.07-1.66,2.52-2.95,1.38-1.12,2.8-2.21,4.02-3.52,2.55-2.83,5.43-5.39,7.52-8.61Z"/>
      </g>
    </g>
  </g>
</svg>