<?xml version="1.0" encoding="UTF-8"?>
<svg xmlns="http://www.w3.org/2000/svg" version="1.1" viewBox="0 0 308.4 298.1">
  <defs>
    <style>
      .cls-1 {
        fill: #febb1f;
      }

      .cls-1, .cls-2, .cls-3 {
        fill-rule: evenodd;
      }

      .cls-4 {
        fill: none;
        stroke: #231f20;
        stroke-miterlimit: 10;
        stroke-width: 1.4px;
      }

      .cls-2 {
        fill: #fff;
      }

      .cls-5 {
        opacity: .2;
      }

      .cls-3 {
        fill: #1d2e2f;
      }

      .cls-6 {
        fill: #010101;
      }
    </style>
  </defs>
  <!-- Generator: Adobe Illustrator 28.7.0, SVG Export Plug-In . SVG Version: 1.2.0 Build 136)  -->
  <g>
    <g id="Layer_1">
      <g>
        <g id="Kszta_xB3_t_x5F_15_x5F_1_x5F_">
          <path class="cls-3" d="M196,52.2c-.3-1.1-.7-2.2-1.3-3.2-.6-1-1.3-2-2.1-2.8-.9-.9-1.8-1.6-2.8-2.2-1.1-.6-2.2-1.1-3.4-1.4-1.2-.3-2.5-.5-3.7-.5-1.3,0-2.6.2-3.8.5-.4.1-.9.3-1.3.4-.8.3-1.6.7-2.3,1.1-1.2.7-2.2,1.5-3.1,2.5-1,1-1.8,2.1-2.4,3.3-.7,1.2-1.2,2.5-1.5,3.9,0,0-6.3,24-6.3,24.1,0,.9.5,1.7,1.4,1.9.9.2,1.7-.2,2.1-1,0,0,6.4-24,6.4-24.1.3-1,.6-2,1.2-3,.5-.9,1.1-1.8,1.9-2.5.7-.7,1.5-1.4,2.4-1.9.8-.5,1.7-.9,2.7-1.2.9-.3,1.9-.4,2.8-.4.9,0,1.8.1,2.8.3.9.2,1.7.6,2.5,1,.8.4,1.5,1,2.1,1.6.6.6,1.1,1.3,1.5,2,.4.7.7,1.5.9,2.3.2.8.3,1.6.3,2.4,0,.8-.1,1.5-.3,2.3-.2.7-.5,1.4-.9,2.1-.4.6-.8,1.2-1.3,1.7-.5.5-1.1.9-1.7,1.2-.6.3-1.2.6-1.9.7-.6.1-1.3.2-1.9.2-.6,0-1.2-.1-1.8-.3-.5-.2-1.1-.4-1.6-.7-.5-.3-.9-.7-1.3-1.1-.3-.4-.7-.8-.9-1.3-.2-.4-.4-.9-.5-1.4,0-.5-.1-.9,0-1.4,0-.4.1-.9.3-1.3.1-.4.3-.8.6-1.1.2-.3.5-.6.8-.9.3-.2.6-.4.9-.6.3-.1.6-.2,1-.3.3,0,.6,0,.9,0,.3,0,.6.1.8.2.2,0,.5.2.7.4.2.1.3.3.5.5.1.1.2.4.3.6,0,.1,0,.4.1.5,0,.1,0,.3,0,.4,0,0,0-.2-.1-.2-.6-.8-1.7-1-2.5-.5-.3.2-.4.3-.6.6-.2.2-.4.7-.5,1.1,0,.3,0,.8,0,1.2,0,.3.3.7.5,1,.2.2.5.6.8.8.2.1.7.3,1.1.4.3,0,.7,0,1.2,0,.4,0,.8-.2,1.2-.4.4-.2.8-.5,1.1-.7.3-.3.6-.7.8-1.1.2-.4.4-.9.5-1.3.1-.5.2-1,.1-1.5,0-.5-.1-1.1-.3-1.5-.2-.5-.5-1-.7-1.5-.3-.5-.7-.9-1.2-1.2-.5-.4-1-.7-1.5-.9-.6-.2-1.2-.4-1.8-.5-.6,0-1.3,0-1.9,0-.7.1-1.3.3-1.9.6-.6.3-1.2.7-1.8,1.1-.6.5-1.1,1-1.4,1.6-.4.6-.8,1.3-1,2-.3.7-.4,1.5-.5,2.3,0,.8,0,1.6.2,2.4.2.8.5,1.6.8,2.3.4.8.9,1.5,1.4,2.1.6.7,1.3,1.2,2,1.7.8.5,1.6.9,2.5,1.1.9.3,1.8.4,2.7.5,1,0,1.9,0,2.8-.3,1-.2,1.9-.6,2.7-1.1.9-.5,1.7-1.1,2.4-1.8.8-.7,1.4-1.6,1.9-2.5.5-.9,1-1.9,1.3-2.9.3-1.1.5-2.2.5-3.3,0-1.1-.1-2.3-.4-3.3Z"/>
        </g>
        <g id="Kszta_xB3_t_x5F_15_x5F_kopiuj_x5F_1_x5F_">
          <path class="cls-3" d="M131.5,53.9c-.3-1.3-.8-2.6-1.5-3.9-.6-1.2-1.5-2.3-2.4-3.3-.9-1-2-1.8-3.1-2.5-.7-.4-1.5-.8-2.3-1.1-.4-.2-.8-.3-1.3-.4-1.2-.3-2.5-.5-3.8-.5-1.2,0-2.5.1-3.7.5-1.2.3-2.3.8-3.4,1.4-1,.6-2,1.3-2.8,2.2-.8.8-1.5,1.8-2.1,2.8-.6,1-1,2.1-1.3,3.2-.3,1.1-.4,2.2-.4,3.3,0,1.1.2,2.2.5,3.3.3,1,.7,2,1.3,2.9.5.9,1.2,1.7,1.9,2.5.7.7,1.5,1.3,2.4,1.8.9.5,1.8.8,2.7,1.1.9.2,1.9.3,2.8.3.9,0,1.8-.2,2.7-.5.9-.3,1.7-.6,2.5-1.1.7-.5,1.4-1,2-1.7.6-.6,1.1-1.3,1.4-2.1.4-.7.6-1.5.8-2.3.2-.8.2-1.6.2-2.4,0-.7-.2-1.5-.5-2.3-.2-.7-.6-1.4-1-2-.4-.6-.9-1.1-1.4-1.6-.5-.4-1.1-.8-1.8-1.1-.6-.3-1.3-.5-1.9-.6-.6,0-1.3-.1-1.9,0-.6,0-1.2.2-1.8.5-.5.2-1.1.5-1.5.9-.4.3-.8.8-1.2,1.2-.3.4-.6.9-.7,1.5-.2.5-.3,1-.3,1.5,0,.5,0,1,.1,1.5,0,.4.3.9.5,1.3.2.4.5.8.8,1.1.3.3.7.5,1.1.7.3.2.8.3,1.2.4.4,0,.9,0,1.2,0,.4,0,.8-.3,1.1-.4.3-.2.7-.5.8-.8.2-.3.4-.8.5-1,0-.4,0-.9,0-1.2,0-.4-.3-.9-.5-1.1-.2-.2-.4-.4-.6-.6-.8-.6-1.9-.4-2.5.5,0,0,0,.2-.1.2,0-.1,0-.3,0-.4,0-.2,0-.4.1-.5,0-.2.2-.4.3-.6.1-.2.3-.4.5-.5.2-.2.4-.3.7-.4.3-.1.6-.2.8-.2.3,0,.6,0,.9,0,.3,0,.7.2,1,.3.3.2.7.4.9.6.3.3.6.6.8.9.2.4.4.8.6,1.1.1.4.2.9.3,1.3,0,.5,0,1,0,1.4-.1.5-.3,1-.5,1.4-.2.5-.6.9-.9,1.3-.4.4-.8.8-1.3,1.1-.5.3-1,.6-1.6.7-.6.2-1.2.3-1.8.3-.6,0-1.3,0-1.9-.2-.6-.2-1.3-.4-1.9-.7-.6-.3-1.2-.8-1.7-1.2-.5-.5-1-1.1-1.3-1.7-.4-.7-.7-1.3-.9-2.1-.2-.8-.3-1.5-.3-2.3,0-.8,0-1.6.3-2.4.2-.8.5-1.6.9-2.3.4-.8.9-1.4,1.5-2,.6-.6,1.3-1.2,2.1-1.6.8-.5,1.6-.8,2.5-1,.9-.2,1.8-.4,2.8-.3,1,0,1.9.1,2.8.4,1,.3,1.9.7,2.7,1.2.9.5,1.7,1.2,2.4,1.9.7.8,1.4,1.6,1.9,2.5.5,1,.9,2,1.2,3,0,.1,6.4,24,6.4,24.1.3.8,1.2,1.2,2.1,1,.9-.2,1.4-1,1.4-1.9,0,0-6.3-24-6.3-24.1Z"/>
        </g>
        <g id="Elipsa_4" class="cls-5">
          <ellipse class="cls-6" cx="148" cy="243.4" rx="67.4" ry="20.9"/>
        </g>
        <g id="Kszta_xB3_t_x5F_4_x5F_1_x5F_">
          <path class="cls-2" d="M234.4,138.9s48.8-26.3,22.8-53.2c-26-26.8-61,.5-77.8,30.4-16.8,29.8,32.3,47.5,32.3,47.5,0,0,42.4,22,47.5,0,5.1-22-24.7-24.7-24.7-24.7Z"/>
          <path class="cls-4" d="M234.4,138.9s48.8-26.3,22.8-53.2c-26-26.8-61,.5-77.8,30.4-16.8,29.8,32.3,47.5,32.3,47.5,0,0,42.4,22,47.5,0,5.1-22-24.7-24.7-24.7-24.7Z"/>
        </g>
        <g id="Kszta_xB3_t_x5F_4_x5F_kopiuj_x5F_1_x5F_">
          <path class="cls-2" d="M120.5,116.2c-16.8-29.8-51.8-57.2-77.8-30.4-26,26.8,22.8,53.2,22.8,53.2,0,0-29.8,2.6-24.7,24.7,5.1,22,47.5,0,47.5,0,0,0,49.1-17.6,32.3-47.5Z"/>
          <path class="cls-4" d="M120.5,116.2c-16.8-29.8-51.8-57.2-77.8-30.4-26,26.8,22.8,53.2,22.8,53.2,0,0-29.8,2.6-24.7,24.7,5.1,22,47.5,0,47.5,0,0,0,49.1-17.6,32.3-47.5Z"/>
        </g>
        <g id="Kszta_xB3_t_x5F_1_x5F_58_x5F_">
          <path class="cls-3" d="M180.1,74.5c-9.5-6.2-20-9.9-31.2-9.9,0,0,0,0,0,0h0s0,0,0,0c-11.2,0-21.7,3.7-31.2,9.9-32.4,21.2-53.1,72.3-48.8,112.3.6,7.1,1.9,13.9,4.1,20.3,4.9,14.6,17.1,25,32.6,31.2-3.8,2.4.4,11.3,12.2,12.7,7.5.9,11.3-3.2,13.1-6.3,5.9.7,12,1,18.1.9,5.8.1,11.7-.1,17.4-.8,1.7,3,5.9,8.2,14.5,6.3,10.6-2.3,12.1-8.1,11-12.5,15.7-6.2,28.1-16.6,33.1-31.4,2.1-6.3,3.4-13.2,4.1-20.3,4.3-40-16.4-91.1-48.8-112.3Z"/>
        </g>
        <g id="Elipsa_6">
          <path class="cls-1" d="M216.3,158.9c-6.1-35.1-25-71.3-67.1-71.3s-61.5,36.2-67.5,71.3c-6.7,39,27,63.5,67.5,63.5s73.8-24.5,67.1-63.5Z"/>
        </g>
        <g id="Prostok_xB9_t_x5F_1_x5F_1_x5F_">
          <path class="cls-3" d="M149.2,175c-46.7,0-76.2-24.7-76.2-24.7v28.5s31.4,24.7,75.9,24.7,76-24.7,76-24.7v-28.5s-29,24.7-75.7,24.7Z"/>
        </g>
        <g id="Prostok_xB9_t_x5F_1_x5F_kopiuj_x5F_2_x5F_1_x5F_">
          <path class="cls-3" d="M209.7,120s-21.6,13.8-62.5,13.8-62.8-13.8-62.8-13.8l-7.6,17.6s31.3,18.4,70.2,18.4,70.3-18.4,70.3-18.4l-7.6-17.6Z"/>
        </g>
        <g id="Kszta_xB3_t_x5F_1_x5F_kopiuj_x5F_6_x5F_49_x5F_">
          <path class="cls-3" d="M157.5,95.3c-3.7,0-6.6,3.4-6.6,7.6s3,7.6,6.6,7.6,6.6-3.4,6.6-7.6-3-7.6-6.6-7.6ZM136.6,95.3c-3.7,0-6.6,3.4-6.6,7.6s3,7.6,6.6,7.6,6.6-3.4,6.6-7.6-3-7.6-6.6-7.6Z"/>
        </g>
      </g>
    </g>
  </g>
</svg>