<?xml version="1.0" encoding="UTF-8"?>
<svg xmlns="http://www.w3.org/2000/svg" version="1.1" viewBox="0 0 392.6 308.4">
  <defs>
    <style>
      .cls-1 {
        fill: #245227;
      }

      .cls-2 {
        fill: #22793c;
      }

      .cls-3 {
        fill: #c77137;
      }

      .cls-3, .cls-4, .cls-5, .cls-6 {
        fill-rule: evenodd;
      }

      .cls-7 {
        fill: #f9d506;
      }

      .cls-4 {
        fill: #cf6737;
      }

      .cls-8 {
        opacity: .2;
      }

      .cls-9 {
        fill: #fedf41;
      }

      .cls-5 {
        fill: #1d2e2f;
      }

      .cls-10 {
        display: none;
      }

      .cls-6 {
        fill: #f7976c;
      }

      .cls-11 {
        fill: #010101;
      }
    </style>
  </defs>
  <!-- Generator: Adobe Illustrator 28.7.0, SVG Export Plug-In . SVG Version: 1.2.0 Build 136)  -->
  <g>
    <g id="Layer_1">
      <g class="cls-10">
        <g id="Elipsa_4" class="cls-8">
          <ellipse class="cls-11" cx="196.4" cy="259.4" rx="71" ry="22"/>
        </g>
        <g id="shape">
          <path class="cls-5" d="M161.4,253.4c-10.1-2.2-8.2-7.1-10.7-.7-1.8,4.7-1.3,12,11.1,14.7,3.1.7,5.6.5,7.7-.2,8.4-1.6,10.3-10.2,10.3-10.2,0,0-2.9-.5-9.7-1.3-2.5-.8-5.4-1.6-8.8-2.3ZM242.1,252.7c-2.5-6.4-.6-1.5-10.7.7-3.4.7-6.3,1.6-8.8,2.3-6.8.8-9.7,1.3-9.7,1.3,0,0,1.9,8.6,10.3,10.2,2.1.7,4.6.8,7.7.2,12.5-2.7,12.9-10,11.1-14.7Z"/>
        </g>
        <g id="Elipsa_73">
          <path class="cls-6" d="M253.6,83.4c-14.3,0-25.9,12.1-25.9,27s11.6,27,25.9,27,25.9-12.1,25.9-27-11.6-27-25.9-27ZM139.3,83.4c-14.3,0-25.9,12.1-25.9,27s11.6,27,25.9,27,25.9-12.1,25.9-27-11.6-27-25.9-27Z"/>
        </g>
        <g id="shape-2" data-name="shape">
          <path class="cls-5" d="M312.2,73.9c.7-3.3,4.5-20.4-12-19-16.5,1.4-17.2,16.2-13.5,22.8,3.7,6.7,10.2,27.8-.1,43.9-10.3,16.1-8.5,13.3-23.2,19.4-14.7,6.1-27.2,38.5-3.7,37.5,23.5-.9,41.2-15.5,52.4-43.8,11.3-28.4-.7-57.4,0-60.8ZM129.5,140.9c-14.7-6.1-12.9-3.3-23.2-19.4-10.3-16.1-3.9-37.2-.1-43.9,3.7-6.7,3-21.4-13.5-22.8-16.5-1.4-12.7,15.7-12,19,.7,3.3-11.3,32.4,0,60.8,11.3,28.4,29,42.9,52.4,43.8,23.5.9,11-31.4-3.7-37.5Z"/>
        </g>
        <g id="shape-3" data-name="shape">
          <path class="cls-3" d="M351.4,50.6c-1.4-3.1-4.7-5.9-4.7-5.9,0,0-14,7.2-40,14.2.7,1.8.7,4.6-1.2,6.5-2.7,2.7-8,3.3-14,4-6,.7-8-4-8-4,0,0,.2-.5.4-1.2-19,3.8-41.9,6.7-68.5,7.4-43.6,1.1-83.9-1.7-114.2-5.5-1,2-3.8,4.6-13.7,3.4-8.5-1-10-3.6-10.1-6.9-14.8-2.6-25.1-5.2-29.4-7.2-9,.8-5.5,11.6-5.5,11.6,0,0,85,20.2,173.5,15.9,88.5-4.3,137.5-23.5,137.5-23.5,0,0-.1-4.7-2-8.7Z"/>
        </g>
        <g id="shape-4" data-name="shape">
          <path class="cls-5" d="M228.9,82.6c-10.4-7.2-22-11.4-34.4-11.4,0,0,0,0,0,0h0c-12.4,0-24,4.3-34.4,11.4-33.2,22.9-54.2,75.6-49.9,117,.6,7.6,2,14.8,4.3,21.5,9.5,28.3,44.8,41.3,80,40.4,35.3.9,70.5-12.1,80-40.4,2.3-6.7,3.7-14,4.3-21.5,4.4-41.4-16.7-94.1-49.9-117ZM295.1,72.7c-1.9-4.7,3.9-4.4-1.3-8.8-5.1-4.4-17.4,5.5-12.3,14.1,5.1,8.6,18.3,15.5,20.6,13.3,2.3-2.2-5.1-13.9-7-18.6ZM99,63.8c-5.1,4.4.6,4.1-1.3,8.8-1.9,4.7-9.3,16.4-7,18.6,2.3,2.2,15.4-4.8,20.6-13.3,5.1-8.6-7.1-18.5-12.3-14.1Z"/>
        </g>
        <g id="Elipsa_72">
          <path class="cls-6" d="M230.2,130.9c.2-1.8.3-3.6.3-5.4,0-17.7-8.7-32-19.4-32s-12,1.8-15.6,7c-3.5-5.2-9.2-7-15.6-7-10.7,0-19.4,14.3-19.4,32s.2,4.9.5,7.3c-6.6,7.3-10.5,16.6-10.5,26.7,0,23.2,20.6,42,46,42s46-18.8,46-42-4.7-21.1-12.3-28.6Z"/>
        </g>
        <g id="shape-5" data-name="shape">
          <path class="cls-5" d="M210.4,111.4c-3.9,0-7,3.6-7,8s3.1,8,7,8,7-3.6,7-8-3.1-8-7-8ZM182.4,111.4c-3.9,0-7,3.6-7,8s3.1,8,7,8,7-3.6,7-8-3.1-8-7-8Z"/>
        </g>
        <g id="shape-6" data-name="shape">
          <path class="cls-4" d="M211,173.2c-.2-.6-.3-1.3-.5-1.9-.3-1-1.3-1.7-2.4-1.5-7.7,1.6-15.7,1.6-23.4,0-1.1-.2-2.1.4-2.4,1.5-.2.6-.3,1.3-.5,1.9-.3,1,.5,2.1,1.7,2.4,8.5,1.7,17.3,1.7,25.8,0,1.2-.2,1.9-1.3,1.7-2.4Z"/>
        </g>
        <g id="shape-7" data-name="shape">
          <path class="cls-5" d="M204.5,139.9c-2.3,0-4.1,2-4.1,4.5s1.9,4.5,4.1,4.5,4.1-2,4.1-4.5-1.9-4.5-4.1-4.5ZM188.3,139.9c-2.3,0-4.1,2-4.1,4.5s1.9,4.5,4.1,4.5,4.1-2,4.1-4.5-1.9-4.5-4.1-4.5Z"/>
        </g>
      </g>
      <g>
        <path class="cls-2" d="M141.1,45.6c-.3-2.9,3.6-5.4,5.9-3.3.8,1.4,1,3,1.6,4.5,2,4.8,3.9,9.7,6.2,14.3,1.7,1.1,3.9,2,5.9,1.2.7-.2,1.3-.5,2-.7,6-1.5,12.1-2.4,18.3-2.2,11.3.2,22.5,2,33.5,4.5,2,.5,4.1,1.2,6.2,1,0,0,.3,0,.4,0,0,.2.3.7.4.9-5.1.7-10.3,1.3-15.1,3.3-2.4,1-4.6,2.3-7.1,3.1-7.2,2.1-15,3-22.4,1.2-3.7-.9-7.2-2.8-9.9-5.5-1.5-1.4-2.6-3.3-4.5-4.2-2.1-.1-4.2.3-6.3.2,1.2,2.6,2.5,5.2,4.2,7.4l.2.3c.1,1.4.4,3-.4,4.3-1,1-2.7,1.6-4.1,1-.8-.7-1.2-1.8-1.7-2.8.5-1.6-.3-3.1-.9-4.6-1.5-3.5-3-7-5.1-10.3-.9,2.3-1.9,4.7-3.6,6.6-1.3,1.7-3.4,3.3-3.1,5.6.5,2.7,1.3,5.4,1.9,8.1,2.7,7.9,1.4,16.4-1.4,24.1-4.6,11.2-12.2,20.9-21,29.1-3.5,2.9-7.1,5.8-11.1,8.1-8.9,5.4-15.7,13.5-21.3,22.2-.2-.1-.6-.3-.8-.4,2.7-9.2,6.1-18.2,9.6-27.2,6.1-15.2,12.9-30.1,21.7-44,5.8-9,12.7-17.5,21.2-24.1,3.4-2.3,4.7-6.5,5-10.5,0-1.2.3-2.5-.3-3.5-1.4-2.4-3.1-4.8-4-7.5Z"/>
        <path class="cls-1" d="M162.7,61.5c2.9-5.4,6.9-10.6,12.7-12.9,7.9-2.9,16.6-1,24.1,2.4,6,2.9,12,5.9,17.2,10,1.4,1.1,2.9,2.3,4,3.8-2.1.2-4.2-.5-6.2-1-11-2.4-22.2-4.3-33.5-4.5-6.2-.2-12.3.7-18.3,2.2Z"/>
        <path class="cls-1" d="M108.5,73.8c6.7-4,14.5-5.4,22.2-5.7,3.3,0,6.7.7,9.7-1-8.5,6.6-15.4,15.1-21.2,24.1-8.7,13.8-15.6,28.8-21.7,44-3.5,9-6.9,18-9.6,27.2.2.1.6.3.8.4-.4.7-.9,1.5-1.3,2.2-3.1-9.1-3.3-18.9-3.2-28.5.2-6.7.7-13.3,1.6-19.9.9-7.7,2.6-15.3,5.7-22.4,3.6-8.2,9.1-15.8,16.8-20.5Z"/>
        <path class="cls-1" d="M160.2,75.8c.8-1.3.5-2.9.4-4.3,1.4,0,3.5-.4,4,1.3.9,5.2-5.7,9.8-10.3,7.1-1.4-.6-2.2-2-2.7-3.4.8-.9,1.7-1.8,2.7-2.5.5,1,.9,2.1,1.7,2.8,1.4.5,3.1,0,4.1-1Z"/>
        <path class="cls-7" d="M166.9,67.8c2.7,2.7,6.2,4.6,9.9,5.5,7.4,1.8,15.2.9,22.4-1.2,2.2.9,4.5.8,6.8,1.3,7.2,1.4,14.5,2.8,21.2,5.9,9.8,4.8,19.5,10,27.9,17.1,2.8,1.8,5,4.4,7.6,6.5,4.8,4.8,9.3,9.9,13.1,15.6,3.8,5.8,7.3,11.9,9.2,18.7,3.4,10.1,5.3,20.7,6,31.3.7,9.3,0,18.8-2.6,27.8-1.1,3.2-2.2,6.4-3.7,9.5-3.9,7.8-8.5,15.2-13.5,22.4-3.1,4.6-6.9,8.6-9.9,13.2-3.4,6.1-4,13.8-9.4,18.6-3.8,2.2-8.6,4.1-12.8,2.1-3.5-1.5-6.9-3-10.6-3.8-6.5-1.8-13-3.2-19.7-3.9-3.6-.3-7.2-.8-10.8-1.2-6.6-1.4-13.2-3.2-19.6-5.6-6.7-2.7-13.1-6-19.1-9.9-8.2-5.6-15.7-12.3-21.2-20.7-4.1-6-7.3-12.7-9.1-19.7.1,1.4.6,2.7.7,4-1.1-4.2-3-8.1-4.2-12.3-2.5-8.3-5.5-16.5-6.6-25.1-1.1-5.9-1.2-12-.8-18,.5-4.5,1.2-9,3-13.2,8.8-8.2,16.4-17.9,21-29.1,2.8-7.6,4.1-16.2,1.4-24.1,2.6-1.1,5.2-2.4,8-2.9.5,1.4,1.3,2.8,2.7,3.4,4.5,2.7,11.2-1.9,10.3-7.1-.5-1.8-2.6-1.3-4-1.3l-.2-.3c2-1.5,4.2-2.6,6.5-3.4ZM144.3,126.5c-3.3,1.8-7.3,3-9.5,6.4-1.3,1.8-3,3.3-4.1,5.2-2.4,5.1-2.8,10.7-3.8,16.2-.3,2.8,0,5.6-.2,8.3.6,6.5,1.5,13.1,4.2,19,.9,2.1,1.4,4.4,2.5,6.4,1.7,3,2.6,6.6,4.8,9.3,1.8,2.3,3.4,5.1,6.2,6.2,1,.4,2,1,3.1,1,2.1-.3,4.4-1.1,5.6-3,2.3-2.8,2.9-6.4,3.9-9.8.8-2.4,0-5,.5-7.5.4-2.6,0-5.2.2-7.7.4-4.7,1.1-9.4,1.9-14.1.7-2.5,1.1-5.2,2.3-7.6,2.4-4.7,5.3-9.1,6.8-14.2,1.2-2.9.6-6,0-8.9-1.1-3.7-4.3-6.9-8.2-7.5-5.5-.8-11.3-.2-16.4,2.3Z"/>
        <path class="cls-9" d="M144.3,126.5c5-2.4,10.8-3.1,16.4-2.3,3.9.6,7.1,3.8,8.2,7.5.5,2.9,1.1,6.1,0,8.9-1.5,5.1-4.4,9.5-6.8,14.2-1.2,2.4-1.6,5-2.3,7.6-.8,4.7-1.6,9.4-1.9,14.1-.1,2.6.2,5.2-.2,7.7-.5,2.5.4,5.1-.5,7.5-1,3.4-1.6,7-3.9,9.8-1.2,1.9-3.5,2.7-5.6,3-1.1,0-2.1-.6-3.1-1-2.8-1.1-4.4-3.9-6.2-6.2-2.2-2.8-3.1-6.3-4.8-9.3-1.1-2-1.6-4.3-2.5-6.4-2.7-6-3.7-12.6-4.2-19,.2-2.8-.1-5.6.2-8.3,1-5.4,1.4-11.1,3.8-16.2,1.1-2,2.8-3.4,4.1-5.2,2.2-3.3,6.1-4.6,9.5-6.4Z"/>
      </g>
    </g>
  </g>
</svg>