<?xml version="1.0" encoding="UTF-8"?>
<svg xmlns="http://www.w3.org/2000/svg" version="1.1" viewBox="0 0 311.8 311.8">
  <defs>
    <style>
      .cls-1 {
        fill: #79bbd8;
      }

      .cls-2 {
        fill: #a7d9f2;
      }

      .cls-3 {
        fill: #4da3c9;
      }

      .cls-4 {
        fill: #f1f9fb;
      }

      .cls-5 {
        fill: #a9d9ec;
      }

      .cls-6 {
        fill: #75b9d6;
      }

      .cls-7 {
        fill: #478faf;
      }

      .cls-8 {
        fill: #4b92ac;
      }

      .cls-9 {
        fill: #d1e7f1;
      }

      .cls-10 {
        fill: #b3ddee;
      }

      .cls-11 {
        fill: #2982a5;
      }

      .cls-12 {
        fill: #a5d8ee;
      }

      .cls-13 {
        fill: #7abad8;
      }

      .cls-14 {
        fill: #04577a;
      }

      .cls-15 {
        fill: #eff8fa;
      }

      .cls-16 {
        fill: #2b8faf;
      }

      .cls-17 {
        fill: #7bbad7;
      }

      .cls-18 {
        fill: #095579;
      }

      .cls-19 {
        fill: #6eb0ce;
      }

      .cls-20 {
        fill: #b8dbeb;
      }

      .cls-21 {
        fill: #a9d8f2;
      }

      .cls-22 {
        fill: #abd7ec;
      }

      .cls-23 {
        fill: #a8d7eb;
      }

      .cls-24 {
        fill: #348db2;
      }

      .cls-25 {
        fill: #dcb0c2;
      }

      .cls-26 {
        fill: #52a4cd;
      }

      .cls-27 {
        fill: #79bad7;
      }

      .cls-28 {
        fill: #68b1d3;
      }

      .cls-29 {
        fill: #2b82aa;
      }

      .cls-30 {
        fill: #348aae;
      }
    </style>
  </defs>
  <!-- Generator: Adobe Illustrator 28.7.0, SVG Export Plug-In . SVG Version: 1.2.0 Build 136)  -->
  <g>
    <g id="Layer_1">
      <g>
        <path class="cls-13" d="M112.9,38.1c5.5-.7,11.1-1.7,16.6-.9,8.9,1.2,16.8,5.8,24.2,10.6,4.8,2.9,7.9,8.2,8.4,13.8-.6,6.4-7.1,10.7-13.2,10.4-13.6,0-27.2-4.6-40.8-1.4-7.2,2.1-14.9,5-22.5,2.7-4.7-1-6.6-6.2-7.3-10.4,1-5.1,5-8.9,8.6-12.4,1.3-1.4,3.1-1.7,4.8-2-4,4.4-10,8.6-10.1,15.1,4,.4,6.7-3.2,9.3-5.7,7-8.2,18-11.1,28.3-12.4,6.3-1,12.1,1.9,18.2,2.6,1.6.4,2.9-.9,3.7-2-2.1-3-4.9-5.6-8.6-6.3-8-1.7-16.3-.7-24.3.8.4-2.1,2.7-2.1,4.5-2.4ZM145.5,48.4c-1.6,5,5.4,9.1,8.9,5.2-.8-4-5-6.5-8.9-5.2Z"/>
        <path class="cls-22" d="M108.4,40.6c8-1.4,16.3-2.5,24.3-.8,3.7.7,6.5,3.3,8.6,6.3-.9,1.2-2.1,2.4-3.7,2-6.1-.7-12-3.6-18.2-2.6-10.3,1.3-21.3,4.2-28.3,12.4-2.6,2.5-5.2,6.1-9.3,5.7,0-6.5,6.1-10.7,10.1-15.1,4.8-3.9,10.8-6,16.6-7.9Z"/>
        <path class="cls-9" d="M75.3,111.9c1.9-9.3,5.2-19.5,13.7-24.9,4.1,1.5,8.4,3,11.6,6,6.4,5.9,12.4,12.4,19.6,17.5,6,3.6,13.8,5.8,20.4,2.7,7.2-3.4,10-12.3,17.4-15.4,5.8-.2,11,3.8,16.9,3.3,2.3,3.7,4.1,7.5,6.3,11.3.5-5.7.5-11.4.3-17.2,2.3,9.4-.3,19,.2,28.5-.7,2.1-1.6,4.3-2,6.5.2,2.9.6,6-.8,8.7-2.6,5.9-3.1,12.3-4.5,18.5-.8,3.2-1.5,6.5-1.8,9.9.7,0,2.2,0,2.9,0-1.3,1.3-3.2,2.4-3.5,4.4-2,10.2-.6,20.7,1.4,30.8-.8.6-2,.9-2.5,1.8-2.4,4.7-2.5,10.8-6.7,14.5-4.6,3.8-10.5,6.5-16.6,6.1-6.7-.3-13-2.9-18.8-6-13.6-7.5-25-18.5-35.1-30.1-9.2-10.9-14.6-24.3-20.3-37.2-1.6-13.2-.8-26.7,1.9-39.7Z"/>
        <path class="cls-28" d="M83.5,45.8c13.2-10.1,30.2-15.9,46.9-13.7,6.8,1.1,13.1,4.1,18.8,7.9,6.4,4.3,12.7,9,17.4,15.2,9.1,11.3,13.5,25.7,15.1,39.9.3,5.7.2,11.5-.3,17.2-2.1-3.7-4-7.6-6.3-11.3-1.3-2.2-3-4.5-5.8-4.7,3.2-2.9,7.3-6.1,6.3-11,.3-4.6-4.8-7-8.7-6.8-1.2,0-2.4.1-3.5.3-4.5.2-5.6,4.8-7.2,8.2-1.2,2.4-2.6,4.8-3.8,7.3,0-.4,0-1.3,0-1.7-3.3,2.4-6.4,5.4-10.5,5.9-8.6,1.3-17.2-1.4-25.2-4.5-5.4-2-9.9-5.7-14.3-9.4-.2.3-.5.9-.7,1.2-3.9-2.8-8.7-1.1-12.5,1.1-8.5,5.4-11.8,15.5-13.7,24.9-2.6,13-3.4,26.5-1.9,39.7,2.1,23,10.5,45.8,25.3,63.6,16.6,20.7,41.4,35.3,68,37.6,10.2,1,20.5.2,30.5-2,7-1.5,13.5-4.7,20.3-6.8-7.3,8.3-17.8,12.2-27.1,17.7l3.4.4c-9.3,3.6-19.5,3.9-29.3,3.9-21.8.1-42.8-8.7-60.1-21.7-5.5-4.5-11.9-8.2-15.9-14.1-3.2-5.7-8.2-10.2-11.3-16.1-1.3-2.5-3-4.8-5.2-6.6.4,4.4,2.7,8.2,5.2,11.7-7.3,5.9-14.3,12.3-21.9,17.8-1.5.7-3.1,1.3-4.6,1.9,2.1-6.3,5.5-12.2,9.4-17.5,2.3-3.1,4.8-6.2,5.8-9.9,1.2-4.4.5-9.1.6-13.6.8-4.1-1.7-7.7-3.4-11.2-2.7-5.4-3.5-11.6-7.7-16.2-2.1-2.6-2.6-6-3-9.2-.7-9.2-2.1-18.3-2.9-27.5-.7-6.3.3-12.5-.2-18.8.3-5.6,1.7-11,2.5-16.5,4.3-20.4,14.6-40.3,31.5-52.9ZM112.9,38.1c-1.7.3-4,.3-4.5,2.4-5.8,1.9-11.8,4-16.6,7.9-1.8.3-3.6.6-4.8,2-3.6,3.5-7.6,7.3-8.6,12.4.6,4.3,2.5,9.4,7.3,10.4,7.5,2.3,15.3-.6,22.5-2.7,13.5-3.2,27.2,1.4,40.8,1.4,6.1.3,12.6-4,13.2-10.4-.4-5.6-3.6-10.9-8.4-13.8-7.4-4.8-15.3-9.5-24.2-10.6-5.5-.8-11.1.2-16.6.9ZM163.7,71.9c0,.8,0,2.5,0,3.3,1.7,0,3.4,0,5.1,0,0-.8,0-2.3,0-3.1-1.7-.2-3.4-.2-5.1-.1ZM69.4,76c1.1,1.7,3.3,1.1,5,1.3,0-1.4,0-2.8,0-4.1-1.8.1-5.9-.1-5,2.8ZM110.6,81.9c7.3-.5,14-4.4,21.4-4.1,6.9,0,13.4,3.2,20.4,3.1-3.2-5.3-10.2-5.7-15.8-6.5-9-.6-19.9-.1-26,7.6ZM75.1,80.1c-.5.5-1.4,1.4-1.9,1.8l.5-1c-3.3,0-6.5,1.4-8.3,4.2-2.3,4.1-.4,11.1,4.9,11.4.3.5.8,1.5,1,2.1,4.7-.6,10-3.5,10.4-8.7.6-4.5-3.1-7.9-6.7-9.8ZM120.2,82.9c-2.6.7-4.1,4-2,6.1,5.2,4.9,12.8,5.7,19.7,6,4.5.2,8.5-2.6,11.2-6.1-.1-1.5-.2-3-.3-4.5-2.2-1-4.5-1.4-6.9-1.6v-.9c-1.6,0-3.4,0-5.1-.1-5.5-.5-11.1,0-16.5,1Z"/>
        <path class="cls-12" d="M145.5,48.4c3.9-1.3,8.1,1.3,8.9,5.2-3.5,3.8-10.5-.3-8.9-5.2Z"/>
        <path class="cls-24" d="M163.7,71.9c1.7-.1,3.4,0,5.1.1,0,.8,0,2.3,0,3.1-1.7,0-3.4,0-5.1,0,0-.8,0-2.5,0-3.3Z"/>
        <path class="cls-16" d="M69.4,76c-.9-2.9,3.1-2.7,5-2.8,0,1.4,0,2.8,0,4.1-1.7-.3-3.9.4-5-1.3Z"/>
        <path class="cls-29" d="M110.6,81.9c6-7.7,17-8.1,26-7.6,5.5.8,12.6,1.2,15.8,6.5-6.9,0-13.4-3.2-20.4-3.1-7.4-.3-14.1,3.6-21.4,4.1Z"/>
        <path class="cls-18" d="M156.2,87.1c1.6-3.4,2.6-8.1,7.2-8.2-2.7,2.2-5.7,4.9-5.2,8.7-.4,4.5,3.5,7.5,7.5,8.5-.4-2.9-1.1-5.7-1.3-8.6-.2-3.2,1.4-6.1,2.6-9,3.9-.1,9,2.2,8.7,6.8.9,4.9-3.1,8.2-6.3,11-2.4.2-5.1,1-7.3-.6-3.4-1.7-4.3-5.6-5.8-8.8Z"/>
        <path class="cls-4" d="M163.3,78.9c1.2-.1,2.3-.2,3.5-.3-1.2,2.9-2.8,5.8-2.6,9,.2,2.9.9,5.7,1.3,8.6-4-.9-7.9-4-7.5-8.5-.5-3.8,2.5-6.5,5.2-8.7Z"/>
        <path class="cls-14" d="M75.1,80.1c3.6,1.9,7.3,5.4,6.7,9.8-.4,5.2-5.7,8.2-10.4,8.7-.3-.5-.8-1.5-1-2.1-1.1-5.1,0-10.4,2.9-14.7.5-.4,1.4-1.3,1.9-1.8Z"/>
        <path class="cls-15" d="M65.5,85.1c1.8-2.8,5-4.2,8.3-4.2l-.5,1c-2.9,4.3-4,9.6-2.9,14.7-5.3-.3-7.2-7.3-4.9-11.4Z"/>
        <path class="cls-5" d="M120.2,82.9c5.4-1.1,11-1.5,16.5-1,.6,1.5,1.1,2.9,1.7,4.4-5.9.4-11.9,1.2-17.7,2.3-.4-1.9-.5-3.8-.5-5.7Z"/>
        <path class="cls-1" d="M136.7,81.9c1.7,0,3.5,0,5.2.1v.9c-.2,1.5-.4,3-.5,4.5,2.5.6,5.1,1.1,7.7,1.5-2.6,3.5-6.7,6.2-11.2,6.1-6.8-.3-14.4-1.1-19.7-6-2-2.1-.5-5.4,2-6.1,0,1.9,0,3.8.5,5.7,5.9-1.1,11.8-1.9,17.7-2.3-.6-1.5-1.1-2.9-1.7-4.4Z"/>
        <path class="cls-12" d="M141.8,82.9c2.4.1,4.7.6,6.9,1.6.1,1.5.2,3,.3,4.5-2.6-.4-5.1-.9-7.7-1.5.1-1.5.3-3,.4-4.5Z"/>
        <path class="cls-10" d="M89.1,87c3.7-2.2,8.5-3.9,12.5-1.1,7,8.9,15.1,17.5,25.8,21.9,5.3,2.2,11.9,2,16.7-1.4,4.1-2.9,6.5-7.5,8.3-12.1,1.2-2.5,2.6-4.8,3.8-7.3,1.5,3.2,2.5,7.1,5.8,8.8,2.2,1.6,4.8.8,7.3.6,2.8.2,4.5,2.4,5.8,4.7-6,.6-11.1-3.5-16.9-3.3-7.4,3.1-10.1,12-17.4,15.4-6.6,3.1-14.5.8-20.4-2.7-7.2-5.1-13.2-11.6-19.6-17.5-3.3-3-7.5-4.6-11.6-6Z"/>
        <path class="cls-11" d="M102.2,84.7c4.4,3.6,8.9,7.3,14.3,9.4,7.9,3.1,16.6,5.8,25.2,4.5,4.2-.6,7.3-3.6,10.5-5.9,0,.4,0,1.3,0,1.7-1.8,4.6-4.2,9.2-8.3,12.1-4.8,3.4-11.3,3.7-16.7,1.4-10.7-4.4-18.8-13-25.8-21.9.2-.3.5-.9.7-1.2ZM127.7,105.2c2.8,1.7,6.4,3.2,9.6,1.5,2-.9,1.1-3.3.9-4.9-3.5,0-10.8-2.2-10.5,3.4Z"/>
        <path class="cls-25" d="M127.7,105.2c-.3-5.6,7-3.5,10.5-3.4.2,1.6,1.1,4-.9,4.9-3.2,1.6-6.8.2-9.6-1.5Z"/>
        <path class="cls-3" d="M45.7,119.4c.9-1.7,2.2-3,3.7-4.2.5,6.3-.4,12.5.2,18.8.9,9.2,2.2,18.3,2.9,27.5-4.5,1.2-8.8,2.8-13.1,4.2-3,1-7,.1-8.1-3.1-1.3-6.3,1.2-12.4,3.1-18.3,2.8-8.7,6.6-17,11.2-24.8Z"/>
        <path class="cls-19" d="M181.9,123.7c6.4-2.8,12.9-5.9,19.9-6.4,7.7-.5,16-.5,22.9,3.6,2.9,2.7-.6,6.4-2.8,8.2-11.4,8.9-17,23.5-29.5,31.3-5.3,2.9-10.7,6.1-16.7,6.9-.7,0-2.2,0-2.9,0,.3-3.3,1-6.6,1.8-9.9,5.4-2.1,10.5-4.8,15.8-7,6.6-2.7,9.9-9.5,15-14.1,3.1-3,7.2-4.9,9.9-8.4.4-2.3-1.1-4.3-3.2-5.1-9.8-3.2-20.1,2.3-27.7,8.2-1.5-.3-3-.5-4.5-.8.4-2.3,1.2-4.4,2-6.5Z"/>
        <path class="cls-2" d="M184.4,131c7.6-6,17.9-11.4,27.7-8.2-3.5,1.6-7.2,2.7-10.8,3.9-5.2,1.7-9.5,5.4-14.9,6.6-.7-.8-1.4-1.5-2-2.2Z"/>
        <path class="cls-17" d="M212.1,122.8c2.1.8,3.6,2.8,3.2,5.1-2.7,3.5-6.8,5.4-9.9,8.4-5.1,4.6-8.4,11.4-15,14.1-5.3,2.2-10.4,4.9-15.8,7,1.4-6.2,1.9-12.6,4.5-18.5,1.4-2.7,1-5.8.8-8.7,1.5.3,3,.5,4.5.8.7.7,1.4,1.5,2,2.2,5.4-1.2,9.7-4.9,14.9-6.6,3.6-1.2,7.3-2.3,10.8-3.9Z"/>
        <path class="cls-20" d="M73.5,151.6c5.6,13,11,26.3,20.3,37.2,10.2,11.6,21.5,22.6,35.1,30.1,5.8,3.1,12.1,5.7,18.8,6,6.1.4,12-2.3,16.6-6.1,4.2-3.7,4.4-9.7,6.7-14.5.5-1,1.7-1.2,2.5-1.8,2.6,8.9,7.4,17.5,15.1,22.9,4.9,3.2,10.4,6,16.3,6.2,3.9.2,7.7-.5,11.5-1,1.8,1.7,3.7,3.5,5.2,5.5.5,3.3-2,5.8-4.1,7.9-6.8,2.2-13.2,5.4-20.3,6.8-10,2.2-20.3,3.1-30.5,2-26.6-2.3-51.4-16.9-68-37.6-14.8-17.9-23.3-40.6-25.3-63.6Z"/>
        <path class="cls-7" d="M55.5,170.6c4.2,4.5,5,10.8,7.7,16.2,1.7,3.6,4.2,7.1,3.4,11.2-4.7-6-8-13.1-9.8-20.5-.7-2.2-1.1-4.6-1.3-6.9Z"/>
        <path class="cls-27" d="M56.9,177.5c1.8,7.4,5,14.5,9.8,20.5-.1,4.5.6,9.2-.6,13.6-1,3.8-3.6,6.8-5.8,9.9-4,5.3-7.3,11.2-9.4,17.5,1.6-.6,3.1-1.2,4.6-1.9-2.9,3.4-5.7,7-9.1,10-1.3,1.5-3.3,1-5,1.1-4.8-7.7-5.2-17.2-4.1-26,1.9-13.7,10.9-24.8,17.4-36.6,1.5-2.4,2.2-5.2,2.3-8ZM51.4,202.3c-.6,1.8,2.2,2.6,3.3,1.4,3.1-2,3.7-5.9,3-9.3-3.9.2-5.5,4.6-6.3,7.8ZM48.5,207.7c-4.7,5.5-6.7,13.1-7,20.3.3,3.7.3,9.3,4.8,10.4.5-5.3-.1-10.6.5-15.8.5-4.7,3.2-8.9,3.9-13.6.3-1.3-1.1-2.8-2.1-1.3Z"/>
        <path class="cls-6" d="M248.1,183.4c3.7-1.5,7.7-3.7,11.8-2.4.1,7,.5,14.6-2.2,21.1-6.6,6-10.1,14.5-16.4,20.7-5.4,5.2-12.9,6.3-19.9,7.8.1,1.8.3,3.6.3,5.5-1.6-2-3.4-3.8-5.2-5.5,1.6-4.7,4.6-8.8,5.4-13.8,1.1-6,1.1-12.6,4.6-17.9,5-7.7,13.4-12.1,21.6-15.5Z"/>
        <path class="cls-21" d="M51.4,202.3c.8-3.2,2.4-7.6,6.3-7.8.7,3.4,0,7.3-3,9.3-1.1,1.2-3.9.3-3.3-1.4Z"/>
        <path class="cls-26" d="M241.3,222.8c6.4-6.2,9.8-14.7,16.4-20.7-.9,13.1-7.6,25.9-18.1,34-3.9-.4-7.8-.7-11.7,0-.1.4-.3,1.4-.4,1.8,6.2,1,12.4,1.6,18.7.9,2.4,0,4.4,1.4,6.5,2.4,12.5,6.5,21.1,18.2,28.7,29.8,1,1.5,1.7,4.2-.4,5.1-4.8,2-10.1,2-15.2,2.5-8.7.7-18.4-.3-25.1-6.4-7.2-7-10.7-17.2-18.9-23.3-8.8,5.4-17.6,11.3-28,13.1l-3.4-.4c9.3-5.4,19.8-9.3,27.1-17.7,2.2-2.1,4.7-4.6,4.1-7.9,0-1.8-.2-3.6-.3-5.5,7-1.5,14.5-2.6,19.9-7.8Z"/>
        <path class="cls-23" d="M48.5,207.7c1-1.5,2.3,0,2.1,1.3-.7,4.7-3.3,8.8-3.9,13.6-.6,5.3,0,10.5-.5,15.8-4.5-1.1-4.5-6.7-4.8-10.4.4-7.2,2.3-14.7,7-20.3Z"/>
        <path class="cls-8" d="M72.1,207.6c2.1,1.8,3.9,4.1,5.2,6.6,3,5.8,8.1,10.3,11.3,16.1-5.5-1.1-8.1-7-11.3-11-2.4-3.5-4.8-7.3-5.2-11.7Z"/>
        <path class="cls-30" d="M228,236.1c3.8-.7,7.8-.5,11.7,0,2.4.4,4.5,1.5,6.6,2.8-6.2.7-12.5.1-18.7-.9.1-.5.3-1.4.4-1.8Z"/>
      </g>
    </g>
  </g>
</svg>