<?xml version="1.0" encoding="UTF-8"?>
<svg xmlns="http://www.w3.org/2000/svg" version="1.1" viewBox="0 0 285.7 475.8">
  <defs>
    <style>
      .cls-1 {
        fill: #e75677;
      }

      .cls-1, .cls-2, .cls-3, .cls-4, .cls-5 {
        fill-rule: evenodd;
      }

      .cls-2 {
        fill: #f27897;
      }

      .cls-3 {
        fill: #f9e0e5;
      }

      .cls-6 {
        opacity: .2;
      }

      .cls-4 {
        fill: #1d2e2f;
      }

      .cls-5 {
        fill: #010101;
      }
    </style>
  </defs>
  <!-- Generator: Adobe Illustrator 28.7.0, SVG Export Plug-In . SVG Version: 1.2.0 Build 136)  -->
  <g>
    <g id="Layer_1">
      <g>
        <g id="Elipsa_4" class="cls-6">
          <path class="cls-5" d="M146.7,391.1c-39.2,0-71,9.8-71,22s31.8,22,71,22,71-9.8,71-22-31.8-22-71-22Z"/>
        </g>
        <g id="shape">
          <path class="cls-4" d="M100.3,407.5c-4.5,2.2-.2,12.1,12.5,13.6,12.7,1.5,15.3-10.3,15.3-10.3,0,0-4.1-.7-14.4-1.9-10.3-1.2-8.8-3.6-13.4-1.4ZM190.4,406.4c-2.5-6.4-.6-1.5-10.7.7-10.1,2.2-16.7,5.3-16.7,5.3,0,0,3.8,11.5,16.2,8.7,12.5-2.7,12.9-10,11.1-14.7Z"/>
        </g>
        <g id="shape-2" data-name="shape">
          <path class="cls-1" d="M215.5,268.1c-8.9-20.8-24.5-51.8-37.1-45-12.6,6.8,13.2,49.2,10.9,67.1-2.3,17.9,27.8,58.9,34.9,34.5,3.2-11.1.2-35.8-8.7-56.6ZM112.9,223c-12.6-6.8-28.1,24.2-37.1,45-8.9,20.8-11.9,45.5-8.7,56.6,7,24.4,37.1-16.6,34.9-34.5-2.3-17.9,23.5-60.4,10.9-67.1Z"/>
        </g>
        <g id="shape-3" data-name="shape">
          <path class="cls-2" d="M178.5,235.3c-10-6.5-21-10.4-32.8-10.4,0,0,0,0,0,0h0s0,0,0,0c-11.8,0-22.8,3.9-32.8,10.4-34.2,22.3-56,76.2-51.4,118.3.7,7.5,2,14.7,4.3,21.3,9.5,28.3,44.7,41.3,80,40.4,35.2.9,70.5-12.1,80-40.4,2.2-6.7,3.6-13.9,4.3-21.3,4.5-42.1-17.3-96-51.4-118.3Z"/>
        </g>
        <g id="shape-4" data-name="shape">
          <path class="cls-2" d="M162,53.6c-5-2.8-10.4-4.5-16.3-4.5,0,0,0,0,0,0s0,0,0,0c-5.8,0-11.3,1.7-16.3,4.5-16.9,9.6-27.7,32.7-25.5,50.7.3,3.2,1,6.3,2.1,9.1,4.7,12.1,22.2,17.7,39.6,17.3,17.5.4,34.9-5.2,39.6-17.3,1.1-2.9,1.8-5.9,2.1-9.1,2.2-18-8.6-41.1-25.5-50.7Z"/>
        </g>
        <g id="Elipsa_84">
          <path class="cls-2" d="M166,250.3c-11.4-61-13.2-116.3-3.4-123.1,5.6-3.9-8.3-12.1-16.9-12.1s-21.7,9.7-16.4,13.6c10,7.4,10.5,61-3.5,121.6-2.1,9,8.1,16.8,20.1,16.8s21.8-7.7,20.1-16.8Z"/>
        </g>
        <g id="shape-5" data-name="shape">
          <path class="cls-4" d="M125.7,77.1c-3.3,0-6,3.1-6,7s2.7,7,6,7,6-3.1,6-7-2.7-7-6-7ZM165.9,77.1c-3.2,0-5.8,3.1-5.8,7s2.6,7,5.8,7,5.8-3.1,5.8-7-2.6-7-5.8-7Z"/>
        </g>
        <g id="shape-6" data-name="shape">
          <path class="cls-3" d="M171.7,105.1c0-4.6-4.1-8.6-10.3-11.2-2.7-5-7.7-8.8-15.7-8.8s-13,3.8-15.7,8.8c-6.3,2.6-10.3,6.6-10.3,11.2s4.2,8.8,10.8,11.3c4.6,15.1,13.4,36.7,15.2,36.7s10.7-21.6,15.2-36.7c6.5-2.5,10.8-6.7,10.8-11.3Z"/>
        </g>
        <g id="Elipsa_88">
          <path class="cls-4" d="M145.7,127.1c-3.9,0-7.5,1.3-10.4,3.5,4.3,11.7,9.1,22.5,10.4,22.5s6.1-10.8,10.4-22.5c-2.9-2.2-6.5-3.5-10.4-3.5Z"/>
        </g>
      </g>
    </g>
  </g>
</svg>