<?xml version="1.0" encoding="UTF-8"?>
<svg xmlns="http://www.w3.org/2000/svg" version="1.1" viewBox="0 0 281 513">
  <defs>
    <style>
      .cls-1, .cls-2 {
        fill: #fac955;
      }

      .cls-1, .cls-3, .cls-4, .cls-5 {
        fill-rule: evenodd;
      }

      .cls-3 {
        fill: #febb1f;
      }

      .cls-4 {
        fill: #9a6b34;
      }

      .cls-6 {
        opacity: .2;
      }

      .cls-5 {
        fill: #1d2e2f;
      }

      .cls-7 {
        fill: #010101;
      }
    </style>
  </defs>
  <!-- Generator: Adobe Illustrator 28.7.0, SVG Export Plug-In . SVG Version: 1.2.0 Build 136)  -->
  <g>
    <g id="Layer_1">
      <g id="Elipsa_4" class="cls-6">
        <ellipse class="cls-7" cx="146.6" cy="466.6" rx="71" ry="22"/>
      </g>
      <g id="shape">
        <path class="cls-3" d="M255.5,432.6c-.4-2.2-2.5-3.6-4.6-3.2-1.1.2-26.5,5-31.8-19.5-.5-2.2-2.6-3.5-4.7-3-2.1.5-3.4,2.5-3.1,4.6,0,0,0,.2,0,.3,5.5,25.8,29.3,28,41,25.6,2.2-.4,3.6-2.5,3.2-4.8Z"/>
      </g>
      <g id="Elipsa_86">
        <path class="cls-5" d="M262.6,425.2c-10.7,1.2-18.5,5.6-17.4,9.9,1.1,4.2,10.7,6.7,21.5,5.5,10.1-1.2.3-17.6-4.1-15.3Z"/>
      </g>
      <g id="shape-2" data-name="shape">
        <path class="cls-5" d="M100.3,461c-4.5,2.2-.2,12.1,12.5,13.6,12.7,1.5,15.3-10.3,15.3-10.3,0,0-4.1-.7-14.4-1.9-10.3-1.2-8.8-3.6-13.4-1.4ZM190.3,459.9c-2.5-6.4-.6-1.5-10.7.7-10.1,2.2-16.7,5.3-16.7,5.3,0,0,3.8,11.5,16.2,8.7,12.5-2.7,12.9-10,11.1-14.7Z"/>
      </g>
      <g id="shape-3" data-name="shape">
        <path class="cls-3" d="M178.5,288.8c-.2-.1-.3-.2-.5-.3-10.5-60.3-20.9-120.6-3.8-131.4,10-6.4-13.2-20.4-28.3-20.4s-36.9,16.5-27.4,22.9c18.2,12.2,10.9,68.1-3.4,127.8-.8.5-1.6,1-2.3,1.5-34.2,22.3-56,76.2-51.4,118.3.7,7.5,2,14.7,4.3,21.3,9.5,28.3,44.7,41.3,80,40.4,35.2.9,70.5-12.1,80-40.4,2.2-6.7,3.6-13.9,4.3-21.3,4.5-42.1-17.3-96-51.4-118.3ZM125.9,76.4l2.7-.5c8.9-1.7,13.8-9.8,11.4-17.1l-11.2-33.8c-1.1-3.3-6.1-5-11.2-4l-1.6.3c-5.2,1-9.2,4.4-9,7.8l2,35.5c.4,7.7,8,13.4,16.9,11.7ZM162.8,75.9l2.7.5c8.9,1.7,16.5-4,16.9-11.7l2-35.5c.2-3.5-3.8-6.9-9-7.8l-1.6-.3c-5.2-1-10.2.7-11.3,4l-11.2,33.8c-2.4,7.4,2.5,15.4,11.4,17.1Z"/>
      </g>
      <g id="Elipsa_85">
        <ellipse class="cls-2" cx="146.6" cy="440.6" rx="41" ry="22"/>
      </g>
      <g id="Elipsa_84_kopiuj">
        <path class="cls-4" d="M155.9,226.3c-5.3,2.2-8.5,10.3-2.6,13.3,5.2,2.7,14.7-2.4,15.7-6.6-.1-.7-.2-1.5-.3-2.2-1.8-3.8-7.8-6.6-12.8-4.5ZM149.8,215.2c-1.8-5.9-10.9-10.6-18.4-7.5-1,.4-1.9,1-2.7,1.6-.4,5.2-1,10.8-1.7,16.5.3.2.5.3.8.5,8.2,4.2,23.8-5.3,22-11.2ZM150.3,201.5c6.1,3.6,11.4,3.5,15.3.1-.4-6.1-.6-11.8-.4-17-3.5-2.4-7.6-3.8-9.3-3.6-7.6.8-14.3,15.4-5.6,20.5ZM146.5,303.6c-5.1-.5-26.3,8.4-20.6,20.9,5.7,12.5,16,15.7,28.8,8.4,12.9-7.3,3-28.1-8.2-29.2ZM137.7,191.3c4.5-3.6,5.3-12.2-1.1-13.5-2.6-.5-5.6.8-8.2,2.7.5,3.9.8,8.1.9,12.7,2.8.5,6,0,8.4-1.9ZM134.8,295.2c11,1.4,24.8-7.4,16.9-14-8-6.6-18-6.3-24.3-3.2-9.7,4.7-4.3,15.8,7.5,17.3ZM180.2,330.2c6.6,3.7,18.1,4.5,19.8-3.2,1.6-7.7-7.8-20.3-16.5-19.5-8.2.8-9.9,19.1-3.3,22.7ZM213.4,357.9c3.6.7,7.6-1.2,10.2-4.2-1.9-5.9-4.2-11.8-6.8-17.4-3.1-.7-6.2.3-8.5,2.1-6.6,5.3-2.9,17.8,5.1,19.5ZM117.7,340.4c4.8-9.9.7-15.4-4.5-20-5.2-4.6-13.1.9-13.4,3-4.1,13.6,13.1,26.9,17.9,17ZM143.2,354.1c.6-3.1-7.6-13.8-16.7-9.7-9,4.2-16.8,10.2-14.6,25.7,2.2,15.5,30.9,4.4,31.2-16ZM168.6,287.2c-5.1-.6-6.9,6.8-6,11.7,1,4.9,12.7,7.7,14.8,2.8,2.2-5.2-3.7-13.8-8.8-14.4ZM146.3,261.3c-2,6.6,15.6,17.3,24.7,12.5,1.8-1,3.1-2.2,3.9-3.7-.7-4.2-1.4-8.4-2.1-12.5-1.6-2-3.6-3.7-5.9-4.7-8.3-3.5-18.6,1.8-20.6,8.4ZM173.7,377c17.9-1.6,23.9-15.2,21.7-21.7-2.2-6.5-20.1-26.6-34.8-17.4-7,4.4-4.9,40.8,13,39.1ZM189,395.6c-1.3-4.2-7.8-7.6-13.1-5.3-5.3,2.2-8.5,10.3-2.6,13.3,5.8,3,17.1-3.8,15.8-8ZM132.3,394c6.8,10.1,14.4,9.3,21.8,6.8,7.3-2.5,6.5-13.1,4.5-14.6-10.9-11.5-33.1-2.3-26.3,7.8ZM214.1,404.2c-6.7-5.4-17.3-6-25.8,5.7-8.5,11.7,6.2,27.4,17.9,25,12.5-2.6,18.2-22.4,7.9-30.7ZM104.4,387.1c-10,1-18.7,20.1-7.3,26.8,11.4,6.7,20.5,3.8,25.6-7.7,5-11.5-13.7-19.6-18.3-19.2ZM217.6,361.7c-10.8-1-22.7,15.1-20.6,25.1,2.1,9.9,16.5,8.9,24.7,4.2,8.2-4.7,6.1-28.3-4.1-29.2ZM89.4,331.7c1.7-4-1.4-10.1-5.3-12.9-2.7,4.2-5.2,8.5-7.5,13,3.7,2.9,11.1,3.8,12.8,0ZM128.2,270.8c12.5-2.6,18.2-22.4,7.9-30.7-3-2.4-6.7-3.8-10.7-3.7-1.7,10.5-3.8,21.7-6.3,33.1,2.9,1.3,6.1,1.9,9,1.3ZM119.9,303.4c.3-4.9-4.3-10.8-10.4-12.3-4.9,3.6-9.5,7.8-13.8,12.6.3.6.7,1.2,1.2,1.8,5.7,6.4,22.6,3.6,23-2.1ZM84.9,417c-8-3.4-17.8,1.4-20.3,7.7.4,1.3.7,2.5,1.1,3.7.4,1.2.9,2.4,1.4,3.5,5.1,5.1,15.6,9.3,22,6,9.2-4.7,4.2-17.4-4.1-20.9ZM90.5,377.7c15.1,1.4,16.9-29,11-32.7-12.4-7.7-27.5,9.1-29.3,14.5-1.8,5.5,3.2,16.8,18.3,18.2ZM69.3,401.6c5.8,3,17.1-3.8,15.8-8-1.3-4.2-7.8-7.6-13.1-5.3-5.3,2.2-8.5,10.3-2.6,13.3Z"/>
      </g>
      <g id="shape-4" data-name="shape">
        <path class="cls-3" d="M196.9,95.9c-.4-4.7-1.2-9.2-2.6-13.4-5.8-17.8-27.2-25.9-48.6-25.4-21.4-.5-42.9,7.6-48.6,25.4-1.4,4.2-2.2,8.7-2.6,13.4-2.7,26.4,10.5,60.2,31.3,74.2,6.1,4.1,12.8,6.5,20,6.5,0,0,0,0,0,0h0s0,0,0,0c7.2,0,13.9-2.4,20-6.5,20.8-14,34-47.8,31.3-74.2Z"/>
      </g>
      <g id="Elipsa_85_kopiuj">
        <path class="cls-1" d="M146.6,110.6c-20.7,0-38.8,6.1-49.4,15.4,4.9,18.1,15.1,35.1,28.4,44.1,6.1,4.1,12.8,6.5,20,6.5,0,0,0,0,0,0h0s0,0,0,0c7.2,0,13.9-2.4,20-6.5,13.6-9.2,24-26.9,28.7-45.4-10.7-8.5-28.1-14.1-47.7-14.1Z"/>
      </g>
      <g id="Elipsa_84">
        <path class="cls-3" d="M206.7,60.4c-15.5,9-21.6,27.5-21.6,27.5,0,0,19.1,4,34.6-5,15.5-9,21.6-27.5,21.6-27.5,0,0-19.1-4-34.6,5ZM86.6,60.4c-15.5-9-34.6-5-34.6-5,0,0,6.1,18.5,21.6,27.5,15.5,9,34.6,5,34.6,5,0,0-6.1-18.5-21.6-27.5Z"/>
      </g>
      <g id="Elipsa_84_kopiuj_2">
        <path class="cls-4" d="M208.7,65.9c-9.4,5.3-13.1,16.3-13.1,16.3,0,0,11.5,2.4,20.9-2.9,9.4-5.3,13.1-16.3,13.1-16.3,0,0-11.5-2.4-20.9,2.9ZM84.6,65.9c-9.4-5.3-20.9-2.9-20.9-2.9,0,0,3.7,11,13.1,16.3,9.4,5.3,20.9,2.9,20.9,2.9,0,0-3.7-11-13.1-16.3Z"/>
      </g>
      <g id="shape-5" data-name="shape">
        <path class="cls-5" d="M135.6,80.6c-3.3,0-6,3.1-6,7s2.7,7,6,7,6-3.1,6-7-2.7-7-6-7ZM153.8,80.6c-3.2,0-5.8,3.1-5.8,7s2.6,7,5.8,7,5.8-3.1,5.8-7-2.6-7-5.8-7Z"/>
      </g>
      <g id="shape-6" data-name="shape">
        <path class="cls-5" d="M121.6,126.6c-2.2,0-4,1.8-4,4s1.8,4,4,4,4-1.8,4-4-1.8-4-4-4ZM169.8,126.6c-2.1,0-3.9,1.8-3.9,4s1.7,4,3.9,4,3.9-1.8,3.9-4-1.7-4-3.9-4Z"/>
      </g>
    </g>
  </g>
</svg>