<?xml version="1.0" encoding="UTF-8"?>
<svg xmlns="http://www.w3.org/2000/svg" version="1.1" viewBox="0 0 329.8 315.4">
  <defs>
    <style>
      .cls-1 {
        fill: #eff8fb;
      }

      .cls-1, .cls-2, .cls-3, .cls-4, .cls-5, .cls-6 {
        fill-rule: evenodd;
      }

      .cls-2 {
        fill: #6e929f;
      }

      .cls-3 {
        fill: #507481;
      }

      .cls-7 {
        opacity: .2;
      }

      .cls-4 {
        fill: #a3c0ca;
      }

      .cls-5 {
        fill: #1d2e2f;
      }

      .cls-6 {
        fill: #010101;
      }
    </style>
  </defs>
  <!-- Generator: Adobe Illustrator 28.7.0, SVG Export Plug-In . SVG Version: 1.2.0 Build 136)  -->
  <g>
    <g id="Layer_1">
      <g id="shadow" class="cls-7">
        <path class="cls-6" d="M235.2,243c-6.5,0-12.7.5-18.2,1.3-13-4.5-31.9-7.3-52.8-7.3s-38.7,2.7-51.7,6.9c-4.7-.6-9.9-.9-15.3-.9-22.1,0-40,5.4-40,12s17.9,12,40,12,.6,0,.9,0c10.3,8.2,36,14,66.1,14s56-5.8,66.2-14.1c1.6,0,3.1,0,4.8,0,22.1,0,40-5.4,40-12s-17.9-12-40-12Z"/>
      </g>
      <g id="fin">
        <path class="cls-3" d="M163.2,19.4c-2,0-5,30.1-9.5,69.5,0,38.4,4.3,69.5,9.5,69.5s9.5-31.1,9.5-69.5c-4-39.4-7.5-69.5-9.5-69.5Z"/>
      </g>
      <g id="fin-2" data-name="fin">
        <path class="cls-2" d="M98.7,221.4c-22.5,1.9-55.8-25.1-59.3-22.1-3.5,3,16.3,75.2,67.8,53.7,51.5-21.5,14-33.5-8.5-31.6ZM283.1,199.3c-3.5-3-36.8,24-59.3,22.1-22.5-1.9-60,10.1-8.5,31.6,51.5,21.5,71.3-50.7,67.8-53.7Z"/>
      </g>
      <g id="tail">
        <path class="cls-3" d="M276,84.6s-18.2,6.3-22.3,39.4c-12.9,16.4-39.2,8.7-62.7-5.7-24.3-14.9,16.4,183.7,28.4,132.2,14.3-42.7,39.9-79.2,42.9-83.5,9.3,15.3,22.2,23.3,22.2,23.3,0,0-30.8-49.6-8.5-105.7Z"/>
      </g>
      <g id="body">
        <path class="cls-2" d="M163.2,70.7c-58.5,0-99,93.5-80,150,9.7,28.8,82,43.4,82,43.4,0,0,68.4-18.9,78-45.4,19.5-54-21.5-148-80-148Z"/>
      </g>
      <g id="jaws">
        <path class="cls-4" d="M223.7,207.4s-25-23-59-23-65,22-65,22l-21.2-13.8c.3,9.9,1.8,19.5,4.7,28.1,9.7,28.8,25.3,50.4,82,50.4s68.4-25.9,78-52.4c2.6-7.3,4.2-15.4,4.7-23.8l-24.2,12.5Z"/>
      </g>
      <g id="eye">
        <path class="cls-5" d="M117.7,162.4c-3.3,0-6,3.1-6,7s2.7,7,6,7,6-3.1,6-7-2.7-7-6-7Z"/>
      </g>
      <g id="jaws-2" data-name="jaws">
        <polygon class="cls-1" points="211.7 203.4 217.1 209.8 167.4 219.1 111.5 207.3 114.7 203.4 79.7 193.4 84.7 208.4 90.7 205.4 94.7 219.4 102.1 216.4 108.7 234.4 118.7 228.4 126.7 245.4 138.7 238.4 150.7 255.4 163.2 242.5 176.7 256.4 188.7 239.4 199.7 246.4 207.7 230.4 219.7 233.4 226 217.1 231.7 219.4 235.7 205.4 241.7 208.4 246.7 193.4 211.7 203.4"/>
      </g>
      <g id="eye-2" data-name="eye">
        <path class="cls-5" d="M209.7,162.4c-3.3,0-6,3.1-6,7s2.7,7,6,7,6-3.1,6-7-2.7-7-6-7Z"/>
      </g>
      <g id="nose">
        <path class="cls-2" d="M246.7,188.4s-40.1.9-40.2.8c.1,0,.2,0,.2,0-2-2.3-12-12.8-42.5-12.8s-.4,0-.5,0c-.2,0-.4,0-.5,0-30.5,0-40.5,10.5-42.5,12.8,0,0,0,0,.2,0-.1.1-41.2-4.8-41.2-4.8l-.4,9.4s73.4,46.4,84.4,46.4,83.4-46.4,83.4-46.4l-.4-5.4Z"/>
      </g>
      <g id="nose-2" data-name="nose">
        <path class="cls-3" d="M162.9,167.4c-15.7,0-29.1,8.2-33.8,19.7,7.3-8.1,20.1-13.5,34.7-13.5s23.8,4,31.3,10.3c-5.8-9.7-18-16.4-32.2-16.4Z"/>
      </g>
    </g>
  </g>
</svg>