<?xml version="1.0" encoding="UTF-8"?>
<svg xmlns="http://www.w3.org/2000/svg" version="1.1" viewBox="0 0 469.4 327">
  <defs>
    <style>
      .cls-1 {
        fill: #e75677;
      }

      .cls-1, .cls-2, .cls-3 {
        fill-rule: evenodd;
      }

      .cls-2 {
        fill: #fff;
      }

      .cls-4 {
        opacity: .1;
      }

      .cls-3 {
        fill: #f6921e;
      }

      .cls-5 {
        fill: #010101;
      }

      .cls-6 {
        fill: #1d2e2f;
      }
    </style>
  </defs>
  <!-- Generator: Adobe Illustrator 28.7.0, SVG Export Plug-In . SVG Version: 1.2.0 Build 136)  -->
  <g>
    <g id="Layer_1">
      <g>
        <g id="shadow" class="cls-4">
          <ellipse class="cls-5" cx="238.8" cy="234.9" rx="173" ry="53.5"/>
        </g>
        <g id="legs">
          <path class="cls-1" d="M290.3,181.3c.5.7,1.1,1.5,1.8,2.4.8.9,1.7,2,2.9,3.1,2.3,2.3,5.6,4.9,10.2,6.9,2.3.9,4.9,1.7,7.7,2,2.8.3,5.7.3,8.6-.3,2.9-.5,5.7-1.4,8.4-2.7,2.6-1.3,5.1-2.8,7.4-4.6,4.6-3.6,8.4-8.2,11.4-13.3,1.5-2.6,2.7-5.3,3.8-8.1.5-1.4,1-2.9,1.4-4.3.3-1.2.6-2.5,1-3.7,1.3-4.9,2.6-9.8,4.1-14.6,2.9-9.6,6.3-19.1,10.8-26.4,2.3-3.6,4.7-6.8,7.4-8.8,2.7-2,5.4-3,8.2-3.1,2.8-.1,5.7.6,8.2,1.5,2.5,1,4.8,2.1,6.5,3.2.9.5,1.7,1,2.4,1.5.7.5,1.3.9,1.7,1.2.9.7,1.4,1,1.4,1,2.8,2.3,6.9-.5,6.9-.5,0,0,.6-1.1.8-2.5.2-1.4,0-3.2-1.6-4.5,0,0-.5-.4-1.5-1.3-.5-.4-1.1-.9-1.9-1.5-.8-.6-1.7-1.2-2.7-1.9-2-1.4-4.6-3-7.9-4.6-3.3-1.5-7.4-2.9-12.5-3.1-1.2-.1-2.5,0-3.9.1-1.3.1-2.6.4-4,.8-1.3.4-2.7.8-3.9,1.4-.6.3-1.3.6-1.9.9-.6.4-1.2.7-1.8,1.1-4.8,3-8.5,7.2-11.7,11.5-3.2,4.4-5.9,9.1-8.2,14-2.4,4.9-4.5,9.8-6.4,14.8-1.9,5-3.7,10-5.4,14.9-.4,1.2-.8,2.4-1.3,3.6-.4.9-.7,1.9-1.2,2.8-.8,1.8-1.8,3.5-2.9,5.1-2.1,3.1-4.8,5.7-7.3,7.4-1.3.8-2.6,1.5-3.8,1.9-1.2.4-2.3.6-3.3.7-2,.1-3.3-.3-4.5-1-1.2-.7-2.2-1.6-3.1-2.6-.4-.5-.8-1-1.1-1.4-.3-.5-.6-.9-.8-1.2-.4-.7-.6-1.1-.6-1.1-.4-.5-.9-1-1.7-1.3-.8-.3-1.8-.5-3-.6-2.3-.1-5.2.2-8.1,1.4-2.9,1.1-5.2,2.9-6.5,5.1-.7,1.1-1,2.3-1,3.4,0,1.2.2,2.4.9,3.5,0,0,.4.7,1.4,2ZM445.2,160.6c-2.2-5.1-5.8-10-10.9-14-2.6-2-5.6-3.8-9.3-4.9-1-.2-1.9-.5-2.9-.6l-1.5-.2h-1.4c-1.9-.2-3.7,0-5.4.2-7,1-13.3,3.6-19.2,6.7-5.9,3.2-11.4,7.1-16.4,11.5-5,4.4-9.6,9.3-13.6,14.5-2.1,2.6-3.9,5.3-5.7,7.9-1.4,2.1-2.9,4-4.5,5.7-6.5,7-14.7,11.1-21.7,12.5-7.1,1.5-12.8.4-16.2-.9-1.7-.7-3-1.3-3.8-1.8-.4-.2-.7-.4-.9-.6-.2-.1-.3-.2-.3-.2-1.3-.7-3-.6-5.3.2-2.2.7-4.8,2.1-7.1,4.2-2.3,2.1-3.6,4.8-3.6,7.6,0,2.7,1.4,5.6,4.1,7.2,0,0,.2.1.7.4.4.3,1.1.6,2,1,1.7.9,4.3,2,7.7,3,6.8,2,17,2.9,27.9-.2,10.8-3,22.3-9.8,30.8-20.4,2.1-2.6,4.1-5.5,5.7-8.5,1.4-2.3,2.7-4.7,4.3-7,3.1-4.6,6.7-8.9,10.6-12.9,4-4,8.3-7.5,12.9-10.4,4.5-2.9,9.4-5.1,13.8-6l1.6-.3c.5-.1,1,0,1.5-.1h.7c0,0,.6,0,.6,0,.4,0,.8.1,1.2.2,1.7.4,3.5,1.2,5.2,2.4,3.4,2.3,6.1,5.5,7.8,8.8,1.7,3.3,2.4,6.5,2.3,9.3,0,2.8-.9,5-1.9,6.8-1,1.8-2.2,3-3,3.9-.9.8-1.4,1.2-1.4,1.2-.7.6-1.3,1.3-1.5,2.1-.3.8-.5,1.5-.5,2.3-.1,1.5.2,2.7.2,2.7,0,0,.9.9,2.3,1.4.7.3,1.6.5,2.6.4,1-.1,2-.5,3.1-1.3,0,0,.7-.5,2-1.6,1.2-1.2,3.1-2.8,5-5.7.9-1.4,1.8-3,2.6-4.9.7-1.9,1.3-4.1,1.5-6.4.5-4.7-.3-10-2.6-15.1ZM428.9,224.7c-2.8-4.5-7.2-8.9-12.8-11.8-5.6-3-12.3-4.2-18.9-4-6.5.2-12.9,1.7-19,3.8-1.5.5-3,1.1-4.5,1.7-1.4.6-2.8,1.2-4.2,1.7-2.7,1.1-5.3,2.3-8,3.3-10.7,4.2-21.6,7.4-31.5,8.5-9.9,1.1-18.4-.5-25-3.4-6.6-2.9-11.5-7.1-14.8-10-3.2-3.3-5-5.1-5-5.1-1.3-1.5-3.5-2-5.9-1.6-2.4.3-5.2,1.5-7.6,3.5-2.4,2-4,4.5-4.5,7-.5,2.5,0,5,1.7,6.8,0,0,2.4,2.3,6.9,6.1,1.2.9,2.5,1.9,4,3,.7.5,1.5,1.1,2.3,1.7.8.5,1.7,1.1,2.6,1.6,1.8,1.1,3.7,2.4,5.9,3.3,1.1.5,2.2,1,3.4,1.6.6.3,1.1.6,1.8.8.6.2,1.2.4,1.9.6,10,3.7,22.9,4.9,35.1,2.6,12.3-2.2,24.1-6.8,35.3-11.9,2.8-1.2,5.5-2.7,8.3-4,1.3-.6,2.6-1.3,3.9-1.9,1.2-.6,2.4-1.2,3.6-1.7,4.9-2.1,9.8-3.5,14.4-4,4.6-.4,8.9,0,12.5,1.7,3.6,1.5,6.5,4,8.7,7,2.2,2.9,3.6,6.1,4.5,9.1.9,3,1.3,5.8,1.5,8.1.2,2.3,0,4.1,0,5.3,0,.6,0,1.1-.1,1.4,0,.3,0,.5,0,.5-.3,1.9.6,3.4,1.5,4.5.9,1.1,2,1.8,2,1.8,0,0,1.2,0,2.7-.5,1.4-.6,3-1.8,3.4-4.3,0,0,0-.2.1-.6,0-.4.2-1,.3-1.8.2-1.5.5-3.8.5-6.7,0-2.9-.3-6.4-1.2-10.5-.9-4-2.5-8.5-5.4-13ZM388,272.4c-4.3-6.6-11-12.1-18.4-15.3-7.4-3.3-15.2-4.5-22.3-4.2-1.7.1-3.6.2-5.3.4-1.7.3-3.4.6-5.1.9-1.7.3-3.2.9-4.8,1.3-1.6.5-3.2.9-4.7,1.5l-4.5,1.8-1.1.4-.8.3-1.6.6c-2.2.6-4.4,1-6.8,1-4.6,0-9.5-1.3-14.3-3.5-4.8-2.1-9.4-5.2-13.5-8.4-4.2-3.3-7.9-6.8-11.2-10.2-6.5-6.8-11-13.3-13.5-17.5-.6-1.1-1.2-2-1.6-2.8-.4-.8-.7-1.5-1-2-.5-1.1-.6-1.5-.6-1.5-.4-.8-.8-1.2-1.6-1.8-.6-.3-1.6-.8-2.6-1-.5-.2-1.1-.4-1.8-.6-.6-.2-1.2-.4-1.9-.7-1.4-.6-2.9-1.4-4.4-2.1-1.6-.6-3.1-1-4.6-.8-.4,0-.9.2-1.3.4-.4-.2-.9-.3-1.3-.4-1.5-.2-3,.2-4.5.8-1.5.6-3,1.5-4.3,2.1-.7.3-1.3.6-1.9.7-.6.2-1.2.5-1.7.6-1,.2-2,.7-2.6,1-.8.5-1.1,1-1.4,1.8,0,0,0,.4-.5,1.5-.2.5-.4,1.2-.8,2-.3.8-.8,1.7-1.4,2.8-2.2,4.3-6.3,10.7-12.3,17.5-3,3.4-6.5,6.9-10.5,10.2-3.9,3.2-8.3,6.3-13,8.4-4.6,2.2-9.4,3.6-14.1,3.5-2.3,0-4.6-.4-6.9-1l-1.6-.6-.8-.3-1.1-.4-4.6-1.8c-1.5-.6-3.1-1.1-4.8-1.5-1.6-.4-3.2-1-4.9-1.3-1.7-.3-3.4-.6-5.1-.9-1.7-.3-3.6-.3-5.3-.4-7.1-.3-14.9.9-22,4.2-7.2,3.2-13.4,8.7-17.3,15.3-1.9,3.3-3.3,7.1-3.4,11,0,3.5.9,6.9,2.4,9.5,1.6,2.6,3.6,4.5,5.6,5.9,2,1.4,4,2.4,6,3.2,3.9,1.6,7.3,2.4,10.2,2.9,2.9.5,5.1.8,6.6,1,1.5.1,2.4.2,2.4.2,2.4.3,4.3-.9,5.5-2,.6-.6,1-1.2,1.3-1.6.3-.4.5-.7.5-.7,0,0,0-.3-.1-.8-.1-.5-.3-1.1-.6-1.7-.7-1.3-1.8-2.6-4-2.8,0,0-.7-.1-2.1-.3-1.4-.2-3.3-.6-5.7-1.2-2.4-.6-5.3-1.5-8.1-2.9-2.8-1.4-5.6-3.4-6.8-6-.6-1.3-.9-2.6-.7-4.1.2-1.2.8-2.7,1.8-4.4,2.3-3.3,6-6.4,10.5-8.1,4.5-1.7,9.6-2.3,14.8-1.7,1.3.2,2.6.3,3.9.6,1.3.3,2.6.6,3.9,1,1.3.3,2.5.9,3.8,1.3,1.3.4,2.6.9,3.8,1.5l3.7,1.7,2.2,1,2.5,1.1c3.5,1.2,7.2,2.2,11.1,2.4,3.9.3,7.8,0,11.7-.7,1.9-.4,3.8-.8,5.6-1.4.9-.3,1.8-.5,2.7-.9.9-.3,1.8-.7,2.6-1,7-2.8,13.1-6.6,18.5-10.5,5.4-4,10-8.1,14.1-12.2,8.1-8.2,13.7-15.9,17.2-21.9.7-1.2,1.3-2.2,1.8-3.2.6,1,1.3,2.1,2.1,3.2,4,6,10.1,13.7,18.7,21.9,4.3,4.1,9.2,8.2,14.9,12.2,5.6,3.9,12,7.7,19.2,10.5.9.3,1.8.7,2.7,1,.9.3,1.9.6,2.8.9,1.9.6,3.8,1,5.7,1.4,3.9.7,7.9,1.1,11.7.7,3.9-.2,7.5-1.2,11-2.4l2.4-1.1,2.2-1,3.6-1.7c1.2-.6,2.4-1.1,3.7-1.5,1.2-.4,2.5-1,3.7-1.3,1.3-.3,2.5-.6,3.8-1,1.3-.3,2.6-.4,3.9-.6,5.1-.5,10.3,0,14.9,1.7,4.6,1.7,8.5,4.8,11,8.1,1.2,1.7,1.9,3.2,2.1,4.4.2,1.6,0,2.9-.4,4.1-1,2.5-3.7,4.6-6.4,6-2.7,1.4-5.5,2.3-7.9,2.9-2.4.6-4.3,1-5.7,1.2-1.3.2-2.1.3-2.1.3-2.2.2-3.2,1.5-3.8,2.8-.3.6-.4,1.3-.5,1.7,0,.5,0,.8,0,.8,0,0,.2.3.5.7.3.4.8,1,1.4,1.6,1.3,1.1,3.2,2.3,5.6,2,0,0,.8,0,2.4-.2,1.5-.2,3.8-.4,6.6-1,2.8-.6,6.2-1.3,10-2.9,1.9-.8,3.8-1.8,5.8-3.2,1.9-1.4,3.8-3.3,5.2-5.9,1.4-2.6,2.1-6,1.8-9.5-.4-3.9-2.1-7.7-4.1-11ZM68,113.5s4.1,2.9,6.9.5c0,0,.5-.4,1.4-1,.5-.3,1-.7,1.7-1.2.7-.4,1.5-.9,2.4-1.5,1.8-1.1,4-2.2,6.5-3.2,2.5-.9,5.4-1.6,8.2-1.5,2.8,0,5.6,1.1,8.2,3.1,2.7,2,5.2,5.1,7.4,8.8,4.5,7.4,7.9,16.8,10.8,26.4,1.5,4.8,2.8,9.7,4.1,14.6.3,1.2.6,2.5,1,3.7.4,1.5.8,2.9,1.4,4.3,1,2.8,2.3,5.6,3.8,8.1,3,5.2,6.8,9.7,11.4,13.3,2.3,1.8,4.8,3.4,7.4,4.6,2.6,1.3,5.5,2.1,8.4,2.7,2.9.6,5.8.6,8.6.3,2.8-.3,5.4-1.1,7.7-2,4.6-1.9,7.9-4.6,10.2-6.9,1.2-1.1,2.1-2.2,2.9-3.1.7-.9,1.3-1.8,1.8-2.4.9-1.3,1.4-2,1.4-2,.7-1.1.9-2.3.9-3.5,0-1.2-.4-2.4-1-3.4-1.3-2.2-3.6-4-6.5-5.1-2.9-1.1-5.8-1.5-8.1-1.4-1.1,0-2.1.3-3,.6-.8.3-1.4.8-1.7,1.3,0,0-.2.4-.6,1.1-.2.3-.5.8-.8,1.2-.3.4-.7,1-1.1,1.4-.8,1-1.9,2-3.1,2.6-1.2.6-2.6,1.1-4.5,1-1,0-2.1-.3-3.3-.7-1.2-.5-2.5-1.1-3.8-1.9-2.6-1.7-5.2-4.2-7.3-7.4-1.1-1.5-2-3.3-2.9-5.1-.4-.9-.8-1.8-1.2-2.8-.4-1.2-.8-2.4-1.3-3.6-1.7-4.9-3.5-9.9-5.4-14.9-1.9-5-4-10-6.4-14.8-2.4-4.9-5-9.6-8.2-14-3.2-4.4-6.9-8.5-11.7-11.5-.6-.4-1.2-.7-1.8-1.1-.6-.3-1.3-.6-1.9-.9-1.2-.6-2.6-1-3.9-1.4-1.3-.3-2.7-.6-4-.8-1.3,0-2.6-.3-3.9-.1-5,.2-9.1,1.7-12.5,3.1-3.3,1.6-5.9,3.2-7.9,4.6-1,.7-1.9,1.4-2.7,1.9-.7.6-1.3,1.1-1.9,1.5-1,.8-1.5,1.3-1.5,1.3-1.6,1.3-1.8,3.1-1.6,4.5.2,1.4.8,2.5.8,2.5ZM49.5,195.2c1.4-.5,2.3-1.4,2.3-1.4,0,0,.3-1.2.2-2.7,0-.7-.2-1.5-.5-2.3-.3-.8-.8-1.5-1.5-2.1,0,0-.5-.4-1.4-1.2-.8-.9-2-2.1-3-3.9-1-1.8-1.8-4.1-1.9-6.8-.1-2.7.6-6,2.3-9.3,1.7-3.2,4.4-6.5,7.8-8.8,1.7-1.1,3.5-2,5.2-2.4.4,0,.8-.2,1.2-.2h.6s.7,0,.7,0c.5,0,.9,0,1.5.1l1.6.3c4.4.9,9.3,3.2,13.8,6,4.6,2.9,8.9,6.5,12.9,10.4,4,4,7.5,8.4,10.6,12.9,1.6,2.3,3,4.6,4.3,7,1.7,2.9,3.6,5.8,5.7,8.5,8.5,10.6,20,17.5,30.8,20.4,10.9,3.1,21.1,2.2,27.9.2,3.4-1,6-2.1,7.7-3,.9-.4,1.5-.8,2-1,.4-.3.7-.4.7-.4,2.7-1.6,4.1-4.4,4.1-7.2,0-2.8-1.4-5.5-3.6-7.6-2.3-2.1-4.9-3.5-7.1-4.2-2.3-.8-4-.9-5.3-.2,0,0-.1,0-.3.2-.2.2-.5.3-.9.6-.8.5-2.1,1.1-3.8,1.8-3.4,1.3-9.1,2.4-16.2.9-7-1.4-15.3-5.5-21.7-12.5-1.6-1.8-3.1-3.6-4.5-5.7-1.8-2.7-3.6-5.4-5.7-7.9-4-5.2-8.6-10.1-13.6-14.5-5-4.4-10.5-8.3-16.4-11.5-5.9-3.2-12.2-5.7-19.2-6.7-1.8-.2-3.5-.4-5.4-.3h-1.4s-1.5.2-1.5.2c-1,.1-1.9.4-2.9.6-3.7,1.1-6.7,2.9-9.3,4.9-5.1,4-8.6,8.9-10.9,14-2.2,5.1-3.1,10.4-2.6,15.1.2,2.4.9,4.5,1.5,6.4.8,1.9,1.6,3.6,2.6,4.9,1.8,2.8,3.7,4.5,5,5.7,1.3,1.1,2,1.6,2,1.6,1,.8,2.1,1.2,3.1,1.3,1,0,1.9-.1,2.6-.4ZM100.7,228.4c1.3.6,2.6,1.3,3.9,1.9,2.7,1.3,5.4,2.8,8.3,4,11.1,5.2,23,9.7,35.3,11.9,12.2,2.3,25.1,1.1,35.1-2.6.6-.2,1.3-.4,1.9-.6.6-.2,1.2-.5,1.8-.8,1.2-.5,2.3-1.1,3.4-1.6,2.3-1,4.1-2.2,5.9-3.3.9-.6,1.8-1.1,2.6-1.6.8-.6,1.5-1.1,2.3-1.7,1.4-1.1,2.8-2.1,4-3,4.4-3.8,6.9-6.1,6.9-6.1,1.6-1.8,2.2-4.3,1.7-6.8-.5-2.5-2.1-5-4.5-7-2.4-2-5.2-3.1-7.6-3.5-2.5-.3-4.6.2-5.9,1.6,0,0-1.8,1.9-5,5.1-3.3,3-8.2,7.1-14.8,10-6.6,2.9-15.1,4.5-25,3.4-9.9-1.1-20.8-4.3-31.5-8.5-2.7-1-5.4-2.2-8-3.3-1.4-.6-2.8-1.2-4.2-1.7-1.5-.6-3-1.2-4.5-1.7-6.1-2.1-12.5-3.6-19-3.8-6.5-.2-13.2,1-18.9,4-5.7,2.9-10,7.3-12.8,11.8-2.9,4.5-4.5,9-5.4,13-.9,4-1.2,7.6-1.2,10.5,0,2.9.3,5.2.5,6.7,0,.8.2,1.4.3,1.8,0,.4.1.6.1.6.4,2.5,2,3.7,3.4,4.3,1.4.6,2.7.5,2.7.5,0,0,1.1-.7,2-1.8.9-1.1,1.8-2.6,1.5-4.5,0,0,0-.2,0-.5,0-.3-.1-.8-.1-1.4,0-1.2-.2-3,0-5.3.2-2.3.6-5.1,1.5-8.1.9-3,2.3-6.2,4.5-9.1,2.2-2.9,5.1-5.4,8.7-7,3.6-1.6,7.9-2.1,12.5-1.7,4.6.5,9.6,1.9,14.4,4,1.2.5,2.4,1.1,3.6,1.7Z"/>
        </g>
        <g id="body">
          <path class="cls-1" d="M239.3,38.3c-58.5,0-99,93.5-80,150,19,56.5,140.5,52,160-2,19.5-54-21.5-148-80-148Z"/>
        </g>
        <g id="eye">
          <path class="cls-2" d="M265.3,122.5c-11,0-20,11.6-20,26s9,26,20,26,20-11.6,20-26-9-26-20-26ZM213.3,122.5c-11,0-20,11.6-20,26s9,26,20,26,20-11.6,20-26-9-26-20-26Z"/>
        </g>
        <g id="beak">
          <path class="cls-3" d="M239.3,172.5c-5.5,0-10,6.7-10,15s10,15,10,15c0,0,10-6.7,10-15s-4.5-15-10-15Z"/>
        </g>
        <g id="eye-2" data-name="eye">
          <path class="cls-6" d="M260.3,142.5c-3.9,0-7,3.6-7,8s3.1,8,7,8,7-3.6,7-8-3.1-8-7-8ZM220.3,142.5c-3.9,0-7,3.6-7,8s3.1,8,7,8,7-3.6,7-8-3.1-8-7-8Z"/>
        </g>
      </g>
    </g>
  </g>
</svg>