<?xml version="1.0" encoding="UTF-8"?>
<svg xmlns="http://www.w3.org/2000/svg" version="1.1" viewBox="0 0 304.3 382.8">
  <defs>
    <style>
      .cls-1 {
        fill: #2d302a;
      }

      .cls-2 {
        fill: #f4b052;
      }

      .cls-3 {
        fill: #262620;
      }

      .cls-4 {
        fill: #362212;
      }

      .cls-5 {
        fill: #24241e;
      }

      .cls-6 {
        fill: #382c20;
      }

      .cls-7 {
        fill: #28241c;
      }

      .cls-8 {
        fill: #292515;
      }

      .cls-9 {
        fill: #312524;
      }

      .cls-10 {
        fill: #2e2425;
      }

      .cls-11 {
        fill: #352f26;
      }

      .cls-12 {
        fill: #2b201d;
      }

      .cls-13 {
        fill: #292622;
      }

      .cls-14 {
        fill: #f6b552;
      }

      .cls-15 {
        fill: #2d242d;
      }

      .cls-16 {
        fill: #2b2a2b;
      }

      .cls-17 {
        fill: #2a232a;
      }

      .cls-18 {
        fill: #2e2219;
      }

      .cls-19 {
        fill: #2b2320;
      }

      .cls-20 {
        fill: #e6af39;
      }

      .cls-21 {
        fill: #282520;
      }

      .cls-22 {
        fill: #262424;
      }

      .cls-23 {
        fill: #30261e;
      }

      .cls-24 {
        fill: #352824;
      }

      .cls-25 {
        fill: #382e2d;
      }

      .cls-26 {
        fill: #f5993d;
      }

      .cls-27 {
        fill: #2e2422;
      }

      .cls-28 {
        fill: #24281f;
      }

      .cls-29 {
        fill: #2f2528;
      }

      .cls-30 {
        fill: #302117;
      }

      .cls-31 {
        fill: #2b2122;
      }

      .cls-32 {
        fill: #362b2d;
      }

      .cls-33 {
        fill: #262720;
      }

      .cls-34 {
        fill: #28251a;
      }

      .cls-35 {
        fill: #272519;
      }

      .cls-36 {
        fill: #efebd8;
      }

      .cls-37 {
        fill: #2a2520;
      }

      .cls-38 {
        fill: #29241a;
      }

      .cls-39 {
        fill: #252623;
      }

      .cls-40 {
        fill: #262125;
      }

      .cls-41 {
        fill: #28231c;
      }

      .cls-42 {
        fill: #282716;
      }

      .cls-43 {
        fill: #2d2119;
      }

      .cls-44 {
        fill: #de924a;
      }

      .cls-45 {
        fill: #fbb14b;
      }

      .cls-46 {
        fill: #2b2423;
      }

      .cls-47 {
        fill: #ebeadd;
      }

      .cls-48 {
        fill: #55432d;
      }

      .cls-49 {
        fill: #2f251e;
      }

      .cls-50 {
        fill: #fad167;
      }

      .cls-51 {
        fill: #f4eac9;
      }

      .cls-52 {
        fill: #322d29;
      }

      .cls-53 {
        fill: #282320;
      }

      .cls-54 {
        fill: #2e261a;
      }

      .cls-55 {
        fill: #272615;
      }

      .cls-56 {
        fill: #2a2524;
      }

      .cls-57 {
        fill: #342524;
      }

      .cls-58 {
        fill: #2c211b;
      }

      .cls-59 {
        fill: #f6a23a;
      }

      .cls-60 {
        fill: #282624;
      }

      .cls-61 {
        fill: #2f2313;
      }

      .cls-62 {
        fill: #2e2415;
      }

      .cls-63 {
        fill: #26251b;
      }

      .cls-64 {
        fill: #282726;
      }

      .cls-65 {
        fill: #2d2014;
      }

      .cls-66 {
        fill: #28221e;
      }

      .cls-67 {
        fill: #27261c;
      }

      .cls-68 {
        fill: #2b2317;
      }

      .cls-69 {
        fill: #fbaf56;
      }

      .cls-70 {
        fill: #2a2319;
      }

      .cls-71 {
        fill: #332617;
      }

      .cls-72 {
        fill: #302313;
      }

      .cls-73 {
        fill: #2b2422;
      }

      .cls-74 {
        fill: #27251c;
      }

      .cls-75 {
        fill: #262420;
      }

      .cls-76 {
        fill: #2b2827;
      }

      .cls-77 {
        fill: #221f13;
      }

      .cls-78 {
        fill: #2c2318;
      }

      .cls-79 {
        fill: #28211f;
      }

      .cls-80 {
        fill: #2a2729;
      }

      .cls-81 {
        fill: #2b2113;
      }

      .cls-82 {
        fill: #e3933e;
      }

      .cls-83 {
        fill: #f5b75b;
      }

      .cls-84 {
        fill: #2f2624;
      }

      .cls-85 {
        fill: #342314;
      }

      .cls-86 {
        fill: #2a1f19;
      }

      .cls-87 {
        fill: #3d3630;
      }

      .cls-88 {
        fill: #2a241a;
      }

      .cls-89 {
        fill: #2e1f20;
      }

      .cls-90 {
        fill: #292117;
      }

      .cls-91 {
        fill: #26221c;
      }

      .cls-92 {
        fill: #372116;
      }

      .cls-93 {
        fill: #2b1f17;
      }

      .cls-94 {
        fill: #282217;
      }

      .cls-95 {
        fill: #2f2517;
      }

      .cls-96 {
        fill: #2d2016;
      }

      .cls-97 {
        fill: #5d3715;
      }

      .cls-98 {
        fill: #262422;
      }

      .cls-99 {
        fill: #2e2b28;
      }

      .cls-100 {
        fill: #2d2520;
      }

      .cls-101 {
        fill: #2d2716;
      }

      .cls-102 {
        fill: #302222;
      }

      .cls-103 {
        fill: #302d27;
      }

      .cls-104 {
        fill: #ee9329;
      }

      .cls-105 {
        fill: #f3ba5c;
      }

      .cls-106 {
        fill: #2a2415;
      }

      .cls-107 {
        fill: #232421;
      }

      .cls-108 {
        fill: #26241e;
      }

      .cls-109 {
        fill: #322516;
      }

      .cls-110 {
        fill: #f9d269;
      }

      .cls-111 {
        fill: #2e221c;
      }

      .cls-112 {
        fill: #302213;
      }

      .cls-113 {
        fill: #342623;
      }

      .cls-114 {
        fill: #282220;
      }

      .cls-115 {
        fill: #2c2426;
      }

      .cls-116 {
        fill: #331c10;
      }

      .cls-117 {
        fill: #5a4b45;
      }

      .cls-118 {
        fill: #2e241a;
      }

      .cls-119 {
        fill: #331c17;
      }

      .cls-120 {
        fill: #2c1e1b;
      }

      .cls-121 {
        fill: #2d271a;
      }

      .cls-122 {
        fill: #2f2927;
      }

      .cls-123 {
        fill: #2b241d;
      }

      .cls-124 {
        fill: #361f13;
      }

      .cls-125 {
        fill: #2e241e;
      }

      .cls-126 {
        fill: #292f24;
      }

      .cls-127 {
        fill: #2a2615;
      }

      .cls-128 {
        fill: #fbb161;
      }

      .cls-129 {
        fill: #f7b559;
      }

      .cls-130 {
        fill: #5c4d41;
      }

      .cls-131 {
        fill: #29251c;
      }

      .cls-132 {
        fill: #25241d;
      }

      .cls-133 {
        fill: #30241e;
      }

      .cls-134 {
        fill: #262525;
      }

      .cls-135 {
        fill: #312413;
      }

      .cls-136 {
        fill: #58513c;
      }

      .cls-137 {
        fill: #2d2323;
      }

      .cls-138 {
        fill: #f4b051;
      }

      .cls-139 {
        fill: #272725;
      }

      .cls-140 {
        fill: #2d241f;
      }

      .cls-141 {
        fill: #262321;
      }

      .cls-142 {
        fill: #311f10;
      }

      .cls-143 {
        fill: #f6ba52;
      }

      .cls-144 {
        fill: #2d2021;
      }

      .cls-145 {
        fill: #29241d;
      }

      .cls-146 {
        fill: #eed77d;
      }

      .cls-147 {
        fill: #2a211e;
      }

      .cls-148 {
        fill: #f5a649;
      }

      .cls-149 {
        fill: #3b2723;
      }
    </style>
  </defs>
  <!-- Generator: Adobe Illustrator 28.7.0, SVG Export Plug-In . SVG Version: 1.2.0 Build 136)  -->
  <g>
    <g id="Layer_1">
      <path class="cls-82" d="M151,56.5c9.6-1.1,19.2-.3,28.6,1.8-.6.2-1.9.7-2.5.9-.3,1.2-.5,2.3-.7,3.5-.5-.1-1.4-.4-1.9-.6-.2-1.4-.3-2.8-.5-4.2-2.4-.3-4.7-.5-7.1-.7-2.7-.2-5.3-.5-8-.7-2.6,0-5,.7-7.3,1.8.7,1.8,1.4,3.5,2.1,5.3-.4,0-1.2.2-1.6.2-2.5-1.2-4.9-2.7-7.3-4,1.7-1.6,3.7-3.1,6.2-3.3Z"/>
      <path class="cls-46" d="M151.7,58.4c2.3-1.1,4.7-1.8,7.3-1.8.1,1.7,1.7,4-.1,5.3-1.5.9-3.3,1.3-5,1.7-.7-1.8-1.5-3.5-2.1-5.3Z"/>
      <path class="cls-104" d="M158.9,56.6c2.7.2,5.3.5,8,.7-.7,1.3-1.5,2.6-2.2,3.9,1.6.8,3.1,2.2,4.9,2.3,1.7-.2,3.2-.8,4.8-1.4.5.1,1.4.4,1.9.6,1.5.3,3.1,1.3,4.7.7.9-1.1,1.5-2.3,2.2-3.5l.5-.8c5.5,2.2,9.8,6.5,11.6,12.2l-.5.7c-2.2,2.4-3.1,5.5-3.1,8.8.7-.7,1.5-1.4,2.2-2.2.4,4.7,4.1,7.8,6.5,11.5-4,.9-8.1.4-12.1-.2-.3.7-.9,2.1-1.2,2.8-2.2.2-4.3.5-6.5.8,1.3-2.8,3-5.6,3-8.8-.6-2.2-2.1-4-3.3-5.9-2.8-3.6-1.6-8.6-3-12.7-.7,2.1-1.2,4.4-1.5,6.6-3.3.6-6.6,1.2-9.9,1.5,0,.3.1.8.2,1.1.2,1.5.3,3.2,1.1,4.6,1.8,1.4,3.9,2.2,5.8,3.2.5,1.8.9,3.7,1.7,5.4,1.5.8,3.1,1.3,4.8,1.8-3.3,4.4-3.6,10.1-6.2,14.9-4.1,2.8-9.2,3.4-13.3,6-3,4.1-4.5,9-7,13.5,1.9,4.8,4.7,9.2,6.1,14.2.4,9.4,1.3,18.9,1.1,28.3-1.8,0-3.7.2-5.5.3.1,1.7.3,3.3.5,5,1.7-.5,3.4-1.1,5.2-1.6,1,5.4,1.5,11.3-1.7,16.1-.2-1.7-.4-3.3-.6-4.9-1.6,0-3.2-.2-4.8-.2-.2,2.1-1.2,4.7.7,6.3,1.6.2,3.2,0,4.8,0-2.1,5.3-5.4,10.7-4.2,16.6,1.5,12.9,3.5,25.8,6.4,38.4,4.6.4,9.7.6,13.4,3.7,3.3,2.3,4.8,6.1,6.4,9.7-1.9.5-3.8,1-5.6,1.5.3,1.2.6,2.5,1.1,3.8,1.2.4,2.4.5,3.6.8.2-1.7.5-3.4.8-5.1,2.5,8.1,3.7,16.5,5,24.9,1.3,11.2.5,23.6-6.4,33-3.3,4.3-7,8.6-11.7,11.3-1.6.5-3.2,1-4.8,1.5.4-1.8.8-3.7,1.1-5.5-.3-1.9-1-3.8-2-5.5,1.8-1.5,4.7-2.7,4.5-5.5.1-1.9-1.5-4.3-3.6-3.7-2.5.2-2.9,3.3-3.9,5.1-.4,1.1-.8,2.1-1.2,3.2-.8.4-1.7.9-2.5,1.4-.5-1.4-.9-2.8-1.5-4.1-1.2-.4-2.5-.6-3.7-.9,0,2.6-.8,5.8,1.9,7.4,1.5.5,2.9,1,4.4,1.5.3,1.8.7,3.6,1,5.4,1.6.6,3.3,1.1,4.9,1.7-3.4,3.4-8.2,4.2-12.9,4.3-.3-2-.2-4.1-1.1-5.9-1.2-1.2-2.6-2-4-3-.3-.2-1-.7-1.3-.9-.5-.9-.9-1.8-1.3-2.6,1.9-2.2,5.6-5.9,2.5-8.5-2.8-.7-6.6-.3-7.5,3-1.2,2.1.8,4.1,1.8,5.9.7,1,1.4,2,2.1,3-3.2,1.1-6.3,2-9.6,2.7.4-3.1,2-8.5-2.5-9.2-4-1.3-7.4,3.4-5.6,6.9.8,2.8,4.1,2.6,6.5,2.6-1.3,1.4-2.5,2.9-3.5,4.4-.6,2.3-.9,4.6-1.3,6.9-5.1.2-10.1-1.1-15-2.5-10.1-3.4-20-7.8-28.6-14.2-3.4-2.4-4.5-6.5-6.1-10.1-4-9.7-6.8-20.1-6.9-30.7.1-7,1.6-14.7,7.1-19.6,3.6-3.2,8.2-4.7,12.5-6.4-.3-7.4-2.4-14.6-2.4-22.1-.1-5.9-.4-11.9,0-17.8,1.3-3.1,3.7-5.5,6.1-7.7-.8-.6-1.6-1.1-2.4-1.6-.3-2.1-.8-4.2-1.2-6.2-1-10.3.8-20.8-1.4-31-1.6,9.2-.5,18.5-.9,27.8-6.5-8-6.3-18.6-6.2-28.3,0-11.4.7-23,5-33.7,3.7-9.6,7.3-19.2,10.6-28.9,1.2.8,2.4,1.7,3.8,2.3,1-.6,1.9-1.3,2.6-2.1.4-2-1.4-3.2-2.6-4.5l-.7-.7c2.9-4.1,6.1-7.9,9.7-11.5,3.5-3.5,6.3-7.7,10-11,1.9-1.6,3.8-3.2,5.7-4.8,2,.8,4,1.4,6.1,1.9,2.2,3.2,4.8,6.2,8,8.3-1.9-3-4.2-5.9-5.8-9.1.2-.7.5-2,.7-2.7,3.3,3.9,6.6,7.7,9.7,11.7,1.3-1.4,2.6-2.8,3.6-4.4-1.3-3.7-3.7-6.9-5.7-10.2-1.5-2.8-4.8-3.6-7.3-5.2l-1.6-1c7.4-4,15.2.1,21.5,4.3,0-.7-.2-2.1-.2-2.8.4,0,1.2-.2,1.6-.2,1.7-.4,3.5-.8,5-1.7,1.9-1.3.2-3.6.1-5.3ZM183.8,63.9c1.1,3.6,3.8,6.4,6.1,9.2-.2-3.1-.5-6.5-2.9-8.8-1-.8-2.6-2.3-3.3-.4ZM159.4,64.7c0,1.3,0,2.6,0,4,1.4,1.4,3.7,1.2,5.4.4.1-1.1.9-2.6-.2-3.4-1.3-1.6-3.6-.8-5.3-.9ZM124,83.1c-1.6.6-1.3,2.9-1,4.2,1.8,3.5,9.9,2.3,8.8-2.3-1.5-2.6-5.3-3.2-7.8-1.9ZM161.7,83.8c-1.5,1.2-.7,3.2-.8,4.8,2.9.3,5-1.2,6-3.9-1.6-.7-3.6-2.8-5.2-.9ZM113.9,83.8c-2.3,1.4-1.6,4.1-1.4,6.3,2.2.2,5.9-.4,5.8-3.3.6-2.5-2.4-3.4-4.4-2.9ZM135.3,91.8c-.2,2.4,1.6,4.5,3.7,5.4,1.2,2.1,3,4,3.5,6.5-1.9,2.9-4.5,5.5-4.3,9.1l.8-.5c.4,1.3.8,2.7,1.2,4,2.1.1,4.2.2,6.3.3.5-2,.9-4.1,1.3-6.1h.8c0-1.3,0-2.8-.2-4.2,1.7.6,3.3,1.1,5,1.7-2-1.6-4.3-3.2-5.2-5.8-1-2.5-2-5-4.2-6.7-3.1-2.4-3.7-6.4-4.7-9.9-1.7,1.8-3.9,3.5-4,6.2ZM152.1,94.9c.4,1.7,1.1,3.4,1.8,5,1.5-.6,3.5-.8,4.2-2.4.2-1.5-.4-3-.6-4.5-1.9.4-4.6-.3-5.5,2ZM163.5,95c-1.4,3.2,2.8,3.4,4.9,2.9,0-1.7,0-3.4,0-5.1-1.8,0-4.7-.4-4.9,2.2ZM107.9,96.3c-1.6.3-3.5,1.6-3.2,3.4.3,3.7,6.7,3.7,7.1,0,.2-1.9-1.9-4-3.9-3.5ZM116.8,97.1c.1,1.7.1,3.4.5,5.1,3,3.9,10.7-1.8,6.4-5.5-1.7-2.8-4.9-.8-6.9.4ZM129.3,104.1c.9,3.2,4.4,2.5,7,2.2-.2-1.8.8-4.2-1.1-5.3-2.2-1.7-7.9-.5-5.9,3.1ZM160,103.6c.3,1.4.7,2.9,1.1,4.3,1.4,0,3,.4,4.4,0,2-1.1,2.2-3.7,1.7-5.7-2.2-2.3-5.1,0-7.1,1.3ZM102.3,111.5c-1.2,3.1.3,7.8,4,7.9,3.3-1.3,2.3-5.5,1.9-8.2-2-.2-4.1-.8-5.9.3ZM118,114c-2.7,1.4-1.5,6.4,1.7,6.2,2.3.4,3.2-2.4,2.8-4.2,0-2.1-2.8-3-4.4-2ZM131.7,120.6c-.4-.2-1.2-.5-1.5-.7-.1,1.6,0,3.1-.4,4.7-.9.5-1.9.8-2.9,1.2v.6c-2-.2-4-.3-6.1-.4-1.9,2.4-2,5.3-1.6,8.2,2.9.9,6,1.5,8.7-.4,0,1.9-.3,3.8-.6,5.8h.9c-.2,1.7-.4,3.4-.5,5.1,1.6.1,3.2.7,4.8.2,2.1-1.1,1.6-3.8,1.8-5.7-.6,0-1.9,0-2.5,0,1-3.7,1.7-7.4,3.5-10.8-.5-2.3-1.1-4.7-1.6-7,.7,0,2,.1,2.7.1-.2-2,.2-5.6-2.7-5.5-2.5-.3-3,2.8-2,4.5ZM92,120.2c-2.7.6-2.9,6,.5,5.2,4,.4,3.7-7-.5-5.2ZM149,123.1c-2.1,1.1-4.2,4.4-2,6.3,2.3,2.6,6.6-.4,5.9-3.5.3-2.1-2.2-4.1-4-2.7ZM101.1,130.1c-2.4,1.8-1.6,7.1,1.8,7.3,3.4,1,6.6-3.4,4.8-6.3-1.3-2.3-4.6-2.4-6.5-1ZM138.1,132.3c-2.9,1.3-2.7,5.7,0,7.2,3,.8,6.1-2.2,5.3-5.2-.4-2.3-3.4-2.4-5.2-1.9ZM89,140.2c-1.1.7-2.2,2.1-1.8,3.5.6,3,5.7,4.9,7.3,1.7,1.1-1.2.1-2.9-.3-4.2-1.3-1.4-3.4-1.2-5.2-1ZM114.8,144.7c.2,2.8,3.7,1.6,5.6,1.8-.3-1.7.5-4.5-1.9-4.8-2-1-4.3.9-3.6,3.1ZM152.2,144.3c-.9,2.5,1.3,4.3,3.2,5.6,1.6-2.1,5.1-4.7,2.6-7.5-1.7-2.4-4.7.1-5.8,1.9ZM143.7,143.9c.4,1.4.4,3.2,1.7,4.2,1.1.5,2.4.2,3.7.1.3-1.7.2-3.4.2-5.1-1.9.2-3.7.5-5.5.8ZM99.7,144.4c.6,2.3,1.1,4.6,1.7,7l.7-.4c-.5,4.3,4.1,6.8,7.8,5.2,2.2-1.7,1.2-4.8,1.6-7.2-1.5-.2-3.1-.4-4.6-.4,0-3.4-4.4-4.2-7.2-4.2ZM129.9,146.1c0,1.2,0,2.4,0,3.6.4,0,1.3-.1,1.7-.1.2,2.4-.3,5.6,2.4,6.8,3.1.8,4.7-2.7,6.2-4.7.9,0,1.8,0,2.7-.2-1.2-1.2-2.4-2.3-3.7-3.4-2.6-2.2-6.2-1.6-9.3-2ZM119.8,153.1c-.4,1.7-1,3.5-.7,5.3,1.1,1.8,2.9,3.8,5.3,3.2,3.6,0,3.4-5,3.3-7.6-2.6-.9-5.3-1.3-7.9-.8ZM91.6,154.7c.1,1.5.2,3.1.5,4.6,2.3,2,6-.2,5.1-3.2-.9-2.5-3.7-1.7-5.6-1.4ZM84.2,158.5c-2.3.8-1.8,3.4-1.8,5.3,1.8-.5,4.8.2,5.3-2.2.9-1.9-1.6-4.2-3.4-3.1ZM104.2,161.5c-.2,1.7-.5,3.3-.7,5,.6-.6,1.3-1.2,1.9-1.8-1.2,3.6,2.3,6.4,5.7,6.1.4-1.8.7-3.5,1.1-5.2.5-2.2.8-4.4,1.1-6.6-3,1-6.1,1.8-9.1,2.6ZM147.4,159.6c-1.6,1.5-1.4,3.7-1.5,5.7,2.3-.2,5.3.9,6.9-1.4,2.2-2.9-3-7.6-5.4-4.3ZM135.2,163.5c-.4,1.3-.5,2.7-.7,4.1,1.6,0,3.3,0,5,0-.3-2-.6-4-.9-5.9-1.2.6-2.3,1.1-3.4,1.9ZM94.1,167.2c-2.3,1-3.1,4.6-.8,6,1.8,1,3.9.9,5.6,0,.6-1.2.7-2.7.5-4,0-2.5-3.6-3.3-5.3-1.9ZM123.9,169.1c0,2-.3,4.1.3,6,1.3.7,2.8,1.3,4.3,1.1,2.9-.2,4.9-4.8,2.1-6.5-1.8-2.2-4.5-1.2-6.8-.6ZM143,172.2c-1.4,1.2-4,3.3-2.1,5.2.9,2.3,3.8,2.8,5.9,1.8,2.3-1.5,1.3-4.6,1.4-6.8-1.7,0-3.4-.3-5.1,0ZM99,178.3c0,1.7,0,3.3.1,5,1.2,2.3,4,2.9,6.4,2.8,2.5-1.1,1.7-4.1,1.4-6.2-1.6-3-5.3-2.2-8-1.6ZM115,185.7c1.4,2.3,4.8,3.6,6.8,1.3,1.8-1.4,1.1-3.8.9-5.7-1.8-.7-3.6-1.5-5.3-2.3-1.5,1.9-2.8,4.1-2.3,6.7ZM131.6,184.9c-.6.9-1,2-1.2,3.1l-.4-.7c-3.6-1.7-3.4,4-3.3,6.2-2.3-.7-6.2-.2-5.7,3,.2,2.9,3.6,2.3,5.7,2.6,0-1.6,0-3.1,0-4.6.3,1.4,1.1,2.6,1.7,3.9.3-1.8.6-3.6.8-5.5,1.9,0,3.9,0,5.8-.2l-.8-.4c2.3.2,3.6-1.9,5-3.4-.3-1.8.3-4.3-1.7-5.2-1.8-.9-5.2-1.3-6,1.2ZM149.6,183.5c-.3,2.6-.2,5.3,0,7.9-1.4,0-2.9-.1-4.3,0-1.6,1.1-1.6,3.1-.9,4.7,2.3,1.1,4.1-.9,5.8-2.2,1,2.4,2.1,4.8,3.5,7.1-.9-5.9-1.9-11.9-3.9-17.5ZM93,188.3c-2.6.8-3.8,3.7-3.2,6.2,2.7,4.3,9.2-.4,8.1-4.5-.1-2.4-3.2-2.2-4.8-1.7ZM108.1,193.2c-2.8,1.8-2.9,5.9-1.5,8.6,2.2,3.5,7.9,2.6,9.3-1.2.4-4.2-3.2-9.2-7.8-7.4ZM132.8,199.9c.1,1.9.3,3.7.5,5.6,1.5-.3,3.9,0,4.4-1.9.5-1.8-.7-3.4-1.1-5-1.3.4-2.5.8-3.8,1.2ZM96.3,204.2c-.3,1.8-.7,3.6-1.1,5.3-.1,1.6-.4,3.2-.2,4.7-1.7.2-3.9-.8-5,.9-1.3,1.4-1.8,4.2.3,5.1,2,.8,3.9-.5,5.5-1.5.2,1.3.4,2.6.6,3.9,1.1,0,2.2-.1,3.2-.2-.3-2.9-.8-5.8-1.7-8.6,2.3.3,4.6.5,6.9.6-1.4-2.4-4.2-2.8-6.8-3.2-.3-.2-1-.6-1.3-.8,1.2.4,2.5.8,3.8,1,2.1-2.1,3-4.7,1.7-7.5-2,0-4,0-6,.2ZM146.1,204.3c-3.7,1.8-3.3,9.6,1.5,9.3,3.8,0,5.6-5.4,3.4-8.1-1-1.8-3.3-1.4-4.9-1.2ZM120.1,205.2c-2.6,1.5-2.8,5.9-.2,7.6,1.2,1,3.1.7,4.5.2,2.9-1.1,1.7-4.7,2.1-7-2-.6-4.4-2.4-6.4-.8ZM108.5,213c-.9,1.8-1.4,3.8-1.2,5.8,1.9-.2,5.6.1,5-2.9.3-2.2-2.5-2.1-3.8-3ZM129.8,221.4c2.2.2,4.4,1.1,6.6.5,3.3-1.7,2.1-8.1-1.9-7.8-3.8-.2-6.1,4-4.7,7.3ZM105.4,224.3c-.6,0-1.8,0-2.4,0,0,1.4-.1,2.8,0,4.2,1.1,1.8,4,3.7,5.9,1.8,1.9-1.3,1-3.7.9-5.6,1,0,2,0,3-.2,1.6.5,3.2,1.1,4.8,1.7.3,1.9.7,3.7,1.2,5.6,1.6-.2,3.3-.2,4.9-.8,1.8-1,2.1-3.6,1.2-5.2-1.3-2-4.1-1.2-6.1-1.4-1.1-.7-2.1-1.5-3.1-2.2.6-1,1.3-2,1.9-2.9-4.1,1.4-9.3,1.4-12.1,5.2ZM149.7,223.4c1.8,0,3.6,0,5.4.1,0-1.6,0-3.3,0-4.9-1.2,0-2.3,0-3.5,0-2,.8-1.5,3.1-2,4.8ZM87.3,227.5c-.4,1.3-.6,2.7-.8,4,1.6,0,3.2,0,4.8,0,0-1.7,0-3.4,0-5.1-1.4.3-2.7.5-4,1ZM133.1,228.3c-4.2,2-3.1,9,1.6,9.6,4.1,1,6.5-4.4,4.6-7.6-.9-2.6-4-2.3-6.2-1.9ZM146.4,229.7c0,2.1-.5,4.5,1.3,6,1.3,2,3.8,1.8,5.9,2.2.4-2.2,1.1-4.7-.4-6.6-1.4-2.5-4.5-1.7-6.8-1.5ZM96.4,238.6c2.2,1.5,6,3.4,7.7.2,0-2.3-1.9-5-4.5-4.1-1.9.4-2.4,2.5-3.2,3.9ZM115,237.2c-3.7,2.4-3.4,8.9.8,10.6,3.9,2.4,8.5-1.9,8.1-6,0-4.3-5.3-7.2-8.9-4.6ZM146,242.2c-1.9.3-3.3,2.7-2.6,4.5,1.3,3,6.5,1.2,6-1.9.4-2.1-1.7-3.3-3.5-2.6ZM131.2,249.3c-.3,1.7-.2,3.5-.3,5.3,2.1,1.2,4.5,2.8,7,1.6,2.8-2,3.2-7,0-8.8-2.3-.7-5.4-.5-6.6,1.8ZM92.1,249.4c-3.4,1.1-2.5,5.5.5,6.5,2.6,1.9,5.9-1.1,4.8-3.9.1-2.9-3.2-3-5.3-2.5ZM163.3,248.3c-.4,1.7-1.9,3.5-.5,5.1.9,2.8,4.1,1.9,6.3,2,.2-2.3.4-4.5.6-6.8-2.2-.1-4.3-.2-6.4-.4ZM108,253.2c-4.2.3-3.6,7.9.6,7.4,5.4,1,4.7-9.2-.6-7.4ZM119.1,257.3c-3.2,1.1-3.6,5.3-1.7,7.8,3.1,1.8,7.5-1.8,6.6-5.2-.2-2.4-3-3.1-4.9-2.6ZM146.4,265.8c2-.6,4.4-1,5.2-3.2,1.4-2.4-1-6.4-3.8-4.9-3.1,1.6-2.5,5.5-1.4,8.2ZM131,262.2c-.4.1-1.1.4-1.4.5-4.3,3.2,3.3,9.1,6.1,5.1,1.8-3-1.3-6.8-4.7-5.7ZM81,263.2c-2.3.6-3.2,4.1-1,5.3,2.3,1.8,5.6,0,6-2.8-.5-2.2-3-3-5-2.5ZM95.3,270.1c1.7,1.9,4.4,1,6.1-.3.2,1.2.4,2.3.7,3.5,1.1,1.1,2.8.7,4.2.9,1.8,1.4,3.6,3.8,6.2,2.8,2.3-.8,2.2-3.6,1.4-5.4-1.7-1-3.6-1.4-5.5-1.9.5-1.7.6-3.4.8-5.2-2.1,1.3-4.2,2.8-6.2,4.2.4-2.1.2-5.4-2.5-5.7-3.9-.9-6.6,3.6-5.1,7ZM159.1,264.2c-2.2,1.9-1.3,4.9-1.1,7.4,2.6,0,5.8,0,6.8-3,1.6-3.4-2.7-6.3-5.6-4.5ZM143.3,271.5c-.7,1.1-1.2,2.2-1.8,3.3,2,2.2,4.8,3.2,7.7,2.7,0-2.1,0-4.2,0-6.2-1.9,0-4.1-.8-5.9.2ZM173.8,277.9c2.2,1.2,4.1-.8,5.7-2.1-1.3-1.9-3.1-4.5-5.7-3.2-2.5.7-2.6,4.7,0,5.2ZM122.6,278.6c2.3.5,6,2.2,7.1-.9,1.2-2.8-2.6-5-4.9-3.7-2.3.2-1.7,3-2.2,4.6ZM73.9,282.7c-.2,2.1,2.2,2.4,3.5,3.3.6-1.6,1.4-3.2,1.6-5-.8-1.1-1.6-2.1-2.5-3.2-1.2,1.4-3,2.8-2.6,4.9ZM97,279c-1.9.8-3.8,3.4-2,5.3,1.9,3.2,8.3,4.7,9.2,0,1.5-4.2-3.7-7.7-7.2-5.4ZM135.1,281.2c-2.4,1.1-2,4.1-2.3,6.2,1.9.9,3.9,2.8,6.2,1.8,3-1,2.1-4.7,2.4-7.2-2-.5-4.3-2.3-6.3-.8ZM165,287.6c1.8-.3,4.5.5,5.1-1.9.9-2.9-2.4-4.2-4.6-4.6-2.3,1.6-.7,4.3-.5,6.5ZM116,285.1c-2.6,1.4-2.7,4.8-2.1,7.3,1.1,2.4,3.9,3.6,6.4,3.1,5.2-.9,5.4-10.1.2-11.1-1.6-.2-3.2-.2-4.5.8ZM151.7,286.1c.2,2.6,0,5.8,3,6.9,3.7,1.3,6.5-3.5,4.4-6.5-1.2-3.4-5.2-1.5-7.4-.3ZM177.6,285.8c-.2,1.2-.5,2.4-.5,3.6,1,2.2,3.9,3.4,6,1.7,1.1-3.4-2.6-5.3-5.4-5.4ZM91,291.1c-3.5.9-3.7,6.6-.2,7.7,2.7,1.4,5.7-1.2,5.2-4.1.3-2.8-2.5-4.4-5-3.6ZM166.9,290.7c-1,1.4-2,2.8-2.7,4.4.1,1.4.9,2.6,1.4,3.9.6-.6,1.3-1.3,1.9-1.9-.9,3,1.5,6.8,4.9,5.9,3.5-.8,2.6-5,2.1-7.6-1.5-.3-3.1-.6-4.6-.8-1-1.3-2-2.6-3.1-3.9ZM143.1,295.3c-2.9.9-3.9,4.7-2.4,7.2,1.6,3,6.8,2.8,8.4-.1.3-1.9.5-3.9-.4-5.7-1.2-1.9-3.7-1.7-5.6-1.3ZM154.9,298.1c-1.6,1.1-.4,3-.3,4.5,1.6,0,3.1-.1,4.7-.2,0-1.8-.1-3.5-.2-5.3-1.4.2-3.2-.2-4.2,1ZM76.1,298.3c-3.2,1.3-1.5,6.4,1.5,7,2.4-.6,4.5-3.8,2.7-6.1-.8-1.5-2.8-1.3-4.2-1ZM109,299.1c-3.2,2-2.8,8.9,1.7,9,2.9,0,4.6-2.9,5.3-5.3.4-3.6-4.2-5.4-6.9-3.6ZM124.7,300.5c.3,2.4,1.1,4.8,2.1,7,2-.4,4.7.4,6-1.6,1.9-1.9.7-5-.6-6.9-2.6-.7-5.1.7-7.4,1.5ZM98,309.1c-2.6,1.5-1.9,4.7-1.9,7.2,2.8.2,6.1.4,7.6-2.5,2.4-3.3-2.9-7.4-5.7-4.7ZM171,311.2c-.1,1.6-.2,3.1-.3,4.7,2.4.1,5.9,0,6-3.2.6-3.6-3.8-1.9-5.7-1.5ZM82.4,312.6c-.8,1.8-.2,4-.3,5.9,1.3-.1,2.6-.2,3.8-.4.6-2.1.4-4.2.4-6.4-1.3.2-2.8.2-4,.9ZM113.7,312.7c-.5,2.4-1.9,5.8.6,7.5,2.9,1.6,6.8-2.1,5-5-.9-2.4-3.6-2.1-5.6-2.6ZM96.7,323c.2,1.3.4,2.6.8,3.9,1.9,1.9,4.7,1.3,7.1.8-.4-1.7-.3-4-2-5-1.8-1.3-4,0-5.9.3ZM109.3,328.5c-1.3,1.1-.9,2.8-1,4.3,1.5-.2,3.1,0,4.6-.7,1.6-1,1.4-3,1.9-4.6-1.9.1-4.1-.7-5.5,1Z"/>
      <path class="cls-145" d="M166.9,57.4c2.4.2,4.7.4,7.1.7.1,1.4.3,2.8.5,4.2-1.6.5-3.2,1.2-4.8,1.4-1.9-.1-3.4-1.5-4.9-2.3.7-1.3,1.4-2.6,2.2-3.9Z"/>
      <path class="cls-42" d="M177.1,59.3c.6-.2,1.9-.7,2.5-.9,1.2.5,2.4,1.1,3.7,1.7-.7,1.2-1.4,2.4-2.2,3.5-1.6.6-3.2-.4-4.7-.7.2-1.2.5-2.3.7-3.5Z"/>
      <path class="cls-44" d="M127.6,66.9c1.4-1.4,1.7-3.4,2.2-5.2.3.2.9.5,1.2.7l1.6,1c-.1,2.7-.2,5.4-.4,8-.2.7-.5,2-.7,2.7-.9-2-1.6-4.1-2.4-6.2-2,1.6-4,3.3-5.9,5-1.9,1.6-3.8,3.2-5.7,4.8,2.7-4.2,6.7-7.3,10.1-10.9Z"/>
      <path class="cls-97" d="M183.8,63.9c.7-1.9,2.3-.4,3.3.4,2.3,2.3,2.6,5.8,2.9,8.8-2.3-2.9-5.1-5.6-6.1-9.2Z"/>
      <path class="cls-53" d="M132.6,63.4c2.5,1.7,5.8,2.4,7.3,5.2,2.1,3.3,4.4,6.5,5.7,10.2-1,1.6-2.4,3-3.6,4.4-3.1-4-6.5-7.8-9.7-11.7.2-2.7.2-5.4.4-8Z"/>
      <path class="cls-135" d="M159.4,64.7c1.8.1,4-.7,5.3.9,1.1.8.3,2.4.2,3.4-1.7.8-4,1-5.4-.4,0-1.3-.1-2.6,0-4Z"/>
      <path class="cls-121" d="M175.9,72.8c.3-2.2.8-4.4,1.5-6.6,1.4,4.2.1,9.1,3,12.7,1.2,1.9,2.7,3.7,3.3,5.9,0,3.2-1.6,6-3,8.8-.8,1.9-2.1,3.8-1.9,5.9.7,2.6,2.4,4.7,3.8,6.9,4.1-.9,9.1-1.7,11.4-5.7-1.6-3.1-4.8-5-6.8-7.8.3-.7.9-2.1,1.2-2.8,4,.6,8.1,1.1,12.1.2h.9c-.4,2.2-.9,4.5-2.7,6.2-2.3,2.5-3.5,6-6.4,7.9-2.9,1.9-6.2,3.2-9.6,3.5-3.2,0-6.1-1.8-9.1-2.5,2.5-4.8,2.8-10.5,6.2-14.9,1-1.9,2.6-4.1,1.9-6.4-.8-1.9-2.2-3.5-3.4-5.2-1.8.4-3.6,1.2-5.4,1.1-2.4-1.1-4.4-3-6.5-4.6,0-.3-.1-.8-.2-1.1,3.3-.3,6.6-.9,9.9-1.5Z"/>
      <path class="cls-88" d="M158.9,313.2c1-1.8,1.4-4.8,3.9-5.1,2.1-.6,3.8,1.8,3.6,3.7.2,2.8-2.7,4-4.5,5.5-1-1.4-2-2.7-3-4.1Z"/>
      <path class="cls-101" d="M123.2,72.9c1.9-1.7,3.9-3.4,5.9-5,.8,2.1,1.5,4.1,2.4,6.2,1.5,3.3,3.8,6.1,5.8,9.1-3.2-2.2-5.8-5.1-8-8.3-2.1-.5-4.1-1.2-6.1-1.9Z"/>
      <path class="cls-142" d="M191.7,80.9c0-3.2,1-6.3,3.1-8.8.3,2.2,1.1,5-.9,6.6-.7.7-1.5,1.5-2.2,2.2Z"/>
      <path class="cls-50" d="M167.3,80c-.8-1.4-.9-3-1.1-4.6,2.1,1.6,4,3.5,6.5,4.6,1.9,0,3.6-.7,5.4-1.1,1.2,1.7,2.6,3.3,3.4,5.2.7,2.3-.9,4.5-1.9,6.4-1.6-.6-3.3-1.1-4.8-1.8-.9-1.7-1.2-3.6-1.7-5.4-2-1-4.1-1.9-5.8-3.2Z"/>
      <path class="cls-137" d="M124,83.1c2.5-1.4,6.3-.7,7.8,1.9,1.1,4.6-7,5.9-8.8,2.3-.3-1.3-.6-3.6,1-4.2Z"/>
      <path class="cls-95" d="M161.7,83.8c1.6-1.8,3.6.2,5.2.9-1,2.6-3.1,4.2-6,3.9.1-1.6-.7-3.6.8-4.8Z"/>
      <path class="cls-112" d="M113.9,83.8c1.9-.5,4.9.4,4.4,2.9.2,3-3.5,3.5-5.8,3.3-.2-2.2-.9-4.9,1.4-6.3Z"/>
      <path class="cls-133" d="M135.3,91.8c0-2.7,2.3-4.4,4-6.2,1,3.5,1.6,7.5,4.7,9.9,2.2,1.7,3.2,4.2,4.2,6.7.9,2.6,3.2,4.1,5.2,5.8-1.7-.6-3.3-1.1-5-1.7-.9-2.1-1.8-4.2-3.3-6-1.9-1.3-4.1-2.1-6.1-3.1-2.1-.9-3.9-3-3.7-5.4Z"/>
      <path class="cls-68" d="M152.1,94.9c.8-2.3,3.5-1.6,5.5-2,.3,1.5.8,3,.6,4.5-.7,1.7-2.8,1.8-4.2,2.4-.7-1.6-1.5-3.2-1.8-5Z"/>
      <path class="cls-58" d="M163.5,95c.2-2.6,3.1-2.1,4.9-2.2,0,1.7,0,3.4,0,5.1-2.1.5-6.3.3-4.9-2.9Z"/>
      <path class="cls-110" d="M180.7,93.7c2.1-.3,4.3-.5,6.5-.8,2.1,2.8,5.2,4.7,6.8,7.8-2.3,4-7.3,4.8-11.4,5.7-1.4-2.2-3.1-4.3-3.8-6.9-.2-2.1,1.1-4,1.9-5.9Z"/>
      <path class="cls-90" d="M107.9,96.3c1.9-.5,4.1,1.6,3.9,3.5-.3,3.6-6.8,3.6-7.1,0-.3-1.8,1.6-3.1,3.2-3.4Z"/>
      <path class="cls-56" d="M116.8,97.1c2.1-1.1,5.2-3.2,6.9-.4,4.3,3.6-3.4,9.3-6.4,5.5-.4-1.7-.4-3.4-.5-5.1Z"/>
      <path class="cls-146" d="M192.2,104.3c2.9-1.9,4.1-5.4,6.4-7.9,1.4,4-2.4,7-4.9,9.4-4,3.9-9.8,6.5-15.5,5.2-2.8-.6-4-3.4-4.8-5.8,3.1.8,5.9,2.4,9.1,2.5,3.4-.3,6.7-1.6,9.6-3.5Z"/>
      <path class="cls-59" d="M139,97.2c2,1,4.2,1.8,6.1,3.1,1.5,1.7,2.4,3.9,3.3,6,.2,1.4.2,2.9.2,4.4h-.8c-3.1-1.1-6.2-.2-8.8,1.7l-.8.5c-.2-3.7,2.5-6.3,4.3-9.1-.5-2.4-2.3-4.4-3.5-6.5Z"/>
      <path class="cls-41" d="M129.3,104.1c-2-3.6,3.7-4.8,5.9-3.1,1.9,1.1.9,3.6,1.1,5.3-2.5.3-6,.9-7-2.2Z"/>
      <path class="cls-62" d="M94.7,105.2c1-1.6,2.4-3.1,3.9-4.3,1.1,1.3,3,2.5,2.6,4.5-.7.9-1.6,1.6-2.6,2.1-1.4-.6-2.6-1.5-3.8-2.3Z"/>
      <path class="cls-145" d="M160,103.6c2-1.3,4.9-3.6,7.1-1.3.5,2,.3,4.6-1.7,5.7-1.5.4-3,0-4.4,0-.4-1.5-.7-2.9-1.1-4.3Z"/>
      <path class="cls-73" d="M139,112.3c2.6-1.9,5.7-2.8,8.8-1.8-.4,2.1-.8,4.1-1.3,6.1-2.1,0-4.2-.2-6.3-.3-.4-1.4-.8-2.7-1.2-4Z"/>
      <path class="cls-1" d="M102.3,111.5c1.8-1.1,3.9-.5,5.9-.3.3,2.7,1.3,6.9-1.9,8.2-3.7-.1-5.2-4.9-4-7.9Z"/>
      <path class="cls-127" d="M118,114c1.6-1,4.4,0,4.4,2,.5,1.8-.5,4.6-2.8,4.2-3.2.1-4.3-4.9-1.7-6.2Z"/>
      <path class="cls-55" d="M131.7,120.6c-1-1.7-.5-4.8,2-4.5,3-.2,2.5,3.5,2.7,5.5-.7,0-2-.1-2.7-.1-.5-.2-1.5-.6-2-.8Z"/>
      <path class="cls-124" d="M92,120.2c4.2-1.8,4.5,5.6.5,5.2-3.3.8-3.2-4.6-.5-5.2Z"/>
      <path class="cls-83" d="M130.1,119.9c.4.2,1.2.5,1.5.7.5.2,1.5.6,2,.8.5,2.3,1.1,4.7,1.6,7-1.8,3.4-2.6,7.1-3.5,10.8-1.2,0-2.4.1-3.6.2h-.9c.2-1.9.6-3.8.6-5.7-.2-2.5-.6-4.9-.9-7.4v-.6c.9-.4,1.9-.7,2.8-1.2.4-1.5.3-3.1.4-4.7Z"/>
      <path class="cls-15" d="M149,123.1c1.8-1.3,4.3.6,4,2.7.6,3.1-3.6,6.1-5.9,3.5-2.2-1.9,0-5.2,2-6.3Z"/>
      <path class="cls-13" d="M120.7,126c2.1.1,4.1.3,6.2.4.4,2.5.8,4.9.9,7.4-2.7,1.8-5.8,1.2-8.7.4-.4-2.9-.3-5.8,1.6-8.2Z"/>
      <path class="cls-40" d="M101.1,130.1c2-1.4,5.2-1.3,6.5,1,1.8,3-1.3,7.4-4.8,6.3-3.4-.3-4.1-5.6-1.8-7.3Z"/>
      <path class="cls-11" d="M138.1,132.3c1.8-.5,4.8-.4,5.2,1.9.8,3-2.3,6-5.3,5.2-2.6-1.4-2.9-5.9,0-7.2Z"/>
      <path class="cls-27" d="M128.1,139.5c1.2,0,2.4-.2,3.6-.2.6,0,1.9,0,2.5,0-.2,2,.4,4.6-1.8,5.7-1.6.5-3.2,0-4.8-.2.1-1.7.3-3.5.5-5.2Z"/>
      <path class="cls-12" d="M89,140.2c1.7-.2,3.8-.3,5.2,1,.4,1.3,1.4,3,.3,4.2-1.6,3.2-6.7,1.3-7.3-1.7-.4-1.4.7-2.8,1.8-3.5Z"/>
      <path class="cls-89" d="M114.8,144.7c-.6-2.2,1.6-4.1,3.6-3.1,2.5.3,1.6,3.1,1.9,4.8-1.9-.1-5.3,1-5.6-1.8Z"/>
      <path class="cls-29" d="M152.2,144.3c1.1-1.8,4.1-4.4,5.8-1.9,2.5,2.8-1,5.4-2.6,7.5-1.9-1.2-4-3-3.2-5.6Z"/>
      <path class="cls-94" d="M143.7,143.9c1.8-.3,3.7-.6,5.5-.8,0,1.7,0,3.4-.2,5.1-1.2.1-2.5.4-3.7-.1-1.3-1-1.2-2.8-1.7-4.2Z"/>
      <path class="cls-129" d="M99.7,144.4c2.7,0,7.3.8,7.2,4.2-1.6.8-3.2,1.6-4.8,2.4l-.7.4c-.6-2.3-1.1-4.6-1.7-7Z"/>
      <path class="cls-78" d="M94.1,167.2c1.7-1.4,5.3-.5,5.3,1.9.2,1.3,0,2.8-.5,4-1.7,1-3.9,1.1-5.6,0-2.2-1.4-1.5-5,.8-6Z"/>
      <path class="cls-105" d="M129.9,146.1c3.1.4,6.7-.1,9.3,2,1.3,1,2.5,2.2,3.7,3.4-.9,0-1.8.2-2.7.2-1.1-.8-2.1-1.7-3.2-2.5-1.8.1-3.6.3-5.3.4-.4,0-1.3.1-1.7.1,0-1.2,0-2.4,0-3.6Z"/>
      <path class="cls-102" d="M102.2,151c1.6-.8,3.2-1.6,4.8-2.4,1.5,0,3.1.2,4.6.4-.3,2.4.7,5.6-1.6,7.2-3.7,1.6-8.3-.9-7.8-5.2Z"/>
      <path class="cls-149" d="M131.7,149.6c1.8-.2,3.5-.3,5.3-.4,1,.9,2.1,1.7,3.2,2.5-1.5,2-3,5.5-6.2,4.7-2.6-1.3-2.1-4.4-2.4-6.8Z"/>
      <path class="cls-37" d="M119.8,153.1c2.7-.4,5.4,0,7.9.8,0,2.6.3,7.6-3.3,7.6-2.4.6-4.2-1.3-5.3-3.2-.3-1.8.4-3.5.7-5.3Z"/>
      <path class="cls-37" d="M115,185.7c-.5-2.5.8-4.8,2.3-6.7,1.8.8,3.5,1.5,5.3,2.3.2,1.9.9,4.2-.9,5.7-2,2.3-5.4,1-6.8-1.3Z"/>
      <path class="cls-19" d="M91.6,154.7c1.9-.3,4.8-1.1,5.6,1.4.9,2.9-2.8,5.2-5.1,3.2-.3-1.5-.4-3.1-.5-4.6Z"/>
      <path class="cls-4" d="M84.2,158.5c1.8-1.1,4.4,1.2,3.4,3.1-.5,2.4-3.5,1.7-5.3,2.2,0-1.9-.5-4.6,1.8-5.3Z"/>
      <path class="cls-128" d="M104.2,161.5c3.1-.8,6.1-1.6,9.1-2.6-.2,2.2-.6,4.4-1.1,6.6-2-1.5-4.9-3.7-6.8-.8-.7.6-1.3,1.2-1.9,1.8.2-1.7.5-3.3.7-5Z"/>
      <path class="cls-113" d="M147.4,159.6c2.3-3.3,7.6,1.4,5.4,4.3-1.5,2.3-4.6,1.2-6.9,1.4.1-2-.1-4.2,1.5-5.7Z"/>
      <path class="cls-85" d="M135.2,163.5c1.1-.7,2.2-1.3,3.4-1.9.3,2,.6,3.9.9,5.9-1.7,0-3.3,0-5,0,.2-1.4.3-2.7.7-4.1Z"/>
      <path class="cls-34" d="M76.1,298.3c1.4-.3,3.4-.6,4.2,1,1.8,2.2-.3,5.4-2.7,6.1-3-.6-4.7-5.7-1.5-7Z"/>
      <path class="cls-16" d="M105.4,164.7c2-2.9,4.8-.7,6.8.8-.4,1.7-.7,3.5-1.1,5.2-3.4.3-6.9-2.4-5.7-6.1Z"/>
      <path class="cls-72" d="M154.8,167.6c1.8-.2,3.7-.3,5.5-.3,0,.9.1,2.8.2,3.7-1.7.6-3.4,1.1-5.2,1.6-.2-1.7-.3-3.3-.5-5Z"/>
      <path class="cls-111" d="M131,262.2c3.3-1.2,6.5,2.7,4.7,5.7-2.8,4-10.4-1.9-6.1-5.1.4-.1,1.1-.4,1.4-.5Z"/>
      <path class="cls-115" d="M123.9,169.1c2.3-.5,5-1.6,6.8.6,2.8,1.7.8,6.3-2.1,6.5-1.6.2-3-.4-4.3-1.1-.6-1.9-.3-4-.3-6Z"/>
      <path class="cls-25" d="M143,172.2c1.7-.2,3.4,0,5.1,0-.1,2.3,1,5.3-1.4,6.8-2.1,1.1-4.9.5-5.9-1.8-1.9-1.9.7-3.9,2.1-5.2Z"/>
      <path class="cls-118" d="M99,178.3c2.7-.7,6.3-1.4,8,1.6.3,2.1,1.1,5.1-1.4,6.2-2.4.1-5.2-.5-6.4-2.8-.2-1.7-.2-3.3-.1-5Z"/>
      <path class="cls-65" d="M153.4,182c1.6,0,3.2.1,4.8.2.2,1.6.4,3.3.6,4.9v1.1c-1.5,0-3.1.2-4.7,0-2-1.6-.9-4.2-.7-6.3Z"/>
      <path class="cls-49" d="M131.6,184.9c.8-2.4,4.2-2.1,6-1.2,2,.9,1.4,3.4,1.7,5.2-1.9-.7-3.8-1.4-5.7-2.1-.8.5-1.6,1-2.4,1.5,0-1.2.2-2.4.4-3.5Z"/>
      <path class="cls-92" d="M149.6,183.5c2.1,5.6,3.1,11.6,3.9,17.5-1.4-2.2-2.5-4.7-3.5-7.1-1.6,1.3-3.5,3.3-5.8,2.2-.6-1.6-.7-3.7.9-4.7,1.4-.2,2.8,0,4.3,0-.1-2.6-.2-5.3,0-7.9Z"/>
      <path class="cls-136" d="M130.5,188c.2-1.1.6-2.1,1.2-3.1-.1,1.2-.3,2.3-.4,3.5.8-.5,1.6-1,2.4-1.5,1.9.7,3.8,1.4,5.7,2.1-1.3,1.5-2.6,3.6-5,3.4-1-.4-2-.9-3-1.3-.3-1-.6-2-1-3.1Z"/>
      <path class="cls-45" d="M126.7,193.5c-.1-2.2-.3-7.9,3.3-6.2l.4.7c.3,1,.6,2,1,3.1,1,.4,2,.9,3,1.3l.8.4c-2,0-3.9.1-5.8.2-.2,1.8-.5,3.6-.8,5.5-.6-1.3-1.4-2.5-1.7-3.9v-1Z"/>
      <path class="cls-147" d="M93,188.3c1.6-.5,4.7-.7,4.8,1.7,1.2,4.1-5.4,8.8-8.1,4.5-.6-2.5.6-5.5,3.2-6.2Z"/>
      <path class="cls-21" d="M108.1,193.2c4.6-1.8,8.2,3.2,7.8,7.4-1.4,3.8-7.1,4.7-9.3,1.2-1.3-2.7-1.3-6.8,1.5-8.6Z"/>
      <path class="cls-130" d="M121,196.5c-.5-3.2,3.4-3.8,5.7-3v1c0,1.5,0,3.1,0,4.6-2-.2-5.4.3-5.7-2.6Z"/>
      <path class="cls-24" d="M132.8,199.9c1.2-.4,2.5-.8,3.8-1.2.5,1.6,1.7,3.2,1.1,5-.6,1.9-2.9,1.6-4.4,1.9-.2-1.9-.3-3.7-.5-5.6Z"/>
      <path class="cls-148" d="M87.5,199.3c.5,2.1.9,4.1,1.2,6.2.8.5,1.6,1.1,2.4,1.6-2.5,2.2-4.9,4.6-6.1,7.7.3-4.6.7-9.2,1.9-13.6.1-.5.4-1.5.5-2Z"/>
      <path class="cls-77" d="M96.3,204.2c2-.2,4-.2,6-.2-1.3,1-2.5,1.9-3.7,3,.5,1.6,1.3,3,2,4.5-1.3-.3-2.6-.6-3.8-1-.4-.2-1.2-.7-1.6-1,.4-1.8.8-3.6,1.1-5.3Z"/>
      <path class="cls-123" d="M146.1,204.3c1.7-.3,3.9-.6,4.9,1.2,2.2,2.8.4,8.2-3.4,8.1-4.9.3-5.2-7.5-1.5-9.3Z"/>
      <path class="cls-117" d="M102.2,204c1.3,2.8.4,5.4-1.7,7.5-.7-1.5-1.5-2.9-2-4.5,1.2-1.1,2.4-2,3.7-3Z"/>
      <path class="cls-122" d="M120.1,205.2c2-1.6,4.4.2,6.4.8-.4,2.3.8,5.9-2.1,7-1.4.5-3.3.8-4.5-.2-2.6-1.7-2.5-6.1.2-7.6Z"/>
      <path class="cls-69" d="M95,214.3c-.2-1.6,0-3.2.2-4.7.4.2,1.2.7,1.6,1,.3.2,1,.6,1.3.8,2.5.4,5.3.7,6.8,3.2-2.3-.1-4.6-.4-6.9-.6.8,2.8,1.4,5.7,1.7,8.6-1.1,0-2.2.1-3.2.2-.2-1.3-.4-2.6-.6-3.9-.3-1.5-.6-3-.8-4.5Z"/>
      <path class="cls-48" d="M89.9,215.2c1.1-1.7,3.4-.7,5-.9.2,1.5.5,3,.8,4.5-1.7.9-3.5,2.3-5.5,1.5-2.1-.9-1.5-3.7-.3-5.1Z"/>
      <path class="cls-30" d="M108.5,213c1.3.8,4.1.8,3.8,3,.6,3-3.1,2.7-5,2.9-.2-2,.3-4,1.2-5.8Z"/>
      <path class="cls-140" d="M129.8,221.4c-1.3-3.3.9-7.5,4.7-7.3,4-.2,5.2,6.1,1.9,7.8-2.2.6-4.4-.3-6.6-.5Z"/>
      <path class="cls-14" d="M105.4,224.3c2.8-3.8,8-3.8,12.1-5.2-.6,1-1.3,2-1.9,2.9,1,.7,2.1,1.5,3.1,2.2-.3.5-.9,1.4-1.2,1.9-1.6-.6-3.2-1.2-4.8-1.7-1,.1-2,.3-3,.2-1.5,0-2.9-.2-4.4-.3Z"/>
      <path class="cls-116" d="M149.7,223.4c.5-1.7,0-4,2-4.8,1.1,0,2.3,0,3.5,0,0,1.6,0,3.2,0,4.9-1.8,0-3.6,0-5.4-.1Z"/>
      <path class="cls-126" d="M103,224.2c.6,0,1.8,0,2.4,0,1.5,0,2.9.2,4.4.3,0,1.9,1,4.3-.9,5.6-1.8,1.9-4.7,0-5.9-1.8-.2-1.4,0-2.8,0-4.2Z"/>
      <path class="cls-71" d="M118.7,224.2c2,.2,4.8-.7,6.1,1.4.9,1.7.6,4.2-1.2,5.2-1.5.6-3.2.6-4.9.8-.5-1.8-.9-3.7-1.2-5.6.3-.5.9-1.4,1.2-1.9Z"/>
      <path class="cls-61" d="M87.3,227.5c1.3-.5,2.7-.7,4-1,0,1.7,0,3.4,0,5.1-1.6,0-3.2,0-4.8,0,.2-1.4.4-2.7.8-4Z"/>
      <path class="cls-23" d="M133.1,228.3c2.2-.4,5.3-.7,6.2,1.9,1.9,3.2-.5,8.6-4.6,7.6-4.7-.5-5.8-7.5-1.6-9.6Z"/>
      <path class="cls-114" d="M146.4,229.7c2.3-.2,5.4-1,6.8,1.5,1.5,1.9.8,4.4.4,6.6-2.1-.4-4.6-.2-5.9-2.2-1.8-1.5-1.4-3.9-1.3-6Z"/>
      <path class="cls-134" d="M214.1,237.3c2.8-2.8,7.2-4.2,11-2.9,2.4,1.6,2.9,4.7,3.2,7.4.5,8.6-2.6,16.9-6.8,24.3-3.8,0-8,.3-11.4-1.8-2.4-1.4-4.9-2.6-7.4-3.8,2.3-8.3,4.8-17.2,11.4-23.2Z"/>
      <path class="cls-57" d="M96.4,238.6c.9-1.4,1.3-3.5,3.2-3.9,2.6-.9,4.4,1.9,4.5,4.1-1.7,3.2-5.5,1.3-7.7-.2Z"/>
      <path class="cls-60" d="M115,237.2c3.6-2.5,8.8.3,8.9,4.6.4,4.1-4.1,8.3-8.1,6-4.2-1.8-4.6-8.2-.8-10.6Z"/>
      <path class="cls-93" d="M146,242.2c1.8-.7,3.9.6,3.5,2.6.4,3-4.7,4.8-6,1.9-.7-1.8.7-4.2,2.6-4.5Z"/>
      <path class="cls-139" d="M131.2,249.3c1.2-2.4,4.4-2.6,6.6-1.8,3.3,1.7,2.8,6.7,0,8.8-2.5,1.1-4.9-.4-7-1.6,0-1.8,0-3.6.3-5.3Z"/>
      <path class="cls-43" d="M92.1,249.4c2.1-.5,5.4-.4,5.3,2.5,1.1,2.9-2.2,5.8-4.8,3.9-3-1-3.9-5.4-.5-6.5Z"/>
      <path class="cls-76" d="M163.3,248.3c2.1.1,4.3.2,6.4.4-.2,2.3-.4,4.5-.6,6.8-2.3-.1-5.4.8-6.3-2-1.3-1.6.1-3.4.5-5.1Z"/>
      <path class="cls-74" d="M108,253.2c5.4-1.9,6.1,8.4.6,7.4-4.2.5-4.8-7.1-.6-7.4Z"/>
      <path class="cls-5" d="M119.1,257.3c2-.6,4.8.2,4.9,2.6.9,3.4-3.5,7.1-6.6,5.2-1.9-2.4-1.5-6.7,1.7-7.8Z"/>
      <path class="cls-54" d="M175.2,258.2c1.9-.5,3.7-1,5.6-1.5v.9c-.4,1.7-.7,3.4-.9,5.1-1.2-.2-2.4-.4-3.6-.8-.5-1.2-.8-2.5-1.1-3.8Z"/>
      <path class="cls-17" d="M146.4,265.8c-1.1-2.7-1.7-6.6,1.4-8.2,2.8-1.5,5.3,2.6,3.8,4.9-.8,2.2-3.3,2.6-5.2,3.2Z"/>
      <path class="cls-108" d="M185.5,353c-4.2-4.4,2.8-12.1,7.7-9.1,3.1,1.6,1.8,5.4,1.7,8.1-.6.3-1.7.8-2.3,1.1-2.3.5-5.4,2.2-7.2-.1Z"/>
      <path class="cls-47" d="M202.7,260.5c2.5,1.1,5,2.4,7.4,3.8,3.4,2,7.6,1.7,11.4,1.8-.7,1.2-1.4,2.4-2,3.6-6.2-.5-11.6-3.8-17.6-5,.3-1.4.6-2.7.9-4.1Z"/>
      <path class="cls-38" d="M81,263.2c2-.4,4.5.3,5,2.5-.4,2.8-3.7,4.6-6,2.8-2.2-1.2-1.3-4.8,1-5.3Z"/>
      <path class="cls-79" d="M95.3,270.1c-1.5-3.4,1.3-7.9,5.1-7,2.7.3,2.9,3.6,2.5,5.7-.4.3-1.1.8-1.5,1-1.8,1.3-4.4,2.1-6.1.3Z"/>
      <path class="cls-132" d="M159.1,264.2c2.9-1.8,7.2,1,5.6,4.5-1,2.9-4.2,3-6.8,3-.2-2.5-1.1-5.6,1.1-7.4Z"/>
      <path class="cls-138" d="M102.9,268.8c2-1.5,4.1-3,6.2-4.2-.2,1.7-.3,3.5-.8,5.2-.6,1.5-1.4,3-2.1,4.5-1.4-.2-3.1.2-4.2-.9-.3-1.2-.6-2.3-.7-3.5.4-.2,1.2-.8,1.5-1Z"/>
      <path class="cls-22" d="M201.8,264.6c6,1.2,11.5,4.5,17.6,5-.6,2.2-1.4,4.4-2.2,6.5-5.3-2.9-11.2-3.5-17.1-3.7.6-2.6,1.1-5.2,1.6-7.8Z"/>
      <path class="cls-32" d="M108.3,269.8c1.9.5,3.8.9,5.5,1.9.8,1.8.9,4.7-1.4,5.4-2.6,1-4.4-1.4-6.2-2.8.7-1.5,1.4-3,2.1-4.5Z"/>
      <path class="cls-106" d="M143.3,271.5c1.8-1,3.9-.2,5.9-.2,0,2.1,0,4.1,0,6.2-3,.5-5.7-.5-7.7-2.7.6-1.1,1.1-2.3,1.8-3.3Z"/>
      <path class="cls-36" d="M198.4,287.5c0-5.1.3-10.2,1.8-15.1,5.9.2,11.8.8,17.1,3.7-.2,1.5-.5,3-.7,4.5-5.6-1.7-10.9-4.8-16.9-4.3-.2,2-.3,4.1-.4,6.1,5.5-.9,10.7,1.4,16.2,1,0,1.4,0,2.8-.1,4.2-5.6-.8-11.2-.2-16.8-.2Z"/>
      <path class="cls-10" d="M173.8,277.9c-2.6-.5-2.5-4.6,0-5.2,2.6-1.3,4.5,1.3,5.7,3.2-1.6,1.3-3.5,3.2-5.7,2.1Z"/>
      <path class="cls-86" d="M122.6,278.6c.5-1.6-.1-4.4,2.2-4.6,2.3-1.3,6.1.9,4.9,3.7-1.1,3.2-4.8,1.5-7.1.9Z"/>
      <path class="cls-99" d="M199.6,276.3c6.1-.4,11.3,2.6,16.9,4.3-.4.9-.8,1.9-1.2,2.8-5.5.3-10.7-1.9-16.2-1,.1-2,.3-4.1.4-6.1Z"/>
      <path class="cls-119" d="M73.9,282.7c-.5-2.1,1.3-3.5,2.6-4.9.9,1,1.7,2.1,2.5,3.2-.2,1.8-1,3.4-1.6,5-1.3-.9-3.7-1.2-3.5-3.3Z"/>
      <path class="cls-52" d="M97,279c3.5-2.4,8.7,1.2,7.2,5.4-.9,4.6-7.4,3.1-9.2,0-1.8-1.9.1-4.5,2-5.3Z"/>
      <path class="cls-70" d="M135.1,281.2c2-1.5,4.3.3,6.3.8-.3,2.4.6,6.1-2.4,7.2-2.3,1-4.3-.9-6.2-1.8.3-2.2-.1-5.1,2.3-6.2Z"/>
      <path class="cls-28" d="M165,287.6c-.3-2.2-1.9-4.9.5-6.5,2.2.4,5.5,1.7,4.6,4.6-.6,2.4-3.3,1.5-5.1,1.9Z"/>
      <path class="cls-141" d="M116,285.1c1.3-1,3-1,4.5-.8,5.2,1,5,10.2-.2,11.1-2.6.6-5.4-.6-6.4-3.1-.6-2.5-.5-5.9,2.1-7.3Z"/>
      <path class="cls-103" d="M151.7,286.1c2.2-1.1,6.2-3.1,7.4.3,2.1,3-.7,7.8-4.4,6.5-3-1-2.9-4.3-3-6.9Z"/>
      <path class="cls-144" d="M177.6,285.8c2.8.1,6.5,2,5.4,5.4-2.1,1.6-5,.5-6-1.7,0-1.2.3-2.5.5-3.6Z"/>
      <path class="cls-64" d="M198.4,287.5c5.6,0,11.2-.6,16.8.2,0,1.6-.1,3.2-.2,4.8-3.5-2-7.6-1.6-11.3-.6-1.4.2-2.8.4-4.3.5-.5-1.6-.7-3.2-1-4.9Z"/>
      <path class="cls-75" d="M91,291.1c2.5-.8,5.3.8,5,3.6.5,2.9-2.5,5.5-5.2,4.1-3.5-1.1-3.3-6.8.2-7.7Z"/>
      <path class="cls-2" d="M166.9,290.7c1,1.3,2,2.6,3.1,3.9-.8.8-1.6,1.7-2.4,2.5-.6.6-1.3,1.3-1.9,1.9-.5-1.3-1.3-2.5-1.4-3.9.7-1.6,1.7-3,2.7-4.4Z"/>
      <path class="cls-51" d="M203.7,291.9c3.8-.9,7.8-1.3,11.3.6.4,3.2,1.3,6.6.4,9.8l-.2.7v-1.2c-.2-2.1-.4-4.1-.6-6.2-5.1-1.8-10.5-.8-15.4.9,0,4.8.1,9.6,0,14.4-.8-5.3-1.3-10.7-.7-16,.4-2.4,3.3-2.5,5.1-3.1Z"/>
      <path class="cls-98" d="M143.1,295.3c1.9-.4,4.4-.5,5.6,1.3.9,1.7.7,3.8.4,5.7-1.6,3-6.8,3.2-8.4.1-1.5-2.4-.4-6.3,2.4-7.2Z"/>
      <path class="cls-66" d="M167.6,297c.8-.9,1.6-1.7,2.4-2.5,1.5.3,3,.6,4.6.8.5,2.6,1.4,6.8-2.1,7.6-3.4.9-5.8-3-4.9-5.9Z"/>
      <path class="cls-20" d="M199.3,296.6c5-1.8,10.3-2.8,15.4-.9.2,2.1.4,4.1.6,6.2-2.6-.5-5.4-1.5-7.9-.3-.7,1.9-.4,4-.4,6,2.2,0,4.6.5,6.7-.5.8-1.2,1.3-2.5,1.7-3.9l.2-.7c.8,12.1,2.1,25.3-4.3,36.2-4.3,5.6-9.3,11.2-16.2,13.5,0-2.7,1.3-6.5-1.7-8.1-4.9-3-12,4.7-7.7,9.1,1.8,2.3,4.9.6,7.2.1-10.2,4.2-21.4,3.6-32.1,3.4-4.8,0-9.3-1.6-13.8-3,1.7-.5,3.3-1,5-1.4-.9-1.6-1.2-4-3.3-4.3-2.5-.8-3.4,2.5-4.4,4-5.1-1.5-9.4-5-12.4-9.2,1.8-.8,3.8-1.3,5.4-2.5,1.2-2.8.2-6.5-3.2-6.8-3,.8-3.2,4.1-3.6,6.6-.8-.8-1.5-1.5-2.1-2.4-.8-2-1.4-4-2.1-6.1,1.1-1.5,2.2-3,3.5-4.4.4,0,1.2-.2,1.6-.3,3.3-.6,6.4-1.6,9.6-2.7-.7-1-1.4-2-2.1-3,.8-.1,2.4-.3,3.2-.4.4.9.9,1.8,1.3,2.6l-1,2.7c-1.9.4-3.9.7-5.7,1.5-2,.8-2.2,4.1-.1,5,2.6,2,5.2-1,7.4-2.3.4.5,1.2,1.4,1.6,1.9.4.4.7.8,1.1,1.3.3-.3.8-.8,1.1-1.1.2.5.4,1.5.6,2,1.2-.1,2.4-.2,3.6-.4-.8.6-1.6,1.2-2.4,1.8,2.1,1.8,4.2,3.5,6.3,5.4-.6,2.6-2.1,6.2.8,8.1,2.6.8,4.8-1.4,7.1-2.3-.2-1.3-.4-2.6-.5-4,9.2.5,19.6,1.2,27.3-4.6,6.6-4.9,8.5-13.5,9.3-21.2,2,.6,4,1.2,6,1.8.7-2.8.3-5.6-1.3-7.9-1.6.6-3.2,1.2-4.8,1.8,0-.4,0-1.3,0-1.8.1-4.8,0-9.6,0-14.4ZM208,318.2c-1.6.3-2.6,2.1-2.9,3.6.7,4.3,6.9,6.8,9.7,2.8,1.8-4.2-2.8-7.9-6.7-6.4ZM204.1,329.3c-1.5.8-2.2,2.6-2.1,4.2,1.4,3,6.7,3.7,7.9.1,1.3-3.4-2.8-6.4-5.7-4.3ZM195,335.1c-2.2.9-3.9,4-1.7,5.9,2.4,3.8,8.5,0,7-3.9-.5-2.4-3.5-2.2-5.3-2ZM141,337.1c-1.7.8-1.6,3.5-.8,5,2.1,2.4,5.7,2.8,8.7,2,3.1-.9,3.3-5.9.4-7.1-2.5-1.2-5.8-1-8.2.2ZM175.2,345.3c-2.4,1.2-1.6,4-1.1,6,2.5,0,6.5,1,7-2.5,1.1-3.4-3.5-5.8-5.9-3.5ZM161.6,350.1c-1.9,2.8,2,6.2,4.6,4.4,2.5-1.2,2.2-4.2,2.3-6.5-2.4,0-5.7-.7-6.9,2Z"/>
      <path class="cls-120" d="M154.9,298.1c1.1-1.2,2.8-.7,4.2-1,0,1.8.2,3.5.2,5.3-1.6,0-3.2.2-4.7.2,0-1.5-1.3-3.5.3-4.5Z"/>
      <path class="cls-9" d="M109,299.1c2.7-1.7,7.3,0,6.9,3.6-.7,2.5-2.4,5.3-5.3,5.3-4.5,0-4.9-7-1.7-9Z"/>
      <path class="cls-7" d="M124.7,300.5c2.4-.7,4.9-2.2,7.4-1.5,1.3,1.9,2.5,5,.6,6.9-1.3,1.9-4,1.2-6,1.6-1-2.2-1.8-4.6-2.1-7Z"/>
      <path class="cls-63" d="M207.3,301.5c2.6-1.1,5.3-.2,7.9.3v1.2c-.3,1.4-.9,2.7-1.6,3.9-2.1,1-4.5.5-6.7.5,0-2-.2-4,.4-6Z"/>
      <path class="cls-18" d="M98,309.1c2.8-2.7,8,1.4,5.7,4.7-1.4,2.9-4.8,2.7-7.6,2.5,0-2.5-.7-5.7,1.9-7.2Z"/>
      <path class="cls-109" d="M171,311.2c1.9-.4,6.3-2,5.7,1.5-.1,3.2-3.6,3.3-6,3.2,0-1.6.2-3.1.3-4.7Z"/>
      <path class="cls-87" d="M82.4,312.6c1.2-.6,2.6-.6,4-.9,0,2.1.1,4.3-.4,6.4-1.3.2-2.6.3-3.8.4,0-2-.5-4.1.3-5.9Z"/>
      <path class="cls-125" d="M136.6,315.1c.9-3.2,4.8-3.6,7.5-3,3.1,2.6-.7,6.3-2.5,8.5-.8,0-2.4.3-3.2.4-1-1.8-3-3.8-1.8-5.9Z"/>
      <path class="cls-131" d="M199.3,312.8c1.6-.6,3.2-1.2,4.8-1.8,1.6,2.4,2,5.2,1.3,7.9-2-.5-4-1.1-6-1.8,0-1.4-.1-2.9-.1-4.3Z"/>
      <path class="cls-8" d="M113.7,312.7c2,.5,4.7.2,5.6,2.6,1.8,2.8-2.1,6.5-5,5-2.5-1.8-1.1-5.1-.6-7.5Z"/>
      <path class="cls-62" d="M150,312.8c1.2.3,2.5.5,3.7.9.6,1.3,1,2.8,1.5,4.1-1.1.8-2.2,1.6-3.3,2.4-2.7-1.6-1.9-4.8-1.9-7.4Z"/>
      <path class="cls-26" d="M157.6,316.4c.4-1.1.8-2.1,1.2-3.2,1,1.4,2,2.7,3,4.1,1.1,1.6,1.8,3.5,2,5.5-2.4-1-5-1.6-7.7-1.1-1.5-.4-3-.9-4.4-1.5,1.1-.8,2.2-1.6,3.3-2.4.8-.5,1.7-1,2.5-1.4Z"/>
      <path class="cls-100" d="M122.9,324.3c-1.8-3.5,1.6-8.2,5.6-6.9,4.5.8,2.9,6.1,2.5,9.2-.4,0-1.2.3-1.6.3-2.3,0-5.7.2-6.5-2.6Z"/>
      <path class="cls-33" d="M208,318.2c3.9-1.5,8.5,2.2,6.7,6.4-2.7,4-9,1.5-9.7-2.8.4-1.5,1.3-3.3,2.9-3.6Z"/>
      <path class="cls-6" d="M156.2,321.7c2.6-.5,5.2.1,7.7,1.1-.3,1.8-.7,3.7-1.1,5.5l-.6.4c-1.7-.6-3.3-1.1-4.9-1.7-.4-1.8-.7-3.6-1-5.4Z"/>
      <path class="cls-35" d="M96.7,323c1.9-.4,4.1-1.6,5.9-.3,1.8,1,1.6,3.2,2,5-2.4.5-5.1,1.1-7.1-.8-.4-1.3-.6-2.6-.8-3.9Z"/>
      <path class="cls-67" d="M143,323.3c.3.2,1,.7,1.3.9.4,2.6.8,5.2.9,7.9-.4-.5-1.2-1.4-1.6-1.9-2.2,1.2-4.8,4.2-7.4,2.3-2-.8-1.9-4.2.1-5,1.8-.8,3.8-1.1,5.7-1.5l1-2.7Z"/>
      <path class="cls-143" d="M144.3,324.2c1.3,1,2.8,1.8,4,3,.9,1.8.8,3.9,1.1,5.9,4.6,0,9.5-.9,12.9-4.3l.6-.4c1.6-.5,3.2-1,4.8-1.5-4.4,4-9.9,7.1-16,7.1-1.2.1-2.4.2-3.6.4-.2-.5-.4-1.5-.6-2-.3.3-.8.8-1.1,1.1-.4-.4-.7-.9-1.1-1.3-.2-2.6-.5-5.3-.9-7.9Z"/>
      <path class="cls-96" d="M109.3,328.5c1.3-1.7,3.6-.9,5.5-1-.5,1.6-.3,3.6-1.9,4.6-1.4.6-3.1.4-4.6.7,0-1.5-.3-3.2,1-4.3Z"/>
      <path class="cls-31" d="M204.1,329.3c2.9-2.1,7,1,5.7,4.3-1.2,3.6-6.5,2.8-7.9-.1-.1-1.7.7-3.4,2.1-4.2Z"/>
      <path class="cls-91" d="M130,339.8c.4-2.6.6-5.8,3.6-6.6,3.5.2,4.4,4,3.2,6.8-1.6,1.2-3.6,1.8-5.4,2.5-.4-.7-1.1-2-1.5-2.7Z"/>
      <path class="cls-80" d="M195,335.1c1.8-.2,4.8-.4,5.3,2,1.4,3.9-4.7,7.7-7,3.9-2.2-1.8-.5-5,1.7-5.9Z"/>
      <path class="cls-39" d="M141,337.1c2.5-1.2,5.7-1.3,8.2-.2,2.9,1.2,2.7,6.2-.4,7.1-3,.9-6.5.4-8.7-2-.8-1.5-.9-4.1.8-5Z"/>
      <path class="cls-84" d="M155.5,341.1c2.5.1,5,.8,7.3,1.8.2,1.3.3,2.6.5,4-2.2,1-4.5,3.1-7.1,2.3-2.8-1.9-1.3-5.5-.8-8.1Z"/>
      <path class="cls-3" d="M175.2,345.3c2.4-2.3,7,.1,5.9,3.5-.5,3.6-4.5,2.5-7,2.5-.6-2-1.3-4.8,1.1-6Z"/>
      <path class="cls-81" d="M143.9,351.7c1.1-1.6,1.9-4.8,4.4-4,2.1.3,2.4,2.8,3.3,4.3-1.7.5-3.3,1-5,1.4-.7-.4-2.1-1.3-2.7-1.8Z"/>
      <path class="cls-107" d="M161.6,350.1c1.2-2.8,4.5-2,6.9-2-.1,2.3.2,5.3-2.3,6.5-2.6,1.8-6.5-1.7-4.6-4.4Z"/>
    </g>
  </g>
</svg>