<?xml version="1.0" encoding="UTF-8"?>
<svg xmlns="http://www.w3.org/2000/svg" version="1.1" viewBox="0 0 311.8 311.8">
  <defs>
    <style>
      .cls-1 {
        fill: #f6a0b1;
      }

      .cls-2 {
        fill: #de627e;
      }

      .cls-3 {
        fill: #cedfde;
      }

      .cls-4 {
        fill: #41555c;
      }

      .cls-5 {
        fill: #41545b;
      }

      .cls-6 {
        fill: #da7083;
      }

      .cls-7 {
        fill: #f5979f;
      }

      .cls-8 {
        fill: #f7fcfd;
      }

      .cls-9 {
        fill: #f7b26f;
      }

      .cls-10 {
        fill: #d3e6e8;
      }

      .cls-11 {
        fill: #42555d;
      }

      .cls-12 {
        fill: #cee5ea;
      }

      .cls-13 {
        fill: #bfdee4;
      }

      .cls-14 {
        fill: #f5fbfd;
      }

      .cls-15 {
        fill: #fdfdfc;
      }

      .cls-16 {
        fill: #f6a0b5;
      }

      .cls-17 {
        fill: #43555c;
      }

      .cls-18 {
        fill: #f69fb1;
      }

      .cls-19 {
        fill: #43555e;
      }

      .cls-20 {
        fill: #dbf0ef;
      }

      .cls-21 {
        fill: #42555a;
      }

      .cls-22 {
        fill: #405970;
      }

      .cls-23 {
        fill: #c9e3e9;
      }

      .cls-24 {
        fill: #df7e86;
      }

      .cls-25 {
        fill: #f6b171;
      }

      .cls-26 {
        fill: #42545d;
      }

      .cls-27 {
        fill: #f7b170;
      }

      .cls-28 {
        fill: #e07b83;
      }

      .cls-29 {
        fill: #f5b270;
      }

      .cls-30 {
        fill: #b0d6e0;
      }

      .cls-31 {
        fill: #f5b172;
      }

      .cls-32 {
        fill: #c0dee6;
      }

      .cls-33 {
        fill: #dcf0f1;
      }

      .cls-34 {
        fill: #dcf0ef;
      }

      .cls-35 {
        fill: #f4949c;
      }

      .cls-36 {
        fill: #f8aeb5;
      }

      .cls-37 {
        fill: #4a5758;
      }

      .cls-38 {
        fill: #3e5974;
      }

      .cls-39 {
        fill: #de6281;
      }

      .cls-40 {
        fill: #f7b16e;
      }

      .cls-41 {
        fill: #badae5;
      }

      .cls-42 {
        fill: #41555b;
      }

      .cls-43 {
        fill: #badbe4;
      }

      .cls-44 {
        fill: #deeef1;
      }

      .cls-45 {
        fill: #d3e7e8;
      }
    </style>
  </defs>
  <!-- Generator: Adobe Illustrator 28.7.0, SVG Export Plug-In . SVG Version: 1.2.0 Build 136)  -->
  <g>
    <g id="Layer_1">
      <g>
        <path class="cls-9" d="M166.6,33.3c0-8.9,5.9-18.7,15.2-20.4-1.2,4.9-4.2,9.3-4.4,14.4-.1,2-.2,4.1-.4,6.1-3.4-.5-7-.5-10.4,0Z"/>
        <path class="cls-40" d="M214.5,27c4.4,3.5,3.5,9.8,3.4,14.7-.8,5.8-2.9,11.9-7.5,15.7-2-3.9-4.5-7.6-7.5-10.8,2.6-1.5,5.2-3.2,6.8-5.8,2.7-4.2,3.2-9.2,4.8-13.8Z"/>
        <path class="cls-34" d="M161.5,35.8c1.5-1.3,3.3-2,5.2-2.5,3.4-.5,7-.4,10.4,0,9.6,1.9,19.1,6,25.9,13.3,2.9,3.3,5.5,6.9,7.5,10.8,3.1,7.6,7.3,14.9,13.9,20,4.5,4.1,10.4,6.3,14.7,10.6-4.2,2.9-9.4,4-14.3,4.8-5.2.8-10.7,1.3-15.7-.8-3.1-1.2-4.4-4.4-5.5-7.3-.3-1.8-.7-3.5-.9-5.3,0-.5-.2-1.5-.3-2-.6-3.8,0-8.6-3.3-11.3-3.3,1.1-5.7,3.7-8.1,6-2.3,2.4-5,4.8-5.6,8.2-1,5.3-1.6,11.3,1.7,15.9,2.5,4.4,6.1,8,10.5,10.5-1,12.5-2,25-1.9,37.5,10.3-2.1,19.1-8.2,27.5-14.1,4,5.4,6.2,11.7,8.2,18-1.6.9-3.2,2.6-5.1,2.6-3-1.1-6.2-2.3-9.5-1.8-4.7.3-8.3,4.4-9.3,8.8-.3.8-.5,1.6-.8,2.4-3.6,1.3-7.4,2.4-11.1,3.3,0,7,.2,14.1.4,21.1-.3,0-.8-.2-1.1-.2-2.6-.5-5.5-1.5-7.8.2-3.7,2.8-4.6,7.8-4.6,12.2.2,4.4,1.2,10,5.8,11.8,2.8,1.4,5.9.1,8.3-1.4.2-.1.6-.3.8-.4.4,6.8,1.2,13.6,1.6,20.4l-.5.4c-3.9,2.3-7.4,5.6-8.9,9.9-2.9,7.8-.6,17.4,5.7,22.8,2.2,1.9,5.1,2.6,7.8,3.2l.7.2c1.1,7.7,2.7,15.3,3.9,22.9,0,1,0,1.9,0,2.9-4.4,1.5-9,3-13.7,2.8-1.7-7-3.2-14.1-5.2-21-.7-2.3-1.3-4.6-2.7-6.6-6.1.2-11.7,3-17.8,3.8-6.7.9-13.7,1.1-20.3-.4l-.7-3.6c1.8-3.9,3.1-8.1,3.6-12.3.8-8.6.4-17.5-2.6-25.8-3.2-10.6-9.2-20.9-18.8-26.8-7.4-4.7-17.2-4.8-24.8-.6-3.6,1.8-6.3,4.9-8.9,7.9-1.1.7-2.2,1.4-3.3,2.1-.7-5.5,1-11,.9-16.5,0-4.1,1-8,1.9-11.9.3,0,1-.2,1.3-.3,3.8-.5,7.5-3.2,8.3-7.1.7-2.9-.9-5.7-2.2-8.1l-.3-.6c1.1-2,2.3-4,3.6-6,3.7-6,7.5-12,11.7-17.6,1.4.4,2.8.9,4.1,1.7,7.8,5,16.9,8.4,26.3,8.3,11.1,0,21.8-5,30.1-12.3,4.9-4.7,9.5-9.9,12-16.3,3.2-6,2.3-13.3-.5-19.2-1.5-3.4-4.4-5.9-7.7-7.6-5.6-1.1-11.4-.2-17.1-.5-13.2-.5-26.5-3.8-37.7-11-4.7-2.8-9.3-6-13-10.2,8.2-3.9,16.9-7.3,24-13.1,4-3.1,7.2-6.9,10.6-10.6,4-4.9,8.1-9.8,12.6-14.3ZM160,39c0,.5-.2,1.4-.2,1.9,3.7,1.6,8.2,2.2,11.9,0-2.6-3.8-7.9-2.9-11.7-1.9ZM185.5,48c.2,1.7.5,3.5,1.9,4.8,3,3.1,6.4,6.4,10.8,7-1-3.9-3.4-7.3-6.3-10-1.7-1.7-4-2.5-6.4-1.8ZM153.3,54.5h.8c-1.8,2.8-5.3,5.3-4.3,9.2,0,2.4,2.5,3,4.2,4,0-.4,0-1.1,0-1.5.5.3,1.5.8,2,1.1,4.2-2.4,6.7-7.6,5.5-12.4-.4-2-2.8-3.4-4.8-2.6-1.3.5-2.3,1.4-3.4,2.2ZM170.5,65.2c-.3,2.4-.6,5,0,7.3,1,2.2,3.3,3.5,5.5,4.3,3.8,1,7.9-1,9.8-4.3,1.6-2.2.6-5,0-7.3-.1-3.8-3.6-6.9-7.3-7.1-4-.3-7.9,3.1-8.1,7.1ZM172.1,166.2c-5.3,2.2-3.6,10.8,1.4,12.2,1.3,0,3.1.4,3.9-.8,2.3-2.9,2-7.5-.3-10.3-1.1-1.7-3.4-1.6-5.1-1.1ZM176.7,211.1c-5.2,2-5.9,9.1-3.7,13.5,2,4.2,8.6,4.4,10.9.5,2.2-3.8,1.2-8.9-1.5-12.2-1.3-1.7-3.6-2.4-5.7-1.8Z"/>
        <path class="cls-13" d="M144.3,40.1c5.7-1.4,11.4-3,17.2-4.3-4.4,4.6-8.6,9.4-12.6,14.3,0-.2-.2-.7-.2-.9-.7-2.9-1.2-5.9-1.7-8.9-.9,0-1.8-.2-2.7-.3Z"/>
        <path class="cls-21" d="M160,39c3.8-.9,9.1-1.8,11.7,1.9-3.6,2.1-8.2,1.6-11.9,0,0-.5.2-1.4.2-1.9Z"/>
        <path class="cls-33" d="M124.5,41.1c6.6.3,13.2-.4,19.7-1,.9,0,1.8.2,2.7.3.4,3,1,6,1.7,8.9-4.6,2.7-9.4,5.9-14.9,5.7-6.2-.9-10.4-7.8-9.2-13.8Z"/>
        <path class="cls-5" d="M185.5,48c2.3-.7,4.7,0,6.4,1.8,2.9,2.7,5.4,6.1,6.3,10-4.4-.6-7.9-3.9-10.8-7-1.3-1.2-1.7-3.1-1.9-4.8Z"/>
        <path class="cls-22" d="M153.3,54.5c1.1-.8,2.1-1.7,3.4-2.2,1.9-.7,4.3.6,4.8,2.6,1.2,4.8-1.3,9.9-5.5,12.4-.5-.3-1.5-.8-2-1.1,0-1.1-.1-2.2-.2-3.3,1.7-1.4,2.8-3.3,3.3-5.5,1.3-.3,2.6-.5,4-.8-.8-.9-1.6-1.8-2.6-2.5-1.5-.3-2.9.1-4.4.3h-.8Z"/>
        <path class="cls-8" d="M154.1,54.4c1.4-.2,2.9-.6,4.4-.3,1,.7,1.7,1.6,2.6,2.5-1.3.3-2.6.5-4,.8-.5,2.1-1.6,4.1-3.3,5.5,0,1.1.1,2.2.2,3.3,0,.4,0,1.1,0,1.5-1.7-.9-4.3-1.6-4.2-4-1-3.9,2.5-6.4,4.3-9.4Z"/>
        <path class="cls-4" d="M187,184.8c2.3-1.7,5.3-.8,7.8-.2,2,3.8,1.2,8.2,1.6,12.3.3,3.5.6,7,0,10.5-2.5,1.5-5.5,2.8-8.3,1.4-4.6-1.8-5.6-7.4-5.8-11.8,0-4.3.9-9.4,4.6-12.2Z"/>
        <path class="cls-4" d="M176.7,211.1c2.1-.6,4.4.1,5.7,1.8,2.7,3.3,3.7,8.4,1.5,12.2-2.4,3.9-9,3.7-10.9-.5-2.2-4.4-1.4-11.5,3.7-13.5Z"/>
        <path class="cls-4" d="M189.5,237.6c1.5-4.4,5-7.6,8.9-9.9,1.4,4.7,1.5,9.6,2.3,14.4.2,1.3.3,2.6.5,3.9.4,5.9,2,11.8,1.8,17.7-2.8-.6-5.6-1.3-7.8-3.2-6.3-5.5-8.6-15-5.7-22.8Z"/>
        <path class="cls-36" d="M96.6,83.6c4.8-4.9,11.4-7.3,17.7-9.8,3.7,4.2,8.2,7.4,13,10.2,11.2,7.1,24.5,10.5,37.7,11,5.7.3,11.4-.6,17.1.5-4.7,3.2-9.7,5.9-15.1,7.3-8.5,2.2-17.4,2.3-26,1.6-16.3-2.7-31.9-9.8-44.2-20.9Z"/>
        <path class="cls-42" d="M172.1,166.2c1.7-.5,4-.6,5.1,1.1,2.2,2.8,2.6,7.4.3,10.3-.9,1.2-2.6.9-3.9.8-5-1.4-6.7-10.1-1.4-12.2Z"/>
        <path class="cls-37" d="M170.5,65.2c.2-4,4.1-7.4,8.1-7.1,3.7.2,7.2,3.4,7.3,7.1-1.7-3.1-5.1-5.6-8.8-4.9-3,.2-5,2.6-6.6,4.9Z"/>
        <path class="cls-14" d="M170.5,65.2c1.6-2.3,3.6-4.7,6.6-4.9,3.7-.7,7.1,1.8,8.8,4.9.6,2.3,1.6,5.1,0,7.3-2,3.3-6.1,5.3-9.8,4.3-2.2-.8-4.5-2.1-5.5-4.3-.7-2.4-.3-4.9,0-7.3ZM175.9,63.6c.1,1.4.3,2.8.3,4.2-1.1.3-2.1.5-3.2.8.5,2.7,2.6,5.2,5.6,4.8,3.9.1,6.1-5,3.8-8-1.4-2.2-4.2-2.1-6.4-1.8Z"/>
        <path class="cls-7" d="M104.6,199.1c7.6-4.2,17.4-4.1,24.8.6,9.6,5.9,15.6,16.2,18.8,26.8,2.9,8.3,3.4,17.1,2.6,25.8-.5,4.3-1.8,8.4-3.6,12.3-.5,1.1-1.1,2.2-1.7,3.3-9-1.2-17.1-5.6-24.8-10.3-.7,1.1-1.5,2.1-2.1,3.2.4-2.4.2-4.7-.3-7-2,1.2-4.1,2.5-6,3.9.9-1.5,1.7-3,2.4-4.5-5.7-6.3-11.8-12.5-14.8-20.6.4-1,.8-1.9,1.1-2.9-1.2.8-2.4,1.6-3.6,2.4.2-2.3.3-4.6.5-6.9-3,.6-6,1.2-9.1,1.6-.1-1.1-.2-2.2-.3-3.4,1.3-5.9,3.8-11.4,7.1-16.4,2.6-3,5.3-6.1,8.9-7.9ZM117.6,234.9c-2.1,2-1.1,5.4.9,7,1.8,1.3,4.4.6,5.7-1.1,2.4-3.1,4.8-6.8,4-11-4.1-.2-7.8,2.3-10.6,5.1Z"/>
        <path class="cls-20" d="M79.3,135.2c3.5-5.9,7.5-11.8,13.4-15.5,1.3.3,1.1,1.5,1.1,2.5,0,2.3,0,4.8,1.5,6.6,1.5,1.9,4.2,1.8,6.3,2.4,1.9.5,3,2.3,4.4,3.5-2.9,2.5-6.1,5-7.5,8.7-.4-.2-.9-.4-1.3-.6-2-1-4-2-6.2-2.3-2.1,0-4.2.5-6.3.8-2.5-1.2-3.9-3.9-5.5-6Z"/>
        <path class="cls-38" d="M175.9,63.6c2.3-.2,5-.4,6.4,1.8,2.3,3,.2,8.1-3.8,8-2.9.4-5.1-2.1-5.6-4.8,1.1-.3,2.1-.5,3.2-.8,0-1.4-.2-2.8-.3-4.2Z"/>
        <path class="cls-12" d="M190.9,72.3c2.4-2.3,4.9-4.9,8.1-6,3.3,2.7,2.7,7.5,3.3,11.3-.8-2-1.9-3.9-3-5.8-4,2.7-8,6.2-9.2,11.1-.6,3.6-.4,7.5,1.2,10.8,2,3.6,5.8,6.1,6.6,10.4,0,1-.3,1.9-.4,2.9-4.3-2.6-8-6.2-10.5-10.5-3.3-4.6-2.7-10.7-1.7-15.9.5-3.4,3.3-5.9,5.6-8.2Z"/>
        <path class="cls-32" d="M190.2,82.9c1.2-4.9,5.2-8.4,9.2-11.1,1.1,1.9,2.1,3.8,3,5.8,0,.5.2,1.5.3,2-1-.5-1.9-1-2.9-1.5-2,2.3-4.3,4.7-4.5,7.8-.4,4.2,2.5,7.7,4.9,10.9-.7,2.5-1.4,4.9-2.2,7.4-.8-4.3-4.6-6.8-6.6-10.4-1.5-3.3-1.8-7.2-1.2-10.8Z"/>
        <path class="cls-30" d="M195.3,85.9c.2-3.2,2.5-5.6,4.5-7.8,1,.5,1.9,1,2.9,1.5.3,1.8.6,3.5.9,5.3-.9,4-2.2,7.9-3.4,11.9-2.4-3.2-5.3-6.6-4.9-10.9Z"/>
        <path class="cls-7" d="M97.9,103.4c-2.2-6.3-2.8-13.3-1.3-19.8,12.3,11.1,27.9,18.2,44.2,20.9,8.7.7,17.6.6,26-1.6,5.5-1.4,10.5-4.2,15.1-7.3,3.3,1.6,6.1,4.2,7.7,7.6,2.8,5.9,3.7,13.3.5,19.2-4.4,4.3-7.9,9.4-12.7,13.4-8,7-18.5,11.5-29.3,11.3-6.7-.3-13.4-1.9-19.2-5.3-2.8-1.6-5.6-3.3-8.3-5.1-11-8.1-18.6-20.2-22.7-33.1ZM106.3,99.5c-.2,1.6-.9,3.3-.3,4.9,1,2.6,3.3,4.7,5.9,5.4,1.8.6,4-.7,4-2.7,0-4.8-5.1-8.3-9.7-7.7ZM180.2,105.5c1.9,2,3.6,4.2,5.3,6.5,0-1.7.5-3.5-.3-5.1-.7-2-3.3-1.1-4.9-1.4ZM174.4,117.4c-8.1,8-19.2,13.4-30.8,13.3-6.5.3-12.8-1.7-19.1-2.9,4,4.4,9.3,7.5,15,9.2,8,2.2,16.7,1,23.9-3,8.7-4.8,15.7-12.7,19.4-21.8.7-1.3.1-2.6-.3-3.9-2.9,2.9-5.2,6.3-8.2,9.1ZM134.8,109.9c-2.3.8-4.3,4-2.3,6.1,3.6,2.9,9.1,3.1,13.1.9,2.1-.9,2.2-4.1.4-5.3-3.2-2.3-7.5-2.7-11.3-1.7Z"/>
        <path class="cls-27" d="M223.1,130.3c3.5-2.7,6.8-5.7,11-7.3.7,3.6-.8,7.1-.7,10.6,1.5,2.8,4.1,5.2,4.7,8.5-1.2,3-4.2,4.6-6.8,6.2-2-6.3-4.2-12.7-8.2-18Z"/>
        <path class="cls-2" d="M106.3,99.5c4.6-.6,9.6,2.9,9.7,7.7,0,2-2.2,3.3-4,2.7-2.6-.8-5-2.8-5.9-5.4-.6-1.6,0-3.3.3-4.9Z"/>
        <path class="cls-6" d="M180.2,105.5c1.6.3,4.2-.6,4.9,1.4.8,1.6.3,3.4.3,5.1-1.6-2.3-3.3-4.5-5.3-6.5Z"/>
        <path class="cls-15" d="M174.4,117.4c2.9-2.9,5.3-6.2,8.2-9.1.5,1.2,1,2.6.3,3.9-3.7,9.2-10.7,17-19.4,21.8-7.2,4-16,5.3-23.9,3-5.7-1.7-11-4.8-15-9.2,6.3,1.2,12.6,3.3,19.1,2.9,11.6.1,22.6-5.3,30.8-13.3Z"/>
        <path class="cls-39" d="M134.8,109.9c3.7-1,8.1-.6,11.3,1.7,1.8,1.2,1.7,4.4-.4,5.3-4,2.2-9.5,2-13.1-.9-2.1-2.1,0-5.3,2.3-6.1Z"/>
        <path class="cls-29" d="M86,113.1c3.4.6,5.1,3.9,6.7,6.6-6,3.7-9.9,9.6-13.4,15.5-1.9-2.3-4.1-4.7-4.1-7.9,2.6-1.1,5.2-2.2,7.8-3.1.6-3.8,1.4-7.6,3-11Z"/>
        <path class="cls-11" d="M93.8,122.2c3.3,2.3,5.7,5.6,7.8,9-2.2-.5-4.8-.5-6.3-2.4-1.6-1.8-1.5-4.3-1.5-6.6Z"/>
        <path class="cls-3" d="M177.5,135.7c4.7-4,8.2-9.1,12.7-13.4-2.5,6.4-7.1,11.6-12,16.3-8.2,7.3-18.9,12.3-30.1,12.3-9.4.2-18.5-3.2-26.3-8.3-1.3-.8-2.7-1.3-4.1-1.7l.2-.3c1-1.4,1.9-2.8,2.8-4.2,2.7,1.8,5.5,3.5,8.3,5.1,5.8,3.3,12.6,5,19.2,5.3,10.7.2,21.3-4.2,29.3-11.3Z"/>
        <path class="cls-43" d="M106,134.7c2.8,2.1,5.5,4.4,8.7,5.9,1,.5,2.1.2,3.1,0l-.2.3c-4.2,5.7-8,11.6-11.7,17.6-1.1-1-2.4-1.8-3.7-2.6,0-.2,0-.6,0-.9,0-4.6-2-8.8-4.9-12.3.4.2.9.4,1.3.6,1.4-3.7,4.6-6.2,7.5-8.7Z"/>
        <path class="cls-19" d="M84.8,141.3c2.1-.3,4.1-.9,6.3-.8,2.2.3,4.2,1.4,6.2,2.3,2.9,3.5,4.9,7.7,4.9,12.3-4.6-.9-8-4.3-11.5-7.2-2.3-1.9-4.3-4.1-5.8-6.7Z"/>
        <path class="cls-17" d="M207.4,158c1.1-4.4,4.6-8.5,9.3-8.8,3.3-.5,6.5.6,9.5,1.8-5.8,3.9-12.3,7-19.1,8.7l.2-1.7Z"/>
        <path class="cls-17" d="M94.7,180.5c1.6-5.5,4.5-10.8,7.9-15.4,1.3,2.5,2.9,5.2,2.2,8.1-.9,3.9-4.5,6.5-8.3,7.1-.5,0-1.4,0-1.8.1Z"/>
        <path class="cls-10" d="M91.4,187.4c1-2.4,1.7-5.1,3.9-6.7-.9,3.9-2,7.9-1.9,11.9.2,5.5-1.5,11-.9,16.5,1.1-.7,2.2-1.4,3.3-2.1-3.3,5-5.8,10.6-7.1,16.4-.9,2.7-2.6,5.1-3.3,7.9,0,2.1.7,4.1,1,6.1.8,3.6.5,7.2.5,10.8-3-6.2-3.9-13.2-4-20.1-.4-14,3.5-27.8,8.5-40.8Z"/>
        <path class="cls-26" d="M224.4,205.9c-.6-3.3,1.8-6.4,4.5-8,1.8,2.7,4,5.5,3.9,8.9-2.8.5-6.1,1.2-8.4-.9Z"/>
        <path class="cls-44" d="M214.5,219.1c.6-5.6,4.5-10.5,9.3-13.1-2.5,3.7-6.4,6.6-7.3,11.3-1.4,5,2.2,9.4,2.8,14.2.7,4.4.2,9.6-3.6,12.5-4.1,3.3-9.6,2.6-14.5,2-.2-1.3-.3-2.6-.5-3.9,3.7.8,7.7,1.9,11.4.5,3.6-1.4,5.2-5.5,4.9-9.1,0-5-3.1-9.4-2.5-14.4Z"/>
        <path class="cls-16" d="M85.3,231.4c.7-2.8,2.4-5.2,3.3-7.9,0,1.1.2,2.2.3,3.4,3-.4,6.1-.9,9.1-1.6-.2,2.3-.3,4.6-.5,6.9-2.8,2.3-6.1,3.9-9.6,4.9l-.5.2c0,3.5,0,7,.7,10.5.4,2.9,3.5,4,4.8,6.4.8,1.8-.4,3.6-1.4,4.9-2,2.7-6.6,4.5-9,1.3-1.6-3.8,3.3-5.8,5.6-7.9-.4-1.4-1-2.8-1.1-4.3,0-3.6.3-7.3-.5-10.8-.4-2-1.1-4-1-6.1Z"/>
        <path class="cls-28" d="M97.5,232.2c1.2-.8,2.4-1.6,3.6-2.4-.4,1-.7,1.9-1.1,2.9-1.8,3.2-4,6.6-7.5,8.2-2.5.6-3.5-2.1-4.5-3.8,3.5-1.1,6.7-2.7,9.6-4.9Z"/>
        <path class="cls-18" d="M117.6,234.9c2.8-2.8,6.5-5.3,10.6-5.1.8,4.2-1.6,7.9-4,11-1.3,1.7-3.9,2.4-5.7,1.1-2-1.7-3-5-.9-7Z"/>
        <path class="cls-35" d="M92.4,240.9c3.5-1.6,5.6-5,7.5-8.2,3,8.1,9.1,14.3,14.8,20.6-.8,1.5-1.6,3-2.4,4.5-2.2,2.7-5.4,5.4-5.3,9.2,0,2.5,2.9,2.4,4.6,3-.1.3-.4.8-.5,1.1,1.7.5,3.3,1,5,1.5,1.7-3,2.8-6.3,3.4-9.7-.5,0-1.4.2-1.8.3.3-.7.6-1.5.9-2.2.7-1.1,1.4-2.2,2.1-3.2,7.7,4.6,15.8,9,24.8,10.3-4.6,7.6-13.3,11.3-21.8,12.4-2.4-.2-4.6-1.1-6.8-2-2.5-1-4.9-2.1-7.3-3.2-3.2-2-6.2-4.4-9.1-6.8-3.3-2.7-5.7-6.5-9-9.2,1.1-1.4,2.2-3.2,1.4-4.9-1.2-2.4-4.3-3.6-4.8-6.4-.7-3.4-.8-7-.7-10.5l.5-.2c1,1.7,2,4.4,4.5,3.8Z"/>
        <path class="cls-45" d="M145.5,268c.6-1.1,1.2-2.1,1.7-3.3l.7,3.6c6.7,1.5,13.6,1.3,20.3.4,6-.8,11.7-3.6,17.8-3.8,1.4,1.9,2,4.3,2.7,6.6,2,6.9,3.6,14,5.2,21-1.3,0-2.6,0-4,0-2.6-5.7-4.7-11.6-7.4-17.3-16.1,5.7-33.3,9-50.3,7-2.9-.4-5.8-.9-8.6-1.8,8.5-1.1,17.2-4.8,21.8-12.4Z"/>
        <path class="cls-1" d="M112.3,257.8c1.9-1.4,3.9-2.7,6-3.9.5,2.3.8,4.7.3,7-.3.7-.6,1.5-.9,2.2-1,3-3.5,5.1-6,6.8-1.7-.6-4.6-.5-4.6-3,0-3.8,3.1-6.5,5.3-9.2Z"/>
        <path class="cls-24" d="M117.6,263.1c.5,0,1.4-.2,1.8-.3-.6,3.4-1.7,6.7-3.4,9.7-1.7-.5-3.3-1-5-1.5.1-.3.4-.8.5-1.1,2.5-1.8,5-3.8,6-6.8Z"/>
        <path class="cls-23" d="M100.5,268.3c2.9,2.4,5.9,4.8,9.1,6.8-2,0-3.9,0-5.9,0,1.7,3.1,2.9,6.4,5.3,9,2.4,2.2,5.4,3.7,7.5,6.3-6,2.2-12.5,2.3-18.7,1.4,2-7.7,2.9-15.6,2.7-23.6Z"/>
        <path class="cls-41" d="M103.7,275.2c2,0,3.9,0,5.9,0,2.5,1,4.9,2.1,7.3,3.2.1,4.2.3,8.4-.1,12.6l-.3-.5c-2-2.6-5.1-4.1-7.5-6.3-2.4-2.6-3.6-6-5.3-9Z"/>
        <path class="cls-25" d="M207.6,286.8c1,3.4,1.7,6.9,2.1,10.4-6,.6-12,.5-18,0-.6-1.6-1.2-3.1-1.8-4.7,1.3,0,2.6,0,4,0,4.8.2,9.3-1.3,13.7-2.8,0-1,0-1.9,0-2.9Z"/>
        <path class="cls-31" d="M97.7,291.9c6.3.9,12.7.8,18.7-1.4l.3.5c.1,2.4,0,4.8-.8,7-1.2,1-2.9.4-4.3.5-5.3-.5-10.5-.7-15.8-.8.4-2,1-4,1.9-5.8Z"/>
      </g>
    </g>
  </g>
</svg>