<?xml version="1.0" encoding="UTF-8"?>
<svg xmlns="http://www.w3.org/2000/svg" version="1.1" viewBox="0 0 247.1 291.2">
  <defs>
    <style>
      .cls-1 {
        fill: #602c1f;
      }

      .cls-2 {
        fill: #371005;
      }

      .cls-3 {
        fill: #4f2016;
      }

      .cls-4 {
        fill: #a65b46;
      }

      .cls-5 {
        fill: #fcfdf9;
      }

      .cls-6 {
        fill: #dbc9bd;
      }

      .cls-7 {
        fill: #d6896c;
      }

      .cls-8 {
        fill: #d4947c;
      }

      .cls-9 {
        fill: #a45a41;
      }

      .cls-10 {
        fill: #e7d7c7;
      }

      .cls-11 {
        fill: #b46b52;
      }

      .cls-12 {
        fill: #893e2b;
      }

      .cls-13 {
        fill: #360e01;
      }

      .cls-14 {
        fill: #67210f;
      }

      .cls-15 {
        fill: #a6624c;
      }

      .cls-16 {
        fill: #833925;
      }

      .cls-17 {
        fill: #b46a51;
      }

      .cls-18 {
        fill: #fefffe;
      }

      .cls-19 {
        fill: #8a2e1f;
      }

      .cls-20 {
        fill: #b2846b;
      }

      .cls-21 {
        fill: #cf8c73;
      }

      .cls-22 {
        fill: #813826;
      }

      .cls-23 {
        fill: #b46c53;
      }

      .cls-24 {
        fill: #ca8b64;
      }

      .cls-25 {
        fill: #e2e2d6;
      }

      .cls-26 {
        fill: #ad644c;
      }

      .cls-27 {
        fill: #813825;
      }

      .cls-28 {
        fill: #d3827e;
      }

      .cls-29 {
        fill: #a55940;
      }

      .cls-30 {
        fill: #9c5b48;
      }

      .cls-31 {
        fill: #813921;
      }

      .cls-32 {
        fill: #662313;
      }

      .cls-33 {
        fill: #db9f86;
      }

      .cls-34 {
        fill: #a0563d;
      }

      .cls-35 {
        fill: #763c2d;
      }

      .cls-36 {
        fill: #b28d7c;
      }

      .cls-37 {
        fill: #4f2116;
      }

      .cls-38 {
        fill: #8b460d;
      }

      .cls-39 {
        fill: #6b2a16;
      }

      .cls-40 {
        fill: #b56a4f;
      }

      .cls-41 {
        fill: #c58063;
      }

      .cls-42 {
        fill: #dd9e88;
      }

      .cls-43 {
        fill: #b66a50;
      }

      .cls-44 {
        fill: #611f0f;
      }

      .cls-45 {
        fill: #8c450c;
      }

      .cls-46 {
        fill: #561808;
      }

      .cls-47 {
        fill: #4f2015;
      }

      .cls-48 {
        fill: #502015;
      }

      .cls-49 {
        fill: #b56b51;
      }

      .cls-50 {
        fill: #db9f87;
      }

      .cls-51 {
        fill: #fdfef8;
      }

      .cls-52 {
        fill: #a1604a;
      }

      .cls-53 {
        fill: #350e00;
      }

      .cls-54 {
        fill: #882f24;
      }

      .cls-55 {
        fill: #360e02;
      }

      .cls-56 {
        fill: #763d2c;
      }

      .cls-57 {
        fill: #682111;
      }
    </style>
  </defs>
  <!-- Generator: Adobe Illustrator 28.7.0, SVG Export Plug-In . SVG Version: 1.2.0 Build 136)  -->
  <g>
    <g id="Layer_1">
      <g>
        <path class="cls-34" d="M114.1,26.4c-.5-3-.6-6.2-2.3-8.8-2.6,3.5-4.8,7.2-6.1,11.4,1.2,6-2.2,11.6-2.9,17.4.3.7.9,2,1.2,2.7,1-6.9,3.1-13.6,5.4-20.1,2.5,9.7,6.3,19.2,5.6,29.3.7-2.4,1-4.9,1.3-7.3,0,3.3.1,6.5.5,9.8,1.8-2.4,2-5.5,2.3-8.4.4.1,1.1.4,1.4.5-.2-1.1-.5-2.2-.8-3.3-2.5-2.6-3.9-6-4.9-9.4-2-5.9-3.7-11.9-3.3-18.2.9,1.5,1.7,3,2.5,4.5Z"/>
        <path class="cls-57" d="M111.8,17.6l-1.5-.2c-3.9,4.2-6.5,9.5-8.7,14.8-3.7,9.3-7.2,18.8-8.7,28.7-.6,4.5-1.2,9.1,0,13.6.2.4.5,1.1.7,1.5,1.1,2.5,1.9,5,2.9,7.5,1.3-3.6,3.5-6.7,5.4-9.9-.8-5.8.6-11.7-1.2-17.3-.2,1-.7,3-1,4-2.3-10.7,2-21.3,6-31.1,1.3-4.2,3.5-7.9,6.1-11.4Z"/>
        <g>
          <path class="cls-9" d="M189.6,30.2c-1.6-4.4-3-9.7-7.7-11.7-.6.9-1.2,1.8-1.9,2.7-.2,4.2-3.5,7.3-5.2,11.1-2.9,6.3-6.5,13-5.6,20.2,1.7-1.5,3.3-3,4.9-4.5v-1c-.2-5.6,3.4-10.5,6.6-14.8-.5,1.8-1,3.5-1.5,5.3,0,.5.3,1.5.3,2,1.2-2.2,2.4-4.4,3.5-6.7,1.8,9.2,2,18.5,1.5,27.9l.6,2.4c1.3.3,2.6.7,3.9,1.2.2.5.7,1.5.9,2,4.4-10.7,2.9-22.6.4-33.5-.4.5-1.2,1.6-1.6,2.1.6-1.5,1.5-3,.7-4.6Z"/>
          <path class="cls-9" d="M173.2,125.6l-.4.5c-3.5,3.2-8,5-12.5,6.4,6.9,5.6,14.4,10.8,19.4,18.4,11.2,17.5,16.5,37.9,27.6,55.4.2-15.5-4.4-30.7-9.9-45-2.3-6.6-7.2-12.2-8-19.3-.5-3.1,1.8-5.4,3.6-7.5,5.1,15.1,9.7,30.3,16.5,44.7,2.7,5.4,4.6,11.9,10,15.3-7.9-12.2-12.2-26.2-17.8-39.5l.8.4c.5,0,1.5.1,2.1.1.8-2.3,1.3-4.8.6-7.1.2-3.4.2-6.9.4-10.3.4.5,1.2,1.6,1.5,2.1.5,5.8.6,12.3-3.1,17.2,3,8,6.3,15.9,9.6,23.8,2,4.7,4.5,9.3,7.9,13.2-4.9,4.1-7.8,10.5-7.8,16.9,2.4-3.8,4.7-7.8,8.1-10.8,3.1,1.8,6.3,3.5,9.3,5.4,2,3.1,1.6,6.9,1.6,10.4-1.2,4.6.4,9.2.2,13.9,0,4-1,8-2.5,11.7-4.1,3.2-6.9,7.7-11.4,10.5.6,1.2,1.1,2.5,1.7,3.7-1.7.3-3.4.6-5.1.8.2-.4.6-1.2.8-1.5-7.2.3-14.4.6-21.5-.6-6.5-1-12.6-3.4-18.7-5.6-5.4-4.5-5.9-12.6-3-18.7,1.4.6,2.9,1.3,4.3,1.9,2.1.7,5.1,2.8,7,.6,2.9-3.7,1.4-8.7,0-12.7.1-1.5,0-3.2.7-4.6,1.6-.3,3.1,0,4.7,0-.6-2.7-1-6.6-4.3-7.2-3.3-.4-4.8,3.3-6,5.7-.8,1.9-1.5,3.8-2,5.8-.6,2.5-.9,5-1.3,7.5-2.9-5.7-3.2-12.2-2.7-18.4,1.7-4.2,5.3-7.3,9.6-8.5-.7-.8-1.3-1.7-2-2.5,3.3-.4,7-.5,9.7,1.8-1.8.1-3.6.3-5.4.4,3.6,2.2,7.1,4.3,10.8,6.3l-.3-1.6c.6.7,1.3,1.4,1.9,2.1-1.7-4.6-5.7-7.7-9.2-10.8-3.3-2.8-7.9-2.5-11.9-2.4-6.3-13.4-14.9-26.2-27.3-34.7,0-1.4,0-2.8.1-4.2.5-8-.9-16.1-3.9-23.5-2.1-5.5-7.3-9.1-12.9-10.7-5.1-1.6-10.1.6-14.2,3.6,0-.6-.1-1.9-.2-2.5.3-.2.9-.6,1.3-.8,8.1-3.7,17.4-5.7,26.1-3.1-.2-1.1-.4-2.1-.6-3.1-.8-1.6-1.7-3.2-2.6-4.7-.4-1.3-.6-2.5-.9-3.8,2.9,2.7,5.6,5.7,8.6,8.2,6.7,5.4,14.7,9.1,22.9,11.4ZM144.6,123c3.1,6.1,5.1,12.7,7.6,19.1,1.3-7.2-1.6-14.8-7.6-19.1ZM221.4,209.8c-2.7,4.9-3.7,10.7-3.4,16.3,0,1.8,1.5,2.9,2.4,4.2,2.3.3,4.8-.5,5.6-2.8.7-3.6.5-7.4-1.5-10.6,0-1.4-.1-2.7-.1-4.1,1.3-.7,2.8-1,4.3-1.4.2.9.5,2.7.7,3.5.9-2,1.6-4.7-.4-6.3-2-2.5-6-1.7-7.5,1Z"/>
          <g>
            <path class="cls-9" d="M14.9,203.8c-.4-1.1-.9-2.2-1.3-3.2.1,0,.3-.1.4-.2h.3c.3,1.6.7,3.2,1.2,4.9-.2-.5-.4-1-.6-1.4Z"/>
            <path class="cls-9" d="M26.5,223.8c-2.1-2.5-4-5.3-5.7-8.2,4.7,6.8,11.1,12.5,17.2,17.9-4.3-2.6-8.3-5.8-11.5-9.7Z"/>
            <path class="cls-9" d="M103.8,256.7c-1.5-.6-3-1.3-4.5-1.8-12.5-4.9-25.6-7.7-38.4-11.8-7.4-2.4-15.3-5.2-22.3-9.3-.5-9.7-1.4-20.1,3.4-29,1.2,1.9,2.4,3.8,3.6,5.7,1.6-6.2,2.5-12.9,6.5-18.2,2.1,3,4.4,5.9,6.8,8.7,1.8-9.7,4.4-21.1,13.7-26.3,1.7,1.5,2.3,3.9,3.5,5.8,7,13.7,20.4,23,34.8,27.7-4.6,6.7-8.7,14.4-9,22.7-.4,8.7.7,17.3,1.8,25.8Z"/>
          </g>
        </g>
        <path class="cls-14" d="M174.9,32.3c1.6-3.7,5-6.8,5.2-11.1-7.7,10.5-14.2,22.2-17.4,34.8,2.6.8,5.1,1.7,7.7,2.4,1.2-3.5,3.8-6.7,3.9-10.5-1.6,1.6-3.2,3.1-4.9,4.5-.9-7.2,2.6-13.9,5.6-20.2Z"/>
        <path class="cls-24" d="M114.1,26.4c-.8-1.5-1.7-3-2.5-4.5-.5,6.3,1.2,12.3,3.3,18.2.5-1.4,1-2.7,1.5-4-.8-3.2-1.5-6.5-2.3-9.7Z"/>
        <g>
          <path class="cls-28" d="M109.4,28.9c-2.3,6.6-4.4,13.2-5.4,20.1-.7,6-.7,12,0,17.9,1.5-.4,2.9-.9,4.3-1.4,2.6-2.1,5.3-4.3,6.7-7.4.7-10.1-3.1-19.7-5.6-29.3Z"/>
          <path class="cls-28" d="M183.2,32.9c-1.2,2.2-2.4,4.4-3.5,6.7-2,4.9-5.4,9.8-4.8,15.4,1.6,3.9,6.1,5.7,9.7,7.3l.2-1.5c.4-9.3.3-18.7-1.5-27.9Z"/>
        </g>
        <path class="cls-7" d="M102.8,46.4c.7-5.8,4.1-11.4,2.9-17.4-4,9.8-8.2,20.4-6,31.1.3-1,.8-3,1-4,.5-3.3,1.3-6.5,2.1-9.8Z"/>
        <path class="cls-41" d="M180.8,32.2c-3.2,4.3-6.8,9.2-6.7,14.8,1.8-3.1,3.6-6.2,5.2-9.5.5-1.8,1-3.6,1.5-5.3Z"/>
        <path class="cls-20" d="M116.4,36.1c-.5,1.3-1.1,2.7-1.5,4,1,3.4,2.4,6.8,4.9,9.4-.9-4.5-2.2-8.9-3.4-13.4Z"/>
        <path class="cls-19" d="M179.7,39.6c0-.5-.3-1.5-.3-2-1.6,3.2-3.4,6.3-5.2,9.5v1c0,3.8-2.7,7-3.9,10.5,5.1,1.3,9.7,4.1,15.1,4.6l-.6-2.4-.2,1.5c-3.7-1.6-8.1-3.4-9.7-7.3-.6-5.6,2.8-10.5,4.8-15.4Z"/>
        <path class="cls-54" d="M104,49.1c-.3-.7-.9-2-1.2-2.7-.8,3.2-1.5,6.5-2.1,9.8,1.9,5.6.4,11.6,1.2,17.3,1.9-2.4,4.1-4.5,6.1-6.8v-1c-1.3.5-2.8.9-4.2,1.4-.6-6-.6-12,0-17.9Z"/>
        <g>
          <path class="cls-1" d="M116.8,60.7c1.8-2.4,2-5.5,2.3-8.4.4.1,1.1.4,1.4.5.4,1.6.7,3.1,1,4.7,13-5.6,27.7-5.1,41.2-1.4,2.6.8,5.1,1.7,7.7,2.4,5.1,1.3,9.7,4.1,15.1,4.6,1.3.3,2.6.7,3.9,1.2.2.5.7,1.5.9,2,.5,1.5,2.1,2.1,3.2,3,4.4,2.8,8.6,5.9,12.1,9.8,4.9,5.5,7.8,12.7,13.4,17.7,3,2.7,6.7,4.4,10.6,5.5,1.2.4,2.4.8,3.5,1.2-8.1,4.3-17.7,2.8-26.2.5,2.7,2.8,5.7,5.5,9.5,6.4,3.9,2,8.1,3.1,12.2,4.4-1.8,1.9-3.7,3.7-6,5-4.6-.7-9.2.7-13.8,0-13.2-1.6-25.6-7.8-35.8-16.2-3.7-3-6.4-7.1-10.5-9.4l-.9-.6c1.2,6.6,5.3,12.1,9.6,17,2.3,2.7,6.1,4,7.5,7.4-.4,0-1.1,0-1.5,0-.4,0-1.3,0-1.7,0-4.2-2.6-9.1-3.8-13.2-6.6-8.7-5.5-15.3-13.5-21.5-21.6-3.9-5.1-6.2-11.1-8.8-16.9-.2,3.8-.3,7.6.3,11.4l-.8,1c-.5,0-1.4.2-1.8.2,0-2.1,0-4.1,0-6.2-.2-5.4-.7-11-3.7-15.6-.2,2.6-.3,5.2-.3,7.9-1.3-.8-2.6-3.1-4.3-2-2.9,3.6-4.4,8.2-7.7,11.6.5-4.2,1.5-8.4,2-12.6-9.2,8.7-13.3,21.2-15.3,33.4-.7,2.4,1.8,3.6,3.3,4.8,0,.5-.2,1.4-.2,1.9-2.2,1-4.3,2-6.5,2.9-.2,0-.7.2-.9.2.9-14,4.1-28.2,10.9-40.5.8-1.5,1.1-3.1,1.2-4.7v-1c2.7-2.1,5.4-4.3,6.8-7.4.7-2.4,1-4.9,1.3-7.3,0,3.3.1,6.5.5,9.8ZM150.5,57.4c-7.2-.5-15.4-1.9-21.5,2.8,5.6,1.5,11.5.2,17,2.5,7.5,2.8,15.2,6.5,20.2,12.8,1.4,2.3-1.3,1-2.4.5-4.7-2.8-9.5-5.6-14.7-7.4-1.5-.4-3.7-1.5-4.5.6-.9,7.8.7,15.7,4.3,22.7,2.7,7.3,8.3,12.9,14.1,17.9,1.3,1.2,3,1.8,4.6,2.4-6.7-7.9-9.4-18.1-9.8-28.3,5.4,4.6,9.7,10.4,15.5,14.5,10.1,7.5,20.4,15.5,32.9,18.2,4.1,1,8.5,1,12.5-.7-8.5-3.1-14.9-9.5-20.6-16.2-1.2-1.4-1.9-3.2-2.6-4.8,9.3,5.9,19.9,12.2,31.4,9.9-8.1-4-15.4-9.7-20.8-16.9-3.7-4.9-8.2-9.1-12.4-13.6-11.9-10.2-27.4-16.1-43-16.8Z"/>
          <path class="cls-1" d="M93.8,75.9c-.2-.4-.5-1.1-.7-1.5.1,2.3-2,3.4-3.4,4.7-4.8,3.9-8.7,8.8-11.9,14.1-4,6.5-6.7,13.8-10.9,20.2-2.1,3.4-5.6,5.4-8.6,7.9,2.4-.1,4.7-.4,7.1-.8-7.8,7-17.5,12.2-23.4,21-5.6,8.1-5,18.9-11,26.8.5,4.8-2.6,8.8-3.9,13.2-1.3,3.9-1.4,8-1.3,12,2.5-4,4.2-8.4,6.5-12.5-.5,8.8-2,17.8.6,26.5,1.1-3,1.9-6.1,2.8-9.2,1.5-5.2,4.2-9.9,6.8-14.5.5,1.5,1,2.9,1.5,4.4,2.9-7.9,5.2-16.8,12.3-22-1.4,6.3-3.8,12.9-1.3,19.2,3.4-5.4,7.5-10.3,12.5-14.2,8.1-6.5,13.6-15.6,17.9-24.9.2,1.8.4,3.5.5,5.3,1.9-9.4,1.4-19.2,3.8-28.5.5-2.3,1.2-4.5,1.8-6.8-.9-.4-1.8-.7-2.7-1.1.9-7.5,2.4-14.9,4-22.2-4.2,5.8-5.3,13.1-6.6,20-1.2,10.3-1.5,20.7-4.2,30.7-.9,3.7-2.9,6.9-5.2,9.8,1-6.1,2.9-12.1,2.6-18.4-1.9,6.4-1.9,13.5-5.4,19.4-4.3,7.6-9.5,15.2-17,20.1,2.5-8.3,7.3-15.9,7.7-24.7-3.3,4.5-6,9.5-9.6,13.8-4.6,5.6-8.2,11.9-10.2,18.8-2.5-6.3,1.5-12.7,0-19.1-.4.9-1.3,2.7-1.7,3.5-1.9,5.8-3.4,11.8-5.2,17.7-1.3-5.5.2-11.1,1.1-16.6,2.2-14.6,10.5-28.1,22.3-36.9,6-5.2,14-9.4,16.2-17.6-1.4.9-2.8,1.8-4.1,2.7,1.9-5.5,3.8-10.9,5.6-16.5,2-6.2,6.8-12.2,13.5-13.4,1.6-.5,2.4.2,2.4,2.1.6-1.5,1.1-3.1,1.7-4.7-1-2.5-1.8-5-2.9-7.5Z"/>
        </g>
        <g>
          <path class="cls-56" d="M205.9,87.7c5.5,7.2,12.8,12.9,20.8,16.9-11.5,2.4-22.1-4-31.4-9.9.7,1.7,1.5,3.4,2.6,4.8,5.7,6.7,12.2,13.1,20.6,16.2-3.9,1.8-8.3,1.7-12.5.7-12.5-2.7-22.9-10.8-32.9-18.2-5.8-4.1-10.1-9.9-15.5-14.5.4,10.2,3.1,20.4,9.8,28.3-1.6-.6-3.3-1.2-4.6-2.4-5.8-5-11.4-10.6-14.1-17.9-3.6-7-5.2-14.9-4.3-22.7.8-2.1,3-.9,4.5-.6,5.2,1.8,10,4.6,14.7,7.4,1.1.5,3.8,1.9,2.4-.5-5-6.4-12.8-10-20.2-12.8-5.4-2.2-11.4-.9-17-2.5,6.2-4.7,14.4-3.2,21.5-2.8,15.7.6,31.1,6.5,43,16.8,4.2,4.5,8.7,8.7,12.4,13.6ZM162.7,61.1c14.1,5.5,26,15.5,35.8,26.9,5.2,5.5,10.6,12,18.5,13.3-2.4-3.1-5.8-5.2-8.4-8.3-3.5-4.2-6.9-8.5-10.6-12.4-9.2-10.2-22.2-16.2-35.3-19.5ZM161.6,65c4.2,3.8,9.1,7,11.9,12,1.1,1.8.4,4.7-2,4.9-5.3.5-9.9-2.9-14.9-4,2.6,5.7,7.5,9.9,12.4,13.6,7.9,6.2,16.8,10.8,25.6,15.3,2.5,1.3,5.2,2.3,7.9,3-9.7-8.8-19.9-18.3-24-31.1,5.2,2.3,9,6.6,14.3,8.6-2.5-4-6.1-7.1-9.5-10.2-6.4-5.3-13.4-10.5-21.7-12.2ZM155,96.6c1.1,2.6,2.7,4.8,4.6,6.7-.5-5.4-3.3-10.2-5.3-15.2-1.5-3.7-2.3-7.6-3.3-11.5-1.8,6.9,1.1,13.7,3.9,19.9Z"/>
          <path class="cls-56" d="M92.8,92.7c-4.2,5.8-5.3,13.1-6.6,20-1.2,10.3-1.5,20.7-4.2,30.7-.9,3.7-2.9,6.9-5.2,9.8,1-6.1,2.9-12.1,2.6-18.4-1.9,6.4-1.9,13.5-5.4,19.4-4.3,7.6-9.5,15.2-17,20.1,2.5-8.3,7.3-15.9,7.7-24.7-3.3,4.5-6,9.5-9.6,13.8-4.6,5.6-8.2,11.9-10.2,18.8-2.5-6.3,1.5-12.7,0-19.1,1.9-4.1,4.3-7.9,5.8-12.2-4.9,3.6-7.8,9.7-7.5,15.7-1.9,5.8-3.4,11.8-5.2,17.7-1.3-5.5.2-11.1,1.1-16.6,2.2-14.6,10.5-28.1,22.3-36.9,6-5.2,14-9.4,16.2-17.6-1.4.9-2.8,1.8-4.1,2.7,1.9-5.5,3.8-10.9,5.6-16.5,2-6.2,6.8-12.2,13.5-13.4,1.6-.5,2.4.2,2.4,2.1-.6,1.6-1.4,3.1-2.2,4.6ZM81,120.9c0,5.4,0,10.7,0,16.1,2.2-6.6,2.6-13.5,3.1-20.4.4-5.6,2.3-11,3.3-16.5-3.9,6.2-6.5,13.4-6.5,20.8ZM58,146.4c-4.2,5.2-6.6,11.8-7.1,18.4,5-9.7,14.3-17.4,15.6-28.8-2.8,3.5-5.7,6.9-8.5,10.4ZM70.8,148.1c-1.9,4.9-4.3,9.7-5.1,15,2.9-2.3,4.2-5.8,5.7-9.1,2-4.5,3.6-9.2,3.9-14.1-1.9,2.5-3.4,5.3-4.5,8.2Z"/>
          <path class="cls-56" d="M108.8,259c-.4-.2-.9-.4-1.3-.6-1.8-9.8-3.7-19.6-2.2-29.6,1-7.5,5.6-13.6,9.6-19.7-1.1-.5-2.2-1.1-3.3-1.6,1.5-1,3-1.9,4.6-2.7.8.6,1.5,1.2,2.3,1.9-4.5,5.7-9.6,11.5-11.4,18.8-2.8,11.2-.3,22.6,1.7,33.7Z"/>
        </g>
        <path class="cls-40" d="M198,80.6c-9.2-10.2-22.2-16.2-35.3-19.5,14.1,5.5,26,15.5,35.8,26.9,5.2,5.5,10.6,12,18.5,13.3-2.4-3.1-5.8-5.2-8.4-8.3-3.5-4.2-6.9-8.5-10.6-12.4Z"/>
        <path class="cls-35" d="M123.7,95.4c.3-5.5.6-11-.6-16.4-.5,1.4-1.1,2.7-1.6,4.1,0-.5,0-1.6-.1-2.2-4,3.7-7.3,8-10.1,12.7-2.2,3.9-5,7.5-6.3,11.9-.4.3-1.1.9-1.5,1.3-1.5-1.2-4-2.4-3.3-4.8,2-12.2,6.1-24.7,15.3-33.4-.5,4.2-1.5,8.4-2,12.6,3.2-3.4,4.7-8,7.7-11.6,1.8-1.2,3,1.2,4.3,2,0-2.6.1-5.3.3-7.9,3.1,4.6,3.6,10.3,3.7,15.6-2.1,5.3-3.7,10.8-5.9,16ZM104.7,100c4.3-4.3,7.4-9.6,9.7-15.1-5.6,2.9-7.7,9.6-9.7,15.1Z"/>
        <path class="cls-43" d="M183.3,77.2c-6.4-5.3-13.4-10.5-21.7-12.2,4.2,3.8,9.1,7,11.9,12,1.1,1.8.4,4.7-2,4.9-5.3.5-9.9-2.9-14.9-4,2.6,5.7,7.5,9.9,12.4,13.6,7.9,6.2,16.8,10.8,25.6,15.3,2.5,1.3,5.2,2.3,7.9,3-9.7-8.8-19.9-18.3-24-31.1,5.2,2.3,9,6.6,14.3,8.6-2.5-4-6.1-7.1-9.5-10.2Z"/>
        <g>
          <path class="cls-3" d="M106.9,71.4c.8-1.5,1.1-3.1,1.2-4.7-2,2.3-4.2,4.4-6.1,6.8-1.9,3.3-4.1,6.4-5.4,9.9-.6,1.6-1.1,3.1-1.7,4.7-.6,1.6-1.4,3.1-2.2,4.6-1.5,7.4-3.1,14.8-4,22.2.9.4,1.8.7,2.7,1.1,2.4-1.2,4.8-2.4,7.2-3.7-.4-.2-1.3-.6-1.7-.8-.2,0-.7.2-.9.2.9-14,4.1-28.2,10.9-40.5Z"/>
          <path class="cls-3" d="M85.4,146c-4.3,9.3-9.8,18.4-17.9,24.9-5,4-9.1,8.9-12.5,14.2-2.6-6.3-.1-12.9,1.3-19.2-7.1,5.2-9.4,14.1-12.3,22-.5-1.5-1-2.9-1.5-4.4-2.7,4.6-5.3,9.4-6.8,14.5-.9,3.1-1.7,6.2-2.8,9.2-2.6-8.7-1.2-17.7-.6-26.5-2.3,4.1-4.1,8.5-6.5,12.5,0-4,0-8.1,1.3-12,1.3-4.4,4.3-8.4,3.9-13.2-2.2,2.6-4.8,5.4-8.4,6.1-2.7-.3-4.9-2-7.3-3-.6,4.8,1.5,9.3,5.5,11.9-1.5,3.1-2.7,6.4-3.9,9.7,0,2.1,0,4.1,0,6.2.2,6.8,4.2,13.3,10.4,16.2,3.5,1.6,6,4.7,9,7-.4-8.7,1.5-17.2,4.7-25.3.5,1.5,1.1,3,1.6,4.5,1.7-4.8,3.8-9.6,7.8-12.8,2.2,2.5,4.7,4.8,7.9,5.8-.2-3.3-.7-6.8.9-9.9,3.8-8.3,12.7-12,18.3-18.7-.2,1.8-.4,3.5-.5,5.3,5.6-5.1,7.6-12.7,9-19.9-.1-1.8-.3-3.5-.5-5.3Z"/>
        </g>
        <path class="cls-37" d="M140.7,89.9c-3.9-5.1-6.2-11.1-8.8-16.9-.2,3.8-.3,7.6.3,11.4.2.8.5,1.5.7,2.2,3.5,10.9,12,19.6,21.5,25.7,6.2,4,13.5,6.6,20.9,5.8-4.2-2.6-9.1-3.8-13.2-6.6-8.7-5.5-15.3-13.5-21.5-21.6Z"/>
        <path class="cls-15" d="M151.1,76.7c-1.8,6.9,1.1,13.7,3.9,19.9,1.1,2.6,2.7,4.8,4.6,6.7-.5-5.4-3.3-10.2-5.3-15.2-1.5-3.7-2.3-7.6-3.3-11.5Z"/>
        <path class="cls-32" d="M116.6,110.9c6.9-6.8,11.8-15.7,13-25.4.5,0,1.4-.2,1.8-.2l.8-1c.2.8.5,1.5.7,2.2-1.4,3.6-2.9,7.2-3.9,10.9-1.3,4.5-4,8.5-5,13.2-3.6,2.4-7,5.4-8.6,9.5,1.4-.7,2.7-1.4,4-2.2,0,.7.2,2.2.2,2.9-.3.2-1,.6-1.3.8-2.6,1.7-5.1,3.5-7.6,5.3.1-1.8.2-3.6.3-5.4-2.8,2.1-5.2,4.9-6.8,8-5.8,10.8-7.3,23.6-4.9,35.6,3.8-.4,7.5-.7,11.2-1.1-3-11.7-.7-24.8,6.9-34.3,3.8-4.8,9.9-6.9,15.3-9.3,5.5,1.6,10.8,5.1,12.9,10.7,2.9,7.4,4.4,15.6,3.9,23.5-.8,3.8-1.3,8.1-4.3,10.8-4,3.3-9.1,4.3-13.6,6.7,5.3,1.7,8.8,6,10.8,10.9-5.7-3-10.5-7.7-16.9-9.2-3-.9-6-1.9-9-3-5.3-2.3-11.1-3.2-16.8-3,2.5,10,7,20.2,15.4,26.5,6.2,5.4,13,10.3,20.7,13.3.9-1,1.7-1.9,2.6-2.9-1,12.3,2.8,25.1,11.3,34.1.9-2.1,1.3-4.3,2.9-6,4,.5,6.4,3.9,8.9,6.6-1.7.2-3.5.4-5.2.6,10.1,11,23.5,19.5,38.3,21.8,7.5,1.4,15.4,3,22.9.9,3.2-.6,3.9-4.1,5.4-6.5.3,2,1.7,4.3.2,6.2-1.3,1.7-3.5,2.2-5.4,3.1-2.3,1-3.8,3.1-5.7,4.6-5.5.2-11,1-16.4-.4-9-2-17.1-6.6-25.2-10.8,4.2,8.5,14,10.5,21.6,14.8-14.7-1.9-28-9.6-38.8-19.5-7.1-6.5-12.3-15.1-14.6-24.4-1.3-3.9-1.2-8.5-4.3-11.6-4.4-5-10.6-7.9-15.8-11.9-.8-.6-1.5-1.2-2.3-1.9-4.4-3.4-9.7-5.5-13.8-9.4-3.3-3.1-6.5-6.4-8.5-10.4-3.1-6.3-3.9-13.4-4.8-20.3-1.9-13.9-.1-27.9.7-41.8.5-2.3,1.2-4.5,1.8-6.8,2.4-1.2,4.8-2.4,7.2-3.7-.4-.2-1.3-.6-1.7-.8,2.2-.9,4.3-1.9,6.5-2.9,0-.5.2-1.4.2-1.9.4-.3,1.1-.9,1.5-1.3,7.7-5.5,13.2-13.6,16.4-22.4.5-1.4,1.1-2.8,1.6-4.1,1.2,5.4.9,10.9.6,16.4-1.7,5.5-4.4,10.5-7.1,15.5ZM128,125.2c-4.6.8-7.5,5.5-10.5,8.7.5,0,1.6-.2,2.2-.3-5.6,5.5-5.9,13.8-6.6,21.1-.7,3.7.7,7.8,3.3,10.4,3.2,1.2,6.8,1.4,10.2,1.3,4.3-.2,7.9-3,12.1-3.5-4.5,4.1-10.7,4.8-16.4,5.5,6,1.6,12.8.6,17.9-3.1,4.9-3.9,6.2-10.5,6.7-16.3.2-7.8-1.5-16.4-7.4-21.9-3.1-2.9-7.5-2.8-11.4-1.9Z"/>
        <path class="cls-23" d="M129.6,79.4c-2.1,5.3-3.7,10.8-5.9,16-1.7,5.5-4.4,10.5-7.1,15.5,6.9-6.8,11.8-15.7,13-25.4,0-2.1,0-4.1,0-6.2Z"/>
        <g>
          <path class="cls-49" d="M121.4,81c-4,3.7-7.3,8-10.1,12.7-2.2,3.9-5,7.5-6.3,11.9,7.7-5.5,13.2-13.6,16.4-22.4,0-.5,0-1.6-.1-2.2Z"/>
          <path class="cls-49" d="M66.5,136c-2.8,3.5-5.7,6.9-8.5,10.4-4.2,5.2-6.6,11.8-7.1,18.4,5-9.7,14.3-17.4,15.6-28.8Z"/>
        </g>
        <path class="cls-52" d="M114.4,84.9c-5.6,2.9-7.7,9.6-9.7,15.1,4.3-4.3,7.4-9.6,9.7-15.1Z"/>
        <g>
          <path class="cls-27" d="M132.9,86.5c-1.4,3.6-2.9,7.2-3.9,10.9-1.3,4.5-4,8.5-5,13.2,5.6-2.9,13.3-5.7,18.6-.8-.4-1.3-.6-2.5-.9-3.8,2.9,2.7,5.6,5.7,8.6,8.2,6.7,5.4,14.7,9.1,22.9,11.4,2-2.1,3-4.9,3.8-7.6-.4,0-1.3,0-1.7,0-7.5.8-14.7-1.9-20.9-5.8-9.5-6.1-18-14.7-21.5-25.7Z"/>
          <path class="cls-27" d="M132.8,120.5c-5.1-1.6-10.1.6-14.2,3.6,0-.6-.1-1.9-.2-2.5-2.6,1.7-5.1,3.5-7.6,5.3.1-1.8.2-3.6.3-5.4-2.8,2.1-5.2,4.9-6.8,8-5.8,10.8-7.3,23.6-4.9,35.6,3.8-.4,7.5-.7,11.2-1.1-3-11.7-.7-24.8,6.9-34.3,3.8-4.8,9.9-6.9,15.3-9.3Z"/>
          <path class="cls-27" d="M110.9,208.2c-14.4-4.6-27.8-14-34.8-27.7-1.1-2-1.7-4.3-3.5-5.8-9.2,5.3-11.8,16.7-13.7,26.3-2.4-2.8-4.7-5.7-6.8-8.7-4.1,5.2-4.9,11.9-6.5,18.2-1.2-1.9-2.4-3.8-3.6-5.7-4.8,8.9-4,19.3-3.4,29-.2-.1-.5-.3-.7-.4-6.1-5.4-12.5-11.2-17.2-17.9-2-3.3-3.7-6.8-5.2-10.3-.5-1.6-.9-3.3-1.2-5,.6-.3,1.9-.9,2.6-1.2.2,6.8,4.2,13.3,10.4,16.2,3.5,1.6,6,4.7,9,7-.4-8.7,1.5-17.2,4.7-25.3.5,1.5,1,3,1.6,4.5,1.7-4.8,3.8-9.6,7.8-12.8,2.2,2.5,4.7,4.8,7.9,5.8-.2-3.3-.7-6.8.9-9.9,3.8-8.3,12.7-12,18.3-18.7-.2,1.8-.4,3.5-.5,5.3,5.6-5.1,7.6-12.7,9-19.9,1.9-9.4,1.4-19.2,3.8-28.5-.8,13.9-2.6,27.9-.7,41.8.9,6.9,1.7,14,4.8,20.3,2,4.1,5.3,7.4,8.5,10.4,4.1,3.9,9.4,6,13.8,9.4-1.6.8-3.2,1.6-4.6,2.7l-.6.8Z"/>
          <path class="cls-27" d="M149.5,154.7c-.8,3.8-1.3,8.1-4.3,10.8-4,3.3-9.1,4.3-13.6,6.7,5.3,1.7,8.8,6,10.8,10.9-5.7-3-10.5-7.7-16.9-9.2,1.3,1.1,2.4,2.2,3.6,3.3-6.4-.8-12.7-2.9-18.2-6.3,1.9,0,3.7,0,5.6,0-5.3-2.3-11.1-3.2-16.8-3,2.5,10,7,20.2,15.4,26.5,6.2,5.4,13,10.3,20.7,13.3.9-1,1.7-1.9,2.6-2.9-1,12.3,2.8,25.1,11.3,34.1.9-2.1,1.3-4.3,2.9-6,4,.5,6.4,3.9,8.9,6.6-1.7.2-3.5.4-5.2.6,10.1,11,23.5,19.5,38.3,21.8,7.5,1.4,15.4,3,22.9.9,3.2-.6,3.9-4.1,5.4-6.5,2.8-4.7,5.7-9.4,7.6-14.7-4.1,3.2-6.9,7.7-11.4,10.5.6,1.2,1.1,2.5,1.7,3.7-1.7.3-3.4.6-5.1.8-10.7,1.8-21.8.9-31.9-3.1-2.8-1.1-5.3-2.7-7.5-4.7-5.4-4.5-5.9-12.6-3-18.7,1.4.6,2.9,1.3,4.3,1.9-.1-4.2-.3-8.3,0-12.5-.6,2.5-.9,5-1.3,7.5-2.9-5.7-3.2-12.2-2.7-18.4-2.7,5.5-2.8,11.7-4.4,17.6-3.7-7.2-3.1-15.9-.5-23.4,1.3-4.1,4.7-6.8,8-9.4-6.3-13.4-14.9-26.2-27.3-34.7,0-1.4,0-2.8.1-4.2Z"/>
        </g>
        <path class="cls-47" d="M172.9,103.6c-3.7-3-6.4-7.1-10.5-9.4,4.5,8.5,11.3,15.5,19.4,20.7,3.3,1.8,6.6,3.5,9.9,5.1-.2,2-.5,4.1-.7,6.1,1.5-.8,2.9-1.6,4.3-2.5.8-.5,1.6-1,2.4-1.5,1-.5,2.1,0,3.2.2,1.1,3.5,4.1,6.7,3.6,10.5l-.3.3c0,.4.2,1.3.3,1.7.3-.2,1-.5,1.3-.7l.4-.4c-1-4.1-2.9-7.8-4.8-11.6,7.2,1,14.8.9,21.3-2.5-4.6-.7-9.2.7-13.8,0-13.2-1.6-25.6-7.8-35.8-16.2Z"/>
        <path class="cls-16" d="M162.3,94.2l-.9-.6c1.2,6.6,5.3,12.1,9.6,17,2.3,2.7,6.1,4,7.5,7.4,1.3,3.2,3.6,5.9,6.1,8.3l.5.5c1.6-.7,3.1-1.3,4.6-1.9-3.8-2.9-7.4-6.1-10.3-9.9.6,0,1.7,0,2.3,0-8.1-5.2-14.9-12.2-19.4-20.7Z"/>
        <path class="cls-11" d="M87.4,100.1c-3.9,6.2-6.5,13.4-6.5,20.8,0,5.4,0,10.7,0,16.1,2.2-6.6,2.6-13.5,3.1-20.4.4-5.6,2.3-11,3.3-16.5Z"/>
        <path class="cls-48" d="M238.6,101.5c-3.1.4-6.2.9-9.3.8,1.2.4,2.4.8,3.5,1.2-8.1,4.3-17.7,2.8-26.2.5,2.7,2.8,5.7,5.5,9.5,6.4,4.8.8,10,1.2,14.5-1.2,3.5-1.6,5.9-4.6,7.9-7.7Z"/>
        <path class="cls-13" d="M142.6,109.8c-5.3-4.9-13-2.1-18.6.8-3.6,2.4-7,5.4-8.6,9.5,1.4-.7,2.7-1.4,4-2.2,7.6-5.2,17.1-4.9,25.8-3.4-.8-1.6-1.7-3.2-2.6-4.7Z"/>
        <path class="cls-22" d="M145.8,117.7c-.2-1.1-.4-2.1-.6-3.1-8.6-1.5-18.2-1.8-25.8,3.4,0,.7.2,2.2.2,2.9,8.1-3.7,17.4-5.7,26.1-3.1Z"/>
        <path class="cls-29" d="M191.6,120c-3.4-1.6-6.7-3.3-9.9-5.1-.6,0-1.7,0-2.3,0,2.9,3.8,6.5,7,10.3,9.9-1.5.6-3.1,1.3-4.6,1.9,2.4,2.5,5.2,4.6,8.7,5.2.1-1.7.2-3.4.2-5.1.2,1.7.4,3.4.6,5.1.5,1.2,1.1,2.3,1.7,3.5l.6,1.2c0-2.1-.1-4.2-.3-6.3-.4-2.3-.9-4.5-1.3-6.8-1.4.9-2.8,1.7-4.3,2.5.2-2,.5-4.1.7-6.1Z"/>
        <path class="cls-36" d="M178.5,118c-.4,0-1.1,0-1.5,0-.9,2.7-1.8,5.5-3.8,7.6l-.4.5c4-.2,7.9,0,11.9.2-2.6-2.3-4.8-5-6.1-8.3Z"/>
        <path class="cls-18" d="M200.7,122.3c-1-.2-2.1-.7-3.2-.2,2,3.8,4.9,7,6.4,11l.3-.3c.5-3.8-2.5-7-3.6-10.5Z"/>
        <path class="cls-18" d="M139.4,127.1c-3.1-2.9-7.5-2.8-11.4-1.9,5.8,1.9,11.9,4.7,15.1,10.3,5.7,8.6,3.7,21.2-4.5,27.5-4.5,4.1-10.7,4.8-16.4,5.5,6,1.6,12.8.6,17.9-3.1,4.9-3.9,6.2-10.5,6.7-16.3.2-7.8-1.5-16.4-7.4-21.9Z"/>
        <path class="cls-18" d="M135,133.6c-2.1-2-5.4-1.8-7.8-.3-2.4,4.9.7,11.7,6.3,12.4,2.3.4,3.7-1.7,5-3.3-.2-3.2-.8-6.7-3.5-8.8Z"/>
        <path class="cls-18" d="M201.7,139.5l-2.6-.6c.6,1.6,1.2,3.2,2.1,4.7.9-1.2,1-2.7.6-4.1Z"/>
        <path class="cls-45" d="M197.6,122.1c-.8.5-1.6,1-2.4,1.5.5,2.3.9,4.5,1.3,6.8.1-.9.4-2.7.5-3.6,2,2.6,3.2,5.6,3.7,8.8.3,1.3.6,2.7.9,4,.4,1.4.4,2.9-.6,4.1.2.4.7,1.2.9,1.6-.8,1.5-1.6,2.9-2.4,4.4.6,1.8,1.2,3.6,2,5.3l.8.4c1-2.3,2-4.6,2.7-7,.2-3.4.2-6.9.4-10.3.4.5,1.2,1.6,1.5,2.1-.2-2.1-.6-4.2-1.1-6.3l-.4.4c0,.7,0,2,0,2.7-.3-.5-1-1.5-1.3-2,0-.4-.2-1.3-.3-1.7-1.5-4.1-4.4-7.3-6.4-11Z"/>
        <g>
          <path class="cls-50" d="M152.2,142c1.3-7.2-1.6-14.8-7.6-19.1,3.1,6.1,5.1,12.7,7.6,19.1Z"/>
          <path class="cls-50" d="M196.3,135.4c-.5-1.2-1.1-2.3-1.7-3.5-.5.8-1,1.7-1.6,2.5,5.1,15.1,9.7,30.3,16.5,44.7,2.7,5.4,4.6,11.9,10,15.3-7.9-12.2-12.2-26.2-17.8-39.5-.7-1.7-1.4-3.5-2-5.3-1.2-4-2.4-8.1-2.8-12.3,0-.2,0-.5-.1-.7l-.6-1.2Z"/>
          <path class="cls-50" d="M12.8,198.4c0-.6-.2-1.2-.3-1.7.1,0,.2-.1.4-.2.4,1.3.8,2.6,1.2,3.9-.1,0-.3.1-.4.2-.3-.7-.6-1.4-.9-2.2Z"/>
        </g>
        <path class="cls-38" d="M128,125.2c-4.6.8-7.5,5.5-10.5,8.7.5,0,1.6-.2,2.2-.3,2.5-.4,5.1-.4,7.6-.4,2.4-1.5,5.6-1.7,7.8.3,2.7,2.1,3.3,5.6,3.5,8.8.3,2.2.6,4.5.5,6.7-.4,1.5-.8,2.9-1.4,4.3-2.7,4.6-7.7,7.8-13.1,7.4-4.6,0-8.4-2.9-11.5-6-.7,3.7.7,7.8,3.3,10.4,3.2,1.2,6.8,1.4,10.2,1.3,4.3-.2,7.9-3,12.1-3.5,8.2-6.4,10.2-18.9,4.5-27.5-3.2-5.5-9.2-8.4-15.1-10.3Z"/>
        <path class="cls-25" d="M185.2,126.8l-.5-.5c-3.9-.3-7.9-.5-11.9-.2-3.5,3.2-8,5-12.5,6.4,6.9,5.6,14.4,10.8,19.4,18.4,11.2,17.5,16.5,37.9,27.6,55.4.2-15.5-4.4-30.7-9.9-45-2.3-6.6-7.2-12.2-8-19.3-.5-3.1,1.8-5.4,3.6-7.5.6-.8,1.1-1.7,1.6-2.5-.2-1.7-.4-3.4-.6-5.1,0,1.7-.1,3.4-.2,5.1-3.5-.6-6.3-2.7-8.7-5.2Z"/>
        <path class="cls-51" d="M200.8,135.6c-.5-3.2-1.7-6.3-3.7-8.8-.1.9-.4,2.7-.5,3.6.1,2.1.2,4.2.3,6.3,0,.2,0,.5.1.7,1.9.6,3.2,0,3.9-1.7Z"/>
        <g>
          <path class="cls-53" d="M127.3,133.3c-2.5,0-5.1,0-7.6.4-5.6,5.5-5.9,13.8-6.6,21.1,3.1,3.1,6.9,6,11.5,6,5.4.4,10.4-2.9,13.1-7.4-2.4-1-4.7-3-3.6-5.8,1.8-1.1,3.5.6,4.9,1.5,0-2.3-.3-4.5-.5-6.7-1.3,1.5-2.7,3.7-5,3.3-5.5-.6-8.7-7.5-6.3-12.4Z"/>
          <path class="cls-53" d="M182.2,212.2c-.9.6-1.8,1.2-2.8,1.8-.8,1.9-1.5,3.8-2,5.8-.4,4.2-.2,8.3,0,12.5,2.1.7,5.1,2.8,7,.6,2.9-3.7,1.4-8.7,0-12.7-.9-2.6-1.6-5.2-2.1-7.9Z"/>
        </g>
        <path class="cls-6" d="M205.5,134.2c-.3.2-1,.5-1.3.7.3.5,1,1.5,1.3,2,0-.7,0-2,0-2.7Z"/>
        <path class="cls-2" d="M201.7,139.5c-.3-1.3-.6-2.7-.9-4-.7,1.8-2,2.4-3.9,1.7.4,4.2,1.5,8.3,2.8,12.3.8-1.5,1.6-2.9,2.4-4.4-.2-.4-.6-1.2-.9-1.6-.8-1.5-1.5-3.1-2.1-4.7l2.6.6Z"/>
        <path class="cls-17" d="M75.3,139.8c-1.9,2.5-3.4,5.3-4.5,8.2-1.9,4.9-4.3,9.7-5.1,15,2.9-2.3,4.2-5.8,5.7-9.1,2-4.5,3.6-9.2,3.9-14.1Z"/>
        <path class="cls-5" d="M139.1,149.1c-1.5-.9-3.1-2.6-4.9-1.5-1.1,2.8,1.2,4.8,3.6,5.8.5-1.4,1-2.8,1.4-4.3Z"/>
        <path class="cls-10" d="M204.5,155.4c.8-2.3,1.3-4.8.6-7.1-.7,2.4-1.6,4.7-2.7,7,.5,0,1.5.1,2.1.1Z"/>
        <path class="cls-30" d="M50.6,150.9c-4.9,3.6-7.8,9.7-7.5,15.7.4-.9,1.3-2.7,1.7-3.5,1.9-4.1,4.3-7.9,5.8-12.2Z"/>
        <path class="cls-4" d="M116.6,170.9c-1.9,0-3.7,0-5.6,0,5.5,3.4,11.8,5.5,18.2,6.3-1.2-1.1-2.4-2.3-3.6-3.3-3-.9-6-1.9-9-3Z"/>
        <path class="cls-26" d="M12.5,196.7c0-.5-.2-1.1-.3-1.6,1.6-.8,3.2-1.5,4.7-2.2,0,2.1,0,4.1,0,6.2-.6.3-1.9.9-2.6,1.2h-.3c-.4-1.1-.8-2.4-1.2-3.7-.1,0-.2.1-.4.2Z"/>
        <path class="cls-39" d="M188.5,196.1c-3.3-2.8-7.9-2.5-11.9-2.4-3.2,2.6-6.7,5.3-8,9.4-2.6,7.4-3.2,16.2.5,23.4,1.6-5.8,1.7-12.1,4.4-17.6,1.7-4.2,5.3-7.3,9.6-8.5-.7-.8-1.3-1.7-2-2.5,3.3-.4,7-.5,9.7,1.8,1.9,1.5,3.6,3.2,5.1,5.1.6.7,1.3,1.4,1.9,2.1-1.7-4.6-5.7-7.7-9.2-10.8Z"/>
        <path class="cls-31" d="M229.7,197.9c-1.9-2.6-5.4-2.7-8.2-3.7-4.9,4.1-7.8,10.5-7.8,16.9,2.4-3.8,4.7-7.8,8.1-10.8,2.3-.5,5.1-1.3,7.2.3,2.2,1.1,2.8,3.6,3.3,5.8l-1.2-.7c2,3.1,1.6,6.9,1.6,10.4,1.1-6.1,1-13.2-3.1-18.3Z"/>
        <path class="cls-8" d="M229,200.6c-2.1-1.6-4.8-.8-7.2-.3,3.1,1.8,6.3,3.5,9.3,5.4l1.2.7c-.6-2.2-1.1-4.7-3.3-5.8Z"/>
        <path class="cls-21" d="M190.7,199.7c-1.8.1-3.6.3-5.4.4,3.6,2.2,7.1,4.3,10.8,6.3l-.3-1.6c-1.5-1.9-3.2-3.6-5.1-5.1Z"/>
        <path class="cls-46" d="M228.8,208.8c-2-2.5-6-1.7-7.5,1-2.7,4.9-3.7,10.7-3.4,16.3,0,1.8,1.5,2.9,2.4,4.2-.9-6.1-.3-12.4,1.6-18.3.9,1.6,1.7,3.3,2.5,4.9,0-1.4-.1-2.7-.1-4.1,1.3-.7,2.8-1,4.3-1.4.2.9.5,2.7.7,3.5.9-2,1.6-4.7-.4-6.3Z"/>
        <path class="cls-44" d="M189.7,215.5c-.6-2.7-1-6.6-4.3-7.2-3.3-.4-4.8,3.3-6,5.7.9-.6,1.9-1.2,2.8-1.8.5,2.7,1.2,5.3,2.1,7.9.1-1.5,0-3.2.7-4.6,1.6-.3,3.1,0,4.7,0Z"/>
        <path class="cls-33" d="M107.5,258.4c-1.2-.6-2.5-1.1-3.7-1.6-1.2-8.6-2.2-17.2-1.8-25.8.3-8.3,4.3-16,9-22.7l.6-.8c1.1.5,2.2,1.1,3.3,1.6-4.1,6.1-8.6,12.3-9.6,19.7-1.4,10,.4,19.8,2.2,29.6Z"/>
        <path class="cls-55" d="M221.9,212c-1.8,5.9-2.5,12.1-1.6,18.3,2.3.3,4.8-.5,5.6-2.8.7-3.6.5-7.4-1.5-10.6-.8-1.7-1.7-3.3-2.5-4.9Z"/>
        <path class="cls-42" d="M194.9,254.6c-6.5-1-12.6-3.4-18.7-5.6,2.3,1.9,4.8,3.6,7.5,4.7,10.1,4,21.3,4.9,31.9,3.1.2-.4.6-1.2.8-1.5-7.2.3-14.4.6-21.5-.6Z"/>
        <path class="cls-12" d="M195.6,270c-9-2-17.1-6.6-25.2-10.8,4.2,8.5,14,10.5,21.6,14.8,6.8,1,14.1,0,20-3.6-5.5.2-11,1-16.4-.4Z"/>
      </g>
    </g>
  </g>
</svg>