<?xml version="1.0" encoding="UTF-8"?>
<svg xmlns="http://www.w3.org/2000/svg" version="1.1" viewBox="0 0 429.84 320.02">
  <defs>
    <style>
      .cls-1 {
        fill: #1c477d;
      }

      .cls-2 {
        fill: #1f3a6e;
      }

      .cls-3 {
        fill: #5078ac;
      }

      .cls-4 {
        fill: #4f78ab;
      }

      .cls-5 {
        fill: #44853e;
      }

      .cls-6 {
        fill: #537e6c;
      }

      .cls-7 {
        fill: #335076;
      }

      .cls-8 {
        fill: #44863e;
      }

      .cls-9 {
        fill: #b47d2d;
      }

      .cls-10 {
        fill: #8db456;
      }

      .cls-11 {
        fill: #519141;
      }

      .cls-12 {
        fill: #3f6494;
      }

      .cls-13 {
        fill: #1b4071;
      }

      .cls-14 {
        fill: #e1ad66;
      }

      .cls-15 {
        fill: #214a7f;
      }

      .cls-16 {
        fill: #3e6596;
      }

      .cls-17 {
        fill: #5076ac;
      }

      .cls-18 {
        fill: #1a4174;
      }

      .cls-19 {
        fill: #214a7e;
      }

      .cls-20 {
        fill: #3e6597;
      }

      .cls-21 {
        fill: #f4f4ef;
      }

      .cls-22 {
        fill: #f1cd98;
      }

      .cls-23 {
        fill: #305789;
      }

      .cls-24 {
        fill: #a1bbde;
      }

      .cls-25 {
        fill: #cf9849;
      }

      .cls-26 {
        fill: #b17e2b;
      }

      .cls-27 {
        fill: #d29b4c;
      }

      .cls-28 {
        fill: #ae7f33;
      }

      .cls-29 {
        fill: #ebba78;
      }

      .cls-30 {
        fill: #3e6496;
      }

      .cls-31 {
        fill: #94bce4;
      }

      .cls-32 {
        fill: #95b7e0;
      }

      .cls-33 {
        fill: #1f4171;
      }

      .cls-34 {
        fill: #1b4170;
      }

      .cls-35 {
        fill: #b27d2e;
      }

      .cls-36 {
        fill: #c68f41;
      }

      .cls-37 {
        fill: #e4b46e;
      }

      .cls-38 {
        fill: #98bce4;
      }

      .cls-39 {
        fill: #93b8e2;
      }

      .cls-40 {
        fill: #fffaec;
      }

      .cls-41 {
        fill: #95bbe4;
      }

      .cls-42 {
        fill: #274773;
      }

      .cls-43 {
        fill: #3b5f86;
      }

      .cls-44 {
        fill: #375784;
      }

      .cls-45 {
        fill: #5276ab;
      }

      .cls-46 {
        fill: #b37d2c;
      }

      .cls-47 {
        fill: #1b4073;
      }

      .cls-48 {
        fill: #184376;
      }

      .cls-49 {
        fill: #3f6596;
      }

      .cls-50 {
        fill: #4f77ab;
      }

      .cls-51 {
        fill: #27486e;
      }

      .cls-52 {
        fill: #5077ac;
      }

      .cls-53 {
        fill: #519241;
      }

      .cls-54 {
        fill: #d9a75f;
      }

      .cls-55 {
        fill: #5078ab;
      }

      .cls-56 {
        fill: #4f78aa;
      }

      .cls-57 {
        fill: #faf9f4;
      }
    </style>
  </defs>
  <!-- Generator: Adobe Illustrator 28.7.0, SVG Export Plug-In . SVG Version: 1.2.0 Build 136)  -->
  <g>
    <g id="Layer_1">
      <g>
        <path class="cls-35" d="M338.64,208.31c5.14-5.34,9.22-11.79,15.49-15.94-2.23,5.82-8.23,9.3-10.11,15.22-1.8.18-3.6.41-5.38.72Z"/>
        <path class="cls-57" d="M186.77,53.14c16.7-4.32,34.16-5.31,51.3-3.69,15.02,1.14,30.09,2.76,44.67,6.69,4.44,1.11,8.49,3.27,12.4,5.57,6.19,3.72,13.52,4.3,20.46,5.62,8.69,1.57,17.09,4.38,25.33,7.5,6.5,2.55,12.94,5.44,18.66,9.48,2.53,1.78,4.83,4.08,5.84,7.08,2.36,6.71,4.93,13.45,5.42,20.63-2.29,1.85-4.33,4.03-6.89,5.53-4.6.98-9.29,1.49-13.95,2.11,1.38-2.51,2.69-5.06,3.78-7.71-3.16,1.34-5.91,3.57-9.14,4.7-4.72-.8-8.04-4.68-10.73-8.33-2.31.93-4.63,2.02-6.34,3.88-4.61,4.8-9.88,8.96-15.64,12.29-15.99,8.29-34.92,6.6-51.3,13.7-4.41,1.96-8.83-.95-13.19-1.63-7.3-1.28-15.11-.54-21.85,2.62-5.38,2.43-8.48,8.75-14.77,9.3-14.38,2.03-28.84-.42-43.22-1.07-9.73-.7-19.58-.78-29.1-3.12-4.96-1.25-10.1-1.04-15.16-.81-19.86-4.44-39.81-10.13-57.64-20.19-2.15-2.91-4.55-5.64-7.44-7.85-7.19-8.54-4.07-22.65,5-28.56,7.14-5,15.48-8.11,23.97-9.91,4.6-1.04,9.75-.54,13.81-3.31,5.79-3.84,10.95-8.6,17.06-11.98,6.29-3.72,13.61-4.99,20.72-6.23,7.8-.94,15.67-1.87,23.53-1.16,2.41.25,4.8.64,7.21.92,5.81.78,11.57-.8,17.2-2.07ZM158.16,64.59c-.42.95-.84,1.91-1.26,2.87-4.99-.15-10.3.52-14.34,3.7-5.69,4-8.61,11.93-6.46,18.53.84,3.43,2.31,6.78,4.85,9.31,1.32,1.78,3.67.3,5.39.19,5.81-1.28,12.08-.46,16.74,3.45,1.5,1.24,2.43,3.86,4.52,4.01,4.98-1.78,8.94-5.82,10.65-10.82l.61-.23c.24-4.17.62-8.51-1.03-12.46-1.57-4.68-5.69-7.8-7.74-12.22-4.7-.5-9.2-2.31-11.93-6.33ZM246.87,86.44c-6.37,8.48-5.46,21.91,2.82,28.8,1.55-.32,2.94-1.1,4.35-1.78,3.92-1.07,8.01-1.09,12.04-1,6.9.34,13.92.67,20.72-.86,1.26-.18,2.37-1.05,2.85-2.23,3.25-6.05,3.54-13.61.49-19.79-2.15-4.84-6.39-8.23-10.73-11.03-10.99-5.21-25.36-2.1-32.54,7.89ZM205.02,91.56c-1.73,4.25-5.58,6.59-9.47,8.58-1.88,4.26-4.07,8.47-5.07,13.06-.88,4.04.29,8.1,1.53,11.94,3.03-.47,5.98-1.42,8.7-2.84.46.04,1.36.13,1.82.18,4.88-2.08,10.16-2.82,15.23-4.3,3.34-.03,6.68-.13,10.03-.09.8.22,2.39.65,3.18.87,3.84-8.3,1.23-19.54-7.01-24.1-4.94-3.07-11.01-2.58-16.47-1.51-.83-.61-1.65-1.19-2.47-1.79Z"/>
        <path class="cls-28" d="M100.41,45.07c31.6-8.84,64.44-12.9,97.2-13.46,7.35.32,14.65-1.21,21.99-.53,8.63.96,17.33.29,25.97.89,15.73,1.32,31.48,2.59,47.09,4.96-.12.77-.24,1.55-.35,2.33-17.04-3.44-34.36-5.27-51.68-6.41-17.63-.34-35.31-.71-52.91.41-36.37,2.36-72.56,9.62-106.5,23.04-7.97,1.96-15.75,5.11-22.43,9.93-2.98,2.1-5.98,4.18-9.22,5.85l-.83.44c1.38-3.16,4.3-5.14,6.95-7.15,13.36-9.7,28.99-15.67,44.72-20.3Z"/>
        <path class="cls-40" d="M187.72,33.26c17.6-1.12,35.28-.75,52.91-.41,17.32,1.14,34.64,2.97,51.68,6.41,5.06.94,10.05,2.21,15.08,3.3,1.76.74,3.49,1.57,5.23,2.4-10.2-1.68-20.32-3.87-30.61-4.96-34.29-3.84-68.9-5.11-103.36-3.34-26.19,1.69-52.14,6.53-77.26,14.1-6.72,1.88-13.2,4.71-20.17,5.54,33.94-13.42,70.13-20.68,106.5-23.04Z"/>
        <path class="cls-25" d="M101.39,50.76c25.12-7.57,51.07-12.41,77.26-14.1,34.46-1.77,69.07-.5,103.36,3.34,10.29,1.09,20.41,3.28,30.61,4.96-1.74-.83-3.47-1.66-5.23-2.4,7.55.19,14.58,3.11,21.8,4.99,10.27,2.82,19.68,7.95,28.96,13.04,3.24,1.74,6.12,4.06,8.68,6.69-2.77-.84-5.5-1.78-8.21-2.8,3.87,3.38,7.71,6.83,12.04,9.62,4.36,2.87,9.09,5.84,11.39,10.75,3.35,6.47,1.68,14.54-2.63,20.14-2.24,3.02-5.6,4.84-8.57,7.03-.49-7.18-3.06-13.92-5.42-20.63-1.01-3-3.31-5.3-5.84-7.08-5.72-4.04-12.16-6.93-18.66-9.48-8.24-3.12-16.64-5.93-25.33-7.5-6.94-1.32-14.27-1.9-20.46-5.62-3.91-2.3-7.96-4.46-12.4-5.57-14.58-3.93-29.65-5.55-44.67-6.69-17.14-1.62-34.6-.63-51.3,3.69-5.63,1.27-11.39,2.85-17.2,2.07-2.41-.28-4.8-.67-7.21-.92,1.53-.13,3.06-.27,4.58-.43-3.99-.67-8.48-.47-11.75-3.23-3.43-2.61-7.56-5.94-12.16-4.26-2.16,2.61-3.1,5.94-4.2,9.08-7.11,1.24-14.43,2.51-20.72,6.23-6.11,3.38-11.27,8.14-17.06,11.98-4.06,2.77-9.21,2.27-13.81,3.31-8.49,1.8-16.83,4.91-23.97,9.91-9.07,5.91-12.19,20.02-5,28.56.17.42.52,1.25.69,1.66-7.39-4.73-14.74-11.61-15.33-20.92-.73-7.2,4.23-12.99,7.03-19.16-6.71,5.97-11.74,16.04-7.66,24.85,4.56,9.64,13.18,16.93,22.71,21.42,17.83,10.06,37.78,15.75,57.64,20.19,23.01,5.41,46.65,7.84,70.26,8.13,23.34.35,46.62-1.69,69.82-3.94,15.4-1.6,31.15-2.86,45.61-8.85,4.51,1.08,8.93-.72,13.19-2.02,16.69-5.34,33.71-10.74,48.37-20.66,5.92-3.92,11.63-8.87,14.33-15.62,2.05-4.9,1.25-10.31,1.04-15.45,2.2,3.78,4.44,8.1,3.07,12.6-1.46,8.33-8.77,13.57-12.02,21.05,2.04-.82,4.07-1.66,6.11-2.49.34,3.03.61,6.15-.24,9.14-3.7,14.08-8.37,27.97-15.11,40.9-1.79,3.26-3.01,6.81-3.59,10.49-.67,2.94-2.65,5.34-4.14,7.91-1.79,2.68-3.29,5.71-5.92,7.7-6.27,4.15-10.35,10.6-15.49,15.94-1,.63-2,1.28-2.98,1.95-3.36-6.27-8.09-11.72-14.03-15.66,9.41-9.89,13.34-23.25,18.86-35.4,2.6-8.25,6.47-16.22,7.3-24.92-7.4,3.56-15.47,5.35-23.31,7.66-10.68,1.76-20.95,5.51-31.74,6.54-10.62,1.11-21.06,3.55-31.72,4.23-7.84.48-15.49,2.65-23.36,2.66-10.36.02-20.68,1.35-31.05,1-19.2.74-38.54.52-57.58-2.36-9.78-1.14-19.36-3.44-29.03-5.22-6.86-1.26-13.33-3.99-20.09-5.65-6.36-1.48-12-5.05-18.42-6.34.77,19.13,8.2,37.4,17.78,53.75,6.84,10.85,14.52,21.3,23.93,30.08,3.5,3.24,6.97,6.51,10.44,9.78-8.29-1.55-16.58-3.84-23.78-8.38-7.25-4.64-14.83-8.97-21.08-14.98-1.78-1.67-3.6-3.31-5.48-4.86.15.45.46,1.35.61,1.8-2.21-1.78-3.91-4.06-5.48-6.4.57.07,1.71.2,2.28.26-13.74-20.4-23.26-43.3-31.29-66.45-2.52-6.67-.69-14.33-4.29-20.65-2.9-5.53-6.23-11.48-5.2-17.96.67-7.87,5.52-14.3,9.64-20.71,3.24-1.67,6.24-3.75,9.22-5.85,6.68-4.82,14.46-7.97,22.43-9.93,6.97-.83,13.45-3.66,20.17-5.54Z"/>
        <path class="cls-9" d="M292.31,39.26c.11-.78.23-1.56.35-2.33,18.86,3.42,37.72,7.53,55.53,14.76,11.8,4.58,23.09,10.87,32.33,19.63,5.64,5.63,10.47,12.75,11.39,20.84.43,8.29-2.77,16.14-4.25,24.18-2.57,15.65-8.09,30.69-14.94,44.95-2.71,5.22-4.89,10.79-8.53,15.47.58-3.68,1.8-7.23,3.59-10.49,6.74-12.93,11.41-26.82,15.11-40.9.85-2.99.58-6.11.24-9.14-2.04.83-4.07,1.67-6.11,2.49,3.25-7.48,10.56-12.72,12.02-21.05,1.37-4.5-.87-8.82-3.07-12.6.21,5.14,1.01,10.55-1.04,15.45-2.7,6.75-8.41,11.7-14.33,15.62-14.66,9.92-31.68,15.32-48.37,20.66-4.26,1.3-8.68,3.1-13.19,2.02,7.16-2.86,14.72-4.53,21.94-7.23,11.2-4.13,22.48-8.33,32.98-14.04,2.56-1.5,4.6-3.68,6.89-5.53,2.97-2.19,6.33-4.01,8.57-7.03,4.31-5.6,5.98-13.67,2.63-20.14-2.3-4.91-7.03-7.88-11.39-10.75-4.33-2.79-8.17-6.24-12.04-9.62,2.71,1.02,5.44,1.96,8.21,2.8-2.56-2.63-5.44-4.95-8.68-6.69-9.28-5.09-18.69-10.22-28.96-13.04-7.22-1.88-14.25-4.8-21.8-4.99-5.03-1.09-10.02-2.36-15.08-3.3Z"/>
        <path class="cls-46" d="M83.3,202.19c1.88,1.55,3.7,3.19,5.48,4.86,6.25,6.01,13.83,10.34,21.08,14.98,7.2,4.54,15.49,6.83,23.78,8.38,2.02.77,4.04,1.56,6.1,2.26-6.36,1.88-12.94.84-19.33-.28-.81,4.71-.71,9.51.04,14.23-.59.07-1.76.2-2.35.27-2.91-5.61-3.7-11.93-3.93-18.16-8.4-3.74-15.65-9.57-22.4-15.7-2.82-2.82-5.72-5.66-7.86-9.04-.15-.45-.46-1.35-.61-1.8Z"/>
        <path class="cls-54" d="M143.03,46.37c4.6-1.68,8.73,1.65,12.16,4.26,3.27,2.76,7.76,2.56,11.75,3.23-1.52.16-3.05.3-4.58.43-7.86-.71-15.73.22-23.53,1.16,1.1-3.14,2.04-6.47,4.2-9.08Z"/>
        <path class="cls-49" d="M158.16,64.59c2.73,4.02,7.23,5.83,11.93,6.33,2.05,4.42,6.17,7.54,7.74,12.22,1.65,3.95,1.27,8.29,1.03,12.46l-.61.23c-5.23,1.87-10.18,4.39-15.17,6.81-4.66-3.91-10.93-4.73-16.74-3.45-3.13-3.46-6.72-6.46-10.24-9.5-2.15-6.6.77-14.53,6.46-18.53,4.04-3.18,9.35-3.85,14.34-3.7.42-.96.84-1.92,1.26-2.87ZM153.86,75.4c.04,1.2.66,1.7,1.86,1.51,2.05-.23,3.91-1.22,5.89-1.74,2.29,1.38-1.05,3.57-1.65,5.23,2.07,2.03,4.69,3.24,7.65,2.88,1.61-4.55-1.58-8.77-5.74-10.36-2.87-1.57-5.95.55-8.01,2.48ZM143.02,76.45c-2.16,2.13-2.73,5.63-2.24,8.55,3.29,10.81,18.03,16.75,27.44,9.85,2.49-1.32,1.69-5.61-1.13-5.84-4.78-.34-10.16,1.32-14.26-2-4.14-2.33-5.06-7.25-7.4-10.99-.6.11-1.81.32-2.41.43Z"/>
        <path class="cls-26" d="M39.12,85.64c2.21-4.89,4.71-10.44,9.62-13.12l.83-.44c-4.12,6.41-8.97,12.84-9.64,20.71-1.03,6.48,2.3,12.43,5.2,17.96,3.6,6.32,1.77,13.98,4.29,20.65,8.03,23.15,17.55,46.05,31.29,66.45-.57-.06-1.71-.19-2.28-.26-10.3-13.73-18.74-28.8-25.57-44.53-5.17-12.1-9.18-24.72-11.33-37.71-1.8-9.71-6.6-19.96-2.41-29.71Z"/>
        <path class="cls-52" d="M153.86,75.4c2.06-1.93,5.14-4.05,8.01-2.48,4.16,1.59,7.35,5.81,5.74,10.36-2.96.36-5.58-.85-7.65-2.88.6-1.66,3.94-3.85,1.65-5.23-1.98.52-3.84,1.51-5.89,1.74-1.2.19-1.82-.31-1.86-1.51Z"/>
        <path class="cls-3" d="M143.02,76.45c.6-.11,1.81-.32,2.41-.43,2.34,3.74,3.26,8.66,7.4,10.99,4.1,3.32,9.48,1.66,14.26,2,2.82.23,3.62,4.52,1.13,5.84-9.41,6.9-24.15.96-27.44-9.85-.49-2.92.08-6.42,2.24-8.55ZM142.66,80.43c.31,2.14.26,4.45,1.31,6.41.87,1.68,2.88,2.14,4.41,3.03-.96-3.18-2.05-6.3-3.03-9.47-.68,0-2.02.02-2.69.03Z"/>
        <path class="cls-3" d="M275.64,230.1c6.48-1.62,12.41,3.52,14.98,9.06,2.06,4.14.43,9.26-2.81,12.29-1.34,1.13-3.95,1.16-4.78-.62-2.32-3.7-2.82-8.77-6.75-11.28-4.17-2.74-9.34-1.45-13.99-1.52,1.73-5.57,8.37-6.82,13.35-7.93ZM267.29,235.95c4.04.08,8.08-.1,12.13-.16-.13-1.05-.25-2.09-.37-3.12-4.23-1.44-9.14-.6-11.76,3.28Z"/>
        <path class="cls-30" d="M246.87,86.44c7.18-9.99,21.55-13.1,32.54-7.89-1.16,1.66-3.29,3.16-3.13,5.38.87,1.3,1.88,2.49,2.92,3.67.48-2,.96-3.98,1.44-5.97,3.09,3.23,5.69,7.13,6.13,11.69,1.18,6.52-2.03,12.61-5.04,18.14,1.68.06,3.37.13,5.07.14-6.8,1.53-13.82,1.2-20.72.86.41-1.81.96-3.62.85-5.49-3.79-2.72-8.83-3.55-11.99-7.12-2.86-3.74-1.41-8.7-2.08-13.01-1.51-1.44-2.91.66-3.97,1.64-3.08,4.05-4.36,9.45-3.86,14.48.71,4.96,5.35,7.75,9.01,10.5-1.41.68-2.8,1.46-4.35,1.78-8.28-6.89-9.19-20.32-2.82-28.8ZM261.29,80.93c-2.13,3.66-3.35,7.92-2.79,12.17,4.08,3.78,10.1,4.58,15.46,4.84-.32-.24-.94-.72-1.26-.96,1.96-2.18,5.6-4.11,4.85-7.58-.32-3.24-3.37-5.2-6.15-6.24.87-.1,2.61-.31,3.48-.41-1.19-1.38-2.11-3.61-4.28-3.41-3.11.59-6.05,2.52-9.31,1.59Z"/>
        <path class="cls-30" d="M370.49,240.19c1.06-1.02,2.85-2.62,4.12-.95,2.76,2.79,6.64,3.62,10.35,4.34,1.44,3.73,4.71,6.28,6.46,9.83,2.32,4.56,3.1,10.05,1.37,14.95.06-.48.16-1.44.21-1.92-4.01,2.97-8.03,6.38-13.14,7.15-7.71,1.28-16.33-.02-22.45-5.17-2.07-1.62-4.12-3.26-6.34-4.66l-.55-.36c-.43-3.38-.51-6.8-.16-10.18,1.63-.27,3.28-.55,4.89-.95.02,3.22-.09,6.72,1.82,9.51,3.01,4.54,7.86,8.36,13.53,8.46,3.99.13,8.29-.12,11.78-2.28,2.25-1.28,1.79-4.2,2.31-6.36-5.1-.34-10.38.38-15.32-1.14-4.34-2.08-6.4-6.77-8.88-10.62,2.94-1.61,5.87-3.26,8.81-4.88.33-1.6.68-3.21,1.19-4.77ZM368.31,250.24c3.22.18,7.05-3.68,9.62-.53-1.18.94-2.34,1.9-3.51,2.86,1.81,2.22,4.26,3.65,7.17,3.84.34-2.29,1.35-4.89-.17-6.98-1.66-2.26-4.17-3.94-6.86-4.71-3.09.23-5.86,2.34-6.25,5.52Z"/>
        <path class="cls-22" d="M43,101.87c-4.08-8.81.95-18.88,7.66-24.85-2.8,6.17-7.76,11.96-7.03,19.16.59,9.31,7.94,16.19,15.33,20.92-.17-.41-.52-1.24-.69-1.66,2.89,2.21,5.29,4.94,7.44,7.85-9.53-4.49-18.15-11.78-22.71-21.42Z"/>
        <path class="cls-18" d="M261.29,80.93c3.26.93,6.2-1,9.31-1.59,2.17-.2,3.09,2.03,4.28,3.41-.87.1-2.61.31-3.48.41-3.48.21-7.66,1.29-8.79,5.08,1.57,4.57,5.87,7.03,10.09,8.74.32.24.94.72,1.26.96-5.36-.26-11.38-1.06-15.46-4.84-.56-4.25.66-8.51,2.79-12.17Z"/>
        <path class="cls-18" d="M258.65,245.87c3.52-1.78,7.57-3.54,11.59-2.47,3.06,2.43,3.78,6.58,3.03,10.24-2.49-2.07-4.5-5.2-7.65-6.21-5.23.75-5.13,7.24-5.78,11.25-.72-.57-1.44-1.12-2.17-1.67-.46-1.27-.92-2.53-1.39-3.78,1.49-2.19,2.41-4.7,2.37-7.36Z"/>
        <path class="cls-33" d="M276.28,83.93c-.16-2.22,1.97-3.72,3.13-5.38,4.34,2.8,8.58,6.19,10.73,11.03,3.05,6.18,2.76,13.74-.49,19.79-.48,1.18-1.59,2.05-2.85,2.23-1.7-.01-3.39-.08-5.07-.14,3.01-5.53,6.22-11.62,5.04-18.14-.44-4.56-3.04-8.46-6.13-11.69-.48,1.99-.96,3.97-1.44,5.97-1.04-1.18-2.05-2.37-2.92-3.67Z"/>
        <path class="cls-38" d="M142.66,80.43c.67-.01,2.01-.02,2.69-.03.98,3.17,2.07,6.29,3.03,9.47-1.53-.89-3.54-1.35-4.41-3.03-1.05-1.96-1-4.27-1.31-6.41Z"/>
        <path class="cls-50" d="M262.61,88.24c1.13-3.79,5.31-4.87,8.79-5.08,2.78,1.04,5.83,3,6.15,6.24.75,3.47-2.89,5.4-4.85,7.58-4.22-1.71-8.52-4.17-10.09-8.74ZM267.59,89.27c.04.69.12,2.08.17,2.77.67.02,2.02.05,2.7.07.04-.73.11-2.19.14-2.92-.75.02-2.26.06-3.01.08Z"/>
        <path class="cls-52" d="M248.89,88.48c1.06-.98,2.46-3.08,3.97-1.64.67,4.31-.78,9.27,2.08,13.01,3.16,3.57,8.2,4.4,11.99,7.12.11,1.87-.44,3.68-.85,5.49-4.03-.09-8.12-.07-12.04,1-3.66-2.75-8.3-5.54-9.01-10.5-.5-5.03.78-10.43,3.86-14.48ZM247.92,102.87c1.03,2.06,3.64.71,5.42.92-.48-5.27-1.97-10.39-2.28-15.67-3.14,4.09-5.83,9.74-3.14,14.75Z"/>
        <path class="cls-31" d="M247.92,102.87c-2.69-5.01,0-10.66,3.14-14.75.31,5.28,1.8,10.4,2.28,15.67-1.78-.21-4.39,1.14-5.42-.92Z"/>
        <path class="cls-7" d="M136.1,89.69c3.52,3.04,7.11,6.04,10.24,9.5-1.72.11-4.07,1.59-5.39-.19-2.54-2.53-4.01-5.88-4.85-9.31Z"/>
        <path class="cls-1" d="M267.59,89.27c.75-.02,2.26-.06,3.01-.08-.03.73-.1,2.19-.14,2.92-.68-.02-2.03-.05-2.7-.07-.05-.69-.13-2.08-.17-2.77Z"/>
        <path class="cls-12" d="M205.02,91.56c.82.6,1.64,1.18,2.47,1.79,5.46-1.07,11.53-1.56,16.47,1.51,8.24,4.56,10.85,15.8,7.01,24.1-.79-.22-2.38-.65-3.18-.87-1.29-.36-2.58-.72-3.86-1.08,1.57-3.98,3.49-8.22,2.53-12.59-.42-2.82-3.16-4.27-5.12-5.95-2.42,4.32-3.09,9.46-5.92,13.54-3.73,4.1-9.94,3.09-14.6,5.4-1.32,1.33-.24,3.3-.11,4.89-2.72,1.42-5.67,2.37-8.7,2.84-1.24-3.84-2.41-7.9-1.53-11.94,1-4.59,3.19-8.8,5.07-13.06,3.89-1.99,7.74-4.33,9.47-8.58ZM199.1,106.66c-1.22,2.85,2.48,5.68,5.05,4.28,1.2-1.18,1.88-2.75,2.7-4.18-1.05-1.3-4.14-2.77-2.22-4.65,2.8,1.03,5.72,1.84,8.35-.11-1.9-1.33-3.91-2.87-6.37-2.71-4.05-.16-6.55,3.94-7.51,7.37Z"/>
        <path class="cls-51" d="M163.08,102.64c4.99-2.42,9.94-4.94,15.17-6.81-1.71,5-5.67,9.04-10.65,10.82-2.09-.15-3.02-2.77-4.52-4.01Z"/>
        <path class="cls-45" d="M199.1,106.66c.96-3.43,3.46-7.53,7.51-7.37,2.46-.16,4.47,1.38,6.37,2.71-2.63,1.95-5.55,1.14-8.35.11-1.92,1.88,1.17,3.35,2.22,4.65-.82,1.43-1.5,3-2.7,4.18-2.57,1.4-6.27-1.43-5.05-4.28Z"/>
        <path class="cls-55" d="M215.42,112.01c2.83-4.08,3.5-9.22,5.92-13.54,1.96,1.68,4.7,3.13,5.12,5.95.96,4.37-.96,8.61-2.53,12.59,1.28.36,2.57.72,3.86,1.08-3.35-.04-6.69.06-10.03.09-5.31-.08-10.6.29-15.89.41.22,1.29.44,2.58.66,3.89-.46-.05-1.36-.14-1.82-.18-.13-1.59-1.21-3.56.11-4.89,4.66-2.31,10.87-1.3,14.6-5.4Z"/>
        <path class="cls-21" d="M327.58,112.2c1.71-1.86,4.03-2.95,6.34-3.88,2.69,3.65,6.01,7.53,10.73,8.33,3.23-1.13,5.98-3.36,9.14-4.7-1.09,2.65-2.4,5.2-3.78,7.71,4.66-.62,9.35-1.13,13.95-2.11-10.5,5.71-21.78,9.91-32.98,14.04-7.22,2.7-14.78,4.37-21.94,7.23-14.46,5.99-30.21,7.25-45.61,8.85-23.2,2.25-46.48,4.29-69.82,3.94-23.61-.29-47.25-2.72-70.26-8.13,5.06-.23,10.2-.44,15.16.81,9.52,2.34,19.37,2.42,29.1,3.12,14.38.65,28.84,3.1,43.22,1.07,6.29-.55,9.39-6.87,14.77-9.3,6.74-3.16,14.55-3.9,21.85-2.62,4.36.68,8.78,3.59,13.19,1.63,16.38-7.1,35.31-5.41,51.3-13.7,5.76-3.33,11.03-7.49,15.64-12.29Z"/>
        <path class="cls-24" d="M201.87,118.59c5.29-.12,10.58-.49,15.89-.41-5.07,1.48-10.35,2.22-15.23,4.3-.22-1.31-.44-2.6-.66-3.89Z"/>
        <path class="cls-14" d="M324.48,141.94c7.84-2.31,15.91-4.1,23.31-7.66-.83,8.7-4.7,16.67-7.3,24.92-5.52,12.15-9.45,25.51-18.86,35.4-4.69-3.29-9.61-6.33-14.94-8.46-1.46-.58-2.91-1.15-4.36-1.71-.13.44-.38,1.31-.51,1.74-1.92,5.63-2.07,11.63-3.53,17.37-14.91-5.42-31.39-6.32-46.8-2.58-.27,1.21-.53,2.43-.79,3.66-1.97.71-4.12,1.15-5.85,2.4-.32,1.02-.46,2.09-.63,3.15-4.02,1.61-7.98,3.61-12.3,4.24-3.85-.22-7.35-2.43-11.27-2.28-7.06.09-14.05,1.87-21.12,1.23-4.15-.48-7.87-3.37-12.18-2.64-7.57,1.01-14.97,3.17-22.12,5.82,2.41,1.98,5.02,3.71,7.78,5.2-2.88,3.45-6.51,6.12-10.31,8.46,6.48,1.46,12.27,5.24,18.99,5.76,6.12.39,11.72,3.77,17.94,3.31,6.23-.38,12.41-1.43,18.55-2.51,5.75-.98,11.43-3.37,17.35-2.39,2.93.15,6.02,1.56,8.88.43,3.58-1.84,7.06-3.98,11.07-4.81,3.48-.68,6.53-2.54,9.11-4.94.99,1.29,2.03,2.56,3.06,3.84-3.98,2.48-7.58,5.62-10.27,9.49-2.42-.52-4.92-1.55-7.42-.85-4.01,1.16-7.88,3.07-12.13,3.21-8.03.32-16.07.6-24.1.14-7.9-.48-15.82,1.07-23.71-.07-6.2-.84-12.37-2.16-18.66-2.12-6.96-.22-13.78-1.83-20.64-2.91-3.65-1.09-7.28-2.23-10.98-3.11-2.06-.7-4.08-1.49-6.1-2.26-3.47-3.27-6.94-6.54-10.44-9.78-9.41-8.78-17.09-19.23-23.93-30.08-9.58-16.35-17.01-34.62-17.78-53.75,6.42,1.29,12.06,4.86,18.42,6.34,6.76,1.66,13.23,4.39,20.09,5.65,9.67,1.78,19.25,4.08,29.03,5.22,19.04,2.88,38.38,3.1,57.58,2.36,10.37.35,20.69-.98,31.05-1,7.87,0,15.52-2.18,23.36-2.66,10.66-.68,21.1-3.12,31.72-4.23,10.79-1.03,21.06-4.78,31.74-6.54ZM105.07,157.62c-2.21,2.02-1.26,5.3-.9,7.87,1.94,11.29,6.78,21.72,10.51,32.46-1.67-.54-3.35-1.07-5.03-1.58.28,2.66.56,5.41,1.86,7.81,2.44,4.81,6.97,7.97,11.19,11.08,2.16,1.53,2.76,4.36,4.69,6.1,3.76,2.75,8.3,4.16,12.79,5.22-.6.69-1.2,1.39-1.8,2.1,4.32,2.19,10.07,3.05,14-.4-4.23-3.74-10.61-5.23-12.82-10.95-2.06-3.08.38-6.19,1.46-9.09-4.17-5.82-9.27-11.62-10.29-18.98-.31-1.74,2.06-5.06,3.56-2.75,1.59,1.64,3.02,3.43,4.51,5.18,1.67-3.57,3.12-7.25,4.22-11.04-1.81-3.41-3.69-7.17-3.15-11.14.88-1.91,2.29-3.5,3.57-5.14-3.57-1.81-6.98-4.12-10.94-5.01-2.95-.69-5.93-1.19-8.89-1.81-1.9,1.24-3.68,2.86-5.94,3.36-2.37-1.24-4.23-3.2-6.16-4.99-2.17.46-4.41.78-6.44,1.7Z"/>
        <path class="cls-29" d="M105.07,157.62c2.03-.92,4.27-1.24,6.44-1.7,1.93,1.79,3.79,3.75,6.16,4.99,2.26-.5,4.04-2.12,5.94-3.36,2.96.62,5.94,1.12,8.89,1.81,3.96.89,7.37,3.2,10.94,5.01-1.28,1.64-2.69,3.23-3.57,5.14-.54,3.97,1.34,7.73,3.15,11.14-1.1,3.79-2.55,7.47-4.22,11.04-1.49-1.75-2.92-3.54-4.51-5.18-1.5-2.31-3.87,1.01-3.56,2.75,1.02,7.36,6.12,13.16,10.29,18.98-1.08,2.9-3.52,6.01-1.46,9.09,2.21,5.72,8.59,7.21,12.82,10.95-3.93,3.45-9.68,2.59-14,.4.6-.71,1.2-1.41,1.8-2.1-4.49-1.06-9.03-2.47-12.79-5.22-1.93-1.74-2.53-4.57-4.69-6.1-4.22-3.11-8.75-6.27-11.19-11.08-1.3-2.4-1.58-5.15-1.86-7.81,1.68.51,3.36,1.04,5.03,1.58-3.73-10.74-8.57-21.17-10.51-32.46-.36-2.57-1.31-5.85.9-7.87Z"/>
        <path class="cls-53" d="M301.82,186.17c.13-.43.38-1.3.51-1.74,1.45.56,2.9,1.13,4.36,1.71-1.45.04-2.89.11-4.33.22,2.24,5.49,7.08,9.4,9.14,14.98,1.25,3.21,2.72,6.34,4.6,9.25-.61-4.27-1.48-8.49-2.15-12.75,2.93,4.6,3.89,10.02,3.97,15.4.01,5.03,1.74,9.82,4.32,14.08.26-.56.78-1.69,1.04-2.25-.2,4.04.39,8.16-.54,12.14-2.68,1.38-5.61,2.15-8.46,3.04-.43.1-1.3.29-1.73.39-.42-.17-1.26-.5-1.68-.67-1.17-1.97-2.14-4.05-3.15-6.09.89-5.11-2.62-9.4-3.67-14.17-2.77-10.94-2.47-22.35-2.23-33.54Z"/>
        <path class="cls-10" d="M298.29,203.54c1.46-5.74,1.61-11.74,3.53-17.37-.24,11.19-.54,22.6,2.23,33.54,1.05,4.77,4.56,9.06,3.67,14.17-3.11-5.33-5.39-11.16-6.24-17.29-.87-4.37-.49-9.27-3.19-13.05Z"/>
        <path class="cls-8" d="M302.36,186.36c1.44-.11,2.88-.18,4.33-.22,5.33,2.13,10.25,5.17,14.94,8.46,5.94,3.94,10.67,9.39,14.03,15.66-5.7,3.38-10.19,8.52-12.38,14.81-.26.56-.78,1.69-1.04,2.25-2.58-4.26-4.31-9.05-4.32-14.08-.08-5.38-1.04-10.8-3.97-15.4.67,4.26,1.54,8.48,2.15,12.75-1.88-2.91-3.35-6.04-4.6-9.25-2.06-5.58-6.9-9.49-9.14-14.98Z"/>
        <path class="cls-5" d="M251.49,200.96c15.41-3.74,31.89-2.84,46.8,2.58,2.7,3.78,2.32,8.68,3.19,13.05.85,6.13,3.13,11.96,6.24,17.29,1.01,2.04,1.98,4.12,3.15,6.09-6.57-2.61-11.6-7.77-17.52-11.47-3.75-2.24-6.54-5.65-8.72-9.37-3.3-5.41-8.38-9.51-14.12-12.09,3.81,4.34,8.83,7.64,11.53,12.89-4.33-2.23-8.2-5.21-12.15-8.02-5.17-3.72-11.58-4.81-17.61-6.35.15.61.46,1.83.61,2.43-.71-1.14-1.46-2.26-2.19-3.37.26-1.23.52-2.45.79-3.66Z"/>
        <path class="cls-37" d="M244.85,207.02c1.73-1.25,3.88-1.69,5.85-2.4.73,1.11,1.48,2.23,2.19,3.37,3.58,5.9,7.62,11.5,11.7,17.06-2.58,2.4-5.63,4.26-9.11,4.94-4.01.83-7.49,2.97-11.07,4.81-2.86,1.13-5.95-.28-8.88-.43-5.92-.98-11.6,1.41-17.35,2.39-6.14,1.08-12.32,2.13-18.55,2.51-6.22.46-11.82-2.92-17.94-3.31-6.72-.52-12.51-4.3-18.99-5.76,3.8-2.34,7.43-5.01,10.31-8.46-2.76-1.49-5.37-3.22-7.78-5.2,7.15-2.65,14.55-4.81,22.12-5.82,4.31-.73,8.03,2.16,12.18,2.64,7.07.64,14.06-1.14,21.12-1.23,3.92-.15,7.42,2.06,11.27,2.28,4.32-.63,8.28-2.63,12.3-4.24.17-1.06.31-2.13.63-3.15Z"/>
        <path class="cls-11" d="M252.28,205.56c6.03,1.54,12.44,2.63,17.61,6.35,3.95,2.81,7.82,5.79,12.15,8.02-2.7-5.25-7.72-8.55-11.53-12.89,5.74,2.58,10.82,6.68,14.12,12.09,2.18,3.72,4.97,7.13,8.72,9.37,5.92,3.7,10.95,8.86,17.52,11.47.42.17,1.26.5,1.68.67-4.69,2.43-9.14,5.86-11.18,10.9-.95-1.75-1.87-3.5-2.68-5.29-.89-2.09-1.83-4.15-2.92-6.13-2.62-4.31-6.04-8.54-10.9-10.36-5.43-2.28-11.59-2.51-17.22-.87-1.03-1.28-2.07-2.55-3.06-3.84-4.08-5.56-8.12-11.16-11.7-17.06-.15-.6-.46-1.82-.61-2.43Z"/>
        <path class="cls-43" d="M344.02,207.59c7.31-1.04,15.19.64,20.78,5.65-.57.06-1.71.17-2.28.22-.83.08-1.66.15-2.49.24.99,3.55,3.64,7.7,1.36,11.22-1.21.11-2.42.13-3.63.18,1.05-3.84.03-7.64-2.59-10.57-1.15-1.42-2.23-3.1-3.95-3.86-3.59.51-6.91,2.52-10.62,2.19-1.82-.11-3.65-.31-5.47-.1-3.15,1.39-4.9,4.59-6.68,7.36-2.82,4.1-3.63,9.14-3.18,14.01-.49,2.46-1.21,5.05-3.07,6.85-2.66.09-5.29-.48-7.92-.73,2.85-.89,5.78-1.66,8.46-3.04.93-3.98.34-8.1.54-12.14,2.19-6.29,6.68-11.43,12.38-14.81.98-.67,1.98-1.32,2.98-1.95,1.78-.31,3.58-.54,5.38-.72Z"/>
        <path class="cls-47" d="M340.6,212.86c3.71.33,7.03-1.68,10.62-2.19,1.72.76,2.8,2.44,3.95,3.86-4.41-.05-10.54-.45-12.33,4.7,1.85,4.09,5.46,8.87,10.59,7.62.14.55.43,1.64.57,2.18-5.31-.02-11.84-.27-15.02-5.25-.6-3.72.79-7.36,1.62-10.92Z"/>
        <path class="cls-20" d="M335.13,212.76c1.82-.21,3.65,0,5.47.1-.83,3.56-2.22,7.2-1.62,10.92,3.18,4.98,9.71,5.23,15.02,5.25-.14-.54-.43-1.63-.57-2.18,1.46-.55,2.88-1.18,4.33-1.75,1.21-.05,2.42-.07,3.63-.18,2.28-3.52-.37-7.67-1.36-11.22.83-.09,1.66-.16,2.49-.24,2.75,4.12,5.23,8.73,5.02,13.84.34,8.06-4.86,15.24-11.32,19.55-2.79,1.8-5.97,3.58-9.39,3.34-2.24-.9-4.08-2.5-5.98-3.92,2.28,5,4.58,10.35,3.93,15.99-1.05,10.62-10.88,19.06-21.27,19.98-5.47.42-10.93-.37-16.4-.44-2.04-.72-3.06-3.12-4.37-4.73-3.59-4.98-4.17-11.24-4.69-17.16.17-1.5.34-3,.48-4.5.63-.17,1.9-.52,2.53-.69.09-1.07.19-2.13.31-3.18,2.04-5.04,6.49-8.47,11.18-10.9.43-.1,1.3-.29,1.73-.39,2.63.25,5.26.82,7.92.73,1.86-1.8,2.58-4.39,3.07-6.85,1.08,1.94,2.36,3.97,4.56,4.79,4.21,1.74,8.32,3.88,12.77,4.95,2.63,0,6.4-3.16,4.34-5.84-3.73-2.79-9.21-3.14-11.85-7.3-2.4-4.13-1.73-9.12-2.17-13.68-1.51,1-3.02,1.99-4.47,3.07,1.78-2.77,3.53-5.97,6.68-7.36ZM307.69,248.03c-1.77,3.04-3.74,5.98-5.25,9.17-1.74,6.25-1.52,14,3.36,18.85,2.05,2.17,5.26,4.05,8.26,2.61.63-1.25.84-2.72.17-3.99-1.67-4.53-5.05-8.51-5.41-13.46.31-4.36,3.92-7.6,4.66-11.85-.63-1.48-1.83-2.6-2.81-3.83-1.01.81-2.01,1.64-2.98,2.5ZM319.41,249.11c-2.14,3.05-2.55,7.07-2.33,10.72.04,3.42,3.78,4.37,6.19,5.83l-.11-.88c3.26.09,6.53.03,9.78-.23-.36.47-1.07,1.43-1.43,1.91,3.66,1.86,6.37-1.75,7.67-4.73,1.14-1.78-.74-3.4-1.35-4.98.62-1.53,1.25-3.06,1.9-4.57-1.08-1.14-2.12-2.33-3.39-3.26-1.58.01-3.13.42-4.65.78-.51-1.12-1.01-2.23-1.51-3.33-3.61.82-7.34,1.3-10.77,2.74Z"/>
        <path class="cls-13" d="M362.52,213.46c.57-.05,1.71-.16,2.28-.22,4.03,3.64,7.03,8.49,7.69,13.95.86,4.45-.62,8.83-2,13-.51,1.56-.86,3.17-1.19,4.77-2.94,1.62-5.87,3.27-8.81,4.88-1.71.89-3.45,1.72-5.24,2.43-1.61.4-3.26.68-4.89.95-1.16.16-2.32.31-3.47.45,3.7,9.18,1.65,20.35-5.51,27.3-8.73,9.32-25.22,10.07-34.27.83,5.47.07,10.93.86,16.4.44,10.39-.92,20.22-9.36,21.27-19.98.65-5.64-1.65-10.99-3.93-15.99,1.9,1.42,3.74,3.02,5.98,3.92,3.42.24,6.6-1.54,9.39-3.34,6.46-4.31,11.66-11.49,11.32-19.55.21-5.11-2.27-9.72-5.02-13.84Z"/>
        <path class="cls-50" d="M342.84,219.23c1.79-5.15,7.92-4.75,12.33-4.7,2.62,2.93,3.64,6.73,2.59,10.57-1.45.57-2.87,1.2-4.33,1.75-5.13,1.25-8.74-3.53-10.59-7.62ZM348.93,220.29c-1.97.39-1.06,3.49.81,2.9,1.98-.39,1.06-3.53-.81-2.9Z"/>
        <path class="cls-50" d="M328.45,220.12c1.45-1.08,2.96-2.07,4.47-3.07.44,4.56-.23,9.55,2.17,13.68,2.64,4.16,8.12,4.51,11.85,7.3,2.06,2.68-1.71,5.84-4.34,5.84-4.45-1.07-8.56-3.21-12.77-4.95-2.2-.82-3.48-2.85-4.56-4.79-.45-4.87.36-9.91,3.18-14.01ZM328.44,234.5c1.49,1.59,3.83,1.06,5.11-.51-.38-4.74-1.69-9.34-2.25-14.05-3.88,3.62-5.28,9.75-2.86,14.56Z"/>
        <path class="cls-50" d="M355.25,252.27c1.79-.71,3.53-1.54,5.24-2.43,2.48,3.85,4.54,8.54,8.88,10.62,4.94,1.52,10.22.8,15.32,1.14-.52,2.16-.06,5.08-2.31,6.36-3.49,2.16-7.79,2.41-11.78,2.28-5.67-.1-10.52-3.92-13.53-8.46-1.91-2.79-1.8-6.29-1.82-9.51Z"/>
        <path class="cls-50" d="M322.72,254.45c.95-1.88,2.94-2.96,4.86-3.61,3.25.04,6.97,1.14,7.99,4.63,1.73,3.31-.67,6.54-2.63,9.08-3.25.26-6.52.32-9.78.23-.33-3.42-1.12-6.91-.44-10.33ZM324.81,256.32c.09.67.28,2.01.38,2.68,1.12-.23,2.26-.44,3.4-.64-.27-.58-.83-1.73-1.1-2.31-.67.07-2.01.2-2.68.27Z"/>
        <path class="cls-41" d="M328.44,234.5c-2.42-4.81-1.02-10.94,2.86-14.56.56,4.71,1.87,9.31,2.25,14.05-1.28,1.57-3.62,2.1-5.11.51Z"/>
        <path class="cls-48" d="M348.93,220.29c1.87-.63,2.79,2.51.81,2.9-1.87.59-2.78-2.51-.81-2.9Z"/>
        <path class="cls-16" d="M267.65,228.89c5.63-1.64,11.79-1.41,17.22.87,4.86,1.82,8.28,6.05,10.9,10.36,1.63,6.83,1.08,14.37-2.78,20.39-5.41,9.46-18.3,14.59-28.38,9.67-2.21-1.22-4.09-2.94-6.15-4.38,2.47-.14,4.97-.79,6.21-3.11,1.55-.24,3.26-.06,4.67-.76,2.4-2.08,3.03-5.4,3.93-8.29.75-3.66.03-7.81-3.03-10.24-4.02-1.07-8.07.69-11.59,2.47.04,2.66-.88,5.17-2.37,7.36-.81-2.06-1.63-4.12-2.32-6.21.69-3.04,1.96-5.91,3.42-8.64,2.69-3.87,6.29-7.01,10.27-9.49ZM275.64,230.1c-4.98,1.11-11.62,2.36-13.35,7.93,4.65.07,9.82-1.22,13.99,1.52,3.93,2.51,4.43,7.58,6.75,11.28.83,1.78,3.44,1.75,4.78.62,3.24-3.03,4.87-8.15,2.81-12.29-2.57-5.54-8.5-10.68-14.98-9.06Z"/>
        <path class="cls-36" d="M120.41,232.39c6.39,1.12,12.97,2.16,19.33.28,3.7.88,7.33,2.02,10.98,3.11,1.95.8,3.91,1.67,5.58,2.99.99,5.64-1.35,11.31-.26,16.97,1.93.08,3.52-1.18,5.16-2.01,0,1.28.03,2.56.04,3.86-2.13.11-4.27.23-6.41.36.4,2.12.83,4.24,1.25,6.36-1.5.75-3.01,1.5-4.5,2.27-12.59-3.34-26.06-8.23-33.48-19.69.59-.07,1.76-.2,2.35-.27-.75-4.72-.85-9.52-.04-14.23Z"/>
        <path class="cls-39" d="M267.29,235.95c2.62-3.88,7.53-4.72,11.76-3.28.12,1.03.24,2.07.37,3.12-4.05.06-8.09.24-12.13.16Z"/>
        <path class="cls-27" d="M150.72,235.78c6.86,1.08,13.68,2.69,20.64,2.91,6.29-.04,12.46,1.28,18.66,2.12,7.89,1.14,15.81-.41,23.71.07,8.03.46,16.07.18,24.1-.14,4.25-.14,8.12-2.05,12.13-3.21,2.5-.7,5,.33,7.42.85-1.46,2.73-2.73,5.6-3.42,8.64-1.61,5.85-.89,12.22,2.05,17.54,1.1,1.99,2.31,3.92,3.7,5.73-20.08,3.98-40.7,3.92-61.09,3.32-15.79-1.33-31.7-2.81-47.04-7.03,1.49-.77,3-1.52,4.5-2.27-.42-2.12-.85-4.24-1.25-6.36,2.14-.13,4.28-.25,6.41-.36-.01-1.3-.03-2.58-.04-3.86-1.64.83-3.23,2.09-5.16,2.01-1.09-5.66,1.25-11.33.26-16.97-1.67-1.32-3.63-2.19-5.58-2.99Z"/>
        <path class="cls-34" d="M295.77,240.12c1.09,1.98,2.03,4.04,2.92,6.13.17,3.05.08,6.11-.16,9.16-.14,1.5-.31,3-.48,4.5-2.19,7.56-8.17,13.95-15.69,16.37-7.93,2.39-16.92-.04-22.65-5.99-1.39-1.81-2.6-3.74-3.7-5.73.61.31,1.84.93,2.45,1.24,2.06,1.44,3.94,3.16,6.15,4.38,10.08,4.92,22.97-.21,28.38-9.67,3.86-6.02,4.41-13.56,2.78-20.39Z"/>
        <path class="cls-56" d="M368.31,250.24c.39-3.18,3.16-5.29,6.25-5.52,2.69.77,5.2,2.45,6.86,4.71,1.52,2.09.51,4.69.17,6.98-2.91-.19-5.36-1.62-7.17-3.84,1.17-.96,2.33-1.92,3.51-2.86-2.57-3.15-6.4.71-9.62.53Z"/>
        <path class="cls-6" d="M298.69,246.25c.81,1.79,1.73,3.54,2.68,5.29-.12,1.05-.22,2.11-.31,3.18-.63.17-1.9.52-2.53.69.24-3.05.33-6.11.16-9.16Z"/>
        <path class="cls-4" d="M307.69,248.03c.97-.86,1.97-1.69,2.98-2.5.98,1.23,2.18,2.35,2.81,3.83-.74,4.25-4.35,7.49-4.66,11.85.36,4.95,3.74,8.93,5.41,13.46.67,1.27.46,2.74-.17,3.99-3,1.44-6.21-.44-8.26-2.61-4.88-4.85-5.1-12.6-3.36-18.85-.15,3.3,0,6.62.18,9.93.76.07,2.27.2,3.03.26.06-6.84,2.19-13.39,6.04-19.02-1.34-.11-2.67-.23-4-.34Z"/>
        <path class="cls-2" d="M319.41,249.11c3.43-1.44,7.16-1.92,10.77-2.74.5,1.1,1,2.21,1.51,3.33-1.38.34-2.76.71-4.11,1.14-1.92.65-3.91,1.73-4.86,3.61-.68,3.42.11,6.91.44,10.33l.11.88c-2.41-1.46-6.15-2.41-6.19-5.83-.22-3.65.19-7.67,2.33-10.72Z"/>
        <path class="cls-44" d="M256.01,264.56c-2.94-5.32-3.66-11.69-2.05-17.54.69,2.09,1.51,4.15,2.32,6.21.47,1.25.93,2.51,1.39,3.78.73.55,1.45,1.1,2.17,1.67,1.66,1.28,3.24,2.63,4.83,4.01-1.24,2.32-3.74,2.97-6.21,3.11-.61-.31-1.84-.93-2.45-1.24Z"/>
        <path class="cls-17" d="M259.84,258.68c.65-4.01.55-10.5,5.78-11.25,3.15,1.01,5.16,4.14,7.65,6.21-.9,2.89-1.53,6.21-3.93,8.29-1.41.7-3.12.52-4.67.76-1.59-1.38-3.17-2.73-4.83-4.01ZM265.34,255.06c1.5.01,3,.02,4.5.02-.52-.92-1.07-1.81-1.65-2.68-1.78-.76-2,1.66-2.85,2.66Z"/>
        <path class="cls-32" d="M307.69,248.03c1.33.11,2.66.23,4,.34-3.85,5.63-5.98,12.18-6.04,19.02-.76-.06-2.27-.19-3.03-.26-.18-3.31-.33-6.63-.18-9.93,1.51-3.19,3.48-6.13,5.25-9.17Z"/>
        <path class="cls-23" d="M331.69,249.7c1.52-.36,3.07-.77,4.65-.78,1.27.93,2.31,2.12,3.39,3.26-.65,1.51-1.28,3.04-1.9,4.57.61,1.58,2.49,3.2,1.35,4.98-1.3,2.98-4.01,6.59-7.67,4.73.36-.48,1.07-1.44,1.43-1.91,1.96-2.54,4.36-5.77,2.63-9.08-1.02-3.49-4.74-4.59-7.99-4.63,1.35-.43,2.73-.8,4.11-1.14Z"/>
        <path class="cls-15" d="M265.34,255.06c.85-1,1.07-3.42,2.85-2.66.58.87,1.13,1.76,1.65,2.68-1.5,0-3,0-4.5-.02Z"/>
        <path class="cls-19" d="M324.81,256.32c.67-.07,2.01-.2,2.68-.27.27.58.83,1.73,1.1,2.31-1.14.2-2.28.41-3.4.64-.1-.67-.29-2.01-.38-2.68Z"/>
        <path class="cls-42" d="M351.07,263.76c2.22,1.4,4.27,3.04,6.34,4.66,6.12,5.15,14.74,6.45,22.45,5.17,5.11-.77,9.13-4.18,13.14-7.15-.05.48-.15,1.44-.21,1.92-1.61,5.75-6.85,10.01-12.53,11.4-11.89,3.13-25.42-4.29-29.19-16Z"/>
      </g>
    </g>
  </g>
</svg>