<?xml version="1.0" encoding="UTF-8"?>
<svg xmlns="http://www.w3.org/2000/svg" version="1.1" xmlns:xlink="http://www.w3.org/1999/xlink" viewBox="0 0 357.74 215.37">
  <defs>
    <style>
      .cls-1 {
        fill: #7f973b;
      }

      .cls-2 {
        fill: #406eb6;
      }

      .cls-3 {
        fill: #191919;
      }

      .cls-4 {
        fill: none;
      }

      .cls-5 {
        fill: #e0ba24;
      }

      .cls-6 {
        fill: #f7b3c1;
      }

      .cls-7 {
        fill: #bb9f30;
      }

      .cls-8 {
        fill: #85bb41;
      }

      .cls-9 {
        fill: #8dc440;
      }

      .cls-10 {
        fill: #8dc63f;
      }

      .cls-11 {
        fill: #c2292e;
      }

      .cls-12 {
        fill: #6f0e10;
      }

      .cls-13 {
        clip-path: url(#clippath);
      }

      .cls-14 {
        fill: #9ec03b;
      }
    </style>
    <clipPath id="clippath">
      <rect class="cls-4" x="31.17" y="25.48" width="293.84" height="164.39"/>
    </clipPath>
  </defs>
  <!-- Generator: Adobe Illustrator 28.7.0, SVG Export Plug-In . SVG Version: 1.2.0 Build 136)  -->
  <g>
    <g id="Layer_1">
      <g class="cls-13">
        <path class="cls-3" d="M63.68,127.17c-.24.53-.34,1.08-.28,1.68-.13.4.56,1.18.82.58-.15-.71-.08-1.75-.54-2.25M72.01,125.13c.41,2.56.9,5.1,1.21,7.68.77.14,1.55.28,2.33.43-.85-2.81-1.54-5.88-3.54-8.1M67.25,125.43c.08,1.89.24,3.78.18,5.68.66.24,1.31.47,1.98.69-.54-2.15-.6-4.72-2.16-6.38M76.59,123.23c.88,3.47,1.88,6.92,2.52,10.45,1,.03,1.99.07,2.99.1-.86-3.01-2.26-5.84-3.86-8.52-.45-.75-.92-1.52-1.65-2.03M82,121.21c1.84,3.96,3.5,8.01,4.77,12.19,1.05.38,2.27-.17,3.38-.19-1.47-3.93-3.75-7.53-6.43-10.74-.5-.5-.91-1.26-1.71-1.27M88.57,115.33c.13,1.28.84,2.39,1.34,3.55,1.91,4.29,3.66,8.67,4.81,13.22,1.34-.28,2.64-.7,3.94-1.12-2.11-5.89-5.7-11.22-10.08-15.66M94.19,110.77c.46,1.32,1.43,2.36,2.21,3.48,3.15,4.45,6.15,9.04,8.62,13.9,1.53-.71,2.97-1.57,4.4-2.45-4.11-5.83-9.18-11.11-15.24-14.94M101.82,102.84c4.54,6.3,8.92,12.75,12.34,19.74,1.37-1.08,2.73-2.17,4.1-3.24-3.62-5.92-8.57-10.96-14.09-15.13-.72-.56-1.49-1.08-2.35-1.37M109.91,94.83c.33,1.09,1.1,1.95,1.76,2.86,4.08,5.63,7.82,11.54,10.77,17.84,1.35-1.24,2.71-2.46,4.1-3.66-4.27-6.76-9.95-12.63-16.62-17.04M117.79,87.12c4.63,6.85,9.62,13.58,12.81,21.28,1.28-.78,2.45-1.73,3.66-2.62.41-.28.97-.74.51-1.25-3.32-5.45-7.63-10.28-12.55-14.33-1.42-1.1-2.78-2.33-4.44-3.08M125.99,79.24c.16,1.13,1.02,1.96,1.64,2.87,4.53,6.3,8.74,12.91,11.64,20.13,1.61-1.1,3.3-2.07,4.87-3.23-4.46-7.85-10.64-14.75-18.16-19.78M133.54,71.19c.71,1.5,1.85,2.73,2.78,4.1,4.61,6.71,9.25,13.63,11.57,21.51,1.84-.93,3.59-2.02,5.44-2.94-.73-1.92-1.84-3.67-2.89-5.43-4.33-6.84-10.06-12.87-16.89-17.25M150.53,60.03c4.03,5.62,8.05,11.29,11.2,17.47,1.66,3.26,3.14,6.69,3.65,10.34,2.1-.9,4.21-1.79,6.28-2.74-4.19-9.8-11.17-18.37-19.92-24.46-.3-.15-.91-.46-1.21-.61M160.28,56.83c1.94,3.28,4.41,6.23,6.39,9.49,3.37,5.45,6.88,11.06,8.13,17.44,2.11-.64,4.13-1.56,6.21-2.31-4.31-9.97-11.6-18.72-20.73-24.62M171.03,55.05c.4,1.3,1.38,2.28,2.13,3.38,4.77,6.73,9.27,13.77,11.99,21.61,1.87-.81,3.83-1.34,5.73-2.07-4.38-9.24-11.31-17.3-19.84-22.93M181.73,53.71c.38,1.55,1.61,2.66,2.44,3.96,4.11,5.98,8.2,12.11,10.69,18.97,1.98-.4,3.9-1.02,5.8-1.69-4.47-8.47-10.9-15.98-18.93-21.25M191.06,49.72c5.69,7.48,11.82,14.89,15.26,23.75,2-.52,4-1.04,6.01-1.52-2.17-4.45-5.19-8.44-8.52-12.08-3.76-3.92-7.92-7.61-12.75-10.15M200.5,46.17c5.56,6.68,11.05,13.5,15.07,21.24.58-1.14,1.19-2.26,1.85-3.35-.7-2.07-.43-4.63-2.14-6.24-3.34-3.7-7.14-7-11.31-9.73-1.1-.74-2.2-1.5-3.47-1.92M204.44,35.95c.53.7,1.1,1.38,1.73,2,3.83,3.82,7.23,8.08,9.9,12.8.22-1.72.55-3.43,1.15-5.07-3.27-4.3-7.76-7.73-12.79-9.73M213.58,30.27c2.16,3.39,4.81,6.47,6.7,10.05.79-.74,1.6-1.47,2.39-2.2-2.39-3.22-5.49-6.05-9.09-7.85M222.36,27.52c.15.79.7,1.39,1.19,1.99,1.53,1.8,2.96,3.67,4.3,5.61,1.05-.29,2.08-.62,3.1-1-2.49-2.64-5.35-4.97-8.59-6.61M243.8,26.11c.42,1.23,1.35,2.16,2.11,3.19,2.23,3.06,4.37,6.21,5.99,9.65,1.14-.44,2.56-.45,3.51-1.24-2.7-4.82-6.82-8.85-11.61-11.6M232.66,26.12c1.33,2.69,3.55,4.85,5.04,7.47,1.49.26,2.98.59,4.45.96-2.54-3.42-5.8-6.31-9.49-8.43M231.58,25.52c.5-.07.98.05,1.4.33,3.67,2.14,6.9,5.02,9.45,8.42.58.87,1.62,1.19,2.49,1.69,1.88.99,3.51,2.36,5.09,3.76.53-.21,1.05-.41,1.58-.62-2.31-4.77-5.55-9.01-8.74-13.2-.37-.63.68-.38.95-.22,3.92,2.18,7.33,5.26,10.01,8.85.83,1.08,1.47,2.3,2.38,3.32,2.08-4.58,5.7-8.73,10.6-10.29.2,0,.59,0,.78,0-4.7,1.66-8.7,5.2-10.65,9.83,1.37-.37,2.74-.78,4.15-.99-3.46,1.59-7.35,2.04-10.78,3.73,2.49,2.39,4.44,5.26,6.03,8.31-3.1-5.2-7.09-10.21-12.69-12.84-4.8-2.33-10.52-2.14-15.4-.13-4.82,1.76-9.01,5.48-10.75,10.38-2.25,6.09-1.24,12.72.22,18.86-3.97,5.74-5.62,12.79-6.26,19.66-.05-.19-.13-.58-.18-.77.1-3.94,1.12-7.78,2.3-11.53-17.9,4.25-35.44,10.15-52.05,18.08-13.68,6.6-26.8,14.63-38,24.94-5.25,5.06-11.03,9.62-17.49,13.04-3.6,1.84-7.36,3.44-11.29,4.45-3.74.96-7.59,1.57-11.45,1.58-3.77.11-7.54-.33-11.2-1.22-4.41-1.04-8.64-2.76-12.56-4.99-3.29-1.89-6.35-4.17-9.12-6.74-3.77-3.55-7.02-7.7-9.33-12.35-1.81-3.59-2.82-7.58-2.82-11.61.1-3.26.45-6.52,1.29-9.68,1.06-3.99,2.87-7.77,5.2-11.18,1.41-1.89,2.96-3.67,4.68-5.29,2.91-2.74,6.28-4.96,9.87-6.7,1.98-.94,4.02-1.75,6.1-2.43,3.84-1.25,7.81-2.01,11.81-2.49,3.17-.31,6.37-.49,9.56-.46,1.81.01,3.63.22,5.44-.02-5.61-1.79-11.44-2.94-17.33-3.24-4.61-.28-9.26.07-13.75,1.12-2.88.67-5.69,1.69-8.32,3.04-3.7,1.91-7.01,4.52-9.79,7.61-2.41,2.69-4.39,5.75-6,8.98-1.89,3.84-3.31,7.91-4.29,12.07-1.02,4.41-1.37,8.98-1.04,13.49.33,4.36,1.38,8.64,3,12.7,2.48,6.22,6.35,11.82,10.94,16.67,2.83,2.99,6,5.67,9.33,8.09,2.18,1.5,4.32,3.23,6.91,3.98,3.14.94,6.34,1.72,9.56,2.34,3.74.7,7.53,1.2,11.33,1.47,4.67.37,9.4.37,14.04-.3,3.6-.41,6.82-2.23,10.36-2.9.06-.25.17-.75.24-1.01.12.17.37.5.5.67,5.27-.86,10.55-1.69,15.89-1.91,1.13-.13,2.44.12,3.38-.68,2.63-1.98,5.58-4.08,8.97-4.24-3.96,1.16-7.64,3.23-10.56,6.16-5.8,5.71-9.33,13.27-11.81,20.91-.67,1.79.39,3.64,1.73,4.78,2.83,2.42,6.5,3.48,10.04,4.41,2.92.76,5.9,2.13,7.67,4.69,1,1.35,1.35,3.02,1.71,4.63.93,0,1.86.02,2.79.05.32-3.11-.53-6.15-1.78-8.96,6.32,1.02,12.79,3.32,17.19,8.18,1.23-1.26,2.9-1.76,4.64-1.53-2.3-5.34-8.1-7.48-13.01-9.69,6.41-.82,13.15-.01,18.83,3.21.56-1.51,1.57-2.79,2.84-3.76-4.48-3.82-10.57-4.7-16.25-4.99-3.06-.04-6.11-.7-9.17-.24,1.98-1.05,4.29-.4,6.41-.26.06-.96.48-2.05-.11-2.93-.7-.97-1.95-1.27-3.06-1.48-4.42-.57-8.9-.45-13.33-.14,6.16-3.24,12.25-6.81,17.32-11.63,2.24-2.22,4.46-4.82,4.93-8.05.33-2.55-1.28-4.83-3.16-6.38-3.74-3.32-8.73-4.94-13.68-5.13-2.33-.14-4.63.35-6.96.37,6.41-1.64,13.66-.67,19.16,3.11,2.11,1.55,4.37,3.42,4.93,6.12.52,2.42-.65,4.75-1.84,6.77,1.5.16,3.01.34,4.51.5-.28.05-.86.14-1.14.18-1.21-.06-2.41-.21-3.62-.35-1.23,1.5-2.59,2.9-3.95,4.28,9.03,4.17,19.07,6.34,29.03,5.64,8.44-.55,16.71-3.17,23.97-7.48.93-.55,1.89-1.03,2.86-1.48-1.2-3.47-1.96-7.11-1.83-10.79,0-.09,0-.26.01-.34.15-4.94,1.39-9.82,3.37-14.33,2.18-4.89,6.07-9.66,11.59-10.7-1.69.97-3.63,1.5-5.16,2.77-4.09,3.15-6.4,8.01-7.84,12.85-1.94,6.34-2.35,13.34-.01,19.63,2.19,6.04,6.68,10.85,11.27,15.19,1.7,1.74,2.58,4.18,4.62,5.62,2.42,1.85,5.61,1.94,8.53,1.87,3.74-.08,6.89,2.35,9.52,4.75,1.16-.48,2.37-.8,3.62-.96-1.2-2.41-3.06-4.45-5.33-5.9-1.92-1.37-4.19-2.11-6.23-3.27,2.9.13,5.7,1,8.4,2.01,3.97,1.5,7.78,3.4,11.51,5.42.93-.82,1.98-1.49,3.11-1.98-3.28-3.74-8.05-5.43-12.6-7.03,5.05-.32,10.14.2,15.02,1.53.51-1.2,1.32-2.22,2.36-3.01-2.59-1.4-5.45-2.14-8.34-2.61-2.6-.61-5.23-1.02-7.87-1.38,2.57-.35,5.08.49,7.6.88-.59-2.86-3.16-4.56-5.83-5.22l.54-.04c2.79.31,5.24,2.62,5.66,5.43,3.42.55,6.98,1.37,9.73,3.61,1.58,1.27,2.51,3.25,2.35,5.3-5.82-3.16-12.52-4.29-19.08-4.22,3.14,1.31,6.42,2.53,9.02,4.81,2.28,1.9,4.14,4.61,4.14,7.68-7.29-4.15-14.68-8.55-22.93-10.4,2.32,1.42,4.87,2.6,6.72,4.68,2.67,2.75,4,6.92,2.74,10.63-3.12-4.42-6.94-9.18-12.54-10.31-3.2-.17-6.67.24-9.49-1.62-2.41-1.37-3.4-4.1-5.21-6.04-4.38-4.08-8.54-8.63-10.94-14.18-2.14.93-4.04,2.29-6.15,3.28-7.53,3.81-15.94,5.82-24.38,5.84-8.93.03-17.8-2.12-25.88-5.88-4.35,3.76-9.3,6.73-14.33,9.46,3.9-.2,7.82-.22,11.7.29,1.24.21,2.65.62,3.31,1.8.52.93.17,2.01,0,2.98,4.51.13,9.11.47,13.4,1.99,2.52.92,4.99,2.33,6.56,4.57,1.6,2.27,2.05,5.34,1.05,7.94-5.12-6.89-14.38-9.12-22.57-8.26,4.27,1.87,8.99,3.93,11.36,8.2,1.67,2.98.68,6.67-1.42,9.16-.9-2.39-1.96-4.79-3.78-6.62-4.15-4.31-10.04-6.42-15.82-7.45,1.05,2.48,1.84,5.16,1.54,7.88-.31,3.21-2.19,6.18-4.9,7.91,1.05-3.07,1.97-6.47.82-9.65-1.15-3.47-4.54-5.58-7.91-6.49-3.69-.98-7.54-1.99-10.56-4.44-1.46-1.19-2.72-3.09-2.19-5.04,1.51-4.93,3.58-9.7,6.2-14.14-11.61,1-23.31,1.44-34.92.25-2.07-.2-4.12-.56-6.2-.69.08-.05.25-.16.33-.21,2.42-.03,4.8.5,7.2.67,11.23.97,22.57.67,33.77-.48,1.95-2.63,3.88-5.3,6.27-7.57-6.53.29-13.07.92-19.42,2.49-3.22.76-6.2,2.36-9.5,2.76-8.62,1.27-17.41.39-25.94-1.17-2.35-.37-4.61-1.26-7-1.36l.03-.38c-.86-.66-.93,1.06-.03.38,4.12,2.69,9.21,3.1,13.83,4.49l.38.13c-4.44-.54-8.84-1.68-12.97-3.41-7.89-3.55-14.94-8.88-20.81-15.21-7.09-7.66-12.21-17.44-13.16-27.93-.73-7.43.59-14.97,3.26-21.91,3.01-8.12,8.28-15.64,15.78-20.17,8.54-5.25,19.02-6.26,28.8-5.05,5.46.74,10.94,1.88,16.04,4.03-12.44-1.08-25.55-.32-36.85,5.47-8.51,4.29-15.38,11.94-18.13,21.13-1.96,6.67-2.53,14.15.38,20.64,3.87,8.89,11.11,16.05,19.46,20.81.27-1.04.36-2.16,1.01-3.05.66,1.54-.47,4.09,1.79,4.51.17-1.44.23-2.89.34-4.34,1.33,1.3,1.09,3.44,1.51,5.15.75.33,1.5.65,2.25.98.21-2.59-.22-5.17-.31-7.75.83.46,1.08,1.42,1.42,2.24.81,2.05,1.32,4.2,1.69,6.38,1,.28,1.99.52,2.99.78-.34-3.15-1.02-6.25-1.6-9.36.51.21.92.59,1.18,1.09,1.65,2.74,2.8,5.74,3.55,8.84.92.12,1.84.24,2.75.36-.71-3.94-1.78-7.81-2.94-11.65.48-.05.85.13,1.1.54,2.49,3.32,4.29,7.1,5.65,11.01,1.07.54,2.57.03,3.79.16-.76-3.53-2.25-6.85-3.66-10.15-.52-1.36-1.45-2.59-1.61-4.07.5.29,1,.59,1.4,1.01,3.52,3.61,6.24,7.95,8.16,12.61,1.28-.24,2.55-.52,3.8-.9-1.64-6.18-4.33-11.99-6.88-17.83.63.15,1.21.45,1.64.96,4.31,4.42,7.65,9.75,9.95,15.47,1.91-.75,3.79-1.55,5.62-2.47-3.28-6.42-7.49-12.3-11.69-18.14.97-.29,1.76.39,2.49.9,5.49,3.94,10.39,8.76,14.16,14.38,1.46-.77,2.81-1.72,4.11-2.74-3.32-6.88-7.59-13.26-12.15-19.38-.28-.38-.47-.81-.56-1.27.64.17,1.29.37,1.84.77,6.19,4.31,11.57,9.8,15.65,16.15,1.22-1.01,2.4-2.07,3.54-3.16-3.39-7.76-8.46-14.6-13.24-21.51.68.06,1.39.17,1.94.63,6.38,4.41,11.84,10.11,16.02,16.64,1.17-.97,2.34-1.92,3.52-2.87-2.88-6.8-7-12.98-11.27-18.96-.74-1.12-1.81-2.09-2.16-3.42.59.16,1.22.32,1.73.69,6.77,4.68,12.57,10.79,16.8,17.86,1.15-.81,2.3-1.61,3.46-2.41-3.23-8.57-8.66-16.07-13.94-23.46-.31-.82.96-.31,1.28-.07,7.57,5.07,13.81,12.02,18.26,19.96,1.01-.63,2.03-1.25,3.06-1.86-2.86-9.77-9.14-18.02-14.91-26.24.64-.04,1.3.02,1.82.45,8.19,5.63,14.9,13.39,19.26,22.33.7-.35,1.39-.71,2.09-1.06.02-.72.03-1.44.16-2.15.14.61.25,1.22.37,1.84,2.11-1.07,4.24-2.11,6.36-3.15-3.47-8.51-9.08-16.11-16.12-22-1.61-1.32-3.21-2.69-5.08-3.63,3.91,5.76,8.06,11.4,11.17,17.65,1.36,2.82,2.81,5.71,3.2,8.86l-.17.03c-2.21-8.48-7.27-15.82-12.19-22.94-.89-1.46-2.33-2.64-2.78-4.33.68.18,1.36.41,1.92.84,9,6.29,16.27,15.12,20.37,25.33.66-.27,1.32-.54,1.98-.81-.36-3.51-1.81-6.79-3.35-9.92-3.32-6.52-7.5-12.56-11.87-18.41.6-.41,1.26-.1,1.78.29,8.62,5.92,15.63,14.2,19.91,23.74.21.41.43.82.66,1.22.79-.37,1.59-.74,2.39-1.09-1.56-7.13-5.59-13.37-9.5-19.41-1.75-2.74-3.81-5.27-5.58-7.99.64-.48,1.36.17,1.91.49,8.73,6.06,15.8,14.54,20.02,24.31,1.1-.38,2.2-.77,3.3-1.17-2.47-7.94-7.23-14.9-11.94-21.65-.82-1.34-2.09-2.43-2.66-3.91.7-.28,1.35.26,1.91.61,8.24,5.74,15,13.62,19.27,22.72,1.1-.35,2.2-.7,3.31-1.03-2.4-6.65-6.33-12.6-10.3-18.4-1.22-1.87-2.75-3.54-3.82-5.5,1.3-.06,2.26.89,3.26,1.59,7.26,5.32,13.24,12.35,17.34,20.36,1.64-.46,3.28-.9,4.93-1.36-3.55-9.09-9.9-16.67-15.8-24.3.71-.06,1.42.1,2,.52,6.64,4.14,12.47,9.61,16.94,16.04,1.47,1.88,2.42,4.15,3.86,6.02.2-.07.61-.22.82-.3.53-1.16.95-2.38,1.53-3.52-3.82-8.16-9.71-15.11-15.46-21.95-.13-.92,1.18-.2,1.58-.02,5.56,3.23,10.58,7.4,14.8,12.26-.67-2.86.48-6.08-1.26-8.66-2.29-4.09-5.42-7.65-8.63-11.04-.97-1.06-2.13-1.97-2.91-3.19,1.41.01,2.63.75,3.84,1.37,3.9,2.06,7.34,4.95,10.13,8.36.69-1.61,1.58-3.13,2.67-4.5-1.98-3.45-4.29-6.7-6.77-9.8-.35-.46-.79-.92-.59-1.54,4.08,1.88,7.5,5,10.3,8.48,1.44-.94,2.93-1.8,4.51-2.49-1.79-2.62-3.8-5.08-5.88-7.48-.32-.34-.51-.75-.55-1.2,4,1.38,7.23,4.33,10.2,7.24,1.91.08,3.95-.55,5.94-.3-1.53-2.3-3.12-4.56-4.86-6.7-.32-.42-.72-.83-.8-1.37"/>
        <path class="cls-3" d="M248.83,129.03c2.63-1.63,5.82-2.29,8.89-2.07,2.43.15,4.72,1.75,5.45,4.12,3.27.18,6.79.37,9.58,2.29,1.42.96,2.31,2.55,2.45,4.25-5.5-2.14-11.49-2.05-17.27-1.54.21.17.64.49.86.66-1.05-.04-2.11-.05-3.08-.46,4.41-.99,8.98-1.03,13.47-.6.41-1.05.96-2.04,1.61-2.95-4.82-1.7-10.03-1.26-15.06-1.44,2.31-.63,4.71-.3,7.07-.23-.73-1.65-2.07-3.06-3.86-3.48-3.36-.78-6.92.12-9.9,1.75l-.2-.28Z"/>
        <path class="cls-3" d="M258.86,136.73c3.14.41,6.19,1.69,8.7,3.63,1.74,1.31,3.03,3.24,3.39,5.4-6.94-2.62-13.96-5.78-21.45-6.2,3.04,1.17,6.24,2.53,8.21,5.27,1.57,2.02,2.14,4.65,1.79,7.17-2.84-3.12-6.12-6.14-10.26-7.35-3.07-.97-6.18.6-9.29.06l.1-.31c2.02.16,4.03-.14,6.03-.4,3.24-.35,6.18,1.37,8.8,3.06.77-.38,1.56-.73,2.35-1.08.74-.05.34-.82.06-1.1-2.66-3.34-6.9-4.72-10.88-5.7,1.83-.44,3.71-.1,5.54.14,4.55.74,8.93,2.26,13.27,3.77.73-.78,1.54-1.49,2.42-2.11-2.39-2.37-5.77-3.03-8.77-4.25"/>
        <path d="M222.76,128.74c-1.17,3.4-2.9,6.61-5.21,9.38,1.59,1.75,3.08,3.59,4.59,5.42,2.45-2.42,4.1-5.49,5.54-8.58,1.79-3.89,3.22-7.93,4.47-12.03-3.15,1.91-6.13,4.08-9.39,5.81M270.13,26.71c5.07-.78,10.56-.1,14.89,2.82,3.1,2.02,5.44,5,7.15,8.24,10.9,4.63,19.21,13.48,26.51,22.53,3,3.74,4.51,8.9,3,13.58-1.91,6.08-6.86,10.63-12.05,14.03,4.37,1.66,8.95,3.22,12.56,6.31,1.86,1.58,3.28,4.01,2.69,6.52-.77,3.14-3.01,5.64-5.29,7.81-3.49,3.2-7.61,5.92-12.3,6.92-8.03,1.85-16.32,1.88-24.43,3.15-9.58,1.58-18.61,5.54-28.24,6.92-4.79.71-9.68.68-14.47-.05,1.45,1.22,2.62,2.8,4.31,3.71,1.43.78,3.06.29,4.57.1-1.77.97-4.13.87-5.71-.44-1.69-1.29-2.97-3.29-5.14-3.83-1.93-.5-3.83-1.1-5.66-1.9-1.19,3.45-2.27,6.95-3.79,10.28-.24.63-.63,1.25-.63,1.95,2.15,2.14,5.06,3.39,6.94,5.82,1.26,1.6,3.04,2.69,5,3.22-2.13.12-3.91-1.5-5.24-2.99-1.9-2.45-4.81-3.73-7.01-5.84-1.38,2.93-3.05,5.76-5.26,8.14.29,1.11,1.46,1.98,2.1,3,1.75,2.08,2.91,5.13,5.85,5.77,2.34.71,4.37-1.02,6.64-1.21,2.03-.25,4.15-.44,6.16.13l-.54.03c-2.79-.13-5.68-.21-8.3.9-1.57.64-3.37.85-4.96.16-1.5-.6-2.49-1.94-3.38-3.22-2.74-3.95-5.9-7.56-8.98-11.25,2.02-2.23,3.57-4.86,4.66-7.66.35-.75.53-1.69,1.3-2.14,2.87-1.76,5.85-3.38,8.46-5.53-6.82-3.32-12.33-9.07-15.62-15.87-3.46-7.18-5.25-15.26-4.64-23.24.04.19.13.58.18.77-.27,8.38,1.67,16.85,5.73,24.19,3.67,6.6,9.55,12,16.61,14.76,7.41,2.95,15.69,2.93,23.44,1.47,6.2-1.17,12.17-3.28,18.27-4.85,1.76-.61,3.49-1.35,5.4-1.34,6.95-1.15,14-1.45,20.96-2.42,4.08-.61,8.28-1.36,11.83-3.58,3.83-2.34,7.42-5.31,9.78-9.18,1.26-2,1.72-4.71.35-6.78-1.85-2.87-5.02-4.49-8.01-5.92-1.54-.62-3.04-1.58-4.76-1.5-.73-.38-1.47-.75-2.19-1.13,4.59-3.05,9.03-6.73,11.52-11.76,1.69-3.32,2.1-7.33.8-10.86-1.18-3.53-3.81-6.26-6.16-9.05-5.68-6.61-12.09-12.83-19.9-16.88-8.26-4.37-17.94-5.66-27.14-4.29-2.34.23-4.6,1.09-6.97,1.03,7.21-1.76,14.77-2.53,22.12-1.18,2.9.49,5.7,1.41,8.46,2.4-2.33-4.57-6.39-8.38-11.36-9.86-3.99-1.26-8.26-1.04-12.31-.2.54-.63,1.46-.54,2.21-.71"/>
        <path d="M230.98,44.44c-3.62,2.37-5.94,6.33-7.02,10.45-1.56,6.17-.61,12.93,2.5,18.47,2.1,3.68,5.27,6.95,9.3,8.46.27-.19.82-.55,1.09-.74l-.27-.18.67.07c-4.95-3.68-6.77-10.91-4.17-16.49,1.13-2.48,3.46-4.58,6.27-4.78,2.84-.29,5.52,1.32,7.24,3.48,3.05,3.78,3.75,9.16,2.08,13.68.19-.01.56-.03.75-.05.85-.17,2.08.3,2.59-.62,4.37-6.86,4.23-15.95.74-23.15-2.13-4.35-5.7-8.21-10.32-9.9-3.75-1.4-8.13-.92-11.46,1.31M233.54,42.81c3.91-1.46,8.4-.79,11.9,1.42,5.25,3.24,8.55,9.02,9.72,14.98,1.22,5.92.24,12.27-2.96,17.43,2.29-.06,4.54.43,6.81.71-5.9-.82-12.11-.62-17.7,1.62-4.42,1.71-8.12,5.02-10.37,9.18.94-2.37,2.71-4.27,4.46-6.07-5.16-2.2-8.94-6.88-10.85-12.07-2.2-5.97-2.3-12.84.33-18.69,1.69-3.77,4.69-7.11,8.66-8.52"/>
        <path d="M309.43,63.96c1.5-1.07,3.66-1.35,5.17-.13,1.58,1.32,3.05,3.06,3.3,5.18-.73-2.13-2.13-4.07-4.04-5.28-1.41-.86-3.02-.26-4.43.23"/>
        <path d="M312.05,65.72c-.5,1.95,1.02,4.51,3.12,4.56,1.15-1.88-1.05-4.55-3.12-4.56M311.94,65.66c1.67-.67,3.08,1.16,3.67,2.52.56.91.26,2.83-1.16,2.39-1.79-.68-3.54-3.04-2.51-4.91"/>
        <path d="M296.21,74.27c1.18-1.13,2.71-1.88,4.35-2.06,2.28.03,4.15,1.59,5.45,3.33.98,1.23,1.84,2.62,2.09,4.2-1.13-2.78-2.97-5.55-5.76-6.86-2.11-1.04-4.39.18-6.13,1.39"/>
        <path d="M300.42,76.54c-.73,2.2,1.18,4.71,3.28,5.28,1.41-.26.86-2.05.39-2.93-.71-1.25-2.07-3.01-3.67-2.35M300.28,76.33c.71-.68,1.75-.13,2.41.36,1.28,1.03,2.35,2.63,2.21,4.33-.02.99-1.29,1.35-2.03.89-1.52-.81-2.67-2.37-2.96-4.07-.01-.5-.08-1.18.38-1.5"/>
        <path d="M286.28,98.57c6.36-1.57,12.53-3.94,18.19-7.25-1.29,1.45-3.21,1.99-4.79,3.02.13.23.39.7.53.94-.5-.21-.99-.42-1.48-.62-3.76,1.71-7.71,2.9-11.65,4.12,3.38.33,6.89.8,9.84,2.62-4.49-2.16-9.8-3-14.64-1.61-7.7,1.67-15.58,2.01-23.41,2.42,9.33,1.04,18.76,2.23,27.68,5.3,4.07,1.24,8.46.56,12.42-.74,3.23-1.09,6.31-2.66,9-4.76-.06-.28-.17-.83-.23-1.1.19.28.58.84.77,1.12-2.74,2.15-5.86,3.83-9.16,4.95-4.27,1.44-9.05,2.17-13.42.66-8.94-3.08-18.4-4.07-27.73-5.28-2.59-.18-5.2-.26-7.78-.58.94-.12,1.88-.17,2.83-.15,11.07.36,22.25-.41,33.03-3.08"/>
        <path d="M229.83,94.72c3.36-1.3,7.21-.39,9.95,1.86-2.17-1.25-4.55-2.36-7.11-2.21-2.47.4-5.05,1.19-6.78,3.1-1.28,1.32-1.76,3.18-1.96,4.97-.24-3.63,2.49-6.81,5.9-7.72"/>
        <path d="M231.39,96.3c-2.78.66-4.91,3.32-4.94,6.17-.17,3.48,2.69,6.87,6.19,7.12,4.3.44,8.38-3.94,7.49-8.2-.86-3.71-5.11-6.03-8.74-5.09M231.13,96.03c3.76-1.05,8.19,1.2,9.24,5.02,1.15,4.35-2.83,9.01-7.25,8.88-3.86.05-7.21-3.64-6.98-7.46,0-2.94,2.17-5.68,4.99-6.44"/>
        <path d="M182.68,135.57c6.06-2.28,12.52.02,18.75-.25,0,.09,0,.26,0,.34-6.11.21-12.39-1.95-18.37.1-3.07.97-3.67,4.82-6.6,5.97-2.86,1.2-5.66,2.6-8.68,3.34-4.18,1.07-8.55,1.13-12.82.77.28-.05.86-.14,1.14-.18,3.67.13,7.38.12,10.97-.74,3.18-.69,6.11-2.15,9.09-3.4,2.95-1.08,3.54-4.89,6.53-5.95"/>
        <path class="cls-10" d="M232.66,26.12c3.69,2.13,6.95,5.01,9.49,8.43-1.47-.37-2.96-.7-4.45-.96-1.49-2.62-3.71-4.78-5.04-7.47"/>
        <path class="cls-10" d="M243.8,26.11c4.79,2.75,8.91,6.78,11.61,11.6-.95.78-2.37.8-3.51,1.24-1.62-3.44-3.76-6.58-5.99-9.65-.75-1.03-1.68-1.96-2.11-3.19"/>
        <path class="cls-10" d="M222.36,27.52c3.24,1.64,6.1,3.97,8.59,6.61-1.02.38-2.05.71-3.1,1-1.34-1.94-2.77-3.82-4.3-5.61-.48-.6-1.04-1.2-1.19-1.99"/>
        <path class="cls-10" d="M213.58,30.27c3.61,1.79,6.7,4.62,9.09,7.84-.79.74-1.6,1.46-2.39,2.21-1.89-3.58-4.54-6.66-6.7-10.05"/>
        <path class="cls-10" d="M204.44,35.95c5.03,1.99,9.51,5.43,12.78,9.73-.6,1.63-.93,3.34-1.15,5.07-2.67-4.71-6.07-8.98-9.9-12.8-.63-.62-1.2-1.29-1.73-1.99"/>
        <path class="cls-10" d="M200.5,46.17c1.27.41,2.37,1.18,3.47,1.92,4.17,2.74,7.97,6.04,11.31,9.73,1.72,1.61,1.44,4.16,2.14,6.24-.66,1.1-1.28,2.21-1.85,3.35-4.02-7.75-9.51-14.57-15.07-21.24"/>
        <path class="cls-10" d="M191.06,49.71c4.83,2.54,8.99,6.23,12.75,10.15,3.32,3.64,6.34,7.64,8.52,12.08-2.02.48-4.01,1-6.01,1.52-3.44-8.86-9.57-16.27-15.26-23.75"/>
        <path class="cls-10" d="M181.73,53.71c8.03,5.26,14.46,12.78,18.93,21.25-1.9.67-3.82,1.29-5.8,1.69-2.49-6.86-6.57-12.99-10.68-18.97-.83-1.31-2.06-2.41-2.45-3.96"/>
        <path class="cls-10" d="M171.03,55.05c8.54,5.63,15.47,13.69,19.84,22.93-1.89.73-3.86,1.26-5.73,2.07-2.71-7.84-7.22-14.88-11.98-21.61-.75-1.1-1.73-2.09-2.13-3.38"/>
        <path class="cls-10" d="M160.28,56.83c9.13,5.9,16.41,14.65,20.73,24.62-2.08.75-4.09,1.66-6.21,2.31-1.24-6.37-4.76-11.99-8.13-17.44-1.98-3.27-4.45-6.21-6.39-9.49"/>
        <path class="cls-10" d="M150.53,60.03c.3.15.91.46,1.21.61,8.74,6.09,15.72,14.66,19.92,24.46-2.07.96-4.19,1.84-6.28,2.74-.51-3.65-1.99-7.08-3.65-10.34-3.15-6.18-7.17-11.85-11.2-17.47"/>
        <path class="cls-10" d="M141.52,63.45c1.87.94,3.47,2.3,5.08,3.63,7.04,5.89,12.65,13.49,16.12,22-2.13,1.04-4.26,2.07-6.37,3.15-.13-.62-.23-1.23-.37-1.84l-.1-.43c-.39-3.15-1.84-6.04-3.2-8.86-3.1-6.26-7.26-11.89-11.17-17.65"/>
        <path class="cls-10" d="M133.54,71.19c6.83,4.38,12.56,10.41,16.89,17.25,1.05,1.76,2.16,3.5,2.89,5.43-1.85.91-3.6,2-5.44,2.94-2.32-7.88-6.96-14.81-11.57-21.51-.92-1.37-2.06-2.6-2.78-4.1"/>
        <path class="cls-10" d="M125.99,79.24c7.52,5.03,13.7,11.93,18.16,19.78-1.57,1.16-3.27,2.13-4.87,3.23-2.91-7.22-7.11-13.83-11.64-20.13-.62-.91-1.49-1.74-1.64-2.87"/>
        <path class="cls-10" d="M117.79,87.12c1.66.75,3.01,1.98,4.44,3.08,4.92,4.06,9.23,8.88,12.55,14.33.46.51-.1.97-.51,1.25-1.21.89-2.38,1.84-3.66,2.62-3.19-7.7-8.18-14.43-12.81-21.28"/>
        <path class="cls-10" d="M109.91,94.83c6.66,4.41,12.35,10.28,16.62,17.04-1.38,1.2-2.75,2.42-4.1,3.66-2.95-6.31-6.68-12.22-10.77-17.84-.65-.9-1.43-1.77-1.75-2.86"/>
        <path class="cls-10" d="M101.82,102.84c.87.29,1.63.81,2.35,1.37,5.52,4.17,10.48,9.21,14.09,15.13-1.38,1.07-2.73,2.16-4.1,3.24-3.42-6.99-7.8-13.44-12.34-19.74"/>
        <path class="cls-10" d="M94.19,110.77c6.05,3.82,11.12,9.1,15.24,14.94-1.43.88-2.87,1.74-4.4,2.45-2.48-4.87-5.47-9.45-8.62-13.9-.78-1.13-1.75-2.16-2.21-3.48"/>
        <path class="cls-10" d="M88.57,115.33c4.38,4.45,7.98,9.77,10.08,15.66-1.3.41-2.6.84-3.94,1.12-1.15-4.56-2.9-8.94-4.81-13.23-.5-1.16-1.2-2.27-1.34-3.55"/>
        <path class="cls-10" d="M82,121.21c.8,0,1.21.77,1.71,1.27,2.69,3.21,4.97,6.8,6.44,10.73-1.11.02-2.33.57-3.38.19-1.27-4.18-2.93-8.23-4.77-12.19"/>
        <path class="cls-10" d="M76.59,123.23c.73.51,1.2,1.28,1.65,2.03,1.6,2.68,3.01,5.51,3.86,8.52-1-.03-1.99-.06-2.99-.1-.64-3.53-1.64-6.98-2.52-10.45"/>
        <path class="cls-10" d="M72.01,125.13c2,2.22,2.69,5.3,3.54,8.1-.78-.14-1.56-.29-2.33-.43-.31-2.57-.8-5.12-1.21-7.68"/>
        <path class="cls-14" d="M231.13,96.03c-2.82.76-4.99,3.5-4.99,6.44-.23,3.82,3.12,7.51,6.98,7.46,4.42.13,8.39-4.53,7.24-8.88-1.05-3.82-5.48-6.07-9.24-5.02M229.83,94.72c-3.41.9-6.15,4.09-5.9,7.72.2-1.79.67-3.64,1.96-4.97,1.73-1.91,4.31-2.71,6.78-3.1,2.56-.16,4.94.96,7.11,2.21-2.73-2.25-6.59-3.16-9.95-1.86M300.28,76.33c-.46.33-.39,1.01-.38,1.5.29,1.7,1.44,3.26,2.96,4.07.75.46,2.02.1,2.04-.89.14-1.7-.93-3.3-2.21-4.33-.65-.49-1.69-1.04-2.41-.36M296.21,74.27c1.74-1.2,4.02-2.42,6.13-1.39,2.79,1.31,4.64,4.08,5.76,6.86-.25-1.58-1.11-2.97-2.09-4.2-1.31-1.74-3.17-3.3-5.45-3.33-1.64.18-3.17.93-4.35,2.06M311.94,65.66c-1.03,1.87.73,4.23,2.51,4.91,1.42.44,1.73-1.48,1.16-2.39-.59-1.36-2-3.18-3.67-2.52M309.43,63.96c1.41-.49,3.02-1.08,4.43-.23,1.91,1.22,3.31,3.15,4.04,5.28-.25-2.12-1.72-3.86-3.3-5.18-1.5-1.22-3.67-.94-5.16.13M233.54,42.81c-3.96,1.4-6.96,4.75-8.66,8.52-2.63,5.85-2.52,12.72-.32,18.69,1.91,5.19,5.69,9.87,10.85,12.07-1.76,1.8-3.52,3.69-4.46,6.07,2.25-4.16,5.95-7.47,10.37-9.18,5.59-2.23,11.8-2.43,17.7-1.62-2.27-.28-4.52-.77-6.81-.71,3.2-5.16,4.18-11.51,2.96-17.43-1.16-5.96-4.46-11.74-9.72-14.98-3.5-2.21-7.99-2.89-11.9-1.42M267.93,27.42c4.04-.84,8.32-1.06,12.31.2,4.97,1.48,9.03,5.29,11.36,9.86-2.76-1-5.56-1.91-8.46-2.4-7.35-1.34-14.91-.58-22.12,1.18,2.37.07,4.63-.79,6.97-1.03,9.2-1.37,18.88-.09,27.14,4.29,7.8,4.05,14.21,10.27,19.9,16.88,2.34,2.79,4.97,5.52,6.16,9.05,1.3,3.53.9,7.54-.8,10.86-2.48,5.03-6.93,8.71-11.51,11.76-1.43,1.13-2.91,2.19-4.38,3.24-5.66,3.31-11.83,5.68-18.19,7.25-10.78,2.67-21.95,3.44-33.03,3.08-.95-.02-1.89.03-2.83.15,2.58.32,5.18.4,7.78.58,9.33,1.21,18.79,2.21,27.73,5.28,4.37,1.5,9.14.77,13.42-.67,3.3-1.12,6.41-2.8,9.15-4.95,2.15-1.77,4.18-3.96,4.86-6.74.58-2.25-.35-4.82-2.3-6.1,1.72-.08,3.22.88,4.75,1.5,2.99,1.42,6.16,3.05,8.01,5.92,1.37,2.06.91,4.78-.35,6.78-2.36,3.86-5.95,6.84-9.78,9.18-3.55,2.22-7.75,2.97-11.83,3.58-6.96.98-14.01,1.28-20.96,2.42-1.91,0-3.64.73-5.4,1.34-6.11,1.57-12.07,3.68-18.27,4.85-7.75,1.46-16.02,1.49-23.44-1.47-7.06-2.76-12.94-8.16-16.61-14.76-4.06-7.35-6-15.81-5.73-24.19.64-6.86,2.29-13.92,6.26-19.66-1.46-6.14-2.47-12.78-.22-18.86,1.73-4.9,5.93-8.61,10.75-10.38,4.87-2.01,10.6-2.2,15.39.13,5.6,2.63,9.59,7.64,12.69,12.84-1.6-3.04-3.55-5.92-6.03-8.31,3.43-1.69,7.32-2.13,10.77-3.73-1.41.21-2.78.63-4.15.99,1.96-4.63,5.95-8.17,10.66-9.83l.35-.13Z"/>
        <path class="cls-14" d="M74.86,55.75c5.89.3,11.71,1.46,17.33,3.24-1.81.24-3.63.03-5.45.02-3.19-.03-6.38.15-9.56.46-.8-1.22-1.58-2.47-2.33-3.72"/>
        <path class="cls-14" d="M52.78,59.91c2.64-1.35,5.44-2.37,8.32-3.04,1.46,1.66,2.91,3.34,4.26,5.09-2.08.69-4.12,1.49-6.1,2.43-2.08-1.62-4.3-3.03-6.49-4.48"/>
        <path class="cls-14" d="M42.99,67.52c2.23,1.03,4.34,2.27,6.42,3.57-1.71,1.62-3.26,3.41-4.68,5.29-2.57-.34-5.16-.03-7.74.11,1.61-3.23,3.59-6.28,6-8.98"/>
        <path class="cls-14" d="M161.52,90.14c16.61-7.93,34.15-13.83,52.05-18.08-1.18,3.74-2.2,7.58-2.3,11.53-.61,7.98,1.18,16.06,4.64,23.24,3.29,6.81,8.8,12.56,15.62,15.87-2.61,2.15-5.59,3.77-8.46,5.53-.77.45-.94,1.39-1.3,2.14-1.09,2.8-2.64,5.43-4.65,7.66,3.07,3.69,6.24,7.31,8.98,11.25.89,1.28,1.88,2.62,3.38,3.22,1.58.69,3.39.48,4.96-.16,2.62-1.11,5.51-1.03,8.3-.9,2.67.66,5.24,2.37,5.83,5.22-2.52-.39-5.03-1.22-7.6-.88,2.64.36,5.28.77,7.87,1.38,2.89.47,5.75,1.2,8.34,2.61-1.03.79-1.85,1.81-2.36,3.01-4.88-1.34-9.98-1.85-15.02-1.54,4.55,1.6,9.32,3.29,12.6,7.03-1.14.49-2.19,1.15-3.11,1.98-3.73-2.02-7.54-3.92-11.51-5.42-2.7-1.01-5.5-1.88-8.4-2.01,2.04,1.16,4.3,1.9,6.23,3.27,2.27,1.45,4.13,3.49,5.33,5.9-1.25.16-2.46.48-3.62.96-2.63-2.4-5.78-4.83-9.52-4.75-2.92.07-6.11-.02-8.53-1.87-2.03-1.43-2.91-3.88-4.61-5.62-4.59-4.34-9.08-9.15-11.27-15.19-2.34-6.29-1.92-13.3.01-19.63,1.44-4.84,3.74-9.7,7.84-12.85,1.52-1.26,3.46-1.79,5.16-2.77-5.52,1.04-9.41,5.81-11.59,10.7-1.98,4.52-3.22,9.39-3.37,14.33-6.23.27-12.7-2.02-18.75.25-2.99,1.06-3.58,4.88-6.53,5.95-2.98,1.25-5.91,2.71-9.09,3.4-3.59.86-7.3.88-10.97.74-1.5-.16-3.01-.34-4.51-.5,1.19-2.03,2.36-4.35,1.84-6.77-.55-2.71-2.82-4.57-4.93-6.12-5.5-3.79-12.75-4.75-19.16-3.11,2.33-.02,4.63-.51,6.96-.37,4.95.18,9.94,1.8,13.68,5.13,1.88,1.54,3.49,3.82,3.16,6.38-.47,3.23-2.69,5.83-4.93,8.05-5.07,4.82-11.17,8.39-17.33,11.63,4.44-.31,8.91-.43,13.33.14,1.11.21,2.36.5,3.06,1.48.6.88.17,1.96.11,2.93-2.12-.13-4.43-.79-6.41.26,3.06-.46,6.11.2,9.17.24,5.68.29,11.77,1.17,16.25,4.99-1.27.97-2.28,2.25-2.84,3.76-5.68-3.22-12.42-4.03-18.83-3.21,4.91,2.22,10.71,4.36,13.01,9.69-1.74-.23-3.42.27-4.64,1.53-4.4-4.87-10.87-7.16-17.19-8.18,1.25,2.81,2.1,5.85,1.78,8.96-.93-.02-1.86-.03-2.79-.04-.36-1.61-.71-3.28-1.71-4.63-1.76-2.56-4.75-3.92-7.67-4.69-3.53-.93-7.21-1.99-10.04-4.41-1.34-1.15-2.4-3-1.73-4.79,2.48-7.64,6.01-15.21,11.81-20.91,2.91-2.93,6.6-5,10.56-6.16-3.4.16-6.34,2.26-8.97,4.23-.94.79-2.25.55-3.38.68-5.34.22-10.62,1.05-15.89,1.91-.13-.17-.38-.5-.5-.67-1.24-4.89-1.51-9.94-1.34-14.96,6.46-3.42,12.24-7.98,17.49-13.04,11.2-10.32,24.33-18.34,38-24.94"/>
        <path class="cls-14" d="M32.8,88.56c2.22-.5,4.47-.82,6.73-1-.83,3.16-1.17,6.42-1.27,9.68-2.33,1.36-4.44,3.06-6.49,4.82-.32-4.52.03-9.08,1.03-13.49"/>
        <path class="cls-14" d="M34.66,114.75c1.99-2.11,4.09-4.13,6.41-5.9,2.31,4.65,5.56,8.79,9.33,12.35-1.86,3.28-3.44,6.7-4.79,10.22-4.6-4.85-8.47-10.44-10.94-16.67"/>
        <path class="cls-14" d="M228.74,133.42c1.52-3.33,2.6-6.83,3.79-10.28,1.83.8,3.73,1.4,5.66,1.9,2.17.54,3.44,2.53,5.14,3.83,1.57,1.31,3.94,1.42,5.7.44,2.98-1.63,6.53-2.53,9.9-1.75,1.79.42,3.13,1.83,3.86,3.48-2.36-.06-4.75-.4-7.06.23,5.02.18,10.24-.26,15.06,1.44-.66.92-1.2,1.9-1.61,2.95-4.49-.42-9.05-.39-13.47.6.98.41,2.03.42,3.08.46h.07c3.01,1.23,6.38,1.89,8.77,4.26-.88.62-1.69,1.32-2.42,2.11-4.34-1.51-8.72-3.03-13.27-3.77-1.83-.24-3.72-.58-5.54-.14,3.99.98,8.23,2.37,10.88,5.7.29.29.68,1.05-.06,1.1-.79.35-1.58.7-2.35,1.08-2.62-1.7-5.55-3.42-8.8-3.07-2,.26-4,.56-6.02.4-1.96-.53-3.74-1.62-5-3.22-1.88-2.44-4.79-3.69-6.94-5.82,0-.7.39-1.31.63-1.95"/>
        <path class="cls-14" d="M54.93,139.51c1.04-4.03,2.53-7.94,4.59-11.56,3.93,2.23,8.16,3.95,12.57,4.99-.59,4.27-.97,8.58-.69,12.89-3.22-.62-6.41-1.4-9.56-2.34-2.59-.75-4.72-2.47-6.91-3.98"/>
        <path class="cls-14" d="M83.28,134.16c3.86,0,7.71-.61,11.45-1.58.17,4.86.77,9.72,2.03,14.42-4.65.67-9.37.67-14.04.3-.41-4.39-.16-8.81.57-13.14"/>
        <path class="cls-2" d="M235.8,55.5c3.29-1.58,7.36-.64,9.99,1.77,5.34,4.74,6.83,13.2,3.64,19.54-.19.01-.57.03-.75.05,1.67-4.52.97-9.9-2.08-13.68-1.72-2.17-4.41-3.77-7.24-3.48-2.81.2-5.14,2.3-6.27,4.78-2.6,5.59-.77,12.81,4.18,16.5l-.67-.07c-5.32-3.24-7.73-9.97-6.91-15.97.49-3.82,2.52-7.73,6.12-9.44"/>
        <path class="cls-11" d="M61.1,56.87c4.49-1.05,9.15-1.4,13.75-1.12.74,1.26,1.52,2.5,2.33,3.72-4,.48-7.98,1.24-11.81,2.49-1.35-1.76-2.81-3.43-4.26-5.09"/>
        <path class="cls-11" d="M42.99,67.52c2.78-3.09,6.09-5.7,9.79-7.61,2.19,1.45,4.41,2.86,6.49,4.48-3.58,1.75-6.96,3.96-9.87,6.7-2.07-1.3-4.19-2.54-6.42-3.57"/>
        <path class="cls-11" d="M36.99,76.5c2.57-.15,5.17-.46,7.74-.11-2.33,3.41-4.14,7.18-5.2,11.18-2.29.18-4.58.5-6.83,1,.98-4.16,2.4-8.23,4.29-12.07"/>
        <path class="cls-11" d="M31.66,102.06c2.08-1.76,4.22-3.46,6.58-4.82,0,4.03,1,8.02,2.82,11.61-2.31,1.76-4.41,3.78-6.41,5.9-1.62-4.05-2.67-8.34-3-12.7"/>
        <path class="cls-11" d="M50.39,121.2c2.78,2.57,5.84,4.85,9.12,6.74-2.06,3.62-3.54,7.53-4.59,11.56-3.33-2.42-6.49-5.1-9.32-8.09,1.35-3.52,2.93-6.94,4.79-10.22"/>
        <path class="cls-11" d="M94.73,132.58c3.93-1.01,7.69-2.61,11.29-4.45-.17,5.02.1,10.07,1.34,14.96-.06.25-.18.75-.24,1.01-3.55.67-6.76,2.49-10.37,2.9-1.26-4.7-1.86-9.56-2.03-14.42"/>
        <path class="cls-11" d="M72.08,132.94c3.66.88,7.43,1.32,11.2,1.22-.73,4.34-.98,8.76-.57,13.14-3.8-.27-7.58-.77-11.33-1.47-.28-4.31.1-8.62.69-12.89"/>
        <path class="cls-1" d="M312.05,65.72c2.07,0,4.27,2.68,3.12,4.56-2.1-.05-3.62-2.61-3.12-4.56"/>
        <path class="cls-1" d="M300.42,76.54c1.6-.66,2.97,1.1,3.67,2.35.46.88,1.01,2.67-.39,2.93-2.11-.56-4.01-3.08-3.28-5.28"/>
        <path class="cls-12" d="M304.48,91.32c1.48-1.06,2.95-2.11,4.38-3.24.73.38,1.47.75,2.19,1.13,1.96,1.28,2.89,3.84,2.3,6.1-.68,2.77-2.71,4.97-4.86,6.74-.19-.28-.58-.84-.77-1.12-1.62-2.84-4.63-4.38-7.52-5.64-.13-.24-.4-.71-.53-.94,1.58-1.04,3.5-1.57,4.79-3.03"/>
        <path class="cls-6" d="M287.08,98.79c3.93-1.22,7.89-2.41,11.65-4.12.49.2.99.4,1.48.62,2.89,1.26,5.9,2.79,7.52,5.64.06.28.17.82.23,1.1-2.69,2.1-5.77,3.67-8.99,4.76-3.97,1.3-8.35,1.98-12.42.74-8.92-3.07-18.35-4.27-27.69-5.3,7.83-.41,15.72-.74,23.41-2.42,4.84-1.38,10.15-.54,14.64,1.62-2.95-1.82-6.46-2.29-9.84-2.62"/>
        <path class="cls-5" d="M231.39,96.3c3.63-.94,7.88,1.38,8.74,5.09.89,4.26-3.19,8.65-7.48,8.2-3.51-.25-6.37-3.64-6.2-7.13.03-2.86,2.17-5.51,4.94-6.17"/>
        <path class="cls-5" d="M222.76,128.74c3.26-1.73,6.24-3.9,9.39-5.81-1.24,4.1-2.68,8.14-4.47,12.03-1.44,3.09-3.09,6.17-5.54,8.58-1.51-1.83-3-3.66-4.59-5.42,2.31-2.77,4.04-5.98,5.21-9.38"/>
        <path class="cls-5" d="M183.05,135.76c5.98-2.06,12.26.1,18.37-.1-.14,3.69.62,7.32,1.83,10.79-.97.45-1.94.93-2.86,1.48-7.26,4.31-15.54,6.94-23.98,7.49-9.96.7-20-1.47-29.03-5.65,1.36-1.38,2.71-2.78,3.95-4.27,1.2.14,2.41.29,3.62.35,4.28.37,8.65.3,12.83-.77,3.02-.74,5.82-2.14,8.68-3.34,2.93-1.16,3.54-5,6.6-5.97"/>
        <path class="cls-5" d="M106.53,144.59c6.35-1.57,12.9-2.2,19.42-2.49-2.39,2.27-4.33,4.94-6.27,7.57-11.2,1.15-22.54,1.45-33.77.48-2.41-.18-4.79-.71-7.21-.67-.2-.05-.59-.13-.78-.17-4.63-1.39-9.71-1.8-13.83-4.49,2.39.1,4.65,1,7,1.36,8.52,1.57,17.31,2.45,25.94,1.18,3.3-.4,6.28-2,9.5-2.76"/>
        <path class="cls-9" d="M67.26,125.43c1.56,1.66,1.62,4.23,2.15,6.37-.66-.22-1.32-.45-1.98-.69.06-1.9-.1-3.79-.18-5.68"/>
        <path class="cls-8" d="M63.68,127.17c.46.5.39,1.54.54,2.25-.25.61-.94-.17-.82-.58-.06-.59.04-1.15.28-1.68"/>
        <path class="cls-7" d="M64.09,144.81c-.9.67-.83-1.04.03-.38l-.03.38Z"/>
      </g>
    </g>
  </g>
</svg>