<?xml version="1.0" encoding="UTF-8"?>
<svg xmlns="http://www.w3.org/2000/svg" version="1.1" xmlns:xlink="http://www.w3.org/1999/xlink" viewBox="0 0 141.73 141.73">
  <defs>
    <style>
      .cls-1 {
        fill: #aba59d;
      }

      .cls-2 {
        fill: #8f877a;
      }

      .cls-3 {
        fill: #fff;
      }

      .cls-4 {
        fill: #d1d2cc;
      }

      .cls-5 {
        fill: none;
      }

      .cls-6 {
        fill: #1c2e2e;
      }

      .cls-7 {
        clip-path: url(#clippath);
      }
    </style>
    <clipPath id="clippath">
      <rect class="cls-5" x="23.6" y="15.69" width="93.91" height="110.87"/>
    </clipPath>
  </defs>
  <!-- Generator: Adobe Illustrator 28.7.0, SVG Export Plug-In . SVG Version: 1.2.0 Build 136)  -->
  <g>
    <g id="Layer_1">
      <g class="cls-7">
        <path class="cls-2" d="M98.82,55.98c2.29.11,4.95-.14,7.59-1.23,6.94-2.86,11.11-10.43,11.11-10.43,0,0-7.09-2.93-14.03-.07-2.64,1.09-4.87,2.85-6.63,4.62-.43-1.12-.89-2.2-1.42-3.22-2.27-4.47-5.48-8.03-9.75-10.11-4.27-2.08-9.05-2.42-13.97-1.46-1.26.24-2.53.58-3.8.99.35-2.54.4-5.51-.4-8.37-2.02-7.23-8.69-11.02-8.69-11.02,0,0-3.4,7.94-1.38,15.17.81,2.88,2.35,5.22,3.92,6.98-12.98,6.77-25.29,20.62-30.46,34.39-1.23,3.1-2.14,6.21-2.64,9.26-2.13,12.91,7.8,24.16,20.43,29.9,12.3,6.42,27.28,7.32,36.14-2.31,2.09-2.27,3.99-4.91,5.67-7.79,7.69-12.6,11.03-30.9,8.32-45.33"/>
        <path class="cls-1" d="M93.19,67.78c.93-4.9.66-7.79-.44-9.6,2.18-7.53-1.33-15.78-8.67-19.36-7.59-3.7-16.6-1.1-21.05,5.76-1.7.38-3.6,1.59-5.92,4.05-9.02,9.59-17.28,39.61-.65,47.72,16.18,7.89,33.75-12.9,36.74-28.58"/>
        <path class="cls-1" d="M67.37,73.09c-10.55-5.14-21.62-4.14-24.73,2.24-3.11,6.38,2.92,15.72,13.46,20.86,10.55,5.14,21.62,4.14,24.73-2.24,3.11-6.38-2.91-15.72-13.46-20.86"/>
        <path class="cls-4" d="M71.18,76.28c-.3-6,.6-9.92-.31-10.36-.91-.44-3.51,3.31-8.29,6.61-3.66,2.53-8.65,4.78-9.86,7.26-2.78,5.7-.53,11.53,4.55,14.01,5.08,2.48,11.06.66,13.84-5.04,1.16-2.37.28-8.21.07-12.48"/>
        <path class="cls-3" d="M89.54,59.24c-2.49-1.22-5.82.47-7.43,3.77-1.61,3.3-.89,6.96,1.6,8.18,2.49,1.22,5.82-.47,7.43-3.77,1.61-3.3.89-6.96-1.6-8.18M65.33,47.44c-2.5-1.22-5.82.47-7.43,3.77-1.61,3.3-.89,6.96,1.6,8.18,2.49,1.22,5.82-.47,7.43-3.77,1.61-3.3.89-6.96-1.6-8.18"/>
        <path class="cls-6" d="M63.79,52.6c-.98-.48-2.29.21-2.93,1.53-.64,1.32-.37,2.78.6,3.25.98.48,2.29-.21,2.93-1.53.64-1.32.37-2.78-.6-3.25M86.42,63.64c-.98-.48-2.29.21-2.93,1.53-.64,1.32-.37,2.78.6,3.25.98.48,2.29-.21,2.93-1.53.64-1.32.37-2.78-.6-3.25"/>
        <path class="cls-6" d="M46.83,74.31c-1.16-.17-2.39.92-2.74,2.43-.36,1.51.29,2.88,1.45,3.05,1.16.17,2.39-.92,2.75-2.43.36-1.51-.29-2.88-1.45-3.05M79.05,90.03c-.85-.81-2.32-.48-3.29.73-.97,1.21-1.07,2.85-.23,3.66.85.81,2.32.48,3.29-.73.97-1.21,1.07-2.85.23-3.66"/>
      </g>
    </g>
  </g>
</svg>