<?xml version="1.0" encoding="UTF-8"?>
<svg xmlns="http://www.w3.org/2000/svg" version="1.1" xmlns:xlink="http://www.w3.org/1999/xlink" viewBox="0 0 141.73 141.73">
  <defs>
    <style>
      .cls-1 {
        fill: #aba59d;
      }

      .cls-2 {
        fill: #8f877a;
      }

      .cls-3 {
        fill: #fff;
      }

      .cls-4 {
        fill: #d1d2cc;
      }

      .cls-5 {
        fill: none;
      }

      .cls-6 {
        fill: #f7921e;
      }

      .cls-7 {
        clip-path: url(#clippath-1);
      }

      .cls-8 {
        fill: #e75578;
      }

      .cls-9 {
        display: none;
      }

      .cls-10 {
        fill: #1c2e2e;
      }

      .cls-11 {
        clip-path: url(#clippath);
      }
    </style>
    <clipPath id="clippath">
      <rect class="cls-5" x="23.6" y="15.69" width="93.91" height="110.87"/>
    </clipPath>
    <clipPath id="clippath-1">
      <rect class="cls-5" x="11.94" y="33.28" width="117.23" height="75.62"/>
    </clipPath>
  </defs>
  <!-- Generator: Adobe Illustrator 28.7.0, SVG Export Plug-In . SVG Version: 1.2.0 Build 136)  -->
  <g>
    <g id="Layer_1">
      <g class="cls-9">
        <g class="cls-11">
          <path class="cls-2" d="M98.82,55.98c2.29.11,4.95-.14,7.59-1.23,6.94-2.86,11.11-10.43,11.11-10.43,0,0-7.09-2.93-14.03-.07-2.64,1.09-4.87,2.85-6.63,4.62-.43-1.12-.89-2.2-1.42-3.22-2.27-4.47-5.48-8.03-9.75-10.11-4.27-2.08-9.05-2.42-13.97-1.46-1.26.24-2.53.58-3.8.99.35-2.54.4-5.51-.4-8.37-2.02-7.23-8.69-11.02-8.69-11.02,0,0-3.4,7.94-1.38,15.17.81,2.88,2.35,5.22,3.92,6.98-12.98,6.77-25.29,20.62-30.46,34.39-1.23,3.1-2.14,6.21-2.64,9.26-2.13,12.91,7.8,24.16,20.43,29.9,12.3,6.42,27.28,7.32,36.14-2.31,2.09-2.27,3.99-4.91,5.67-7.79,7.69-12.6,11.03-30.9,8.32-45.33"/>
          <path class="cls-1" d="M93.19,67.78c.93-4.9.66-7.79-.44-9.6,2.18-7.53-1.33-15.78-8.67-19.36-7.59-3.7-16.6-1.1-21.05,5.76-1.7.38-3.6,1.59-5.92,4.05-9.02,9.59-17.28,39.61-.65,47.72,16.18,7.89,33.75-12.9,36.74-28.58"/>
          <path class="cls-1" d="M67.37,73.09c-10.55-5.14-21.62-4.14-24.73,2.24-3.11,6.38,2.92,15.72,13.46,20.86,10.55,5.14,21.62,4.14,24.73-2.24,3.11-6.38-2.91-15.72-13.46-20.86"/>
          <path class="cls-4" d="M71.18,76.28c-.3-6,.6-9.92-.31-10.36-.91-.44-3.51,3.31-8.29,6.61-3.66,2.53-8.65,4.78-9.86,7.26-2.78,5.7-.53,11.53,4.55,14.01,5.08,2.48,11.06.66,13.84-5.04,1.16-2.37.28-8.21.07-12.48"/>
          <path class="cls-3" d="M89.54,59.24c-2.49-1.22-5.82.47-7.43,3.77-1.61,3.3-.89,6.96,1.6,8.18,2.49,1.22,5.82-.47,7.43-3.77,1.61-3.3.89-6.96-1.6-8.18M65.33,47.44c-2.5-1.22-5.82.47-7.43,3.77-1.61,3.3-.89,6.96,1.6,8.18,2.49,1.22,5.82-.47,7.43-3.77,1.61-3.3.89-6.96-1.6-8.18"/>
          <path class="cls-10" d="M63.79,52.6c-.98-.48-2.29.21-2.93,1.53-.64,1.32-.37,2.78.6,3.25.98.48,2.29-.21,2.93-1.53.64-1.32.37-2.78-.6-3.25M86.42,63.64c-.98-.48-2.29.21-2.93,1.53-.64,1.32-.37,2.78.6,3.25.98.48,2.29-.21,2.93-1.53.64-1.32.37-2.78-.6-3.25"/>
          <path class="cls-10" d="M46.83,74.31c-1.16-.17-2.39.92-2.74,2.43-.36,1.51.29,2.88,1.45,3.05,1.16.17,2.39-.92,2.75-2.43.36-1.51-.29-2.88-1.45-3.05M79.05,90.03c-.85-.81-2.32-.48-3.29.73-.97,1.21-1.07,2.85-.23,3.66.85.81,2.32.48,3.29-.73.97-1.21,1.07-2.85.23-3.66"/>
        </g>
      </g>
      <g class="cls-7">
        <path class="cls-8" d="M31.15,86.94c.36.18.73.36,1.1.54.77.38,1.53.78,2.33,1.13,3.15,1.46,6.49,2.75,9.95,3.37,3.45.65,7.09.32,9.92-.73.18-.06.36-.12.53-.18.17-.06.33-.15.5-.22.32-.15.64-.3.95-.44.64-.27,1.15-.63,1.67-.94.26-.16.5-.31.74-.45.23-.16.43-.32.64-.47.41-.31.78-.59,1.12-.84,1.25-1.09,1.94-1.73,1.94-1.73.46-.51.61-1.22.47-1.92-.14-.7-.59-1.41-1.26-1.97-.68-.56-1.46-.89-2.15-.98-.69-.09-1.29.04-1.67.46,0,0-.51.53-1.42,1.45-.94.83-2.31,2.01-4.18,2.83-1.86.82-4.25,1.28-7.05.96-2.79-.3-5.86-1.22-8.89-2.39-.76-.27-1.51-.62-2.27-.92-.4-.16-.8-.33-1.19-.49-.42-.17-.84-.34-1.27-.48-1.71-.6-3.52-1.01-5.36-1.08-1.84-.04-3.73.29-5.33,1.13-1.6.82-2.83,2.06-3.63,3.32-.82,1.26-1.26,2.54-1.52,3.67-.26,1.13-.33,2.14-.33,2.95,0,.82.07,1.46.13,1.89.02.22.06.38.08.5.02.11.03.17.03.17.11.69.56,1.05.97,1.21.4.16.75.14.75.14,0,0,.3-.19.57-.51.26-.32.51-.74.42-1.27,0,0,0-.05-.02-.14,0-.09-.03-.22-.04-.4-.02-.35-.05-.86,0-1.51.05-.65.16-1.43.42-2.28.26-.84.65-1.76,1.27-2.57.61-.82,1.43-1.53,2.45-1.96,1.01-.45,2.23-.59,3.53-.47,1.31.14,2.7.54,4.07,1.13.35.14.69.3,1.03.47M16.71,77.58c.41-.15.65-.41.65-.41,0,0,.08-.35.05-.77-.01-.21-.06-.43-.15-.64-.08-.22-.23-.41-.44-.58,0,0-.13-.12-.38-.35-.22-.24-.57-.59-.84-1.1-.29-.5-.52-1.14-.55-1.92-.03-.77.17-1.69.65-2.62.48-.92,1.25-1.84,2.21-2.48.47-.32.99-.56,1.47-.66.11,0,.24-.05.34-.04h.16s.21,0,.21,0c.14.02.27,0,.42.03l.45.08c1.25.26,2.62.9,3.9,1.7,1.29.81,2.52,1.82,3.64,2.94,1.12,1.12,2.12,2.36,3,3.65.45.64.83,1.31,1.22,1.97.47.83,1.03,1.65,1.62,2.39,2.4,2.99,5.64,4.93,8.7,5.77,3.07.88,5.95.62,7.87.06.96-.28,1.7-.59,2.19-.85.25-.12.43-.22.55-.29.12-.07.19-.11.19-.11.75-.45,1.15-1.26,1.16-2.02,0-.79-.38-1.54-1.02-2.14-.64-.6-1.39-.99-2.01-1.19-.64-.22-1.13-.26-1.49-.05,0,0-.03.02-.09.06-.05.04-.14.09-.26.16-.22.15-.58.32-1.07.51-.96.36-2.57.66-4.58.24-1.99-.4-4.31-1.55-6.13-3.52-.45-.5-.87-1.03-1.27-1.62-.51-.75-1.03-1.51-1.61-2.24-1.14-1.46-2.43-2.84-3.84-4.08-1.42-1.24-2.96-2.35-4.62-3.25-1.67-.89-3.44-1.62-5.41-1.9-.51-.05-1-.11-1.54-.08h-.39s-.43.07-.43.07c-.29.03-.55.12-.82.18-1.04.32-1.89.82-2.62,1.38-1.45,1.14-2.44,2.53-3.07,3.95-.63,1.43-.87,2.93-.73,4.26.05.67.24,1.27.43,1.82.22.54.46,1,.73,1.39.52.79,1.06,1.27,1.4,1.6.37.3.57.46.57.46.29.23.6.33.87.36.27.03.52-.03.73-.11M21.93,54.52s1.16.81,1.94.15c0,0,.14-.1.41-.28.13-.09.29-.21.49-.34.2-.12.42-.26.67-.41.5-.31,1.13-.62,1.85-.91.72-.25,1.53-.45,2.32-.41.8.02,1.57.31,2.32.88.76.55,1.46,1.45,2.1,2.47,1.27,2.08,2.22,4.75,3.05,7.46.41,1.36.79,2.75,1.15,4.12.09.35.18.7.27,1.04.12.41.24.82.39,1.22.29.8.64,1.57,1.07,2.3.83,1.45,1.92,2.74,3.21,3.77.65.51,1.35.95,2.09,1.31.75.35,1.55.61,2.36.75.81.15,1.65.15,2.43.07.79-.09,1.52-.31,2.18-.57,1.31-.54,2.24-1.3,2.88-1.94.33-.32.58-.62.82-.88.2-.27.38-.49.52-.68.26-.37.38-.58.38-.58.19-.31.26-.64.25-.98,0-.33-.11-.67-.29-.97-.36-.62-1.01-1.12-1.83-1.45-.82-.32-1.65-.43-2.29-.39-.32.02-.6.08-.83.16-.23.08-.39.22-.49.37,0,0-.06.11-.17.32-.06.09-.13.21-.22.35-.09.12-.19.27-.31.41-.24.29-.53.56-.87.75-.34.18-.72.31-1.28.27-.28-.03-.59-.08-.93-.21-.34-.13-.7-.31-1.07-.55-.73-.49-1.47-1.2-2.07-2.08-.31-.44-.58-.92-.81-1.43-.12-.25-.22-.52-.32-.79-.12-.34-.24-.68-.35-1.02-.48-1.38-.99-2.79-1.53-4.19-.55-1.41-1.14-2.81-1.81-4.18-.67-1.37-1.42-2.71-2.32-3.95-.91-1.23-1.95-2.41-3.31-3.26-.17-.1-.34-.2-.51-.31-.18-.09-.36-.17-.54-.26-.35-.18-.74-.28-1.1-.41-.38-.09-.75-.17-1.12-.21-.37-.02-.74-.07-1.09-.04-1.42.06-2.58.47-3.52.89-.92.45-1.66.9-2.22,1.31-.28.21-.53.39-.75.55-.21.17-.38.31-.52.43-.28.23-.43.36-.43.36-.44.37-.5.87-.44,1.27.06.4.22.71.22.71M112.26,99.36c-1.22-1.86-3.1-3.42-5.18-4.33-2.08-.94-4.28-1.26-6.29-1.18-.49.04-1.01.04-1.49.12-.47.08-.95.17-1.43.25-.47.09-.9.24-1.36.36-.45.13-.91.25-1.32.43l-1.26.5-.3.12-.23.08-.45.17c-.63.16-1.25.29-1.92.27-1.31.02-2.69-.37-4.04-.98-1.35-.6-2.64-1.46-3.82-2.38-1.18-.92-2.23-1.91-3.15-2.87-1.84-1.93-3.11-3.74-3.81-4.95-.18-.3-.33-.57-.44-.8-.13-.23-.21-.41-.27-.56-.15-.3-.17-.42-.18-.43-.11-.22-.22-.35-.44-.5-.17-.09-.46-.23-.74-.3-.15-.04-.32-.11-.5-.18-.17-.05-.35-.12-.54-.2-.39-.17-.81-.4-1.25-.58-.44-.18-.88-.29-1.29-.22-.12.02-.24.05-.36.1-.12-.05-.24-.08-.37-.1-.42-.06-.84.04-1.27.22s-.83.41-1.21.58c-.19.08-.37.16-.53.2-.17.06-.34.13-.49.18-.28.06-.56.21-.72.3-.21.15-.32.27-.41.5,0,0-.02.13-.15.43-.06.15-.12.33-.23.56-.09.23-.23.49-.39.8-.63,1.21-1.77,3.02-3.48,4.95-.85.96-1.84,1.95-2.96,2.87-1.11.91-2.35,1.77-3.66,2.38-1.3.61-2.66,1-3.97.98-.66.02-1.3-.11-1.94-.27l-.47-.17-.24-.08-.31-.12-1.3-.5c-.42-.18-.88-.31-1.34-.43-.46-.12-.9-.27-1.39-.36-.48-.08-.97-.17-1.45-.25-.48-.08-1-.08-1.5-.12-2.02-.08-4.19.25-6.22,1.18-2.03.91-3.79,2.47-4.89,4.33-.53.94-.93,2-.96,3.11-.02,1,.25,1.95.69,2.68.44.74,1.01,1.27,1.58,1.67.57.4,1.14.69,1.68.91,1.09.45,2.07.67,2.87.82.81.15,1.44.22,1.88.27.43.04.67.06.67.06.69.07,1.21-.24,1.55-.57.17-.16.29-.33.38-.45.08-.13.13-.21.13-.21,0,0,0-.09-.03-.22-.03-.13-.09-.31-.18-.49-.19-.36-.51-.72-1.13-.79,0,0-.2-.03-.59-.09-.38-.06-.94-.17-1.62-.34-.68-.18-1.48-.43-2.28-.83-.79-.39-1.58-.96-1.91-1.68-.17-.36-.24-.73-.2-1.17.04-.33.22-.77.52-1.24.64-.93,1.69-1.81,2.96-2.27,1.26-.49,2.71-.64,4.17-.49.36.06.73.07,1.1.16.36.09.73.18,1.09.27.37.09.72.25,1.08.37.36.13.72.25,1.06.43l1.04.49.63.29.71.31c.99.34,2.04.62,3.14.67,1.09.1,2.21-.01,3.3-.2.54-.12,1.08-.22,1.59-.39.26-.08.52-.15.77-.25.25-.1.5-.19.75-.29,1.98-.79,3.71-1.86,5.23-2.97,1.52-1.12,2.83-2.3,3.97-3.45,2.27-2.3,3.86-4.49,4.87-6.18.19-.32.37-.63.52-.92.17.28.36.59.58.92,1.12,1.69,2.85,3.88,5.28,6.18,1.21,1.15,2.61,2.33,4.2,3.45,1.59,1.11,3.39,2.19,5.43,2.97.25.1.51.19.77.29.26.09.53.16.79.25.53.17,1.07.28,1.62.39,1.1.19,2.22.3,3.31.2,1.1-.05,2.13-.33,3.1-.67l.69-.31.61-.29,1.01-.49c.33-.18.68-.3,1.04-.43.35-.12.69-.28,1.05-.37.36-.09.72-.18,1.08-.27.36-.09.73-.1,1.09-.16,1.45-.15,2.9,0,4.2.49,1.3.47,2.4,1.35,3.11,2.27.33.47.54.91.6,1.24.07.44.02.81-.12,1.17-.29.72-1.04,1.29-1.8,1.68-.77.4-1.56.65-2.22.83-.67.17-1.22.28-1.6.34-.38.06-.58.09-.58.09-.61.06-.92.43-1.08.79-.08.18-.12.35-.14.49-.03.13-.02.22-.02.22,0,0,.06.08.14.21.09.12.23.29.41.45.36.32.91.64,1.59.57,0,0,.23-.02.66-.06.43-.05,1.06-.12,1.86-.27.79-.16,1.76-.38,2.81-.82.53-.23,1.08-.51,1.62-.91.54-.4,1.07-.93,1.47-1.67.39-.73.6-1.68.51-2.68-.11-1.11-.58-2.17-1.17-3.11M123.78,85.91c-.8-1.26-2.03-2.5-3.63-3.32-1.59-.84-3.49-1.17-5.33-1.13-1.84.06-3.65.48-5.36,1.08-.43.14-.85.31-1.27.48-.4.16-.79.33-1.19.49-.76.3-1.51.65-2.27.92-3.03,1.17-6.11,2.09-8.89,2.39-2.8.32-5.19-.14-7.05-.96-1.87-.82-3.24-2-4.18-2.83-.91-.92-1.42-1.45-1.42-1.45-.37-.42-.97-.56-1.67-.46-.69.1-1.47.42-2.15.98-.68.56-1.12,1.26-1.26,1.97-.15.7,0,1.41.47,1.92,0,0,.69.65,1.94,1.73.34.25.71.54,1.12.84.21.15.41.31.64.47.24.15.49.3.74.45.52.3,1.03.67,1.67.94.31.14.63.29.95.44.16.07.32.16.5.22.18.06.35.12.53.18,2.83,1.04,6.47,1.38,9.92.73,3.47-.62,6.81-1.91,9.95-3.37.8-.35,1.55-.76,2.33-1.13.37-.18.73-.36,1.09-.54.34-.17.68-.34,1.03-.47,1.37-.59,2.76-.99,4.07-1.13,1.31-.11,2.52.03,3.54.47,1.02.43,1.84,1.14,2.45,1.96.62.81,1.01,1.73,1.27,2.57.26.85.37,1.63.42,2.28.05.65.02,1.16,0,1.51,0,.17-.03.31-.04.4-.01.09-.02.14-.02.14-.09.54.16.96.42,1.27.27.32.57.51.57.51,0,0,.35.02.75-.14.4-.16.85-.52.96-1.21,0,0,.01-.06.03-.17.02-.11.06-.28.08-.5.06-.43.14-1.07.13-1.89,0-.82-.08-1.82-.34-2.95-.26-1.13-.7-2.41-1.52-3.67M128.4,67.8c-.64-1.43-1.62-2.82-3.08-3.95-.73-.56-1.58-1.07-2.62-1.38-.27-.06-.53-.15-.82-.18l-.43-.06h-.39c-.54-.04-1.03.01-1.54.06-1.97.28-3.74,1.01-5.41,1.9-1.66.9-3.21,2.01-4.62,3.25-1.42,1.24-2.7,2.62-3.85,4.08-.58.72-1.09,1.49-1.61,2.24-.4.6-.81,1.12-1.27,1.62-1.82,1.98-4.14,3.13-6.13,3.52-2.01.42-3.62.11-4.58-.24-.49-.19-.85-.36-1.07-.51-.12-.07-.21-.12-.26-.16-.06-.04-.08-.06-.08-.06-.36-.21-.86-.17-1.49.05-.61.21-1.37.59-2.01,1.19-.64.6-1.02,1.35-1.02,2.14,0,.77.41,1.57,1.16,2.02,0,0,.06.04.19.11.12.08.31.17.55.29.49.25,1.23.56,2.19.85,1.91.56,4.8.82,7.87-.06,3.06-.84,6.3-2.78,8.7-5.77.59-.74,1.14-1.56,1.62-2.39.39-.66.77-1.33,1.22-1.97.88-1.29,1.88-2.52,3-3.65,1.12-1.12,2.35-2.13,3.64-2.94,1.28-.81,2.65-1.44,3.9-1.7l.45-.08c.15-.03.28-.02.42-.03h.21s.16,0,.16,0c.1,0,.22.04.34.04.47.11.99.35,1.47.66.96.64,1.73,1.57,2.21,2.48.49.92.68,1.84.65,2.62-.02.78-.25,1.42-.54,1.92-.28.51-.62.85-.84,1.1-.25.23-.38.35-.38.35-.21.17-.36.36-.44.58-.09.21-.14.43-.15.64-.03.42.05.77.05.77,0,0,.24.25.65.41.2.08.45.13.73.11.27-.04.58-.13.87-.36,0,0,.2-.15.57-.46.35-.33.89-.8,1.41-1.6.26-.39.51-.86.73-1.39.19-.54.38-1.15.43-1.82.15-1.33-.09-2.83-.73-4.26M84.67,73.64c.14.18.32.41.52.68.23.26.48.56.82.88.65.64,1.58,1.39,2.89,1.94.65.26,1.39.48,2.18.57.78.08,1.62.08,2.43-.07.81-.15,1.61-.4,2.36-.75.74-.36,1.44-.8,2.1-1.31,1.29-1.03,2.37-2.31,3.21-3.77.43-.72.78-1.5,1.07-2.3.15-.4.27-.81.39-1.22.09-.35.18-.69.27-1.04.36-1.38.74-2.76,1.15-4.12.83-2.71,1.78-5.38,3.05-7.46.64-1.03,1.34-1.92,2.1-2.47.75-.57,1.52-.85,2.32-.88.8-.04,1.61.16,2.32.41.71.29,1.34.6,1.85.91.25.15.48.29.67.41.19.13.35.25.49.34.27.19.41.28.41.28.78.66,1.94-.15,1.94-.15,0,0,.17-.31.22-.71.06-.4,0-.9-.44-1.27,0,0-.15-.12-.43-.36-.14-.12-.32-.26-.52-.43-.22-.16-.47-.34-.75-.55-.57-.41-1.31-.86-2.22-1.31-.94-.42-2.1-.83-3.52-.89-.35-.03-.72.01-1.09.04-.37.04-.75.12-1.12.21-.36.12-.76.23-1.1.41-.18.08-.36.17-.54.26-.17.1-.34.2-.51.31-1.35.85-2.4,2.02-3.31,3.26-.9,1.24-1.65,2.58-2.32,3.95-.67,1.37-1.26,2.77-1.81,4.18-.55,1.41-1.05,2.81-1.53,4.19-.12.34-.24.68-.35,1.02-.1.27-.2.53-.33.79-.24.51-.5,1-.81,1.43-.61.89-1.34,1.6-2.07,2.08-.37.24-.73.42-1.07.55-.34.13-.65.18-.93.21-.56.04-.94-.09-1.28-.27-.34-.18-.63-.46-.87-.75-.12-.13-.22-.29-.31-.41-.09-.14-.16-.25-.22-.35-.11-.21-.17-.32-.17-.32-.1-.15-.26-.29-.49-.37-.23-.08-.51-.13-.83-.16-.65-.04-1.47.07-2.29.39-.82.32-1.47.83-1.83,1.45-.19.31-.29.64-.29.97,0,.33.06.67.25.98,0,0,.12.2.38.58"/>
        <path class="cls-8" d="M70.27,33.28c-16.51,0-27.94,26.39-22.58,42.34s39.66,14.68,45.16-.56c5.5-15.24-6.07-41.78-22.58-41.78"/>
        <path class="cls-3" d="M62.93,57.06c-3.12,0-5.65,3.29-5.65,7.34s2.53,7.34,5.65,7.34,5.65-3.29,5.65-7.34-2.53-7.34-5.65-7.34M77.61,57.06c-3.12,0-5.65,3.29-5.65,7.34s2.53,7.34,5.65,7.34,5.64-3.29,5.64-7.34-2.53-7.34-5.64-7.34"/>
        <path class="cls-6" d="M70.27,71.18c-1.56,0-2.82,1.9-2.82,4.23s2.82,4.23,2.82,4.23c0,0,2.82-1.9,2.82-4.23s-1.26-4.23-2.82-4.23"/>
        <path class="cls-10" d="M64.91,62.71c-1.09,0-1.98,1.01-1.98,2.26s.88,2.26,1.98,2.26,1.98-1.01,1.98-2.26-.88-2.26-1.98-2.26M76.2,62.71c-1.09,0-1.98,1.01-1.98,2.26s.88,2.26,1.98,2.26,1.98-1.01,1.98-2.26-.89-2.26-1.98-2.26"/>
      </g>
    </g>
  </g>
</svg>