<?xml version="1.0" encoding="UTF-8"?>
<svg xmlns="http://www.w3.org/2000/svg" version="1.1" xmlns:xlink="http://www.w3.org/1999/xlink" viewBox="0 0 141.73 141.73">
  <defs>
    <style>
      .cls-1 {
        fill: #fdc16c;
      }

      .cls-2 {
        fill: #d46027;
      }

      .cls-3 {
        fill: #cccccb;
      }

      .cls-4 {
        fill: #c12026;
      }

      .cls-5 {
        fill: #ffd78d;
      }

      .cls-6 {
        fill: #ee5a23;
      }

      .cls-7 {
        fill: #f2c766;
      }

      .cls-8 {
        fill: #b5b4b4;
      }

      .cls-9 {
        fill: #fdbe62;
      }

      .cls-10 {
        fill: #f89621;
      }

      .cls-11 {
        fill: #f0ab4b;
      }

      .cls-12 {
        fill: #fff;
      }

      .cls-13 {
        fill: #fff7ca;
      }

      .cls-14 {
        fill: #bd9d62;
      }

      .cls-15 {
        fill: #e59a40;
      }

      .cls-16 {
        fill: #f8ce86;
      }

      .cls-17 {
        fill: #f8c345;
      }

      .cls-18 {
        fill: none;
      }

      .cls-19 {
        fill: #ffd78b;
      }

      .cls-20 {
        clip-path: url(#clippath-1);
      }

      .cls-21 {
        fill: #e0392b;
      }

      .cls-22 {
        fill: #f9a25e;
      }

      .cls-23 {
        fill: #f8d089;
      }

      .cls-24 {
        fill: #eea33f;
      }

      .cls-25 {
        fill: #f0c95d;
      }

      .cls-26 {
        fill: #f2d495;
      }

      .cls-27 {
        fill: #f8b356;
      }

      .cls-28 {
        fill: #ffd281;
      }

      .cls-29 {
        fill: #fbd096;
      }

      .cls-30 {
        fill: #c49857;
      }

      .cls-31 {
        clip-path: url(#clippath-3);
      }

      .cls-32 {
        fill: #f57e20;
      }

      .cls-33 {
        display: none;
      }

      .cls-34 {
        fill: #1c2e2e;
      }

      .cls-35 {
        fill: #faa551;
      }

      .cls-36 {
        fill: #fffffb;
      }

      .cls-37 {
        fill: #ec5c24;
      }

      .cls-38 {
        fill: #1e2e2f;
      }

      .cls-39 {
        clip-path: url(#clippath-2);
      }

      .cls-40 {
        fill: #f79421;
      }

      .cls-41 {
        fill: #f9b754;
      }

      .cls-42 {
        fill: #f47521;
      }

      .cls-43 {
        clip-path: url(#clippath);
      }

      .cls-44 {
        fill: #e0e0df;
      }

      .cls-45 {
        fill: #efc97a;
      }
    </style>
    <clipPath id="clippath">
      <rect class="cls-18" x="37.65" y="35.21" width="65.8" height="74.71"/>
    </clipPath>
    <clipPath id="clippath-1">
      <rect class="cls-18" x="30.87" y="38.24" width="79.37" height="65.76"/>
    </clipPath>
    <clipPath id="clippath-2">
      <rect class="cls-18" x="34.07" y="29.88" width="73.92" height="82.49"/>
    </clipPath>
    <clipPath id="clippath-3">
      <rect class="cls-18" x="43.32" y="34.99" width="54.45" height="72.31"/>
    </clipPath>
  </defs>
  <!-- Generator: Adobe Illustrator 28.7.0, SVG Export Plug-In . SVG Version: 1.2.0 Build 136)  -->
  <g>
    <g id="Layer_1">
      <g class="cls-33">
        <g class="cls-43">
          <path class="cls-3" d="M70.91,94.45c-13.78,0-24.96,3.46-24.96,7.73s11.17,7.73,24.96,7.73,24.96-3.46,24.96-7.73-11.17-7.73-24.96-7.73"/>
          <path class="cls-34" d="M41,39.54c-3.57,7.86,4.62,12.78,7.48,13.06,1.29.12,11.02-6.18,8.89-11.59-2.35-5.94-13.1-8.68-16.37-1.47M99.41,39.54c-3.28-7.21-14.03-4.47-16.37,1.47-2.13,5.4,7.6,11.71,8.89,11.59,2.87-.27,11.05-5.2,7.48-13.06"/>
          <path class="cls-34" d="M98.71,65c-2.77-10.35-8.76-20.22-16.61-25.34-3.51-2.3-7.39-3.65-11.54-3.65h0c-4.15,0-8.03,1.36-11.54,3.65-7.85,5.12-13.84,14.99-16.61,25.34-3.75,10.21-7.56,24.56-1.81,27.75,2.1,1.16,2.79.3,2.88-1.6,2.22,4.16,6.18,7.2,11.02,9.15-1.4.89.17,4.18,4.5,4.69,2.8.33,4.2-1.18,4.86-2.35,2.2.27,4.45.38,6.7.32,2.16.05,4.32-.05,6.44-.29.63,1.11,2.2,3.03,5.37,2.34,3.93-.86,4.47-3,4.07-4.64,4.92-1.95,8.96-5,11.2-9.22.09,1.9.79,2.76,2.88,1.6,5.74-3.18,1.94-17.53-1.81-27.75"/>
          <path class="cls-12" d="M94.08,61.27c-4.12-11.1-10.78-18.84-23.16-18.84s-19.16,7.74-23.29,18.84c-5.41,14.57,5.39,27.56,23.31,27.56s28.54-13,23.13-27.56"/>
          <path class="cls-34" d="M64.85,51.85c-13.58-.98-13.98,12.97-8.96,15.14,5.02,2.16,7.38-1.18,8.96-4.13,1.58-2.95,5.96-10.58,0-11.01M76.26,51.85c-5.96.43-1.58,8.06,0,11.01,1.57,2.95,3.94,6.29,8.96,4.13,5.02-2.16,4.63-16.12-8.96-15.14"/>
          <path class="cls-12" d="M62.99,54.38c-8.3-.6-8.54,7.86-5.47,9.17,3.07,1.31,4.51-.72,5.47-2.5.96-1.79,3.64-6.41,0-6.67M78.12,54.38c-3.65.26-.96,4.88,0,6.67.96,1.79,2.41,3.81,5.47,2.5,3.07-1.31,2.83-9.77-5.47-9.17"/>
          <path class="cls-34" d="M61.77,56.49c-1.36,0-2.46,1.26-2.46,2.81s1.1,2.81,2.46,2.81,2.46-1.26,2.46-2.81-1.1-2.81-2.46-2.81M79.34,56.49c-1.36,0-2.46,1.26-2.46,2.81s1.1,2.81,2.46,2.81,2.46-1.26,2.46-2.81-1.1-2.81-2.46-2.81"/>
          <path class="cls-34" d="M70.56,63.52c-2.72,0-4.92-.15-4.92,1.41s2.2,4.22,4.92,4.22,4.92-2.66,4.92-4.22-2.2-1.41-4.92-1.41"/>
        </g>
      </g>
      <g class="cls-33">
        <g class="cls-20">
          <path class="cls-3" d="M70.27,89.13c-14.84,0-26.88,3.33-26.88,7.43s12.03,7.43,26.88,7.43,26.88-3.33,26.88-7.43-12.03-7.43-26.88-7.43"/>
          <path class="cls-4" d="M98.87,38.24c.7,9.47-2.04,14.87-2.04,14.87,0,0-3.25-2.13-4.29-6.12-3.65,5.32,4.24,12.77,4.24,12.77,0,0-1.88,1.93-4.42,3.94-1.93-5.56-4.98-10.74-8.82-14.51.11-.49.17-1,.17-1.52,0-3.95-3.26-7.15-7.29-7.15-2.3,0-4.34,1.04-5.68,2.67-.11,0-.22,0-.32,0-.48,0-.95.02-1.42.07-1.33-1.66-3.4-2.73-5.73-2.73-4.03,0-7.29,3.2-7.29,7.15,0,.85.15,1.67.43,2.42-3.39,3.63-6.1,8.37-7.88,13.42-2.42-1.94-4.19-3.76-4.19-3.76,0,0,7.9-7.45,4.24-12.77-1.04,4-4.29,6.12-4.29,6.12,0,0-2.73-5.4-2.04-14.87-21.15,10.43-7.51,24.24-1.14,24.39.45.81,2.99,3.19,6.12,5.26-.98,4.09-1.33,8.24-.92,12.06.19,2.15.58,4.21,1.23,6.13.34,1.02.8,1.96,1.36,2.84-.9.35-1.85.83-2.39,1.41-1.25,1.33-2.03,5.65-1.34,5.68.68.03,1.64-3.92,2.94-4.36.53-.18,1.44-.47,2.32-.75.17.18.34.36.52.53-.9.57-1.9,1.38-2.26,2.39-.73,2-.49,5.98.17,5.83.67-.15.57-4.22,1.72-4.98.54-.36,1.53-.99,2.42-1.56.26.18.52.35.78.52-.62.52-1.35,1.27-1.72,2.21-.73,1.82.2,4.79.71,4.6.51-.18.03-3.4.86-4.11.44-.38,1.29-1.08,1.99-1.66,4.22,2.11,9.51,3.08,14.8,2.95,4.68.12,9.36-.63,13.3-2.27.72.6,1.64,1.36,2.1,1.76.83.72.35,3.93.86,4.11.51.18,1.2-2.54.71-4.6-.24-1.03-.94-1.77-1.58-2.26.25-.13.5-.27.74-.41.86.55,1.8,1.15,2.32,1.49,1.15.76,1.05,4.83,1.72,4.98.67.15.84-3.95.17-5.83-.3-.86-1.15-1.61-1.98-2.18.24-.19.47-.4.7-.6.73.23,1.42.45,1.86.6,1.31.44,2.26,4.39,2.94,4.36.68-.03-.43-4.34-1.34-5.68-.32-.47-.99-.87-1.71-1.19.89-1.15,1.59-2.42,2.07-3.84.64-1.91,1.04-3.98,1.23-6.13.4-3.76.06-7.85-.88-11.89,3.25-2.11,5.91-4.6,6.37-5.43,6.38-.15,20.02-13.96-1.13-24.39"/>
          <path class="cls-21" d="M70.41,64.55c-8.29,0-21.92-3.69-19.96,14.64.15,1.77.48,3.48,1.02,5.06,2.25,6.68,10.37,9.83,18.95,9.83s16.69-3.15,18.95-9.83c.53-1.58.86-3.29,1.02-5.06,1.88-17.61-11.67-14.64-19.96-14.64"/>
          <path class="cls-12" d="M81.78,47.3c-.22-2.69-2.79-4.76-5.75-4.63-2.96.13-5.19,2.42-4.97,5.11.22,2.69,2.79,4.76,5.75,4.63,2.96-.13,5.18-2.42,4.97-5.11"/>
          <path class="cls-12" d="M68.91,47.3c-.22-2.69-2.79-4.76-5.75-4.63-2.96.13-5.19,2.42-4.97,5.11.22,2.69,2.79,4.76,5.75,4.63,2.96-.13,5.18-2.42,4.97-5.11"/>
          <path class="cls-34" d="M76.42,44.98c-1.11,0-2,1.02-2,2.29s.9,2.29,2,2.29,2-1.02,2-2.29-.9-2.29-2-2.29"/>
          <path class="cls-34" d="M63.84,44.98c-1.11,0-2,1.02-2,2.29s.9,2.29,2,2.29,2-1.02,2-2.29-.9-2.29-2-2.29"/>
        </g>
      </g>
      <g class="cls-33">
        <g class="cls-39">
          <path class="cls-8" d="M84.92,100.2c-5.26,3.5-12.47,5.2-19.78,5.2-.39,0-.77,0-1.16-.01-.39,0-.77.01-1.16.01-7.17,0-14.25-1.63-19.49-5-2.55,1.21-4.03,2.66-4.03,4.22,0,4.28,11.21,7.76,25.03,7.76s25.03-3.47,25.03-7.76c0-1.64-1.64-3.16-4.44-4.41"/>
          <path class="cls-32" d="M106.63,76.96c-3.12-1.96-6.95-1.75-9.32.51-1.01.96-3.97,4.59.1,11.19,1.17,1.89.5,2.53.28,2.75-1.41,1.35-5.79,1.75-9.72-.66-1.38-.85-3.21-.44-4.08.91-.87,1.35-.45,3.14.93,3.99,2.86,1.76,6.13,2.63,9.16,2.63s5.94-.91,7.85-2.74c2.64-2.54,2.88-6.23.64-9.86-1.43-2.32-1.4-3.72-1.04-4.06.28-.26,1.13-.34,2.01.21,1.37.86,3.2.48,4.08-.87.88-1.34.49-3.13-.89-4"/>
          <path class="cls-38" d="M106.63,76.96c-.74-.46-1.52-.8-2.31-1.02-.96,1.02-1.56,2.44-1.56,4,0,.58.08,1.14.24,1.66.14.06.29.13.44.22,1.37.86,3.2.48,4.08-.87.88-1.34.49-3.13-.89-4"/>
          <path class="cls-38" d="M79.74,102.25c-.86-2.24-.2-.53-3.77.25-3.57.78-5.87,1.85-5.87,1.85,0,0,1.33,4.04,5.72,3.08,4.39-.96,4.56-3.52,3.92-5.19M47.99,102.64c-1.6.79-.06,4.25,4.41,4.78,4.46.52,5.4-3.62,5.4-3.62,0,0-1.45-.25-5.09-.68-3.63-.43-3.11-1.27-4.72-.48"/>
          <path class="cls-32" d="M40.42,38.86c-3.49,2.12-4.36,7.08-1.93,11.06,2.42,3.98,7.22,5.49,10.72,3.37,3.49-2.13,4.36-7.08,1.93-11.06-2.42-3.99-7.22-5.49-10.72-3.37M88.26,38.86c-3.49-2.12-8.29-.62-10.72,3.37-2.43,3.99-1.56,8.94,1.93,11.06,3.49,2.12,8.29.62,10.72-3.37,2.42-3.99,1.56-8.94-1.93-11.06"/>
          <path class="cls-35" d="M41.59,41.19c-2.39,1.44-2.98,4.81-1.32,7.52s4.95,3.73,7.34,2.29c2.39-1.44,2.98-4.81,1.32-7.51-1.66-2.71-4.95-3.73-7.34-2.29M87.09,41.19c-2.39-1.44-5.68-.42-7.34,2.29-1.66,2.71-1.07,6.07,1.32,7.51,2.39,1.44,5.68.42,7.34-2.29s1.07-6.07-1.32-7.52"/>
          <path class="cls-32" d="M75.81,42.07c-2.27-1.52-4.7-2.65-7.26-3.27,1.27-2.66,3.19-4.7,3.19-4.7l-4.94.71,1.41-4.94s-6.42,3.82-8.93,8.96c-2.51.63-4.89,1.74-7.12,3.24-11.89,7.95-19.46,26.76-17.89,41.5.23,2.65.72,5.19,1.51,7.55,3.35,9.98,15.78,14.56,28.2,14.25,12.43.31,24.85-4.28,28.2-14.25.79-2.36,1.28-4.91,1.51-7.55,1.57-14.73-5.99-33.55-17.89-41.5"/>
          <path class="cls-38" d="M75.64,97.83c-.27,1.86,6.8,1.73,13.92-1.88,1.13-1.44,2.03-3.04,2.63-4.83.47-1.39.82-2.86,1.08-4.37-6.69,6.34-17.34,9.03-17.63,11.07M34.7,86.76c.27,1.51.62,2.97,1.08,4.36.6,1.78,1.5,3.39,2.63,4.83,7.12,3.61,14.19,3.73,13.92,1.88-.3-2.04-10.94-4.73-17.63-11.07M93.41,73.12c-1.67,4.71-11.77,13-11.2,14.1.56,1.1,7.6-1.18,11.67-6.38.08-2.51-.09-5.11-.47-7.73M45.76,87.22c.57-1.1-9.53-9.39-11.2-14.1-.38,2.62-.55,5.22-.47,7.73,4.07,5.19,11.11,7.47,11.67,6.38M43.71,75.87c1.07-1.68-4.58-10.32-5.57-15.51-1.03,2.44-1.87,4.97-2.52,7.52,2.38,5.48,7.04,9.64,8.09,7.99M92.36,67.88c-.65-2.55-1.5-5.08-2.52-7.52-.99,5.19-6.64,13.83-5.57,15.51,1.05,1.66,5.71-2.51,8.09-7.99"/>
          <path class="cls-22" d="M69.01,64.42c-1.66,0-3.05.7-3.97,1.75-.92-1.06-2.31-1.75-3.97-1.75-3.3,0-5.55,2.76-5.1,5.67.39,2.46,2.65,4.2,5.1,4.2,1.53,0,2.99-.68,3.97-1.8.97,1.11,2.43,1.8,3.97,1.8,2.45,0,4.71-1.74,5.1-4.2.45-2.9-1.79-5.67-5.1-5.67"/>
          <path class="cls-38" d="M64.69,63.19c-2.73,0-4.94-.18-4.94,1.72s2.21,5.15,4.94,5.15,4.93-3.26,4.93-5.15-2.21-1.72-4.93-1.72"/>
          <path class="cls-12" d="M74.21,47.5c-3.31,0-5.99,3.16-5.99,7.05s2.68,7.05,5.99,7.05,5.99-3.16,5.99-7.05-2.68-7.05-5.99-7.05M55.18,47.5c-3.31,0-5.99,3.16-5.99,7.05s2.68,7.05,5.99,7.05,5.99-3.16,5.99-7.05-2.68-7.05-5.99-7.05"/>
          <path class="cls-35" d="M84.35,70.83c-.71-3.18-5.2-6.4-9.43-5.62-.4.07-.66.44-.61.82-.03.35.19.69.56.78,3.48.9,5.47,5.05,4.92,7.28-.1.4.15.8.56.89.06.01.12.02.18.02.34,0,.65-.23.74-.57.58-2.36-.73-5.62-3.15-7.58,2.41.72,4.4,2.68,4.76,4.29.08.35.39.58.74.58.05,0,.11,0,.16-.02.41-.09.67-.48.58-.88"/>
          <path class="cls-35" d="M55.17,65.21c-4.23-.78-8.72,2.43-9.43,5.62-.09.4.17.79.58.88.05.01.11.02.16.02.35,0,.66-.24.74-.58.36-1.61,2.35-3.57,4.75-4.29-2.42,1.96-3.73,5.22-3.15,7.58.08.34.39.57.74.57.06,0,.12,0,.18-.02.41-.1.66-.49.56-.89-.54-2.23,1.45-6.38,4.92-7.28.36-.09.59-.43.56-.78.05-.39-.21-.75-.61-.82"/>
          <path class="cls-38" d="M56.89,52.44c-1.14,0-2.07,1.11-2.07,2.47s.93,2.47,2.07,2.47,2.07-1.1,2.07-2.47-.93-2.47-2.07-2.47M72.49,52.44c-1.14,0-2.07,1.11-2.07,2.47s.93,2.47,2.07,2.47,2.07-1.1,2.07-2.47-.93-2.47-2.07-2.47"/>
        </g>
      </g>
      <g class="cls-31">
        <path class="cls-14" d="M49.54,35.27c15.77-.24,31.8-.57,47.46.17-15.53-.08-31.07.1-46.6-.07-.22-.03-.64-.07-.86-.1"/>
        <path class="cls-37" d="M43.65,41.29c.55-2.93,2.88-5.56,5.89-6.02.21.02.64.07.86.1.58,3.14.42,6.38.22,9.55-.09,1.12-1.32,1.19-2.12,1.59-1.76.77-3.08,2.21-4.42,3.53-.53-2.88-.33-5.83-.42-8.74"/>
        <path class="cls-10" d="M60.39,77.66c-.06,1.46-.07,2.93,0,4.4,9.74.08,19.48.03,29.22.02.05-1.47.06-2.93,0-4.4-9.74-.08-19.48-.03-29.22-.02M61.48,55.79c-.27,0-.82.02-1.1.03-.03,5.53-.04,11.07,0,16.6,9.22.05,18.45.08,27.67-.02,1.02-.04,2.86.66,1.58-1.8-.28-4.81.51-10.61-.38-14.81-8.41-.63-19.35-.61-27.77-.01M60.38,50.58c9.74.08,19.48.03,29.22.02-.38-1.37,1.24-4.96-1.14-4.42-9.14-.04-18.28.04-27.42-.04-1.74.13-.15,3.31-.66,4.44M50.39,35.37c15.53.18,31.07,0,46.6.07.11.1.33.28.44.38-.11,19-.01,38.01-.05,57.01-16.07-.04-32.14.07-48.21-.06,2.24-.5,1.26-3.53,1.59-5.12-.21-1.69.96-5.64-1.97-5.32,2.73.24,2.56-5.43-.31-4.34.5-.15,1.49-.47,1.99-.62.62-8.01.07-16.12.28-24.17-.39-.7.51-2.34-.64-2.73.19-1.81,1.1-4.69-1.64-3.96.8-.4,2.03-.47,2.12-1.59.2-3.17.36-6.41-.22-9.55"/>
        <path class="cls-30" d="M97.44,35.82l.32-.02c0,23.72.03,47.45-.01,71.17l-.3-.14c-.03-.45-.06-.9-.08-1.35.02-3.62.04-7.24.01-10.86,0-.6.01-1.2.01-1.79.04-19-.06-38.01.05-57.01"/>
        <path class="cls-9" d="M60.38,50.58c.51-1.13-1.07-4.32.66-4.44-.23,1.34-.34,2.7-.32,4.07,9.51.06,19.02.07,28.53,0-.4-1.22.72-3.31-.79-4.03,2.38-.54.76,3.06,1.14,4.42-9.74,0-19.48.06-29.22-.02"/>
        <path class="cls-19" d="M61.04,46.14c9.14.08,18.28,0,27.42.04,1.51.72.39,2.81.79,4.03-9.51.07-19.02.06-28.53,0-.02-1.37.09-2.72.32-4.07"/>
        <path class="cls-23" d="M44.07,50.03c1.34-1.32,2.66-2.76,4.42-3.53,2.74-.73,1.82,2.15,1.64,3.96-2.67.53-5.42,2.04-6.12,4.87-.09.19-.26.58-.35.78l-.33.1c0-1.58.13-3.16.27-4.74.16-.48.33-.96.47-1.44"/>
        <path class="cls-6" d="M44.01,55.34c.7-2.83,3.44-4.34,6.12-4.87.62,8.95-.03,17.94.36,26.9-.5.16-1.49.47-1.98.62-1.67.71-3.04,1.99-4.13,3.42-.83-.31-1.03-1.04-.58-2.19.58-7.94.23-15.92.22-23.88"/>
        <path class="cls-42" d="M50.12,50.47c1.15.39.25,2.03.64,2.73-.21,8.05.34,16.16-.28,24.16-.39-8.96.26-17.95-.36-26.9"/>
        <path class="cls-2" d="M43.66,56.11c.08-.2.26-.58.35-.78.01,7.96.36,15.94-.22,23.88-.2-7.7,0-15.4-.13-23.1"/>
        <path class="cls-24" d="M61.48,55.79c8.42-.6,19.36-.62,27.77.01-9.26-.02-18.51.01-27.77-.01"/>
        <path class="cls-28" d="M61.87,57.3c.2,4.3-.52,9.62.35,13.31v.35c8.38-.17,17.82.5,25.52-.35.1-4.22-.02-8.44.06-12.65-.01-.16-.05-.49-.06-.65-8.62-.06-17.25-.03-25.87-.01M60.38,55.83c.27-.01.82-.03,1.1-.03,9.25.03,18.51,0,27.77.01-.06,5.29.11,10.58-.04,15.86.02.58-.81.48-1.15.74-9.22.1-18.45.08-27.67.02-.04-5.54-.04-11.07,0-16.6"/>
        <path class="cls-27" d="M89.25,55.8c.89,4.2.11,10,.38,14.81,1.28,2.45-.56,1.75-1.58,1.8.35-.26,1.17-.17,1.15-.74.14-5.28-.02-10.57.04-15.86"/>
        <path class="cls-11" d="M61.87,57.3c8.62-.02,17.25-.04,25.87.01.01.16.05.49.06.65-8.49-.64-17.05-.2-25.56-.26-.09,4.3-.01,8.61-.02,12.91-.88-3.69-.16-9.01-.35-13.31"/>
        <path class="cls-40" d="M62.25,57.69c8.51.06,17.07-.38,25.56.26-.08,4.21.04,8.44-.06,12.65-8.51,0-17.01.01-25.52,0,.01-4.3-.07-8.61.02-12.91"/>
        <path class="cls-41" d="M62.22,70.6c8.5.02,17.01,0,25.52,0-7.7.84-17.13.18-25.51.35v-.35Z"/>
        <path class="cls-1" d="M60.75,78.04v3.66c9.5.05,19,.03,28.5,0v-3.66c-9.5-.05-19-.03-28.5,0M60.39,77.66c9.74,0,19.49-.06,29.22.02.05,1.46.04,2.93,0,4.4-9.74,0-19.49.06-29.22-.02-.06-1.47-.06-2.93,0-4.4"/>
        <path class="cls-16" d="M44.37,81.41c1.09-1.43,2.45-2.71,4.13-3.42,2.87-1.09,3.04,4.59.31,4.34-2.55.7-4.82,2.94-5.15,5.63l-.34.08c0-1.6.08-3.2.17-4.8.28-.62.58-1.23.87-1.84"/>
        <path class="cls-5" d="M60.75,78.04c9.5-.03,19-.04,28.5,0v3.66c-9.5.03-19,.04-28.5,0v-3.66Z"/>
        <path class="cls-37" d="M43.66,87.96c.33-2.69,2.6-4.92,5.15-5.63,2.93-.32,1.76,3.63,1.97,5.32-.33,1.59.65,4.62-1.59,5.12-2.26.61-4.07,2.21-5.24,4.21-.31-3-.23-6.01-.29-9.02"/>
        <path class="cls-17" d="M43.95,96.98c1.17-2,2.98-3.59,5.24-4.21,16.07.13,32.14.02,48.21.06,0,.6,0,1.19-.01,1.79-.19.09-.57.27-.77.36l-.29-.02c-15.53-.44-31.29-.56-46.73.04-.12.08-.36.23-.48.3-1.8.84-3.37,2.49-3.25,4.59-.47,2.46,1.42,4.19,3.34,5.22,2.06.39,4.17.28,6.27.38,11.89.51,23.84.41,35.73.05,1.69-.15,3.46.03,5.14-.39l.28-.06c.19.1.56.28.75.38.02.45.05.9.08,1.35-.11.11-.34.33-.45.43-1.83,0-3.63.03-5.45-.06-13.12-.53-26.32-.45-39.44-.05-1.77.39-3.4-.31-5.1-.57-.41-.74-.99-1.35-1.85-1.53-.31-1.08-.89-2.06-1.5-2.99l-.1-.28c.09-1.6.25-3.2.38-4.8"/>
        <path class="cls-45" d="M49.6,95.01c15.44-.6,31.2-.48,46.73-.04-.27.04-.8.11-1.07.15-15.22-.17-30.44.02-45.66-.11"/>
        <path class="cls-15" d="M96.62,94.99c.19-.09.57-.27.77-.36.03,3.62.01,7.24-.01,10.86-.19-.1-.56-.28-.75-.38.04-3.37.04-6.75,0-10.12"/>
        <path class="cls-13" d="M49.12,95.31c.12-.07.36-.23.48-.3,15.22.13,30.44-.07,45.66.11-15.35.63-30.77.25-46.14.2"/>
        <path class="cls-36" d="M95.26,95.12c.27-.04.8-.11,1.07-.15-.04,1.75-.03,3.51-.05,5.26-16.79-.26-33.69.5-50.41-.33-.12-2.1,1.46-3.75,3.25-4.59,15.37.06,30.79.43,46.14-.2"/>
        <path class="cls-29" d="M96.33,94.97l.29.02c.05,3.37.04,6.75,0,10.12l-.28.06c-.04-1.65-.05-3.29-.07-4.93.02-1.75.01-3.51.05-5.26"/>
        <path class="cls-44" d="M45.87,99.9c16.72.83,33.62.07,50.41.33.02,1.64.03,3.28.07,4.93-15.71-.23-31.43-.14-47.14-.05-1.91-1.03-3.81-2.76-3.34-5.22"/>
        <path class="cls-26" d="M49.21,105.12c15.71-.09,31.43-.18,47.14.04-1.68.42-3.44.23-5.14.39-11.91-.24-23.82-.18-35.73-.06-2.1-.09-4.21.01-6.27-.38"/>
        <path class="cls-7" d="M55.47,105.5c11.91-.12,23.82-.18,35.73.06-11.89.36-23.85.45-35.73-.06"/>
        <path class="cls-25" d="M52.12,107.16c13.12-.4,26.32-.48,39.44.05-13.15.1-26.3.16-39.44-.05"/>
      </g>
    </g>
  </g>
</svg>