<?xml version="1.0" encoding="UTF-8"?>
<svg xmlns="http://www.w3.org/2000/svg" version="1.1" viewBox="0 0 285.65 475.84">
  <defs>
    <style>
      .cls-1 {
        fill: #e75677;
      }

      .cls-1, .cls-2, .cls-3, .cls-4, .cls-5 {
        fill-rule: evenodd;
      }

      .cls-2 {
        fill: #f27897;
      }

      .cls-3 {
        fill: #f9e0e5;
      }

      .cls-6 {
        opacity: .2;
      }

      .cls-4 {
        fill: #1d2e2f;
      }

      .cls-5 {
        fill: #010101;
      }
    </style>
  </defs>
  <!-- Generator: Adobe Illustrator 28.7.0, SVG Export Plug-In . SVG Version: 1.2.0 Build 136)  -->
  <g>
    <g id="Layer_1">
      <g>
        <g id="Elipsa_4" class="cls-6">
          <path class="cls-5" d="M146.7,391.12c-39.21,0-71,9.85-71,22s31.79,22,71,22,71-9.85,71-22-31.79-22-71-22Z"/>
        </g>
        <g id="shape">
          <path class="cls-4" d="M100.32,407.51c-4.54,2.23-.16,12.06,12.5,13.55,12.66,1.49,15.31-10.28,15.31-10.28,0,0-4.13-.7-14.43-1.91-10.3-1.21-8.84-3.59-13.38-1.36ZM190.39,406.41c-2.45-6.35-.56-1.5-10.7.71-10.14,2.21-16.66,5.26-16.66,5.26,0,0,3.78,11.46,16.24,8.74,12.46-2.72,12.94-9.99,11.12-14.71Z"/>
        </g>
        <g id="shape-2" data-name="shape">
          <path class="cls-1" d="M215.53,268.05c-8.94-20.8-24.45-51.78-37.06-45.02-12.61,6.76,13.19,49.24,10.94,67.14-2.26,17.9,27.84,58.9,34.87,34.47,3.18-11.05.19-35.8-8.74-56.6ZM112.92,223.03c-12.61-6.76-28.12,24.22-37.06,45.02-8.94,20.8-11.92,45.55-8.74,56.6,7.02,24.42,37.12-16.57,34.87-34.47-2.26-17.9,23.55-60.38,10.94-67.14Z"/>
        </g>
        <g id="shape-3" data-name="shape">
          <path class="cls-2" d="M178.53,235.25c-9.99-6.53-21.03-10.38-32.83-10.39,0,0,0,0-.01,0h0s0,0-.01,0c-11.79,0-22.84,3.85-32.83,10.39-34.17,22.29-55.96,76.18-51.44,118.28.65,7.48,2.04,14.67,4.28,21.33,9.52,28.3,44.75,41.29,80,40.43,35.25.86,70.48-12.13,80-40.43,2.24-6.66,3.63-13.85,4.28-21.33,4.52-42.1-17.27-95.99-51.44-118.28Z"/>
        </g>
        <g id="shape-4" data-name="shape">
          <path class="cls-2" d="M161.97,53.57c-4.95-2.8-10.42-4.45-16.27-4.45,0,0,0,0,0,0,0,0,0,0,0,0-5.84,0-11.32,1.65-16.27,4.45-16.93,9.55-27.73,32.66-25.49,50.7.32,3.21,1.01,6.29,2.12,9.14,4.72,12.13,22.17,17.7,39.64,17.33,17.47.37,34.92-5.2,39.64-17.33,1.11-2.86,1.8-5.94,2.12-9.14,2.24-18.05-8.56-41.15-25.49-50.7Z"/>
        </g>
        <g id="Elipsa_84">
          <path class="cls-2" d="M165.99,250.32c-11.43-61.04-13.2-116.31-3.43-123.14,5.58-3.9-8.32-12.07-16.87-12.07s-21.74,9.65-16.41,13.61c10,7.41,10.46,61.02-3.51,121.6-2.08,9.04,8.08,16.8,20.1,16.8s21.81-7.68,20.1-16.8Z"/>
        </g>
        <g id="shape-5" data-name="shape">
          <path class="cls-4" d="M125.7,77.12c-3.31,0-6,3.13-6,7s2.69,7,6,7,6-3.13,6-7-2.69-7-6-7ZM165.87,77.12c-3.22,0-5.82,3.13-5.82,7s2.61,7,5.82,7,5.82-3.13,5.82-7-2.61-7-5.82-7Z"/>
        </g>
        <g id="shape-6" data-name="shape">
          <path class="cls-3" d="M171.7,105.12c0-4.57-4.06-8.62-10.34-11.18-2.65-5.05-7.68-8.82-15.66-8.82s-13.01,3.78-15.66,8.82c-6.28,2.56-10.34,6.61-10.34,11.18s4.24,8.79,10.75,11.34c4.56,15.09,13.36,36.66,15.25,36.66s10.69-21.58,15.25-36.66c6.51-2.54,10.75-6.67,10.75-11.34Z"/>
        </g>
        <g id="Elipsa_88">
          <path class="cls-4" d="M145.7,127.12c-3.89,0-7.49,1.32-10.44,3.54,4.31,11.66,9.1,22.46,10.44,22.46s6.13-10.8,10.43-22.46c-2.95-2.22-6.54-3.54-10.43-3.54Z"/>
        </g>
      </g>
    </g>
  </g>
</svg>