<?xml version="1.0" encoding="UTF-8"?>
<svg xmlns="http://www.w3.org/2000/svg" version="1.1" viewBox="0 0 332.16 313.05">
  <defs>
    <style>
      .cls-1 {
        fill: #b9da93;
      }

      .cls-2 {
        fill: #bcdb94;
      }

      .cls-3 {
        fill: #9e887b;
      }

      .cls-4 {
        fill: #bbaa96;
      }

      .cls-5 {
        fill: #f598a8;
      }

      .cls-6 {
        fill: #c4737b;
      }

      .cls-7 {
        fill: #ec8690;
      }

      .cls-8 {
        fill: #fbe5e3;
      }

      .cls-9 {
        fill: #f69e9b;
      }

      .cls-10 {
        fill: #5b9a42;
      }

      .cls-11 {
        fill: #f7a5a5;
      }

      .cls-12 {
        fill: #f28389;
      }

      .cls-13 {
        fill: #cc8385;
      }

      .cls-14 {
        fill: #e37e87;
      }

      .cls-15 {
        fill: #3f7136;
      }

      .cls-16 {
        fill: #b7a194;
      }

      .cls-17 {
        fill: #ee99a0;
      }

      .cls-18 {
        fill: #cf2027;
      }

      .cls-19 {
        fill: #ef3b3b;
      }

      .cls-20 {
        fill: #b6d98e;
      }

      .cls-21 {
        fill: #e17882;
      }

      .cls-22 {
        fill: #cd8990;
      }

      .cls-23 {
        fill: #c88185;
      }

      .cls-24 {
        fill: #722716;
      }

      .cls-25 {
        fill: #aed687;
      }

      .cls-26 {
        fill: #b8a294;
      }

      .cls-27 {
        fill: #b8d98c;
      }

      .cls-28 {
        fill: #b0cf8e;
      }

      .cls-29 {
        fill: #bd9f91;
      }

      .cls-30 {
        fill: #fde4e1;
      }

      .cls-31 {
        fill: #941a1d;
      }

      .cls-32 {
        fill: #f38291;
      }

      .cls-33 {
        fill: #a4c585;
      }

      .cls-34 {
        fill: #becda2;
      }

      .cls-35 {
        fill: #cb8085;
      }

      .cls-36 {
        fill: #e07a82;
      }

      .cls-37 {
        fill: #653920;
      }

      .cls-38 {
        fill: #c24558;
      }

      .cls-39 {
        fill: #f37e94;
      }

      .cls-40 {
        fill: #d59196;
      }

      .cls-41 {
        fill: #af978e;
      }

      .cls-42 {
        fill: #e86a7a;
      }

      .cls-43 {
        fill: #b5d88c;
      }

      .cls-44 {
        fill: #98502d;
      }

      .cls-45 {
        fill: #bda79e;
      }

      .cls-46 {
        fill: #b8a59a;
      }

      .cls-47 {
        fill: #ae9b8c;
      }

      .cls-48 {
        fill: #b1ce8f;
      }

      .cls-49 {
        fill: #a7d382;
      }

      .cls-50 {
        fill: #c3aea0;
      }

      .cls-51 {
        fill: #6bb545;
      }

      .cls-52 {
        fill: #8f4d2c;
      }

      .cls-53 {
        fill: #9d1c20;
      }

      .cls-54 {
        fill: #e37d7f;
      }

      .cls-55 {
        fill: #daa0a5;
      }

      .cls-56 {
        fill: #7a4d37;
      }

      .cls-57 {
        fill: #a71e22;
      }

      .cls-58 {
        fill: #f8bbc8;
      }

      .cls-59 {
        fill: #b2d28b;
      }

      .cls-60 {
        fill: #f38499;
      }

      .cls-61 {
        fill: #bddc92;
      }

      .cls-62 {
        fill: #bd6c73;
      }

      .cls-63 {
        fill: #c5aaa1;
      }

      .cls-64 {
        fill: #f0b0b7;
      }

      .cls-65 {
        fill: #b09589;
      }

      .cls-66 {
        fill: #547736;
      }

      .cls-67 {
        fill: #b4cd8d;
      }

      .cls-68 {
        fill: #9ec17e;
      }

      .cls-69 {
        fill: #f48e8e;
      }

      .cls-70 {
        fill: #9cc17a;
      }

      .cls-71 {
        fill: #c07478;
      }

      .cls-72 {
        fill: #acc493;
      }

      .cls-73 {
        fill: #ae9486;
      }

      .cls-74 {
        fill: #cb616f;
      }

      .cls-75 {
        fill: #be7376;
      }

      .cls-76 {
        fill: #90191c;
      }

      .cls-77 {
        fill: #6cb545;
      }

      .cls-78 {
        fill: #c4a59a;
      }

      .cls-79 {
        fill: #a9c783;
      }

      .cls-80 {
        fill: #f69c98;
      }

      .cls-81 {
        fill: #fde6e0;
      }

      .cls-82 {
        fill: #be2026;
      }

      .cls-83 {
        fill: #a96263;
      }

      .cls-84 {
        fill: #a5d178;
      }

      .cls-85 {
        fill: #b2c98c;
      }

      .cls-86 {
        fill: #cb8185;
      }

      .cls-87 {
        fill: #e37081;
      }

      .cls-88 {
        fill: #8bc63f;
      }

      .cls-89 {
        fill: #315226;
      }

      .cls-90 {
        fill: #adcd90;
      }

      .cls-91 {
        fill: #d38b90;
      }

      .cls-92 {
        fill: #d5767d;
      }

      .cls-93 {
        fill: #e37181;
      }

      .cls-94 {
        fill: #ef7b7c;
      }

      .cls-95 {
        fill: #b29590;
      }

      .cls-96 {
        fill: #ef474b;
      }

      .cls-97 {
        fill: #f59bac;
      }

      .cls-98 {
        fill: #dd1f26;
      }

      .cls-99 {
        fill: #a2bf80;
      }

      .cls-100 {
        fill: #b97578;
      }

      .cls-101 {
        fill: #d97887;
      }

      .cls-102 {
        fill: #b0d68d;
      }

      .cls-103 {
        fill: #c5cfa7;
      }

      .cls-104 {
        fill: #c9e3b0;
      }

      .cls-105 {
        fill: #c88389;
      }

      .cls-106 {
        fill: #417136;
      }

      .cls-107 {
        fill: #f59091;
      }

      .cls-108 {
        fill: #f0484b;
      }

      .cls-109 {
        fill: #305126;
      }

      .cls-110 {
        fill: #5b9942;
      }

      .cls-111 {
        fill: #ce2027;
      }

      .cls-112 {
        fill: #bddc94;
      }

      .cls-113 {
        fill: #bf2026;
      }

      .cls-114 {
        fill: #accb8c;
      }

      .cls-115 {
        fill: #f69aa0;
      }

      .cls-116 {
        fill: #d4e8c2;
      }

      .cls-117 {
        fill: #a0c484;
      }

      .cls-118 {
        fill: #f0b3b8;
      }

      .cls-119 {
        fill: #99ba7b;
      }

      .cls-120 {
        fill: #884e32;
      }

      .cls-121 {
        fill: #c17e80;
      }
    </style>
  </defs>
  <!-- Generator: Adobe Illustrator 28.7.0, SVG Export Plug-In . SVG Version: 1.2.0 Build 136)  -->
  <g>
    <g id="Layer_1">
      <g>
        <path class="cls-70" d="M236.56,36.21c3.39-.75,11.55-1.9,14.81-.03-4.94-.08-9.88-.11-14.81.03Z"/>
        <path class="cls-117" d="M232.93,36.95c.06-1.35,2.26-1.2,3.07-.55-.98.41-2.03.51-3.07.55Z"/>
        <path class="cls-110" d="M236,36.39l.56-.18c4.93-.15,9.87-.11,14.81-.03.32.06.97.16,1.3.21,1.41.29,2.83.49,4.28.61.97.13,2.9.39,3.86.52l.64.17c.99.39,2.06.46,3.12.34,1.04-.05,2.09.04,3.14.17,4.32.68,8.74.66,13.07,0,1.83-.82,2.29.71.89,1.8-.24.15-.74.45-.98.6-4.67,2.39-8.59,6.44-13.84,7.51-9.91.41-20.37,2.94-30.26-.42-7.64-2.64-15.92-3.74-23.53-.71.24-.32.71-.95.96-1.27,1-.2,1.76-.91,2.32-1.74,4.13-3.04,9.05-5.44,14.1-6.56.87.08,1.75-.04,2.52-.48,1.04-.04,2.09-.15,3.07-.55Z"/>
        <path class="cls-28" d="M252.66,36.39c1.18-.59,3.89-1.05,4.28.61-1.45-.12-2.87-.32-4.28-.61Z"/>
        <path class="cls-79" d="M230.41,37.43c-.08-1.17,1.88-1.09,2.52-.48-.76.45-1.65.56-2.52.48Z"/>
        <path class="cls-59" d="M256.94,37c1.03-.67,3.58-1.03,3.86.52-.97-.13-2.9-.39-3.86-.52Z"/>
        <path class="cls-119" d="M261.45,37.7c.76-.61,2.97-.93,3.12.34-1.06.12-2.13.06-3.12-.34Z"/>
        <path class="cls-2" d="M267.7,38.21c4.34-.13,8.72-.43,13.07,0-4.33.66-8.75.67-13.07,0Z"/>
        <path class="cls-102" d="M280.67,40.61c.24-.15.74-.45.98-.6.38,1.13-.52,2.99-1.81,3.01.27-.8.55-1.6.83-2.41Z"/>
        <path class="cls-51" d="M266.83,48.13c5.25-1.08,9.18-5.12,13.84-7.51-.29.8-.56,1.6-.83,2.41-1.01.75-1.56,1.89-1.81,3.09-2.47,6.06-6.07,11.67-10.14,16.77-2.06,1.77-4.07,3.61-5.89,5.64-4.53,4.84-10.99,6.81-16.59,9.86-7.35,1.34-14.75,2.15-22.25,1.83-8.42-.23-15.53-5.2-23.37-7.25.43-.67.5-1.27-.43-1.46-1.14-1.08-2.52-1.77-4.12-1.74.53-.54,1.26-.82,1.95-1.1,3.04-1.12,6.17-2.05,9.02-3.63,17.25-7.58,36.61-7.93,54.23-14.3,2.26-.52,4.36-1.52,6.41-2.59ZM271.24,47.8c-7.3,5-15.82,7.5-24.14,10.14.87,1.59,10.2-.38,8.52,4.74-7.71,8.6-19.45,11.4-30.51,12.44,6.85,3.27,15.56.15,22.46-1.95,11.23-4.45,19.44-14.17,25.18-24.5.87-1.39-.57-1.22-1.5-.87Z"/>
        <path class="cls-49" d="M278.03,46.11c.25-1.2.8-2.34,1.81-3.09.35,1.13-.44,3.24-1.81,3.09Z"/>
        <path class="cls-68" d="M213.99,45.73c-.45-1.13,1.31-2.47,2.32-1.74-.56.83-1.32,1.53-2.32,1.74Z"/>
        <path class="cls-106" d="M213.03,46.99c7.61-3.03,15.89-1.92,23.53.71,9.89,3.36,20.35.83,30.26.42-2.05,1.06-4.15,2.07-6.41,2.59-13.73,1.08-27.75,2.36-41.02,6.34-4.95,2.27-10.83,3.54-14.61,7.65.35.08,1.05.24,1.4.32-2.85,1.58-5.97,2.51-9.02,3.63,1.26-3.61,3.01-7.12,5.32-10.17.6-.45,1.08-1.05,1.11-1.83,1.43-2.95,4.05-5.34,6.48-7.54,1-.68,1.97-1.4,2.95-2.11Z"/>
        <path class="cls-99" d="M210.09,49.11c.42-1.72,2.04-3.27,3.9-3.38-.24.32-.72.95-.96,1.27-.98.71-1.95,1.43-2.95,2.11Z"/>
        <path class="cls-88" d="M271.24,47.8c.93-.35,2.38-.52,1.5.87-5.74,10.33-13.95,20.05-25.18,24.5-6.9,2.11-15.61,5.23-22.46,1.95,11.06-1.04,22.8-3.84,30.51-12.44,1.68-5.13-7.65-3.16-8.52-4.74,8.32-2.64,16.85-5.14,24.14-10.14Z"/>
        <path class="cls-88" d="M206.04,101.67c8.1,6.33,16.59,13.28,27.24,14.29,2.62,0,6.62,1.84,8.35-1.04.74-3.44-2.92-5.73-3.75-8.79,7.8,3.86,15.57,8.46,24.32,10.16,1.11.71,4.94.25,3.31,2.15-12.25,3.32-25.74,5.35-37.98.72-8.42-3.57-17.85-8.66-21.49-17.48Z"/>
        <path class="cls-89" d="M219.4,57.05c13.28-3.98,27.3-5.26,41.02-6.34-17.62,6.37-36.98,6.72-54.23,14.3-.35-.08-1.05-.24-1.4-.32,3.78-4.11,9.66-5.37,14.61-7.65Z"/>
        <path class="cls-37" d="M179.95,57.24c3.74-4.08,13.19-5.32,14.74,1.31-.08,1.18-.08,2.36-.02,3.54-1.16,3.78-5.41,5.22-8.57,7-.28.67-.5,1.37-.66,2.08-.38,1.71-.6,3.46-.97,5.18l-.1.39c-.53.74-.67,1.67-.55,2.57,0,.83-.05,1.67-.15,2.5-.46,4.95-1.08,10.08-.07,15,.2.81.28,1.63.24,2.46-.14,1.03-.09,2.08.32,3.05.07.5.22,1.52.3,2.02-.12.83-.06,1.7.33,2.46,5.1,23.6,14.02,47.3,30.47,65.4-2.6,1.35-5.46,1.95-8.34,2.37-1.87-1.79-2.81-4.43-4.04-6.7.85-3.42,2.55,4.54,5.13,3.9,3.32.29,1.39-4.08,0-5.13-13.98-18.47-22.32-40.62-26.42-63.27-.17,1.63-.41,3.25-.71,4.87-.15-.34-.46-1.04-.62-1.38-.06-.36-.2-1.07-.27-1.43.11-1.04.06-2.09-.32-3.08-.06-.51-.2-1.54-.26-2.05-.1-.91-.28-2.73-.38-3.64l-.1-.6c-.21-1.8-.29-3.61-.6-5.39-.05-.42-.15-1.27-.2-1.69-.08-2.62-.16-5.25-.43-7.86-.9-1.98.89-7.34-.83-7.97-31.26,19.92-56.82,50.72-65.93,87.12-.38.78-.46,1.66-.41,2.52l-.18.64c-.43,1.01-.48,2.09-.43,3.17l-.2.64c-.45.97-.52,2.06-.36,3.11,0,.47.03,1.4.04,1.87-.88-.2-1.76-.39-2.64-.57,2.39-14.17,5.8-28.49,13.05-41.06,6.63-11.93,14.45-23.15,22.78-33.94,1.92-1.22,3.61-3.04,4.46-5.17-1.74.4-4.78,4.97-5.19,2.78,10.52-13.53,25.58-22.71,36.5-35.72.74-.13,1.34-.62,1.62-1.32ZM185.97,56.1c-4.71.83-10.03,5.81-5.75,10.43,4.79,1.24,9.06-3.06,11.05-7.03,1.5-3-3.22-4.47-5.3-3.4Z"/>
        <path class="cls-44" d="M185.97,56.1c2.08-1.07,6.79.4,5.3,3.4-1.99,3.97-6.26,8.26-11.05,7.03-4.28-4.62,1.04-9.6,5.75-10.43Z"/>
        <path class="cls-72" d="M202.5,58.47c-.79-.69.13-2.36,1.11-1.83-.03.78-.51,1.38-1.11,1.83Z"/>
        <path class="cls-73" d="M178.33,58.56c-.62-.89.85-2.06,1.62-1.32-.28.71-.88,1.19-1.62,1.32Z"/>
        <path class="cls-50" d="M194.69,58.54c1.13.32,1.15,3.25-.02,3.54-.06-1.18-.06-2.36.02-3.54Z"/>
        <path class="cls-112" d="M261.99,68.51c1.82-2.02,3.83-3.86,5.89-5.64-1.23,2.22-3.17,5.3-5.89,5.64Z"/>
        <path class="cls-103" d="M185.44,71.17c.16-.71.38-1.41.66-2.08-.33,2.43,1.89,2.13,3.62,2.3-1.53.52-2.96.45-4.28-.22Z"/>
        <path class="cls-66" d="M189.72,71.39c1.91-.25,3.68-1.06,5.5-1.65,1.6-.03,2.98.67,4.12,1.74-3.64.71-7.46.91-10.92,2.36-1.3,2.67,3.32.76,4.85,1.03-.44.39-.87.78-1.31,1.17-.46.41-.9.83-1.32,1.28-.27.04-.79.11-1.05.15-.68-.25-1.35-.53-2-.85-.96-.55-2.09-.46-3.13-.27.38-1.72.6-3.47.97-5.18,1.32.66,2.74.74,4.28.22Z"/>
        <path class="cls-116" d="M188.42,73.84c3.46-1.45,7.28-1.65,10.92-2.36.94.2.86.79.43,1.46-2.2.55-4.38,1.14-6.5,1.92-1.53-.27-6.15,1.64-4.85-1.03Z"/>
        <path class="cls-15" d="M193.27,74.87c2.12-.78,4.3-1.38,6.5-1.92,7.84,2.05,14.95,7.02,23.37,7.25,3.55.58,7.18.27,10.76.68,5.02,9.74,10.19,19.94,19.46,26.41,2.06,2.62,6.05,3.6,7.49,6.67-2.59-.99-5.28-1.76-7.69-3.16.34-.08,1.02-.25,1.36-.33-14.77-10.84-27.83-25.04-45.92-30.36-3.39-.69-7.04-3.41-10.48-1.98-2.08-.64-4.12-1.39-6.17-2.09.43-.39.87-.78,1.31-1.17Z"/>
        <path class="cls-34" d="M184.46,76.35c1.04-.19,2.18-.28,3.13.27-.96.5-2.27.66-3.23.13l.1-.39Z"/>
        <path class="cls-77" d="M190.65,77.32c.41-.45.85-.87,1.32-1.28,2.05.71,4.09,1.46,6.17,2.09,20.08,7.79,36.3,22.42,55.05,32.67,2.4,1.4,5.1,2.16,7.69,3.16,5.95,2.34,12.28,3.65,18.61,4.5v.32c-8.45,1.82-16.59,5.16-25.11,6.44-.9.1-2.72.31-3.62.41-4.3.24-8.63.55-12.91.04-.91-.16-2.74-.48-3.65-.64-.78-.41-1.66-.52-2.52-.4-1.85.06-3.57-.79-5.2-1.57-.9-.59-1.89-1.03-2.98-1.04-3.37-1.43-6.93-2.89-9.74-5.25-.57-.82-1.31-1.58-2.35-1.73-.21-.13-.63-.41-.84-.55-1.25-1.56-2.62-3.02-4.27-4.15-1.6-1.48-3.55-2.83-4.57-4.79-.39-1.59-1.22-3.01-2.66-3.86-3.88-5.39-6.23-11.95-7.53-18.44-.09-2.01.19-4.13-.9-5.92ZM206.04,101.67c3.64,8.83,13.07,13.92,21.49,17.48,12.24,4.63,25.73,2.6,37.98-.72,1.63-1.9-2.2-1.45-3.31-2.15-8.75-1.7-16.52-6.3-24.32-10.16.83,3.06,4.5,5.35,3.75,8.79-1.73,2.88-5.73,1.04-8.35,1.04-10.65-1.01-19.14-7.96-27.24-14.29Z"/>
        <path class="cls-45" d="M183.81,79.31c-.11-.9.02-1.82.55-2.57.48.69.58,2.59-.55,2.57Z"/>
        <path class="cls-20" d="M189.6,77.47c.26-.04.78-.11,1.05-.15,1.09,1.79.81,3.91.9,5.92-1.69-.46,0-4.44-1.95-5.78Z"/>
        <path class="cls-109" d="M198.14,78.14c3.44-1.43,7.09,1.29,10.48,1.98,18.09,5.32,31.15,19.52,45.92,30.36-.34.08-1.02.25-1.36.33-18.75-10.25-34.96-24.88-55.05-32.67Z"/>
        <path class="cls-10" d="M223.15,80.2c7.51.32,14.91-.48,22.25-1.83.36.32,1.08.97,1.44,1.29.57.82,1.32,1.53,2.34,1.73,2.59,2.62,5.21,5.21,7.8,7.84.21,1.01.9,1.8,1.84,2.22,4.58,5.86,8.79,12.2,13.31,18.19.18.73.68,1.31,1.39,1.56,2.41,1.75,4.23,4.22,6.63,5.99.17.57-.14,1.06-.68,1.27-6.33-.85-12.66-2.16-18.61-4.5-1.45-3.07-5.43-4.06-7.49-6.67-9.28-6.47-14.44-16.67-19.46-26.41-3.58-.41-7.21-.1-10.76-.68Z"/>
        <path class="cls-114" d="M246.84,79.66c1-.76,2.74.6,2.34,1.73-1.01-.2-1.77-.9-2.34-1.73Z"/>
        <path class="cls-47" d="M177.69,81.13c.27,2.61.35,5.23.43,7.86-1.76-1.11-.36-5.53-.43-7.86Z"/>
        <path class="cls-90" d="M249.18,81.39c3.07,1.48,7.04,4.35,7.8,7.84-2.59-2.63-5.21-5.23-7.8-7.84Z"/>
        <path class="cls-46" d="M183.59,96.82c-1.01-4.92-.39-10.05.07-15,.15,4.99.41,10.02-.07,15Z"/>
        <path class="cls-33" d="M256.98,89.23c1.08-.42,2.46,1.2,1.84,2.22-.94-.42-1.63-1.22-1.84-2.22Z"/>
        <path class="cls-41" d="M178.32,90.69c.32,1.78.39,3.59.6,5.39-1.78-.57-.53-3.78-.6-5.39Z"/>
        <path class="cls-56" d="M141.84,94.28c.41,2.19,3.45-2.38,5.19-2.78-.85,2.13-2.54,3.95-4.46,5.17-5.28,2.78-8.25,8.9-12.2,13.36-12.56,18.1-21.52,38.57-26.58,59.99-.18-.24-.57-.72-.76-.96,6.21-27.5,19.37-54.34,38.81-74.78Z"/>
        <path class="cls-52" d="M130.36,110.03c3.95-4.46,6.91-10.58,12.2-13.36-8.33,10.79-16.15,22.01-22.78,33.94-7.25,12.58-10.65,26.89-13.05,41.06-1.05,2.24-.17,7.54-3.62,7.02-2.32-2.46-.13-5.99.67-8.67,5.06-21.43,14.02-41.9,26.58-59.99Z"/>
        <path class="cls-3" d="M179.03,96.68c.1.91.28,2.73.38,3.64-1.46-.18-1.18-2.78-.38-3.64Z"/>
        <path class="cls-63" d="M183.83,99.28c1.25.11.97,2.32.32,3.05-.41-.97-.46-2.02-.32-3.05Z"/>
        <path class="cls-84" d="M199.07,101.68c1.44.85,2.27,2.27,2.66,3.86-1.42-.74-2.29-2.36-2.66-3.86Z"/>
        <path class="cls-29" d="M179.66,102.37c.39.98.44,2.04.32,3.08-1.26-.13-.99-2.33-.32-3.08Z"/>
        <path class="cls-120" d="M181.58,103.38c4.11,22.65,12.44,44.81,26.42,63.27,1.39,1.04,3.32,5.41,0,5.13-2.58.64-4.28-7.32-5.13-3.9-10.35-16.89-17.8-35.96-21.6-55.45.11-.86.03-1.74-.39-2.5l-.22-.62c.05-.26.16-.79.21-1.06.3-1.62.53-3.24.71-4.87Z"/>
        <path class="cls-65" d="M184.45,104.36c1.17-.08,1.03,1.92.33,2.46-.39-.76-.45-1.62-.33-2.46Z"/>
        <path class="cls-78" d="M180.26,106.87c.15.34.46,1.04.62,1.38-.05.27-.16.8-.21,1.06-1.08-.06-.99-1.84-.41-2.44Z"/>
        <path class="cls-48" d="M272.13,109.64c.86-.65,2.11.76,1.39,1.56-.71-.25-1.22-.83-1.39-1.56Z"/>
        <path class="cls-4" d="M180.88,109.93c.42.76.5,1.64.39,2.5-1.17.06-1.05-1.92-.39-2.5Z"/>
        <path class="cls-25" d="M206.3,110.34c1.65,1.13,3.02,2.59,4.27,4.15-1.79-.69-3.98-2.13-4.27-4.15Z"/>
        <path class="cls-61" d="M211.4,115.05c1.04.15,1.78.9,2.35,1.73-1.01.71-2.73-.6-2.35-1.73Z"/>
        <path class="cls-67" d="M280.16,117.19c2.55-.7,1.26,2.92-.69,1.6v-.32c.55-.22.87-.7.69-1.27Z"/>
        <path class="cls-1" d="M223.49,122.03c1.09.01,2.08.45,2.98,1.04-.89.8-3.06.22-2.98-1.04Z"/>
        <path class="cls-85" d="M231.67,124.64c.86-.11,1.74,0,2.52.4-.6.63-2.59.77-2.52-.4Z"/>
        <path class="cls-27" d="M234.19,125.04c.91.17,2.74.48,3.65.64-.97.74-3.5.92-3.65-.64Z"/>
        <path class="cls-43" d="M250.75,125.64c.9-.1,2.72-.31,3.62-.41-.15,1.47-2.76,1.21-3.62.41Z"/>
        <path class="cls-104" d="M237.84,125.68c4.28.5,8.61.2,12.91-.04-2.59,1.52-10.24,1.48-12.91.04Z"/>
        <path class="cls-93" d="M239.21,159.68c1.45-.85,8.73-1.59,10.2-.04-3.41.02-6.8-.01-10.2.04Z"/>
        <path class="cls-18" d="M225.78,166.09c3.6-3.36,8.53-5.53,13.44-6.41,3.4-.06,6.79-.03,10.2-.04,3.03.25,6.45.55,8.88,2.53,16.63,11.72,19.64,35.48,12.09,53.51-7.25,16.95-21.38,32.98-40.63,35.19-21.06,4.19-42.21-8.02-55.05-23.35-1.55-.95-1.49-5.11-1.74-7.37.02-4.27.03-8.51,0-12.77.8-5.24,2.35-10.77,5.32-15.21.61-.43,1.09-1.04,1.12-1.82,3.32-7.56,11.12-12.5,19.15-13.51.83.12,1.71.08,2.45-.36,1.88-.88,3.99-1.12,5.91-1.9,2.88-.41,5.74-1.02,8.34-2.37,3.27-1.03,6.03-3.02,8.93-4.75.74-.15,1.35-.64,1.59-1.38ZM241.36,165.62c-11.05,3.69-16.36,16.71-28.63,17.92-11.51,1.03-24.56,5.75-28.84,17.56-1.88,8.29,3.18,15.67,9.68,20.11,18.44,13.86,47.8,8.88,61.14-9.77,6.07-10.75,6.39-24.18,2.89-35.81-2.14-6.69-8.6-12.91-16.24-10.01Z"/>
        <path class="cls-98" d="M56.52,168.14c6.87-5.38,16.04-8.69,24.78-7.57.75.4,1.61.48,2.45.36,6.72,1.22,12.41,5.85,18.67,8.47-.2,1.38-.45,2.76-.86,4.11-2.04,1.62-4.22,4.29-2.07,6.78,2.25,3.83,10.41,4.76,11.73-.34.46-1.56-1.04-2.46-1.96-3.41.15-1.41.35-2.81.59-4.2,1.29.04,2.5.57,3.76.83,3.01.43,6.08.4,9.12.71.95.45,2,.53,3.04.39,4.13.52,8.09,2.47,11.62,4.66.43.56.87,1.11,1.32,1.68,5,11.78,4.08,25.83-.8,37.57-4.09,11.73-13.52,20.45-23.34,27.56-11.62,6.81-25.22,13.73-39.06,10.14-15.57-2.07-26.12-14.87-36.41-25.18-1.13-1.36-1.22-3.79-1.69-5.6.08-.83.08-1.71-.4-2.43-.96-1.53-.9-3.36-.9-5.09,0-3.85-.02-7.69.03-11.53.06-.31.2-.91.27-1.22.39-.76.46-1.62.36-2.46.06-.33.2-1.01.26-1.34.4-.76.48-1.62.39-2.45.97-5.57,3.03-11.17,5.92-15.98.62-.43,1.1-1.04,1.11-1.83.12-.79.64-1.48,1.2-2.01,1.19-1.02,2.02-2.36,2.83-3.68.72-.97,1.59-1.83,2.55-2.57.74-.15,1.35-.63,1.59-1.36.46-.82,1.09-1.83,2.11-1.95.79.01,1.4-.48,1.83-1.1ZM81.52,165.57c-7.05,2.62-8.59,11.82-4.76,17.77,6.1,8.7,18.08,11.98,28.18,10.86,5.86-.03,12.17-4.18,12.69-10.35-3.66.15-6.88,3.11-10.87,1.95-5.9-.22-15.14-2.3-15.91-9.6-.69-3.17,2.18-6.32.43-9.33-2.81-2.14-6.46-1.64-9.76-1.31ZM59.9,186.67c-3.69.53-6.21,3.44-8.88,5.74-7.04,10.84-7.34,26.02.62,36.44,10.32,15.28,33.95,17.71,47.51,5.33,6.8-6.09,16.29-15.28,11.85-25.28-4.55-7.01-14.17-6.24-21.41-7.21-12.35.04-16.67-18.01-29.69-15.03Z"/>
        <path class="cls-87" d="M81.3,160.57c.54-.7,2.53-.82,2.45.36-.84.12-1.7.04-2.45-.36Z"/>
        <path class="cls-26" d="M110.51,162.8c-.05-.86.03-1.73.41-2.52.71.58.79,2.56-.41,2.52Z"/>
        <path class="cls-113" d="M258.29,162.17c4.01,1.1,7.97,3.8,10.58,6.83,2.48,6.15,6.16,11.98,8.05,18.48.32,8.95,3.36,17.83,1.03,26.88-3.29,16.45-11.06,33.29-26.16,41.94-11.4,7.1-25.27,7.76-38.25,6.72-5.72-1.4-11.3-3.33-17.03-4.69-10.9-6.62-18.26-18.68-21.81-30.8,12.84,15.33,33.98,27.54,55.05,23.35,19.25-2.21,33.38-18.24,40.63-35.19,7.55-18.03,4.54-41.8-12.09-53.51Z"/>
        <path class="cls-16" d="M109.9,166.61c-.05-1.08,0-2.16.43-3.17.58.82.86,2.99-.43,3.17Z"/>
        <path class="cls-96" d="M81.52,165.57c3.3-.33,6.95-.83,9.76,1.31,1.74,3.01-1.13,6.16-.43,9.33.78,7.3,10.02,9.39,15.91,9.6,3.99,1.15,7.21-1.81,10.87-1.95-.52,6.17-6.83,10.32-12.69,10.35-10.1,1.12-22.08-2.16-28.18-10.86-3.83-5.95-2.29-15.15,4.76-17.77Z"/>
        <path class="cls-19" d="M241.36,165.62c7.64-2.9,14.1,3.32,16.24,10.01,3.5,11.63,3.18,25.06-2.89,35.81-13.34,18.66-42.7,23.64-61.14,9.77-6.5-4.44-11.56-11.82-9.68-20.11,4.28-11.81,17.33-16.53,28.84-17.56,12.27-1.21,17.57-14.23,28.63-17.92ZM201.63,195.94c-2.59.37-4.09,3-5.14,5.16-1.09.96-1.3,5.79.83,7-.61,1.26,1.18,3.01,2.42,2.24.62.36,1.27.65,1.95.86.07,1.15,6.01,1.18,5.69.03,4.83-1.12,7.07-8.4,3.58-12.13.69-1.19-.95-2.95-2.18-2.45-.35-.18-1.06-.53-1.41-.71-.29-1.13-5.99-1.19-5.75,0Z"/>
        <path class="cls-54" d="M224.19,167.46c-.62-.86.8-2.08,1.59-1.38-.24.73-.85,1.22-1.59,1.38Z"/>
        <path class="cls-95" d="M109.33,170.37c-.15-1.05-.08-2.14.36-3.11.57.78.88,2.95-.36,3.11Z"/>
        <path class="cls-39" d="M54.69,169.24c-.5-.97,1.15-1.86,1.83-1.1-.43.62-1.04,1.11-1.83,1.1Z"/>
        <path class="cls-24" d="M102.42,169.41l.6-.34c.19.24.57.72.76.96-.8,2.68-2.99,6.21-.67,8.67,3.44.52,2.57-4.78,3.62-7.02.89.17,1.76.36,2.64.57l.48.11c-.24,1.39-.44,2.78-.59,4.2.08,2.61-.25,7.08-4.42,5.44-4.76.36-5.09-5.28-3.28-8.47.41-1.34.66-2.73.86-4.11Z"/>
        <path class="cls-76" d="M276.92,187.48c-1.89-6.5-5.57-12.33-8.05-18.48,9.89,9.28,15.99,22.63,18.1,35.98-.13,1.03-.08,2.08.33,3.05.07.31.21.92.28,1.23.02,4.08.06,8.16,0,12.23-.06.3-.2.9-.27,1.21-.39.76-.47,1.62-.36,2.46-.06.33-.2,1.01-.26,1.34-.41.75-.48,1.61-.37,2.46-4.27,19.17-18.61,37.99-38.32,42.73-.87-.08-1.75.04-2.51.49-1.04.04-2.1.15-3.07.55l-.56.18c-3.69.09-7.37.09-11.04,0l-.56-.18c-.97-.45-2.06-.48-3.1-.41l-.63-.21c-.77-.42-1.64-.5-2.49-.41-8.4-1.8-16.6-5.53-23.63-10.37-.46-.62-1.08-1.09-1.83-1.23-.47-.58-1.04-1.08-1.77-1.26l-.29-.51c5.73,1.36,11.31,3.29,17.03,4.69,13.02,2.74,27.43,1.71,39.09-5.21,22.61-14.1,30.84-43.75,25.39-68.79-.34-.53-.71-1.04-1.1-1.53Z"/>
        <path class="cls-42" d="M51,172.54c-.62-.87.81-2.06,1.59-1.36-.24.73-.85,1.21-1.59,1.36Z"/>
        <path class="cls-97" d="M113.61,173.19c2.5.63,7.84-1.63,9.12.71-3.04-.31-6.11-.28-9.12-.71Z"/>
        <path class="cls-53" d="M99.49,180.29c-2.15-2.49.03-5.16,2.07-6.78-1.81,3.2-1.48,8.84,3.28,8.47,4.17,1.64,4.5-2.83,4.42-5.44.92.94,2.43,1.85,1.96,3.41-1.32,5.09-9.48,4.16-11.73.34Z"/>
        <path class="cls-36" d="M122.73,173.9c.75-.62,2.93-.85,3.04.39-1.04.13-2.09.05-3.04-.39Z"/>
        <path class="cls-7" d="M45.62,178.79c.27-1.52,1.05-3.6,2.83-3.68-.8,1.32-1.64,2.66-2.83,3.68Z"/>
        <path class="cls-108" d="M59.9,186.67c13.02-2.99,17.34,15.07,29.69,15.03,7.25.97,16.86.2,21.41,7.21,4.44,10-5.05,19.18-11.85,25.28-13.56,12.38-37.2,9.95-47.51-5.33-7.95-10.42-7.66-25.6-.62-36.44,2.67-2.3,5.19-5.21,8.88-5.74ZM55.7,197.33c-1.24-.55-2.91,1.24-2.2,2.43-2.05,2.29-2.51,6.94-.11,9.05-.57,1.24,1.23,2.92,2.43,2.2,3.22,2.11,8.61,1.11,11.33-1.8,5.76-7.02-4.39-17.47-11.45-11.88ZM71.85,206.32c-2.46,3.99,5.6,6.63,5.72,2.35-.04-1.13.08-2.43-.87-3.25.2-1.59-4.13-.83-4.85.9Z"/>
        <path class="cls-92" d="M198.56,176.85c-.08-1.15,1.88-1.04,2.45-.36-.74.45-1.62.48-2.45.36Z"/>
        <path class="cls-17" d="M137.38,178.96c.99-.64,2.71.73,2.16,1.81-.21-.04-.63-.1-.84-.13-.45-.57-.89-1.12-1.32-1.68Z"/>
        <path class="cls-14" d="M43.31,182.63c-.77-.69.14-2.34,1.11-1.83,0,.78-.49,1.39-1.11,1.83Z"/>
        <path class="cls-111" d="M138.7,180.64c.21.03.63.1.84.13.83.78,2.51,1.17,2.74,2.32-.25.08-.76.26-1.01.34,7.18,22.61-3.34,48.84-23.16,61.44-10.78,8.76-24.74,14.17-38.74,13.51-16.48-1.53-29.64-13.1-39.5-25.51-.57-.58-.83-1.3-.79-2.16,10.3,10.32,20.84,23.11,36.41,25.18,13.84,3.6,27.44-3.32,39.06-10.14,9.82-7.11,19.25-15.83,23.34-27.56,4.87-11.74,5.8-25.79.8-37.57Z"/>
        <path class="cls-82" d="M141.28,183.43c.25-.08.75-.26,1.01-.34.15.25.47.76.63,1.02.15.73.6,1.39,1.38,1.57.13.27.38.82.5,1.1,2.6,9.24,4.88,19.06,3.16,28.72-4.48,27.54-30.74,46.18-56.72,51.5-18.33,3.16-35.82-8.57-45.74-23.12-.35-.4-.79-.55-1.32-.45-2-2.78-3.59-6.91-4.3-10.54,9.86,12.4,23.02,23.97,39.5,25.51,14,.66,27.96-4.75,38.74-13.51,19.82-12.6,30.34-38.83,23.16-61.44Z"/>
        <path class="cls-101" d="M142.91,184.11c.85-.59,2.06.79,1.38,1.57-.77-.18-1.23-.84-1.38-1.57Z"/>
        <path class="cls-31" d="M147.95,215.49c1.71-9.66-.56-19.48-3.16-28.72,4.04,4.49,5.94,10.86,6.56,16.81-.03,4.25-.01,8.51,0,12.76-.08.47-.22,1.42-.29,1.89-.39.76-.48,1.61-.35,2.45-1.55,9.6-5.36,19.29-11.67,26.78-.6.42-1.06,1-1.22,1.73-2.41,3.4-5.48,6.81-8.92,9.1-.79,0-1.47.48-1.68,1.25-9.36,7.82-21.73,12.15-33.82,13.47-3.44-.06-6.87.06-10.3-.11l-.56-.18c-.95-.46-2.01-.48-3.04-.36-6.7-1.07-13.49-3.94-18.62-8.39-.29-.69-.87-1.19-1.61-1.34-6.64-4.75-11.52-11.94-15.1-19.22.53-.1.97.04,1.32.45,9.92,14.55,27.42,26.28,45.74,23.12,25.98-5.32,52.24-23.95,56.72-51.5Z"/>
        <path class="cls-57" d="M276.92,187.48c.39.49.76,1,1.1,1.53,5.45,25.04-2.78,54.69-25.39,68.79-11.66,6.91-26.07,7.95-39.09,5.21,12.99,1.04,26.86.38,38.25-6.72,15.1-8.64,22.87-25.48,26.16-41.94,2.32-9.05-.71-17.94-1.03-26.88Z"/>
        <path class="cls-74" d="M178.29,192.18c-.78-.69.15-2.34,1.12-1.82-.03.78-.51,1.39-1.12,1.82Z"/>
        <path class="cls-80" d="M201.63,195.94c-.24-1.18,5.46-1.12,5.75,0-1.94-.03-3.83-.02-5.75,0Z"/>
        <path class="cls-30" d="M55.7,197.33c7.06-5.59,17.2,4.85,11.45,11.88-2.73,2.92-8.12,3.92-11.33,1.8-.66-.89-1.41-1.73-2.43-2.2-2.39-2.11-1.94-6.76.11-9.05.89-.66,1.74-1.4,2.2-2.43Z"/>
        <path class="cls-8" d="M196.49,201.11c1.05-2.16,2.56-4.79,5.14-5.16,1.92-.01,3.81-.02,5.75,0,.36.18,1.06.53,1.41.71.39,1.07,1.29,1.8,2.18,2.45,3.48,3.72,1.24,11.01-3.58,12.13-1.92-.02-3.79,0-5.69-.03-.69-.21-1.34-.5-1.95-.86-.69-.87-1.47-1.67-2.42-2.24-.48-2.3-.68-4.66-.83-7Z"/>
        <path class="cls-69" d="M208.79,196.66c1.23-.5,2.87,1.26,2.18,2.45-.89-.66-1.78-1.38-2.18-2.45Z"/>
        <path class="cls-107" d="M53.51,199.76c-.71-1.2.96-2.98,2.2-2.43-.45,1.03-1.31,1.77-2.2,2.43Z"/>
        <path class="cls-32" d="M37,201.06c-.7-.55-.8-2.56.39-2.45.09.83.01,1.69-.39,2.45Z"/>
        <path class="cls-11" d="M197.32,208.11c-2.13-1.22-1.92-6.05-.83-7,.15,2.34.36,4.7.83,7Z"/>
        <path class="cls-21" d="M36.38,204.86c-.71-.55-.81-2.54.36-2.46.1.84.03,1.7-.36,2.46Z"/>
        <path class="cls-83" d="M151.35,203.58c1.08,2.67,1.1,10.07,0,12.76,0-4.25-.02-8.51,0-12.76Z"/>
        <path class="cls-9" d="M71.85,206.32c.73-1.73,5.05-2.49,4.85-.9-1.99-.46-5.55,1.06-3.9,3.45,1.17,1.9,3.45.99,4.76-.2-.12,4.29-8.18,1.64-5.72-2.35Z"/>
        <path class="cls-13" d="M286.97,204.98c1.26.1.98,2.31.33,3.05-.41-.97-.46-2.02-.33-3.05Z"/>
        <path class="cls-81" d="M72.81,208.87c-1.66-2.39,1.9-3.91,3.9-3.45.95.82.82,2.11.87,3.25-1.31,1.2-3.6,2.1-4.76.2Z"/>
        <path class="cls-5" d="M36.09,217.61c-.67-2.22-1.75-9.2.03-11.53-.04,3.84-.02,7.69-.03,11.53Z"/>
        <path class="cls-38" d="M172.34,208.68c.16-.32.48-.97.64-1.29.02,4.26.01,8.51,0,12.77-.69-.2-.9-.84-.64-1.92.02-3.2.04-6.37,0-9.56Z"/>
        <path class="cls-12" d="M197.32,208.11c.95.57,1.73,1.37,2.42,2.24-1.24.76-3.03-.98-2.42-2.24Z"/>
        <path class="cls-115" d="M53.39,208.81c1.02.46,1.77,1.31,2.43,2.2-1.2.72-2.99-.96-2.43-2.2Z"/>
        <path class="cls-58" d="M172.33,218.24c-1.11-1.34-1.12-8.21,0-9.56.03,3.18.01,6.36,0,9.56Z"/>
        <path class="cls-55" d="M287.58,209.26c.74,2.6,1.71,9.54,0,12.23.06-4.08.02-8.16,0-12.23Z"/>
        <path class="cls-94" d="M201.69,211.21c1.9.03,3.78.01,5.69.03.32,1.15-5.62,1.11-5.69-.03Z"/>
        <path class="cls-6" d="M150.71,220.69c-.13-.84-.04-1.69.35-2.45.7.53.82,2.53-.35,2.45Z"/>
        <path class="cls-60" d="M36.99,222.7c.48.71.48,1.59.4,2.43-1.16.1-1.08-1.87-.4-2.43Z"/>
        <path class="cls-62" d="M286.95,225.16c-.11-.85-.03-1.71.36-2.46.7.55.81,2.53-.36,2.46Z"/>
        <path class="cls-100" d="M286.32,228.96c-.11-.85-.04-1.71.37-2.46.69.55.8,2.55-.37,2.46Z"/>
        <path class="cls-40" d="M137.82,249.2c.15-.73.62-1.31,1.22-1.73.82.73-.26,2.37-1.22,1.73Z"/>
        <path class="cls-75" d="M127.22,259.55c.21-.77.89-1.25,1.68-1.25.48.87-.96,1.9-1.68,1.25Z"/>
        <path class="cls-91" d="M196.81,258.83c.73.18,1.3.68,1.77,1.26-.76.77-2.44-.29-1.77-1.26Z"/>
        <path class="cls-121" d="M198.58,260.09c.76.14,1.38.61,1.83,1.23-.75.78-2.34-.25-1.83-1.23Z"/>
        <path class="cls-86" d="M59.27,262.64c.74.15,1.32.64,1.61,1.34-.77.73-2.24-.46-1.61-1.34Z"/>
        <path class="cls-35" d="M224.04,271.7c.85-.09,1.72,0,2.49.41-.59.66-2.58.76-2.49-.41Z"/>
        <path class="cls-71" d="M245.5,272.18c.76-.45,1.64-.57,2.51-.49.08,1.17-1.88,1.09-2.51.49Z"/>
        <path class="cls-23" d="M79.51,272.36c1.03-.12,2.09-.1,3.04.36-.74.62-2.93.89-3.04-.36Z"/>
        <path class="cls-105" d="M227.16,272.32c1.04-.07,2.13-.04,3.1.41-.79.61-2.94.86-3.1-.41Z"/>
        <path class="cls-22" d="M242.43,272.73c.97-.41,2.02-.51,3.07-.55-.07,1.34-2.27,1.2-3.07.55Z"/>
        <path class="cls-64" d="M83.1,272.91c3.43.17,6.86.06,10.3.11-1.59.68-8.67,1.69-10.3-.11Z"/>
        <path class="cls-118" d="M230.82,272.91c3.67.09,7.35.09,11.04,0-2.11.78-9.01,1.91-11.04,0Z"/>
      </g>
    </g>
  </g>
</svg>