<?xml version="1.0" encoding="UTF-8"?>
<svg xmlns="http://www.w3.org/2000/svg" version="1.1" xmlns:xlink="http://www.w3.org/1999/xlink" viewBox="0 0 318.21 250.26">
  <defs>
    <style>
      .cls-1 {
        fill: #76c2bd;
      }

      .cls-2 {
        fill: #c7c287;
      }

      .cls-3 {
        fill: #2e615a;
      }

      .cls-4 {
        fill: #fff;
      }

      .cls-5 {
        fill: #aed9d7;
      }

      .cls-6 {
        fill: #542418;
      }

      .cls-7 {
        fill: #fac3c4;
      }

      .cls-8 {
        fill: #63a39c;
      }

      .cls-9 {
        fill: none;
      }

      .cls-10 {
        fill: #fcf9ce;
      }

      .cls-11 {
        fill: #e39797;
      }

      .cls-12 {
        fill: #7b733d;
      }

      .cls-13 {
        fill: #ebd69b;
      }

      .cls-14 {
        fill: #5c0b0c;
      }

      .cls-15 {
        fill: #a65045;
      }

      .cls-16 {
        fill: #c27273;
      }

      .cls-17 {
        fill: #87733e;
      }

      .cls-18 {
        fill: #d6e5ea;
      }

      .cls-19 {
        fill: #648f8c;
      }

      .cls-20 {
        fill: #230e0c;
      }

      .cls-21 {
        fill: #557873;
      }

      .cls-22 {
        fill: #15362e;
      }

      .cls-23 {
        fill: #fcedb5;
      }

      .cls-24 {
        clip-path: url(#clippath);
      }
    </style>
    <clipPath id="clippath">
      <rect class="cls-9" x="34.55" y="41.47" width="260.19" height="189.81"/>
    </clipPath>
  </defs>
  <!-- Generator: Adobe Illustrator 28.7.0, SVG Export Plug-In . SVG Version: 1.2.0 Build 136)  -->
  <g>
    <g id="Layer_1">
      <g class="cls-24">
        <path class="cls-1" d="M161.47,188.9c.6,2.92-1.07,8.88-2.23,10.86-1.25,2.13-4.23,3.36-5.88,4.73.28,3.64,2.12,6.8,6.09,8.03,3.97,1.23,12.46,2.55,15.66,1.71,3.2-.83,4.38-.63,7.24-4.03,2.85-3.41,4.22-12.41,3.32-16.38-4.94-3.48-24.19-4.92-24.19-4.92"/>
        <path class="cls-5" d="M162.77,188.96c-1.09-.1-1.3-.06-1.3-.06.6,2.92-1.07,8.88-2.23,10.86-1.09,1.85-3.49,3.02-5.18,4.2,2.89-.95,4.6-1.73,6.05-3.57,1.6-2.03,2.65-7.24,2.65-11.42"/>
        <path class="cls-8" d="M165.26,204.27c-.9,1.03-2.79,1.63-4.27,2.74-1.96,1.47-2.73,3.11-5.05,3.46.63.62,1.38,1.14,2.27,1.56,1.23-1.55,2.53-3.04,3.93-4.28,1.19-1.06,2.43-1.87,3.13-3.48"/>
        <path class="cls-8" d="M185.66,193.82c-1.65-1.16-4.02-2.09-7.61-2.82.56,5.12.8,10.32-1.45,14.99-1.8,3.79-7.01,6.7-11.24,7.84,3.72.61,7.75.92,9.74.4,3.2-.84,4.38-.63,7.24-4.04,2.85-3.41,4.22-12.41,3.32-16.38"/>
        <path class="cls-22" d="M153.54,204.56c.33,3.93,2.44,6.69,5.96,7.78,3.98,1.23,12.45,2.52,15.56,1.71.48-.13.93-.23,1.32-.32,2.29-.54,3.44-.8,5.82-3.66,1.28-1.53,2.39-4.41,3.03-7.9.59-3.18.69-6.33.26-8.26-4.64-3.18-21.66-4.66-23.82-4.83.29,1.78-.18,4.27-.5,5.63-.48,2.08-1.18,4.09-1.79,5.12-.86,1.46-2.51,2.5-3.96,3.43-.7.44-1.36.86-1.88,1.29M172.33,214.66c-3.94,0-9.74-1-12.94-1.99-3.69-1.14-5.89-4.05-6.21-8.18v-.09s.06-.06.06-.06c.55-.46,1.25-.91,1.99-1.38,1.42-.9,3.04-1.93,3.85-3.31,1.09-1.85,2.81-7.8,2.2-10.73l-.05-.23.23.02s4.88.37,10.26,1.16c7.23,1.06,11.95,2.33,14.02,3.79l.05.04.02.07c.45,1.97.35,5.21-.25,8.47-.65,3.55-1.79,6.48-3.1,8.06-2.46,2.94-3.72,3.24-6.01,3.77-.41.1-.84.2-1.32.32-.71.19-1.69.27-2.81.27"/>
        <path class="cls-22" d="M159.75,210.86l-.3-.18c1.09-1.81,2.46-3.03,3.67-4.11.95-.85,1.77-1.57,2.17-2.37,0,0-.17,1.08-1.94,2.63-1.19,1.06-2.54,2.27-3.6,4.03"/>
        <path class="cls-10" d="M154.11,204.12c-1.3.24-5.66,4.77-5.52,6.54.14,1.76,7.56,3,9.69,1.86,2.52-1.35-1.48-8.9-4.17-8.39"/>
        <path class="cls-2" d="M158.16,207.64c-.38,3.6-7.48,4.53-9.57,2.94,0,.02,0,.05,0,.08.14,1.76,7.56,3,9.69,1.85,1.25-.67.89-2.88-.12-4.87"/>
        <path class="cls-12" d="M154.38,204.27c-.08,0-.15,0-.23.02-.58.11-1.95,1.24-3.2,2.64-1.4,1.57-2.24,2.99-2.18,3.71.02.29.32.6.87.9,1.98,1.08,6.92,1.71,8.57.82.81-.44.93-1.72.33-3.43-.81-2.29-2.7-4.66-4.16-4.66M155.68,213.13c-2.16,0-4.83-.53-6.21-1.28-.66-.36-1.01-.76-1.05-1.18-.09-1.19,1.55-3.17,2.27-3.97,1.09-1.22,2.62-2.61,3.4-2.75.81-.15,1.78.35,2.74,1.4.84.93,1.6,2.22,2.04,3.46.68,1.92.5,3.32-.49,3.86-.6.32-1.58.46-2.69.46"/>
        <path class="cls-10" d="M161.85,208.19c-1.26.39-5.08,5.38-4.75,7.12.34,1.74,7.85,2.13,9.84.75,2.35-1.63-2.48-8.67-5.09-7.87"/>
        <path class="cls-12" d="M162.29,208.3c-.13,0-.26.02-.39.06-.56.17-1.8,1.46-2.88,2.99-1.21,1.72-1.88,3.22-1.75,3.93.05.28.39.56.96.79,2.09.85,7.07.91,8.61-.15.76-.52.73-1.81-.06-3.45-1.03-2.11-3.06-4.17-4.49-4.17M162.61,217.06c-1.7,0-3.44-.24-4.5-.67-.7-.28-1.09-.64-1.17-1.05-.23-1.17,1.19-3.33,1.8-4.2.95-1.34,2.31-2.89,3.06-3.12.79-.24,1.81.14,2.88,1.09.94.82,1.84,2.02,2.41,3.2.89,1.83.87,3.25-.05,3.89-.85.59-2.62.86-4.43.86"/>
        <path class="cls-8" d="M246.01,171.22c-.42.07-.63.35-.98.56v.28c-.56.28-.83.77-1.18,1.18-1.81,2.37-2.85,5.01-5.08,7.03-.14.21-.14.49-.28.7-.14.07-.35.07-.42.14-1.38,2.09-1.4,4.27-1.11,6.46,2.51-.34,4.25-.55,4.25-.55,4.7,2.5,10.02,1.8,13.78-3.48,2.1-2.95,1.07-10.05-.24-15.74-1.06.36-2.11.76-3.17,1.13-1.88.69-3.55,1.81-5.57,2.3"/>
        <path class="cls-22" d="M241.25,186.84l.05.03c5.05,2.69,10.11,1.41,13.55-3.43,2.05-2.89,1.02-9.94-.23-15.42-.62.21-1.25.44-1.86.66-.37.14-.75.27-1.12.41-.73.27-1.45.61-2.14.95-1.08.52-2.2,1.05-3.44,1.35h-.01c-.24.04-.4.17-.59.31-.08.06-.15.12-.24.17v.29l-.1.05c-.4.2-.64.51-.9.85-.07.09-.15.19-.22.28-.67.88-1.24,1.81-1.8,2.7-.92,1.5-1.88,3.05-3.28,4.33-.05.08-.08.18-.11.28-.04.13-.08.27-.16.4l-.02.04-.04.02c-.08.04-.18.06-.25.08-.04,0-.09.02-.12.03-1.35,2.07-1.32,4.26-1.09,6.15,2.39-.32,4.06-.52,4.08-.52h.05ZM246.46,188.59c-1.74,0-3.54-.47-5.28-1.39-.31.04-1.95.24-4.19.54l-.17.02-.02-.17c-.26-2-.33-4.34,1.14-6.58h.01s.01-.03.01-.03c.07-.07.18-.1.29-.12.05-.01.09-.02.13-.03.04-.08.07-.16.09-.26.04-.13.08-.27.16-.4v-.02s.03-.02.03-.02c1.38-1.25,2.28-2.71,3.24-4.27.56-.91,1.14-1.85,1.82-2.74h0c.07-.09.14-.18.22-.28.25-.33.51-.67.92-.9v-.27l.08-.05c.1-.06.2-.14.29-.21.2-.16.42-.32.74-.37,1.2-.29,2.3-.82,3.36-1.33.7-.34,1.43-.68,2.18-.96.38-.13.75-.27,1.12-.41.67-.24,1.37-.5,2.05-.73l.18-.06.04.19c1.29,5.57,2.37,12.86.22,15.88-1.81,2.54-4.1,4.17-6.64,4.73-.66.15-1.34.22-2.03.22"/>
        <path class="cls-23" d="M197.99,152.19c-16.7.38-42.03,12.86-53.9,7.45-11.87-5.41-13.04-13.93-12.66-18.96.38-5.03,10.77-34.5,1.19-48.47-9.58-13.97-24.19-15.85-24.19-15.85l4.54,8.65c2.24,1.18,8.91,5.36,10.23,14.54,1.32,9.19-5.25,20.88-8.41,29.5-2.64,7.23-5.41,19.46-.91,30.59,4.8,11.88,12.85,16.64,18.38,18.72,5.53,2.08,22.33,8.97,22.33,8.97,4.49,1.98,11.9,7.51,30.79,8.77,18.89,1.25,31.73-3.76,33.71-4.91,1.97-1.31,12.03-2.83,17.88-3.63-.29-2.2-.26-4.37,1.11-6.47.07-.07.28-.07.42-.14.14-.21.14-.49.28-.69,2.23-2.02,3.27-4.66,5.08-7.03.35-.42.63-.9,1.18-1.18v-.28c.35-.21.56-.49.97-.56,2.02-.49,3.69-1.6,5.57-2.3,1.05-.37,2.11-.77,3.17-1.13-1.04-4.52-2.27-8.15-2.27-8.15,0,0-37.79-7.83-54.49-7.45"/>
        <path class="cls-13" d="M252.48,159.64s-29.89-6.19-48.25-7.3c-.84,1.63-2.61,2.78-3.83,4.13-3.65,4.04-6.21,7.88-12.11,10.31-4.53,1.87-9.75,1.86-14.9.94-5.04-.9-9.3-3.65-11.95-7.86-6.86,1.34-13,1.76-17.34-.22-.43-.19-.84-.39-1.24-.6.04.73.1,1.45.18,2.17.77,7.28,1.01,14.49.6,21.66,5.64,2.28,10.96,4.46,10.96,4.46,4.49,1.98,11.9,7.52,30.79,8.77,18.89,1.25,31.73-3.76,33.71-4.91,1.97-1.31,12.03-2.83,17.88-3.63-.29-2.2-.26-4.37,1.11-6.46.07-.07.28-.07.42-.14.14-.21.14-.49.28-.7,2.23-2.02,3.27-4.66,5.08-7.03.35-.42.63-.91,1.18-1.18v-.28c.35-.21.56-.49.97-.56,2.02-.49,3.69-1.6,5.57-2.3,1.05-.38,2.11-.77,3.17-1.13-1.04-4.52-2.27-8.15-2.27-8.15"/>
        <path class="cls-17" d="M113.09,84.88c1.17.62,3.39,1.99,5.46,4.28,2.62,2.9,4.24,6.39,4.81,10.36,1.02,7.06-2.58,15.54-5.75,23.02-.99,2.33-1.92,4.53-2.67,6.56-2.35,6.42-5.59,18.91-.92,30.46,3.72,9.2,9.87,15.46,18.28,18.63,5.47,2.06,22.17,8.9,22.34,8.97.75.33,1.58.76,2.53,1.25,4.67,2.41,12.49,6.46,28.2,7.5,18.56,1.23,31.41-3.61,33.61-4.88,1.99-1.32,11.91-2.83,17.78-3.63-.24-1.96-.27-4.23,1.16-6.41v-.02s.02-.01.02-.01c.07-.08.18-.1.29-.12.05,0,.09-.02.13-.03.04-.07.06-.16.09-.26.04-.13.08-.27.16-.4v-.02s.03-.01.03-.01c1.38-1.25,2.28-2.71,3.24-4.27.56-.91,1.14-1.84,1.82-2.74h0c.07-.09.14-.18.22-.28.25-.33.51-.66.92-.9v-.27l.08-.05c.1-.06.2-.13.29-.2.21-.16.42-.32.74-.37,1.2-.29,2.3-.82,3.36-1.33.7-.34,1.43-.68,2.18-.96.38-.13.75-.27,1.12-.4.62-.23,1.26-.46,1.9-.68-.93-3.99-2-7.3-2.2-7.89-1.04-.21-10.1-2.06-20.88-3.85-10.52-1.74-24.86-3.78-33.48-3.58-6.77.15-15.09,2.33-23.13,4.44-5.84,1.53-11.88,3.12-17.2,3.88-5.98.86-10.44.57-13.64-.89-11.35-5.17-13.21-13.26-12.77-19.13.08-1.03.56-3.01,1.22-5.75,1.27-5.25,3.18-13.19,3.81-21.14.75-9.47-.53-16.69-3.8-21.46-4.93-7.18-11.21-11.09-15.62-13.1-3.94-1.8-7.11-2.44-8.12-2.62l4.36,8.29ZM191.34,196.48c-1.92,0-3.91-.06-5.98-.2-15.79-1.05-23.64-5.11-28.34-7.54-.95-.49-1.77-.91-2.51-1.24-.16-.07-16.86-6.91-22.33-8.97-3.55-1.33-6.75-3.26-9.52-5.72-3.8-3.37-6.81-7.78-8.96-13.1-2.01-4.98-2.76-10.64-2.23-16.83.49-5.71,1.98-10.69,3.14-13.88.75-2.05,1.68-4.25,2.67-6.58,3.16-7.44,6.73-15.88,5.73-22.84-1.28-8.85-7.51-13.03-10.14-14.41l-.05-.02-.03-.05-4.7-8.94.33.04s3.73.5,8.55,2.7c2.83,1.29,5.49,2.91,7.9,4.82,3.02,2.38,5.66,5.21,7.86,8.41,1.8,2.62,3.01,5.97,3.62,9.96.51,3.39.6,7.34.25,11.73-.63,7.98-2.55,15.93-3.82,21.2-.63,2.62-1.13,4.69-1.21,5.7-.43,5.76,1.39,13.7,12.56,18.79,3.13,1.43,7.53,1.71,13.44.86,5.3-.76,11.33-2.34,17.16-3.87,8.06-2.11,16.4-4.3,23.22-4.46,8.64-.19,23.01,1.84,33.54,3.59,11.41,1.89,20.9,3.85,20.99,3.87l.1.02.03.1s1.24,3.7,2.27,8.17l.04.15-.15.05c-.68.23-1.38.48-2.04.72-.38.14-.75.27-1.12.41-.73.27-1.45.61-2.15.95-1.08.52-2.2,1.05-3.44,1.35h-.01c-.24.04-.4.17-.59.31-.08.06-.15.12-.24.17v.29l-.1.05c-.4.2-.64.52-.9.85-.07.09-.15.19-.22.28-.67.88-1.24,1.81-1.8,2.71-.92,1.5-1.88,3.05-3.28,4.33-.05.08-.08.18-.11.28-.04.13-.08.27-.16.4l-.03.04-.04.02c-.08.04-.18.06-.26.08-.04,0-.09.02-.11.03-1.39,2.14-1.32,4.39-1.07,6.32l.02.17-.17.02c-5.82.79-15.86,2.3-17.81,3.6h0c-1.96,1.14-12.42,5.13-27.83,5.13"/>
        <path class="cls-1" d="M112.13,78.88c3.27.42,10.72,5.08,14.06,10.79s4.73,14.75,4.04,20.81c-.7,6.05-2.99,14.06-5.43,21.08-2.44,7.03-3.96,21.5,3.55,26.86,6.33,3.97,26.86,12.92,27.49,13.04,4.87.12,13.71-1.54,22.62-5.96,8.91-4.43,14.4-6.86,20.94-8.6,6.54-1.74,11.9.77,11.9.77l57.69,7.84s7.44-39.75,5.95-40.84c-1.49-1.09-7.2-7.15-9.85-10.28s-14.34-14.2-25.54-18.23c-11.2-4.04-21.27-4.06-31.85-1.83-10.58,2.23-16.51,6.68-21.25,9.35-4.45,2.5-9.05,5.5-14.06,8.14-5.01,2.64-9.95,4.52-15.17.7-4.71-3.45-4.8-18.16-7.03-27.42-2.23-9.25-8.14-20.74-16-27.63-7.86-6.89-24.15-12.63-32.69-12.8-7.25.42-11.78.63-11.78.63l5.85,39.25,16.56-5.64Z"/>
        <path class="cls-8" d="M156.14,154c-1.75,5.24-8.3,5.02-12.67,3.93-2.53-.66-4.47-2.4-6.36-4.01-1.11,2.5-2.16,5.02-3.19,7.54,8.53,4.3,21.42,9.9,21.91,9.99,3.94.09,10.49-.97,17.56-3.73-10.7-1.19-11.86-10.08-17.25-13.72"/>
        <path class="cls-8" d="M216.37,135.47c-5.72,4.72-8.59,13.15-16.18,21.23,6.17-1.34,11.1.96,11.1.96l7.78,1.06c1.15-6.34,3.11-12.58,4.25-18.93-3.85-1.62-3.81-7.92-6.94-4.32"/>
        <path class="cls-5" d="M173.57,112.71c5.01-2.64,9.95-5.11,14.4-7.61,4.74-2.67,9.72-5.71,20.23-8.23,9.56-2.3,19.24-2.4,30.45,1.64,11.2,4.04,23.79,12.74,26.44,15.87-2.64-3.13-14.33-14.2-25.54-18.23-11.2-4.03-21.27-4.06-31.85-1.83-10.58,2.23-16.51,6.68-21.25,9.35-4.45,2.5-9.05,5.5-14.06,8.14-5.01,2.64-9.95,4.52-15.17.7,5.29,5.09,11.33,2.86,16.34.21"/>
        <path class="cls-22" d="M155.85,171.28c5.02.11,13.92-1.68,22.52-5.95,8.71-4.33,14.35-6.85,20.98-8.61,3.41-.91,6.49-.65,8.48-.27,2.02.38,3.32.95,3.51,1.04l57.5,7.81c.25-1.33,1.95-10.51,3.49-19.74.97-5.82,1.68-10.52,2.12-13.96.75-5.94.48-6.71.38-6.81-1.55-1.14-7.38-7.34-9.88-10.3-2.8-3.32-14.51-14.23-25.46-18.18-10.31-3.71-20.11-4.28-31.75-1.83-8.69,1.83-14.17,5.13-18.56,7.78-.92.56-1.8,1.08-2.63,1.55-1.79,1.01-3.57,2.08-5.46,3.21-2.75,1.65-5.6,3.36-8.6,4.94-2.37,1.25-4.93,2.46-7.57,2.79-2.81.36-5.36-.33-7.79-2.11-1.49-1.09-2.61-3.28-3.53-6.88-.8-3.14-1.34-6.97-1.86-10.68-.48-3.45-.99-7.01-1.7-9.96-2.06-8.56-7.79-20.39-15.95-27.54-7.83-6.86-24.22-12.58-32.57-12.76-6.34.37-10.64.57-11.58.62l5.79,38.85,16.4-5.58h.04c3.4.44,10.86,5.2,14.18,10.88,1.59,2.71,2.82,6.29,3.55,10.33.68,3.74.86,7.5.51,10.59-.81,7.08-3.76,16.27-5.44,21.12-1.11,3.22-2.21,8.58-1.95,13.99.2,4.16,1.31,9.73,5.43,12.67,3.54,2.22,11.43,5.92,15.82,7.93,5.98,2.74,11.18,4.97,11.59,5.08M156.33,171.64c-.17,0-.34,0-.5,0h-.03c-.35-.07-5.82-2.42-11.64-5.09-4.41-2.02-12.34-5.74-15.9-7.97h0c-4.24-3.03-5.37-8.71-5.58-12.94-.27-5.46.84-10.87,1.97-14.12,2.9-8.35,4.82-15.83,5.42-21.05.65-5.61-.54-14.77-4.01-20.7-1.49-2.55-3.98-5.15-7.01-7.32-2.58-1.86-5.22-3.14-6.88-3.37l-16.72,5.69-5.9-39.64h.19s4.6-.22,11.77-.64h.01c4.22.08,10.44,1.54,16.66,3.9,6.73,2.55,12.46,5.72,16.14,8.95,3.71,3.24,7.22,7.73,10.15,12.97,2.67,4.76,4.76,9.99,5.91,14.75.71,2.96,1.22,6.53,1.7,9.99,1.04,7.38,2.11,15.02,5.26,17.33,5.27,3.86,10.29,1.77,14.98-.71,2.99-1.58,5.83-3.28,8.58-4.93,1.89-1.13,3.68-2.2,5.47-3.21.83-.47,1.7-.99,2.62-1.55,4.42-2.66,9.93-5.98,18.67-7.82,5.63-1.18,10.78-1.66,15.73-1.44,5.46.24,10.76,1.31,16.21,3.27,6.06,2.18,12.06,6.36,16.03,9.48,4.71,3.7,8.31,7.29,9.58,8.8,2.74,3.24,8.38,9.2,9.82,10.25.28.2,1.02.75-2.35,21-1.65,9.96-3.52,19.91-3.54,20.01l-.03.16-.16-.02-57.71-7.84h-.02c-.05-.04-5.38-2.47-11.78-.77-6.6,1.76-12.22,4.27-20.91,8.59-4.07,2.02-8.52,3.65-12.86,4.7-3.45.84-6.75,1.29-9.34,1.29"/>
        <path class="cls-1" d="M257.77,152.19c4.55,6.58,11.75,19.01,8.28,31.09-5.11,17.83-21.78,22.18-43.3,23.64-5.46.57-10.8.75-14.6.81-6.82.09-20.98.93-29.36,2.1-5.69.8-16.06,1.89-26.09,7.59-8.68,4.94-11.28,12.39-10.54,13.54.73,1.15,5.64-5,16.66-7.93,11.48-3.05,25.54-2.5,34.93-1.71,9.85.83,34.32,3.38,47.94,1.67,18.86-2.37,30.48-8.86,39.52-18.9,8.27-9.18,14.75-26.19,13.08-42.75-1.67-16.56-10.86-33.45-26.24-40.76l-10.29,31.61Z"/>
        <path class="cls-5" d="M165.46,213.66c3.95-1.21,12.64-2.82,19.52-3.27,6.88-.45,21.92-.77,34.36-1.35,12.65-.59,22.56-2.67,25.52-4.05-4.67,3.57-18.95,4.95-25.58,5.46-6.63.51-27.82.58-34.01.95-6.19.36-19.81,2.27-19.81,2.27"/>
        <path class="cls-8" d="M294.3,161.34c-.88,15.76-8.14,29.98-16.75,38.83-10.27,10.55-19.2,15.06-38.05,17.43-13.63,1.71-34.67.84-44.52,0-9.39-.8-24.47-.73-35.89,2.55-9.34,2.68-15.62,9.07-16.11,7.13-.88,1.83-1.1,3.23-.82,3.68.73,1.15,5.64-5,16.66-7.93,11.48-3.05,25.54-2.5,34.93-1.71,9.85.83,34.32,3.38,47.94,1.67,18.86-2.37,30.48-8.86,39.52-18.9,8.27-9.18,14.75-26.19,13.08-42.75"/>
        <path class="cls-22" d="M142.43,231.28s-.08,0-.11-.01c-.13-.03-.23-.1-.31-.21-.19-.3-.19-.91,0-1.71.65-2.61,3.61-8.09,10.6-12.07,9.36-5.32,19.09-6.65,24.9-7.44.44-.06.86-.12,1.25-.17,8.66-1.22,22.87-2.02,29.38-2.11,5.27-.07,10.18-.34,14.58-.81,22.29-1.52,38.15-6.1,43.15-23.52,2.52-8.79-.34-19.49-8.26-30.95l.28-.2c3.22,4.66,5.63,9.21,7.17,13.52,2.29,6.42,2.67,12.38,1.14,17.72-2.4,8.38-7.5,14.29-15.59,18.07-6.6,3.08-15.19,4.84-27.86,5.7-4.41.46-9.32.74-14.61.81-6.5.09-20.69.89-29.34,2.1-.4.05-.82.11-1.26.17-5.78.79-15.47,2.11-24.78,7.4-2.97,1.69-5.56,3.88-7.49,6.36-2.09,2.66-2.75,4.73-2.94,5.49-.2.81-.16,1.28-.05,1.44.02.03.04.05.08.06.32.07,1.22-.55,2.35-1.33,2.66-1.83,7.11-4.89,14.04-6.74,8.85-2.35,20.62-2.93,34.99-1.71,1.08.09,2.3.2,3.72.33,11.21,1,32.07,2.87,44.19,1.34,17.49-2.2,29.65-8.01,39.42-18.85,7.51-8.33,14.79-25.22,13.04-42.62-1.83-18.12-11.82-33.75-26.07-40.78,0,0,1.61.42,3.5,1.54,5.89,3.64,11.01,8.87,14.95,15.3,4.35,7.12,7.11,15.38,7.97,23.9.79,7.8-.19,16.17-2.82,24.22-2.4,7.33-6.06,13.96-10.3,18.67-4.78,5.3-10.06,9.35-16.13,12.37-6.6,3.28-14.29,5.43-23.5,6.59-12.16,1.52-33.04-.34-44.27-1.34-1.42-.13-2.64-.24-3.72-.33-14.33-1.22-26.06-.64-34.87,1.7-6.87,1.83-11.29,4.87-13.94,6.69-1.28.88-2.02,1.39-2.5,1.39"/>
        <path class="cls-13" d="M266.05,183.28c3.46-12.08-3.73-24.51-8.28-31.09l-6.89,21.1c1.47,2.31,2.37,11.02.69,16.45-1.67,5.43-7.79,12.48-16.28,14.94-3.77,1.09-8.19,1.8-12.54,2.25,21.52-1.47,38.19-5.81,43.3-23.64"/>
        <path class="cls-17" d="M251.07,173.26c1.45,2.43,2.36,11.03.67,16.52-.88,2.85-2.93,6.01-5.63,8.66-3.1,3.04-6.83,5.25-10.77,6.4-1.73.5-3.68.94-5.83,1.33,18.71-2.03,31.9-7.33,36.37-22.93,2.5-8.72-.29-19.31-8.06-30.66l-6.75,20.69ZM222.77,207.1l-.03-.35c4.94-.52,9.15-1.28,12.51-2.25,8.36-2.42,14.46-9.29,16.16-14.82.74-2.42,1.04-5.82.82-9.33-.2-3.11-.78-5.85-1.5-6.97l-.04-.07.02-.08,7-21.43.2.29c3.22,4.66,5.63,9.21,7.17,13.52,2.28,6.42,2.67,12.38,1.14,17.72l-.17-.05.17.05c-2.4,8.38-7.5,14.29-15.59,18.07-6.6,3.08-15.19,4.84-27.86,5.7"/>
        <path class="cls-19" d="M283.5,158.11c1.23,3.05.52,6.21-1.58,7.06-2.1.85-4.8-.94-6.04-3.98-1.23-3.05-.52-6.21,1.58-7.06,2.1-.85,4.8.94,6.04,3.98"/>
        <path class="cls-19" d="M276.15,196.36c-2.13.87-4.34.39-4.95-1.08-.6-1.47.64-3.36,2.77-4.24,2.13-.87,4.34-.39,4.95,1.08.6,1.47-.64,3.37-2.77,4.24"/>
        <path class="cls-19" d="M258.64,214.5c-1.96.8-4,.36-4.55-.99-.55-1.35.58-3.1,2.54-3.9,1.96-.8,4-.36,4.55.99.55,1.35-.59,3.1-2.55,3.9"/>
        <path class="cls-21" d="M258.64,214.5c1.21-.5,2.11-1.36,2.49-2.26-1.9.85-3.92,1.61-6.1,2.27.91.5,2.28.54,3.62-.01"/>
        <path class="cls-1" d="M222.31,127.49c-4.21,2.49-9.91,12.59-8.13,22.92,6.37,7.31,41.54,18.89,41.54,18.89,4.07-2.92,8.29-13.79,7.56-20.37l-40.97-21.44Z"/>
        <path class="cls-5" d="M217.1,145.04c-1.27-6.75,1.77-12.94,4.95-17.38-4.1,2.69-9.4,12.26-7.96,22.19,1.46-1.76,3.19-3.68,3-4.8"/>
        <path class="cls-8" d="M260.98,154.33c-1.58.24-1.64-1.44-2.78-3.81-1.78,5.14-5.77,11.76-7.39,17.1,3,1.05,4.91,1.68,4.91,1.68,3.95-2.84,8.05-13.18,7.61-19.79-.49,3.38-1.09,4.63-2.35,4.82"/>
        <path class="cls-22" d="M255.75,169.5l-.08-.03c-.09-.03-8.91-2.94-18.39-6.71-12.75-5.07-20.57-9.18-23.22-12.23l-.03-.04v-.05c-1.03-5.93.38-11.13,1.75-14.45.93-2.27,2.15-4.36,3.46-6.02,1.49-1.85,3.08-2.49,3.08-2.49-2.26,1.49-4.64,4.8-6.22,8.64-1.34,3.27-2.73,8.38-1.74,14.21,2.62,2.96,10.59,7.15,23.06,12.1,8.98,3.57,17.36,6.37,18.29,6.68,3.82-2.83,8.33-13.48,7.58-20.24,0,0,.68,2.14.14,4.87-.34,2.13-.97,4.44-1.87,6.78-1.61,4.18-3.75,7.52-5.72,8.94l-.07.05Z"/>
        <path class="cls-1" d="M226.22,131.56c-6.57,4.75-16.73,18.2-19.31,31.62-1.95,10.13-.14,15.15,2.92,18.97,3.06,3.83,5.7,6.75,6.96,10.51,1.1,3.3-1.13,10.68-5.78,15.02,3.41-.1,7.55-.31,11.75-.75,4.35-.46,8.77-1.17,12.54-2.26,3.61-1.04,6.79-2.92,9.38-5.15,1.28-3.76,1.05-8.7-2.7-13.41,1.94-2.11,6.24-5.41,9.9-9.92,2.13-2.63,4.04-5.67,5.13-9.12,1.97-6.21,1.8-12.17,1.23-16.31-.48-3.49-1.39-5.64-1.39-5.64l-30.63-13.56Z"/>
        <path class="cls-5" d="M214.92,148.15c3.77-6.71,11.3-16.59,11.3-16.59-6.57,4.75-16.73,18.2-19.31,31.62-1.95,10.14-.14,15.15,2.92,18.97,1.49,1.86,2.88,3.51,4.06,5.14-.39-2.01-5.6-8.39-5.74-16.35-.17-9.66,5.21-20,6.77-22.78"/>
        <path class="cls-8" d="M258.24,150.76c-.48-3.49-1.4-5.64-1.4-5.64,0,0,2.45,16.21-9.64,29.21-5.06,5.43-10.55,6.12-10.94,8.23-.65,3.53,8.81,11.36,2.43,20.85,2.23-1.04,4.25-2.37,5.99-3.87,1.28-3.76,1.05-8.7-2.7-13.41,1.94-2.11,6.24-5.41,9.9-9.92,2.13-2.63,4.04-5.67,5.14-9.12,1.96-6.21,1.8-12.17,1.23-16.31"/>
        <path class="cls-22" d="M210.55,207.86l.34-.31c2.13-1.99,3.91-4.77,5.01-7.83.99-2.78,1.27-5.4.73-7.01-1.08-3.23-3.23-5.89-5.73-8.97-.39-.48-.79-.97-1.19-1.48-1.77-2.21-2.84-4.5-3.38-7.2-.64-3.24-.5-7.14.42-11.92,1.48-7.72,5.22-14.62,8.09-19.05,2.57-3.96,5.56-7.65,8.41-10.39,1.65-1.56,2.98-2.13,2.98-2.13-6.35,4.85-16.49,17.88-19.14,31.65-2.08,10.82.29,15.59,2.89,18.83.41.51.81,1,1.19,1.48,2.52,3.11,4.7,5.79,5.79,9.08.56,1.68.28,4.38-.73,7.23-1.06,2.96-2.74,5.65-4.77,7.65,4.04-.12,7.84-.37,11.29-.73,4.94-.52,9.15-1.28,12.51-2.25,3.31-.96,6.51-2.71,9.28-5.08.87-2.61,1.66-7.74-2.69-13.2l-.09-.12.1-.11c.68-.75,1.66-1.64,2.8-2.68,2.11-1.92,4.73-4.32,7.09-7.23,2.47-3.04,4.13-6.01,5.1-9.07,1.99-6.27,1.76-12.29,1.22-16.24-.47-3.43-1.21-5.65-1.22-5.67,0,0,1.1,2.15,1.57,5.62.54,3.98.77,10.05-1.24,16.39-.98,3.1-2.67,6.1-5.16,9.18-2.38,2.93-5.01,5.34-7.13,7.27-1.07.98-2.01,1.83-2.67,2.55,1.71,2.19,2.78,4.55,3.18,7.02.34,2.15.16,4.38-.54,6.43l-.02.05-.04.03c-2.81,2.41-6.08,4.21-9.45,5.18-3.38.98-7.61,1.74-12.57,2.26-3.59.38-7.55.63-11.77.75h-.46Z"/>
        <path class="cls-19" d="M225.61,163.8c-1.22,3.38-3.98,5.49-6.15,4.7s-2.94-4.16-1.72-7.55c1.22-3.38,3.98-5.48,6.15-4.7,2.17.78,2.94,4.16,1.72,7.54"/>
        <path class="cls-19" d="M231.65,151.29c-.61,1.13-1.74,1.71-2.54,1.28-.79-.42-.94-1.69-.33-2.82.61-1.13,1.74-1.71,2.54-1.28.79.43.94,1.69.33,2.82"/>
        <path class="cls-19" d="M231,167.78c-.3,1.05-1.09,1.75-1.78,1.56-.68-.19-1-1.2-.7-2.26.3-1.05,1.09-1.75,1.78-1.56s1,1.2.7,2.26"/>
        <path class="cls-22" d="M241.85,186.23c-1.32-1.46-2.34-1.9-2.35-1.91,0,0,1.23.16,2.61,1.67l-.26.23Z"/>
        <path class="cls-1" d="M155.75,153.3c1.46,2.23,3.06,7,3.07,11.04,0,4.84-1.67,10.72-2.37,11.62-2.99-6.05-8.07-20.88-8.07-20.88l7.37-1.78Z"/>
        <path class="cls-8" d="M158.82,164.33c0-4.04-1.61-8.81-3.07-11.04h-.03c1.59,4.09,1.79,7.47.42,9.01-1.2,1.35-3.3.9-5.09.28,1.68,4.6,3.83,10.19,5.4,13.37.7-.91,2.37-6.78,2.37-11.62"/>
        <path class="cls-22" d="M156.42,176.28l-.12-.25c-2.96-5.99-8.03-20.75-8.08-20.9l.33-.11c.05.15,4.96,14.43,7.92,20.57.75-1.44,2.18-6.79,2.17-11.26,0-4.1-1.51-8.93-2.89-11.04,0,0,1.1,1.08,1.9,3.37.77,2.3,1.34,5.12,1.34,7.67,0,2.87-.58,5.82-.92,7.32-.48,2.09-1.09,3.9-1.48,4.4l-.17.22Z"/>
        <path class="cls-1" d="M132.86,149.29c-4.07,2.4-7.6,10.29-6.56,18.32,1.04,8.04,7.61,14.54,7.61,14.54-1.79,2.37-3.22,5.53-4.59,8.94-1.15,2.88-4.89,7.43-5.85,8.56-1.04,1.23-3.33,2.47-5.24,3.71-1.22.8-2.8,2.03-3.45,2.67,1.11,3.79,8.06,9.38,8.06,9.38l18.93,2.02c3.83-1.46,5.39-3.41,5.98-6.19.47-2.22-.28-3.69,0-6.26s3.13-8.35,4.59-10.58c1.46-2.23,3.03-4.94,4.04-7.72,1.49-4.1,1.74-10.99.63-16.91-1.11-5.92-3.88-13.36-7.64-16.93l-16.52-3.55Z"/>
        <path class="cls-8" d="M132.74,209.56c-1.91,2.26-1.4,4.76-5.7,6.3l4.89.52c.55-4.05,1.77-6.71,6.51-9.88-1.8.46-3.99,1.04-5.7,3.06"/>
        <path class="cls-8" d="M129.51,204.87c-2.47.02-4.41.69-6.28,2.06-1.8,1.32-3.06,3.77-6.05,2.99,1.38,1.64,3.04,3.2,4.2,4.24,1.32-5,3.93-7.66,8.13-9.28"/>
        <path class="cls-8" d="M157.01,169.76c-1.11-5.92-3.88-13.36-7.64-16.93,2.93,4.01,4.46,12.51,4.95,17.45.55,5.58.19,10.51-1.38,14.13-1.18,2.71-2.45,4.98-4.01,7.76-1.31,2.32-4.05,9.21-4.52,11.75-.55,3,.55,4.71.18,6.94-.65,3.96-4.16,3.93-7.41,6.07l4.59.49c3.83-1.46,5.39-3.41,5.98-6.19.47-2.22-.28-3.69,0-6.26.28-2.57,3.13-8.35,4.59-10.58,1.46-2.23,3.03-4.94,4.04-7.72,1.49-4.1,1.74-10.99.63-16.91"/>
        <path class="cls-5" d="M124.24,200.29c1.53-1.38,4.8-5.52,5.95-8.4,1.37-3.42,3.95-9.75,7.7-13.38,0,0-1.99,1.51-2.87,2.38-2.11-1.42-6.4-7.22-7.28-13.18-1.18-8.02,1.47-14.75,5.12-18.43-4.07,2.4-7.6,10.29-6.56,18.32,1.04,8.04,7.61,14.54,7.61,14.54-1.78,2.37-3.21,5.53-4.58,8.95-1.16,2.88-4.89,7.43-5.85,8.56-1.04,1.23-3.33,2.47-5.24,3.71,3-1,4.56-1.78,6-3.08"/>
        <path class="cls-22" d="M141.8,217.61h-.04s-18.98-2.03-18.98-2.03l-.04-.03c-.29-.23-7-5.67-8.12-9.47l-.03-.1.08-.07c.69-.68,2.32-1.93,3.48-2.69.46-.3.95-.61,1.42-.9,1.48-.92,3.01-1.87,3.78-2.78.19-.22,4.56-5.38,5.82-8.51,1.26-3.14,2.68-6.39,4.52-8.87-.39-.41-1.82-1.94-3.33-4.17-1.63-2.41-3.68-6.17-4.23-10.36-.49-3.77-.02-7.84,1.33-11.43.57-1.53,1.28-2.91,2.07-4.08,1.59-2.34,3.33-2.84,3.33-2.84-3.93,2.32-7.44,10.23-6.39,18.3.54,4.12,2.56,7.82,4.17,10.21,1.74,2.59,3.38,4.21,3.39,4.23l.11.11-.09.12c-1.86,2.47-3.35,5.89-4.56,8.91-1.25,3.12-5.4,8.05-5.87,8.61-.81.95-2.36,1.92-3.86,2.85-.47.29-.96.6-1.42.89-1.22.79-2.7,1.96-3.35,2.57,1.13,3.55,7.38,8.7,7.93,9.16l18.84,2.01c3.52-1.35,5.21-3.11,5.84-6.05.25-1.15.15-2.11.05-3.13-.09-.93-.18-1.89-.05-3.11.28-2.64,3.19-8.48,4.62-10.65,1.82-2.78,3.18-5.36,4.02-7.69,1.47-4.04,1.72-10.96.62-16.82-1.01-5.36-3.57-13.03-7.47-16.96,0,0,1.83,1.22,3.32,3.99.6,1.08,1.18,2.27,1.71,3.55,1.19,2.87,2.18,6.19,2.78,9.35,1.11,5.91.85,12.9-.63,17-.85,2.35-2.22,4.96-4.06,7.76-1.41,2.15-4.28,7.91-4.56,10.5-.13,1.19-.04,2.13.05,3.04.1,1.05.2,2.03-.06,3.24-.65,3.05-2.47,4.94-6.09,6.32l-.04.02Z"/>
        <path class="cls-22" d="M134.05,182.26l-.27-.22c.39-.47.78-.9,1.15-1.29,1.49-1.57,2.97-2.24,2.97-2.24-.02.01-1.93,1.45-3.84,3.75"/>
        <path class="cls-22" d="M132.42,214.8c-.22-2.9,2.03-5.52,4.15-7.26,1.5-1.18,2.92-1.55,2.92-1.55-1.98,1.04-7.04,4.63-6.72,8.79l-.35.03Z"/>
        <path class="cls-22" d="M122.49,212.52l-.35-.02c.22-2.97,2.22-4.95,4.24-6.28,1.79-1.16,3.35-1.39,3.35-1.39-2.25,1.04-6.93,3.21-7.25,7.69"/>
        <path class="cls-10" d="M115.85,205.46c-3.19,1.09-5.32,7.25-4.79,8.26.72,1.36,9.12,1.97,10.72.85.59-.41,1.1-3.59-.89-6.7-1.31-2.05-4.18-2.71-5.05-2.41"/>
        <path class="cls-2" d="M120.9,207.87s-.01-.01-.02-.02c1.43,6.62-8.33,6.46-9.89,5.21-.02.29,0,.52.07.65.72,1.36,9.12,1.97,10.72.85.59-.41,1.11-3.59-.89-6.7"/>
        <path class="cls-12" d="M116.36,205.57c-.18,0-.34.02-.45.06-1.81.62-3.3,2.99-4.1,5-.61,1.54-.76,2.7-.6,3.01.07.13.38.47,1.75.8,2.7.65,7.6.77,8.72-.01.21-.15.5-.94.45-2.19-.05-1.45-.55-2.96-1.38-4.27-1.08-1.69-3.28-2.4-4.39-2.4M118.13,215.33c-1.83,0-3.87-.22-5.24-.55-1.11-.27-1.78-.6-1.98-.98-.29-.54.08-2.05.58-3.31.4-1.01,1.89-4.37,4.31-5.2l.06.16-.06-.16c.52-.18,1.51-.05,2.48.33,1.2.47,2.18,1.23,2.77,2.15,2,3.13,1.56,6.43.84,6.93-.63.44-2.1.61-3.75.61"/>
        <path class="cls-10" d="M123.8,209.12c-2.03,1.05-4.27,7.8-2.81,9.12,1.46,1.32,10.46-.46,11.42-2.17.75-1.33-.64-4.56-3.2-6.19-1.74-1.11-3.44-1.77-5.42-.76"/>
        <path class="cls-2" d="M130.47,210.89c1.75,5.43-8.15,7.46-9.67,7.1.06.1.12.18.2.25,1.46,1.32,10.46-.46,11.42-2.17.62-1.09-.21-3.47-1.95-5.19"/>
        <path class="cls-12" d="M123.88,209.28c-1.35.7-2.81,4.12-3.12,6.49-.15,1.17-.03,2.01.35,2.35.54.49,2.49.55,4.97.15,3.08-.5,5.74-1.48,6.19-2.27.34-.59.2-1.67-.36-2.82-.61-1.26-1.63-2.4-2.78-3.14-1.55-.99-3.27-1.77-5.24-.75M123.15,218.87c-.95,0-1.86-.12-2.28-.5-.6-.54-.58-1.74-.46-2.65.32-2.5,1.84-6,3.3-6.75,2.13-1.1,3.95-.28,5.59.77,2.68,1.71,4.06,5.02,3.26,6.42-.6,1.06-3.75,2.01-6.43,2.45-.55.09-1.8.27-2.98.27"/>
        <path class="cls-10" d="M133.22,212.22c-1.2.87-2.51,7.39-1.33,8.14,1.55.97,9.14-1.02,9.88-2.92.39-1.01-.85-4.11-2.97-5.28-1.86-1.03-4.15-.97-5.58.07"/>
        <path class="cls-2" d="M140.57,213.76c.79,4.11-7.04,6.51-9.05,5.87.07.35.2.6.38.72,1.55.97,9.14-1.02,9.88-2.92.27-.68-.22-2.31-1.21-3.66"/>
        <path class="cls-12" d="M133.32,212.36c-.81.58-1.79,4.29-1.72,6.51.02.71.16,1.2.38,1.34.76.48,3.38.19,5.96-.66,2.03-.67,3.4-1.48,3.67-2.17.35-.89-.82-3.92-2.89-5.06-1.77-.98-3.99-.96-5.4.05M133.25,220.78c-.63,0-1.14-.08-1.45-.28-.33-.21-.52-.75-.54-1.62-.07-2.21.88-6.1,1.86-6.8,1.51-1.09,3.88-1.12,5.77-.08.97.54,1.88,1.55,2.5,2.77.55,1.09.77,2.16.55,2.72-.44,1.14-2.86,2.04-3.88,2.38-1.57.52-3.46.91-4.8.91"/>
        <path class="cls-19" d="M137.08,168.72c.45,1.19.12,2.41-.72,2.73-.85.32-1.89-.39-2.34-1.57-.45-1.19-.12-2.41.72-2.72.85-.32,1.89.39,2.34,1.57"/>
        <path class="cls-19" d="M142,162.72c.45,1.94-.07,3.71-1.16,3.96-1.08.25-2.33-1.12-2.77-3.05-.45-1.94.07-3.71,1.16-3.96,1.09-.25,2.33,1.11,2.77,3.05"/>
        <path class="cls-19" d="M145.31,171.17c.23,1-.13,1.94-.8,2.09-.67.16-1.41-.53-1.64-1.52-.23-1,.12-1.94.8-2.09.68-.16,1.41.53,1.64,1.52"/>
        <path class="cls-19" d="M124.22,63.44c1.38,1.43,1.8,3.27.93,4.11-.87.84-2.7.37-4.08-1.06-1.38-1.43-1.8-3.27-.93-4.11.87-.84,2.7-.37,4.08,1.06"/>
        <path class="cls-19" d="M135.45,80.72c.61,1.37.41,2.78-.43,3.16-.85.37-2.02-.44-2.63-1.81-.61-1.37-.41-2.78.43-3.16.84-.37,2.02.44,2.62,1.81"/>
        <path class="cls-19" d="M170.37,133.26c.76,1.8-.98,4.25-3.87,5.47-2.9,1.22-5.86.75-6.61-1.05-.76-1.8.98-4.25,3.87-5.46,2.9-1.22,5.86-.75,6.61,1.05"/>
        <path class="cls-19" d="M183.01,139.62c.31.93-.85,2.16-2.6,2.75-1.75.59-3.42.31-3.73-.62-.31-.93.85-2.16,2.6-2.75,1.75-.59,3.42-.31,3.73.62"/>
        <path class="cls-19" d="M205.58,118.5c1.1,3.61-3.08,8.08-9.33,9.99-6.25,1.9-12.21.52-13.31-3.1-1.1-3.61,3.08-8.08,9.33-9.99,6.25-1.9,12.21-.52,13.31,3.1"/>
        <path class="cls-19" d="M239.74,109.11c0,1.24-1.45,2.24-3.23,2.24s-3.24-1.01-3.24-2.24,1.45-2.24,3.24-2.24,3.23,1.01,3.23,2.24"/>
        <path class="cls-19" d="M262.26,128.71c-.62,1.14-2.4,1.36-3.97.51-1.57-.86-2.33-2.48-1.71-3.61.62-1.14,2.4-1.36,3.97-.51,1.57.86,2.33,2.48,1.71,3.61"/>
        <path class="cls-1" d="M79.36,43.61c-1.61-.04-7.79-2.5-12.04.35-3.37,2.26-4.39,6.65-5.43,10.33-1.46,5.18-3.34,8.94-3.34,8.94,0,0,6.83-5.29,10.23-8.49,3.41-3.2,10.57-11.13,10.57-11.13"/>
        <path class="cls-5" d="M67.83,44.82c4.15-3,8.81.19,11.52-1.22-1.61-.03-7.79-2.5-12.04.35-3.37,2.26-4.39,6.64-5.43,10.33-1.46,5.19-3.34,8.94-3.34,8.94,0,0,2.65-3.38,4.11-8.57,1.04-3.69,2.01-7.56,5.17-9.84"/>
        <path class="cls-22" d="M72.42,42.75c-1.72,0-3.49.33-5.01,1.34-3.09,2.07-4.18,5.99-5.14,9.46-.07.26-.15.52-.22.78-1.1,3.88-2.44,7-3.04,8.31,1.72-1.35,6.86-5.41,9.64-8.03,3.02-2.83,9.07-9.47,10.33-10.86-.36-.05-.83-.15-1.39-.28-1.38-.3-3.25-.72-5.18-.72M58.05,63.83l.34-.68s1.89-3.8,3.33-8.91c.07-.26.14-.51.22-.78.98-3.52,2.09-7.51,5.28-9.66,3.35-2.25,7.8-1.27,10.46-.68.74.16,1.33.29,1.68.3h.38s-.25.29-.25.29c-.07.08-7.21,7.97-10.59,11.14-3.37,3.17-10.18,8.45-10.24,8.5l-.6.47Z"/>
        <path class="cls-1" d="M112.4,77.63c2.29,2.24,3.91,8.33,1.87,13.24-2.1,5.05-6.98,8.92-11.32,11.59-6.68,4.11-16.14,11.91-20.06,18.49-2.48,4.1-7.46,7.71-13.47,6.15-6.91-1.79-6.78-6.78-4.8-12.84,1.98-6.05,3.33-9.37,3.33-9.37l18.3-30.09,13.65-.75,12.5,3.56Z"/>
        <path class="cls-8" d="M112.4,77.63c1.76,2.56.92,9.78-1.43,13.01-3.6,4.93-5.3,6.23-9.64,8.9-6.68,4.11-15.63,11.31-19.55,17.9-2.48,4.11-9.03,8.65-13.44,8.38-1.14-.07-2.06-.26-2.79-.55.92.78,2.18,1.41,3.87,1.85,6.01,1.56,10.98-2.05,13.47-6.15,3.92-6.59,13.38-14.38,20.06-18.49,4.34-2.67,9.22-6.54,11.32-11.59,2.04-4.92.42-11-1.87-13.24"/>
        <path class="cls-22" d="M72.27,127.66c-.93,0-1.9-.12-2.9-.38-2.64-.68-4.38-1.85-5.31-3.56-1.18-2.15-1.06-5.09.39-9.5,1.96-5.99,3.32-9.34,3.33-9.38v-.02s18.36-30.16,18.36-30.16l13.74-.76.02.35-13.56.75-18.24,30c-.09.23-1.42,3.55-3.32,9.34-1.41,4.32-1.54,7.17-.42,9.23.88,1.62,2.55,2.73,5.1,3.39.97.25,1.91.37,2.81.37,4.79,0,8.53-3.25,10.46-6.44,3.8-6.38,13-14.17,20.12-18.55,5.77-3.55,9.56-7.42,11.25-11.51.91-2.2,1.16-4.88.71-7.56-.4-2.34-1.3-4.44-2.41-5.62,0,0,1.12.59,1.91,2.51.37.92.66,1.96.85,3.04.47,2.74.21,5.49-.73,7.75-1.72,4.15-5.56,8.08-11.39,11.67-7.09,4.36-16.23,12.1-20.01,18.44-1.98,3.28-5.83,6.61-10.76,6.61"/>
        <path class="cls-22" d="M83.04,121.04l-.31-.16c1.34-2.62,1.33-5.26,1.33-5.29,0,0,.54,2.33-1.02,5.45"/>
        <path class="cls-14" d="M71.35,105.67c-1.44,1.32-3.76,6.19-4.45,8.42-.7,2.23-1.98,6.96,1.93,7.51,3.91.56,8.41-5.29,12.1-10.16,3.69-4.87,11.09-17.26,11.36-20.53-2.23-1.46-2.98-1.04-2.98-1.04l-17.97,15.8Z"/>
        <path class="cls-7" d="M80.93,111.45c1.7-2.25,4.19-6.09,6.41-9.91-2.56.07-5.27,1.58-5.27,1.58-2.41-.18-6.05.81-9.6,5.47-3.55,4.66-5.37,10.52-3.63,11.97.62.52,1.57.65,2.54.61,3.23-1.43,6.65-5.88,9.56-9.73"/>
        <path class="cls-11" d="M82.07,103.12c-1.38-.11-3.16.18-5.1,1.31,2.24-.14.49,3.07.07,4.34.84-1.11,1.78-3.28,3.19-4.19.8-.52,2.26-.98,2.86-.51,1.42,1.12-1.29,4-3.28,6.66-3.13,4.19-8.2,11.08-11.54,8.83.1.43.29.77.56.99.62.52,1.57.65,2.54.61,3.24-1.43,6.65-5.88,9.56-9.73,1.7-2.25,4.19-6.09,6.41-9.91-2.56.07-5.27,1.58-5.27,1.58"/>
        <path class="cls-16" d="M81.52,103.28c-2,0-5.42.83-8.92,5.43-1.69,2.22-3.06,4.82-3.77,7.13-.7,2.28-.66,3.95.11,4.6.5.42,1.3.61,2.38.57,3.26-1.46,6.7-6,9.47-9.66,1.65-2.18,4.08-5.93,6.24-9.61-2.4.18-4.85,1.53-4.88,1.54l-.05.03h-.05c-.16-.02-.34-.02-.54-.02M71.07,121.36c-1.04,0-1.83-.22-2.35-.66-.89-.75-.97-2.51-.22-4.97.72-2.35,2.11-4.99,3.83-7.24,3.9-5.13,7.73-5.68,9.7-5.55.38-.21,2.88-1.51,5.31-1.58h.31s-.16.26-.16.26c-2.2,3.78-4.72,7.68-6.42,9.93-2.8,3.7-6.29,8.3-9.63,9.78h-.03s-.03.02-.03.02c-.1,0-.2,0-.3,0"/>
        <path class="cls-16" d="M75.13,112.75s.31-1.48,1.57-3.72c1.43-2.37,3.34-4.94,5.28-6.06l.17.3c-2.97,1.71-5.9,6.95-7.03,9.48"/>
        <path class="cls-22" d="M71.47,105.81c-1.37,1.26-3.68,6.02-4.4,8.34-.58,1.87-1.25,4.53-.26,6.1.41.66,1.11,1.06,2.05,1.2.16.02.33.03.49.03,3.77,0,8.18-5.82,11.44-10.13,1.85-2.45,4.65-6.81,6.95-10.84,2.6-4.56,4.19-8.01,4.37-9.49-1.85-1.19-2.59-1.02-2.7-.98l-17.95,15.78ZM69.36,121.82c-.19,0-.37-.01-.55-.04-1.05-.15-1.82-.6-2.3-1.35-1.07-1.68-.38-4.45.22-6.39.67-2.15,2.98-7.1,4.5-8.5h0s17.98-15.81,17.98-15.81h.02c.09-.06.91-.44,3.16,1.04l.09.06v.1c-.3,3.36-7.83,15.89-11.41,20.62-1.71,2.25-3.83,5.06-5.98,7.13-2.18,2.1-4.06,3.13-5.72,3.13"/>
        <path class="cls-1" d="M102.95,44.72c-3.76-.97-12.25-4.73-22.13-2.23-9.88,2.51-14.22,12.36-19.34,16.84-10.58,9.26-18.05,11.56-21.92,17.12-2.81,4.03-6.69,11.43-3.83,21.85,2.71,9.88,9.12,14.54,16,15.03,7.93.56,16.97-3.36,25.82-8.98,10.09-6.4,13.01-13.01,13.01-13.01l12.39-46.62Z"/>
        <path class="cls-5" d="M40.94,77.51c3.87-5.56,10.87-7.85,21.45-17.1,5.12-4.48,9.56-14.18,19.05-16.55,7.98-1.99,15.19.4,21.14,2.24l.37-1.39c-3.76-.97-12.25-4.73-22.13-2.23-9.88,2.5-14.22,12.36-19.34,16.84-10.58,9.25-18.05,11.55-21.92,17.12-2.81,4.04-6.69,11.43-3.83,21.85-1.65-10.43,2.4-16.75,5.21-20.79"/>
        <path class="cls-8" d="M76.66,101.73c-8.85,5.61-17.26,8.24-24.78,8.21-8.6-.04-14.72-6.97-16.16-11.64,2.71,9.88,9.12,14.54,16,15.03,7.93.56,16.97-3.36,25.82-8.98,8.83-5.6,12.17-11.36,12.87-12.72l-1.53-1.81s-2.13,5.51-12.22,11.91"/>
        <path class="cls-22" d="M53.24,113.56c-.52,0-1.02-.02-1.52-.05-3.61-.25-6.96-1.65-9.67-4.03-3-2.64-5.19-6.38-6.49-11.12-1.27-4.62-1.34-9.13-.21-13.41.78-2.97,2.11-5.78,4.06-8.58,2.09-3,5.25-5.09,9.26-7.73,3.46-2.28,7.77-5.12,12.68-9.42,1.56-1.37,3.07-3.26,4.67-5.27,3.68-4.62,7.85-9.86,14.75-11.61,8.33-2.11,15.66.2,20.04,1.58.84.26,1.57.49,2.17.65l-.09.34c-.61-.16-1.34-.39-2.19-.65-4.34-1.37-11.62-3.66-19.85-1.57-6.79,1.72-10.92,6.91-14.56,11.49-1.61,2.02-3.12,3.92-4.71,5.31-4.93,4.32-9.25,7.16-12.72,9.45-3.98,2.62-7.12,4.69-9.17,7.64-4.65,6.68-5.92,13.98-3.8,21.7,2.45,8.93,8.23,14.36,15.85,14.9,7.03.5,15.44-2.43,25.71-8.95,5.19-3.29,8.43-6.63,10.24-8.86,1.96-2.41,2.7-4.06,2.71-4.08l.32.14c-.03.07-.76,1.7-2.75,4.14-1.83,2.25-5.1,5.62-10.33,8.94-4.78,3.03-9.25,5.32-13.28,6.82-4.02,1.49-7.74,2.24-11.11,2.24"/>
        <path class="cls-5" d="M96.56,49.06c-2.7-1.04-9.76-2.08-15.82,3.1-4.8,4.11-5.33,11.29-4.29,14.49-.45-11.03,7.63-18.44,20.1-17.59"/>
        <path class="cls-22" d="M75.71,63.23c.03-1.13.18-2.32.45-3.49.52-2.22,1.73-5.35,4.48-7.71,2.66-2.28,5.77-3.6,9.26-3.93,1.07-.1,2.06-.1,2.96-.04,1.79.12,3.71,1,3.71,1-2.07-.62-9.33-2.23-15.7,3.23-4.57,3.92-5.51,10.97-4.4,14.36,0,0-.67-.9-.75-3.43"/>
        <path class="cls-8" d="M103.36,68.76c0,7.78-4.76,14.1-10.64,14.1s-10.64-6.31-10.64-14.1,4.76-14.1,10.64-14.1,10.64,6.31,10.64,14.1"/>
        <path class="cls-22" d="M100.16,58.69c-1.92-2.49-4.55-4.03-7.45-4.03-2.48,0-4.76,1.13-6.57,3.01,2.35-1.71,4.65-2.81,6.96-2.59,2.43.24,4.28,1.18,7.05,3.61"/>
        <path d="M103.36,70.94c0,6.58-4.76,11.91-10.64,11.91s-10.64-5.33-10.64-11.91,4.76-11.91,10.64-11.91,10.64,5.33,10.64,11.91"/>
        <path class="cls-4" d="M102.95,71.54c0,6.25-4.58,11.31-10.23,11.31s-10.23-5.06-10.23-11.31,4.58-11.31,10.23-11.31,10.23,5.06,10.23,11.31"/>
        <path class="cls-18" d="M83.3,75.96c1.56,4.05,5.19,6.89,9.42,6.89,5.65,0,10.23-5.06,10.23-11.31,0-.35-.02-.7-.05-1.04-1.69,6.51-12.69,13.3-19.6,5.47"/>
        <path d="M92.72,60.41c-5.54,0-10.06,4.99-10.06,11.13s4.51,11.13,10.06,11.13,10.06-4.99,10.06-11.13-4.51-11.13-10.06-11.13M92.72,83.03c-5.74,0-10.4-5.15-10.4-11.48s4.67-11.48,10.4-11.48,10.4,5.15,10.4,11.48-4.67,11.48-10.4,11.48"/>
        <path class="cls-6" d="M101.5,74.07c0,4.5-3.13,8.14-6.99,8.14s-6.99-3.64-6.99-8.14,3.13-8.14,6.99-8.14,6.99,3.64,6.99,8.14"/>
        <path class="cls-15" d="M101.5,74.07c0,4.5-3.13,8.14-6.99,8.14s-6.99-3.64-6.99-8.14c3.66,7.16,11.24,6.23,13.99,0"/>
        <path d="M98.93,74.89c0,2.94-1.91,5.32-4.26,5.32s-4.26-2.38-4.26-5.32,1.91-5.32,4.26-5.32,4.26,2.38,4.26,5.32"/>
        <path class="cls-4" d="M92.62,71.56c0,.75-.6,1.35-1.35,1.35s-1.35-.6-1.35-1.35.6-1.35,1.35-1.35,1.35.6,1.35,1.35"/>
        <path class="cls-4" d="M97.26,77.95c0,.33-.27.6-.6.6s-.6-.27-.6-.6.27-.6.6-.6.6.27.6.6"/>
        <path class="cls-20" d="M94.51,66.1c-3.76,0-6.82,3.57-6.82,7.97s3.06,7.97,6.82,7.97,6.82-3.57,6.82-7.97-3.06-7.97-6.82-7.97M94.51,82.38c-3.95,0-7.17-3.73-7.17-8.32s3.22-8.31,7.17-8.31,7.17,3.73,7.17,8.31-3.22,8.32-7.17,8.32"/>
        <path class="cls-5" d="M57.06,85.25c-1.67-.05-7.89.55-9.92,7.39-1.6,5.38,1.58,9.44,4.23,10.32-6.01-5.22-3.89-15.12,5.69-17.71"/>
        <path class="cls-22" d="M48.26,100.93c-1.45-1.97-2.29-4.94-1.28-8.34.88-2.97,2.63-5.15,5.19-6.47,3.02-1.46,4.9-.87,4.9-.87-.24,0-2.4-.03-4.74,1.18-2.47,1.27-4.16,3.38-5.01,6.26-.9,3.01-.23,5.36.48,6.8.84,1.68,2.21,3.01,3.58,3.47,0,0-1.62-.17-3.11-2.03"/>
        <path class="cls-3" d="M58.38,91.48c-.19-.25-3.8.73-5.22,4.14-1.53,3.69.04,7.62,2.89,6.71,1.55-.49,1.88-3.28,2.14-5.97.22-2.25.51-4.48.19-4.89"/>
        <path class="cls-8" d="M58.38,91.48c-.05-.07-.35-.04-.79.09-.02.95-.19,2.4-.33,3.87-.26,2.69-.59,5.48-2.14,5.97-.71.22-1.34.15-1.87-.15.61.97,1.59,1.45,2.79,1.07,1.55-.49,1.88-3.28,2.14-5.97.22-2.25.51-4.48.19-4.89"/>
        <path class="cls-22" d="M58.23,91.61c-.54,0-3.63.99-4.91,4.07-.91,2.18-.74,4.67.4,5.91.6.66,1.39.86,2.28.58,1.51-.48,1.8-3.56,2.02-5.82.03-.36.07-.71.11-1.06.16-1.55.34-3.3.14-3.67,0,0-.02,0-.03,0M55.24,102.64c-.68,0-1.29-.28-1.78-.81-.58-.63-.95-1.6-1.05-2.71-.1-1.17.1-2.4.59-3.57,1.18-2.85,3.97-4.13,5.06-4.27.24-.03.38,0,.46.09.29.38.18,1.68-.05,3.95-.04.35-.07.71-.11,1.06-.29,3.05-.66,5.61-2.26,6.12-.29.09-.58.14-.86.14"/>
        <path class="cls-1" d="M88.51,89.53c.6.89,1.93,2.44,4.96,2.51-.61-2.3-2.12-3.33-4.96-2.51"/>
        <path class="cls-22" d="M90.35,91.58c-1.63-.88-1.85-2.05-1.85-2.05.51.68,1.72,2.26,4.96,2.51,0,0-1.44.44-3.11-.46"/>
      </g>
    </g>
  </g>
</svg>