<?xml version="1.0" encoding="UTF-8"?>
<svg xmlns="http://www.w3.org/2000/svg" version="1.1" viewBox="0 0 308.91 271.19">
  <defs>
    <style>
      .cls-1 {
        fill: #fff;
      }

      .cls-1, .cls-2, .cls-3, .cls-4 {
        fill-rule: evenodd;
      }

      .cls-2 {
        fill: #79c143;
      }

      .cls-5 {
        opacity: .2;
      }

      .cls-3 {
        fill: #1d2e2f;
      }

      .cls-6 {
        fill: #010101;
      }

      .cls-4 {
        fill: #69bd45;
      }
    </style>
  </defs>
  <!-- Generator: Adobe Illustrator 28.7.0, SVG Export Plug-In . SVG Version: 1.2.0 Build 136)  -->
  <g>
    <g id="Layer_1">
      <g>
        <g id="shape" class="cls-5">
          <ellipse class="cls-6" cx="160.23" cy="227.57" rx="71" ry="22"/>
        </g>
        <g id="shape-2" data-name="shape">
          <path class="cls-3" d="M123.23,221.57c-10.14-2.21-8.25-7.06-10.7-.71-1.82,4.72-1.34,11.99,11.12,14.71,3.05.67,5.58.48,7.67-.18,8.41-1.6,10.34-10.15,10.34-10.15,0,0-2.88-.49-9.67-1.34-2.46-.77-5.41-1.6-8.76-2.33ZM203.93,220.86c-2.45-6.35-.56-1.5-10.7.71-3.36.73-6.3,1.55-8.76,2.33-6.79.85-9.67,1.34-9.67,1.34,0,0,1.93,8.55,10.34,10.15,2.08.66,4.61.85,7.67.18,12.46-2.72,12.94-9.99,11.12-14.71Z"/>
        </g>
        <g id="shape-3" data-name="shape">
          <path class="cls-4" d="M276.17,129.6c-.85.06-1.62.36-2.27.82-.3-.81-.71-1.57-1.2-2.26,1.53-.82,2.53-2.47,2.39-4.31-.18-2.49-2.37-4.36-4.88-4.18-2.36.17-4.15,2.1-4.2,4.4-.65-.09-1.32-.11-2.01-.06-.24.02-.47.08-.7.12-.45-2.19-2.47-3.77-4.78-3.61-2.51.18-4.4,2.35-4.22,4.84.11,1.45.91,2.68,2.04,3.43-.73,1.23-1.22,2.61-1.34,4.09-5.41,1.11-10.35-3.52-12.83-7.79-1.67-6.85-3.83-13.65-6.44-20.25,5.88-6.08,9.49-14.26,9.49-23.27,0-18.78-15.67-34-35-34-5.23,0-10.18,1.12-14.63,3.11-10.4-7.15-21.99-11.37-34.37-11.37s-23.41,4-33.6,10.84c-4.13-1.66-8.66-2.59-13.4-2.59-19.33,0-35,15.22-35,34,0,8.37,3.12,16.03,8.29,21.96-2.06,5.1-3.86,10.34-5.37,15.65-.1.19-.16.41-.19.66-.39,1.39-.75,2.78-1.1,4.18-2.21,4.53-7.53,10.08-13.4,8.87-.12-1.48-.61-2.86-1.34-4.09,1.14-.75,1.94-1.98,2.04-3.43.18-2.49-1.71-4.66-4.22-4.84-2.31-.17-4.32,1.41-4.78,3.61-.24-.03-.46-.1-.7-.12-.68-.05-1.35-.02-2.01.06-.06-2.3-1.84-4.23-4.2-4.4-2.51-.18-4.7,1.69-4.88,4.18-.13,1.83.86,3.49,2.39,4.31-.49.7-.89,1.45-1.2,2.26-.65-.45-1.42-.76-2.27-.82-2.51-.18-4.7,1.69-4.88,4.18-.18,2.49,1.7,4.66,4.22,4.84,1.22.09,2.36-.32,3.23-1.03.28.61.63,1.19,1.02,1.73-.7.73-1.17,1.68-1.25,2.76-.18,2.49,1.7,4.66,4.22,4.84,2.31.17,4.32-1.41,4.78-3.6.92,0,1.82-.11,2.68-.34,4.74,2.34,11.24,3.17,16.93,1.31-1.68,15.93-.55,31.53,3.99,45.02,19,56.5,140.5,52,160-2,4.58-12.68,5.82-27.57,4.28-42.92,5.61,1.74,11.97.89,16.63-1.41.86.23,1.76.34,2.68.34.46,2.19,2.47,3.77,4.78,3.6,2.51-.18,4.4-2.35,4.22-4.84-.08-1.08-.55-2.03-1.25-2.76.39-.54.75-1.11,1.02-1.73.87.72,2.01,1.12,3.23,1.03,2.51-.18,4.4-2.35,4.22-4.84-.18-2.49-2.37-4.36-4.88-4.18Z"/>
        </g>
        <g id="shape-4" data-name="shape">
          <path class="cls-1" d="M235.76,67c-7.6-11.52-21.62-15.69-31.3-9.3-9.68,6.39-11.36,20.91-3.76,32.43,7.6,11.52,21.62,15.69,31.3,9.3,9.68-6.39,11.36-20.91,3.76-32.43Z"/>
        </g>
        <g id="shape-5" data-name="shape">
          <path class="cls-1" d="M120,57.7c-9.68-6.39-23.69-2.22-31.3,9.3-7.6,11.52-5.92,26.04,3.76,32.43,9.68,6.39,23.69,2.22,31.3-9.3,7.6-11.52,5.92-26.04-3.76-32.43Z"/>
        </g>
        <g id="shape-6" data-name="shape">
          <path class="cls-2" d="M158.27,113.57c-66.92,0-65.96,61.71-63.2,68.93,6.72,17.59,16.53,37.07,60.03,37.07,51.3,0,65.08-11.8,69.83-37.07,2.34-12.44-1.01-68.93-66.66-68.93Z"/>
        </g>
        <g id="shape-7" data-name="shape">
          <path class="cls-3" d="M210.23,71.57c-3.87,0-7,3.58-7,8s3.13,8,7,8,7-3.58,7-8-3.13-8-7-8ZM114.23,71.57c-3.87,0-7,3.58-7,8s3.13,8,7,8,7-3.58,7-8-3.13-8-7-8Z"/>
        </g>
        <g id="shape-8" data-name="shape">
          <path class="cls-3" d="M171.15,81.57c-2.26,0-4.08,2.24-4.08,5s1.83,5,4.08,5,4.08-2.24,4.08-5-1.83-5-4.08-5ZM151.32,81.57c-2.25,0-4.08,2.24-4.08,5s1.83,5,4.08,5,4.08-2.24,4.08-5-1.83-5-4.08-5Z"/>
        </g>
      </g>
    </g>
  </g>
</svg>