<?xml version="1.0" encoding="UTF-8"?>
<svg xmlns="http://www.w3.org/2000/svg" version="1.1" xmlns:xlink="http://www.w3.org/1999/xlink" viewBox="0 0 364.72 357.23">
  <defs>
    <style>
      .cls-1 {
        fill: #fefeff;
      }

      .cls-2 {
        fill: #1c0b0e;
      }

      .cls-3 {
        fill: #6c3e40;
      }

      .cls-4 {
        fill: #6b4345;
      }

      .cls-5 {
        fill: #c0666b;
      }

      .cls-6 {
        fill: #cccccb;
      }

      .cls-7 {
        fill: #f8b6b5;
      }

      .cls-8 {
        fill: #d18c91;
      }

      .cls-9 {
        fill: #bf6169;
      }

      .cls-10 {
        fill: #2d1011;
      }

      .cls-11 {
        fill: #f69799;
      }

      .cls-12 {
        fill: #070404;
      }

      .cls-13 {
        fill: #ba6669;
      }

      .cls-14 {
        fill: #e87a70;
      }

      .cls-15 {
        fill: #c06369;
      }

      .cls-16 {
        fill: #2c0f10;
      }

      .cls-17 {
        fill: #fff;
      }

      .cls-18 {
        fill: #2e100f;
      }

      .cls-19 {
        fill: #fac3c4;
      }

      .cls-20 {
        fill: none;
      }

      .cls-21 {
        fill: #f69286;
      }

      .cls-22 {
        fill: #f4b5b5;
      }

      .cls-23 {
        fill: #f8b1b5;
      }

      .cls-24 {
        fill: #fef5f5;
      }

      .cls-25 {
        fill: #2c0f12;
      }

      .cls-26 {
        fill: #200f0f;
      }

      .cls-27 {
        fill: #bd636c;
      }

      .cls-28 {
        fill: #bf6b6b;
      }

      .cls-29 {
        fill: #643e3e;
      }

      .cls-30 {
        fill: #2f1110;
      }

      .cls-31 {
        fill: #61615f;
      }

      .cls-32 {
        fill: #693e3e;
      }

      .cls-33 {
        fill: #513012;
      }

      .cls-34 {
        fill: #f69288;
      }

      .cls-35 {
        fill: #060604;
      }

      .cls-36 {
        fill: #2e1010;
      }

      .cls-37 {
        fill: #1c0d0d;
      }

      .cls-38 {
        fill: #1c0c0c;
      }

      .cls-39 {
        fill: #5c3b1c;
      }

      .cls-40 {
        fill: #f8b3b5;
      }

      .cls-41 {
        fill: #69403e;
      }

      .cls-42 {
        fill: #d98794;
      }

      .cls-43 {
        fill: #5e3b3d;
      }

      .cls-44 {
        fill: #675c5a;
      }

      .cls-45 {
        fill: #1a0c0d;
      }

      .cls-46 {
        fill: #82351a;
      }

      .cls-47 {
        fill: #bd6963;
      }

      .cls-48 {
        fill: #384038;
      }

      .cls-49 {
        fill: #c26b64;
      }

      .cls-50 {
        fill: #ad7675;
      }

      .cls-51 {
        fill: #fac1c2;
      }

      .cls-52 {
        fill: #f5f5f5;
      }

      .cls-53 {
        fill: #ba696e;
      }

      .cls-54 {
        fill: #8e351e;
      }

      .cls-55 {
        fill: #673e3e;
      }

      .cls-56 {
        fill: #78461c;
      }

      .cls-57 {
        fill: #6b6b6c;
      }

      .cls-58 {
        fill: #533012;
      }

      .cls-59 {
        fill: #fef2f2;
      }

      .cls-60 {
        fill: #ccc9cc;
      }

      .cls-61 {
        clip-path: url(#clippath);
      }

      .cls-62 {
        fill: #1e0d0e;
      }
    </style>
    <clipPath id="clippath">
      <rect class="cls-20" x="23.13" y="24.67" width="304.02" height="296.16"/>
    </clipPath>
  </defs>
  <!-- Generator: Adobe Illustrator 28.7.0, SVG Export Plug-In . SVG Version: 1.2.0 Build 136)  -->
  <g>
    <g id="Layer_1">
      <g class="cls-61">
        <path class="cls-17" d="M247.04,33.36c2.28-1.74,4.79-3.14,7.19-4.7l.46-.12c3.28,6.9,6.29,14.01,7.7,21.57,2.44,11.86.93,24.6-4.81,35.32-2.91,6.17-6.95,11.77-11.69,16.67-3.11,3.39-6.12,6.88-9.13,10.35-3.43-1.67-6.89-3.32-10.46-4.66,9.62-7.75,17.78-17.26,24.09-27.88,3.79-5.79,5.36-12.93,4.57-19.78-.45-2.42-1.46-4.93-3.55-6.38-1.47-1.13-3.41-1.19-5.18-1.13,1.7-1.76,4.35-2.53,5.59-4.69-.77-.27-1.54-.22-2.17.32-1.96,1.28-3.74,2.8-5.56,4.26-.48.41-.94.84-1.38,1.29-4.82,4.58-8.69,10.15-11.35,16.25-1.71,3.52-2.63,7.35-3.9,11.03-2.69,8.19-4.35,16.71-4.82,25.32-1.28-.43-2.57-.83-3.87-1.17-.61-6.3-.26-12.65.25-18.95,1.03-9.24,3.21-18.45,7.45-26.77,4.44-10.3,11.5-19.53,20.57-26.17"/>
        <path class="cls-17" d="M138.21,233.8c-3.97,1.19-7.61,4.13-8.88,8.18-1.83,4.83-.27,10.65,3.62,14.01,2.72,2.43,6.53,3.48,10.13,3.1,3.09-.32,5.85-2.07,8.04-4.19,3.05-3.46,4.23-8.61,2.53-12.98-.95-2.29-2.38-4.44-4.38-5.96-3.06-2.45-7.31-3.16-11.08-2.17M124.13,213.63c-6.3,1.53-12.69,3.31-18.14,6.93-2.96,1.97-5.74,4.83-6.2,8.52-.61,4.2,1.53,8.14,3.92,11.42,4.16,5.41,9.41,9.91,14.92,13.88-4.21-5.13-8.43-10.76-9.51-17.49-.95-5.14,1.06-10.49,4.66-14.18,4.85-4.96,11.22-8.07,17.64-10.46-2.48.16-4.87.88-7.29,1.38M227.29,202.27c-.06,1.81-.92,4.21.46,5.65,1.65.1,3.29-.62,4.95-.25,1.02.02,2.72.79,3.1-.65.16-1.66.15-3.33-.07-4.98-1.25-.11-2.48-.42-3.55-1.1-1.61.52-3.21,1.12-4.9,1.33M120.26,176.71c-7.26,1.43-13.06,6.76-17.1,12.72,8.57-4.25,18.36-6.33,27.88-4.83,12.23,1.87,23.22,8.53,32.31,16.68-.67-1.29-1.79-2.24-2.77-3.28-6.21-6.51-12.93-12.71-20.81-17.14-5.86-3.31-12.76-5.48-19.52-4.15M167.62,138.98c-.89,1.67-3.04,2.25-4.74,1.55-4.43-1.56-7.46-5.38-10.82-8.45,2.9,4.68,5.82,9.35,8.7,14.05,1.08,1.46,1.86,3.15,3.02,4.53,3.63,5.84,7.57,11.49,11.67,17.02,1.97,2.42,3.87,4.98,6.42,6.84.65.62,2.18.83,2.34-.35.47-2.5-.2-5.03-.7-7.47-1.7-7.17-4.15-14.13-6.56-21.08-.91-2.83-1.91-5.62-3.02-8.37-1.53-4.18-3.22-8.29-4.66-12.5-.22,4.74.64,9.84-1.64,14.23M166.82,106.84c5.41-1.52,10.94-2.62,16.54-3.14.11.67-.16,1.48.35,2.04-.07,6.52.58,13.04,1.21,19.53.29,3.14.77,6.26,1.2,9.38,1.98,11.95,4.66,23.81,8.39,35.35,2.07,6.84,4.72,13.47,7.17,20.18-.21-2.14-.88-4.19-1.35-6.27-4.42-19.43-6.31-39.7-3.18-59.47.09-.51.18-1.02.27-1.52.6-3.82,1.49-7.58,2.5-11.31.25-.93.51-1.86.79-2.79,7.65,6.26,14.64,13.31,21.3,20.61.51.51.76,1.18,1.02,1.83-5.96,4.75-8.77,12.3-10.21,19.56-.51,2.71-.93,5.46-1.05,8.22-.61,6.59-.4,13.24.02,19.83.28-4.59.78-9.16,1.67-13.67,2.1-10.57,6.76-20.97,14.86-28.3l.1-.1c2.79,3.87,5.91,7.51,8.55,11.5,3.07,4.63,6.66,8.9,10.45,12.96-2.06,1.34-4.11,2.68-6.09,4.13,2.4-.95,4.75-2.06,7.22-2.87,4.91,4.12,9.83,8.41,15.79,10.96,2.88,1.58,6.21,1.8,9.25,2.95,1.98.71,3.96,1.43,6,1.98.56,2.52.73,5.11,1.08,7.66.14-2.25.49-4.48.63-6.73,2.24,1.39,4.62,2.59,6.67,4.28,1.97,1.55,3.62,3.46,5.34,5.27-.2.31-.4.62-.6.93-4.1,6.26-9.09,11.87-14.37,17.16,6.22-2.78,12.28-5.97,17.94-9.77l.47-.33c1.07,7.36-.43,14.74-3.04,21.62-.42,0-1.28.01-1.7.02.46.21.92.43,1.38.65-1.62,3.71-3.54,7.28-5.7,10.72-4.95-7.12-12.49-12.11-20.64-14.85-4.05-1.46-8.27-2.45-12.5-3.17,3.06-.49,6.23-1.58,8.34-3.98,3.02-3.17,4.39-7.9,3.3-12.17-.92-3.71-3.56-6.93-7.04-8.52-6.36-3.24-15.07.22-17.52,6.92-2.69,6.38.86,14.55,7.44,16.81-1.12.04-2.23.09-3.34.02-13.69-.76-27.44,1.79-40.27,6.49-17.54,6.3-34.08,16.42-45.98,30.95-6.38,7.84-11.73,16.88-13.48,26.96-2.08,11.74,2.17,24.32,10.98,32.36-9.11.62-18.31,1.05-27.41.19,4.44-6.54,7.71-13.82,10.13-21.33-7.49,7.69-15.83,14.57-25.06,20.05-.42.25-.85.49-1.26.75-2.46-.97-5.14-.96-7.74-.98-9.87-7.03-17.22-17.77-19.74-29.67.71.01,1.41.05,2.12.09,17.92,1.77,36.26-1.16,52.84-8.13-18.94.83-38.33-3.88-54.11-14.57,2.77-9.46,4.64-19.2,5.21-29.05.69-7.56-.86-15.08-.91-22.63-.04-4.07-.11-8.17.53-12.21,1.55-11.27,4.69-22.41,10.06-32.48,3.9-6.94,8.54-13.49,13.78-19.48,13.07,5.18,25.14,12.84,35.51,22.34,1.15,1,2.26,2.05,3.36,3.12,8.03,7.7,15.12,16.36,21.48,25.48,2.47,3.65,5.05,7.26,7.09,11.18-1.33-4.11-3.49-7.9-5.31-11.8-11.83-23.87-27.46-45.99-46.78-64.38,3.18-2.36,6.5-4.52,9.95-6.46,7.61,3.52,14.55,8.49,20.31,14.58.85.87,1.6,1.85,2.54,2.63,1.15.45.9-1.31.67-1.93-2.22-8.68-1.19-18.04,2.58-26.14"/>
        <path class="cls-17" d="M28.95,117.4c6.99-1.8,14.28-2.01,21.45-1.53,5.97.68,11.81,2.2,17.41,4.37,15.21,4.95,27.81,15.51,38.5,27.09l.11.12c-.8,1.03-1.54,2.1-2.21,3.22-.25-.19-.74-.56-.98-.74-8.34-7.55-18.37-12.9-28.49-17.64-10.39-4.78-22.44-6.12-33.53-3.14.01.31.04.94.05,1.26,2.27-.24,4.46-.88,6.73-1.13-.99,1.16-2.2,2.27-2.55,3.83-.79,2.91.53,5.92,2.31,8.18,4.33,5.05,10.35,8.7,16.92,9.94,12.33,3.13,25.23,3.49,37.83,2.06-2.09,3.44-3.92,7.04-5.45,10.78-5.11-.22-10.21-.6-15.32-.58-6.26-.22-12.51-1.29-18.44-3.32-9.12-2.74-17.43-8.07-23.71-15.23-6.89-7.61-11.36-17.03-14.74-26.64,1.38-.25,2.76-.55,4.13-.88"/>
        <path class="cls-31" d="M37.53,110.81c-3.64.67-7.36,1.27-10.77,2.79-1.76.79-2.68,2.88-1.94,4.69,3.38,9.6,7.86,19.03,14.74,26.63,6.28,7.17,14.59,12.49,23.71,15.24,5.93,2.03,12.18,3.11,18.44,3.32,5.12-.02,10.21.36,15.32.57,1.52-3.73,3.35-7.34,5.45-10.78.12,0,.36-.02.48-.02,1.73-.45,1.16-2.38.26-3.33.24.19.73.56.97.74.67-1.11,1.41-2.19,2.22-3.21l-.11-.12c1.41-1.33,2.18-3.17,3.54-4.56-6.84-8.12-14.39-15.63-22.32-22.68-7.41-6.18-16.55-11.19-26.45-11.12-7.88-.42-15.79.42-23.55,1.85M158.42,52.88c-.65,1.74-1.31,4.61-3.77,4.18-1.07-.67-1.63-1.89-2.44-2.83-.79.29-1.72.44-2.24,1.18-.99,1.29-.72,3.17-1.82,4.43-.81.32-1.79.56-2.56.02-1.71-.87-2.2-3.33-4.3-3.54-1.23,0-2.15.95-2.23,2.14-.56,1.84-.31,4.54-2.36,5.49-1.96.03-3.61-1.28-5.3-2.11-.84-.47-2.14-.92-2.83.02-1.53,1.64-.3,4.09-1.25,5.96-.3.76-1.09,1.39-1.93,1.25-1.71.01-2.74-1.5-4.01-2.39-1.36-.91-3.5-.05-3.79,1.59-.43,2.36.24,4.94-1.11,7.09-2.09.98-4.12-.43-6.05-1.12-1.15-.48-2.39.2-2.87,1.29,1.39,1.47,2.58,3.12,3.87,4.67,9.29,11.59,18.59,23.18,27.89,34.76.38.51.79,1.02,1.43,1.23,8.23,3.44,15.49,8.94,21.62,15.38-1.55-8.22-.65-16.86,2.76-24.5.35-.9.96-1.79.77-2.8-1.97-16.61-3.97-33.22-6-49.81.07-.92-.69-1.37-1.46-1.57M243.33,30.16c-8.59,5.57-16.37,12.39-22.99,20.2-3.7,4.8-5.94,10.57-7.15,16.47-1.59,7.95-1.24,16.09-1.17,24.15,0,4.28.27,8.57.67,12.84,2.02.49,4.08.88,6.08,1.44,1.31.34,2.59.74,3.87,1.17.48-8.61,2.13-17.14,4.82-25.33,1.27-3.68,2.18-7.51,3.9-11.03,2.66-6.09,6.53-11.67,11.35-16.25.19.31.58.92.78,1.23-4.13,4.03-7.65,8.72-10.06,13.98-2.13,4-3.17,8.43-4.66,12.67-.84,2.9-1.72,5.8-2.42,8.74-.94,4.58-1.86,9.18-2.11,13.86.02.95-.24,2.03.38,2.86.56.21,1.12.42,1.68.64,3.58,1.35,7.03,2.99,10.46,4.66,3.01-3.48,6.02-6.97,9.13-10.36,4.73-4.9,8.77-10.5,11.69-16.67,5.74-10.71,7.26-23.46,4.81-35.32-1.41-7.56-4.42-14.66-7.7-21.57l-.46.12.44-.29c-.83-1.13-1.92-2.28-3.43-2.27-3.06.32-5.42,2.47-7.91,4.06M250.44,24.67h1.64c1.71.56,3.21,1.75,3.95,3.42,5.46,11.02,9.57,23.2,8.79,35.66-.17,8.09-2.53,16.06-6.37,23.16-2.39,5.02-5.62,9.61-9.28,13.78-3.8,4.05-7.39,8.29-11.09,12.43,6.08,3.21,12,6.82,17.25,11.29,7.07,5.71,12.63,13,19.53,18.89,4.88,4.14,10.09,7.87,15.57,11.18,4.71,2.86,9.87,4.96,14.39,8.13,6.81,4.36,12.53,10.44,16.38,17.55,4.21,7.91,5.98,16.95,5.94,25.86,0,3.88-.82,7.7-1.85,11.43.2-.01.61-.04.81-.05-.19.06-.58.19-.77.25-6.16,18.16-18.28,33.58-31.82,46.85-.25-.48-.5-.96-.76-1.44,3.32-2.69,5.97-6.08,8.99-9.09,3.79-4.16,7.01-8.81,10.36-13.33.81-.85.61-2,.51-3.04l.58,1.45c2.44-3.98,4.86-7.99,6.81-12.24,1.82-3.96,3.52-8.01,4.56-12.25-.23,0-.69,0-.93-.01.27-.11.81-.32,1.08-.43.91-4.19,1.38-8.5.85-12.78-.57-8.24-2.85-16.46-7.37-23.43-3.51-5.27-8.01-9.92-13.27-13.47-1.41,5.36-3.36,10.56-5.72,15.57-.31.11-.92.34-1.22.45.08-.91.12-1.84.57-2.66,2.16-4.59,3.86-9.38,5.07-14.3-4.46-2.88-9.33-5.07-13.9-7.77-8.2-4.87-15.82-10.77-22.45-17.64-2.82-2.85-5.56-5.78-8.41-8.6-8.83-8.52-19.62-14.74-30.89-19.45-8.03-3.56-16.73-5.4-25.44-6.23-.13.26-.41.8-.55,1.07.03-.28.09-.83.12-1.1-1.41-.13-2.81-.28-4.22-.34-4.62-.21-9.26-.22-13.86.25-.11.69-.23,1.38-.33,2.07-.51-.56-.24-1.37-.35-2.04-5.59.52-11.13,1.62-16.54,3.15-3.77,8.09-4.8,17.46-2.58,26.14.23.62.47,2.38-.67,1.93-.95-.78-1.7-1.76-2.54-2.63-5.76-6.1-12.7-11.06-20.31-14.58-3.45,1.94-6.77,4.1-9.95,6.46-5.6,4.11-10.72,8.87-15.35,14.05-5.24,5.99-9.88,12.53-13.78,19.48-5.38,10.07-8.51,21.21-10.06,32.48-.64,4.04-.57,8.14-.53,12.21.05,7.55,1.6,15.07.91,22.63-.56,9.85-2.44,19.6-5.21,29.05-1.67,7.28-2.27,14.94-.85,22.31.7.13,1.41.27,2.12.4-.71-.04-1.41-.07-2.12-.09,2.52,11.9,9.87,22.65,19.74,29.67,1.4.98,2.8,1.98,4.3,2.79.12-.02.36-.07.47-.1.87.87,2.03,1.29,3.14,1.76,3.56,1.42,7.19,2.68,10.86,3.78,15.49,4.23,31.74,4.73,47.66,3.36,1.54-.16,3.11-.47,4.64-.04.27.08.81.23,1.08.31-.35.24-.71.47-1.07.7-20.65,2.12-42.17,1.66-61.73-5.98-9.57-3.47-17.59-10.44-23.2-18.85-5.2-7.58-8.18-16.69-8.2-25.9.13-6.09.77-12.21,2.73-18,2.83-10.71,4.65-21.8,4.27-32.9-.65-8.38-1.55-16.81-.73-25.21.65-4.45,1.2-8.94,2.39-13.28.29-.82.02-1.65,0-2.48.41-.74,1.03-1.38,1.23-2.23.8-2.95,1.95-5.8,2.88-8.71-5.07-.16-10.14-.43-15.21-.56-7.69-.1-15.23-2.05-22.4-4.71-10.76-4.18-19.84-12.08-26.03-21.76-4.17-6.5-7.4-13.61-9.61-21v-1.55c.86-2.73,3.62-4.12,6.22-4.7,11.69-2.94,23.84-4.3,35.88-3.36,4.26.59,8.4,1.92,12.23,3.89,8.73,4.29,15.62,11.35,22.39,18.16,3.84,3.72,7.42,7.68,10.91,11.72,7.58-9.72,17.06-17.94,27.66-24.21.77-.32-.15-1.17-.36-1.59-6.51-8.07-12.98-16.17-19.49-24.25-4.18-5.35-8.62-10.52-12.65-15.97.23-1.17,1.29-2.12,2.34-2.65,2.47-.92,4.63,1.13,6.97,1.57,1.38-2.34.02-5.28,1.37-7.63.95-1.99,3.76-2.5,5.55-1.4,1.14.78,2.16,1.74,3.32,2.5,1.52-1.78.14-4.39,1.38-6.29.79-1.09,2.16-2.16,3.59-1.69,2.08.61,3.89,1.86,5.86,2.72,1.39-2.03.82-4.8,2.3-6.77,1.54-1.39,4.22-1.34,5.55.32.93.8,1.48,2.31,2.81,2.46.78-.61.69-1.8,1.07-2.66.35-2.05,2.58-3.37,4.55-3.04,1.52.24,1.65,2.24,3.06,2.69.64-1.33,1.14-2.73,1.9-4,1.22-.71,2.59.2,3.43,1.09.52,1.01.45,2.22.63,3.32,1.91,16.35,4.02,32.67,5.84,49.03,4.91-1.19,9.85-2.34,14.9-2.74,9.59-1.2,19.32-.45,28.84,1.1-.45-5.37-.6-10.74-.65-16.12-.22-10.6.05-21.66,4.71-31.41,2.72-6.11,7.7-10.74,12.39-15.35,4.31-3.98,8.86-7.73,13.81-10.91,2.93-1.8,5.55-4.28,9.01-5.03"/>
        <path class="cls-31" d="M249.64,48.27c.63-.54,1.4-.59,2.17-.32-1.24,2.16-3.89,2.93-5.59,4.69-.71,0-1.43-.05-2.14-.1,1.82-1.46,3.6-2.99,5.56-4.26"/>
        <path class="cls-6" d="M243.32,30.16c2.5-1.59,4.85-3.74,7.92-4.06,1.51-.01,2.6,1.14,3.43,2.27l-.44.29c-2.4,1.56-4.91,2.96-7.19,4.7-9.07,6.64-16.13,15.87-20.57,26.17-4.24,8.32-6.42,17.53-7.45,26.77-.51,6.3-.86,12.65-.25,18.95-2.01-.56-4.06-.95-6.08-1.44-.4-4.27-.67-8.55-.67-12.84-.08-8.06-.42-16.2,1.17-24.14,1.22-5.9,3.46-11.67,7.15-16.47,6.62-7.81,14.4-14.63,22.99-20.2"/>
        <path class="cls-6" d="M202.54,103.8c8.71.83,17.41,2.66,25.44,6.23,11.27,4.71,22.06,10.93,30.89,19.45,2.85,2.83,5.6,5.75,8.42,8.6,6.63,6.87,14.24,12.77,22.44,17.64,4.57,2.71,9.43,4.89,13.9,7.77-1.21,4.92-2.91,9.72-5.07,14.31-.44.82-.48,1.76-.56,2.66-1.23,2.96-3.01,5.66-4.66,8.4-1.72-1.82-3.37-3.72-5.34-5.28-2.05-1.69-4.43-2.89-6.67-4.27.4-6.81.72-14.02-2.13-20.38-1.67-3.89-5.7-6.64-9.99-6.41-8.01.28-15.15,4.56-21.75,8.71-3.79-4.06-7.38-8.33-10.45-12.96-2.65-3.98-5.76-7.63-8.55-11.5,3.52-3.24,7.6-5.85,11.94-7.85,1.57-.79,3.29-1.27,4.81-2.16-7.44-1.17-15.79-.64-21.88,4.25l-.27.22c-.26-.65-.52-1.32-1.02-1.83-6.66-7.3-13.64-14.35-21.3-20.61.39-1.33.83-2.63,1.28-3.94.14-.27.41-.8.55-1.06"/>
        <path class="cls-6" d="M37.53,110.81c7.75-1.43,15.66-2.27,23.55-1.85,9.89-.07,19.03,4.94,26.45,11.12,7.92,7.05,15.48,14.57,22.32,22.69-1.35,1.39-2.13,3.23-3.54,4.56-10.68-11.58-23.29-22.14-38.5-27.09-5.6-2.17-11.44-3.68-17.42-4.37-7.16-.48-14.46-.27-21.44,1.53-1.37.34-2.74.63-4.13.88-.74-1.8.18-3.89,1.94-4.69,3.4-1.51,7.13-2.12,10.77-2.79"/>
        <path class="cls-6" d="M248.57,162.5c4.29-1.54,8.83-2.62,13.41-2.43,4.2.13,8.39,1.78,11.32,4.84,3.49,3.67,5.35,8.57,6.3,13.48-2.04-.55-4.02-1.27-6-1.98-3.04-1.15-6.37-1.37-9.25-2.95-5.96-2.55-10.88-6.84-15.79-10.96"/>
        <path class="cls-6" d="M296.77,196.86c7.94-5.33,15.14-11.73,21.43-18.94,4.52,6.97,6.79,15.19,7.37,23.43.52,4.28.06,8.59-.86,12.78-.27.11-.81.32-1.07.43-9.76,2.55-19.82,3.94-29.91,3.92,2.62-6.87,4.12-14.26,3.04-21.62"/>
        <path class="cls-6" d="M293.41,219.14c8.37,3.96,17.32,6.91,26.59,7.67-1.95,4.25-4.36,8.27-6.81,12.24l-.58-1.44c.1,1.04.3,2.19-.51,3.04-3.35,4.52-6.56,9.16-10.36,13.33-3.01,3.02-5.66,6.4-8.99,9.09.26.48.51.96.76,1.44.25,1.22.25,2.48.3,3.72-.23-1.14-.49-2.27-.71-3.41-.34-.2-1.03-.59-1.38-.78l-.03-.02.26.08v-.36s-.1-.33-.1-.33c.4-3.59,1.97-7,2.09-10.66.53-8.03-1.61-16.28-6.24-22.89,2.16-3.43,4.08-7,5.7-10.72"/>
        <path class="cls-6" d="M129.32,308.27c.07-.1.2-.3.27-.4,9.1.86,18.3.43,27.41-.19,5.57,5.04,12.5,8.32,19.73,10.22-1.53-.44-3.1-.12-4.64.04-15.92,1.36-32.17.86-47.66-3.36,1.78-1.98,3.41-4.1,4.9-6.31"/>
        <path class="cls-13" d="M242.7,53.82c.44-.44.9-.87,1.38-1.28.71.05,1.43.1,2.14.1,1.77-.06,3.71,0,5.18,1.13,2.08,1.45,3.1,3.97,3.55,6.38.79,6.85-.78,13.99-4.57,19.78-6.31,10.62-14.47,20.13-24.09,27.88-.56-.22-1.12-.43-1.69-.64,2.4-1.77,4.84-3.57,6.93-5.72,2.18-2.55,4.79-4.71,6.88-7.34,2.65-3.36,5.45-6.62,7.81-10.19,1.72-3.05,3.82-5.87,5.31-9.04,1.84-4.71,2.64-9.88,1.93-14.91-.3-2.12-1.46-4.02-3.16-5.31-2.12-.99-4.86-.9-6.84.39-.2-.31-.59-.92-.78-1.23"/>
        <path d="M115.81,78.12c10.18,13.38,20.62,26.58,30.86,39.91.3,0,.92-.01,1.23-.01-.05-1.46-1.32-2.38-2.09-3.48-4.16-5.38-8.33-10.77-12.49-16.15-5.62-6.98-10.85-14.28-16.58-21.16-.23.22-.69.67-.92.9M123.79,73.98c-.4.37-.44.77-.14,1.18,12.47,15.57,23.39,32.36,32.77,49.96.15.98,1.9.86,1.51-.26-9.31-17.56-20.22-34.27-32.53-49.89-.47-.4-.84-1.37-1.61-.99M137.26,67.04c4.55,17.1,11.03,33.7,19.16,49.41.42,1.24,2.09.14,1.23-.81-7.64-14.62-13.67-30.07-18.21-45.93-.42-1.15-.35-3.38-2.18-2.67M151.75,61c1.99,16.56,5.41,32.95,9.87,49.02-.04,1.1,1.81,1.23,1.48-.06-4.09-14.52-7.19-29.33-9.34-44.26-.29-1.64-.31-3.33-.86-4.93-.29.06-.87.17-1.16.23M158.42,52.88c.77.2,1.54.66,1.46,1.57,2.03,16.6,4.03,33.21,6,49.81.19,1.01-.42,1.9-.77,2.8-3.41,7.65-4.31,16.29-2.76,24.5-6.12-6.44-13.38-11.93-21.62-15.37-.63-.21-1.04-.73-1.42-1.23-9.3-11.58-18.61-23.17-27.89-34.76-1.29-1.56-2.49-3.2-3.87-4.67.48-1.08,1.72-1.76,2.87-1.28,1.92.69,3.95,2.09,6.05,1.12,1.34-2.15.68-4.73,1.11-7.09.3-1.63,2.43-2.5,3.8-1.59,1.26.89,2.29,2.4,4,2.39.85.14,1.64-.49,1.94-1.25.94-1.87-.28-4.33,1.25-5.96.69-.94,2-.49,2.84-.02,1.7.83,3.34,2.14,5.3,2.11,2.05-.94,1.8-3.64,2.35-5.49.09-1.19,1.01-2.14,2.24-2.14,2.1.21,2.59,2.68,4.3,3.54.77.55,1.75.3,2.56-.02,1.09-1.25.83-3.13,1.82-4.43.52-.73,1.45-.88,2.24-1.18.81.94,1.37,2.15,2.44,2.83,2.45.43,3.12-2.44,3.77-4.18"/>
        <path class="cls-34" d="M243.48,55.04c1.98-1.29,4.72-1.38,6.84-.39-1.56,1.1-3.46,1.92-4.52,3.6-1.04,1.56-1.8,3.3-3,4.75-2.81,3.24-4.39,7.28-6.51,10.94-1.15,2.97-2.38,5.92-3.28,8.98-.75,2.43-1.68,4.86-1.68,7.45-1.4.71-3.69.62-3.94,2.57-1.06-.41-1.11-1.52-1.06-2.5.7-2.94,1.57-5.84,2.42-8.74,1.49-4.24,2.53-8.68,4.66-12.67,2.41-5.26,5.93-9.95,10.06-13.98"/>
        <path class="cls-11" d="M245.8,58.25c1.06-1.67,2.95-2.49,4.52-3.59,1.7,1.29,2.86,3.19,3.16,5.31.71,5.02-.09,10.2-1.93,14.91-1.49,3.17-3.59,5.99-5.31,9.04-2.37,3.57-5.16,6.83-7.81,10.19-2.09,2.64-4.7,4.8-6.88,7.34-.11-3.22-.78-7.14-4.15-8.51.24-1.95,2.53-1.85,3.94-2.56,0-2.59.93-5.02,1.69-7.45.89-3.06,2.13-6.01,3.28-8.98,2.11-3.67,3.7-7.71,6.5-10.95,1.2-1.45,1.96-3.19,3-4.75"/>
        <path class="cls-11" d="M47.19,132.48c3.4.84,7.08.09,10.27,1.7,3.96-.21,7.75,1.13,11.39,2.55,2.2,1.19,4.76,1.47,6.89,2.8,2.46,1.39,5.35,1.92,7.63,3.64,2,1.54,4.39,2.42,6.45,3.87.55,2.17,1.87,4,3.34,5.65-9.74.3-19.53-.6-28.98-3.04-6.12-1.32-11.67-4.87-15.66-9.66-1.46-2.12-2.72-5.05-1.34-7.51"/>
        <path class="cls-57" d="M151.75,61c.29-.06.87-.17,1.16-.22.54,1.59.56,3.28.85,4.92,2.15,14.94,5.25,29.74,9.35,44.26.33,1.29-1.52,1.17-1.49.06-4.46-16.08-7.88-32.46-9.87-49.03"/>
        <path class="cls-57" d="M137.26,67.03c1.84-.71,1.77,1.51,2.18,2.67,4.54,15.86,10.57,31.31,18.21,45.93.86.94-.81,2.05-1.23.81-8.13-15.72-14.61-32.31-19.16-49.41"/>
        <path class="cls-57" d="M123.79,73.98c.77-.38,1.14.6,1.61.99,12.31,15.62,23.22,32.33,32.53,49.89.39,1.12-1.36,1.24-1.51.26-9.37-17.6-20.3-34.39-32.77-49.96-.3-.41-.26-.8.14-1.18"/>
        <path class="cls-57" d="M115.8,78.12c.23-.22.69-.67.92-.9,5.73,6.88,10.97,14.18,16.59,21.16,4.15,5.39,8.32,10.77,12.49,16.15.77,1.11,2.05,2.02,2.09,3.48-.31,0-.93,0-1.23.01-10.24-13.34-20.68-26.53-30.86-39.91"/>
        <path class="cls-14" d="M224.24,104.3c.24-4.68,1.17-9.28,2.11-13.86-.05.98,0,2.09,1.06,2.5,3.37,1.36,4.04,5.28,4.15,8.5-2.09,2.15-4.53,3.95-6.93,5.72-.62-.83-.36-1.91-.38-2.86"/>
        <path class="cls-30" d="M190.73,124.59c-2.62.35-3.89,3.87-2.11,5.82,1.59,2.33,5.75,1.51,6.3-1.27.83-2.4-1.67-5.3-4.19-4.55M184.04,103.67c4.6-.46,9.25-.46,13.86-.25-.76.1-1.51.21-2.26.34.77,1.82,3.14,2.06,3.99,3.83.49,1.27-.25,2.57-.6,3.77.23.06.68.17.9.23-1.01,3.73-1.9,7.5-2.5,11.31-.89.11-1.78.22-2.65.33.06-.27.19-.81.25-1.07.58-.21,1.17-.41,1.76-.62-.3-1.07-1.63-1.42-2.44-.65-1.25.71-1.38,2.65-.23,3.51.87.79,2.06.17,3.04.02-3.14,19.77-1.24,40.04,3.18,59.47.47,2.08,1.14,4.13,1.35,6.27-2.45-6.7-5.09-13.34-7.17-20.18-3.73-11.54-6.41-23.39-8.39-35.35l.35-.53c.73.22,1.44.48,2.16.76.72-.31,1.4-.71,1.93-1.29-.14-.25-.42-.73-.56-.98-.54.2-1.08.42-1.61.63-.89-.83-1.74-1.71-2.49-2.67,1.12-1.92-.9-3.4-.98-5.29-.63-6.5-1.28-13.01-1.21-19.53.1-.69.21-1.38.33-2.07"/>
        <path class="cls-30" d="M115.42,138.22c4.63-5.18,9.74-9.94,15.35-14.06,19.33,18.39,34.95,40.51,46.78,64.38-.6.21-1.19.41-1.78.62-6.36-9.13-13.45-17.78-21.48-25.48,1.75-.75,4.14-1.57,4.09-3.89.4-2.6-2.47-4.77-4.86-3.73-1.95.58-2.41,2.74-2.59,4.5-10.37-9.49-22.44-17.15-35.51-22.34"/>
        <path class="cls-30" d="M85.9,276.37c-1.41-7.37-.82-15.03.85-22.3,15.79,10.7,35.17,15.4,54.11,14.57-16.58,6.97-34.92,9.89-52.84,8.13-.71-.13-1.41-.26-2.12-.4"/>
        <path class="cls-45" d="M195.64,103.76c.75-.13,1.5-.24,2.27-.35,1.41.06,2.81.21,4.22.35-.03.27-.09.82-.12,1.1-.45,1.3-.89,2.61-1.28,3.94-.27.93-.53,1.86-.79,2.8-.22-.06-.67-.17-.9-.23.35-1.21,1.09-2.51.6-3.78-.85-1.77-3.22-2-3.99-3.83"/>
        <path class="cls-41" d="M194.34,120.89c.81-.77,2.14-.42,2.44.65-.59.21-1.18.41-1.76.62-.06.27-.19.81-.25,1.07.88-.11,1.77-.22,2.66-.33-.09.51-.18,1.02-.27,1.52-.99.15-2.18.77-3.04-.02-1.16-.86-1.02-2.8.22-3.51"/>
        <path class="cls-3" d="M190.72,126.08c-2.39.64-1.56,4.66.92,4.17,1.55.12,2.21-1.83,1.78-3.05-.43-1.07-1.68-1.29-2.7-1.12M190.73,124.59c2.51-.75,5.02,2.15,4.19,4.55-.55,2.78-4.71,3.6-6.3,1.27-1.77-1.95-.51-5.47,2.11-5.82"/>
        <path class="cls-18" d="M167.13,147.8c1.32,1.79,2.93,3.36,4.22,5.17.5-.32,1.33-.48,1.15-1.25-.51-.68-1.07-1.33-1.46-2.09,1.18-.62,2.55-1.28,2.95-2.68,1.05-2.3-.99-5.02-3.42-4.97-2.88-.27-5.13,3.41-3.44,5.82M167.62,138.98c2.28-4.4,1.41-9.49,1.64-14.23,1.43,4.21,3.12,8.32,4.65,12.5-.29.68-.59,1.36-.88,2.05-.97-1.05-1.96-2.07-2.95-3.08-.28.27-.82.81-1.09,1.08,2.02,2.73,4.38,5.18,6.49,7.85.29.58.93.43,1.46.47,2.42,6.96,4.86,13.92,6.56,21.09.5,2.44,1.18,4.97.71,7.47-.16,1.18-1.69.97-2.34.35-2.54-1.86-4.44-4.42-6.42-6.84-4.1-5.52-8.04-11.18-11.67-17.02.92.64,1.72,1.42,2.58,2.11,1.14.63,2.31-.16,3.01-1.05-.22-.24-.66-.72-.88-.96-.51.17-1.02.34-1.53.52-.88-.85-1.7-1.75-2.46-2.71.33-.66.66-1.33.98-2-.78.04-1.56.08-2.34.13-.21-.16-.64-.49-.85-.65-.38.02-1.14.06-1.52.08-2.88-4.7-5.8-9.37-8.7-14.05,3.36,3.07,6.39,6.89,10.82,8.45,1.71.71,3.85.12,4.74-1.55"/>
        <path class="cls-4" d="M184.92,125.27c.09,1.9,2.1,3.37.99,5.3.75.96,1.59,1.84,2.49,2.67.53-.21,1.07-.42,1.61-.63.14.24.42.73.56.98-.53.58-1.21.98-1.93,1.29-.72-.27-1.43-.53-2.16-.76l-.35.53c-.43-3.12-.91-6.24-1.2-9.38"/>
        <path class="cls-16" d="M190.72,126.08c1.02-.17,2.27.05,2.7,1.12.43,1.22-.23,3.17-1.78,3.05-2.48.49-3.31-3.52-.92-4.17"/>
        <path class="cls-37" d="M223.31,131.03c6.1-4.89,14.44-5.42,21.88-4.25-1.52.88-3.24,1.36-4.81,2.16-4.34,2-8.42,4.61-11.94,7.85l-.1.1c-1.95-1.74-2.91-4.31-5.03-5.86"/>
        <path class="cls-44" d="M41.21,129.14c11.08-2.98,23.14-1.64,33.53,3.14,10.13,4.73,20.14,10.08,28.49,17.64.9.95,1.47,2.88-.26,3.33.05-.52.1-1.04.15-1.55-3.93-3.46-8.14-6.61-12.56-9.43-4.73-2.98-9.77-5.41-14.73-7.97-7.99-3.81-16.91-5.89-25.79-5.08-.69,0-1.38.02-2.06.04-2.27.26-4.46.89-6.73,1.13-.01-.32-.04-.94-.06-1.26"/>
        <path class="cls-9" d="M48,129.26c.68-.02,1.37-.04,2.06-.04-.98,1.07-1.98,2.12-2.87,3.26-1.38,2.47-.12,5.39,1.34,7.51,3.99,4.78,9.54,8.34,15.66,9.66,9.45,2.44,19.24,3.33,28.98,3.04,3.31-.33,6.73-.14,9.97-.99-.06.52-.11,1.03-.16,1.55-.12,0-.36.02-.48.02-12.6,1.43-25.5,1.07-37.83-2.06-6.57-1.23-12.59-4.88-16.92-9.94-1.78-2.27-3.09-5.28-2.31-8.18.35-1.55,1.57-2.66,2.55-3.83"/>
        <path class="cls-21" d="M50.06,129.22c8.87-.82,17.8,1.26,25.79,5.07,4.96,2.56,10,5,14.73,7.97-.42,1.56-.73,3.15-.76,4.77-2.06-1.45-4.45-2.33-6.45-3.87-2.28-1.72-5.17-2.25-7.63-3.64-2.13-1.33-4.7-1.61-6.89-2.79-3.64-1.42-7.43-2.76-11.39-2.55-3.19-1.61-6.87-.86-10.27-1.7.89-1.14,1.9-2.19,2.87-3.26"/>
        <path class="cls-36" d="M212.82,150.81c1.44-7.26,4.25-14.81,10.21-19.56l.27-.22c2.12,1.54,3.08,4.12,5.03,5.86-8.1,7.33-12.76,17.73-14.86,28.3-.29-.14-.86-.4-1.15-.53-.29-1.87.01-3.8-.55-5.63.12-2.76.53-5.51,1.05-8.22"/>
        <path class="cls-43" d="M168.98,137.3c.27-.27.82-.81,1.09-1.08,1,1.01,1.99,2.03,2.95,3.08.29-.69.59-1.37.88-2.05,1.1,2.75,2.11,5.54,3.02,8.37-.53-.04-1.17.11-1.46-.47-2.11-2.66-4.46-5.12-6.49-7.85"/>
        <path class="cls-14" d="M90.57,142.27c4.41,2.81,8.63,5.96,12.56,9.43-3.24.86-6.65.66-9.97.99-1.47-1.64-2.8-3.48-3.35-5.65.03-1.62.33-3.21.76-4.77"/>
        <path class="cls-55" d="M168.76,147.18c.97,1.18,2.58.89,3.58-.05.4-1.27.47-3.21-1.22-3.49-1.96-.73-3.9,2.03-2.36,3.55M167.13,147.8c-1.69-2.41.56-6.09,3.44-5.81,2.43-.06,4.47,2.66,3.42,4.97-.4,1.4-1.77,2.07-2.95,2.68.4.76.95,1.4,1.46,2.08.17.78-.66.93-1.16,1.25-1.29-1.81-2.9-3.38-4.22-5.17"/>
        <path class="cls-25" d="M168.76,147.18c-1.54-1.51.4-4.28,2.36-3.55,1.69.28,1.62,2.22,1.22,3.5-1.01.94-2.62,1.23-3.58.05"/>
        <path class="cls-29" d="M160.76,146.13c.38-.02,1.14-.06,1.52-.08.21.17.64.49.85.65.78-.05,1.56-.09,2.34-.13-.31.67-.64,1.34-.98,2,.76.95,1.58,1.86,2.46,2.71.51-.17,1.02-.34,1.53-.51.22.24.66.71.88.95-.7.88-1.87,1.67-3.01,1.05-.87-.69-1.67-1.48-2.59-2.11-1.15-1.38-1.94-3.07-3.01-4.53"/>
        <path class="cls-2" d="M247.44,161.25c6.6-4.15,13.74-8.43,21.75-8.71,4.29-.23,8.32,2.52,9.99,6.41,2.85,6.36,2.53,13.57,2.13,20.38-.14,2.25-.49,4.48-.63,6.73-.35-2.56-.52-5.14-1.08-7.66-.95-4.91-2.81-9.8-6.3-13.48-2.93-3.06-7.12-4.71-11.32-4.84-4.58-.19-9.12.9-13.41,2.43-2.47.81-4.81,1.92-7.22,2.87,1.98-1.44,4.04-2.79,6.09-4.13"/>
        <path class="cls-32" d="M154.28,157.41c-1.42.19-2.42,2.41-1.14,3.39.78,1.19,2.79,1.03,3.36-.27,1.1-1.45-.48-3.62-2.22-3.12M153.52,156.05c2.4-1.04,5.26,1.13,4.86,3.73.04,2.32-2.35,3.15-4.09,3.89-1.1-1.07-2.21-2.12-3.36-3.12.19-1.77.64-3.92,2.59-4.5"/>
        <path class="cls-16" d="M154.28,157.41c1.74-.5,3.32,1.66,2.22,3.12-.57,1.3-2.58,1.46-3.36.27-1.28-.98-.28-3.2,1.14-3.39"/>
        <path class="cls-62" d="M211.77,159.03c.57,1.83.26,3.76.55,5.63.29.13.86.4,1.15.53-.89,4.51-1.4,9.09-1.67,13.67-.42-6.59-.64-13.24-.02-19.83"/>
        <path class="cls-38" d="M304.93,164.45c5.26,3.56,9.76,8.21,13.27,13.47-6.29,7.21-13.49,13.61-21.43,18.94l-.47.33c.11-.9.37-1.82.23-2.73-.76-1.9-2.31-3.33-3.8-4.66.2-.31.4-.62.6-.92,1.65-2.74,3.43-5.44,4.66-8.4.31-.11.91-.34,1.22-.45,2.36-5.01,4.31-10.21,5.72-15.57"/>
        <path class="cls-38" d="M113.39,307.34c.42-.26.84-.5,1.26-.75,2.19.3,4.37.76,6.58.92.75.9,2.04.63,3.08.73,1.25.06,2.48-.23,3.64-.68.45.23.91.47,1.37.71-1.49,2.21-3.11,4.33-4.9,6.31-3.67-1.1-7.3-2.36-10.86-3.78-1.11-.46-2.27-.89-3.14-1.76,1.02-.52,2-1.1,2.97-1.71"/>
        <path class="cls-36" d="M120.25,176.71c6.76-1.34,13.66.84,19.52,4.15,7.88,4.44,14.6,10.63,20.8,17.14.98,1.04,2.1,1.99,2.77,3.28-9.09-8.15-20.08-14.82-32.31-16.68-9.52-1.5-19.31.58-27.88,4.83,4.04-5.95,9.84-11.28,17.1-12.71"/>
        <path class="cls-54" d="M248.01,188.95c-2.39,1.39-4.38,3.56-5.14,6.26-2.56,6.67,2.87,14.92,10.04,15.05,1.69.2,3.35-.47,5-.79,3.24-1.3,5.75-4.18,6.69-7.54,2.01-6-2.34-13.2-8.59-14.18-2.69-1.03-5.54.06-8,1.2M241.65,194.09c2.45-6.7,11.15-10.16,17.52-6.93,3.49,1.59,6.13,4.81,7.04,8.52,1.09,4.28-.28,9-3.3,12.17-2.11,2.4-5.28,3.49-8.34,3.98-1.86-.13-3.69-.46-5.48-.93-6.58-2.27-10.13-10.43-7.44-16.81"/>
        <path class="cls-30" d="M248.03,203.94c.28.55.18,1.54.99,1.67.91.2,2.09-.97,1.3-1.8-.5-1.15-1.7-.57-2.29.12M248.01,188.95c2.46-1.14,5.31-2.23,8-1.2-.92.11-1.83.26-2.75.4.81.4,1.61.8,2.42,1.2-.07.4-.14.79-.21,1.19-1.93-.14-4.29.92-4.4,3.11-.38,2.54,2.37,4.76,4.76,3.73,1.56-.4,2.06-2.08,2.4-3.46,1.63,1.08,1.35,3.19,1.41,4.88.07,2.01-1.02,3.77-1.88,5.5-1.33,2.74-4.45,3.79-7.16,4.62.71.53,1.47,1,2.3,1.34-7.17-.13-12.6-8.38-10.04-15.05.76-2.7,2.75-4.88,5.14-6.26"/>
        <path class="cls-30" d="M124.13,213.63c2.43-.5,4.81-1.21,7.29-1.38-6.42,2.39-12.79,5.5-17.63,10.46-3.61,3.69-5.62,9.04-4.67,14.18,1.09,6.72,5.3,12.35,9.52,17.48-5.51-3.98-10.76-8.48-14.92-13.88-2.39-3.27-4.53-7.22-3.93-11.41.46-3.68,3.23-6.54,6.2-8.52,5.45-3.62,11.85-5.4,18.14-6.93"/>
        <path class="cls-30" d="M147.7,246.89c.48.98,1.59.66,2.26.09-.11-.63,0-1.4-.65-1.76-.93-.44-2.36.68-1.61,1.66M132.04,239.73c2.21-2.78,5.63-4.77,9.22-4.8,4.23-.24,8.37,2.32,10.22,6.09,2.01,3.43,2.02,8.24-.51,11.38,0-.4,0-1.2,0-1.6-2.57.22-4.5,2.55-7.15,2.12-3.84-.3-7.92-2.37-9.15-6.26,1.45.83,3.43,1.43,4.86.22,2.09-1.51,1.64-5.04-.72-6.04-2.34-1.09-4.96.96-5.14,3.39-.77-1.14-.7-2.54-.7-3.85-.24-.16-.71-.5-.94-.66"/>
        <path class="cls-30" d="M114.65,306.59c9.23-5.48,17.58-12.36,25.06-20.05-2.42,7.51-5.68,14.79-10.13,21.33-.07.1-.2.3-.27.4-.46-.24-.92-.48-1.37-.71-1.16.46-2.39.74-3.64.68-1.04-.1-2.33.17-3.08-.73-2.21-.16-4.39-.62-6.58-.92"/>
        <path class="cls-35" d="M253.26,188.15c.92-.14,1.83-.29,2.75-.4,6.25.98,10.6,8.18,8.59,14.18-.94,3.36-3.46,6.23-6.69,7.54-1.64.33-3.3.99-4.99.79-.83-.34-1.59-.8-2.3-1.34,2.71-.83,5.83-1.88,7.16-4.62.86-1.74,1.95-3.49,1.87-5.5-.05-1.7.22-3.8-1.41-4.88-.27-1.56-1.29-2.81-2.76-3.38.07-.4.13-.8.21-1.19-.81-.4-1.62-.8-2.43-1.2"/>
        <path class="cls-26" d="M177.55,188.54c1.82,3.9,3.98,7.69,5.31,11.8-2.04-3.92-4.62-7.52-7.09-11.18.59-.21,1.18-.41,1.78-.62"/>
        <path class="cls-10" d="M278.36,206.96c5.28-5.29,10.27-10.91,14.37-17.16,1.49,1.33,3.05,2.76,3.8,4.66.13.91-.12,1.83-.23,2.73-5.66,3.8-11.72,6.99-17.94,9.77"/>
        <path class="cls-1" d="M251.08,193.65c.11-2.18,2.47-3.25,4.4-3.11,1.47.57,2.49,1.82,2.76,3.38-.35,1.38-.85,3.06-2.4,3.46-2.39,1.03-5.14-1.19-4.76-3.73"/>
        <path class="cls-1" d="M133.68,244.25c.18-2.43,2.8-4.49,5.14-3.39,2.36,1,2.8,4.53.72,6.04-1.44,1.2-3.41.6-4.86-.22-.32-.82-.64-1.64-1-2.43"/>
        <path class="cls-52" d="M227.29,202.27c1.69-.21,3.29-.8,4.9-1.33,1.07.68,2.3.99,3.55,1.1.22,1.65.23,3.32.07,4.98-.38,1.44-2.08.67-3.1.65-1.66-.38-3.3.35-4.95.25-1.38-1.45-.52-3.84-.46-5.65"/>
        <path class="cls-24" d="M248.03,203.94c.59-.69,1.8-1.28,2.29-.12.79.83-.39,2-1.3,1.8-.81-.13-.71-1.12-.99-1.67"/>
        <path class="cls-27" d="M205.48,217.42c12.83-4.71,26.58-7.25,40.27-6.49,1.11.06,2.23.02,3.35-.02,1.79.47,3.62.8,5.48.93,4.24.73,8.45,1.72,12.51,3.17,8.14,2.73,15.69,7.73,20.64,14.85,4.63,6.62,6.77,14.87,6.24,22.89-.12,3.66-1.7,7.08-2.09,10.66l.1.33v.36s-.26-.08-.26-.08c-.49-.3-.94-.63-1.41-.95,4.33-11.16,2.53-24.67-5.01-34.09-5.09-6.46-12.52-10.69-20.26-13.18-8.26-2.6-16.97-3.77-25.63-3.52-2.81.06-5.65,0-8.42.59-11.61,1.08-22.85,4.7-33.52,9.3-11.72,5.27-22.77,12.28-31.8,21.49-5.81,6.06-10.97,12.88-14.58,20.49-3.5,7.54-5.17,16.16-3.36,24.37,1.71,8.01,6.3,15.4,12.94,20.25,8.74,6.6,19.76,9.2,30.47,10.31,20.2,1.69,40.41-3.97,58.23-13.24,11.55-5.91,21.87-14.19,30.15-24.18,1.83-2.69,3.94-5.19,5.58-8.02.31.21.95.62,1.26.82-1.03,1.81-2.27,3.47-3.49,5.14-.37.57-.69,1.15-1,1.76-2.49,2.3-4.47,5.09-6.76,7.59-5.78,5.45-11.9,10.59-18.76,14.64-1.15.73-2.58,1.26-3.14,2.61.02-.24.07-.7.1-.93-6.54,3.9-13.61,6.83-20.76,9.43-11.9,4.13-24.51,6.49-37.14,6.08-1.96-.06-3.91-.24-5.86-.4-.38-.04-1.15-.12-1.54-.16-3.78-.32-7.44-1.96-11.25-1.31.36-.23.72-.47,1.07-.7-.27-.08-.82-.24-1.08-.31-7.22-1.9-14.16-5.18-19.73-10.22-8.81-8.04-13.06-20.63-10.98-32.36,1.76-10.07,7.1-19.11,13.48-26.95,11.9-14.53,28.44-24.65,45.98-30.95"/>
        <path class="cls-40" d="M230.97,212.88c2.77-.59,5.6-.53,8.42-.59,8.66-.25,17.37.92,25.63,3.52,7.73,2.49,15.16,6.71,20.25,13.18,7.55,9.42,9.34,22.93,5.01,34.09-.05.09-.14.26-.19.35-.99-.26-2.53-.8-3.11.41-.4,1.18.11,2.46.23,3.66-1.66-.93-3.96-.92-5.27.58-1.04,1.01-.78,2.58-.99,3.89-1.35-.07-2.87-.49-4.07.36-1.21,1.1-1.95,2.91-1.46,4.53,1.03,1.84,2.64,3.27,4.06,4.82-8.28,9.99-18.6,18.27-30.15,24.18-17.81,9.27-38.03,14.93-58.23,13.24-10.71-1.12-21.73-3.71-30.47-10.31.3-.1.89-.3,1.19-.4,1.57.87,3.13,1.77,4.54,2.9,4.07,1.38,8.08,3.15,12.4,3.58,2.06.16,4.08.66,6.14.92,6,.47,12.03.09,18.02-.41,4.87-.35,9.46-2.16,14.19-3.21,2.65-.52,5.02-1.87,7.57-2.71.78-.19,1.21-.87,1.71-1.43,2.54.31,4.65-1.33,6.81-2.39,12.68-6.05,24.62-14.48,32.78-26.07.35.36.69.74,1.05,1.12-1.38,1.37-3.52,2.74-3,5.01.46,2.9,4.94,3.72,6.5,1.31.69-1.08.63-2.43.84-3.64,2.03.36,4.38.17,5.47-1.85-.02-.41-.07-1.21-.09-1.61-.86.82-1.77,1.6-2.78,2.23.14-1.91.29-3.82.23-5.73-1.67,0-3.45.8-4.16,2.38-.22.88-.12,1.79-.13,2.69-1.14-.96-2.14-2.07-2.78-3.43,2.95-2.93,4.65-6.79,6.56-10.42,3.78-7.34,5.69-15.85,4.04-24.04-.3-.96-1.15-1.6-1.77-2.36.31-.12.95-.38,1.27-.51-1.23-4.49-3.24-8.82-6.19-12.44-2.33-2.64-4.96-5.02-7.81-7.1-.61-.49-1.36-.68-2.11-.82-.07.3-.21.88-.29,1.18-2.1-2.52-4.27-5.19-7.42-6.41-3.68-1.69-7.98-1.26-11.64.26-.74-.61-1.35-1.61-2.41-1.61-2.82-.24-5.67-.21-8.43-.88"/>
        <path class="cls-19" d="M174.93,289.58c-1.04,3.32-4.07,5.38-7.01,6.9.09,1.49,1.71.83,2.46.26,4.82-2.5,7.57-8.18,6.63-13.52-.22-.14-.66-.43-.89-.57-.8,2.22-.15,4.74-1.2,6.93M265.07,285.13c.57.76.88,2.09,2.05,2.1,2.53.66,3.99-3.84,1.42-4.54-1.72-.66-3.09.92-3.47,2.44M175.45,251.61c-3.01.82-5.79,2.52-7.76,4.96-1.28,1.67-2.25,3.82-1.76,5.97.31,1.78,1.5,3.36,3.15,4.1,5.98,2.31,13.31-.68,16.37-6.21,1.23-2.21,1.17-5.17-.61-7.08-2.44-2.39-6.25-2.61-9.4-1.75M158.12,254.2c-2.4,3.38-2.63,7.69-2.17,11.68.5-.02,1-.05,1.5-.07-.86-4.36-.04-9.45,3.41-12.52,3.66-3.63,8.94-4.82,13.86-5.6.85-1.63-1.22-1.28-2.14-1.08-5.37,1-11.18,2.92-14.47,7.59M259.15,244.97c1.35,2.21,3.62,3.57,5.86,4.73-1.57,1.59-2.3,3.77-3.58,5.57-5.58,9.2-12.58,17.64-21.06,24.31-6.86,5.22-14.64,9.34-23.02,11.48-12.24,3.24-25.22,2.62-37.46-.22-1.04-.26-2.29-.79-3.07.27,1.32,1.28,3.36,1.14,5.05,1.62,14.2,2.96,29.43,2.86,43.01-2.64,15.39-6,27.67-18.1,36.39-31.89,1.64-2.71,3.59-5.29,4.65-8.31,3.52,1.12,7.21-.15,10.3-1.87-.01-.32-.04-.95-.06-1.27-2.22.47-4.1,2.05-6.44,2.11-3.35.35-6.53-1.41-8.75-3.81-.44-.66-1.26-.44-1.82-.09M241.16,222.26c-2.93.74-5.72,2.25-7.74,4.51-1.61,1.92-2.83,4.52-2.11,7.07.42,1.99,2.24,3.31,4.08,3.9,3.52,1.14,7.39.19,10.52-1.62,2.58-1.55,4.95-3.94,5.55-6.99.55-2.37-.62-5.08-2.85-6.14-2.27-1.25-4.98-1.37-7.45-.73M197.45,222.17c10.67-4.6,21.9-8.22,33.52-9.3,2.76.68,5.61.64,8.42.88,1.07,0,1.67,1.01,2.41,1.61-3.03,1.3-6.1,2.79-8.5,5.09-.04.3-.13.92-.17,1.22,1.8-.53,3.16-1.89,4.78-2.78,3.26-1.87,6.88-3.54,10.73-3.38,3.5.09,6.8,1.88,9.08,4.49.89,1.04,1.75,2.1,2.81,2.97.08-.37.24-1.1.32-1.46.07-.3.22-.88.28-1.18.75.14,1.5.33,2.11.82,2.84,2.07,5.48,4.46,7.81,7.1,2.95,3.62,4.96,7.95,6.19,12.44-.32.13-.96.38-1.27.5.62.76,1.48,1.4,1.77,2.36,1.65,8.19-.26,16.7-4.04,24.04-1.92,3.63-3.61,7.49-6.56,10.42.63,1.36,1.64,2.47,2.78,3.43,0-.9-.09-1.81.13-2.69.71-1.58,2.49-2.37,4.16-2.38.06,1.92-.09,3.83-.22,5.73,1.01-.63,1.92-1.41,2.78-2.23.02.4.07,1.21.09,1.61-1.09,2.02-3.44,2.21-5.47,1.85-.21,1.22-.15,2.57-.84,3.65-1.56,2.41-6.05,1.59-6.5-1.31-.52-2.27,1.63-3.64,3-5.01-.35-.37-.7-.75-1.05-1.12-8.17,11.6-20.11,20.03-32.79,26.08-2.15,1.07-4.26,2.7-6.8,2.39-.5.55-.93,1.24-1.71,1.43-2.55.84-4.92,2.19-7.57,2.71-4.73,1.05-9.32,2.85-14.19,3.2-5.99.51-12.01.88-18.02.41-2.05-.26-4.07-.76-6.14-.92-4.32-.43-8.33-2.21-12.4-3.58-1.41-1.13-2.96-2.03-4.54-2.9-.3.1-.89.3-1.19.4-6.64-4.85-11.23-12.24-12.94-20.25-1.81-8.21-.14-16.83,3.36-24.37,3.61-7.61,8.76-14.43,14.58-20.49,9.03-9.21,20.08-16.23,31.8-21.49"/>
        <path class="cls-28" d="M241.8,215.37c3.66-1.52,7.96-1.95,11.64-.26,3.15,1.23,5.32,3.89,7.42,6.41-.09.36-.25,1.1-.32,1.46-1.07-.87-1.92-1.94-2.81-2.97-2.28-2.6-5.58-4.4-9.08-4.49-3.85-.15-7.47,1.51-10.73,3.38-1.62.89-2.98,2.24-4.78,2.78.04-.3.13-.92.17-1.22,2.4-2.31,5.47-3.79,8.5-5.09"/>
        <path class="cls-38" d="M293.73,218.48c10.09.02,20.16-1.37,29.91-3.92.23,0,.69.01.92.01-1.04,4.24-2.73,8.29-4.56,12.25-9.27-.76-18.22-3.71-26.59-7.67-.46-.21-.92-.43-1.38-.65.42,0,1.28-.01,1.7-.01"/>
        <path class="cls-49" d="M233.1,230c-1.08,1.86-.55,4.52,1.3,5.68,1.41.74,3.01,1.19,4.62,1.08,3.11-.24,6.19-1.52,8.47-3.68,1.69-1.5,2.93-3.76,2.5-6.08-.22-1.54-1.59-2.55-2.89-3.19-5.27-1.5-11.54,1.29-13.99,6.2M241.16,222.26c2.47-.64,5.18-.52,7.45.73,2.22,1.06,3.4,3.77,2.85,6.14-.6,3.05-2.96,5.44-5.55,6.99-3.12,1.81-7,2.76-10.52,1.62-1.84-.58-3.66-1.91-4.08-3.9-.72-2.54.5-5.14,2.11-7.07,2.02-2.26,4.81-3.77,7.74-4.51"/>
        <path class="cls-56" d="M233.1,230c2.45-4.91,8.72-7.7,13.99-6.2-2.62-.52-4.5,1.59-6.06,3.33-2.1,2.62-3.63,5.83-3.82,9.21.6.14,1.2.27,1.81.4-1.61.12-3.21-.34-4.62-1.08-1.85-1.15-2.37-3.82-1.29-5.68"/>
        <path class="cls-56" d="M167.93,259.52c1.34-3.71,5.12-5.88,8.8-6.64,2.8-.62,6.37-.03,7.87,2.71.66,2.07-.23,4.14-1.47,5.79-.74-.62-1.39-1.53-2.42-1.59-3.28-.33-6.57-1.02-9.87-.58-.1-.09-.31-.26-.41-.35-.83.21-1.67.42-2.49.67"/>
        <path class="cls-33" d="M241.03,227.14c1.56-1.75,3.45-3.85,6.06-3.33,1.3.64,2.67,1.65,2.89,3.19.43,2.32-.81,4.58-2.5,6.08-2.28,2.15-5.35,3.44-8.47,3.68-.61-.13-1.21-.26-1.8-.4.19-3.38,1.72-6.59,3.82-9.21"/>
        <path class="cls-46" d="M132.04,239.73c-1.69,2.81-2.49,6.27-1.59,9.48.94,3.09,3.09,5.92,6.06,7.3,3.48,1.56,7.76,1.66,10.98-.58,1.3-.98,2.91-1.92,3.48-3.52,2.53-3.14,2.51-7.95.51-11.38-1.85-3.77-5.99-6.33-10.22-6.09-3.59.02-7.02,2.02-9.22,4.8M138.21,233.8c3.76-.99,8.01-.27,11.08,2.17,1.99,1.51,3.42,3.67,4.38,5.96,1.7,4.36.52,9.52-2.53,12.98-2.19,2.12-4.95,3.87-8.04,4.19-3.6.38-7.41-.67-10.13-3.1-3.89-3.37-5.45-9.18-3.62-14.02,1.27-4.05,4.92-6.98,8.88-8.18"/>
        <path class="cls-12" d="M130.45,249.21c-.89-3.22-.1-6.67,1.59-9.48.24.17.7.5.94.66,0,1.31-.07,2.71.7,3.85.36.79.68,1.61,1,2.42,1.23,3.89,5.32,5.96,9.15,6.26,2.65.43,4.57-1.9,7.15-2.13,0,.4,0,1.2,0,1.6-.57,1.61-2.18,2.54-3.48,3.52-3.22,2.25-7.5,2.14-10.98.58-2.97-1.37-5.12-4.2-6.06-7.29"/>
        <path class="cls-5" d="M259.15,244.97c.56-.35,1.39-.57,1.82.09,2.22,2.4,5.4,4.15,8.75,3.81,2.34-.06,4.21-1.64,6.44-2.11.01.32.05.95.06,1.28-3.09,1.71-6.78,2.99-10.3,1.86-1.07,3.02-3.01,5.59-4.65,8.31-8.73,13.78-21,25.88-36.39,31.88-13.59,5.51-28.81,5.6-43.01,2.64-1.69-.48-3.73-.35-5.05-1.62.78-1.06,2.03-.52,3.06-.27,12.25,2.84,25.23,3.46,37.47.22,8.38-2.13,16.16-6.26,23.02-11.48,8.48-6.67,15.47-15.11,21.06-24.32,1.28-1.8,2.01-3.98,3.58-5.57-2.24-1.15-4.51-2.52-5.86-4.72"/>
        <path class="cls-59" d="M147.7,246.89c-.76-.99.67-2.11,1.61-1.66.64.36.55,1.13.65,1.76-.67.57-1.77.88-2.26-.09"/>
        <path class="cls-15" d="M158.12,254.2c3.29-4.66,9.1-6.58,14.47-7.59.92-.2,2.99-.55,2.14,1.08-4.92.78-10.19,1.97-13.86,5.6-3.46,3.07-4.27,8.16-3.41,12.52-.5.02-1,.04-1.5.07-.46-3.99-.23-8.3,2.17-11.68"/>
        <path class="cls-47" d="M167.93,259.52c-1.09.85-.49,2.64-.37,3.84l.14-.04c.99,1.73,2.97,2.56,4.9,2.59,3.99.33,7.91-1.61,10.54-4.53,1.24-1.65,2.12-3.72,1.47-5.79-1.5-2.74-5.07-3.32-7.87-2.71-3.68.77-7.46,2.94-8.8,6.64M175.45,251.61c3.14-.86,6.95-.64,9.4,1.75,1.78,1.9,1.84,4.87.61,7.08-3.06,5.53-10.39,8.52-16.37,6.21-1.65-.74-2.84-2.33-3.15-4.1-.5-2.15.48-4.3,1.76-5.97,1.97-2.43,4.75-4.13,7.76-4.96"/>
        <path class="cls-39" d="M167.93,259.52c.82-.25,1.66-.46,2.49-.67.1.09.31.26.41.35.15,1.23.26,2.49-.12,3.7-1.02-.06-2.04.09-3.01.42l-.14.04c-.11-1.2-.72-2.99.37-3.84"/>
        <path class="cls-58" d="M170.83,259.21c3.3-.44,6.59.25,9.87.58,1.04.06,1.69.98,2.43,1.59-2.63,2.92-6.54,4.86-10.54,4.53-1.92-.03-3.91-.86-4.9-2.59.97-.32,1.99-.48,3.01-.41.39-1.21.27-2.47.12-3.71"/>
        <path class="cls-51" d="M277.56,273.47c-1.07.78-1.28,3.04.12,3.65,1.56,1.36,4.58-1.01,3.38-2.8-.5-1.4-2.38-1.48-3.51-.85M287,263.83c.58-1.21,2.12-.68,3.11-.42-.14.31-.42.95-.56,1.26-.29.73-.53,1.49-.91,2.19-.72,1.04-1.12,2.26-1.64,3.4-.43-.92-1.01-2.13-2.23-1.95-1.31-.16-2.58.99-2.24,2.36.14,1.53,1.79,1.79,2.9,2.39l-.34.6c-1.64,2.83-3.74,5.33-5.58,8.01-1.41-1.55-3.03-2.97-4.06-4.82-.49-1.62.25-3.42,1.46-4.53,1.19-.85,2.72-.44,4.07-.36.21-1.31-.04-2.88,1-3.89,1.31-1.51,3.62-1.51,5.27-.58-.12-1.2-.63-2.48-.23-3.66"/>
        <path class="cls-50" d="M290.29,263.07c.46.32.92.65,1.41.95l.03.02c-.21.69-.32,1.42-.29,2.15l-.53.41c-.05-.26-.16-.77-.21-1.03-.43-.25-.91-.45-1.16-.9.14-.31.43-.94.57-1.26.05-.09.14-.26.19-.35"/>
        <path class="cls-8" d="M288.63,266.87c.37-.7.62-1.46.91-2.19.25.45.73.66,1.16.9.05.26.16.77.21,1.03-.19.14-.56.4-.74.53-.38-.07-1.15-.2-1.54-.27"/>
        <path class="cls-48" d="M290.17,267.13c.19-.13.56-.4.74-.53l.53-.41c.46.94.87,1.92,1.05,2.96-1.13.41-2.32.53-3.51.45.36-.84.73-1.68,1.19-2.47"/>
        <path class="cls-42" d="M286.99,270.27c.52-1.15.92-2.36,1.64-3.4.39.07,1.16.2,1.54.27-.45.79-.83,1.63-1.19,2.47-.69,1.72-1.64,3.32-2.64,4.87-.31-.2-.94-.61-1.26-.82l.34-.59c.51-.94,1.04-1.87,1.57-2.8"/>
        <path class="cls-23" d="M282.51,270.68c-.34-1.37.93-2.52,2.24-2.36,1.22-.17,1.81,1.03,2.23,1.95-.53.93-1.07,1.86-1.57,2.8-1.11-.6-2.76-.86-2.9-2.39"/>
        <path class="cls-22" d="M277.56,273.47c1.13-.63,3.01-.55,3.51.85,1.2,1.78-1.82,4.16-3.38,2.8-1.4-.61-1.19-2.86-.12-3.65"/>
        <path class="cls-7" d="M265.07,285.13c.37-1.52,1.75-3.1,3.47-2.44,2.58.7,1.11,5.2-1.42,4.54-1.17-.01-1.48-1.34-2.05-2.09"/>
        <path class="cls-53" d="M174.93,289.58c1.05-2.18.4-4.71,1.2-6.93.22.14.67.42.89.57.94,5.34-1.81,11.02-6.63,13.52-.75.57-2.38,1.22-2.46-.26,2.94-1.52,5.97-3.58,7.01-6.9"/>
        <path class="cls-60" d="M105.64,306.35c2.6.02,5.28.02,7.74.99-.97.61-1.95,1.19-2.97,1.7-.11.03-.35.07-.47.1-1.51-.81-2.9-1.81-4.3-2.79"/>
      </g>
    </g>
  </g>
</svg>