<?xml version="1.0" encoding="UTF-8"?>
<svg xmlns="http://www.w3.org/2000/svg" version="1.1" xmlns:xlink="http://www.w3.org/1999/xlink" viewBox="0 0 141.73 141.73">
  <defs>
    <style>
      .cls-1 {
        fill: #cccccb;
      }

      .cls-2 {
        fill: #fff;
      }

      .cls-3 {
        fill: none;
      }

      .cls-4 {
        fill: #1c2e2e;
      }

      .cls-5 {
        clip-path: url(#clippath);
      }
    </style>
    <clipPath id="clippath">
      <rect class="cls-3" x="37.65" y="35.21" width="65.8" height="74.71"/>
    </clipPath>
  </defs>
  <!-- Generator: Adobe Illustrator 28.7.0, SVG Export Plug-In . SVG Version: 1.2.0 Build 136)  -->
  <g>
    <g id="Layer_1">
      <g class="cls-5">
        <path class="cls-1" d="M70.91,94.45c-13.78,0-24.96,3.46-24.96,7.73s11.17,7.73,24.96,7.73,24.96-3.46,24.96-7.73-11.17-7.73-24.96-7.73"/>
        <path class="cls-4" d="M41,39.54c-3.57,7.86,4.62,12.78,7.48,13.06,1.29.12,11.02-6.18,8.89-11.59-2.35-5.94-13.1-8.68-16.37-1.47M99.41,39.54c-3.28-7.21-14.03-4.47-16.37,1.47-2.13,5.4,7.6,11.71,8.89,11.59,2.87-.27,11.05-5.2,7.48-13.06"/>
        <path class="cls-4" d="M98.71,65c-2.77-10.35-8.76-20.22-16.61-25.34-3.51-2.3-7.39-3.65-11.54-3.65h0c-4.15,0-8.03,1.36-11.54,3.65-7.85,5.12-13.84,14.99-16.61,25.34-3.75,10.21-7.56,24.56-1.81,27.75,2.1,1.16,2.79.3,2.88-1.6,2.22,4.16,6.18,7.2,11.02,9.15-1.4.89.17,4.18,4.5,4.69,2.8.33,4.2-1.18,4.86-2.35,2.2.27,4.45.38,6.7.32,2.16.05,4.32-.05,6.44-.29.63,1.11,2.2,3.03,5.37,2.34,3.93-.86,4.47-3,4.07-4.64,4.92-1.95,8.96-5,11.2-9.22.09,1.9.79,2.76,2.88,1.6,5.74-3.18,1.94-17.53-1.81-27.75"/>
        <path class="cls-2" d="M94.08,61.27c-4.12-11.1-10.78-18.84-23.16-18.84s-19.16,7.74-23.29,18.84c-5.41,14.57,5.39,27.56,23.31,27.56s28.54-13,23.13-27.56"/>
        <path class="cls-4" d="M64.85,51.85c-13.58-.98-13.98,12.97-8.96,15.14,5.02,2.16,7.38-1.18,8.96-4.13,1.58-2.95,5.96-10.58,0-11.01M76.26,51.85c-5.96.43-1.58,8.06,0,11.01,1.57,2.95,3.94,6.29,8.96,4.13,5.02-2.16,4.63-16.12-8.96-15.14"/>
        <path class="cls-2" d="M62.99,54.38c-8.3-.6-8.54,7.86-5.47,9.17,3.07,1.31,4.51-.72,5.47-2.5.96-1.79,3.64-6.41,0-6.67M78.12,54.38c-3.65.26-.96,4.88,0,6.67.96,1.79,2.41,3.81,5.47,2.5,3.07-1.31,2.83-9.77-5.47-9.17"/>
        <path class="cls-4" d="M61.77,56.49c-1.36,0-2.46,1.26-2.46,2.81s1.1,2.81,2.46,2.81,2.46-1.26,2.46-2.81-1.1-2.81-2.46-2.81M79.34,56.49c-1.36,0-2.46,1.26-2.46,2.81s1.1,2.81,2.46,2.81,2.46-1.26,2.46-2.81-1.1-2.81-2.46-2.81"/>
        <path class="cls-4" d="M70.56,63.52c-2.72,0-4.92-.15-4.92,1.41s2.2,4.22,4.92,4.22,4.92-2.66,4.92-4.22-2.2-1.41-4.92-1.41"/>
      </g>
    </g>
  </g>
</svg>