<?xml version="1.0" encoding="UTF-8"?>
<svg xmlns="http://www.w3.org/2000/svg" version="1.1" xmlns:xlink="http://www.w3.org/1999/xlink" viewBox="0 0 141.73 141.73">
  <defs>
    <style>
      .cls-1 {
        fill: #cccccb;
      }

      .cls-2 {
        fill: #c12026;
      }

      .cls-3 {
        fill: #fff;
      }

      .cls-4 {
        fill: none;
      }

      .cls-5 {
        clip-path: url(#clippath-1);
      }

      .cls-6 {
        fill: #e0392b;
      }

      .cls-7 {
        display: none;
      }

      .cls-8 {
        fill: #1c2e2e;
      }

      .cls-9 {
        clip-path: url(#clippath);
      }
    </style>
    <clipPath id="clippath">
      <rect class="cls-4" x="37.65" y="35.21" width="65.8" height="74.71"/>
    </clipPath>
    <clipPath id="clippath-1">
      <rect class="cls-4" x="30.87" y="38.24" width="79.37" height="65.76"/>
    </clipPath>
  </defs>
  <!-- Generator: Adobe Illustrator 28.7.0, SVG Export Plug-In . SVG Version: 1.2.0 Build 136)  -->
  <g>
    <g id="Layer_1">
      <g class="cls-7">
        <g class="cls-9">
          <path class="cls-1" d="M70.91,94.45c-13.78,0-24.96,3.46-24.96,7.73s11.17,7.73,24.96,7.73,24.96-3.46,24.96-7.73-11.17-7.73-24.96-7.73"/>
          <path class="cls-8" d="M41,39.54c-3.57,7.86,4.62,12.78,7.48,13.06,1.29.12,11.02-6.18,8.89-11.59-2.35-5.94-13.1-8.68-16.37-1.47M99.41,39.54c-3.28-7.21-14.03-4.47-16.37,1.47-2.13,5.4,7.6,11.71,8.89,11.59,2.87-.27,11.05-5.2,7.48-13.06"/>
          <path class="cls-8" d="M98.71,65c-2.77-10.35-8.76-20.22-16.61-25.34-3.51-2.3-7.39-3.65-11.54-3.65h0c-4.15,0-8.03,1.36-11.54,3.65-7.85,5.12-13.84,14.99-16.61,25.34-3.75,10.21-7.56,24.56-1.81,27.75,2.1,1.16,2.79.3,2.88-1.6,2.22,4.16,6.18,7.2,11.02,9.15-1.4.89.17,4.18,4.5,4.69,2.8.33,4.2-1.18,4.86-2.35,2.2.27,4.45.38,6.7.32,2.16.05,4.32-.05,6.44-.29.63,1.11,2.2,3.03,5.37,2.34,3.93-.86,4.47-3,4.07-4.64,4.92-1.95,8.96-5,11.2-9.22.09,1.9.79,2.76,2.88,1.6,5.74-3.18,1.94-17.53-1.81-27.75"/>
          <path class="cls-3" d="M94.08,61.27c-4.12-11.1-10.78-18.84-23.16-18.84s-19.16,7.74-23.29,18.84c-5.41,14.57,5.39,27.56,23.31,27.56s28.54-13,23.13-27.56"/>
          <path class="cls-8" d="M64.85,51.85c-13.58-.98-13.98,12.97-8.96,15.14,5.02,2.16,7.38-1.18,8.96-4.13,1.58-2.95,5.96-10.58,0-11.01M76.26,51.85c-5.96.43-1.58,8.06,0,11.01,1.57,2.95,3.94,6.29,8.96,4.13,5.02-2.16,4.63-16.12-8.96-15.14"/>
          <path class="cls-3" d="M62.99,54.38c-8.3-.6-8.54,7.86-5.47,9.17,3.07,1.31,4.51-.72,5.47-2.5.96-1.79,3.64-6.41,0-6.67M78.12,54.38c-3.65.26-.96,4.88,0,6.67.96,1.79,2.41,3.81,5.47,2.5,3.07-1.31,2.83-9.77-5.47-9.17"/>
          <path class="cls-8" d="M61.77,56.49c-1.36,0-2.46,1.26-2.46,2.81s1.1,2.81,2.46,2.81,2.46-1.26,2.46-2.81-1.1-2.81-2.46-2.81M79.34,56.49c-1.36,0-2.46,1.26-2.46,2.81s1.1,2.81,2.46,2.81,2.46-1.26,2.46-2.81-1.1-2.81-2.46-2.81"/>
          <path class="cls-8" d="M70.56,63.52c-2.72,0-4.92-.15-4.92,1.41s2.2,4.22,4.92,4.22,4.92-2.66,4.92-4.22-2.2-1.41-4.92-1.41"/>
        </g>
      </g>
      <g class="cls-5">
        <path class="cls-1" d="M70.27,89.13c-14.84,0-26.88,3.33-26.88,7.43s12.03,7.43,26.88,7.43,26.88-3.33,26.88-7.43-12.03-7.43-26.88-7.43"/>
        <path class="cls-2" d="M98.87,38.24c.7,9.47-2.04,14.87-2.04,14.87,0,0-3.25-2.13-4.29-6.12-3.65,5.32,4.24,12.77,4.24,12.77,0,0-1.88,1.93-4.42,3.94-1.93-5.56-4.98-10.74-8.82-14.51.11-.49.17-1,.17-1.52,0-3.95-3.26-7.15-7.29-7.15-2.3,0-4.34,1.04-5.68,2.67-.11,0-.22,0-.32,0-.48,0-.95.02-1.42.07-1.33-1.66-3.4-2.73-5.73-2.73-4.03,0-7.29,3.2-7.29,7.15,0,.85.15,1.67.43,2.42-3.39,3.63-6.1,8.37-7.88,13.42-2.42-1.94-4.19-3.76-4.19-3.76,0,0,7.9-7.45,4.24-12.77-1.04,4-4.29,6.12-4.29,6.12,0,0-2.73-5.4-2.04-14.87-21.15,10.43-7.51,24.24-1.14,24.39.45.81,2.99,3.19,6.12,5.26-.98,4.09-1.33,8.24-.92,12.06.19,2.15.58,4.21,1.23,6.13.34,1.02.8,1.96,1.36,2.84-.9.35-1.85.83-2.39,1.41-1.25,1.33-2.03,5.65-1.34,5.68.68.03,1.64-3.92,2.94-4.36.53-.18,1.44-.47,2.32-.75.17.18.34.36.52.53-.9.57-1.9,1.38-2.26,2.39-.73,2-.49,5.98.17,5.83.67-.15.57-4.22,1.72-4.98.54-.36,1.53-.99,2.42-1.56.26.18.52.35.78.52-.62.52-1.35,1.27-1.72,2.21-.73,1.82.2,4.79.71,4.6.51-.18.03-3.4.86-4.11.44-.38,1.29-1.08,1.99-1.66,4.22,2.11,9.51,3.08,14.8,2.95,4.68.12,9.36-.63,13.3-2.27.72.6,1.64,1.36,2.1,1.76.83.72.35,3.93.86,4.11.51.18,1.2-2.54.71-4.6-.24-1.03-.94-1.77-1.58-2.26.25-.13.5-.27.74-.41.86.55,1.8,1.15,2.32,1.49,1.15.76,1.05,4.83,1.72,4.98.67.15.84-3.95.17-5.83-.3-.86-1.15-1.61-1.98-2.18.24-.19.47-.4.7-.6.73.23,1.42.45,1.86.6,1.31.44,2.26,4.39,2.94,4.36.68-.03-.43-4.34-1.34-5.68-.32-.47-.99-.87-1.71-1.19.89-1.15,1.59-2.42,2.07-3.84.64-1.91,1.04-3.98,1.23-6.13.4-3.76.06-7.85-.88-11.89,3.25-2.11,5.91-4.6,6.37-5.43,6.38-.15,20.02-13.96-1.13-24.39"/>
        <path class="cls-6" d="M70.41,64.55c-8.29,0-21.92-3.69-19.96,14.64.15,1.77.48,3.48,1.02,5.06,2.25,6.68,10.37,9.83,18.95,9.83s16.69-3.15,18.95-9.83c.53-1.58.86-3.29,1.02-5.06,1.88-17.61-11.67-14.64-19.96-14.64"/>
        <path class="cls-3" d="M81.78,47.3c-.22-2.69-2.79-4.76-5.75-4.63-2.96.13-5.19,2.42-4.97,5.11.22,2.69,2.79,4.76,5.75,4.63,2.96-.13,5.18-2.42,4.97-5.11"/>
        <path class="cls-3" d="M68.91,47.3c-.22-2.69-2.79-4.76-5.75-4.63-2.96.13-5.19,2.42-4.97,5.11.22,2.69,2.79,4.76,5.75,4.63,2.96-.13,5.18-2.42,4.97-5.11"/>
        <path class="cls-8" d="M76.42,44.98c-1.11,0-2,1.02-2,2.29s.9,2.29,2,2.29,2-1.02,2-2.29-.9-2.29-2-2.29"/>
        <path class="cls-8" d="M63.84,44.98c-1.11,0-2,1.02-2,2.29s.9,2.29,2,2.29,2-1.02,2-2.29-.9-2.29-2-2.29"/>
      </g>
    </g>
  </g>
</svg>