<?xml version="1.0" encoding="UTF-8"?>
<svg xmlns="http://www.w3.org/2000/svg" version="1.1" xmlns:xlink="http://www.w3.org/1999/xlink" viewBox="0 0 257.7 254.9">
  <defs>
    <style>
      .cls-1 {
        fill: #c4e7e4;
      }

      .cls-2 {
        fill: #d63d39;
      }

      .cls-3 {
        fill: #ea4645;
      }

      .cls-4 {
        fill: #693433;
      }

      .cls-5 {
        fill: #d9944e;
      }

      .cls-6 {
        fill: #d1c799;
      }

      .cls-7 {
        fill: #cfc49b;
      }

      .cls-8 {
        fill: #803532;
      }

      .cls-9 {
        fill: #fde4b8;
      }

      .cls-10 {
        fill: #ce7d2b;
      }

      .cls-11 {
        fill: #aedfe1;
      }

      .cls-12 {
        fill: #a88c59;
      }

      .cls-13 {
        fill: #cc9455;
      }

      .cls-14 {
        fill: #cc843b;
      }

      .cls-15 {
        fill: #885f71;
      }

      .cls-16 {
        fill: #c8473e;
      }

      .cls-17 {
        fill: #bac9a3;
      }

      .cls-18 {
        fill: #e3ba8e;
      }

      .cls-19 {
        fill: #9a4722;
      }

      .cls-20 {
        fill: #bd8069;
      }

      .cls-21 {
        fill: #ba6b29;
      }

      .cls-22 {
        fill: #789a3d;
      }

      .cls-23 {
        fill: #8e2c2b;
      }

      .cls-24 {
        fill: #d6e5c2;
      }

      .cls-25 {
        fill: #f4db98;
      }

      .cls-26 {
        fill: none;
      }

      .cls-27 {
        fill: #f5d47f;
      }

      .cls-28 {
        fill: #b59e82;
      }

      .cls-29 {
        fill: #d7d4a6;
      }

      .cls-30 {
        fill: #b13a36;
      }

      .cls-31 {
        fill: #fff3e8;
      }

      .cls-32 {
        fill: #9a2625;
      }

      .cls-33 {
        fill: #b12b2b;
      }

      .cls-34 {
        fill: #db6627;
      }

      .cls-35 {
        fill: #d3cc9b;
      }

      .cls-36 {
        fill: #addfe4;
      }

      .cls-37 {
        fill: #d9a45a;
      }

      .cls-38 {
        fill: #f7d17d;
      }

      .cls-39 {
        fill: #c26b29;
      }

      .cls-40 {
        fill: #a88951;
      }

      .cls-41 {
        fill: #deab6e;
      }

      .cls-42 {
        fill: #d87a2d;
      }

      .cls-43 {
        fill: #ccc489;
      }

      .cls-44 {
        fill: #703030;
      }

      .cls-45 {
        fill: #b37a3c;
      }

      .cls-46 {
        fill: #dca671;
      }

      .cls-47 {
        fill: #d69e55;
      }

      .cls-48 {
        fill: #b98e6b;
      }

      .cls-49 {
        fill: #c8a688;
      }

      .cls-50 {
        fill: #f1666d;
      }

      .cls-51 {
        fill: #f5d98c;
      }

      .cls-52 {
        fill: #d3cc99;
      }

      .cls-53 {
        fill: #dbd9b0;
      }

      .cls-54 {
        fill: #dbd9b5;
      }

      .cls-55 {
        fill: #a68754;
      }

      .cls-56 {
        fill: #d99e4f;
      }

      .cls-57 {
        fill: #de945b;
      }

      .cls-58 {
        fill: #f0e6b5;
      }

      .cls-59 {
        fill: #caae85;
      }

      .cls-60 {
        fill: #d67a2d;
      }

      .cls-61 {
        fill: #c3e0cc;
      }

      .cls-62 {
        display: none;
      }

      .cls-63 {
        fill: #bce3e3;
      }

      .cls-64 {
        fill: #c48c5e;
      }

      .cls-65 {
        fill: #ad8a54;
      }

      .cls-66 {
        fill: #d1ebe0;
      }

      .cls-67 {
        fill: #d99e52;
      }

      .cls-68 {
        fill: #f5e0a3;
      }

      .cls-69 {
        fill: #eda650;
      }

      .cls-70 {
        fill: #f2d893;
      }

      .cls-71 {
        fill: #caab80;
      }

      .cls-72 {
        fill: #f3d482;
      }

      .cls-73 {
        fill: #ccc186;
      }

      .cls-74 {
        fill: #acd3e5;
      }

      .cls-75 {
        fill: #adc13e;
      }

      .cls-76 {
        fill: #b12c2b;
      }

      .cls-77 {
        fill: #a97644;
      }

      .cls-78 {
        fill: #f7e5ba;
      }

      .cls-79 {
        fill: #d6a45f;
      }

      .cls-80 {
        clip-path: url(#clippath);
      }

      .cls-81 {
        fill: #dd9669;
      }

      .cls-82 {
        fill: #8c717d;
      }

      .cls-83 {
        fill: #b5947d;
      }
    </style>
    <clipPath id="clippath">
      <rect class="cls-26" x="20" y="23.2" width="212.2" height="212.2"/>
    </clipPath>
  </defs>
  <!-- Generator: Adobe Illustrator 28.7.0, SVG Export Plug-In . SVG Version: 1.2.0 Build 136)  -->
  <g>
    <g id="Layer_1">
      <g class="cls-62">
        <g id="Layer_1-2" data-name="Layer_1">
          <g>
            <path class="cls-22" d="M62.9,19.7c.9,1.2,1.7,2.6,2.8,3.6,1.8,2.8,2.4,6.2,4.3,9,5.1,9.2,12.5,17.6,22.3,21.9,6.3,2.7,13.2,3.6,19.9,3.3,2.9-.1,5.9-.6,8.5-2.2-4.3-4-9.2-7.2-14.4-9.8-8.1-4-17.2-4.9-25.6-8-3.6-1.3-7.1-3.4-9.4-6.6,0-.2.2-.5.2-.6,1.8,1.5,3.7,2.9,5.9,3.8,6.6,3,13.8,4.4,20.9,5.4,9.4,1.3,18.1,6.6,24,14,.2-.7.3-1.5.5-2.2.5.8,1,1.7,1.6,2.5.9,1.3,1.5,2.7,2,4.2-.3.5-.7,1.1-1,1.6-.3-.2-.8-.4-1.1-.6-.8-.4-1.7-.9-2.6-1.1-.8,0-1.5.6-2.3,1-9.2,4.6-20.5,4.8-29.7.2-5.7-2.9-10.9-6.9-15.2-11.7-6.7-7.7-10.9-17.6-11.5-27.8h0Z"/>
            <path class="cls-75" d="M65.7,23.3c.2,0,.7-.1.9-.2l-.5.7c2.4,2,5,3.8,8,4.7,4.3,1.6,8.9.9,13.3,1.4,8.3.7,16.8,3,23.5,8.3,4.5,3.8,8.5,8.3,11.8,13.2-.2.7-.3,1.5-.5,2.2-5.9-7.4-14.6-12.7-24-14-7.2-1-14.3-2.4-20.9-5.4-2.2-.9-4.1-2.3-5.9-3.8,0,.2-.2.5-.2.6-.4.4-.9.9-1.4,1.3-1.8-2.8-2.4-6.2-4.3-9h0Z"/>
            <path class="cls-75" d="M70,32.4c.5-.4.9-.8,1.4-1.3,2.3,3.1,5.7,5.3,9.4,6.6,8.4,3.2,17.5,4,25.6,8,5.2,2.6,10.1,5.8,14.4,9.8-2.6,1.5-5.6,2-8.5,2.2-6.8.2-13.7-.7-19.9-3.3-9.8-4.3-17.2-12.7-22.3-21.9Z"/>
            <path class="cls-81" d="M129.6,37.5c.8-1.4,2.1-2.7,3.8-2.9,4.4-.6,8.7,1.5,11.9,4.4,1.8,1.8,3.6,4.2,3.1,6.9-.1,1.3-1.3,2.1-2.2,3-1.4-.2-2.9.4-4.3,0-4.2-.7-8.2-3.2-10.7-6.7-1-1.4-1.3-3.1-1.6-4.8Z"/>
            <path class="cls-19" d="M124.4,53.9c.5-5.8,2.4-11.3,5.1-16.4.3,1.6.6,3.4,1.6,4.8,2.5,3.5,6.5,6,10.7,6.7,1.4.3,2.9-.3,4.3,0-2.6,2.8-4.9,5.8-6.9,9-3.8,6.2-6.6,13.4-6.2,20.8-.2.5-.4,1-.6,1.6-1.7-.3-3.4-.3-5.1-.7-.4-1.4-.9-2.8-1.2-4.2.7-2.7-.7-5.2-.8-7.9-.2-2.6-.8-5.2,0-7.8.3-.5.7-1.1,1-1.6-.5-1.5-1.1-2.9-2-4.2h0Z"/>
            <path class="cls-44" d="M124.2,59.2c.3.2.8.4,1.1.6-.8,2.5-.2,5.2,0,7.8.1,2.7,1.5,5.2.8,7.9-1.3-5.3-1.8-10.8-1.9-16.3Z"/>
            <path class="cls-2" d="M166.3,63c6.3-1.5,13.1-2.3,19.4-.1-2.1.6-4.2.2-6.3.4-7.8,1.1-15.4,3.8-21.7,8.6-3.1,2.1-6,4.4-8.8,6.9-4,3.7-7.4,8.3-12.3,11-2.4,1.5-5.7,1.4-8-.3-5.8-4-9.7-10-15.2-14.3-1.4-1.1-3.1-1.9-4.3-3.3v-1c6.3,2.6,11.9,6.5,18.2,8.7,1.7.4,3.4.4,5.1.7,1,.1,2.1.3,3.2-.1,3.6-1.3,6.8-3.6,9.5-6.3h-.6c.5-.5,1.1-1,1.6-1.4,1.5-.4,3.4-.1,4.3-1.6,1.4-1.9,3.7-2.6,5.7-3.6,0-.2-.3-.5-.4-.7,3.4-1.5,7-2.6,10.6-3.5h0Z"/>
            <path class="cls-2" d="M36.7,109.6c3.5-12.2,10.9-23.3,20.9-31.2,0,.8,0,1.6-.5,2.2-6.3,7.7-8.1,18-7.8,27.7.1,5.9,1.4,11.7,2.9,17.4,3.8,12.1,10,23.3,18,33.1,8.5,11,19.6,19.8,31.6,26.6,4.7,2.2,9.3,4.8,14.2,6.4,4.3,1.6,8.7,2.9,13.2,3.8,5.4,1.2,11,2.2,16.6,2.4,2.5,0,5,.4,7.6.3,6.7-.4,13.5-.6,20-2.4,16.3-3.3,31.9-11.3,43-23.7,1.9-2.2,3.9-4.3,5.2-6.9.4-.9,1-1.5,1.8-2-.7,2.4-2.2,4.5-3.1,6.9-3.2,6.9-6.8,13.6-10.9,20-.8,1.2-1.7,2.4-1.8,3.9-.8,1.3-1.7,2.5-2.6,3.8.1-.5.3-.9.4-1.4-.7.6-1.3,1.4-1.9,2.2-2.1,3.2-5,5.8-7.5,8.6-1.2,1.3-2.6,2.4-4,3.5-2.5,1.4-4.6,3.3-7,4.7-5.8,3.9-12.7,6.7-19.8,6-3.8-.7-7.4-2.3-11.2-3-7.4-1.5-15.2-1.1-22.4,1.4-8.9,3.4-18.7,1.5-27.5-1.3-13.9-4.8-26.5-12.8-37-23-8.7-8.7-17.1-18-23.2-28.8-1.5-2.8-3-5.6-4-8.7-.7-1.6-1-3.4-2.1-4.8-.2.8-.3,1.6-.3,2.5-.8-3-1.6-5.9-2.1-8.9-.7-4.1-1.1-8.3-1.4-12.5v-7.2c.4-6,1.2-12,2.9-17.7h0Z"/>
            <path class="cls-3" d="M157.7,71.9c6.3-4.8,13.9-7.5,21.7-8.6,2.1-.2,4.2.2,6.3-.4.2,0,.7,0,.9.1-4.1,4.7-7,10.6-8,16.8,0-.4-.2-1.1-.3-1.5-1.1,2.4-.6,5.1-.8,7.7,0,1.4-.4,3.2,1,4.2.7,2.6,1.7,5.2,3.3,7.4,3.3,4.5,7.8,7.7,12,11.2,2.1,1.8,3.8,4.1,4.3,6.9.8,4.4-.3,8.9.8,13.2,1.5,6.5,5.9,11.8,10.5,16.4,2.1,2.1,4.5,3.9,7,5.6,0,.1.1.4.2.6,1.2.8,2.4,1.5,3.6,2.2,2,1.1,4.2,1.4,6.2,2.3-.7,2.7-2.1,5.1-3,7.6-.8.5-1.4,1.1-1.8,2-1.3,2.6-3.3,4.7-5.2,6.9-11.2,12.4-26.7,20.4-43,23.7-6.5,1.7-13.3,1.9-20,2.4-2.5.1-5.1-.2-7.6-.3-5.6-.1-11.1-1.2-16.6-2.4-4.5-.9-8.9-2.2-13.2-3.8-4.9-1.6-9.5-4.2-14.2-6.4-12.1-6.8-23.1-15.6-31.6-26.6-8-9.8-14.2-21-18-33.1-1.4-5.7-2.7-11.5-2.9-17.4-.3-9.7,1.5-20,7.8-27.7.6-.6.5-1.4.5-2.2,7.8-6.2,17.3-10.4,27.3-11.7,8.3-.8,16.9.8,24.5,4.2v1c1.1,1.4,2.8,2.2,4.2,3.3,5.5,4.3,9.5,10.3,15.2,14.3,2.3,1.8,5.6,1.8,8,.3,4.9-2.8,8.2-7.3,12.3-11,2.7-2.5,5.6-4.9,8.8-6.9h0ZM170.1,70.4c-5.8,3.2-10.7,8.1-13.7,14-.7,1.8-1.1,3.7-1.3,5.5,0,2,.2,4.4,2,5.7,2.9,2.2,6.8,2.1,10.2,2,2.6-.2,5.3-.4,7.8-1.3-3.8-7.4-3.4-16.5.3-23.8,1.2-2.4,3.2-4.2,4.9-6.2-3.6.9-6.9,2.6-10.1,4.2h0ZM90.4,75.9c-2.9.7-5.8,2-7.6,4.5-.7.9-1.5,2.2-.7,3.3,2.3,2.3,5.8,2,8.8,2.5,9.8,1,17.3,8.2,26.5,11.1,1.6.5,4.1.6,4.9-1.2.9-2.8-.9-5.4-2.5-7.5-3.3-4.2-7.6-7.5-12.2-10.1-5.2-2.8-11.4-3.9-17.2-2.6h0Z"/>
            <path class="cls-9" d="M186.6,63c1.4,4.8.7,10-.2,14.9-1.2,4.7.1,9.7,2.5,13.8,1,1.5,2.2,3,3.2,4.5,2.5,2.3,5.3,4.2,7.9,6.5,1.6,1.8,3.6,3.4,4.6,5.7,1.2,2.3,1.3,5.1.5,7.6-1,3-.8,6.3-.8,9.4,0,2.2,1,4.2,1.9,6.2,1.9,3.9,5.4,6.8,8.9,9.3,2.6,2.4,5.5,4.3,7.9,6.9,2.2,1.9,3.7,4.5,4.3,7.4-3.9-.7-7.5-2.4-10.8-4.4-2.4-1.7-4.9-3.4-7-5.6-4.6-4.6-9.1-9.9-10.5-16.4-1.1-4.3,0-8.8-.8-13.2-.5-2.8-2.2-5.1-4.3-6.9-4.2-3.5-8.8-6.8-12-11.2-1.6-2.2-2.6-4.8-3.3-7.4-.4-3.4-.4-6.9.2-10.3,1-6.2,3.9-12.1,8-16.8h0Z"/>
            <path class="cls-50" d="M170.1,70.4c3.3-1.6,6.6-3.2,10.1-4.2-1.7,2-3.7,3.8-4.9,6.2-3.6,7.3-4.1,16.5-.3,23.8-2.4.9-5.1,1.1-7.8,1.3-3.4.1-7.3.2-10.2-2-1.8-1.3-2.1-3.7-2-5.7.2-1.9.6-3.8,1.3-5.5,3-5.9,7.9-10.8,13.7-14h0Z"/>
            <path class="cls-50" d="M90.4,75.9c5.8-1.2,12-.1,17.2,2.6,4.6,2.6,8.9,5.9,12.2,10.1,1.6,2.1,3.4,4.8,2.5,7.5-.9,1.8-3.3,1.7-4.9,1.2-9.2-2.9-16.7-10.1-26.5-11.1-3-.5-6.5-.2-8.8-2.5-.8-1.1,0-2.4.7-3.3,1.8-2.5,4.7-3.8,7.6-4.5h0Z"/>
            <path class="cls-30" d="M146.1,72.5c2.9-2.4,6.2-4.3,9.6-6,0,.2.3.5.4.7-2,1.1-4.3,1.8-5.7,3.6-.9,1.5-2.8,1.3-4.3,1.6h0Z"/>
            <path class="cls-76" d="M133.1,80c4.5-.6,7.9-3.7,11.4-6.3h.6c-2.7,2.8-5.9,5.1-9.5,6.4-1,.4-2.1.3-3.2.1.2-.5.4-1,.6-1.6,0,.3,0,.9,0,1.3h0Z"/>
            <path class="cls-16" d="M177.4,85.9c.2-2.6-.3-5.3.8-7.7,0,.4.2,1.2.3,1.5-.6,3.4-.6,6.9-.2,10.3-1.4-1-.9-2.8-1-4.2h0Z"/>
            <path class="cls-8" d="M168.6,226.2c.7-.5,1.4,0,2.1.3-3,1.1-6,1.9-9.2,2.4-3.4.4-6.8-.7-9.8-2.3.3,0,.9-.2,1.2-.2,4.8,2.8,10.8,2.2,15.7-.1h0Z"/>
            <path class="cls-31" d="M33.8,134.5c.3,4.2.7,8.4,1.4,12.5-.5-1-1.1-1.9-1.4-2.9v-9.6Z"/>
            <path class="cls-33" d="M216.6,151.3c0-.1-.1-.4-.2-.6,3.3,2.1,6.9,3.8,10.8,4.4v.2c-4.9,13.6-11.5,26.7-19.6,38.8,0-1.5,1-2.7,1.8-3.9,4.1-6.4,7.8-13.1,10.9-20,.9-2.3,2.4-4.4,3.1-6.9,1-2.6,2.4-4.9,3-7.6-2-.9-4.3-1.2-6.2-2.3-1.2-.6-2.4-1.4-3.6-2.2h0Z"/>
            <path class="cls-33" d="M37.7,153.4c1.1,1.4,1.4,3.2,2.1,4.8,1,3,2.4,5.9,4,8.7,6.1,10.8,14.5,20,23.2,28.8,10.5,10.2,23.2,18.3,37,23,8.8,2.8,18.6,4.6,27.5,1.3,7.1-2.5,15-2.9,22.4-1.4,3.8.7,7.4,2.3,11.2,3,7.1.7,14-2.1,19.8-6,2.5-1.4,4.6-3.3,7-4.7-.4,1.3-1.5,2.1-2.5,2.9-1,1.2-2.2,2.2-3.5,3.2-.4,0-.8,0-1.2,0-1.2,1.4-2.7,2.6-4.3,3.5-.7.4-1.2.9-1.7,1.5l.6.2c-2.8,1.7-5.7,3-8.8,4.2-.6-.3-1.4-.8-2.1-.3-4.9,2.3-10.9,3-15.7.1-.3,0-.9.2-1.2.2-3.6-1.9-7-4.8-11.3-4.7-4.9,0-9,3-13.3,4.9-3.2,1.3-6.5,2.4-10,2.6-5.3.1-10.5-1.4-15.4-3.4-10.2-4.3-19.4-10.5-28.2-17-9.1-6.5-16.8-14.8-22.9-24.2.2-.7.8-1.4.3-2.1-.8-1.1-2-1.9-2.7-3.2-.6-1.1-1.2-2.3-2.5-2.7-3.6-6.6-6.4-13.6-8.5-20.8,0-.8.2-1.6.3-2.5h0Z"/>
            <path class="cls-23" d="M45.8,176.7c1.3.4,1.8,1.6,2.5,2.7.7,1.2,1.9,2.1,2.7,3.2.5.7-.1,1.4-.3,2.1-1.7-2.6-3.3-5.3-4.8-8h0Z"/>
            <path class="cls-32" d="M203.5,198.7c.5-.8,1.1-1.6,1.9-2.2-.1.5-.2.9-.4,1.4-6.9,9.6-15.3,18.4-25.5,24.4l-.6-.2c.4-.6,1-1.2,1.7-1.5,1.6-.9,3-2.1,4.3-3.5.4,0,.8,0,1.2,0,1.3-.9,2.5-2,3.5-3.2,1-.8,2.1-1.7,2.5-2.9,1.4-1.1,2.8-2.2,4-3.5,2.6-2.8,5.4-5.4,7.5-8.6h0Z"/>
          </g>
        </g>
      </g>
      <g id="Layer_1-3" data-name="Layer_1">
        <g class="cls-80">
          <g>
            <path class="cls-82" d="M132.1,23.6c1.8.1,5.3.4,7,.5-1.8-.1-5.3-.4-7-.5"/>
            <path class="cls-6" d="M139.1,24.1c20.5,2.6,40.3,11.3,56,24.7,1.7,1.6,3.4,3.2,5.1,4.9-11.4,1.4-23,1.9-34.5.5-6.7-2.2-16.7-.9-19.9-8.9-16.7-14.9-42.8-16.2-62.8-7.4-2.3.7-4.3-1.3-6.2-2.2,15.5-9.1,33.7-12.1,51.5-12.6,1.3.1,2.5.3,3.8.4,1.8.1,5.3.4,7,.5"/>
            <path class="cls-53" d="M83,38c20-8.8,46-7.4,62.8,7.4,3.1,8,13.2,6.7,19.9,8.9-5.3,0-10.5-.9-15.8-.9-21.3-2.3-42.9-4.3-63.2-11.5-3.9-3.1-11.1,1.2-13.1-4.4,1-.6,2.1-1.2,3.1-1.7,2,.8,3.9,2.8,6.2,2.2"/>
            <path class="cls-61" d="M165.8,54.3c11.4,1.4,23,.9,34.5-.5,1.7,1.6,3.2,3.4,4.8,5.2-7.8.8-15.7-1-23.5-.2-4.4,0-8.8.3-13.2-.1-4.5-1-9-.7-13.5-1-1.1-1.9-3.1-3-4.7-4.3,5.2,0,10.5.8,15.8.9"/>
            <path class="cls-79" d="M205,58.9c4,3.8,7.3,8.2,10.2,12.9-.5.5-1.6,1.6-2.2,2.1-8,.7-15.9,1.3-23.9,1.2,3.3-3.1-1.9-6.5-2.8-9.6,3.1-.1,10.6-4.3,0-3-2.6.4-3.6-2-4.6-3.8,7.8-.9,15.7,1,23.5.2"/>
            <path class="cls-66" d="M66.4,41.7c2.3-1.5,4.8-2.9,7.3-4.2,2.1,5.6,9.3,1.3,13.1,4.4,20.3,7.1,41.9,9.2,63.2,11.5,1.7,1.3,3.7,2.3,4.7,4.3-7.9-2.1-16-.4-24-1.8-21.9-2.2-44.3-4.5-64.4-14.1"/>
            <path class="cls-51" d="M168.2,58.6c4.4.4,8.8.2,13.2.1,1.1,1.8,2.1,4.2,4.6,3.8,10.7-1.3,3.2,2.9,0,3,.9,3.1,6.2,6.5,2.8,9.6-.5,0-1.6,0-2.1,0-11.8-2.5-23.8-3.7-35.7-5.9-1-.3-2.8-1-3.8-1.3,8-.7,12.2-9.2,20.7-9.3"/>
            <path class="cls-68" d="M154.8,57.7c4.5.3,9,0,13.5,1-8.5,0-12.7,8.5-20.7,9.3-10.9-.8-21.9-1.5-32.8-.3-1.6-.3-3.1-.6-4.6-.9,8.3-1.7,12.3-10.4,20.7-10.9,8,1.4,16.1-.3,24,1.8"/>
            <path class="cls-78" d="M49.8,55.9c5.1-5.2,10.5-10.2,16.7-14.2,20.1,9.6,42.5,11.9,64.4,14.1-8.5.5-12.5,9.2-20.7,10.9-20,1.6-41,0-59-9.3-.3-.4-1-1.1-1.3-1.5"/>
            <path class="cls-20" d="M215.1,71.9c1,1.5,2.1,3.1,3.2,4.6,2.6,5.6,5.2,11.3,7.3,17.1-1.2.2-2.3.4-3.5.6-1.3-3.3-2.2-6.7-3.4-9.9-1.3-3.7-3.7-6.9-5.7-10.2.5-.5,1.6-1.6,2.2-2.1"/>
            <path class="cls-10" d="M189,75.2c8,0,16-.5,23.9-1.2,2,3.4,4.3,6.6,5.7,10.2-3.2,4.4-9.5,3.5-14.2,3.9-9.9,0-19.8,2.4-29.7,1.6,1-7.7,1.7-18.9,12.3-14.7.5,0,1.6,0,2.1,0"/>
            <path class="cls-5" d="M151.3,69.2c11.8,2.2,23.9,3.4,35.7,5.9-10.5-4.3-11.2,6.9-12.3,14.7-.9.5-1.8,1-2.7,1.6-10.1-1.1-22.3-3.9-27.1-14.1,1.1-2.3-1.3-4.9-1.1-7.4,2.5-.5,5,0,7.5-.7"/>
            <path class="cls-46" d="M114.7,67.6c10.9-1.2,21.9-.5,32.8.3.9.3,2.8,1,3.8,1.3-2.5.7-5,.2-7.5.7-.3,2.5,2.2,5.1,1.1,7.4-3.1-3.7-13.9-1.4-9.2,3.9,3.2,4.9-5.4,5.2-8.6,5.2-7.1-2.5-13.5-6.4-20.3-9.2.3-4.7,3.8-7.8,8-9.5"/>
            <path class="cls-77" d="M218.6,84.2c1.2,3.3,2.2,6.7,3.4,9.9-2.4.2-4.8.3-7.2.4-10.7.5-21.7.1-32.2,2.7-3.5,3.2-7.7,5.8-12.6,4-4.3-3.1,1.8-6.3,1.9-9.9.9-.5,1.8-1.1,2.7-1.6,10,.7,19.8-1.6,29.7-1.6,4.7-.4,11,.5,14.2-3.9"/>
            <path class="cls-18" d="M110,66.7c1.5.3,3.1.6,4.6.9-4.2,1.6-7.7,4.7-8,9.5-10.2.9-19.8,5-29.3,8.3-12.4-2.6-24.7-5.8-36.8-9.3,2.1-6.9,11.2-11.4,10.5-18.7,18.1,9.4,39.1,10.8,59,9.3"/>
            <path class="cls-64" d="M36.4,72.9c3.9-6.1,8.2-11.9,13.3-17,.3.4,1,1.1,1.3,1.5.8,7.3-8.4,11.8-10.5,18.7l-1-.2c-1-1-2.1-1.9-3.1-2.9"/>
            <path class="cls-48" d="M135.7,81.1c-4.6-5.3,6.2-7.6,9.2-3.9,4.8,10.2,17,12.9,27.1,14.1,0,3.7-6.2,6.9-1.9,9.9-1.5-.3-3-.6-4.4-.8-15.4-2-30.9-3.1-46.1-6.7,2.9-2,5.5-4.5,7.5-7.4,3.2,0,11.9-.3,8.6-5.2"/>
            <path class="cls-59" d="M222.1,94.1c1.2-.2,2.3-.4,3.5-.6,2.5,6.4,4,13.1,5.6,19.7l-.4.7c-3.1-.4-6.2.5-9.2,1.2-9.7-1.5-1.6-14.4-6.7-20.7,2.4,0,4.8-.2,7.2-.4"/>
            <path class="cls-43" d="M182.7,97.2c10.5-2.6,21.5-2.2,32.2-2.7,5.2,6.2-2.9,19.2,6.7,20.7-13.4,2.9-27.3,2.6-40.4,6.9-9.8,1.6-19.1,5.7-29.1,6.1-.8-10.3,15.7-16.4,13.6-27.7,1.5.2,3,.5,4.4.8,4.9,1.7,9.1-.9,12.6-4"/>
            <path class="cls-49" d="M77.4,85.4c9.6-3.3,19.2-7.4,29.3-8.3,6.9,2.8,13.3,6.7,20.3,9.2-2,3-4.6,5.5-7.5,7.4-9.3-1.7-18.5-3.7-27.8-5.1-4.8-1.1-9.6-2.2-14.4-3.2"/>
            <path class="cls-7" d="M36.4,72.9c1,1,2.1,1.9,3.1,2.9-.1,6.7-2.9,14.4-10.3,10.5,2-4.7,4.3-9.2,7.2-13.4"/>
            <path class="cls-54" d="M39.6,75.8l1,.3c12.2,3.5,24.4,6.7,36.8,9.3,4.8,1.1,9.6,2.1,14.4,3.2,5.2,1.6,10.5,3,15.8,4-2,6.5-13.1,2.1-12.8,11.1,5.4,3.5,11.9,5.6,16.5,10.3-9.6-3.1-18.2-8.7-27.5-12.2-5.5-.9-2.5,7.4-7.4,7.7-8,4.3-12.8-5.7-18.4-9.6-10.1-3.3-19.4-8.3-29.1-12.6l.4-1c7.4,3.9,10.2-3.8,10.3-10.5"/>
            <path class="cls-52" d="M119.6,93.7c15.1,3.7,30.7,4.7,46.1,6.7,2.1,11.3-14.4,17.4-13.6,27.7-2.3.3-4.6.4-6.8.6-3.2-1-6.4-2.1-9.6-3.2-5.4-6.9-15.8-7-20.8-13.9,2.7-.8,8,1.5,9.9-1.9,1.7-2.2,0-6,2.7-7.3,2.3-1.1,5.5,0,7.3-2.1-8.4-4.3-18-5.9-27.2-7.6-5.3-1-10.6-2.4-15.8-4,9.3,1.4,18.5,3.4,27.9,5.1"/>
            <path class="cls-11" d="M221.6,115.2c3-.7,6.1-1.6,9.2-1.2.2,1.6.5,3.1.7,4.7-1,4-5.4,3.9-8.4,5.5-2.9.9-5.8,1.6-8.7,2.5-4.8,1.1-9.7,1.6-14.4,3.1-14.3,1.7-28.2,5.1-42.4,7.1-5.7-1.2-11.4-2.1-17-3.5.4-2.5,2.5-3.8,4.7-4.6,2.3-.2,4.6-.4,6.8-.6,10-.4,19.3-4.4,29.1-6.1,13.1-4.3,27.1-4,40.4-6.9"/>
            <path class="cls-29" d="M107.5,92.6c9.2,1.8,18.8,3.3,27.2,7.6-1.8,2-5,1-7.3,2.1-2.8,1.3-1,5.2-2.7,7.3-1.9,3.4-7.2,1.1-9.9,1.9,5.1,6.9,15.4,7,20.8,13.9-8.6-2.6-16.5-7.3-24.3-11.6-4.6-4.7-11.1-6.8-16.5-10.3-.3-8.9,10.7-4.5,12.8-11.1"/>
            <path class="cls-28" d="M231.5,118.8c.4,4.6.6,9.2.7,13.8-.5,1.8-1.4,5.3-1.9,7.1-7.6-2.6,3.6-17.8-7.2-15.4,3-1.6,7.5-1.5,8.4-5.5"/>
            <path class="cls-65" d="M223,124.2c10.8-2.4-.4,12.9,7.2,15.4.5-1.8,1.4-5.3,1.9-7.1-.2,6.5-1.7,12.8-3,19.2-1.1.3-2.2.7-3.3,1-.7-2.9,4.3-11.5-1.4-12.1-4.4,1-8.7,2.9-13.2,3.4.7-5.7,4.8-11.4,3-17.3,2.9-.9,5.8-1.6,8.7-2.5"/>
            <path class="cls-1" d="M28.9,87.3c9.6,4.3,19,9.3,29.1,12.6,5.6,3.9,10.4,13.9,18.4,9.6,4.9-.3,1.9-8.6,7.4-7.7,9.3,3.6,17.9,9.1,27.5,12.2,7.8,4.3,15.7,8.9,24.3,11.6,3.2,1.1,6.3,2.2,9.6,3.2-2.2.8-4.3,2.1-4.7,4.6-4.1-.6-7.6-2.6-11.2-4.7-9-3.9-22-13.8-29.7-3.2-3.6-.6-7-1.3-10.5-2.2-12-4.9-24.3-9.3-35.1-16.7-8.2,3.4-14.9-2.7-22.2-5.7-1.9-1-3.7-1.9-5.6-2.8,0-.8-.3-2.5-.4-3.4,1-2.6,2-5.1,3.1-7.6"/>
            <path class="cls-37" d="M199.9,129.8c4.7-1.4,9.6-1.9,14.4-3.1,1.8,5.9-2.3,11.5-3,17.3-.5.4-1.4,1.1-1.9,1.5-4.6.3-9.1.7-13.7,1.1,1.6-5.5,3.1-11.1,4.2-16.8"/>
            <path class="cls-57" d="M24.2,99.1c.5-1.4,1-2.8,1.6-4.3,0,.8.3,2.5.4,3.4.6,3.9.9,7.8,1.3,11.7,14.1,3.4,26,12.2,39.8,16.5,21.2,7.1,43.1,12,65.1,15.8,4.8,1,9.6,2,14.4,3-6.2,2.4-24.3-9.7-21.5,2.5-3-.6-5.9-1.2-8.9-1.8-29.4-5.6-58.8-12.5-86.4-24.3-4.3-2.1-9.6-3.7-9.7,2.5,0-1.5-.1-3.1-.2-4.6,1.6-6.8,3-13.6,4.1-20.5"/>
            <path class="cls-27" d="M157.5,136.9c14.2-1.9,28.2-5.4,42.4-7.1-1,5.7-2.6,11.3-4.2,16.8-16.3,2.3-32.7,0-49-1.3-4.8-1-9.6-2.1-14.4-3,.9-2,.9-4.3,1.3-6.4,8-.2,15.9,2.2,23.8,1.1"/>
            <path class="cls-25" d="M26.2,98.2c1.9.9,3.8,1.8,5.6,2.8,4.8,5.5,13.2,15.1,20.7,8.7,4.7-.8,1.6,2.3.2,4.5,3.5,3.4,9,5,13.7,4.9,8-3.5,14.5,6.2,22.6,4.3,3.5.8,6.9,1.6,10.5,2.2,4.6,1.2,7-6.1,12.1-2.2,6,1.5,11.4,4.7,17.6,5.4,3.5,2,7,4.1,11.2,4.7,5.6,1.4,11.3,2.3,17,3.5-7.9,1.1-15.9-1.3-23.8-1.1-.3,2.2-.4,4.4-1.3,6.4-22.1-3.9-43.9-8.7-65.1-15.8-13.8-4.3-25.7-13-39.8-16.5-.4-3.9-.7-7.8-1.3-11.7"/>
            <path class="cls-4" d="M20,119.6c-.4-7,1.9-13.9,4.1-20.5-1.2,6.9-2.5,13.7-4.1,20.5"/>
            <path class="cls-58" d="M31.8,100.9c7.3,3,13.9,9.2,22.2,5.7,10.8,7.4,23.2,11.8,35.1,16.7-8.1,1.9-14.6-7.9-22.6-4.3-4.8.1-10.2-1.4-13.7-4.9,1.3-2.2,4.4-5.3-.2-4.5-7.4,6.5-15.9-3.1-20.7-8.7"/>
            <path class="cls-39" d="M211.3,144c4.6-.5,8.8-2.4,13.2-3.4,5.7.6.6,9.1,1.4,12.1-5.5,3.2-12.1,2.1-18.2,2.3,0-3.3.3-6.5,1.7-9.6.5-.4,1.4-1.1,1.9-1.5"/>
            <path class="cls-24" d="M99.6,125.5c7.7-10.6,20.8-.7,29.7,3.2-6.2-.7-11.6-4-17.6-5.4-5.1-3.9-7.5,3.4-12.1,2.2"/>
            <path class="cls-60" d="M195.7,146.6c4.6-.4,9.1-.8,13.7-1.1-1.3,3-1.6,6.2-1.7,9.6-2.4,0-4.7,0-7,0-24.8-3.3-51.3,1.4-75.5-7.3-2.8-12.2,15.3,0,21.5-2.5,16.2,1.4,32.7,3.6,49,1.3"/>
            <path class="cls-71" d="M225.9,152.8c1.1-.3,2.2-.7,3.3-1-.9,4.2-1.9,8.3-3.2,12.4,0-.9.2-2.7.3-3.6-7.6,3.1-15.8,3.9-23.8,5.1-.4-3,2.7-9-1.7-10.4,2.3,0,4.7,0,7,0,6.1-.2,12.6.8,18.2-2.3"/>
            <path class="cls-35" d="M20.2,124.2c0-6.2,5.4-4.5,9.6-2.5,27.6,11.8,57,18.7,86.5,24.3.9,1.9,1.7,3.9,2.6,5.9-6.4-1.3-12.2,2.5-18.2,3.6-6.1-1-10.4-5.3-14.6-9.3-5.8-2.4-12-2.1-17.9-.4-7.4,1.9-16.4-2.3-17.9-10.2-10-1.7-20.5,1.1-30.1-3.6,0-2.6,0-5.2,0-7.8"/>
            <path class="cls-73" d="M125.2,147.8c24.2,8.7,50.7,4.1,75.5,7.3,4.4,1.4,1.3,7.4,1.7,10.4-1.3.2-2.5.4-3.8.6-10.7,1.1-21.5,3-32.3,2.1-13.5-9.5-33.3-2.4-45.2-14.9-.5-.4-1.6-1.1-2.1-1.5-.9-2-1.7-4-2.6-5.9,3,.5,5.9,1.1,8.9,1.8"/>
            <path class="cls-74" d="M202.4,165.6c8-1.2,16.2-2,23.8-5.1,0,.9-.2,2.7-.3,3.6-.9,2.7-1.8,5.4-2.7,8.1-.8,1.4-1.6,2.8-2.4,4.3-2.8.3-5.7.8-8.5,1.4-8,1.1-16.2,2.5-24.3,1.4,6.1-.8,11.1-7.6,10.5-13.2,1.3-.2,2.5-.4,3.8-.6"/>
            <path class="cls-63" d="M20.2,132c9.5,4.8,20,1.9,30.1,3.6,1.5,7.8,10.5,12,17.9,10.2,5.8-1.6,12.1-1.9,17.9.4,4.2,4,8.5,8.4,14.6,9.3,6.1-1.1,11.9-4.9,18.2-3.6.5.4,1.6,1.2,2.1,1.5-5.4-.4-17.5,0-15.8,7.8-14-5-28.6-10.8-43.9-9.9-8.9,1.2-17.8.6-26.7.7-4.2-.9-8.3-1.8-12.5-2.2-1.6-5.8-1.8-11.9-1.9-17.9"/>
            <path class="cls-36" d="M166.2,168.3c10.8.9,21.6-1,32.3-2.1.6,5.6-4.5,12.4-10.5,13.2-4.6-.6-9.2-1-13.8-.4-14.2-1.9-28-6.9-42.4-5.7-8.7-.3-15-7.2-23.1-9.4-1.2-.8-2.3-1.7-3.4-2.5-1.7-7.8,10.4-8.1,15.8-7.8,11.9,12.4,31.7,5.4,45.2,14.9"/>
            <path class="cls-83" d="M212.3,177.9c2.8-.6,5.7-1,8.5-1.4-6.1,12.9-15.5,24.1-25.9,33.7-11.7,9.6-25.3,16.8-39.8,21-12.8,3.4-26.1,4.8-39.3,3.4-6.8-1.6-13.7-2.8-20.6-4-.8-.2-2.5-.8-3.3-1,28.6,6.7,61.3,4.7,85.9-12.8,3.5-2,7-4,10.4-6.2,7.4-5.5,13.1-13,19-20,.6-.3,1.9-.9,2.5-1.2,2.2-2.2,5.7-9.6,2.7-11.5"/>
            <path class="cls-70" d="M61.4,151.4c15.2-1,29.8,4.8,43.9,9.9,1.1.8,2.3,1.7,3.4,2.5-12.1-3.9-24.9-4.9-37.5-4.9-2.8.3-5.5,1-8.3,1.6-2.6.4-5.2,1.1-7.9,1.6-6.6-3.9-18.1-1-20.3-9.9,8.9-.1,17.8.5,26.7-.7"/>
            <path class="cls-12" d="M188.1,179.4c8.1,1,16.3-.3,24.3-1.4,3,1.8-.5,9.2-2.7,11.5-.3-1.1-.6-2.2-1-3.3-8,0-16.1,1.2-24-.5.8-1.6,1.6-3.3,2.4-4.9.3-.3.9-1,1.1-1.3"/>
            <path class="cls-72" d="M71.2,158.8c12.6,0,25.4,1,37.5,4.9,8.1,2.3,14.4,9.1,23.1,9.4,14.4-1.2,28.3,3.8,42.4,5.7-2.2,1.4-4,3.1-5.6,5.1-25.3-2.5-53.6-2.3-74.5-19-4.3-2.5-9.4-3.3-14.3-4.2-2.9-.7-5.8-1.4-8.7-2"/>
            <path class="cls-17" d="M174.3,178.9c4.6-.5,9.2-.1,13.8.5-.3.3-.9,1-1.1,1.3-4.3-.4-8.5-.8-12.7-1.8"/>
            <path class="cls-47" d="M174.3,178.9c4.1,1,8.4,1.4,12.7,1.8-.8,1.6-1.6,3.3-2.4,4.9-.5,0-1.6-.1-2.1-.1-4.6-.4-9.5.7-13.8-1.4,1.6-2,3.5-3.7,5.6-5.1"/>
            <path class="cls-41" d="M22.2,149.8c4.2.5,8.4,1.3,12.5,2.2,2.3,8.8,13.8,6,20.3,9.9-10.8-.4-21.3-5.7-32-7.7-.4-1.5-.6-3-.8-4.4"/>
            <path class="cls-69" d="M74.9,167.1c-3.4.4-9,.9-8.3,5.8,7.4,5.5,17.4,7.1,26.3,5.1,2.1-8.8-11.9-11-18-10.9M62.9,160.4c2.8-.6,5.5-1.2,8.3-1.6,2.9.6,5.8,1.3,8.7,2,5.2,5.2,22.7,7.6,17.2,19.1-8.2,4.6-19.2,4.2-27.3-.5-3.8-3.3-13.3-9.3-7-14.4,1.6-1.5,3.5-4.2,0-4.7"/>
            <path class="cls-42" d="M79.9,160.8c4.9.9,9.9,1.7,14.3,4.2,20.9,16.7,49.2,16.5,74.5,19,4.3,2.1,9.2,1,13.8,1.4-2,1.6-3.5,3.6-4.9,5.7h-1.7c-5.7-.2-11.4-.5-17.1-1.1-15.5-1.6-30.7-4.9-45.7-9.1-11.1,1.8-20.9,10.3-32.8,8.4-13-3.3-22.9-13.2-31.7-22.7-1.5-.4-4.5-1.3-6-1.7-6.1-1.1-11.8-4.5-18.1-4.7-.6-2-1.2-4-1.6-6,10.8,1.9,21.2,7.2,32,7.7,2.6-.4,5.2-1.2,7.9-1.6,3.5.5,1.5,3.2,0,4.7-6.3,5,3.2,11.1,7,14.4,8.1,4.6,19.1,5.1,27.3.5,5.4-11.5-12-13.8-17.2-19.1"/>
            <path class="cls-21" d="M184.6,185.6c7.9,1.7,16,.6,24,.5.4,1.1.7,2.2,1,3.3-.6.3-1.9.9-2.5,1.2-9.8.7-19.7.8-29.5.6,1.3-2.2,2.9-4.1,4.9-5.7.5,0,1.6.1,2.1.1"/>
            <path class="cls-40" d="M177.6,191.2c9.8.2,19.7,0,29.5-.6-5.9,7-11.6,14.5-19,20-.5-9.2-16.8-3.8-21-12.4,3-2.2,6.3-4.2,8.7-7h1.7"/>
            <path class="cls-34" d="M74.9,167.1c6.1-.1,20.1,2.1,18,10.9-8.9,2-18.9.4-26.3-5.1-.7-4.8,4.9-5.3,8.3-5.8"/>
            <path class="cls-67" d="M24.6,160.3c6.3.2,12,3.6,18.1,4.7-1.7,9.2,8.8,6.5,11.8,14.2,10.3,10.6,24.3,16.1,37.9,21.1-22.9,1.3-42.8-13.5-59.1-28-1.2.4-2.3,1-3.4,1.8-2.1-4.5-3.9-9.2-5.3-14"/>
            <path class="cls-38" d="M42.7,165c1.5.4,4.5,1.3,6,1.7,8.8,9.5,18.7,19.4,31.7,22.7,11.9,1.9,21.7-6.6,32.8-8.4,15,4.2,30.2,7.6,45.7,9.1-4.3,2.9-9.1,4.7-13.8,6.8-5.5,3.4-10.2-4.3-15.8-3.6-11.1,1.1-21.7,5.6-32.7,7.3-1.3,0-2.7-.2-4-.2-13.6-5-27.6-10.5-37.9-21.2-3-7.7-13.5-5-11.8-14.2"/>
            <path class="cls-56" d="M158.8,190.1c5.7.6,11.4.9,17.1,1.1-2.5,2.9-5.8,4.8-8.7,7-1.2.7-2.3,1.3-3.5,1.9-4.4-2.3-7.4.6-10.4,3.5-5.7,0-10.2-5.5-16.1-4.2-13.3,3.2-27.4,4.4-40.7,1.1,11.1-1.6,21.6-6.1,32.7-7.3,5.6-.7,10.4,7,15.8,3.6,4.7-2.1,9.5-3.9,13.8-6.8"/>
            <path class="cls-14" d="M29.9,174.2c1-.9,2.1-1.5,3.4-1.8,16.4,14.4,36.2,29.3,59.1,28,1.3,0,2.7.1,4,.2,13.4,3.3,27.5,2.1,40.7-1.1,5.8-1.3,10.3,4.1,16.1,4.2,3-2.9,6-5.8,10.4-3.5-31.3,19.8-71.8,18.2-104.7,3.9-1.6-1.1-3.3-2.1-4.8-3.3-6.4-9.5-14.7-17.8-22.4-26.3-.1.5-.5,1.6-.7,2.1-.3-.6-.9-1.8-1.1-2.4"/>
            <path class="cls-45" d="M163.6,200.2c1.2-.6,2.3-1.3,3.5-1.9,4.2,8.6,20.5,3.2,21,12.4-3.4,2.2-6.9,4.2-10.4,6.2-13.2,3.8-27.1,4.5-40.7,6.8-26.5-2.5-55.2-4.7-78.2-19.5,33,14.3,73.4,15.9,104.7-3.9"/>
            <path class="cls-13" d="M31.7,174.5c7.6,8.6,16,16.8,22.4,26.3-3.7-1.6-7.2-3.4-10.5-5.6-5.9-4.9-8.5-12.4-12.5-18.6.2-.5.5-1.6.7-2.1"/>
            <path class="cls-55" d="M137.1,223.6c13.5-2.3,27.4-3,40.7-6.8-24.5,17.5-57.3,19.5-85.9,12.8-19-6.3-36.5-18.1-48.4-34.4,3.4,2.1,6.9,4,10.5,5.6,1.6,1.1,3.2,2.2,4.8,3.3,22.9,14.8,51.7,17,78.2,19.5"/>
            <path class="cls-15" d="M95.2,230.6c6.9,1.2,13.8,2.4,20.6,4l-.8.6c-6.7-1-13.5-2.4-19.9-4.7"/>
          </g>
        </g>
      </g>
    </g>
  </g>
</svg>